<?xml version="1.0" encoding="utf-8"?>
<svg version="1.1" id="Layer_1"
xmlns="http://www.w3.org/2000/svg"
xmlns:xlink="http://www.w3.org/1999/xlink"
xmlns:author="http://www.sothink.com"
width="17px" height="16px"
xml:space="preserve">
<g id="9595" transform="matrix(1, 0, 0, 1, 8.2, 7.75)">
<path style="fill:#D3DFFF;fill-opacity:1" d="M2.25,-4.35L-0.35 -4.35L-0.35 -2.55L2.25 -2.55L2.25 -4.35M5.75,-0.05L5.95 -1.75L3.1 -1.75L3.1 -0.05L5.75 -0.05M2.25,-1.75L-0.35 -1.75L-0.35 -0.05L2.25 -0.05L2.25 -1.75M3.1,-4.35L3.1 -2.55L6.05 -2.55L6.35 -4.35L3.1 -4.35M8.2,-5L7.3 0.95Q7.2 1.7 6.55 1.7L-3.2 1.7L-3 2.55L5.7 2.55L6.25 2.8Q6.55 3 6.55 3.35L6.25 3.9L5.7 4.2L-3.75 4.2L-4.05 4.15L-4.55 3.7L-4.55 3.5L-6.2 -5.95L-7.35 -5.95L-7.9 -6.25L-8.2 -6.8L-7.9 -7.5L-7.35 -7.75L-5.4 -7.75Q-4.75 -7.75 -4.65 -7L-4.45 -5.95L7.35 -5.95L8.05 -5.7L8.2 -5M-1.15,-0.05L-1.15 -1.75L-3.7 -1.75L-3.45 -0.05L-1.15 -0.05M-1.15,-4.35L-4.15 -4.35L-3.9 -2.55L-1.15 -2.55L-1.15 -4.35M-1.15,6.35Q-1.15 6.85 -1.55 7.2Q-1.9 7.65 -2.5 7.65Q-3 7.65 -3.4 7.2Q-3.75 6.85 -3.75 6.35Q-3.75 5.8 -3.4 5.4Q-3 5.05 -2.5 5.05Q-1.95 5.05 -1.55 5.4Q-1.15 5.8 -1.15 6.35M6.55,6.35Q6.55 6.85 6.15 7.2Q5.75 7.65 5.25 7.65Q4.65 7.65 4.25 7.2Q3.9 6.85 3.9 6.35Q3.9 5.8 4.25 5.4Q4.75 5.05 5.25 5.05Q5.75 5.05 6.15 5.4Q6.55 5.8 6.55 6.35" />
</g>
</svg>
