<?xml version="1.0" encoding="utf-8"?>
<svg version="1.1" id="Layer_1"
xmlns="http://www.w3.org/2000/svg"
xmlns:xlink="http://www.w3.org/1999/xlink"
xmlns:author="http://www.sothink.com"
width="125px" height="122px"
xml:space="preserve">
<g id="15262" transform="matrix(1, 0, 0, 1, 59.75, 60.7)">
<path style="fill:#FFE7D4;fill-opacity:1" d="M59.25,18.5Q64.6 26.7 64.75 33.05Q64 45.95 41.1 55.45Q27.85 60.9 10.65 60.45L8.75 60.3L-5.35 58.4Q-12.7 57.1 -18.9 55.3Q-33.05 51.1 -41.15 44.1L-44.1 40.75Q-50.5 32.25 -54.8 19.9Q-57.65 11.85 -58.9 5.1L-59.7 -0.6Q-60.35 -27.95 -45.15 -43.05Q-37.4 -50.25 -28.6 -54.5L-24.95 -56.1Q-8.25 -62.85 11.9 -59.65Q22 -57.25 29.95 -53.95L30 -53.9Q48.85 -44.65 55 -31.7Q59.95 -22.3 61.7 -11.3Q64.3 5.5 59.25 18.5" />
</g>
</svg>
