<?xml version="1.0" encoding="utf-8"?>
<svg version="1.1" id="Layer_1"
xmlns="http://www.w3.org/2000/svg"
xmlns:xlink="http://www.w3.org/1999/xlink"
xmlns:author="http://www.sothink.com"
width="69px" height="133px"
xml:space="preserve">
<g id="15319" transform="matrix(1, 0, 0, 1, 67.15, 71.25)">
<path style="fill:#D9B2A7;fill-opacity:1" d="M-5,-68.75Q-1.75 -70.9 1.7 -71.25Q-4.45 -69.95 -3.8 -64.3Q-15.9 -69.75 -21.5 -55.85Q-34.2 -60.3 -34.35 -46.75Q-60.65 -39.6 -47.95 -17.9Q-60.25 -6.65 -50.7 6.95Q-60.7 21.3 -46.05 30.5Q-55.8 44.15 -30.6 50.1Q-25.9 59.9 -16.25 60.8Q-21.9 62.95 -27 57Q-38.95 59 -44.6 47.45Q-53.55 50.8 -56.3 40.65Q-66.75 37.2 -60.6 26.35Q-72.55 18.55 -62.65 7.7Q-71.25 -2 -63.35 -11.3Q-71.2 -21.9 -57.5 -32.05Q-58.45 -46.9 -44.75 -52.75Q-39.05 -64.3 -26 -64.05Q-18.85 -74.6 -5 -68.75M-45.2,-6.55Q-45.2 -3.75 -46.2 -1.8Q-47.15 0.2 -48.5 0.2Q-49.85 0.2 -50.85 -1.8Q-51.8 -3.75 -51.8 -6.55Q-51.8 -9.4 -50.55 -10.9Q-49.35 -12.5 -47.85 -12.25Q-46.35 -12 -45.75 -10.65Q-45.2 -9.4 -45.2 -6.55M-35.4,18.3Q-34.75 20.3 -35.95 22.05Q-37.15 23.8 -38.85 23.8Q-40.55 23.8 -41.75 22.05Q-42.95 20.3 -43.4 17.5Q-43.9 14.7 -42.7 12.95Q-41.5 11.25 -40.05 11.95Q-38.55 12.7 -37.35 14.5Q-36.1 16.2 -35.4 18.3M-27.45,36.95Q-25.85 40.05 -26.3 42.3Q-26.8 44.55 -29.5 44.1Q-32.25 43.55 -35.5 41.5Q-38.8 39.5 -40.2 36.65Q-41.65 33.75 -40.2 31.75Q-38.8 29.75 -36.5 29.75Q-34.2 29.75 -31.65 31.75Q-29.05 33.75 -27.45 36.95M-14.25,51.75Q-14.25 53.2 -15.3 54.2Q-16.3 55.25 -17.75 55.25Q-19.2 55.25 -20.25 54.2Q-21.25 53.2 -21.25 51.75Q-21.25 50.35 -20.25 49.3Q-19.2 48.3 -17.75 48.3Q-16.3 48.3 -15.3 49.3Q-14.25 50.35 -14.25 51.75M-41.85,5.55Q-41.85 6.5 -42.55 7.2Q-43.25 7.9 -44.2 7.9Q-45.15 7.9 -45.85 7.2Q-46.55 6.5 -46.55 5.55Q-46.55 4.6 -45.85 3.95Q-45.15 3.25 -44.2 3.25Q-43.25 3.25 -42.55 3.95Q-41.85 4.6 -41.85 5.55M-46.7,17.35L-47.25 19.5Q-47.4 20.5 -48.35 20.5Q-49.3 20.5 -50 19.6Q-50.65 18.75 -50.65 17.5Q-50.65 16.25 -50 15.4Q-49.3 14.5 -48.35 14.5Q-47.4 14.5 -46.8 15.4Q-46.25 16.2 -46.7 17.35" />
</g>
</svg>
