<?xml version="1.0" encoding="utf-8"?>
<svg version="1.1" id="Layer_1"
xmlns="http://www.w3.org/2000/svg"
xmlns:xlink="http://www.w3.org/1999/xlink"
xmlns:author="http://www.sothink.com"
width="124px" height="123px"
xml:space="preserve">
<g id="15245" transform="matrix(1, 0, 0, 1, 59.9, 60.7)">
<path style="fill:#FFE7D4;fill-opacity:1" d="M-6.4,-60.7Q19.1 -60.85 37.45 -49.9Q48.9 -42.8 53.9 -33.75Q64.35 -11.7 63.05 11.9L62.6 25.1Q63.35 40.5 55.95 46.65Q39.15 60.45 13.5 62L8.75 62L-5.25 60.6L-5.35 60.6Q-20.1 58 -33.7 50.75Q-46.75 42.65 -52.65 29.3Q-57.45 18.1 -59.6 1.1L-59.85 -0.85Q-60.5 -28.15 -45.3 -43.25Q-36.55 -51.35 -26.55 -55.7L-25.05 -56.35Q-16.25 -59.95 -6.4 -60.7" />
</g>
</svg>
