<?xml version="1.0" encoding="utf-8"?>
<svg version="1.1" id="Layer_1"
xmlns="http://www.w3.org/2000/svg"
xmlns:xlink="http://www.w3.org/1999/xlink"
xmlns:author="http://www.sothink.com"
width="160px" height="125px"
xml:space="preserve">
<g id="15361" transform="matrix(1, 0, 0, 1, 77.9, 62)">
<path style="fill:none;stroke-width:2.4;stroke-linecap:round;stroke-linejoin:round;stroke-miterlimit:3;stroke:#54453C;stroke-opacity:1" d="M62.15,-3.7L62.1 -4.85Q61.05 -19.75 54.6 -31.85Q48.45 -44.8 29.65 -54L29.6 -54.05Q21.65 -57.35 11.55 -59.75Q-8.6 -63.05 -25.3 -56.2L-28.25 -54.95Q-37.45 -50.65 -45.55 -43.15Q-58.75 -30.1 -60.15 -6.35L-73.35 -11.55Q-74.45 3.25 -66.05 17.3Q-69 19.25 -76.7 17.3Q-71.75 34.2 -54.95 35.7Q-63 44.5 -59.8 53.25L-58.3 53M62.1,-4.85L68.65 -13.75Q73.95 -0.3 67.05 11.25Q73.25 9.6 80.2 12.55L70.4 30.05L75.75 34.85L75.05 36.05Q69 45.7 53.3 50.15Q30.95 61.85 8.75 61.75M-5.35,60.5Q-21.5 57.85 -40.1 49.5L-57.3 52.85" />
</g>
</svg>
