<?xml version="1.0" encoding="utf-8"?>
<svg version="1.1" id="Layer_1"
xmlns="http://www.w3.org/2000/svg"
xmlns:xlink="http://www.w3.org/1999/xlink"
xmlns:author="http://www.sothink.com"
width="125px" height="131px"
xml:space="preserve">
<g id="15368" transform="matrix(1, 0, 0, 1, 61.35, 61.75)">
<path style="fill:none;stroke-width:2.4;stroke-linecap:round;stroke-linejoin:round;stroke-miterlimit:3;stroke:#54453C;stroke-opacity:1" d="M8.75,60.95L14.75 61.25Q28.8 60.55 40.4 56.15Q39.95 61.65 43.4 60.65Q46.2 59.2 46.75 53.4L49.4 52Q52.5 57.8 57.25 52Q62 43.25 60.7 30.6Q59.4 17.95 61.5 13.25L62.2 5.2Q63.1 -15.65 54.6 -31.55Q48.45 -44.55 29.6 -53.7L29.55 -53.75Q21.65 -57.05 11.55 -59.5Q-8.65 -62.75 -25.35 -55.95L-27.4 -55Q-37.05 -50.7 -45.55 -42.9Q-60.75 -27.8 -60.1 -0.45L-59.3 5.2Q-58.05 12 -55.2 20Q-50.9 32.35 -44.5 40.95L-41.55 44.3Q-39.85 59.8 -35.25 59.15Q-30.65 58.35 -30.45 52L-26.5 54Q-26.7 59.55 -21.05 61.05Q-17.1 61.3 -15.9 57.55L-9.55 58.9Q-10.8 66.75 -5.95 67.65L-5.35 67.65Q-1.95 67.25 -1.7 60" />
</g>
</svg>
