<?xml version="1.0" encoding="utf-8"?>
<svg version="1.1" id="Layer_1"
xmlns="http://www.w3.org/2000/svg"
xmlns:xlink="http://www.w3.org/1999/xlink"
xmlns:author="http://www.sothink.com"
width="129px" height="136px"
xml:space="preserve">
<g id="15339" transform="matrix(1, 0, 0, 1, 63.45, 62.7)">
<path style="fill:none;stroke-width:2.4;stroke-linecap:round;stroke-linejoin:round;stroke-miterlimit:3;stroke:#54453C;stroke-opacity:1" d="M8.75,71.25L10.1 71.2Q31.75 71.05 43.95 51.1Q47.9 45.05 49.6 35.65Q52.4 24.8 56.65 16.5Q65.45 -0.8 63.15 -17.85Q62.15 -25.05 58.05 -32.5Q51.7 -45.5 32.4 -54.7L32.35 -54.75Q24.2 -58.05 13.8 -60.45Q-6.95 -63.75 -24.05 -56.9Q-28.05 -55.35 -31.85 -53.2Q-38.65 -49.4 -44.85 -43.85Q-59.3 -31.5 -60.95 -16.45Q-65.7 5.45 -53.3 28.6Q-44.15 40.7 -29.75 53.7Q-18.4 65.2 -5.35 69.2" />
</g>
</svg>
