<?xml version="1.0" encoding="utf-8"?>
<svg version="1.1" id="Layer_1"
xmlns="http://www.w3.org/2000/svg"
xmlns:xlink="http://www.w3.org/1999/xlink"
xmlns:author="http://www.sothink.com"
width="127px" height="125px"
xml:space="preserve">
<g id="15342" transform="matrix(1, 0, 0, 1, 61.35, 62.35)">
<path style="fill:none;stroke-width:2.4;stroke-linecap:round;stroke-linejoin:round;stroke-miterlimit:3;stroke:#54453C;stroke-opacity:1" d="M8.75,61.2Q35.8 62.65 51.45 51.25Q65.8 40.95 63.1 20.85Q62.05 8.1 62.2 4.65Q63.1 -16.2 54.6 -32.15Q48.45 -45.15 29.6 -54.3L29.55 -54.35Q21.65 -57.65 11.55 -60.05Q-7.9 -63.25 -24.05 -57L-25.3 -56.5Q-36.15 -52.15 -45.55 -43.5Q-60.75 -28.4 -60.1 -1.1L-59.3 4.65Q-58.05 11.4 -55.2 19.45L-54.5 21.3Q-49.4 35.5 -41.85 44.9Q-35.75 49.9 -23.55 55L-14.65 57.55L-5.35 59.7" />
</g>
</svg>
