<?xml version="1.0" encoding="utf-8"?>
<svg version="1.1" id="Layer_1"
xmlns="http://www.w3.org/2000/svg"
xmlns:xlink="http://www.w3.org/1999/xlink"
xmlns:author="http://www.sothink.com"
width="63px" height="106px"
xml:space="preserve">
<g id="15308" transform="matrix(1, 0, 0, 1, 59.65, 40.75)">
<path style="fill:#D9B2A7;fill-opacity:1" d="M-52.9,14.8Q-58.3 7.1 -59.6 -3.8Q-60.35 -26.7 -47.9 -40.75Q-53.65 -27.65 -51.4 -14Q-50.5 -8.25 -48.1 -2.3Q-44.5 -8.45 -41.3 -11.35Q-34 -5.05 -31.5 17.35L-34.2 22.4Q-29.15 27.2 -19.85 32.65Q-17.3 38.25 -14.8 56.9Q-11.95 59.85 -5.35 62.45L3.1 65.15Q-1.45 64.75 -5.35 63.85Q-15.9 61.45 -21.85 55.6L-23.35 38.35Q-33.3 32.35 -36.85 27.4Q-47.2 22.95 -52.9 14.8" />
</g>
</svg>
