<?xml version="1.0" encoding="utf-8"?>
<svg version="1.1" id="Layer_1"
xmlns="http://www.w3.org/2000/svg"
xmlns:xlink="http://www.w3.org/1999/xlink"
xmlns:author="http://www.sothink.com"
width="125px" height="121px"
xml:space="preserve">
<g id="15328" transform="matrix(1, 0, 0, 1, 61.35, 61.75)">
<path style="fill:none;stroke-width:2.4;stroke-linecap:round;stroke-linejoin:round;stroke-miterlimit:3;stroke:#54453C;stroke-opacity:1" d="M-42.7,44.55L-42.4 45.1Q-37.6 53.25 -20.05 55.55L-10.75 56.45Q17.2 58.7 44.75 55.05Q55.05 52.15 58.6 44.2Q62.15 36.25 60.85 27.7Q59.5 19.1 61.6 14.35Q64.8 -11.95 54.7 -31.15Q48.55 -44.3 29.7 -53.65L29.65 -53.7Q21.7 -57.05 11.6 -59.5Q-8.6 -62.8 -25.3 -55.9Q-36.15 -51.4 -45.55 -42.65Q-60.75 -27.35 -60.1 0.4Q-59.5 7.25 -57 15.55L-55.35 20.75L-55.2 21.2Q-51.05 33.3 -44.9 41.85L-44.5 42.4L-44.3 42.65L-42.7 44.55z" />
</g>
</svg>
