<?xml version="1.0" encoding="utf-8"?>
<svg version="1.1" id="Layer_1"
xmlns="http://www.w3.org/2000/svg"
xmlns:xlink="http://www.w3.org/1999/xlink"
xmlns:author="http://www.sothink.com"
width="123px" height="122px"
xml:space="preserve">
<g id="15253" transform="matrix(1, 0, 0, 1, 60.05, 60.55)">
<path style="fill:#FFE7D4;fill-opacity:1" d="M62.4,-0.45Q61.75 16.2 56.15 34.75L55.75 39.75Q56.65 48.65 45.4 54Q30.65 61.55 8.75 60.95L8.6 60.95L-5.35 59.4L-13.7 57.65Q-30.8 53.35 -41.6 44.1L-44.4 40.9Q-50.8 32.35 -55.1 20Q-57.95 12 -59.2 5.25L-60 -0.45Q-60.65 -27.85 -45.45 -42.9Q-36.2 -51.4 -25.5 -55.8L-25.2 -55.95Q-8.55 -62.75 11.65 -59.5Q21.75 -57.1 29.65 -53.8L29.7 -53.75Q48.55 -44.5 54.7 -31.55Q62 -17.85 62.4 -0.45" />
</g>
</svg>
