<?xml version="1.0" encoding="utf-8"?>
<svg version="1.1" id="Layer_1"
xmlns="http://www.w3.org/2000/svg"
xmlns:xlink="http://www.w3.org/1999/xlink"
xmlns:author="http://www.sothink.com"
width="126px" height="133px"
xml:space="preserve">
<g id="15248" transform="matrix(1, 0, 0, 1, 62.25, 61.5)">
<path style="fill:#FFE7D4;fill-opacity:1" d="M63.15,-17.85Q65.45 -0.8 56.65 16.5Q52.4 24.8 49.6 35.65Q47.9 45.05 43.95 51.1Q31.75 71.05 10.1 71.2L8.75 71.25L-0.65 70.4L-5.25 69.25L-5.35 69.2Q-18.4 65.2 -29.75 53.7Q-44.15 40.7 -53.3 28.6Q-65.7 5.45 -60.95 -16.45Q-59.3 -31.5 -44.85 -43.85Q-38.65 -49.4 -31.85 -53.2Q-28.05 -55.35 -24.05 -56.9Q-6.95 -63.75 13.8 -60.45Q24.2 -58.05 32.35 -54.75L32.4 -54.7Q51.7 -45.5 58.05 -32.5Q62.15 -25.05 63.15 -17.85" />
</g>
</svg>
