<?xml version="1.0" encoding="utf-8"?>
<svg version="1.1" id="Layer_1"
xmlns="http://www.w3.org/2000/svg"
xmlns:xlink="http://www.w3.org/1999/xlink"
xmlns:author="http://www.sothink.com"
width="145px" height="191px"
xml:space="preserve">
<g id="15369" transform="matrix(1, 0, 0, 1, 61.2, 89.95)">
<path style="fill:none;stroke-width:2.4;stroke-linecap:round;stroke-linejoin:round;stroke-miterlimit:3;stroke:#54453C;stroke-opacity:1" d="M82.45,-66.05Q82.2 -63.05 80.1 -59.55Q78 -56.05 72.75 -53.85Q67.45 -51.75 66.65 -55.5Q65.85 -59.25 68.1 -63.1Q70.3 -67 72.4 -70.15Q74.5 -73.35 77.25 -73.5Q79.95 -73.65 81.3 -71.35Q82.65 -69.05 82.45 -66.05M8.75,61.35Q23.6 61.9 35.8 58Q37.35 61.05 37.25 69.05Q34.85 80.35 40.2 80.85Q47.2 80.2 43.25 66.15Q42.25 58.9 42.95 55.05Q50 52.75 54.4 47.65Q55.3 50.2 54.8 56.4Q53.55 65.9 57.75 66.45Q62.55 65.9 62.2 55.75L60.4 34.3L60.4 34.05L60.4 32.75Q60.15 26.95 60.55 24.1Q62.75 20.7 64.85 18.3L65.25 17.8L67.6 15.15L78.75 1.85L79.5 0.75Q83.45 -3.8 82.3 -9.3Q80.05 -12.95 75.45 -10.75Q70.8 -8.65 62.4 -0.5Q62.2 -10.55 59.75 -19.4Q58.9 -24.15 64.05 -29.6Q71.25 -38.1 70.2 -42.15Q69.1 -45.15 63.55 -45.6Q59.4 -46.45 57 -48.55Q53.7 -51.4 58.95 -61.1Q67.85 -75.15 66.4 -81.1Q65.15 -89.6 58.25 -88.65Q51.6 -86.85 41.65 -71.95Q30.1 -57.1 13.3 -59.45L11.65 -59.85Q-8.5 -63.1 -25.2 -56.3L-27.7 -55.2Q-37.15 -50.85 -45.4 -43.2Q-60.6 -28.15 -59.95 -0.8L-59.15 4.9Q-58.2 10 -54.65 22.7Q-50.55 38.85 -38.75 47.95Q-36.85 52.4 -38.85 64.05Q-44 81.35 -36.45 82.85Q-29.6 83.85 -31.95 65.9Q-33.05 57.35 -31.75 51.65Q-26.85 53.75 -20.8 55.7Q-18.9 58 -19.45 64.1Q-21.55 77.15 -16.55 79Q-11.9 78.55 -13.05 65.65Q-12.65 61 -11.65 58.4L-5.55 59.9M44.45,93.85Q44.65 96.05 43.7 97.65Q42.85 99.2 41.3 99.2Q39.75 99.2 38.45 97.65Q37.25 96.05 37.05 93.85Q36.8 91.65 37.7 90.05Q38.65 88.45 40.2 88.45Q41.75 88.45 42.95 90.05Q44.2 91.65 44.45 93.85M-33.45,94.65Q-33.55 96.6 -34.6 98Q-35.65 99.35 -37.05 99.35Q-38.4 99.35 -39.15 98Q-39.9 96.55 -39.7 94.6Q-39.5 92.6 -38.7 91.3Q-37.9 89.9 -36.55 89.9Q-35.15 89.9 -34.25 91.3Q-33.35 92.65 -33.45 94.65" />
</g>
</svg>
