<?xml version="1.0" encoding="utf-8"?>
<svg version="1.1" id="Layer_1"
xmlns="http://www.w3.org/2000/svg"
xmlns:xlink="http://www.w3.org/1999/xlink"
xmlns:author="http://www.sothink.com"
width="135px" height="132px"
xml:space="preserve">
<g id="15351" transform="matrix(1, 0, 0, 1, 64.35, 62.25)">
<path style="fill:none;stroke-width:2.4;stroke-linecap:round;stroke-linejoin:round;stroke-miterlimit:3;stroke:#54453C;stroke-opacity:1" d="M8.75,67.55Q15.5 67.9 22.75 67.5L57.55 50.2Q65 46.65 68 43.1Q69.85 40.05 68.75 36.6Q64 22.25 62.45 7.55L62.6 4.7Q63.5 -16.15 55 -32.1Q48.85 -45.05 30.05 -54.2L30 -54.25Q22.05 -57.55 11.95 -60Q-8.25 -63.25 -24.9 -56.45L-26.4 -55.8Q-36.25 -51.55 -44.85 -43.65Q-62.9 -29.15 -63.15 -1.2Q-61.45 26.65 -44.65 46.95Q-30.95 59.45 -11.9 64.45L-5.35 65.9" />
</g>
</svg>
