<?xml version="1.0" encoding="utf-8"?>
<svg version="1.1" id="Layer_1"
xmlns="http://www.w3.org/2000/svg"
xmlns:xlink="http://www.w3.org/1999/xlink"
xmlns:author="http://www.sothink.com"
width="123px" height="122px"
xml:space="preserve">
<g id="15237" transform="matrix(1, 0, 0, 1, 60.15, 60.55)">
<path style="fill:#FFF1E0;fill-opacity:1" d="M-2.9,60.15Q-30.9 56.85 -40.05 47.4L-44.5 42.4Q-50.9 33.7 -55.2 21.2Q-59.3 9.5 -60.1 0.4Q-60.75 -27.35 -45.55 -42.65Q-36.15 -51.45 -25.3 -55.9Q-8.6 -62.8 11.6 -59.5Q21.7 -57.05 29.65 -53.7L29.7 -53.65Q48.55 -44.3 54.7 -31.15Q64.8 -11.95 61.6 14.35Q59.5 19.1 61.05 30.9Q62.6 42.7 49.75 52.5Q42.15 58.3 25.15 59.9Q13.35 61.05 -2.9 60.15" />
</g>
</svg>
