<?xml version="1.0" encoding="utf-8"?>
<svg version="1.1" id="Layer_1"
xmlns="http://www.w3.org/2000/svg"
xmlns:xlink="http://www.w3.org/1999/xlink"
xmlns:author="http://www.sothink.com"
width="122px" height="123px"
xml:space="preserve">
<g id="15264" transform="matrix(1, 0, 0, 1, 60, 61)">
<path style="fill:#FFE7D4;fill-opacity:1" d="M49.65,47.25Q48.9 53.5 46.8 56.95Q36.95 61.9 24.95 61L8.75 61.8Q0.65 61.15 -5.35 58.05L-6.95 57.15Q-8.8 48.15 -12 38.6Q-31.4 39.85 -42.55 33.1Q-47.3 30.2 -50.55 25.8Q-60.7 12.2 -59.95 -4.95Q-59.45 -29.45 -45.4 -43.35Q-36.05 -52.05 -25.2 -56.4Q-10.45 -62.45 7 -60.55L11.65 -59.95Q21.75 -57.55 29.7 -54.25L29.75 -54.2Q48.6 -45 54.7 -32.05L58.05 -24.6Q61.1 -17.1 57.85 -4.9Q55.4 5.05 58.55 17.75L61.45 23.85L53.25 27.9L49.65 47.25" />
</g>
</svg>
