<?xml version="1.0" encoding="utf-8"?>
<svg version="1.1" id="Layer_1"
xmlns="http://www.w3.org/2000/svg"
xmlns:xlink="http://www.w3.org/1999/xlink"
xmlns:author="http://www.sothink.com"
width="132px" height="125px"
xml:space="preserve">
<g id="15335" transform="matrix(1, 0, 0, 1, 61.55, 61.95)">
<path style="fill:none;stroke-width:2.4;stroke-linecap:round;stroke-linejoin:round;stroke-miterlimit:3;stroke:#54453C;stroke-opacity:1" d="M8.75,61.6L21.6 61.35Q53.7 59.35 65.75 36.45Q68.6 32.1 68.55 28.15L66.1 24.5Q61.8 18.15 61.7 11.4L62 5.05Q62.9 -15.85 54.4 -31.7Q48.25 -44.7 29.4 -53.9L29.35 -53.95Q21.45 -57.25 11.35 -59.7Q-7.45 -62.7 -23.2 -57.05L-25.5 -56.15Q-36.35 -51.75 -45.75 -43.05Q-60.95 -28 -60.3 -0.65L-59.5 5.05Q-58.25 11.85 -55.4 19.85Q-52.5 28.15 -48.6 34.8Q-42.4 48.25 -29.4 53.65Q-23.2 56.75 -14.5 59.15L-5.35 60.65" />
</g>
</svg>
