<?xml version="1.0" encoding="utf-8"?>
<svg version="1.1" id="Layer_1"
xmlns="http://www.w3.org/2000/svg"
xmlns:xlink="http://www.w3.org/1999/xlink"
xmlns:author="http://www.sothink.com"
width="146px" height="126px"
xml:space="preserve">
<g id="15357" transform="matrix(1, 0, 0, 1, 70.9, 62.65)">
<path style="fill:none;stroke-width:2.4;stroke-linecap:round;stroke-linejoin:round;stroke-miterlimit:3;stroke:#54453C;stroke-opacity:1" d="M30.1,-54.65L30.05 -54.7Q22.1 -58 12 -60.4Q-8.15 -63.65 -24.85 -56.85L-26.15 -56.25Q-36.3 -51.95 -45.05 -43.85Q-49 -39.9 -51.85 -35.15Q-66.95 -10.5 -69.15 18.6Q-71.8 42.25 -61.45 48.2Q-42.5 59.2 -12 61L-7.9 61.2L-5.35 61.3L8.75 61.5Q39.6 61.2 54.55 54.35Q63.45 51.15 68.3 46.7Q75.4 41.05 73.1 26.05Q68.45 -8.4 53.7 -35.15Q47 -46.4 30.1 -54.65z" />
</g>
</svg>
