<?xml version="1.0" encoding="utf-8"?>
<svg version="1.1" id="Layer_1"
xmlns="http://www.w3.org/2000/svg"
xmlns:xlink="http://www.w3.org/1999/xlink"
xmlns:author="http://www.sothink.com"
width="121px" height="121px"
xml:space="preserve">
<g id="15350" transform="matrix(1, 0, 0, 1, 59.25, 61.6)">
<path style="fill:none;stroke-width:2.4;stroke-linecap:round;stroke-linejoin:round;stroke-miterlimit:3;stroke:#54453C;stroke-opacity:1" d="M8.75,58.05Q28.4 57.3 44.2 52.05Q56.4 48.05 55.65 32.85Q54.8 25.6 55.85 19.9Q59.55 4.3 60.45 -8.95Q61.35 -22.15 54.7 -33.25Q48.05 -44.35 29.2 -53.55L29.15 -53.6Q21.2 -56.9 11.15 -59.35Q-8.5 -62.5 -24.85 -56.15L-25.75 -55.8Q-30 -54.05 -33.95 -51.7Q-51.55 -42.55 -56.75 -19.2Q-59.55 -4.3 -56.35 12.15Q-52.95 33.45 -41.05 46.35Q-33.8 52.35 -21.6 55.3Q-14.35 57.05 -5.35 57.7" />
</g>
</svg>
