<?xml version="1.0" encoding="utf-8"?>
<svg version="1.1" id="Layer_1"
xmlns="http://www.w3.org/2000/svg"
xmlns:xlink="http://www.w3.org/1999/xlink"
xmlns:author="http://www.sothink.com"
width="143px" height="189px"
xml:space="preserve">
<g id="15278" transform="matrix(1, 0, 0, 1, 60, 88.75)">
<path style="fill:#FFE7D4;fill-opacity:1" d="M82.45,-66.05Q82.2 -63.05 80.1 -59.55Q78 -56.05 72.75 -53.85Q67.45 -51.75 66.65 -55.5Q65.85 -59.25 68.1 -63.1Q70.3 -67 72.4 -70.15Q74.5 -73.35 77.25 -73.5Q79.95 -73.65 81.3 -71.35Q82.65 -69.05 82.45 -66.05M60.4,34.05L60.4 34.3L62.2 55.75Q62.55 65.9 57.75 66.45Q53.55 65.9 54.8 56.4Q55.3 50.2 54.4 47.65Q50 52.75 42.95 55.05Q42.25 58.9 43.25 66.15Q47.2 80.2 40.2 80.85Q34.85 80.35 37.25 69.05Q37.35 61.05 35.8 58Q23.6 61.9 8.75 61.35L-5.35 59.95L-5.55 59.9L-11.65 58.4Q-12.65 61 -13.05 65.65Q-11.9 78.55 -16.55 79Q-21.55 77.15 -19.45 64.1Q-18.9 58 -20.8 55.7Q-26.85 53.75 -31.75 51.65Q-33.05 57.35 -31.95 65.9Q-29.6 83.85 -36.45 82.85Q-44 81.35 -38.85 64.05Q-36.85 52.4 -38.75 47.95Q-50.55 38.85 -54.65 22.7Q-58.2 10 -59.15 4.9L-59.95 -0.8Q-60.6 -28.15 -45.4 -43.2Q-37.15 -50.85 -27.7 -55.2L-25.2 -56.3Q-8.5 -63.1 11.65 -59.85L13.3 -59.45Q30.1 -57.1 41.65 -71.95Q51.6 -86.85 58.25 -88.65Q65.15 -89.6 66.4 -81.1Q67.85 -75.15 58.95 -61.1Q53.7 -51.4 57 -48.55Q59.4 -46.45 63.55 -45.6Q69.1 -45.15 70.2 -42.15Q71.25 -38.1 64.05 -29.6Q58.9 -24.15 59.75 -19.4Q62.2 -10.55 62.4 -0.5Q70.8 -8.65 75.45 -10.75Q80.05 -12.95 82.3 -9.3Q83.45 -3.8 79.5 0.75L78.75 1.85L67.6 15.15L65.25 17.8L64.85 18.3Q62.75 20.7 60.55 24.1Q60.15 26.95 60.4 32.75L60.4 34.05M44.45,93.85Q44.65 96.05 43.7 97.65Q42.85 99.2 41.3 99.2Q39.75 99.2 38.45 97.65Q37.25 96.05 37.05 93.85Q36.8 91.65 37.7 90.05Q38.65 88.45 40.2 88.45Q41.75 88.45 42.95 90.05Q44.2 91.65 44.45 93.85M-33.45,94.65Q-33.55 96.6 -34.6 98Q-35.65 99.35 -37.05 99.35Q-38.4 99.35 -39.15 98Q-39.9 96.55 -39.7 94.6Q-39.5 92.6 -38.7 91.3Q-37.9 89.9 -36.55 89.9Q-35.15 89.9 -34.25 91.3Q-33.35 92.65 -33.45 94.65" />
</g>
</svg>
