<?xml version="1.0" encoding="utf-8"?>
<svg version="1.1" id="Layer_1"
xmlns="http://www.w3.org/2000/svg"
xmlns:xlink="http://www.w3.org/1999/xlink"
xmlns:author="http://www.sothink.com"
width="118px" height="126px"
xml:space="preserve">
<g id="15346" transform="matrix(1, 0, 0, 1, 57.75, 62.15)">
<path style="fill:none;stroke-width:2.4;stroke-linecap:round;stroke-linejoin:round;stroke-miterlimit:3;stroke:#54453C;stroke-opacity:1" d="M8.75,60.55Q14.65 61 20.65 62.45Q27.3 58.7 36.95 55.7Q58.65 48.05 56.35 28.4Q55.1 21.85 55.8 12.75Q60.25 -9.2 56.95 -24.45Q54.6 -39.9 33.65 -52.3L30.05 -54.15L30 -54.2Q22.1 -57.5 12 -59.9Q-8.2 -63.15 -24.85 -56.35Q-30.5 -54.1 -35.75 -50.65Q-40.6 -47.45 -45.1 -43.3Q-49.8 -38.6 -53 -32.75Q-60.6 -16.65 -52 15.1Q-45.45 40.25 -32.55 51Q-27.45 55.2 -15.45 57.7L-5.35 59.35" />
</g>
</svg>
