<?xml version="1.0" encoding="utf-8"?>
<svg version="1.1" id="Layer_1"
xmlns="http://www.w3.org/2000/svg"
xmlns:xlink="http://www.w3.org/1999/xlink"
xmlns:author="http://www.sothink.com"
width="49px" height="155px"
xml:space="preserve">
<g id="15321" transform="matrix(1, 0, 0, 1, 60, 55.2)">
<path style="fill:#D9B2A7;fill-opacity:1" d="M-48.2,0.95Q-45.6 48.85 -11.65 58.4Q-12.65 61 -13.05 65.65Q-11.9 78.55 -16.55 79Q-21.55 77.15 -19.45 64.1Q-18.9 58 -20.8 55.7Q-26.85 53.75 -31.75 51.65Q-33.05 57.35 -31.95 65.9Q-29.6 83.85 -36.45 82.85Q-44 81.35 -38.85 64.05Q-36.85 52.4 -38.75 47.95Q-50.55 38.85 -54.65 22.7Q-58.2 10 -59.15 4.9L-59.95 -0.8Q-60.6 -28.15 -45.4 -43.2Q-37.15 -50.85 -27.7 -55.2Q-48.95 -33.2 -48.2 0.95M-33.45,94.65Q-33.55 96.6 -34.6 98Q-35.65 99.35 -37.05 99.35Q-38.4 99.35 -39.15 98Q-39.9 96.55 -39.7 94.6Q-39.5 92.6 -38.7 91.3Q-37.9 89.9 -36.55 89.9Q-35.15 89.9 -34.25 91.3Q-33.35 92.65 -33.45 94.65" />
</g>
</svg>
