<?xml version="1.0" encoding="utf-8"?>
<svg version="1.1" id="Layer_1"
xmlns="http://www.w3.org/2000/svg"
xmlns:xlink="http://www.w3.org/1999/xlink"
xmlns:author="http://www.sothink.com"
width="145px" height="124px"
xml:space="preserve">
<g id="15272" transform="matrix(1, 0, 0, 1, 71.2, 60.55)">
<path style="fill:#FFE7D4;fill-opacity:1" d="M62.65,8.9L67.7 14.8Q66 17.15 60.85 18.6Q64.5 22.9 70 27.65L72.85 30.1Q71.65 33.95 66.75 35.9Q69.1 40.6 69.55 46.85Q54.75 50.5 42.25 56.3Q26.75 63.7 8.75 62.35L3.9 61.8L-5.35 60.45L-10.85 59.4L-12.3 59.05Q-23.25 56.55 -32.65 52.75Q-45.9 51.1 -56.9 51Q-58.45 46 -55.6 39.15Q-65.35 33.85 -71.2 28.8Q-62.75 23.1 -59.2 17.95L-65.35 13.15L-58.55 8.65L-59.25 5.25L-60.05 -0.45Q-60.7 -27.8 -45.5 -42.85Q-36.7 -51 -26.7 -55.35L-25.3 -55.95Q-8.6 -62.75 11.6 -59.5Q21.65 -57.05 29.6 -53.75L29.65 -53.7Q48.5 -44.5 54.65 -31.55Q63.1 -15.65 62.25 5.25Q62.15 7.6 62.65 8.9" />
</g>
</svg>
