<?xml version="1.0" encoding="utf-8"?>
<svg version="1.1" id="Layer_1"
xmlns="http://www.w3.org/2000/svg"
xmlns:xlink="http://www.w3.org/1999/xlink"
xmlns:author="http://www.sothink.com"
width="123px" height="116px"
xml:space="preserve">
<g id="15242" transform="matrix(1, 0, 0, 1, 60.15, 60.55)">
<path style="fill:#FFF1E0;fill-opacity:1" d="M60.75,28.15Q63.8 39.65 50.6 47.35Q31 56.15 3.95 55.1Q-28.75 53.85 -41.8 44.7Q-43.65 43.45 -44.5 42.4Q-50.9 33.7 -55.2 21.2Q-59.3 9.5 -60.1 0.4Q-60.75 -27.35 -45.55 -42.65Q-21.7 -64.95 11.6 -59.5Q21.7 -57.05 29.65 -53.7L29.7 -53.65Q48.55 -44.3 54.7 -31.15Q64.8 -11.95 61.6 14.35Q59.75 18.5 60.75 28.15" />
</g>
</svg>
