<?xml version="1.0" encoding="utf-8"?>
<svg version="1.1" id="Layer_1"
xmlns="http://www.w3.org/2000/svg"
xmlns:xlink="http://www.w3.org/1999/xlink"
xmlns:author="http://www.sothink.com"
width="119px" height="119px"
xml:space="preserve">
<g id="15259" transform="matrix(1, 0, 0, 1, 58.05, 60.4)">
<path style="fill:#FFE7D4;fill-opacity:1" d="M60.45,-8.95Q59.55 4.3 55.85 19.9Q54.8 25.6 55.65 32.85Q56.4 48.05 44.2 52.05Q28.4 57.3 8.75 58.05L5.8 58.1L-5.35 57.7Q-14.35 57.05 -21.6 55.3Q-33.8 52.35 -41.05 46.35Q-52.95 33.45 -56.35 12.15Q-59.55 -4.3 -56.75 -19.2Q-51.55 -42.55 -33.95 -51.7Q-30 -54.05 -25.75 -55.8L-24.85 -56.15Q-8.5 -62.5 11.15 -59.35Q21.2 -56.9 29.15 -53.6L29.2 -53.55Q48.05 -44.35 54.7 -33.25Q61.35 -22.15 60.45 -8.95" />
</g>
</svg>
