<?xml version="1.0" encoding="utf-8"?>
<svg version="1.1" id="Layer_1"
xmlns="http://www.w3.org/2000/svg"
xmlns:xlink="http://www.w3.org/1999/xlink"
xmlns:author="http://www.sothink.com"
width="46px" height="112px"
xml:space="preserve">
<g id="15317" transform="matrix(1, 0, 0, 1, 68.2, 55)">
<path style="fill:#D9B2A7;fill-opacity:1" d="M-48.6,41.3Q-54.65 38.15 -58.45 34.85L-56.45 32.25Q-66.65 27.15 -66.8 23.3Q-63.95 21.65 -61.9 18.95Q-66.4 15.5 -68.2 12Q-63.25 6.75 -59.65 -0.8L-60.05 -7.15L-59.55 -12.75Q-58.8 -18.8 -57.05 -24.1Q-53.45 -35.15 -45.6 -42.95Q-37.1 -50.75 -27.45 -55Q-44.7 -38.7 -48.4 -5.5Q-52.95 3.4 -60.05 11.35Q-58.55 14.2 -52.5 17.1Q-53.2 17.95 -54.95 18.5Q-53.85 20.45 -52.45 21.8Q-54.7 23.95 -55.6 25.45Q-53.55 29.6 -43.95 32.95L-46.5 37.05Q-44.35 40.35 -38.5 44.5Q-34.65 47.2 -29.2 50.25L-31.85 52.8Q-31.35 54 -22.3 56Q-31.3 58.6 -38.55 52.85Q-37.9 51.45 -34.95 50.1Q-38.25 48.35 -40.95 46.65L-42.85 45.4L-46.8 42.25L-48.6 41.3M-34.6,35.75Q-33.75 37.7 -32 39.6L-30.15 41.5L-32.8 40.15Q-37.05 37.7 -38.75 34.75Q-36.95 33.35 -32.3 32.25L-34.6 35.75M-43.55,13.2Q-41.3 18.55 -34.45 25.85Q-48 19.3 -51.9 9Q-51.6 8.4 -46.65 9Q-41.85 10.1 -34.8 7.25Q-37.25 11.95 -43.55 13.2" />
</g>
</svg>
