<?xml version="1.0" encoding="utf-8"?>
<svg version="1.1" id="Layer_1"
xmlns="http://www.w3.org/2000/svg"
xmlns:xlink="http://www.w3.org/1999/xlink"
xmlns:author="http://www.sothink.com"
width="122px" height="127px"
xml:space="preserve">
<g id="15265" transform="matrix(1, 0, 0, 1, 59.65, 60.65)">
<path style="fill:#FFE7D4;fill-opacity:1" d="M-52.9,14.8Q-58.3 7.1 -59.6 -3.8Q-60.35 -26.7 -47.9 -40.75L-45.8 -42.95Q-36.4 -51.65 -25.6 -56.05Q-8.9 -62.85 11.3 -59.6Q21.35 -57.15 29.3 -53.85L29.35 -53.8Q44.55 -46.35 51.5 -36.45Q66.3 -16.5 56.1 14.15L62.1 23.05Q59 29.45 52.3 32.9L47.85 57.05Q39 63.15 22 64.95L16 65.4L8.75 65.5L3.1 65.15Q-1.45 64.75 -5.35 63.85Q-15.9 61.45 -21.85 55.6L-23.35 38.35Q-33.3 32.35 -36.85 27.4Q-47.2 22.95 -52.9 14.8" />
</g>
</svg>
