<?xml version="1.0" encoding="utf-8"?>
<svg version="1.1" id="Layer_1"
xmlns="http://www.w3.org/2000/svg"
xmlns:xlink="http://www.w3.org/1999/xlink"
xmlns:author="http://www.sothink.com"
width="143px" height="125px"
xml:space="preserve">
<g id="15365" transform="matrix(1, 0, 0, 1, 69.4, 61.75)">
<path style="fill:none;stroke-width:2.4;stroke-linecap:round;stroke-linejoin:round;stroke-miterlimit:3;stroke:#54453C;stroke-opacity:1" d="M53.1,-27.25L56.35 -27.95L54.55 -31.6Q48.4 -44.55 29.55 -53.75L29.5 -53.8Q21.6 -57.1 11.5 -59.5Q-8.7 -62.75 -25.35 -55.95L-27.45 -55Q-37.1 -50.75 -45.6 -42.95Q-53.45 -35.15 -57.05 -24.1Q-58.8 -18.8 -59.55 -12.75L-57.05 -13.75M56.9,-20.1L59.15 -20.7Q57.95 -24.4 56.35 -27.95L60.5 -28.85M49.85,47.7L51.6 50.8L56.1 47.3Q63.65 44.9 67.15 41.8Q66.6 40.1 64.1 38.2Q69.15 35.85 71.65 32.5L72.3 31.45Q70.2 28.95 65.15 25.5Q70.85 21.15 72.3 16.4Q70.45 13.4 65.75 10.05Q69.55 5.7 70.95 1.7L61.85 -7.9Q61.1 -14.55 59.15 -20.7L62.95 -21.7M53.65,54.4L51.6 50.8L46.7 53.9L48.45 57.2M44.6,50.05L46.7 53.9Q30.5 63 8.75 61.15M-52.05,45.35L-48.6 41.3Q-54.65 38.15 -58.45 34.85L-56.45 32.25Q-66.65 27.15 -66.8 23.3Q-63.95 21.65 -61.9 18.95Q-66.4 15.5 -68.2 12Q-63.25 6.75 -59.65 -0.8L-60.05 -7.15L-59.55 -12.75L-63.3 -11.4M-64.1,-22.3L-57.05 -24.1M-48,40.55L-48.6 41.3L-46.8 42.25L-42.85 45.4L-42 44.3M-22.3,56Q-31.3 58.6 -38.55 52.85Q-37.9 51.45 -34.95 50.1Q-38.25 48.35 -40.95 46.65L-42.85 45.4L-46.4 49.85M-5.35,60.25Q-11.3 59.4 -16.7 57.9" />
</g>
</svg>
