<?xml version="1.0" encoding="utf-8"?>
<svg version="1.1" id="Layer_1"
xmlns="http://www.w3.org/2000/svg"
xmlns:xlink="http://www.w3.org/1999/xlink"
xmlns:author="http://www.sothink.com"
width="123px" height="118px"
xml:space="preserve">
<g id="15239" transform="matrix(1, 0, 0, 1, 60.15, 60.55)">
<path style="fill:#FFF1E0;fill-opacity:1" d="M-44.3,42.65L-44.5 42.4Q-50.9 33.7 -55.2 21.2L-55.35 20.75L-57 15.55Q-59.5 7.25 -60.1 0.4Q-60.75 -27.35 -45.55 -42.65Q-21.7 -64.95 11.6 -59.5Q21.7 -57.05 29.65 -53.7L29.7 -53.65Q48.55 -44.3 54.7 -31.15Q64.8 -11.95 61.6 14.35Q59.5 19.1 60.85 27.7Q62.15 36.25 58.6 44.2Q55.05 52.15 44.75 55.05Q12.65 59.3 -20.05 55.55Q-37.6 53.25 -42.4 45.1L-42.7 44.55L-44.3 42.65" />
</g>
</svg>
