<?xml version="1.0" encoding="utf-8"?>
<svg version="1.1" id="Layer_1"
xmlns="http://www.w3.org/2000/svg"
xmlns:xlink="http://www.w3.org/1999/xlink"
xmlns:author="http://www.sothink.com"
width="127px" height="124px"
xml:space="preserve">
<g id="15353" transform="matrix(1, 0, 0, 1, 60.95, 61.9)">
<path style="fill:none;stroke-width:2.4;stroke-linecap:round;stroke-linejoin:round;stroke-miterlimit:3;stroke:#54453C;stroke-opacity:1" d="M61.7,-11.3Q59.95 -22.3 55 -31.7Q48.85 -44.65 30 -53.9L29.95 -53.95Q22 -57.25 11.9 -59.65Q-8.25 -62.85 -24.95 -56.1L-28.6 -54.5Q-37.4 -50.25 -45.15 -43.05Q-60.35 -27.95 -59.7 -0.6L-58.9 5.1Q-57.65 11.85 -54.8 19.9Q-50.5 32.25 -44.1 40.75L-41.15 44.1" />
<path style="fill:none;stroke-width:2.4;stroke-linecap:round;stroke-linejoin:round;stroke-miterlimit:3;stroke:#000000;stroke-opacity:1" d="M-41.15,44.1Q-33.05 51.1 -18.9 55.3Q-12.7 57.1 -5.35 58.4M61.7,-11.3Q64.3 5.5 59.25 18.5Q64.6 26.7 64.75 33.05Q64 45.95 41.1 55.45Q27.85 60.9 10.65 60.45L8.75 60.3M57.85,16.5L59.25 18.5" />
</g>
</svg>
