<?xml version="1.0" encoding="utf-8"?>
<svg version="1.1" id="Layer_1"
xmlns="http://www.w3.org/2000/svg"
xmlns:xlink="http://www.w3.org/1999/xlink"
xmlns:author="http://www.sothink.com"
width="133px" height="131px"
xml:space="preserve">
<g id="15338" transform="matrix(1, 0, 0, 1, 61.25, 61.9)">
<path style="fill:none;stroke-width:2.4;stroke-linecap:round;stroke-linejoin:round;stroke-miterlimit:3;stroke:#54453C;stroke-opacity:1" d="M8.75,66.65L18.45 67.75Q24.9 68 29.95 65.2Q50.6 56 66.85 44.7Q72.35 41.5 67.7 33.85Q63.6 23.4 62.55 13.55Q62.15 7.7 62.3 5.1Q63.2 -15.8 54.7 -31.65Q48.55 -44.65 29.75 -53.85L29.7 -53.9Q21.75 -57.2 11.65 -59.65Q-8.55 -62.9 -25.2 -56.1L-28.95 -54.4Q-37.7 -50.15 -45.45 -43Q-60.65 -27.9 -60 -0.6L-59.2 5.1Q-57.95 11.9 -55.1 19.9Q-44.35 48 -28.7 56.1Q-22.95 58.95 -16.15 61.15Q-11.05 62.8 -5.35 64.1" />
</g>
</svg>
