<?xml version="1.0" encoding="utf-8"?>
<svg version="1.1" id="Layer_1"
xmlns="http://www.w3.org/2000/svg"
xmlns:xlink="http://www.w3.org/1999/xlink"
xmlns:author="http://www.sothink.com"
width="168px" height="125px"
xml:space="preserve">
<g id="15370" transform="matrix(1, 0, 0, 1, 104, 61.95)">
<path style="fill:none;stroke-width:2.4;stroke-linecap:round;stroke-linejoin:round;stroke-miterlimit:3;stroke:#54453C;stroke-opacity:1" d="M8.75,60.95L9.45 61Q39.25 62 56.55 46.25L57.35 45.5Q62.15 40 60.95 30.9Q59.65 21.15 61.75 13.05L62.45 5.05Q63.35 -15.85 54.85 -31.75Q48.7 -44.7 29.85 -53.9L29.8 -53.95Q21.9 -57.25 11.8 -59.7Q-8.4 -62.95 -25.05 -56.15L-29.5 -54.1Q-33.85 -51.95 -37.9 -49.1Q-47.2 -44.6 -64.4 -43.05Q-71.9 -41.4 -81.1 -43.05Q-88.05 -44.75 -92.5 -43.95Q-101.4 -42.8 -100.15 -36.5Q-98.1 -29.85 -84.7 -30.75Q-75.25 -31.7 -61.15 -34.55Q-49.1 -35.8 -48.35 -33.75Q-47.95 -30.65 -58.65 -28.65Q-72.45 -28.1 -76.05 -25.65Q-80.3 -22.65 -76.15 -20.5Q-69.35 -17.25 -57.3 -21.2L-54.6 -22.2M-84.95,-21.5Q-85.05 -19.8 -87.95 -18.4Q-90.9 -17.1 -94.85 -17Q-98.85 -16.95 -100.75 -17.8Q-102.7 -18.75 -102.8 -20.4Q-102.95 -22.05 -100.75 -23.4Q-98.6 -24.75 -94.75 -24.75L-87.85 -24Q-84.85 -23.25 -84.95 -21.5M-57.3,-21.2Q-56.9 -17.75 -59.25 -14.95Q-61.8 -12.8 -67.95 -12.75Q-83.6 -14.15 -84.6 -9.9Q-84 -5.2 -75.15 -5.45Q-63.8 -6.2 -60.25 -4.05Q-58.9 0.8 -65.55 2.9Q-71.75 4.8 -83.15 3.15L-90.35 2.9Q-96.9 3.65 -95.75 7.6Q-93.75 11.95 -84.2 10.4L-75 9.15Q-62.35 9.2 -57.9 13.5Q-55.15 16.25 -56.35 17.85Q-59.2 20.2 -65.3 20.2Q-75.85 21 -73.75 24.65Q-72.25 27.5 -58 27.25Q-50.65 29.15 -50.6 30.95Q-49.95 33.3 -56.5 34.2Q-65.55 33.9 -65.65 37.5Q-65.5 40.85 -52.4 40.9Q-45.25 41.5 -44 42.5Q-32.45 53.05 -13.1 57.75L-5.35 59.35M-78.55,36.2Q-78.55 37.9 -80.35 39.1Q-82.15 40.25 -85.1 40.25Q-88.05 40.25 -90.1 39.15Q-92.15 38.05 -92.2 36.2Q-92.25 34.25 -90.15 33.6Q-88.05 32.9 -85.55 32.7Q-83.1 32.45 -80.8 33.5Q-78.55 34.45 -78.55 36.2M-92.15,18.25Q-92 19.6 -93.15 20.45Q-94.3 21.3 -96.2 21.3Q-98.1 21.3 -99.45 20.5Q-100.75 19.7 -100.75 18.65Q-100.75 17.55 -99.45 16.75Q-98.1 15.95 -96.5 15.8Q-94.95 15.6 -93.65 16.2Q-92.35 16.8 -92.15 18.25" />
</g>
</svg>
