<?xml version="1.0" encoding="utf-8"?>
<svg version="1.1" id="Layer_1"
xmlns="http://www.w3.org/2000/svg"
xmlns:xlink="http://www.w3.org/1999/xlink"
xmlns:author="http://www.sothink.com"
width="152px" height="123px"
xml:space="preserve">
<g id="15273" transform="matrix(1, 0, 0, 1, 77.25, 61.15)">
<path style="fill:#FFE7D4;fill-opacity:1" d="M4.9,-61Q30.4 -58.95 52.4 -34.6Q63.05 -16.95 61.35 15.6L73.9 21Q71.8 28.5 64 35.5Q68.15 38.35 69.1 40.55Q63.95 47.35 52.15 51.45L47.9 54.25Q36.7 60.8 22.2 61.2Q15.15 61.4 8.75 61.15L-5.35 59.85L-9.9 59.05Q-15.85 57.9 -21 56.2Q-35.95 55.2 -46.75 56.2Q-47.65 50.95 -46.75 46.1L-62.7 41.25Q-61.2 36.85 -56.6 31.9Q-72 25.3 -77.25 20.75Q-65.2 11.3 -59.9 -1.2Q-58.75 -29.1 -44.25 -43.5Q-36.45 -50.7 -27.65 -54.95L-24 -56.55Q-10.65 -62 4.9 -61" />
</g>
</svg>
