<?xml version="1.0" encoding="utf-8"?>
<svg version="1.1" id="Layer_1"
xmlns="http://www.w3.org/2000/svg"
xmlns:xlink="http://www.w3.org/1999/xlink"
xmlns:author="http://www.sothink.com"
width="166px" height="122px"
xml:space="preserve">
<g id="15279" transform="matrix(1, 0, 0, 1, 102.8, 60.75)">
<path style="fill:#FFE7D4;fill-opacity:1" d="M-76.15,-20.5Q-80.3 -22.65 -76.05 -25.65Q-72.45 -28.1 -58.65 -28.65Q-47.95 -30.65 -48.35 -33.75Q-49.1 -35.8 -61.15 -34.55Q-75.25 -31.7 -84.7 -30.75Q-98.1 -29.85 -100.15 -36.5Q-101.4 -42.8 -92.5 -43.95Q-88.05 -44.75 -81.1 -43.05Q-71.9 -41.4 -64.4 -43.05Q-47.2 -44.6 -37.9 -49.1Q-33.85 -51.95 -29.5 -54.1L-25.05 -56.15Q-8.4 -62.95 11.8 -59.7Q21.9 -57.25 29.8 -53.95L29.85 -53.9Q48.7 -44.7 54.85 -31.75Q63.35 -15.85 62.45 5.05L61.75 13.05Q59.65 21.15 60.95 30.9Q62.15 40 57.35 45.5L56.55 46.25Q39.25 62 9.45 61L8.75 60.95L-5.35 59.35L-13.1 57.75Q-32.45 53.05 -44 42.5Q-45.25 41.5 -52.4 40.9Q-65.5 40.85 -65.65 37.5Q-65.55 33.9 -56.5 34.2Q-49.95 33.3 -50.6 30.95Q-50.65 29.15 -58 27.25Q-72.25 27.5 -73.75 24.65Q-75.85 21 -65.3 20.2Q-59.2 20.2 -56.35 17.85Q-55.15 16.25 -57.9 13.5Q-62.35 9.2 -75 9.15L-84.2 10.4Q-93.75 11.95 -95.75 7.6Q-96.9 3.65 -90.35 2.9L-83.15 3.15Q-71.75 4.8 -65.55 2.9Q-58.9 0.8 -60.25 -4.05Q-63.8 -6.2 -75.15 -5.45Q-84 -5.2 -84.6 -9.9Q-83.6 -14.15 -67.95 -12.75Q-61.8 -12.8 -59.25 -14.95Q-56.9 -17.75 -57.3 -21.2Q-69.35 -17.25 -76.15 -20.5M-84.95,-21.5Q-85.05 -19.8 -87.95 -18.4Q-90.9 -17.1 -94.85 -17Q-98.85 -16.95 -100.75 -17.8Q-102.7 -18.75 -102.8 -20.4Q-102.95 -22.05 -100.75 -23.4Q-98.6 -24.75 -94.75 -24.75L-87.85 -24Q-84.85 -23.25 -84.95 -21.5M-78.55,36.2Q-78.55 37.9 -80.35 39.1Q-82.15 40.25 -85.1 40.25Q-88.05 40.25 -90.1 39.15Q-92.15 38.05 -92.2 36.2Q-92.25 34.25 -90.15 33.6Q-88.05 32.9 -85.55 32.7Q-83.1 32.45 -80.8 33.5Q-78.55 34.45 -78.55 36.2M-92.15,18.25Q-92 19.6 -93.15 20.45Q-94.3 21.3 -96.2 21.3Q-98.1 21.3 -99.45 20.5Q-100.75 19.7 -100.75 18.65Q-100.75 17.55 -99.45 16.75Q-98.1 15.95 -96.5 15.8Q-94.95 15.6 -93.65 16.2Q-92.35 16.8 -92.15 18.25" />
</g>
</svg>
