<?xml version="1.0" encoding="utf-8"?>
<svg version="1.1" id="Layer_1"
xmlns="http://www.w3.org/2000/svg"
xmlns:xlink="http://www.w3.org/1999/xlink"
xmlns:author="http://www.sothink.com"
width="127px" height="128px"
xml:space="preserve">
<g id="15331" transform="matrix(1, 0, 0, 1, 61.35, 61.75)">
<path style="fill:#C8AB98;fill-opacity:1" d="M-5.4,56.35L8.7 58.4L15.4 59.1L8.7 58.85Q1.8 58.3 -5.4 56.4L-6.15 56.2L-5.4 56.35" />
<path style="fill:none;stroke-width:1.5;stroke-linecap:round;stroke-linejoin:round;stroke-miterlimit:3;stroke:#54453C;stroke-opacity:0.329412" d="M-6.15,56.2L-5.4 56.4Q1.8 58.3 8.7 58.85L15.4 59.1Q24.05 59 32.25 56.65" />
<path style="fill:none;stroke-width:2.5;stroke-linecap:round;stroke-linejoin:round;stroke-miterlimit:3;stroke:#54453C;stroke-opacity:1" d="M-19.3,55.05L-19.25 55.05L-18.85 55.3" />
<path style="fill:none;stroke-width:2.4;stroke-linecap:round;stroke-linejoin:round;stroke-miterlimit:3;stroke:#54453C;stroke-opacity:1" d="M8.7,63.95Q20.75 65.15 32.05 61.55Q38.2 59.55 44.15 56.15Q47.6 55.8 55.45 50.75Q63.3 45.65 63.65 35.4Q63.6 30.35 62.05 26.1Q59.5 19.1 61.6 14.35Q64.8 -11.95 54.7 -31.15Q48.55 -44.3 29.7 -53.65L29.65 -53.7Q21.7 -57.05 11.6 -59.5Q-8.6 -62.8 -25.3 -55.9Q-36.15 -51.4 -45.55 -42.65Q-60.75 -27.35 -60.1 0.4Q-59.5 7.25 -57 15.55L-55.35 20.75L-55.2 21.2Q-51.05 33.3 -44.9 41.85L-44.5 42.4L-44.05 42.95Q-39.55 53 -19.3 55.05L-18.85 55.3L-18.7 55.35Q-11.95 58.8 -5.4 60.9" />
</g>
</svg>
