<?xml version="1.0" encoding="utf-8"?>
<svg version="1.1" id="Layer_1"
xmlns="http://www.w3.org/2000/svg"
xmlns:xlink="http://www.w3.org/1999/xlink"
xmlns:author="http://www.sothink.com"
width="154px" height="125px"
xml:space="preserve">
<g id="15364" transform="matrix(1, 0, 0, 1, 78.45, 62.35)">
<path style="fill:none;stroke-width:2.4;stroke-linecap:round;stroke-linejoin:round;stroke-miterlimit:3;stroke:#54453C;stroke-opacity:1" d="M8.75,61.15Q15.15 61.4 22.2 61.2Q36.7 60.8 47.9 54.25L52.15 51.45Q63.95 47.35 69.1 40.55Q68.15 38.35 64 35.5Q71.8 28.5 73.9 21L61.35 15.6Q63.05 -16.95 52.4 -34.6Q30.4 -58.95 4.9 -61Q-10.65 -62 -24 -56.55L-27.65 -54.95Q-36.45 -50.7 -44.25 -43.5Q-58.75 -29.1 -59.9 -1.2Q-65.2 11.3 -77.25 20.75Q-72 25.3 -56.6 31.9Q-61.2 36.85 -62.7 41.25L-46.75 46.1Q-47.65 50.95 -46.75 56.2Q-35.95 55.2 -21 56.2Q-15.85 57.9 -9.9 59.05L-5.35 59.85" />
</g>
</svg>
