<?xml version="1.0" encoding="utf-8"?>
<svg version="1.1" id="Layer_1"
xmlns="http://www.w3.org/2000/svg"
xmlns:xlink="http://www.w3.org/1999/xlink"
xmlns:author="http://www.sothink.com"
width="123px" height="123px"
xml:space="preserve">
<g id="15263" transform="matrix(1, 0, 0, 1, 59.5, 60.65)">
<path style="fill:#FFE7D4;fill-opacity:1" d="M58.7,41.1L47.05 35.3Q48 39.6 49.9 44.65L42.3 41.65Q42.35 47.45 44.1 55.35Q29.4 62.65 8.75 61.65L7.8 61.6L-5.35 60.5Q-19.45 58.45 -32 52.9L-31.25 50.1Q-38.7 46.35 -43.6 41.2L-44.35 41.95Q-50.45 33.5 -54.6 21.55Q-57.45 13.5 -58.7 6.8L-59.5 1.1Q-59.7 -7.95 -58.2 -15.65L-56.4 -12.95Q-52.9 -28.4 -39 -42.05Q-26.1 -52.9 -11.05 -54.15L-11.45 -60.05Q27.7 -64.7 52.5 -34.65L55.15 -30.05Q63.65 -14.1 62.75 6.8L62.05 14.8Q59.95 19.5 61.5 31.15Q58.45 29.95 55.65 29.2L58.7 41.1" />
</g>
</svg>
