<?xml version="1.0" encoding="utf-8"?>
<svg version="1.1" id="Layer_1"
xmlns="http://www.w3.org/2000/svg"
xmlns:xlink="http://www.w3.org/1999/xlink"
xmlns:author="http://www.sothink.com"
width="103px" height="117px"
xml:space="preserve">
<g id="15257" transform="matrix(1, 0, 0, 1, 46.55, 58.25)">
<path style="fill:#FFE7D4;fill-opacity:1" d="M-6.85,52.9Q-24.5 48.3 -29.45 28.7Q-45.75 16.5 -46.5 -5.75Q-47.3 -28.1 -25.85 -52.7L-23.45 -53.75Q-7.25 -60.4 12.25 -57.2Q22.05 -54.8 29.7 -51.6L29.75 -51.55L33.3 -49.7Q51.4 -38.9 54.5 -19.7Q57.6 1.85 51.35 23.35Q53.5 36.75 48.9 42.4Q38.5 53.05 24.5 58.3L8.75 55.95L-5.35 53.2L-6.3 53L-6.85 52.9" />
</g>
</svg>
