<?xml version="1.0" encoding="utf-8"?>
<svg version="1.1" id="Layer_1"
xmlns="http://www.w3.org/2000/svg"
xmlns:xlink="http://www.w3.org/1999/xlink"
xmlns:author="http://www.sothink.com"
width="95px" height="122px"
xml:space="preserve">
<g id="15283" transform="matrix(1, 0, 0, 1, 60.15, 55.9)">
<path style="fill:#C8AB98;fill-opacity:1" d="M-55.2,21.2L-55.35 20.75L-57 15.55Q-59.5 7.25 -60.1 0.4Q-60.75 -27.35 -45.55 -42.65Q-36.15 -51.4 -25.3 -55.9Q-45.8 -37.75 -47.9 -7.85Q-50.05 22.1 -31.6 47.65Q-19.7 57.55 11.8 61.85L24.05 63.05L34.55 62.15Q28.25 64.7 21.8 65.45Q-5.95 63.45 -21.4 57.75Q-36.9 52 -40.6 48.15Q-44.3 44.25 -44.9 41.85Q-51.05 33.3 -55.2 21.2" />
</g>
</svg>
