<?xml version="1.0" encoding="utf-8"?>
<svg version="1.1" id="Layer_1"
xmlns="http://www.w3.org/2000/svg"
xmlns:xlink="http://www.w3.org/1999/xlink"
xmlns:author="http://www.sothink.com"
width="49px" height="109px"
xml:space="preserve">
<g id="15313" transform="matrix(1, 0, 0, 1, 76.7, 54.95)">
<path style="fill:#D9B2A7;fill-opacity:1" d="M-28.25,-54.95Q-44.55 -40.2 -53.2 -4.2Q-57.15 1.75 -63.15 6.6Q-60.7 15.7 -49.15 24.45Q-56.75 25.45 -59.05 26.85Q-56.5 31.55 -47.1 36.3Q-51.8 40.7 -52.9 45.75Q-49.75 45.6 -44.6 47.55Q-42.55 48.35 -40.1 49.5L-59.8 53.25Q-63 44.5 -54.95 35.7Q-71.75 34.2 -76.7 17.3Q-69 19.25 -66.05 17.3Q-74.45 3.25 -73.35 -11.55L-60.15 -6.35Q-58.75 -30.1 -45.55 -43.15Q-37.45 -50.65 -28.25 -54.95" />
</g>
</svg>
