<?xml version="1.0" encoding="utf-8"?>
<svg version="1.1" id="Layer_1"
xmlns="http://www.w3.org/2000/svg"
xmlns:xlink="http://www.w3.org/1999/xlink"
xmlns:author="http://www.sothink.com"
width="147px" height="126px"
xml:space="preserve">
<g id="15363" transform="matrix(1, 0, 0, 1, 72.4, 61.75)">
<path style="fill:none;stroke-width:2.4;stroke-linecap:round;stroke-linejoin:round;stroke-miterlimit:3;stroke:#54453C;stroke-opacity:1" d="M9.9,62.4Q27.25 63.45 42.25 56.3Q54.75 50.5 69.55 46.85Q69.1 40.6 66.75 35.9Q71.65 33.95 72.85 30.1L70 27.65Q64.5 22.9 60.85 18.6Q66 17.15 67.7 14.8L62.65 8.9Q62.15 7.6 62.25 5.25Q63.1 -15.65 54.65 -31.55Q48.5 -44.5 29.65 -53.7L29.6 -53.75Q21.65 -57.05 11.6 -59.5Q-8.6 -62.75 -25.3 -55.95L-26.7 -55.35Q-36.7 -51 -45.5 -42.85Q-60.7 -27.8 -60.05 -0.45L-59.25 5.25L-58.55 8.65L-65.35 13.15L-59.2 17.95Q-62.75 23.1 -71.2 28.8Q-65.35 33.85 -55.6 39.15Q-58.45 46 -56.9 51Q-45.9 51.1 -32.65 52.75Q-23.25 56.55 -12.3 59.05L-10.85 59.4L-5.35 60.45M8.75,62.3L9.15 62.35" />
<path style="fill:none;stroke-width:0.1;stroke-linecap:round;stroke-linejoin:round;stroke-miterlimit:3;stroke:#54453C;stroke-opacity:1" d="M9.15,62.35L9.9 62.4" />
</g>
</svg>
