<?xml version="1.0" encoding="utf-8"?>
<svg version="1.1" id="Layer_1"
xmlns="http://www.w3.org/2000/svg"
xmlns:xlink="http://www.w3.org/1999/xlink"
xmlns:author="http://www.sothink.com"
width="123px" height="119px"
xml:space="preserve">
<g id="15347" transform="matrix(1, 0, 0, 1, 59.9, 60.1)">
<path style="fill:none;stroke-width:2.4;stroke-linecap:round;stroke-linejoin:round;stroke-miterlimit:3;stroke:#54453C;stroke-opacity:1" d="M55.9,12.75L58 16.05Q59.6 9.6 59.3 -0.55Q58.5 -26.45 46.3 -40.35Q39.25 -47.65 25.6 -54.2Q19.8 -56.2 13 -57.85Q-7.2 -61.1 -23.85 -54.3L-25.4 -53.6Q-35.4 -49.25 -44.1 -41.2Q-59.3 -26.15 -58.65 1.2L-57.9 6.65Q-51.9 32.2 -35.75 43.95Q-28.6 47.25 -20.4 50Q-13.3 52.3 -5.35 54.2M8.75,57.15L11.45 57.6Q22.8 57.7 30.85 54.5Q60 47.05 61.7 31.05Q62.65 24.2 58 16.05" />
</g>
</svg>
