<?xml version="1.0" encoding="utf-8"?>
<svg version="1.1" id="Layer_1"
xmlns="http://www.w3.org/2000/svg"
xmlns:xlink="http://www.w3.org/1999/xlink"
xmlns:author="http://www.sothink.com"
width="125px" height="119px"
xml:space="preserve">
<g id="15332" transform="matrix(1, 0, 0, 1, 61.35, 61.75)">
<path style="fill:none;stroke-width:2.4;stroke-linecap:round;stroke-linejoin:round;stroke-miterlimit:3;stroke:#54453C;stroke-opacity:1" d="M8.7,55.2L19.25 54.85Q36.25 53.55 48.65 47.5Q62.3 41.25 60.75 28.15Q59.75 18.5 61.6 14.35Q64.8 -11.95 54.7 -31.15Q48.55 -44.3 29.7 -53.65L29.65 -53.7Q21.7 -57.05 11.6 -59.5Q-8.6 -62.8 -25.3 -55.9Q-36.15 -51.4 -45.55 -42.65Q-60.75 -27.35 -60.1 0.4Q-59.3 9.5 -55.2 21.2Q-50.9 33.7 -44.5 42.4Q-43.65 43.45 -41.8 44.7Q-35.85 48.9 -25.75 51.4Q-17.1 53.6 -5.4 54.55" />
</g>
</svg>
