<?xml version="1.0" encoding="utf-8"?>
<svg version="1.1" id="Layer_1"
xmlns="http://www.w3.org/2000/svg"
xmlns:xlink="http://www.w3.org/1999/xlink"
xmlns:author="http://www.sothink.com"
width="159px" height="125px"
xml:space="preserve">
<g id="15362" transform="matrix(1, 0, 0, 1, 78.4, 61.9)">
<path style="fill:none;stroke-width:2.4;stroke-linecap:round;stroke-linejoin:round;stroke-miterlimit:3;stroke:#54453C;stroke-opacity:1" d="M8.75,60.95Q50.35 62.55 78.15 28.5L69.75 28.5Q76.75 20.9 79.35 11Q67.8 13.45 61.75 7.05Q62.2 -17.5 54.6 -31.75Q48.45 -44.65 29.6 -53.9L29.55 -53.95Q21.65 -57.25 11.55 -59.65Q-8.65 -62.9 -25.3 -56.1L-26.3 -55.65Q-36.6 -51.35 -45.55 -43.05Q-60.75 -28 -60.1 -0.65L-59.95 7Q-66.4 10.65 -77.2 8.45Q-73.55 28.55 -57.15 31.4L-70.1 35.4Q-53.3 53.55 -13.25 59.05L-5.35 59.95" />
</g>
</svg>
