<?xml version="1.0" encoding="utf-8"?>
<svg version="1.1" id="Layer_1"
xmlns="http://www.w3.org/2000/svg"
xmlns:xlink="http://www.w3.org/1999/xlink"
xmlns:author="http://www.sothink.com"
width="124px" height="126px"
xml:space="preserve">
<g id="15250" transform="matrix(1, 0, 0, 1, 59.9, 61.1)">
<path style="fill:#FFE7D4;fill-opacity:1" d="M47.25,-42.55Q66.35 -23.7 62.65 -2.8L55.5 19.35Q54.75 27.15 58.3 42Q58 50.75 46.6 56.3Q30.6 65 10.4 64.55L8.75 64.45L-5.35 62.75L-9.65 61.9Q-28.4 57.95 -38.7 49.15Q-53.05 32.55 -57.2 12.55L-59.05 4.65L-59.85 -1.1Q-60.5 -28.4 -45.3 -43.5Q-35.9 -52.1 -25.05 -56.5L-22.7 -57.4Q-7 -63.05 11.8 -60.05Q21.9 -57.65 29.85 -54.35L29.9 -54.3Q40.6 -49.05 47.25 -42.55" />
</g>
</svg>
