<?xml version="1.0" encoding="utf-8"?>
<svg version="1.1" id="Layer_1"
xmlns="http://www.w3.org/2000/svg"
xmlns:xlink="http://www.w3.org/1999/xlink"
xmlns:author="http://www.sothink.com"
width="129px" height="123px"
xml:space="preserve">
<g id="15244" transform="matrix(1, 0, 0, 1, 60.35, 60.75)">
<path style="fill:#FFE7D4;fill-opacity:1" d="M61.7,11.4Q61.8 18.15 66.1 24.5L68.55 28.15Q68.6 32.1 65.75 36.45Q53.7 59.35 21.6 61.35L8.75 61.6L6.6 61.55L-5.35 60.65L-14.5 59.15Q-23.2 56.75 -29.4 53.65Q-42.4 48.25 -48.6 34.8Q-52.5 28.15 -55.4 19.85Q-58.25 11.85 -59.5 5.05L-60.3 -0.65Q-60.95 -28 -45.75 -43.05Q-36.35 -51.75 -25.5 -56.15L-23.2 -57.05Q-7.45 -62.7 11.35 -59.7Q21.45 -57.25 29.35 -53.95L29.4 -53.9Q48.25 -44.7 54.4 -31.7Q62.9 -15.85 62 5.05L61.7 11.4" />
</g>
</svg>
