<?xml version="1.0" encoding="utf-8"?>
<svg version="1.1" id="Layer_1"
xmlns="http://www.w3.org/2000/svg"
xmlns:xlink="http://www.w3.org/1999/xlink"
xmlns:author="http://www.sothink.com"
width="131px" height="126px"
xml:space="preserve">
<g id="15352" transform="matrix(1, 0, 0, 1, 60.95, 62.15)">
<path style="fill:none;stroke-width:2.4;stroke-linecap:round;stroke-linejoin:round;stroke-miterlimit:3;stroke:#54453C;stroke-opacity:1" d="M61.95,11.5L62.55 4.85Q63.45 -16 55 -31.9Q48.85 -44.9 30 -54.1L29.95 -54.15Q22 -57.45 11.95 -59.9Q-8.25 -63.1 -24.95 -56.35L-25.95 -55.9Q-36.2 -51.55 -45.15 -43.25Q-60.35 -28.15 -59.7 -0.85L-59.45 1.25" />
<path style="fill:none;stroke-width:2.4;stroke-linecap:round;stroke-linejoin:round;stroke-miterlimit:3;stroke:#000000;stroke-opacity:1" d="M-59.45,1.25Q-57.05 23.25 -46.55 39.7Q-42.2 45.15 -34.6 49.8Q-26.95 54.45 -17.9 57.35Q-11.9 59.25 -5.35 60.4M8.75,61.55L10.65 61.7Q35.05 64.05 59.45 51.35L63.95 47Q70.1 34.65 68.05 20.8Q65.4 16.2 61.95 11.5L58.4 6.85" />
</g>
</svg>
