<?xml version="1.0" encoding="utf-8"?>
<svg version="1.1" id="Layer_1"
xmlns="http://www.w3.org/2000/svg"
xmlns:xlink="http://www.w3.org/1999/xlink"
xmlns:author="http://www.sothink.com"
width="101px" height="121px"
xml:space="preserve">
<g id="15284" transform="matrix(1, 0, 0, 1, 60.15, 55.9)">
<path style="fill:#C8AB98;fill-opacity:1" d="M-44.05,42.95L-44.5 42.4L-44.9 41.85Q-51.05 33.3 -55.2 21.2L-55.35 20.75L-57 15.55Q-59.5 7.25 -60.1 0.4Q-60.75 -27.35 -45.55 -42.65Q-36.15 -51.4 -25.3 -55.9Q-45.8 -37.75 -47.9 -7.85Q-50.05 22.1 -28.9 44.5Q-20.9 50.85 -14.1 53.4L-6.15 56.2Q4.95 59.25 15.4 59.1Q20.05 59.55 22.9 59L40.35 55.25Q38.75 58.4 32.05 61.55Q8.3 69.1 -18.7 55.35L-18.85 55.3L-19.25 55.05L-19.3 55.05Q-39.55 53 -44.05 42.95" />
</g>
</svg>
