<?xml version="1.0" encoding="utf-8"?>
<svg version="1.1" id="Layer_1"
xmlns="http://www.w3.org/2000/svg"
xmlns:xlink="http://www.w3.org/1999/xlink"
xmlns:author="http://www.sothink.com"
width="128px" height="123px"
xml:space="preserve">
<g id="15246" transform="matrix(1, 0, 0, 1, 60, 60.75)">
<path style="fill:#FFE7D4;fill-opacity:1" d="M62.4,-1Q60.5 10.55 64.55 20.8Q70.15 30.7 65.05 38.5Q59.9 46.3 49.85 52.4Q40.4 57.3 25.95 60.7L8.75 61.45L-5.35 60.2Q-11.6 59.2 -17.55 57.5L-20.85 56.45Q-37 51.5 -44.65 42.55Q-57 27.35 -59.95 -0.65Q-60.6 -28 -45.4 -43.05Q-36.4 -51.4 -26.05 -55.75L-25.15 -56.15Q-8.5 -62.95 11.7 -59.7Q21.8 -57.25 29.7 -53.95L29.75 -53.9Q48.6 -44.7 54.75 -31.7Q62 -18.2 62.4 -1" />
</g>
</svg>
