<?xml version="1.0" encoding="utf-8"?>
<svg version="1.1" id="Layer_1"
xmlns="http://www.w3.org/2000/svg"
xmlns:xlink="http://www.w3.org/1999/xlink"
xmlns:author="http://www.sothink.com"
width="144px" height="138px"
xml:space="preserve">
<g id="15367" transform="matrix(1, 0, 0, 1, 68.35, 72.5)">
<path style="fill:none;stroke-width:2.4;stroke-linecap:round;stroke-linejoin:round;stroke-miterlimit:3;stroke:#54453C;stroke-opacity:1" d="M9.35,61.55Q17.5 67.4 23.9 58.1Q33.2 63.6 40.8 54.15Q54.35 56.45 58 45.4Q70.1 40.4 66.95 31.75Q80.45 22.6 67.2 14.05Q74.85 6.55 66.95 -1.7Q70.4 -11.35 63.45 -17.15Q66.95 -24.55 61.05 -28.65Q64.8 -43.05 51.75 -43.7Q50.8 -54.45 40.8 -53.65Q37.35 -62.45 26.2 -61.3Q22.95 -68.9 13 -67.9Q7.15 -71.8 1.7 -71.25Q-1.75 -70.9 -5 -68.75Q-18.85 -74.6 -26 -64.05Q-39.05 -64.3 -44.75 -52.75Q-58.45 -46.9 -57.5 -32.05Q-71.2 -21.9 -63.35 -11.3Q-71.25 -2 -62.65 7.7Q-72.55 18.55 -60.6 26.35Q-66.75 37.2 -56.3 40.65Q-53.55 50.8 -44.6 47.45Q-38.95 59 -27 57Q-21.9 62.95 -16.25 60.8Q-14.45 60.1 -12.6 58.6Q-8.8 62.85 -6.3 61.8" />
</g>
</svg>
