<?xml version="1.0" encoding="utf-8"?>
<svg version="1.1" id="Layer_1"
xmlns="http://www.w3.org/2000/svg"
xmlns:xlink="http://www.w3.org/1999/xlink"
xmlns:author="http://www.sothink.com"
width="123px" height="121px"
xml:space="preserve">
<g id="15238" transform="matrix(1, 0, 0, 1, 60.15, 60.55)">
<path style="fill:#FFF1E0;fill-opacity:1" d="M-44.8,42Q-51 33.45 -55.2 21.2L-55.35 20.75L-57 15.55Q-59.5 7.25 -60.1 0.4Q-60.75 -27.35 -45.55 -42.65Q-21.7 -64.95 11.6 -59.5Q21.7 -57.05 29.65 -53.7L29.7 -53.65Q48.55 -44.3 54.7 -31.15Q64.8 -11.95 61.6 14.35Q59.5 19.1 61.05 30.9Q61.65 35.45 60.1 39.7Q57 46.65 48.3 51.65Q36.45 57.4 28.8 58.7L19.2 60.35L5.9 59.75Q-7.35 59.1 -24.15 53.8Q-36.6 48.9 -44.8 42" />
</g>
</svg>
