<?xml version="1.0" encoding="utf-8"?>
<svg version="1.1" id="Layer_1"
xmlns="http://www.w3.org/2000/svg"
xmlns:xlink="http://www.w3.org/1999/xlink"
xmlns:author="http://www.sothink.com"
width="125px" height="129px"
xml:space="preserve">
<g id="15356" transform="matrix(1, 0, 0, 1, 60.85, 61.85)">
<path style="fill:none;stroke-width:2.4;stroke-linecap:round;stroke-linejoin:round;stroke-miterlimit:3;stroke:#54453C;stroke-opacity:1" d="M-49.65,0.4L-48.1 -2.3Q-44.5 -8.45 -41.3 -11.35Q-34 -5.05 -31.5 17.35L-36.85 27.4Q-33.3 32.35 -23.35 38.35L-21.85 55.6Q-15.9 61.45 -5.35 63.85Q-1.45 64.75 3.1 65.15L8.75 65.5L16 65.4L22 64.95Q39 63.15 47.85 57.05L52.3 32.9Q59 29.45 62.1 23.05L56.1 14.15Q66.3 -16.5 51.5 -36.45Q44.55 -46.35 29.35 -53.8L29.3 -53.85Q21.35 -57.15 11.3 -59.6Q-8.9 -62.85 -25.6 -56.05Q-36.4 -51.65 -45.8 -42.95L-47.9 -40.75Q-60.35 -26.7 -59.6 -3.8Q-58.3 7.1 -52.9 14.8Q-47.2 22.95 -36.85 27.4" />
</g>
</svg>
