<?xml version="1.0" encoding="utf-8"?>
<svg version="1.1" id="Layer_1"
xmlns="http://www.w3.org/2000/svg"
xmlns:xlink="http://www.w3.org/1999/xlink"
xmlns:author="http://www.sothink.com"
width="126px" height="126px"
xml:space="preserve">
<g id="15343" transform="matrix(1, 0, 0, 1, 61.25, 61.85)">
<path style="fill:none;stroke-width:2.4;stroke-linecap:round;stroke-linejoin:round;stroke-miterlimit:3;stroke:#54453C;stroke-opacity:1" d="M8.75,62.2L11.3 61.95Q36.6 61.35 51.95 45.3Q67.2 31.05 62.3 -3.05Q61.5 -18.95 54.7 -31.6Q48.55 -44.6 29.7 -53.8L29.65 -53.85Q21.75 -57.15 11.65 -59.6Q-8.55 -62.85 -25.2 -56.05L-26.7 -55.4Q-36.7 -51.05 -45.45 -42.95Q-60.65 -27.85 -60 -0.55L-59.3 7.6Q-58.9 11.95 -56.9 19.95Q-52.2 38.15 -38 49.85Q-23.3 59.5 -6.9 61.75L-5.35 61.95" />
</g>
</svg>
