<?xml version="1.0" encoding="utf-8"?>
<svg version="1.1" id="Layer_1"
xmlns="http://www.w3.org/2000/svg"
xmlns:xlink="http://www.w3.org/1999/xlink"
xmlns:author="http://www.sothink.com"
width="142px" height="118px"
xml:space="preserve">
<g id="15318" transform="matrix(1, 0, 0, 1, 139.15, 59.65)">
<path style="fill:#D9B2A7;fill-opacity:1" d="M-58,-2.15Q-45.1 -40.5 -15.2 -54.2Q-6.3 -58.85 2.6 -59.65Q-14.45 -55.6 -28.6 -37.9Q-51.05 -13.05 -43.9 4.9Q-73.65 9.9 -84.7 27.1Q-86.7 30.25 -90.65 30.6Q-98.8 30.5 -97.95 34.7Q-97.4 43.7 -107.95 42.45Q-112.1 41.6 -117.7 45.5Q-127.4 51.1 -121.2 56.8Q-137.5 56.2 -139.15 53Q-130.9 36.65 -112.35 36.15Q-104.4 22.45 -94.1 25.45Q-81.1 -1.05 -58 -2.15M-90.8,57.4Q-93.95 50.8 -83.6 49.65Q-80.9 38.45 -68.9 37Q-69.1 23.85 -55.2 20.8Q-48.25 20.8 -41.85 25.5Q-51.9 23.3 -60.2 28.55Q-67.25 34.3 -61.75 41.35Q-61.95 42.7 -64.55 41.6Q-77.85 39.6 -80.5 50.65Q-81.4 52.25 -85.4 53Q-89 54.05 -90.8 57.4" />
</g>
</svg>
