<?xml version="1.0" encoding="utf-8"?>
<svg version="1.1" id="Layer_1"
xmlns="http://www.w3.org/2000/svg"
xmlns:xlink="http://www.w3.org/1999/xlink"
xmlns:author="http://www.sothink.com"
width="124px" height="126px"
xml:space="preserve">
<g id="15355" transform="matrix(1, 0, 0, 1, 61.2, 62.2)">
<path style="fill:none;stroke-width:2.4;stroke-linecap:round;stroke-linejoin:round;stroke-miterlimit:3;stroke:#54453C;stroke-opacity:1" d="M36.25,38.75L36.85 48.15Q39.15 49 40.9 48.7Q40.8 44.1 41.35 37.65Q42.1 33.45 48.05 30.5L48.8 30.15L53.25 27.9L61.45 23.85L58.55 17.75Q55.4 5.05 57.85 -4.9Q61.1 -17.1 58.05 -24.6L54.7 -32.05Q48.6 -45 29.75 -54.2L29.7 -54.25Q21.75 -57.55 11.65 -59.95L7 -60.55Q-10.45 -62.45 -25.2 -56.4Q-36.05 -52.05 -45.4 -43.35Q-59.45 -29.45 -59.95 -4.95Q-60.7 12.2 -50.55 25.8Q-47.3 30.2 -42.55 33.1Q-31.4 39.85 -12 38.6L-14.2 32.55L-18.4 31.5Q-20.7 30.55 -19.75 27.6L-19.65 27.35Q-16.95 19 -18.65 8.35Q-20.7 -1.8 -30.3 -12Q-34.2 -14.2 -36.75 -14.7Q-40.15 -15.4 -41.05 -13Q-42.65 -8.95 -43.25 -0.7M-12,38.6Q-8.8 48.15 -6.95 57.15L-5.35 58.05Q0.65 61.15 8.75 61.8L24.95 61Q36.95 61.9 46.8 56.95Q48.9 53.5 49.65 47.25L53.25 27.9M41.35,54.15Q40.95 51.9 40.9 48.7Q44.3 48.65 46.75 45.05L48.8 30.15M16.2,37.55L17.15 48.25Q22.9 49.9 28 47.95L27.65 37.05M28,47.95Q32.9 49.3 36.85 48.15L36.85 54.7M17.85,55.8L17.15 48.25Q12.55 50.7 8.75 50.1Q9.15 52.45 9.2 55.1M-14.2,32.55L-7.6 34.15L0.4 36.05Q7.2 40.25 8.75 50.1Q2.45 50.95 -2.05 49.25Q-6.2 42 -7.6 34.15M28,47.95L28 55.3" />
</g>
</svg>
