<?xml version="1.0" encoding="utf-8"?>
<svg version="1.1" id="Layer_1"
xmlns="http://www.w3.org/2000/svg"
xmlns:xlink="http://www.w3.org/1999/xlink"
xmlns:author="http://www.sothink.com"
width="125px" height="124px"
xml:space="preserve">
<g id="15344" transform="matrix(1, 0, 0, 1, 61.25, 61.75)">
<path style="fill:none;stroke-width:2.4;stroke-linecap:round;stroke-linejoin:round;stroke-miterlimit:3;stroke:#54453C;stroke-opacity:1" d="M8.75,60.95Q30.65 61.55 45.4 54Q56.65 48.65 55.75 39.75L56.15 34.75Q61.75 16.2 62.4 -0.45Q62 -17.85 54.7 -31.55Q48.55 -44.5 29.7 -53.75L29.65 -53.8Q21.75 -57.1 11.65 -59.5Q-8.55 -62.75 -25.2 -55.95L-25.5 -55.8Q-36.2 -51.4 -45.45 -42.9Q-60.65 -27.85 -60 -0.45L-59.2 5.25Q-57.95 12 -55.1 20Q-50.8 32.35 -44.4 40.9L-41.6 44.1Q-30.8 53.35 -13.7 57.65L-5.35 59.4" />
</g>
</svg>
