<?xml version="1.0" encoding="utf-8"?>
<svg version="1.1" id="Layer_1"
xmlns="http://www.w3.org/2000/svg"
xmlns:xlink="http://www.w3.org/1999/xlink"
xmlns:author="http://www.sothink.com"
width="129px" height="123px"
xml:space="preserve">
<g id="15261" transform="matrix(1, 0, 0, 1, 59.75, 60.95)">
<path style="fill:#FFE7D4;fill-opacity:1" d="M-59.7,-0.85Q-60.35 -28.15 -45.15 -43.25Q-36.2 -51.55 -25.95 -55.9L-24.95 -56.35Q-8.25 -63.1 11.95 -59.9Q22 -57.45 29.95 -54.15L30 -54.1Q48.85 -44.9 55 -31.9Q63.45 -16 62.55 4.85L61.95 11.5Q65.4 16.2 68.05 20.8Q70.1 34.65 63.95 47L59.45 51.35Q35.05 64.05 10.65 61.7L-3.8 60.65L-5.35 60.4Q-11.9 59.25 -17.9 57.35Q-26.95 54.45 -34.6 49.8Q-42.2 45.15 -46.55 39.7Q-57.05 23.25 -59.45 1.25L-59.7 -0.85" />
</g>
</svg>
