<?xml version="1.0" encoding="utf-8"?>
<svg version="1.1" id="Layer_1"
xmlns="http://www.w3.org/2000/svg"
xmlns:xlink="http://www.w3.org/1999/xlink"
xmlns:author="http://www.sothink.com"
width="125px" height="125px"
xml:space="preserve">
<g id="15349" transform="matrix(1, 0, 0, 1, 61.1, 61.95)">
<path style="fill:none;stroke-width:2.4;stroke-linecap:round;stroke-linejoin:round;stroke-miterlimit:3;stroke:#54453C;stroke-opacity:1" d="M8.75,61.35Q29.85 60.95 44.35 56.45Q58.15 50 57.65 39.85Q55.8 29.65 57.65 25Q62 12.15 62.45 -1.5Q61.95 -18.4 54.8 -31.75Q48.65 -44.7 29.8 -53.95L29.75 -54Q21.85 -57.3 11.75 -59.7Q-8.45 -62.95 -25.1 -56.15L-26.9 -55.35Q-36.75 -51 -45.35 -43.1Q-59.75 -28.8 -59.9 -3.45Q-57.8 20.05 -40.65 44.5Q-34 53.3 -21.4 57.2L-17.1 58.35L-5.35 60.3" />
</g>
</svg>
