<?xml version="1.0" encoding="utf-8"?>
<svg version="1.1" id="Layer_1"
xmlns="http://www.w3.org/2000/svg"
xmlns:xlink="http://www.w3.org/1999/xlink"
xmlns:author="http://www.sothink.com"
width="157px" height="122px"
xml:space="preserve">
<g id="15271" transform="matrix(1, 0, 0, 1, 77.2, 60.7)">
<path style="fill:#FFE7D4;fill-opacity:1" d="M61.75,7.05Q67.8 13.45 79.35 11Q76.75 20.9 69.75 28.5L78.15 28.5Q50.35 62.55 8.75 60.95L8.05 60.9L-5.35 59.95L-13.25 59.05Q-53.3 53.55 -70.1 35.4L-57.15 31.4Q-73.55 28.55 -77.2 8.45Q-66.4 10.65 -59.95 7L-60.1 -0.65Q-60.75 -28 -45.55 -43.05Q-36.6 -51.35 -26.3 -55.65L-25.3 -56.1Q-8.65 -62.9 11.55 -59.65Q21.65 -57.25 29.55 -53.95L29.6 -53.9Q48.45 -44.65 54.6 -31.75Q62.2 -17.5 61.75 7.05" />
</g>
</svg>
