<?xml version="1.0" encoding="utf-8"?>
<svg version="1.1" id="Layer_1"
xmlns="http://www.w3.org/2000/svg"
xmlns:xlink="http://www.w3.org/1999/xlink"
xmlns:author="http://www.sothink.com"
width="123px" height="126px"
xml:space="preserve">
<g id="15254" transform="matrix(1, 0, 0, 1, 59.8, 60.95)">
<path style="fill:#FFE7D4;fill-opacity:1" d="M60.35,15.65Q57.9 23.35 58.75 33.15Q59.7 45.75 45.15 54.85Q33.2 61.6 18.05 65L8.75 63.95Q1.25 62.9 -5.35 61.3L-13.4 59.1Q-30.9 53.6 -41.2 43.85L-44.15 40.5Q-50.55 31.9 -54.85 19.6Q-57.7 11.55 -58.95 4.8L-59.75 -0.9Q-60.4 -28.25 -45.2 -43.35Q-35.8 -52 -24.95 -56.35L-24.65 -56.45Q-8.15 -63.1 11.9 -59.9Q22 -57.5 29.9 -54.2L29.95 -54.15Q48.8 -44.95 54.95 -32Q63.45 -16.05 62.55 4.8Q62.4 8.2 60.35 15.65" />
</g>
</svg>
