<?xml version="1.0" encoding="utf-8"?>
<svg version="1.1" id="Layer_1"
xmlns="http://www.w3.org/2000/svg"
xmlns:xlink="http://www.w3.org/1999/xlink"
xmlns:author="http://www.sothink.com"
width="126px" height="127px"
xml:space="preserve">
<g id="15241" transform="matrix(1, 0, 0, 1, 61.15, 61.55)">
<path style="fill:#FFF1E0;fill-opacity:1" d="M-19.25,55.05L-19.3 55.05Q-39.55 53 -44.05 42.95L-44.65 41.4L-44.9 41.85Q-51.05 33.3 -55.2 21.2L-55.35 20.75L-57 15.55Q-59.5 7.25 -60.1 0.4Q-60.75 -27.35 -45.55 -42.65Q-21.7 -64.95 11.6 -59.5Q21.7 -57.05 29.65 -53.7L29.7 -53.65Q48.55 -44.3 54.7 -31.15Q64.8 -11.95 61.6 14.35Q59.5 19.1 62.05 26.1Q63.6 30.35 63.65 35.4Q63.3 45.65 55.45 50.75Q47.6 55.8 44.15 56.15Q15.35 72.7 -18.7 55.35L-19.25 55.05" />
<path style="fill:none;stroke-width:2;stroke-linecap:round;stroke-linejoin:round;stroke-miterlimit:3;stroke:#54453C;stroke-opacity:1" d="M-18.7,55.35Q15.35 72.7 44.15 56.15Q47.6 55.8 55.45 50.75Q63.3 45.65 63.65 35.4Q63.6 30.35 62.05 26.1Q59.5 19.1 61.6 14.35Q64.8 -11.95 54.7 -31.15Q48.55 -44.3 29.7 -53.65L29.65 -53.7Q21.7 -57.05 11.6 -59.5Q-21.7 -64.95 -45.55 -42.65Q-60.75 -27.35 -60.1 0.4Q-59.5 7.25 -57 15.55L-55.35 20.75L-55.2 21.2Q-51.05 33.3 -44.9 41.85L-44.65 41.4L-44.05 42.95Q-39.55 53 -19.3 55.05L-19.25 55.05L-18.7 55.35z" />
</g>
</svg>
