<?xml version="1.0" encoding="utf-8"?>
<svg version="1.1" id="Layer_1"
xmlns="http://www.w3.org/2000/svg"
xmlns:xlink="http://www.w3.org/1999/xlink"
xmlns:author="http://www.sothink.com"
width="157px" height="123px"
xml:space="preserve">
<g id="15270" transform="matrix(1, 0, 0, 1, 76.7, 60.8)">
<path style="fill:#FFE7D4;fill-opacity:1" d="M68.65,-13.75Q73.95 -0.3 67.05 11.25Q73.25 9.6 80.2 12.55L70.4 30.05L75.75 34.85L75.05 36.05Q69 45.7 53.3 50.15Q30.95 61.85 8.75 61.75L8.45 61.75L-5.35 60.5Q-21.5 57.85 -40.1 49.5L-59.8 53.25Q-63 44.5 -54.95 35.7Q-71.75 34.2 -76.7 17.3Q-69 19.25 -66.05 17.3Q-74.45 3.25 -73.35 -11.55L-60.15 -6.35Q-58.75 -30.1 -45.55 -43.15Q-37.45 -50.65 -28.25 -54.95L-25.3 -56.2Q-8.6 -63.05 11.55 -59.75Q21.65 -57.35 29.6 -54.05L29.65 -54Q48.45 -44.8 54.6 -31.85Q61.05 -19.75 62.1 -4.85L68.65 -13.75" />
</g>
</svg>
