<?xml version="1.0" encoding="utf-8"?>
<svg version="1.1" id="Layer_1"
xmlns="http://www.w3.org/2000/svg"
xmlns:xlink="http://www.w3.org/1999/xlink"
xmlns:author="http://www.sothink.com"
width="123px" height="123px"
xml:space="preserve">
<g id="15258" transform="matrix(1, 0, 0, 1, 59.9, 60.75)">
<path style="fill:#FFE7D4;fill-opacity:1" d="M62.45,-1.5Q62 12.15 57.65 25Q55.8 29.65 57.65 39.85Q58.15 50 44.35 56.45Q29.85 60.95 8.75 61.35L4.65 61.4L-5.35 60.3L-17.1 58.35L-21.4 57.2Q-34 53.3 -40.65 44.5Q-57.8 20.05 -59.9 -3.45Q-59.75 -28.8 -45.35 -43.1Q-36.75 -51 -26.9 -55.35L-25.1 -56.15Q-8.45 -62.95 11.75 -59.7Q21.85 -57.3 29.75 -54L29.8 -53.95Q48.65 -44.7 54.8 -31.75Q61.95 -18.4 62.45 -1.5" />
</g>
</svg>
