<?xml version="1.0" encoding="utf-8"?>
<svg version="1.1" id="Layer_1"
xmlns="http://www.w3.org/2000/svg"
xmlns:xlink="http://www.w3.org/1999/xlink"
xmlns:author="http://www.sothink.com"
width="124px" height="124px"
xml:space="preserve">
<g id="15252" transform="matrix(1, 0, 0, 1, 60.05, 60.65)">
<path style="fill:#FFE7D4;fill-opacity:1" d="M62.3,-3.05Q67.2 31.05 51.95 45.3Q36.6 61.35 11.3 61.95L8.75 62.2Q1.55 62.7 -5.35 61.95L-6.9 61.75Q-23.3 59.5 -38 49.85Q-52.2 38.15 -56.9 19.95Q-58.9 11.95 -59.3 7.6L-60 -0.55Q-60.65 -27.85 -45.45 -42.95Q-36.7 -51.05 -26.7 -55.4L-25.2 -56.05Q-8.55 -62.85 11.65 -59.6Q21.75 -57.15 29.65 -53.85L29.7 -53.8Q48.55 -44.6 54.7 -31.6Q61.5 -18.95 62.3 -3.05" />
</g>
</svg>
