<?xml version="1.0" encoding="utf-8"?>
<svg version="1.1" id="Layer_1"
xmlns="http://www.w3.org/2000/svg"
xmlns:xlink="http://www.w3.org/1999/xlink"
xmlns:author="http://www.sothink.com"
width="141px" height="136px"
xml:space="preserve">
<g id="15276" transform="matrix(1, 0, 0, 1, 67.15, 71.3)">
<path style="fill:#FFE7D4;fill-opacity:1" d="M-5,-68.75Q-1.75 -70.9 1.7 -71.25Q7.15 -71.8 13 -67.9Q22.95 -68.9 26.2 -61.3Q37.35 -62.45 40.8 -53.65Q50.8 -54.45 51.75 -43.7Q64.8 -43.05 61.05 -28.65Q66.95 -24.55 63.45 -17.15Q70.4 -11.35 66.95 -1.7Q74.85 6.55 67.2 14.05Q80.45 22.6 66.95 31.75Q70.1 40.4 58 45.4Q54.35 56.45 40.8 54.15Q33.2 63.6 23.9 58.1Q17.5 67.4 9.35 61.55L-6.3 61.8Q-8.8 62.85 -12.6 58.6Q-14.45 60.1 -16.25 60.8Q-21.9 62.95 -27 57Q-38.95 59 -44.6 47.45Q-53.55 50.8 -56.3 40.65Q-66.75 37.2 -60.6 26.35Q-72.55 18.55 -62.65 7.7Q-71.25 -2 -63.35 -11.3Q-71.2 -21.9 -57.5 -32.05Q-58.45 -46.9 -44.75 -52.75Q-39.05 -64.3 -26 -64.05Q-18.85 -74.6 -5 -68.75" />
</g>
</svg>
