<?xml version="1.0" encoding="utf-8"?>
<svg version="1.1" id="Layer_1"
xmlns="http://www.w3.org/2000/svg"
xmlns:xlink="http://www.w3.org/1999/xlink"
xmlns:author="http://www.sothink.com"
width="115px" height="124px"
xml:space="preserve">
<g id="15255" transform="matrix(1, 0, 0, 1, 56.55, 60.95)">
<path style="fill:#FFE7D4;fill-opacity:1" d="M33.65,-52.3Q54.6 -39.9 56.95 -24.45Q60.25 -9.2 55.8 12.75Q55.1 21.85 56.35 28.4Q58.65 48.05 36.95 55.7Q27.3 58.7 20.65 62.45Q14.65 61 8.75 60.55L6.1 60.4L-5.35 59.35L-15.45 57.7Q-27.45 55.2 -32.55 51Q-45.45 40.25 -52 15.1Q-60.6 -16.65 -53 -32.75Q-49.8 -38.6 -45.1 -43.3Q-40.6 -47.45 -35.75 -50.65Q-30.5 -54.1 -24.85 -56.35Q-8.2 -63.15 12 -59.9Q22.1 -57.5 30 -54.2L30.05 -54.15L33.65 -52.3" />
</g>
</svg>
