<?xml version="1.0" encoding="utf-8"?>
<svg version="1.1" id="Layer_1"
xmlns="http://www.w3.org/2000/svg"
xmlns:xlink="http://www.w3.org/1999/xlink"
xmlns:author="http://www.sothink.com"
width="285px" height="120px"
xml:space="preserve">
<g id="15366" transform="matrix(1, 0, 0, 1, 140.35, 61.05)">
<path style="fill:none;stroke-width:2.4;stroke-linecap:round;stroke-linejoin:round;stroke-miterlimit:3;stroke:#000000;stroke-opacity:1" d="M-58,-2.15Q-45.1 -40.5 -15.2 -54.2Q-6.3 -58.85 2.6 -59.65Q13.4 -60.7 24.2 -56.05Q50.5 -44.55 59.7 -2.95Q84.8 -4.65 87.25 27.75Q101.35 14.7 114 36.15Q130.15 33.35 143.15 48.4Q131.9 50.45 115.6 48.95Q76.3 56.25 8.75 56.85L6.1 56.85L-5.35 57.15L-38.9 55.4Q-63.75 57.75 -90.85 57.45L-90.9 57.45L-110.4 56.85L-121.2 56.8Q-137.5 56.2 -139.15 53Q-130.9 36.65 -112.35 36.15Q-104.4 22.45 -94.1 25.45Q-81.1 -1.05 -58 -2.15z" />
</g>
</svg>
