<?xml version="1.0" encoding="utf-8"?>
<svg version="1.1" id="Layer_1"
xmlns="http://www.w3.org/2000/svg"
xmlns:xlink="http://www.w3.org/1999/xlink"
xmlns:author="http://www.sothink.com"
width="121px" height="117px"
xml:space="preserve">
<g id="15256" transform="matrix(1, 0, 0, 1, 58.7, 58.9)">
<path style="fill:#FFE7D4;fill-opacity:1" d="M61.7,31.05Q60 47.05 30.85 54.5Q22.8 57.7 11.45 57.6L8.75 57.15L-5.35 54.2Q-13.3 52.3 -20.4 50Q-28.6 47.25 -35.75 43.95Q-51.9 32.2 -57.9 6.65L-58.65 1.2Q-59.3 -26.15 -44.1 -41.2Q-35.4 -49.25 -25.4 -53.6L-23.85 -54.3Q-7.2 -61.1 13 -57.85Q19.8 -56.2 25.6 -54.2Q39.25 -47.65 46.3 -40.35Q58.5 -26.45 59.3 -0.55Q59.6 9.6 58 16.05Q62.65 24.2 61.7 31.05" />
</g>
</svg>
