<?xml version="1.0" encoding="utf-8"?>
<svg version="1.1" id="Layer_1"
xmlns="http://www.w3.org/2000/svg"
xmlns:xlink="http://www.w3.org/1999/xlink"
xmlns:author="http://www.sothink.com"
width="126px" height="129px"
xml:space="preserve">
<g id="15341" transform="matrix(1, 0, 0, 1, 61.1, 62.3)">
<path style="fill:none;stroke-width:2.4;stroke-linecap:round;stroke-linejoin:round;stroke-miterlimit:3;stroke:#54453C;stroke-opacity:1" d="M8.75,64.45L10.4 64.55Q30.6 65 46.6 56.3Q58 50.75 58.3 42Q54.75 27.15 55.5 19.35L62.65 -2.8Q66.35 -23.7 47.25 -42.55Q40.6 -49.05 29.9 -54.3L29.85 -54.35Q21.9 -57.65 11.8 -60.05Q-7 -63.05 -22.7 -57.4L-25.05 -56.5Q-35.9 -52.1 -45.3 -43.5Q-60.5 -28.4 -59.85 -1.1L-59.05 4.65L-57.2 12.55Q-53.05 32.55 -38.7 49.15Q-28.4 57.95 -9.65 61.9L-5.35 62.75" />
</g>
</svg>
