<?xml version="1.0" encoding="utf-8"?>
<svg version="1.1" id="Layer_1"
xmlns="http://www.w3.org/2000/svg"
xmlns:xlink="http://www.w3.org/1999/xlink"
xmlns:author="http://www.sothink.com"
width="130px" height="125px"
xml:space="preserve">
<g id="15337" transform="matrix(1, 0, 0, 1, 61.2, 61.95)">
<path style="fill:none;stroke-width:2.4;stroke-linecap:round;stroke-linejoin:round;stroke-miterlimit:3;stroke:#54453C;stroke-opacity:1" d="M8.75,61.45L25.95 60.7Q40.4 57.3 49.85 52.4Q59.9 46.3 65.05 38.5Q70.15 30.7 64.55 20.8Q60.5 10.55 62.4 -1Q62 -18.2 54.75 -31.7Q48.6 -44.7 29.75 -53.9L29.7 -53.95Q21.8 -57.25 11.7 -59.7Q-8.5 -62.95 -25.15 -56.15L-26.05 -55.75Q-36.4 -51.4 -45.4 -43.05Q-60.6 -28 -59.95 -0.65Q-57 27.35 -44.65 42.55Q-37 51.5 -20.85 56.45L-17.55 57.5Q-11.6 59.2 -5.35 60.2" />
</g>
</svg>
