<?xml version="1.0" encoding="utf-8"?>
<svg version="1.1" id="Layer_1"
xmlns="http://www.w3.org/2000/svg"
xmlns:xlink="http://www.w3.org/1999/xlink"
xmlns:author="http://www.sothink.com"
width="123px" height="131px"
xml:space="preserve">
<g id="15249" transform="matrix(1, 0, 0, 1, 59.7, 61.05)">
<path style="fill:#FFE7D4;fill-opacity:1" d="M62.45,8Q59.4 30.9 54.05 52.05Q38 63.2 16 69.7L8.75 68.55Q1.35 67.2 -5.35 65.2Q-10.7 63.6 -15.65 61.6Q-30.65 55.4 -41.85 45.3Q-51.85 30.3 -56 15.8Q-57.9 9.9 -58.85 4.8L-59.65 -0.95Q-60.3 -28.3 -45.1 -43.35Q-35.7 -52.05 -24.85 -56.4L-22.1 -57.45Q-6.55 -63 12 -59.95Q22.1 -57.55 30.05 -54.25L30.1 -54.2Q48.9 -45 55.05 -32Q63.55 -16.15 62.65 4.8L62.45 8" />
</g>
</svg>
