<?xml version="1.0" encoding="utf-8"?>
<svg version="1.1" id="Layer_1"
xmlns="http://www.w3.org/2000/svg"
xmlns:xlink="http://www.w3.org/1999/xlink"
xmlns:author="http://www.sothink.com"
width="109px" height="112px"
xml:space="preserve">
<g id="15307" transform="matrix(1, 0, 0, 1, 60, 61)">
<path style="fill:#D9B2A7;fill-opacity:1" d="M-32.2,-22Q-32.55 -17.55 -36.75 -14.7Q-34.2 -14.2 -30.3 -12Q-20.7 -1.8 -18.65 8.35Q-16.95 19 -19.65 27.35Q-33.6 -3.15 -40.95 -1.15Q-48.65 3.05 -42.55 33.1Q-47.3 30.2 -50.55 25.8Q-60.7 12.2 -59.95 -4.95Q-59.45 -29.45 -45.4 -43.35Q-36.05 -52.05 -25.2 -56.4Q-10.45 -62.45 7 -60.55Q-21.95 -51.3 -32.2 -22M-7.6,34.15L0.4 36.05Q7.2 40.25 8.75 50.1Q2.45 50.95 -2.05 49.25Q-6.2 42 -7.6 34.15M40.9,48.7Q40.8 44.1 41.35 37.65Q42.1 33.45 48.05 30.5L48.8 30.15L46.75 45.05Q44.3 48.65 40.9 48.7" />
</g>
</svg>
