<?xml version="1.0" encoding="utf-8"?>
<svg version="1.1" id="Layer_1"
xmlns="http://www.w3.org/2000/svg"
xmlns:xlink="http://www.w3.org/1999/xlink"
xmlns:author="http://www.sothink.com"
width="144px" height="123px"
xml:space="preserve">
<g id="15266" transform="matrix(1, 0, 0, 1, 69.7, 61.45)">
<path style="fill:#FFE7D4;fill-opacity:1" d="M53.7,-35.15Q68.45 -8.4 73.1 26.05Q75.4 41.05 68.3 46.7Q63.45 51.15 54.55 54.35Q39.6 61.2 8.75 61.5L-5.35 61.3L-7.9 61.2L-12 61Q-42.5 59.2 -61.45 48.2Q-71.8 42.25 -69.15 18.6Q-66.95 -10.5 -51.85 -35.15Q-49 -39.9 -45.05 -43.85Q-36.3 -51.95 -26.15 -56.25L-24.85 -56.85Q-8.15 -63.65 12 -60.4Q22.1 -58 30.05 -54.7L30.1 -54.65Q47 -46.4 53.7 -35.15" />
</g>
</svg>
