<?xml version="1.0" encoding="utf-8"?>
<svg version="1.1" id="Layer_1"
xmlns="http://www.w3.org/2000/svg"
xmlns:xlink="http://www.w3.org/1999/xlink"
xmlns:author="http://www.sothink.com"
width="125px" height="125px"
xml:space="preserve">
<g id="15354" transform="matrix(1, 0, 0, 1, 60.7, 61.85)">
<path style="fill:none;stroke-width:2.4;stroke-linecap:round;stroke-linejoin:round;stroke-miterlimit:3;stroke:#54453C;stroke-opacity:1" d="M8.75,61.65Q29.4 62.65 44.1 55.35Q42.35 47.45 42.3 41.65L49.9 44.65Q48 39.6 47.05 35.3Q46.1 31.1 46.1 27.65Q50.45 27.75 55.65 29.2Q58.45 29.95 61.5 31.15Q59.95 19.5 62.05 14.8L62.75 6.8Q63.65 -14.1 55.15 -30.05L52.5 -34.65Q27.7 -64.7 -11.45 -60.05L-11.05 -54.15L-8.9 -20.4L-35 -27.15L-33 -12.35L-44.15 -18.4L-46.2 2.4L-56.4 -12.95L-58.2 -15.65Q-59.7 -7.95 -59.5 1.1L-58.7 6.8Q-57.45 13.5 -54.6 21.55Q-50.45 33.5 -44.35 41.95L-43.6 41.2L-23.35 21.35L-31.25 50.1L-32 52.9Q-19.45 58.45 -5.35 60.5M55.65,29.2L58.7 41.1L47.05 35.3M-56.4,-12.95Q-52.9 -28.4 -39 -42.05Q-26.1 -52.9 -11.05 -54.15M-43.6,41.2Q-38.7 46.35 -31.25 50.1" />
</g>
</svg>
