<?xml version="1.0" encoding="utf-8"?>
<svg version="1.1" id="Layer_1"
xmlns="http://www.w3.org/2000/svg"
xmlns:xlink="http://www.w3.org/1999/xlink"
xmlns:author="http://www.sothink.com"
width="126px" height="126px"
xml:space="preserve">
<g id="15336" transform="matrix(1, 0, 0, 1, 61.1, 61.9)">
<path style="fill:none;stroke-width:2.4;stroke-linecap:round;stroke-linejoin:round;stroke-miterlimit:3;stroke:#54453C;stroke-opacity:1" d="M8.75,62L13.5 62Q39.15 60.45 55.95 46.65Q63.35 40.5 62.6 25.1L63.05 11.9Q64.35 -11.7 53.9 -33.75Q48.9 -42.8 37.45 -49.9Q19.1 -60.85 -6.4 -60.7Q-16.25 -59.95 -25.05 -56.35L-26.55 -55.7Q-36.55 -51.35 -45.3 -43.25Q-60.5 -28.15 -59.85 -0.85L-59.6 1.1Q-57.45 18.1 -52.65 29.3Q-46.75 42.65 -33.7 50.75Q-20.1 58 -5.35 60.6" />
</g>
</svg>
