<?xml version="1.0" encoding="utf-8"?>
<svg version="1.1" id="Layer_1"
xmlns="http://www.w3.org/2000/svg"
xmlns:xlink="http://www.w3.org/1999/xlink"
xmlns:author="http://www.sothink.com"
width="124px" height="123px"
xml:space="preserve">
<g id="15251" transform="matrix(1, 0, 0, 1, 60.15, 61.15)">
<path style="fill:#FFE7D4;fill-opacity:1" d="M63.1,20.85Q65.8 40.95 51.45 51.25Q35.8 62.65 8.75 61.2L8.7 61.2Q3 61.35 -5.35 59.7L-14.65 57.55L-23.55 55Q-35.75 49.9 -41.85 44.9Q-49.4 35.5 -54.5 21.3L-55.2 19.45Q-58.05 11.4 -59.3 4.65L-60.1 -1.1Q-60.75 -28.4 -45.55 -43.5Q-36.15 -52.15 -25.3 -56.5L-24.05 -57Q-7.9 -63.25 11.55 -60.05Q21.65 -57.65 29.55 -54.35L29.6 -54.3Q48.45 -45.15 54.6 -32.15Q63.1 -16.2 62.2 4.65Q62.05 8.1 63.1 20.85" />
</g>
</svg>
