<?xml version="1.0" encoding="utf-8"?>
<svg version="1.1" id="Layer_1"
xmlns="http://www.w3.org/2000/svg"
xmlns:xlink="http://www.w3.org/1999/xlink"
xmlns:author="http://www.sothink.com"
width="126px" height="115px"
xml:space="preserve">
<g id="15268" transform="matrix(1, 0, 0, 1, 61.95, 57.25)">
<path style="fill:#FFE7D4;fill-opacity:1" d="M-48.4,-49.85Q-45.1 -52.25 -38.5 -54Q-31.65 -55.85 -21.3 -57Q4.1 -57.9 35.75 -55.35Q48.15 -53.05 54.1 -48.95Q59.05 -43.8 62.05 -26.95Q65.3 -4.75 62.05 31.55Q59.6 49.75 44.25 53Q27.15 56.7 8.75 57.5Q1.8 57.75 -5.35 57.65L-33 55.75L-37.15 55.2Q-51.35 51.5 -56 42.4Q-61.65 23.75 -61.95 5.05Q-60.6 -38.25 -48.4 -49.85" />
</g>
</svg>
