<?xml version="1.0" encoding="utf-8"?>
<svg version="1.1" id="Layer_1"
xmlns="http://www.w3.org/2000/svg"
xmlns:xlink="http://www.w3.org/1999/xlink"
xmlns:author="http://www.sothink.com"
width="141px" height="122px"
xml:space="preserve">
<g id="15274" transform="matrix(1, 0, 0, 1, 68.2, 60.55)">
<path style="fill:#FFE7D4;fill-opacity:1" d="M-48.6,41.3Q-54.65 38.15 -58.45 34.85L-56.45 32.25Q-66.65 27.15 -66.8 23.3Q-63.95 21.65 -61.9 18.95Q-66.4 15.5 -68.2 12Q-63.25 6.75 -59.65 -0.8L-60.05 -7.15L-59.55 -12.75Q-58.8 -18.8 -57.05 -24.1Q-53.45 -35.15 -45.6 -42.95Q-37.1 -50.75 -27.45 -55L-25.35 -55.95Q-8.7 -62.75 11.5 -59.5Q21.6 -57.1 29.5 -53.8L29.55 -53.75Q48.4 -44.55 54.55 -31.6L56.35 -27.95Q57.95 -24.4 59.15 -20.7Q61.1 -14.55 61.85 -7.9L70.95 1.7Q69.55 5.7 65.75 10.05Q70.45 13.4 72.3 16.4Q70.85 21.15 65.15 25.5Q70.2 28.95 72.3 31.45L71.65 32.5Q69.15 35.85 64.1 38.2Q66.6 40.1 67.15 41.8Q63.65 44.9 56.1 47.3L51.6 50.8L46.7 53.9Q30.5 63 8.75 61.15L8.65 61.15L-5.35 60.25Q-11.35 59.4 -16.75 57.85L-22.3 56Q-31.3 58.6 -38.55 52.85Q-37.9 51.45 -34.95 50.1Q-38.25 48.35 -40.95 46.65L-42.85 45.4L-46.8 42.25L-48.6 41.3" />
</g>
</svg>
