<?xml version="1.0" encoding="utf-8"?>
<svg version="1.1" id="Layer_1"
xmlns="http://www.w3.org/2000/svg"
xmlns:xlink="http://www.w3.org/1999/xlink"
xmlns:author="http://www.sothink.com"
width="133px" height="129px"
xml:space="preserve">
<g id="15260" transform="matrix(1, 0, 0, 1, 63.15, 61.05)">
<path style="fill:#FFE7D4;fill-opacity:1" d="M62.45,7.55Q64 22.25 68.75 36.6Q69.85 40.05 68 43.1Q65 46.65 57.55 50.2L22.75 67.5Q15.5 67.9 8.75 67.55L-5.35 65.9L-11.9 64.45Q-30.95 59.45 -44.65 46.95Q-61.45 26.65 -63.15 -1.2Q-62.9 -29.15 -44.85 -43.65Q-36.25 -51.55 -26.4 -55.8L-24.9 -56.45Q-8.25 -63.25 11.95 -60Q22.05 -57.55 30 -54.25L30.05 -54.2Q48.85 -45.05 55 -32.1Q63.5 -16.15 62.6 4.7L62.45 7.55" />
</g>
</svg>
