<?xml version="1.0" encoding="utf-8"?>
<svg version="1.1" id="Layer_1"
xmlns="http://www.w3.org/2000/svg"
xmlns:xlink="http://www.w3.org/1999/xlink"
xmlns:author="http://www.sothink.com"
width="123px" height="129px"
xml:space="preserve">
<g id="15277" transform="matrix(1, 0, 0, 1, 60.15, 60.55)">
<path style="fill:#FFE7D4;fill-opacity:1" d="M49.4,52L46.75 53.4Q46.2 59.2 43.4 60.65Q39.95 61.65 40.4 56.15Q28.8 60.55 14.75 61.25L8.75 60.95L-1.7 60Q-1.95 67.25 -5.35 67.65L-5.95 67.65Q-10.8 66.75 -9.55 58.9L-15.9 57.55Q-17.1 61.3 -21.05 61.05Q-26.7 59.55 -26.5 54L-30.45 52Q-30.65 58.35 -35.25 59.15Q-39.85 59.8 -41.55 44.3L-44.5 40.95Q-50.9 32.35 -55.2 20Q-58.05 12 -59.3 5.2L-60.1 -0.45Q-60.75 -27.8 -45.55 -42.9Q-37.05 -50.7 -27.4 -55L-25.35 -55.95Q-8.65 -62.75 11.55 -59.5Q21.65 -57.05 29.55 -53.75L29.6 -53.7Q48.45 -44.55 54.6 -31.55Q63.1 -15.65 62.2 5.2L61.5 13.25Q59.4 17.95 60.7 30.6Q62 43.25 57.25 52Q52.5 57.8 49.4 52" />
</g>
</svg>
