<?xml version="1.0" encoding="utf-8"?>
<svg version="1.1" id="Layer_1"
xmlns="http://www.w3.org/2000/svg"
xmlns:xlink="http://www.w3.org/1999/xlink"
xmlns:author="http://www.sothink.com"
width="125px" height="129px"
xml:space="preserve">
<g id="15329" transform="matrix(1, 0, 0, 1, 61.35, 61.75)">
<path style="fill:none;stroke-width:2.4;stroke-linecap:round;stroke-linejoin:round;stroke-miterlimit:3;stroke:#54453C;stroke-opacity:1" d="M8.7,64.25L21.8 65.45Q28.25 64.7 34.55 62.15Q46.7 57.15 58.4 45.3Q62.35 39.45 60.95 29.3Q59.5 19.1 61.6 14.35Q64.8 -11.95 54.7 -31.15Q48.55 -44.3 29.7 -53.65L29.65 -53.7Q21.7 -57.05 11.6 -59.5Q-8.6 -62.8 -25.3 -55.9Q-36.15 -51.4 -45.55 -42.65Q-60.75 -27.35 -60.1 0.4Q-59.5 7.25 -57 15.55L-55.35 20.75L-55.2 21.2Q-51.05 33.3 -44.9 41.85Q-44.3 44.25 -40.6 48.15Q-36.9 52 -21.4 57.75Q-14.6 60.25 -5.4 62.05" />
</g>
</svg>
