<?xml version="1.0" encoding="utf-8"?>
<svg version="1.1" id="Layer_1"
xmlns="http://www.w3.org/2000/svg"
xmlns:xlink="http://www.w3.org/1999/xlink"
xmlns:author="http://www.sothink.com"
width="125px" height="134px"
xml:space="preserve">
<g id="15340" transform="matrix(1, 0, 0, 1, 60.9, 62.25)">
<path style="fill:none;stroke-width:2.4;stroke-linecap:round;stroke-linejoin:round;stroke-miterlimit:3;stroke:#54453C;stroke-opacity:1" d="M8.75,68.55L16 69.7Q38 63.2 54.05 52.05Q59.4 30.9 62.45 8L62.65 4.8Q63.55 -16.15 55.05 -32Q48.9 -45 30.1 -54.2L30.05 -54.25Q22.1 -57.55 12 -59.95Q-6.55 -63 -22.1 -57.45L-24.85 -56.4Q-35.7 -52.05 -45.1 -43.35Q-60.3 -28.3 -59.65 -0.95L-58.85 4.8Q-57.9 9.9 -56 15.8Q-51.85 30.3 -41.85 45.3Q-30.65 55.4 -15.65 61.6Q-10.7 63.6 -5.35 65.2" />
</g>
</svg>
