<?xml version="1.0" encoding="utf-8"?>
<svg version="1.1" id="Layer_1"
xmlns="http://www.w3.org/2000/svg"
xmlns:xlink="http://www.w3.org/1999/xlink"
xmlns:author="http://www.sothink.com"
width="125px" height="129px"
xml:space="preserve">
<g id="15345" transform="matrix(1, 0, 0, 1, 61, 62.15)">
<path style="fill:none;stroke-width:2.4;stroke-linecap:round;stroke-linejoin:round;stroke-miterlimit:3;stroke:#54453C;stroke-opacity:1" d="M8.75,63.95L18.05 65Q33.2 61.6 45.15 54.85Q59.7 45.75 58.75 33.15Q57.9 23.35 60.35 15.65Q62.4 8.2 62.55 4.8Q63.45 -16.05 54.95 -32Q48.8 -44.95 29.95 -54.15L29.9 -54.2Q22 -57.5 11.9 -59.9Q-8.15 -63.1 -24.65 -56.45L-24.95 -56.35Q-35.8 -52 -45.2 -43.35Q-60.4 -28.25 -59.75 -0.9L-58.95 4.8Q-57.7 11.55 -54.85 19.6Q-50.55 31.9 -44.15 40.5L-41.2 43.85Q-30.9 53.6 -13.4 59.1L-5.35 61.3" />
</g>
</svg>
