<?xml version="1.0" encoding="UTF-8" standalone="no"?>
<svg xmlns:ffdec="https://www.free-decompiler.com/flash" xmlns:xlink="http://www.w3.org/1999/xlink" ffdec:objectType="shape" height="28.65px" width="62.95px" xmlns="http://www.w3.org/2000/svg">
  <g transform="matrix(1.0, 0.0, 0.0, 1.0, 33.8, 2.35)">
    <path d="M2.2 1.85 Q17.25 1.0 18.75 -2.35 22.55 2.45 25.95 9.95 28.0 14.45 29.15 19.1 L25.1 21.5 Q22.85 22.75 20.9 22.75 L18.85 22.55 21.4 24.05 11.85 25.45 11.5 25.5 10.95 25.55 Q7.9 25.35 5.5 24.6 L5.5 24.65 3.0 24.2 5.7 26.25 -0.45 26.3 -2.7 26.25 -8.8 25.0 Q-10.75 24.55 -12.15 23.45 L-9.9 26.2 Q-17.35 25.15 -23.5 21.75 L-25.05 20.85 Q-25.3 22.0 -23.45 24.05 -31.2 21.7 -33.8 19.05 -31.7 13.7 -28.9 8.9 -25.6 3.15 -21.45 -1.45 -18.25 1.8 2.2 1.85" fill="#3f3f3f" fill-rule="evenodd" stroke="none"/>
  </g>
</svg>
