<?xml version="1.0" encoding="utf-8"?>
<svg version="1.1" id="Layer_1"
xmlns="http://www.w3.org/2000/svg"
xmlns:xlink="http://www.w3.org/1999/xlink"
xmlns:author="http://www.sothink.com"
width="65px" height="34px"
xml:space="preserve">
<g id="11028" transform="matrix(1, 0, 0, 1, 34.55, 6.1)">
<path style="fill:#3F3F3F;fill-opacity:1" d="M18.85,22.65L20.9 22.85L21.4 24.15L18.85 22.65M3,24.3L5.5 24.75L5.6 25.3L5.6 25.35L5.75 26.35L5.7 26.35L3 24.3M-12.15,23.55Q-10.75 24.65 -8.8 25.1L-9.7 26.3L-9.9 26.3L-12.15 23.55M-23.5,21.85L-23.45 24.15Q-25.3 22.1 -25.05 20.95L-23.5 21.85" />
<path style="fill:none;stroke-width:1.5;stroke-linecap:round;stroke-linejoin:round;stroke-miterlimit:3;stroke:#000000;stroke-opacity:1" d="M-23.45,24.15Q-31.2 21.8 -33.8 19.15Q-31.7 13.8 -28.9 9Q-25.6 3.25 -21.45 -1.35L-21.5 -1.4Q-21.3 -3.15 -20.05 -4.4Q-16.55 -1 2.25 -1.25Q16.25 -2.15 17.2 -5.35Q18.45 -4.1 18.75 -2.3L18.75 -2.25Q22.55 2.55 25.95 10.05Q28 14.55 29.15 19.2L25.1 21.6Q22.85 22.85 20.9 22.85L21.4 24.15L11.85 25.55L11.5 25.6L10.95 25.65Q7.9 25.45 5.5 24.7L5.5 24.75L5.6 25.3L5.6 25.35L5.75 26.35L5.7 26.35L-0.45 26.4L-2.7 26.35L-8.8 25.1L-9.7 26.3L-9.9 26.3Q-17.35 25.25 -23.5 21.85L-23.45 24.15Q-25.3 22.1 -25.05 20.95M21.4,24.15L18.85 22.65L20.9 22.85M3,24.3L5.5 24.75M5.6,25.35L5.55 25.3L5.6 25.3M3,24.3L5.7 26.35M-12.15,23.55Q-10.75 24.65 -8.8 25.1M-23.5,21.85L-25.05 20.95M-12.15,23.55L-9.9 26.3" />
<path style="fill:none;stroke-width:1.4;stroke-linecap:round;stroke-linejoin:round;stroke-miterlimit:3;stroke:#000000;stroke-opacity:0.498039" d="M-25.05,20.95L-18.25 5.2M14.6,3.2L18.75 22.6L18.85 22.65M4.8,4.45L3 24.3M-7.5,5.2L-12.2 23.45L-12.15 23.55M-21.45,-1.35Q-18.25 1.9 2.2 1.95Q17.25 1.1 18.75 -2.25" />
</g>
</svg>
