<?xml version="1.0" encoding="UTF-8" standalone="no"?>
<svg xmlns:ffdec="https://www.free-decompiler.com/flash" xmlns:xlink="http://www.w3.org/1999/xlink" ffdec:objectType="shape" height="62.8px" width="80.6px" xmlns="http://www.w3.org/2000/svg">
  <g transform="matrix(1.0, 0.0, 0.0, 1.0, 80.35, 42.45)">
    <path d="M-44.8 -23.0 L-44.25 -24.55 -48.0 -26.4 Q-45.25 -28.35 -40.45 -26.8 -42.7 -29.85 -42.9 -32.7 -39.85 -27.45 -32.4 -25.2 L-34.95 -28.65 Q-25.8 -25.2 -19.65 -28.8 L-8.35 -40.25 Q-5.95 -42.8 -4.2 -40.25 -3.0 -38.25 -2.2 -35.85 -0.15 -29.8 -0.8 -21.15 -2.35 -10.2 -5.3 -17.7 -6.05 -9.55 -8.9 -8.45 -9.85 -8.5 -11.05 -16.65 -9.9 -3.2 -13.75 -0.3 -15.05 -0.4 -16.4 -5.4 -16.5 5.95 -19.05 6.7 -22.5 6.4 -22.9 -5.5 -31.25 17.05 -40.15 19.45 -41.65 19.25 -33.75 0.65 -41.35 14.4 -50.4 17.2 -55.35 18.95 -52.95 14.8 -48.7 7.65 -44.4 -2.35 -54.0 11.85 -65.8 16.1 -72.95 18.35 -70.05 13.3 -64.8 5.2 -59.25 -1.6 -73.2 1.75 -79.25 -3.55 -80.2 -4.5 -76.85 -6.2 L-44.8 -23.0" fill="none" stroke="#000000" stroke-linecap="round" stroke-linejoin="round" stroke-width="1.8"/>
    <path d="M-44.8 -23.0 Q-45.75 -20.8 -47.6 -18.95 L-46.25 -19.2 Q-44.55 -19.75 -43.25 -20.95 L-45.45 -17.7 -39.85 -18.85 Q-41.05 -16.85 -40.45 -15.35 -38.4 -17.9 -35.8 -17.7 M-33.75 0.65 L-32.5 -2.25 Q-32.95 -3.0 -32.3 -5.35 L-30.55 -11.35 Q-35.35 -1.0 -42.15 2.3 -45.1 3.65 -44.25 0.55 L-39.3 -11.35 -42.05 -7.95 -44.4 -2.35 M-59.25 -1.6 L-58.65 -2.35 -46.25 -19.2 M-5.55 -31.95 Q-5.95 -22.8 -8.8 -31.05 -8.8 -22.45 -11.8 -21.3 -12.9 -21.95 -13.15 -25.6 -14.65 -16.65 -17.25 -16.45 -18.45 -16.7 -18.3 -20.6 -20.8 -10.35 -26.25 -5.5 -31.8 -0.55 -32.5 -2.25 M-24.4 -18.4 Q-26.1 -17.7 -25.55 -19.75 -27.1 -18.35 -28.85 -17.3 L-30.55 -11.35 M-32.05 -19.4 Q-31.8 -17.4 -33.25 -15.35 -30.9 -16.05 -28.85 -17.3 M-39.3 -11.35 L-39.3 -11.5 Q-37.8 -13.65 -36.75 -16.2 M-23.0 -7.25 L-22.9 -5.5 M-5.1 -22.1 L-5.3 -17.7 M-18.2 -22.65 L-18.3 -20.6 M-11.2 -18.05 L-11.05 -16.65 M-17.7 -10.65 L-16.4 -5.4 M-42.05 -7.95 Q-47.45 -2.35 -56.5 0.6 -61.65 1.85 -59.25 -1.6" fill="none" stroke="#000000" stroke-linecap="round" stroke-linejoin="round" stroke-opacity="0.49803922" stroke-width="1.0"/>
  </g>
</svg>
