<?xml version="1.0" encoding="UTF-8" standalone="no"?>
<svg xmlns:ffdec="https://www.free-decompiler.com/flash" xmlns:xlink="http://www.w3.org/1999/xlink" ffdec:objectType="shape" height="64.4px" width="36.65px" xmlns="http://www.w3.org/2000/svg">
  <g transform="matrix(1.0, 0.0, 0.0, 1.0, 23.9, 94.0)">
    <path d="M4.35 -78.55 Q-2.75 -89.5 -20.8 -93.0 -26.9 -76.15 -15.35 -64.25 -21.8 -47.95 -8.25 -46.6 -11.15 -39.0 -11.75 -30.6 L-2.05 -32.7 Q-0.6 -43.8 2.6 -54.8 7.8 -55.5 10.95 -67.5 14.15 -79.55 4.35 -78.55" fill="none" stroke="#000000" stroke-linecap="round" stroke-linejoin="round" stroke-width="2.0"/>
    <path d="M-7.4 -65.7 Q-0.35 -70.3 6.05 -68.05 L6.85 -68.9 Q7.25 -72.25 6.2 -75.2 L4.35 -78.55 M-8.25 -46.6 Q-4.35 -56.95 6.05 -68.05 M2.6 -54.8 Q4.05 -59.8 5.8 -64.75 L6.85 -68.9" fill="none" stroke="#000000" stroke-linecap="round" stroke-linejoin="round" stroke-opacity="0.49803922" stroke-width="2.0"/>
  </g>
</svg>
