<?xml version="1.0" encoding="UTF-8" standalone="no"?>
<svg xmlns:ffdec="https://www.free-decompiler.com/flash" xmlns:xlink="http://www.w3.org/1999/xlink" ffdec:objectType="shape" height="73.6px" width="66.15px" xmlns="http://www.w3.org/2000/svg">
  <g transform="matrix(1.0, 0.0, 0.0, 1.0, 43.75, 81.8)">
    <path d="M-6.05 -21.55 Q-11.75 -11.05 -21.65 -13.0 L-25.5 -14.8 Q-31.1 -18.0 -34.4 -23.65 -36.15 -26.3 -37.05 -29.1 -39.75 -36.5 -37.05 -44.6 -35.7 -49.15 -33.2 -53.35 -29.7 -59.5 -24.05 -64.55 -18.0 -69.3 -9.7 -69.85 L-8.65 -69.9 Q4.0 -70.3 13.75 -63.1 M-9.7 -69.85 Q-15.95 -60.4 -10.45 -50.2 M-37.05 -29.1 Q-29.2 -25.7 -23.0 -29.5 M-18.45 -22.55 Q-19.5 -17.25 -25.5 -14.8 M-10.45 -24.85 Q-9.7 -21.55 -6.05 -21.55 M-33.2 -53.35 Q-30.1 -42.4 -20.8 -40.9" fill="none" stroke="#000000" stroke-linecap="round" stroke-linejoin="round" stroke-opacity="0.49803922" stroke-width="1.0"/>
    <path d="M3.45 -51.85 Q-1.3 -52.9 -7.35 -51.7 L-10.45 -50.2 -16.2 -46.5 Q-19.0 -44.0 -20.8 -40.9 -22.55 -37.95 -23.05 -34.3 -23.5 -31.8 -23.0 -29.5 -22.55 -26.7 -20.65 -23.8 -19.65 -23.0 -18.45 -22.55 L-13.3 -22.25 -10.45 -24.85 -8.4 -26.25 Q-6.15 -26.15 -5.75 -23.65 L-6.05 -21.55 Q-6.9 -17.25 -9.9 -13.15 -12.8 -9.4 -19.75 -9.1 -29.85 -10.8 -37.05 -20.2 -44.55 -31.8 -42.35 -45.65 -39.4 -56.0 -32.35 -65.7 -23.5 -78.4 -5.25 -80.85 11.0 -81.35 21.5 -72.8" fill="none" stroke="#000000" stroke-linecap="round" stroke-linejoin="round" stroke-width="1.8"/>
  </g>
</svg>
