<?xml version="1.0" encoding="utf-8"?>
<svg version="1.1" id="Layer_1"
xmlns="http://www.w3.org/2000/svg"
xmlns:xlink="http://www.w3.org/1999/xlink"
xmlns:author="http://www.sothink.com"
width="92px" height="35px"
xml:space="preserve">
<g id="10976" transform="matrix(1, 0, 0, 1, 44.45, 12.8)">
<path style="fill:#2D213F;fill-opacity:1" d="M-4.95,-2.6Q-4.4 -3.15 -3.7 -3.4Q-4.65 -3.75 -5.35 -4.45L-5.3 -4.45Q-6.75 -5.8 -6.75 -7.75Q-6.75 -9.65 -5.3 -11L-5.35 -10.95Q-4.05 -12.3 -2.15 -12.3Q-0.25 -12.3 1.1 -10.95Q2.4 -9.65 2.4 -7.75Q2.4 -5.8 1.1 -4.45L-0.55 -3.4Q0.2 -3.15 0.75 -2.55Q1.85 -1.5 1.85 0.3L1.85 17.65Q1.85 19.45 0.75 20.55Q-0.35 21.65 -2.15 21.65Q-3.8 21.65 -4.95 20.6L-5 20.55Q-6.15 19.45 -6.15 17.65L-6.15 0.3Q-6.15 -1.5 -5 -2.55L-4.95 -2.6M31.4,-3.05Q33.55 -3.85 35.95 -3.85Q38.95 -3.85 41.3 -2.85L41.25 -2.85Q43.8 -1.85 45.25 0L45.15 -0.1Q46.25 1.15 46.2 2.5Q46.3 4.05 44.75 5.3L44.7 5.3Q43.85 6 42.45 6Q40.65 6 39.3 4.8L38 3.95L35.85 3.65Q34.65 3.65 33.9 4L33.85 4.05L33.75 3.95L33.8 4.05L34.4 4.35L37.2 5.15Q42.1 6.15 44.15 7.95L44.2 7.95Q46.6 10.1 46.6 13.4Q46.6 15.8 45.35 17.75Q44.05 19.7 41.6 20.8L41.55 20.8Q39.3 21.8 36.2 21.8Q33.25 21.8 30.6 20.9Q27.75 19.85 26.2 18.3L26.15 18.3Q25.1 17.25 25.05 15.8L24.15 17.75Q22.85 19.7 20.4 20.8L20.35 20.8Q18.1 21.8 15 21.8Q12.05 21.8 9.4 20.9Q6.55 19.85 5 18.3L4.95 18.3Q3.85 17.2 3.85 15.65Q3.85 13.7 5.45 12.5L5.5 12.5Q6.8 11.55 8 11.6Q9.55 11.55 10.85 12.8L11.05 13L12.45 13.85L14.85 14.3L17.25 13.85L17.3 13.85L17.55 13.6L17.25 13.25L17.3 13.25Q16.25 12.6 13.9 12.2Q4.45 10.4 4.75 4.05Q4.75 1.4 6.4 -0.5Q7.8 -2.2 10.15 -3.05L10.2 -3.05Q12.35 -3.85 14.75 -3.85Q17.75 -3.85 20.1 -2.85L20.05 -2.85Q22.6 -1.85 24.05 0L23.95 -0.1Q25.05 1.15 25 2.5Q25.1 4.05 23.55 5.3L23.5 5.3Q22.65 6 21.25 6Q19.45 6 18.1 4.8Q17.45 4.2 16.8 3.95L14.65 3.65Q13.45 3.65 12.7 4L12.65 4.05L12.55 3.95L12.6 4.05L13.2 4.35L16 5.15Q20.9 6.15 22.95 7.95L23 7.95Q25.4 10.1 25.4 13.4L25.4 14.05Q25.75 13.15 26.65 12.5L26.7 12.5Q28 11.55 29.2 11.6Q30.75 11.55 32.05 12.8L32.25 13Q32.7 13.45 33.65 13.85L36.05 14.3L38.45 13.85L38.5 13.85L38.75 13.6L38.45 13.25L38.5 13.25Q37.45 12.6 35.1 12.2Q25.65 10.4 25.95 4.05Q25.95 1.4 27.6 -0.5Q29 -2.2 31.35 -3.05L31.4 -3.05M-44.45,-8.8Q-44.45 -10.5 -43.25 -11.65Q-42.15 -12.8 -40.45 -12.8Q-38.15 -12.85 -36.85 -10.7L-36.8 -10.6L-27.05 8.95L-17.55 -10.55L-17.5 -10.65Q-16.3 -12.85 -14 -12.8Q-12.2 -12.8 -11.1 -11.65Q-9.95 -10.5 -9.95 -8.8L-9.95 17.65Q-9.95 19.4 -11.2 20.55L-11.1 20.5Q-12.3 21.65 -14 21.65Q-15.65 21.65 -16.75 20.55L-16.85 20.4Q-18 19.3 -18 17.65L-18 6.85L-23.65 18.35L-23.75 18.5Q-25 20.55 -27.2 20.5Q-29.75 20.55 -30.9 18.15L-36.4 7.15L-36.4 17.65Q-36.4 19.3 -37.5 20.4Q-38.65 21.65 -40.45 21.65Q-42.1 21.65 -43.2 20.55L-43.3 20.4Q-44.45 19.3 -44.45 17.65L-44.45 -8.8" />
<path style="fill:#DE80B3;fill-opacity:1" d="M15,19.8Q12.4 19.8 10.05 19Q7.7 18.15 6.35 16.85Q5.85 16.35 5.85 15.65Q5.85 14.7 6.65 14.1Q7.35 13.6 8 13.6Q8.8 13.6 9.5 14.25Q10.2 15.1 11.7 15.7Q13.2 16.3 14.85 16.3Q17.1 16.3 18.3 15.55Q19.55 14.8 19.55 13.6Q19.55 12.35 18.35 11.55Q17.1 10.75 14.25 10.2Q6.75 8.8 6.75 4.05Q6.75 2.15 7.9 0.8Q9 -0.5 10.85 -1.2L14.75 -1.85Q17.3 -1.85 19.3 -1Q21.3 -0.2 22.45 1.25Q23 1.85 23 2.5Q23 3.15 22.3 3.7L21.25 4Q20.2 4 19.4 3.25Q18.4 2.4 17.35 2L14.65 1.65Q12.85 1.65 11.75 2.25Q10.55 2.85 10.55 3.95Q10.55 4.7 10.95 5.25Q11.35 5.75 12.45 6.2Q13.55 6.65 15.6 7.1Q19.85 7.95 21.65 9.45Q23.4 11 23.4 13.4Q23.4 15.2 22.45 16.65Q21.45 18.15 19.55 18.95Q17.65 19.8 15 19.8M36.2,19.8Q33.6 19.8 31.25 19Q28.9 18.15 27.55 16.85Q27.05 16.35 27.05 15.65Q27.05 14.7 27.85 14.1Q28.55 13.6 29.2 13.6Q30 13.6 30.7 14.25Q31.4 15.1 32.9 15.7Q34.4 16.3 36.05 16.3Q38.3 16.3 39.5 15.55Q40.75 14.8 40.75 13.6Q40.75 12.35 39.55 11.55Q38.3 10.75 35.45 10.2Q27.95 8.8 27.95 4.05Q27.95 2.15 29.1 0.8Q30.2 -0.5 32.05 -1.2L35.95 -1.85Q38.5 -1.85 40.5 -1Q42.5 -0.2 43.65 1.25Q44.2 1.85 44.2 2.5Q44.2 3.15 43.5 3.7L42.45 4Q41.4 4 40.6 3.25L38.55 2L35.85 1.65Q34.05 1.65 32.95 2.25Q31.75 2.85 31.75 3.95Q31.75 4.7 32.15 5.25L33.65 6.2L36.8 7.1Q41.05 7.95 42.85 9.45Q44.6 11 44.6 13.4Q44.6 15.2 43.65 16.65Q42.65 18.15 40.75 18.95Q38.85 19.8 36.2 19.8M-14,-10.8Q-13.1 -10.8 -12.55 -10.25Q-11.95 -9.65 -11.95 -8.8L-11.95 17.65Q-11.95 18.5 -12.55 19.05Q-13.15 19.65 -14 19.65Q-14.85 19.65 -15.4 19.05Q-16 18.5 -16 17.65L-16 -1.75L-25.45 17.45Q-26.1 18.5 -27.2 18.5Q-28.5 18.5 -29.1 17.25L-38.4 -1.4L-38.4 17.65Q-38.4 18.5 -39 19.05Q-39.55 19.65 -40.45 19.65Q-41.3 19.65 -41.85 19.05Q-42.45 18.5 -42.45 17.65L-42.45 -8.8Q-42.45 -9.65 -41.85 -10.25Q-41.3 -10.8 -40.45 -10.8Q-39.25 -10.8 -38.6 -9.7L-27.05 13.5L-15.75 -9.7Q-15.15 -10.8 -14 -10.8M-2.15,19.65Q-3 19.65 -3.6 19.1Q-4.15 18.55 -4.15 17.65L-4.15 0.3Q-4.15 -0.6 -3.6 -1.15Q-3 -1.7 -2.15 -1.7Q-1.25 -1.7 -0.7 -1.15Q-0.15 -0.6 -0.15 0.3L-0.15 17.65Q-0.15 18.55 -0.7 19.1Q-1.25 19.65 -2.15 19.65M-2.15,-5.15Q-3.2 -5.15 -3.95 -5.9Q-4.75 -6.65 -4.75 -7.75Q-4.75 -8.8 -3.95 -9.55Q-3.2 -10.3 -2.15 -10.3Q-1.1 -10.3 -0.35 -9.55Q0.4 -8.8 0.4 -7.75Q0.4 -6.65 -0.35 -5.9Q-1.1 -5.15 -2.15 -5.15" />
</g>
</svg>
