<?xml version="1.0" encoding="utf-8"?>
<svg version="1.1" id="Layer_1"
xmlns="http://www.w3.org/2000/svg"
xmlns:xlink="http://www.w3.org/1999/xlink"
xmlns:author="http://www.sothink.com"
width="89px" height="57px"
xml:space="preserve">
<g id="11047" transform="matrix(1, 0, 0, 1, 42.95, 25.85)">
<path style="fill:#1F1B2E;fill-opacity:1" d="M11.1,-23Q11.1 -24.25 11.95 -25.05L12 -25.1Q12.8 -25.85 13.95 -25.85L25.7 -25.85Q26.95 -25.85 27.7 -25.05Q28.5 -24.3 28.5 -23.1Q28.5 -21.9 27.7 -21.15Q26.95 -20.35 25.7 -20.35L16.8 -20.35L16.8 -17.05L22.75 -17.05Q24 -17.05 24.75 -16.25L24.7 -16.3Q25.6 -15.55 25.6 -14.3Q25.6 -13.05 24.7 -12.25L24.75 -12.35Q24 -11.55 22.75 -11.55L16.8 -11.55L16.8 -8.05L25.7 -8.05Q26.95 -8.05 27.7 -7.25Q28.5 -6.5 28.5 -5.3Q28.5 -4.1 27.7 -3.35Q26.95 -2.55 25.7 -2.55L13.95 -2.55Q12.8 -2.55 11.95 -3.4L12 -3.3Q11.1 -4.1 11.1 -5.4L11.1 -23M30.15,-25Q31 -25.85 32.1 -25.85Q33.35 -25.85 34.15 -25L34.1 -25.05Q35 -24.3 35 -23L35 -8.25L42.9 -8.25Q44.05 -8.25 44.9 -7.4L44.85 -7.45Q45.75 -6.7 45.75 -5.4Q45.75 -4.1 44.85 -3.3L44.9 -3.4Q44.05 -2.55 42.9 -2.55L32.1 -2.55Q30.95 -2.55 30.1 -3.4Q29.3 -4.15 29.3 -5.4L29.3 -23Q29.3 -24.3 30.2 -25.05L30.15 -25M5.7,-24.15L6.6 -25.35L6.85 -25.55L8.25 -25.85Q9.55 -25.85 10.2 -25.1L10.15 -25.2Q11 -24.45 11 -23.25L10.75 -22L10.75 -21.95L3.05 -4.3Q2.3 -2.55 0.4 -2.55Q-1.3 -2.5 -2.15 -4.25L-2.15 -4.3L-9.6 -21.2L-9.65 -21.15Q-10.4 -20.35 -11.65 -20.35L-20.55 -20.35L-20.55 -17.05L-14.6 -17.05Q-13.35 -17.05 -12.6 -16.25L-12.65 -16.3Q-11.75 -15.55 -11.75 -14.3Q-11.75 -13.05 -12.65 -12.25L-12.6 -12.35Q-13.35 -11.55 -14.6 -11.55L-20.55 -11.55L-20.55 -8.05L-11.65 -8.05Q-10.4 -8.05 -9.65 -7.25Q-8.85 -6.5 -8.85 -5.3Q-8.85 -4.1 -9.65 -3.35Q-10.4 -2.55 -11.65 -2.55L-23.4 -2.55Q-24.55 -2.55 -25.4 -3.4L-25.35 -3.3Q-26.25 -4.1 -26.25 -5.4L-26.25 -23Q-26.25 -24.25 -25.4 -25.05L-25.35 -25.1Q-24.55 -25.85 -23.4 -25.85L-11.65 -25.85Q-10.4 -25.85 -9.65 -25.05L-9.55 -24.95L-9.25 -25.2L-9.35 -25.1Q-8.7 -25.85 -7.4 -25.85Q-5.5 -25.85 -4.75 -24.15L-4.75 -24.1L0.4 -11.7L5.7 -24.1L5.7 -24.15M23.9,9.6L23.9 22.4Q23.9 23.45 23.2 24.25L23.35 24.35L23.4 24.4Q24.4 25.4 24.4 26.75Q24.4 28.1 23.4 29.1L23.35 29.15Q22.35 30.05 21.1 30.05Q19.7 30.05 18.8 29.1Q17.8 28.1 17.8 26.75Q17.8 25.4 18.8 24.4L18.95 24.25Q18.25 23.45 18.25 22.4L18.25 9.6Q18.25 8.3 19.15 7.55L19.1 7.6Q19.95 6.75 21.1 6.75Q22.25 6.75 23.1 7.6Q23.9 8.35 23.9 9.6M12.9,7.8Q14.75 8.85 15.85 10.8L15.8 10.75Q16.85 12.55 16.85 15Q16.85 17.25 15.8 19.1Q14.75 21 12.85 22L12.9 22Q11 23 8.7 23L6.35 23L6.35 27.2Q6.35 28.45 5.55 29.2Q4.75 30.05 3.5 30.05Q2.35 30.05 1.5 29.2L1.55 29.3Q0.65 28.5 0.65 27.2L0.65 9.6Q0.65 8.35 1.5 7.55L1.55 7.5Q2.35 6.75 3.5 6.75L8.7 6.75Q11 6.75 12.9 7.8M8.7,12.25L6.35 12.25L6.35 17.5L8.7 17.5Q9.8 17.5 10.55 16.8L10.6 16.8Q11.25 16.1 11.25 15Q11.25 13.8 10.55 13Q9.8 12.25 8.7 12.25M-42.95,-23Q-42.95 -24.3 -42.05 -25.05L-42.1 -25Q-41.25 -25.85 -40.15 -25.85Q-38.9 -25.85 -38.1 -25L-38.15 -25.05Q-37.25 -24.3 -37.25 -23L-37.25 -8.25L-29.35 -8.25Q-28.2 -8.25 -27.35 -7.4L-27.4 -7.45Q-26.5 -6.7 -26.5 -5.4Q-26.5 -4.1 -27.4 -3.3L-27.35 -3.4Q-28.2 -2.55 -29.35 -2.55L-40.15 -2.55Q-41.3 -2.55 -42.15 -3.4Q-42.95 -4.15 -42.95 -5.4L-42.95 -23M-7.2,9.6Q-7.2 8.35 -6.35 7.55Q-5.6 6.75 -4.35 6.75Q-3.2 6.75 -2.4 7.5L-2.25 7.6Q-1.55 8.4 -1.55 9.6L-1.55 21.75Q-1.55 24.25 -2.8 26.25Q-4.1 28.25 -6.35 29.4L-6.4 29.4Q-8.55 30.45 -11.3 30.45Q-14.1 30.45 -16.3 29.4L-16.35 29.4Q-18.7 28.25 -19.95 26.35Q-21.3 24.3 -21.3 21.75L-21.3 9.6Q-21.3 8.35 -20.45 7.55L-20.4 7.5Q-19.6 6.75 -18.45 6.75Q-17.25 6.75 -16.45 7.5L-16.3 7.6Q-15.6 8.4 -15.6 9.6L-15.6 21.75Q-15.6 22.65 -15.1 23.35L-13.65 24.55L-11.3 25L-9 24.55L-9.05 24.55Q-8.2 24.15 -7.7 23.4L-7.7 23.35Q-7.2 22.65 -7.2 21.75L-7.2 9.6" />
<linearGradient
id="LinearGradID_3956" gradientUnits="userSpaceOnUse" gradientTransform="matrix(0, 0.0126648, -0.0523071, 0, 1.4, -13.6)" spreadMethod ="pad" x1="-819.2" y1="0" x2="819.2" y2="0" >
<stop  offset="0" style="stop-color:#EDDBFF;stop-opacity:1" />
<stop  offset="1" style="stop-color:#FFFFFF;stop-opacity:1" />
</linearGradient>
<path style="fill:url(#LinearGradID_3956) " d="M13.95,-4.05Q13.4 -4.05 13 -4.45Q12.6 -4.8 12.6 -5.4L12.6 -23Q12.6 -23.6 13 -24Q13.4 -24.35 13.95 -24.35L25.7 -24.35Q26.3 -24.35 26.65 -24Q27 -23.65 27 -23.1Q27 -22.55 26.65 -22.2Q26.3 -21.85 25.7 -21.85L15.3 -21.85L15.3 -15.55L22.75 -15.55L23.7 -15.2Q24.1 -14.85 24.1 -14.3Q24.1 -13.75 23.7 -13.4Q23.35 -13.05 22.75 -13.05L15.3 -13.05L15.3 -6.55L25.7 -6.55Q26.3 -6.55 26.65 -6.2Q27 -5.85 27 -5.3Q27 -4.75 26.65 -4.4Q26.3 -4.05 25.7 -4.05L13.95 -4.05M8.25,-24.35L9.15 -24.05Q9.5 -23.75 9.5 -23.25L9.35 -22.55L1.65 -4.9Q1.3 -4.05 0.4 -4.05Q-0.4 -4.05 -0.8 -4.9L-8.45 -22.35L-8.65 -23.25Q-8.65 -23.75 -8.3 -24.05L-7.4 -24.35Q-6.5 -24.35 -6.15 -23.55L0.4 -7.85L7.05 -23.55L7.5 -24.2L8.25 -24.35M32.1,-4.05Q31.55 -4.05 31.15 -4.45Q30.8 -4.8 30.8 -5.4L30.8 -23Q30.8 -23.6 31.2 -23.95Q31.6 -24.35 32.1 -24.35Q32.7 -24.35 33.1 -23.95Q33.5 -23.6 33.5 -23L33.5 -6.75L42.9 -6.75Q43.45 -6.75 43.85 -6.35Q44.25 -6 44.25 -5.4Q44.25 -4.8 43.85 -4.45Q43.45 -4.05 42.9 -4.05L32.1 -4.05M-40.15,-4.05Q-40.7 -4.05 -41.1 -4.45Q-41.45 -4.8 -41.45 -5.4L-41.45 -23Q-41.45 -23.6 -41.05 -23.95Q-40.65 -24.35 -40.15 -24.35Q-39.55 -24.35 -39.15 -23.95Q-38.75 -23.6 -38.75 -23L-38.75 -6.75L-29.35 -6.75Q-28.8 -6.75 -28.4 -6.35Q-28 -6 -28 -5.4Q-28 -4.8 -28.4 -4.45Q-28.8 -4.05 -29.35 -4.05L-40.15 -4.05M-23.4,-4.05Q-23.95 -4.05 -24.35 -4.45Q-24.75 -4.8 -24.75 -5.4L-24.75 -23Q-24.75 -23.6 -24.35 -24Q-23.95 -24.35 -23.4 -24.35L-11.65 -24.35Q-11.05 -24.35 -10.7 -24Q-10.35 -23.65 -10.35 -23.1Q-10.35 -22.55 -10.7 -22.2Q-11.05 -21.85 -11.65 -21.85L-22.05 -21.85L-22.05 -15.55L-14.6 -15.55Q-14 -15.55 -13.65 -15.2Q-13.25 -14.85 -13.25 -14.3Q-13.25 -13.75 -13.65 -13.4Q-14 -13.05 -14.6 -13.05L-22.05 -13.05L-22.05 -6.55L-11.65 -6.55Q-11.05 -6.55 -10.7 -6.2Q-10.35 -5.85 -10.35 -5.3Q-10.35 -4.75 -10.7 -4.4Q-11.05 -4.05 -11.65 -4.05L-23.4 -4.05" />
<linearGradient
id="LinearGradID_3957" gradientUnits="userSpaceOnUse" gradientTransform="matrix(0, 0.013031, -0.026062, 0, 1.55, 19.4)" spreadMethod ="pad" x1="-819.2" y1="0" x2="819.2" y2="0" >
<stop  offset="0" style="stop-color:#EDDBFF;stop-opacity:1" />
<stop  offset="1" style="stop-color:#FFFFFF;stop-opacity:1" />
</linearGradient>
<path style="fill:url(#LinearGradID_3957) " d="M21.1,23.75Q20.55 23.75 20.15 23.35Q19.75 22.95 19.75 22.4L19.75 9.6Q19.75 9 20.15 8.65Q20.55 8.25 21.1 8.25Q21.65 8.25 22.05 8.65Q22.4 9 22.4 9.6L22.4 22.4Q22.4 22.95 22 23.35L21.1 23.75M3.5,28.55Q2.95 28.55 2.55 28.15Q2.15 27.8 2.15 27.2L2.15 9.6Q2.15 9 2.55 8.6Q2.95 8.25 3.5 8.25L8.7 8.25Q10.6 8.25 12.15 9.1Q13.65 9.95 14.5 11.5Q15.35 13 15.35 15Q15.35 16.85 14.5 18.35Q13.65 19.85 12.15 20.65Q10.6 21.5 8.7 21.5L4.85 21.5L4.85 27.2Q4.85 27.8 4.5 28.15Q4.1 28.55 3.5 28.55M8.7,19Q10.45 19 11.6 17.85Q12.75 16.75 12.75 15Q12.75 13.15 11.6 11.95Q10.45 10.75 8.7 10.75L4.85 10.75L4.85 19L8.7 19M21.1,28.55Q20.35 28.55 19.85 28.05Q19.3 27.5 19.3 26.75Q19.3 26 19.85 25.45Q20.35 24.95 21.1 24.95Q21.8 24.95 22.35 25.45Q22.9 26 22.9 26.75Q22.9 27.5 22.35 28.05Q21.8 28.55 21.1 28.55M-11.3,28.95Q-13.75 28.95 -15.7 28.05Q-17.65 27.1 -18.7 25.5Q-19.8 23.85 -19.8 21.75L-19.8 9.6Q-19.8 9 -19.4 8.6Q-19 8.25 -18.45 8.25Q-17.85 8.25 -17.45 8.6Q-17.1 9 -17.1 9.6L-17.1 21.75Q-17.1 23.1 -16.35 24.2Q-15.6 25.3 -14.3 25.9Q-13 26.5 -11.3 26.5Q-9.7 26.5 -8.4 25.9Q-7.15 25.3 -6.45 24.2Q-5.7 23.1 -5.7 21.75L-5.7 9.6Q-5.7 9 -5.3 8.6Q-4.95 8.25 -4.35 8.25Q-3.8 8.25 -3.4 8.6Q-3.05 9 -3.05 9.6L-3.05 21.75Q-3.05 23.8 -4.1 25.45Q-5.15 27.1 -7.05 28.05Q-8.9 28.95 -11.3 28.95" />
</g>
</svg>
