<?xml version="1.0" encoding="utf-8"?>
<svg version="1.1" id="Layer_1"
xmlns="http://www.w3.org/2000/svg"
xmlns:xlink="http://www.w3.org/1999/xlink"
xmlns:author="http://www.sothink.com"
width="37px" height="41px"
xml:space="preserve">
<g id="10848" transform="matrix(1, 0, 0, 1, 18.15, 21.05)">
<path style="fill:#D4CBFF;fill-opacity:1" d="M18.15,1Q18.15 8.5 12.85 13.85Q7.5 19.15 0 19.15Q-7.5 19.15 -12.85 13.85Q-18.15 8.5 -18.15 1L-18.15 0.35L-11 0.35L-11.05 1.05Q-11.05 5.6 -7.8 8.8Q-4.6 12.05 0 12.05Q4.55 12.05 7.8 8.8Q11.05 5.6 11.05 1.05Q11.05 -3.55 7.8 -6.75Q4.55 -10 0 -10L-0.15 -10L-0.15 -5.95L-11.05 -13.25L-0.15 -21.05L-0.15 -17.15L0 -17.15Q7.5 -17.15 12.85 -11.85Q18.15 -6.5 18.15 1" />
</g>
</svg>
