<?xml version="1.0" encoding="UTF-8" standalone="no"?>
<svg xmlns:ffdec="https://www.free-decompiler.com/flash" xmlns:xlink="http://www.w3.org/1999/xlink" ffdec:objectType="shape" height="72.75px" width="33.65px" xmlns="http://www.w3.org/2000/svg">
  <g transform="matrix(1.0, 0.0, 0.0, 1.0, 28.2, 49.25)">
    <path d="M5.45 6.0 Q-2.45 18.35 -16.9 23.5 -5.8 14.95 2.2 5.45 L2.2 6.4 5.45 6.0 M-1.25 -3.85 Q-18.2 -5.7 -27.05 -9.65 L-28.2 -10.15 0.45 -7.7 -1.25 -3.85 M-9.4 -23.8 L-1.15 -18.9 2.25 -13.1 -13.05 -18.5 -23.6 -26.15 -9.4 -23.8 M-2.5 -21.1 Q-9.1 -31.55 -18.45 -43.95 L-22.5 -49.25 Q-8.8 -37.4 0.6 -25.55 L2.55 -20.15 -2.5 -21.1 M4.55 -3.25 L3.1 -1.75 -10.5 3.7 -19.95 3.7 -11.95 -0.85 3.65 -3.3 4.55 -3.25" fill="#7a5bff" fill-rule="evenodd" stroke="none"/>
  </g>
</svg>
