<?xml version="1.0" encoding="UTF-8" standalone="no"?>
<svg xmlns:ffdec="https://www.free-decompiler.com/flash" xmlns:xlink="http://www.w3.org/1999/xlink" ffdec:objectType="shape" height="23.75px" width="25.25px" xmlns="http://www.w3.org/2000/svg">
  <g transform="matrix(1.0, 0.0, 0.0, 1.0, 19.6, -6.85)">
    <path d="M-6.5 19.05 Q-4.1 20.9 -3.0 16.65 -1.35 23.85 -4.7 24.6 -7.05 24.4 -6.5 19.05 M-19.25 6.85 Q-18.15 9.4 -17.0 7.1 L-16.85 8.2 Q-15.55 14.05 -18.0 14.05 -20.25 14.0 -19.35 7.85 L-19.25 6.85 M3.3 14.25 Q3.85 17.05 5.35 13.55 L5.3 14.25 Q6.4 20.25 4.2 20.3 2.45 19.75 3.3 14.25 M-3.65 28.3 Q-3.35 29.25 -3.9 29.9 -4.45 30.6 -5.25 30.6 -6.0 30.6 -6.6 29.9 -7.15 29.25 -6.95 28.4 L-6.3 26.85 Q-5.85 26.1 -5.2 26.05 -4.5 26.0 -4.25 26.7 L-3.65 28.3" fill="#ffffff" fill-rule="evenodd" stroke="none"/>
  </g>
</svg>
