<?xml version="1.0" encoding="UTF-8" standalone="no"?>
<svg xmlns:ffdec="https://www.free-decompiler.com/flash" xmlns:xlink="http://www.w3.org/1999/xlink" ffdec:objectType="shape" height="35.45px" width="35.55px" xmlns="http://www.w3.org/2000/svg">
  <g transform="matrix(1.0, 0.0, 0.0, 1.0, -14.05, 90.05)">
    <path d="M22.9 -60.95 Q20.5 -64.5 14.05 -69.4 20.35 -69.65 25.4 -71.65 32.3 -74.45 36.85 -80.4 39.9 -84.5 41.9 -90.05 49.15 -82.9 49.6 -71.65 47.85 -71.1 46.0 -72.15 46.55 -66.4 40.75 -59.85 41.2 -62.45 39.95 -64.25 39.4 -59.45 35.6 -58.35 31.8 -57.3 31.15 -59.95 31.4 -55.6 29.05 -54.8 26.65 -54.0 25.7 -56.7 24.7 -59.45 22.9 -60.95" fill="#7a5bff" fill-rule="evenodd" stroke="none"/>
  </g>
</svg>
