<?xml version="1.0" encoding="UTF-8" standalone="no"?>
<svg xmlns:ffdec="https://www.free-decompiler.com/flash" xmlns:xlink="http://www.w3.org/1999/xlink" ffdec:objectType="shape" height="82.35px" width="46.2px" xmlns="http://www.w3.org/2000/svg">
  <g transform="matrix(1.0, 0.0, 0.0, 1.0, 23.45, 102.85)">
    <path d="M-19.55 -90.75 Q-22.0 -96.8 -20.0 -102.85 -18.1 -97.8 -14.65 -92.9 L-12.0 -89.5 Q-0.8 -76.05 22.75 -64.25 L13.35 -57.85 12.3 -56.25 Q10.8 -54.45 8.8 -54.0 3.25 -37.45 1.95 -20.5 -4.95 -21.1 -8.4 -24.5 -5.4 -40.25 3.85 -54.95 -10.75 -35.7 -12.15 -31.25 -17.5 -33.6 -20.25 -36.65 -16.1 -43.6 -9.35 -50.35 -10.4 -52.05 -10.75 -53.8 -10.25 -55.05 -7.85 -56.3 L-8.05 -56.5 Q-9.75 -58.4 -11.1 -60.6 L-9.7 -61.8 Q-10.3 -63.1 -9.65 -64.45 -13.25 -64.8 -15.25 -66.75 L-13.2 -67.35 Q-16.05 -69.2 -17.25 -70.85 -18.35 -72.45 -20.55 -73.9 -18.75 -74.9 -16.45 -74.25 -21.4 -78.0 -23.45 -82.0 -21.1 -80.8 -18.35 -80.9 -22.9 -87.25 -23.0 -93.15 -22.35 -91.85 -19.55 -90.75" fill="#7a5bff" fill-rule="evenodd" stroke="none"/>
  </g>
</svg>
