<?xml version="1.0" encoding="UTF-8" standalone="no"?>
<svg xmlns:ffdec="https://www.free-decompiler.com/flash" xmlns:xlink="http://www.w3.org/1999/xlink" ffdec:objectType="shape" height="40.9px" width="46.35px" xmlns="http://www.w3.org/2000/svg">
  <g transform="matrix(1.0, 0.0, 0.0, 1.0, 38.6, 63.25)">
    <path d="M-29.2 -28.4 L-30.65 -27.4 Q-36.2 -28.15 -37.9 -31.8 -40.3 -41.35 -34.55 -47.95 -25.2 -54.55 -15.55 -48.25 -3.2 -35.4 -7.6 -22.85 -12.95 -21.35 -18.25 -24.25 L-20.35 -25.85 Q-24.45 -29.35 -26.8 -33.9 -27.6 -35.7 -28.05 -37.55 -29.4 -42.4 -29.05 -47.0 -32.85 -45.1 -34.7 -42.1 -35.8 -40.45 -36.3 -38.5 -36.7 -36.15 -36.15 -34.0 -35.75 -32.65 -34.95 -31.35 -32.85 -29.3 -29.2 -28.4 M-26.55 -59.7 L-25.8 -61.45 Q-18.25 -65.05 -6.9 -61.45 3.5 -57.45 7.75 -50.0 4.9 -47.25 1.2 -44.8 -2.95 -51.35 -10.85 -57.0 -18.55 -61.45 -26.55 -59.7" fill="#a44dff" fill-rule="evenodd" stroke="none"/>
  </g>
</svg>
