<?xml version="1.0" encoding="UTF-8" standalone="no"?>
<svg xmlns:ffdec="https://www.free-decompiler.com/flash" xmlns:xlink="http://www.w3.org/1999/xlink" ffdec:objectType="shape" height="11.3px" width="14.45px" xmlns="http://www.w3.org/2000/svg">
  <g transform="matrix(1.0, 0.0, 0.0, 1.0, 9.45, 49.85)">
    <path d="M2.7 -39.1 Q2.2 -39.7 1.85 -41.45 0.6 -39.45 -0.35 -38.8 -1.1 -38.3 -1.7 -38.8 -2.55 -39.6 -2.9 -42.75 -7.95 -41.85 -9.1 -46.2 -10.35 -50.55 -7.15 -49.7 -4.0 -48.75 -2.2 -49.3 L-1.95 -49.0 Q-0.75 -47.2 3.3 -47.55 3.3 -45.45 4.4 -45.25 5.25 -43.9 4.9 -41.45 4.0 -39.1 3.35 -38.8 L3.0 -38.8 2.7 -39.1" fill="#f8f8f8" fill-rule="evenodd" stroke="none"/>
  </g>
</svg>
