<?xml version="1.0" encoding="UTF-8" standalone="no"?>
<svg xmlns:ffdec="https://www.free-decompiler.com/flash" xmlns:xlink="http://www.w3.org/1999/xlink" ffdec:objectType="shape" height="44.95px" width="36.35px" xmlns="http://www.w3.org/2000/svg">
  <g transform="matrix(1.0, 0.0, 0.0, 1.0, 29.05, 57.0)">
    <path d="M-6.05 -21.55 Q-6.9 -17.25 -9.9 -13.15 L-10.9 -12.05 Q-13.1 -12.5 -15.05 -13.2 -25.8 -17.1 -29.0 -28.25 -29.9 -47.3 -14.3 -54.7 -3.7 -59.3 7.3 -54.7 L3.45 -51.85 Q-1.3 -52.9 -7.35 -51.7 L-10.45 -50.2 -16.2 -46.5 Q-19.0 -44.0 -20.8 -40.9 -22.55 -37.95 -23.05 -34.3 -23.5 -31.8 -23.0 -29.5 -22.55 -26.7 -20.65 -23.8 -19.65 -23.0 -18.45 -22.55 L-13.3 -22.25 -10.45 -24.85 -8.4 -26.25 Q-6.15 -26.15 -5.75 -23.65 L-6.05 -21.55" fill="#a44dff" fill-rule="evenodd" stroke="none"/>
  </g>
</svg>
