<?xml version="1.0" encoding="UTF-8" standalone="no"?>
<svg xmlns:ffdec="https://www.free-decompiler.com/flash" xmlns:xlink="http://www.w3.org/1999/xlink" ffdec:objectType="shape" height="19.15px" width="86.65px" xmlns="http://www.w3.org/2000/svg">
  <g transform="matrix(1.0, 0.0, 0.0, 1.0, 13.6, 17.85)">
    <path d="M5.3 -2.65 L7.7 -11.1 5.3 -2.65 M8.5 -2.45 L11.15 -11.15 8.5 -2.45 M11.95 -3.4 L13.85 -10.65 11.95 -3.4 M15.55 -5.35 L17.2 -10.55 15.55 -5.35 M1.7 -3.2 L5.0 -11.7 1.7 -3.2 M26.6 -8.05 Q26.6 -4.15 20.7 -1.4 14.85 1.3 6.5 1.3 -1.85 1.3 -7.75 -1.4 -13.6 -4.15 -13.6 -8.05 -13.6 -11.95 -7.75 -14.7 -1.85 -17.45 6.5 -17.45 14.85 -17.45 20.7 -14.7 26.6 -11.95 26.6 -8.05 M-1.0 -4.6 L1.4 -10.7 -1.0 -4.6" fill="url(#gradient0)" fill-rule="evenodd" stroke="none"/>
    <path d="M51.95 -6.7 L53.35 -10.85 51.95 -6.7 M56.55 -4.7 L58.45 -12.0 56.55 -4.7 M54.15 -5.8 L56.35 -12.25 54.15 -5.8 M73.05 -8.45 Q73.05 -4.6 69.2 -1.85 65.35 0.9 59.8 0.9 L58.55 0.9 Q55.8 0.7 53.45 -0.2 51.8 -0.85 50.4 -1.85 46.55 -4.6 46.55 -8.45 46.55 -12.35 50.4 -15.1 54.3 -17.85 59.8 -17.85 65.35 -17.85 69.2 -15.1 73.05 -12.35 73.05 -8.45 M60.0 -4.35 L61.45 -11.9 60.0 -4.35 M63.25 -6.7 L63.95 -11.2 63.25 -6.7" fill="url(#gradient1)" fill-rule="evenodd" stroke="none"/>
    <path d="M5.0 -11.7 L1.7 -3.2 M17.2 -10.55 L15.55 -5.35 M13.85 -10.65 L11.95 -3.4 M11.15 -11.15 L8.5 -2.45 M7.7 -11.1 L5.3 -2.65 M56.35 -12.25 L54.15 -5.8 M58.45 -12.0 L56.55 -4.7 M53.35 -10.85 L51.95 -6.7 M63.95 -11.2 L63.25 -6.7 M61.45 -11.9 L60.0 -4.35 M1.4 -10.7 L-1.0 -4.6" fill="none" stroke="#e74141" stroke-linecap="round" stroke-linejoin="round" stroke-opacity="0.85882354" stroke-width="1.0"/>
  </g>
  <defs>
    <radialGradient cx="0" cy="0" gradientTransform="matrix(0.0249, 0.0, 0.0, 0.0116, 6.5, -8.05)" gradientUnits="userSpaceOnUse" id="gradient0" r="819.2" spreadMethod="pad">
      <stop offset="0.27450980392156865" stop-color="#ff8e8e" stop-opacity="0.5294118"/>
      <stop offset="0.9725490196078431" stop-color="#ffb4b4" stop-opacity="0.0"/>
    </radialGradient>
    <radialGradient cx="0" cy="0" gradientTransform="matrix(0.0164, 0.0, 0.0, 0.0116, 59.75, -8.45)" gradientUnits="userSpaceOnUse" id="gradient1" r="819.2" spreadMethod="pad">
      <stop offset="0.27450980392156865" stop-color="#ff8e8e" stop-opacity="0.5294118"/>
      <stop offset="0.9725490196078431" stop-color="#ffb4b4" stop-opacity="0.0"/>
    </radialGradient>
  </defs>
</svg>
