<?xml version="1.0" encoding="UTF-8" standalone="no"?>
<svg xmlns:ffdec="https://www.free-decompiler.com/flash" xmlns:xlink="http://www.w3.org/1999/xlink" ffdec:objectType="shape" height="36.6px" width="101.55px" xmlns="http://www.w3.org/2000/svg">
  <g transform="matrix(1.0, 0.0, 0.0, 1.0, 25.25, 23.75)">
    <path d="M76.3 -5.4 Q76.3 2.2 69.95 7.45 63.55 12.85 54.45 12.85 45.45 12.85 39.05 7.45 32.65 2.2 32.65 -5.4 32.65 -12.95 39.05 -18.35 45.45 -23.65 54.45 -23.65 63.55 -23.65 69.95 -18.35 76.3 -12.95 76.3 -5.4" fill="url(#gradient0)" fill-rule="evenodd" stroke="none"/>
    <path d="M36.65 -5.45 Q36.65 2.1 27.55 7.4 18.6 12.8 5.7 12.8 -7.15 12.8 -16.25 7.4 -25.25 2.1 -25.25 -5.45 -25.25 -13.0 -16.25 -18.4 -7.15 -23.75 5.7 -23.75 18.6 -23.75 27.55 -18.4 36.65 -13.0 36.65 -5.45" fill="url(#gradient1)" fill-rule="evenodd" stroke="none"/>
  </g>
  <defs>
    <radialGradient cx="0" cy="0" gradientTransform="matrix(0.027, 0.0, 0.0, 0.0225, 54.4, -5.35)" gradientUnits="userSpaceOnUse" id="gradient0" r="819.2" spreadMethod="pad">
      <stop offset="0.13725490196078433" stop-color="#ff8e8e" stop-opacity="0.7882353"/>
      <stop offset="0.9725490196078431" stop-color="#ffb4b4" stop-opacity="0.0"/>
    </radialGradient>
    <radialGradient cx="0" cy="0" gradientTransform="matrix(0.0383, 0.0, 0.0, 0.0225, 5.65, -5.45)" gradientUnits="userSpaceOnUse" id="gradient1" r="819.2" spreadMethod="pad">
      <stop offset="0.13725490196078433" stop-color="#ff8e8e" stop-opacity="0.7882353"/>
      <stop offset="0.9725490196078431" stop-color="#ffb4b4" stop-opacity="0.0"/>
    </radialGradient>
  </defs>
</svg>
