<?xml version="1.0" encoding="UTF-8" standalone="no"?>
<svg xmlns:ffdec="https://www.free-decompiler.com/flash" xmlns:xlink="http://www.w3.org/1999/xlink" ffdec:objectType="shape" height="25.35px" width="86.6px" xmlns="http://www.w3.org/2000/svg">
  <g transform="matrix(1.0, 0.0, 0.0, 1.0, 16.4, 23.25)">
    <path d="M22.5 -21.2 L18.35 -4.15 M33.8 -21.85 L29.2 -5.55 M28.35 -22.35 L23.5 -5.65 M39.3 -20.7 L35.2 -5.55 M14.65 -20.15 L9.2 -2.45 M18.45 -21.3 L13.75 -3.0 M9.2 -20.25 L3.9 -1.65 M61.1 -20.3 L57.05 -5.55 M69.3 -17.85 L66.45 -6.15 M66.15 -19.95 L61.35 -5.65 M48.5 -21.4 L43.35 -2.75 M52.45 -21.2 L47.25 -1.9 M57.4 -20.1 L52.6 -4.1 M43.8 -20.4 L38.85 -3.0 M-10.5 -19.0 L-15.5 -5.7 M-6.3 -21.2 L-12.1 -3.2 M-1.35 -20.3 L-8.0 -1.2 M3.2 -20.3 L-3.25 1.2" fill="none" stroke="#c65757" stroke-linecap="round" stroke-linejoin="round" stroke-width="1.8"/>
  </g>
</svg>
