<?xml version="1.0" encoding="UTF-8" standalone="no"?>
<svg xmlns:ffdec="https://www.free-decompiler.com/flash" xmlns:xlink="http://www.w3.org/1999/xlink" ffdec:objectType="shape" height="21.4px" width="94.25px" xmlns="http://www.w3.org/2000/svg">
  <g transform="matrix(1.0, 0.0, 0.0, 1.0, 20.7, 19.0)">
    <path d="M-7.4 -13.3 Q-1.25 -11.05 5.15 -11.1 11.6 -11.2 13.4 -8.95 15.2 -6.75 12.95 -4.3 9.4 -0.5 3.85 0.35 -9.35 2.35 -15.05 -3.1 -21.55 -10.1 -17.9 -14.85 -14.95 -17.15 -7.4 -13.3 M64.65 -14.95 Q69.75 -18.85 71.45 -16.6 73.45 -11.95 69.8 -4.8 65.95 1.25 61.1 -0.25 56.2 -1.8 54.25 -5.5 53.0 -7.95 54.1 -10.3 55.15 -12.7 58.75 -12.95 62.35 -13.2 64.65 -14.95" fill="#ff8fab" fill-rule="evenodd" stroke="none"/>
    <path d="M-7.4 -13.3 Q-14.95 -17.15 -17.9 -14.85 -21.55 -10.1 -15.05 -3.1 -9.35 2.35 3.85 0.35 9.4 -0.5 12.95 -4.3 15.2 -6.75 13.4 -8.95 11.6 -11.2 5.15 -11.1 -1.25 -11.05 -7.4 -13.3 M-18.65 -16.05 Q-15.3 -18.95 -6.95 -14.7 -1.05 -12.55 5.15 -12.6 12.4 -12.75 14.45 -9.95 17.25 -6.75 13.9 -3.2 10.05 0.9 4.05 1.85 L4.0 1.85 Q-9.9 3.95 -15.9 -1.95 L-16.0 -2.0 Q-23.6 -10.2 -18.95 -15.8 L-18.65 -16.05 M64.65 -14.95 Q62.35 -13.2 58.75 -12.95 55.15 -12.7 54.1 -10.3 53.0 -7.95 54.25 -5.5 56.2 -1.8 61.1 -0.25 65.95 1.25 69.8 -4.8 73.45 -11.95 71.45 -16.6 69.75 -18.85 64.65 -14.95 M58.65 -14.45 Q61.85 -14.7 63.9 -16.15 70.25 -21.05 72.5 -17.55 L72.65 -17.25 Q75.05 -12.05 71.0 -4.05 L70.95 -3.95 Q66.45 3.1 60.7 1.2 55.2 -0.55 53.1 -4.75 51.45 -7.95 52.85 -11.0 L52.85 -10.95 Q54.1 -14.1 58.65 -14.45" fill="#ff8fab" fill-opacity="0.32941177" fill-rule="evenodd" stroke="none"/>
  </g>
</svg>
