<?xml version="1.0" encoding="UTF-8" standalone="no"?>
<svg xmlns:ffdec="https://www.free-decompiler.com/flash" xmlns:xlink="http://www.w3.org/1999/xlink" ffdec:objectType="shape" height="46.0px" width="112.15px" xmlns="http://www.w3.org/2000/svg">
  <g transform="matrix(1.0, 0.0, 0.0, 1.0, 38.5, 26.9)">
    <path d="M-28.3 -21.9 Q-23.3 -22.7 -16.2 -21.9 -5.75 -19.5 1.6 -19.7 9.25 -19.7 17.75 -23.5 26.15 -26.85 35.7 -26.9 45.95 -26.25 57.25 -22.35 65.3 -19.35 69.0 -19.3 72.7 -19.25 73.5 -12.0 74.35 -4.75 70.2 0.9 63.9 11.6 46.95 16.5 21.95 21.75 -1.0 16.5 -16.3 13.45 -27.2 5.05 -36.7 -1.4 -38.15 -9.4 -40.45 -19.65 -28.3 -21.9" fill="url(#gradient0)" fill-rule="evenodd" stroke="none"/>
  </g>
  <defs>
    <linearGradient gradientTransform="matrix(0.0, 0.0202, -0.0684, 0.0, 17.5, -3.0)" gradientUnits="userSpaceOnUse" id="gradient0" spreadMethod="pad" x1="-819.2" x2="819.2">
      <stop offset="0.0" stop-color="#ff8e8e" stop-opacity="0.7882353"/>
      <stop offset="1.0" stop-color="#ffb4b4" stop-opacity="0.0"/>
    </linearGradient>
  </defs>
</svg>
