<?xml version="1.0" encoding="UTF-8" standalone="no"?>
<svg xmlns:ffdec="https://www.free-decompiler.com/flash" xmlns:xlink="http://www.w3.org/1999/xlink" ffdec:objectType="shape" height="42.0px" width="105.35px" xmlns="http://www.w3.org/2000/svg">
  <g transform="matrix(1.0, 0.0, 0.0, 1.0, 26.9, 28.65)">
    <path d="M13.65 -7.65 Q13.65 1.1 7.65 7.1 1.8 13.35 -6.6 13.35 -15.05 13.35 -21.05 7.1 -26.9 1.1 -26.9 -7.65 -26.9 -16.35 -21.05 -22.6 -15.05 -28.65 -6.6 -28.65 1.8 -28.65 7.65 -22.6 13.65 -16.35 13.65 -7.65" fill="url(#gradient0)" fill-rule="evenodd" stroke="none"/>
    <path d="M78.45 -7.05 Q78.45 -0.15 74.65 4.6 70.85 9.55 65.4 9.55 59.95 9.55 56.1 4.6 52.3 -0.15 52.3 -7.05 52.3 -13.95 56.1 -18.85 59.95 -23.65 65.4 -23.65 70.85 -23.65 74.65 -18.85 78.45 -13.95 78.45 -7.05" fill="url(#gradient1)" fill-rule="evenodd" stroke="none"/>
    <path d="M56.55 -13.4 Q56.55 -7.95 49.9 -4.2 43.15 -0.25 33.65 -0.25 24.15 -0.25 17.45 -4.2 10.75 -7.95 10.75 -13.4 10.75 -18.9 17.45 -22.75 24.15 -26.55 33.65 -26.55 43.15 -26.55 49.9 -22.75 56.55 -18.9 56.55 -13.4" fill="url(#gradient2)" fill-rule="evenodd" stroke="none"/>
  </g>
  <defs>
    <radialGradient cx="0" cy="0" gradientTransform="matrix(0.025, 0.0, 0.0, 0.0259, -6.7, -7.75)" gradientUnits="userSpaceOnUse" id="gradient0" r="819.2" spreadMethod="pad">
      <stop offset="0.5882352941176471" stop-color="#ff8e8e" stop-opacity="0.7882353"/>
      <stop offset="1.0" stop-color="#ffb4b4" stop-opacity="0.0"/>
    </radialGradient>
    <radialGradient cx="0" cy="0" gradientTransform="matrix(0.0161, 0.0, 0.0, 0.0205, 65.25, -7.15)" gradientUnits="userSpaceOnUse" id="gradient1" r="819.2" spreadMethod="pad">
      <stop offset="0.5882352941176471" stop-color="#ff8e8e" stop-opacity="0.7882353"/>
      <stop offset="1.0" stop-color="#ffb4b4" stop-opacity="0.0"/>
    </radialGradient>
    <radialGradient cx="0" cy="0" gradientTransform="matrix(0.0282, 0.0, 0.0, 0.0162, 33.45, -13.55)" gradientUnits="userSpaceOnUse" id="gradient2" r="819.2" spreadMethod="pad">
      <stop offset="0.5882352941176471" stop-color="#ff8e8e" stop-opacity="0.7882353"/>
      <stop offset="1.0" stop-color="#ffb4b4" stop-opacity="0.0"/>
    </radialGradient>
  </defs>
</svg>
