<?xml version="1.0" encoding="UTF-8" standalone="no"?>
<svg xmlns:ffdec="https://www.free-decompiler.com/flash" xmlns:xlink="http://www.w3.org/1999/xlink" ffdec:objectType="frame" height="79.95px" width="99.35px" xmlns="http://www.w3.org/2000/svg">
  <g transform="matrix(1.0, 0.0, 0.0, 1.0, 49.65, 40.0)">
    <use ffdec:characterId="18735" height="79.95" transform="matrix(1.0, 0.0, 0.0, 1.0, -49.65, -40.0)" width="99.35" xlink:href="#shape0"/>
    <use ffdec:characterId="175" height="36.0" id="hit3" transform="matrix(2.5145, 0.0, 0.0, 0.7581, -45.2615, -13.4456)" width="36.0" xlink:href="#sprite0"/>
    <use ffdec:characterId="175" height="36.0" id="hit2" transform="matrix(1.2938, 0.0, 0.0, 1.5955, -23.2888, -28.6694)" width="36.0" xlink:href="#sprite0"/>
    <use ffdec:characterId="175" height="36.0" id="hit1" transform="matrix(0.4167, 0.0, 0.0, 2.0028, -7.4998, -36.0)" width="36.0" xlink:href="#sprite0"/>
  </g>
  <defs>
    <g id="shape0" transform="matrix(1.0, 0.0, 0.0, 1.0, 49.65, 40.0)">
      <path d="M0.0 -31.25 Q-3.15 -31.25 -5.45 -30.0 -7.7 -28.65 -7.7 -26.85 L-7.7 26.6 Q-7.7 28.45 -5.45 29.7 -3.15 31.05 0.0 31.05 3.15 31.05 5.45 29.7 7.7 28.45 7.7 26.6 L7.7 -26.85 Q7.7 -28.65 5.45 -30.0 3.15 -31.25 0.0 -31.25 M-49.65 -40.0 L49.7 -40.0 49.7 39.95 -49.65 39.95 -49.65 -40.0" fill="url(#gradient0)" fill-rule="evenodd" stroke="none"/>
      <path d="M3.3 36.3 L17.05 36.3 Q21.2 36.3 21.2 32.8 L21.2 -34.0 Q21.2 -37.5 17.05 -37.5 L3.3 -37.5 -3.8 -37.5 -17.0 -37.5 Q-21.15 -37.5 -21.15 -34.0 L-21.15 32.8 Q-21.15 36.3 -17.0 36.3 L-3.8 36.3 3.3 36.3 M-17.0 -39.4 L17.05 -39.4 Q24.15 -39.4 24.15 -33.4 L24.15 33.4 Q24.15 39.4 17.05 39.4 L-17.0 39.4 Q-24.1 39.4 -24.1 33.4 L-24.1 -33.4 Q-24.1 -39.4 -17.0 -39.4" fill="#101019" fill-rule="evenodd" stroke="none"/>
      <path d="M3.3 -37.5 L17.05 -37.5 Q21.2 -37.5 21.2 -34.0 L21.2 32.8 Q21.2 36.3 17.05 36.3 L3.3 36.3 3.3 -37.5 M-3.8 36.3 L-17.0 36.3 Q-21.15 36.3 -21.15 32.8 L-21.15 -34.0 Q-21.15 -37.5 -17.0 -37.5 L-3.8 -37.5 -3.8 36.3" fill="url(#gradient1)" fill-rule="evenodd" stroke="none"/>
      <path d="M3.3 36.3 L-3.8 36.3 -3.8 -37.5 3.3 -37.5 3.3 36.3" fill="url(#gradient2)" fill-rule="evenodd" stroke="none"/>
      <path d="M3.3 -37.5 L3.3 36.3 M-17.0 -39.4 L17.05 -39.4 Q24.15 -39.4 24.15 -33.4 L24.15 33.4 Q24.15 39.4 17.05 39.4 L-17.0 39.4 Q-24.1 39.4 -24.1 33.4 L-24.1 -33.4 Q-24.1 -39.4 -17.0 -39.4 M-3.8 -37.5 L-3.8 36.3" ffdec:has-small-stroke="true" ffdec:original-stroke-width="0.05" fill="none" stroke="#766395" stroke-linecap="round" stroke-linejoin="round" stroke-opacity="0.6392157" stroke-width="1.0"/>
    </g>
    <linearGradient gradientTransform="matrix(0.059, 0.0, 0.0, 0.0488, 0.15, -0.05)" gradientUnits="userSpaceOnUse" id="gradient0" spreadMethod="pad" x1="-819.2" x2="819.2">
      <stop offset="0.0" stop-color="#d9b1ff" stop-opacity="0.0"/>
      <stop offset="0.49411764705882355" stop-color="#be9cff" stop-opacity="0.7294118"/>
      <stop offset="1.0" stop-color="#d9b1ff" stop-opacity="0.0"/>
    </linearGradient>
    <linearGradient gradientTransform="matrix(0.0, -0.0415, 0.0258, 0.0, 0.0, 0.55)" gradientUnits="userSpaceOnUse" id="gradient1" spreadMethod="pad" x1="-819.2" x2="819.2">
      <stop offset="0.0" stop-color="#3c3c5f"/>
      <stop offset="1.0" stop-color="#34264a"/>
    </linearGradient>
    <linearGradient gradientTransform="matrix(0.0, 0.0423, -0.0043, 0.0, -0.25, -0.5)" gradientUnits="userSpaceOnUse" id="gradient2" spreadMethod="pad" x1="-819.2" x2="819.2">
      <stop offset="0.0" stop-color="#dccbe7"/>
      <stop offset="1.0" stop-color="#c7c7e7"/>
    </linearGradient>
    <g id="sprite0" transform="matrix(1.0, 0.0, 0.0, 1.0, 18.0, 18.0)">
      <use ffdec:characterId="174" height="77.5" transform="matrix(0.2293, 0.0, 0.0, 0.4645, -17.9996, -17.9984)" width="157.0" xlink:href="#shape1"/>
    </g>
    <g id="shape1" transform="matrix(1.0, 0.0, 0.0, 1.0, 78.5, 0.75)">
      <path d="M-78.5 -0.75 L78.5 -0.75 78.5 76.75 -78.5 76.75 -78.5 -0.75" fill="#77bfff" fill-opacity="0.0" fill-rule="evenodd" stroke="none"/>
    </g>
  </defs>
</svg>
