<?xml version="1.0" encoding="UTF-8" standalone="no"?>
<svg xmlns:ffdec="https://www.free-decompiler.com/flash" xmlns:xlink="http://www.w3.org/1999/xlink" ffdec:objectType="shape" height="62.3px" width="123.6px" xmlns="http://www.w3.org/2000/svg">
  <g transform="matrix(1.0, 0.0, 0.0, 1.0, 63.9, 20.35)">
    <path d="M21.45 -20.35 Q27.6 -11.45 29.0 -1.5 25.9 2.05 18.85 0.35 8.75 -1.75 7.05 -9.35 L7.4 -10.95 Q12.15 -3.2 25.05 -3.0 26.2 -8.25 21.45 -20.35 M44.25 31.25 Q43.95 41.55 26.05 41.95 L28.55 35.55 Q34.4 32.0 36.0 26.95 40.05 26.2 42.8 24.4 49.55 30.85 59.7 26.95 52.3 34.5 44.25 31.25 M-49.15 26.6 Q-60.1 28.7 -63.9 22.4 -53.05 26.6 -47.6 19.0 -46.6 21.2 -44.7 23.3 -41.1 26.4 -36.2 26.6 -34.0 31.4 -30.85 34.6 -31.05 40.0 -29.4 41.85 -50.5 41.7 -49.15 26.6 M-10.6 -10.75 Q-16.8 6.4 -32.7 8.95 L-32.65 7.65 -31.75 0.7 Q-19.45 3.65 -8.95 -15.95 L-7.15 -19.75 Q-11.2 -8.0 -4.65 3.3 -1.4 8.85 14.7 3.85 11.7 7.0 5.75 9.2 -3.0 11.2 -7.65 6.65 -12.95 -0.5 -10.6 -10.75" fill="#a684e0" fill-rule="evenodd" stroke="none"/>
  </g>
</svg>
