<?xml version="1.0" encoding="UTF-8" standalone="no"?>
<svg xmlns:ffdec="https://www.free-decompiler.com/flash" xmlns:xlink="http://www.w3.org/1999/xlink" ffdec:objectType="shape" height="68.4px" width="102.65px" xmlns="http://www.w3.org/2000/svg">
  <g transform="matrix(1.0, 0.0, 0.0, 1.0, 57.0, 55.9)">
    <path d="M27.2 -18.5 Q31.7 -7.75 30.65 0.55 13.05 -1.4 9.85 -17.8 8.6 -3.85 11.55 1.45 -1.95 0.4 -4.05 -11.4 -5.55 -2.15 -4.05 1.6 -12.75 -7.9 -12.25 -19.3 -11.95 -25.4 -9.1 -32.05 -12.2 -19.2 -7.6 -9.75 -8.25 -13.55 -5.3 -18.15 -3.15 -8.75 8.25 -3.4 3.9 -14.6 8.25 -25.8 13.35 -8.0 27.95 -3.6 L27.2 -18.5 M39.6 6.0 Q42.9 1.15 42.8 -7.25 L36.9 -19.85 Q50.85 -4.6 42.55 5.35 41.15 5.35 39.6 6.0 M-7.45 -44.0 Q-6.15 -48.7 -6.9 -53.15 -3.15 -51.0 0.8 -55.9 0.7 -53.85 -0.2 -51.8 -2.2 -47.25 -7.45 -44.0 M-53.65 12.5 L-55.65 11.5 Q-61.1 2.95 -44.35 -6.3 L-49.8 1.5 Q-51.35 2.95 -52.35 4.45 -55.15 8.5 -53.65 12.5" fill="#a684e0" fill-rule="evenodd" stroke="none"/>
  </g>
</svg>
