<?xml version="1.0" encoding="UTF-8" standalone="no"?>
<svg xmlns:ffdec="https://www.free-decompiler.com/flash" xmlns:xlink="http://www.w3.org/1999/xlink" ffdec:objectType="shape" height="85.25px" width="115.6px" xmlns="http://www.w3.org/2000/svg">
  <g transform="matrix(1.0, 0.0, 0.0, 1.0, 58.3, 68.45)">
    <path d="M0.35 -45.65 Q7.85 -48.85 16.75 -47.85 22.8 -46.15 28.05 -41.65 32.9 -37.25 37.4 -29.85 L37.65 -29.5 Q47.45 -15.4 57.3 -22.7 54.75 -14.7 46.8 -12.15 55.05 -8.9 56.45 -2.05 57.7 4.65 49.5 8.45 50.5 1.8 47.05 -0.85 42.85 3.25 44.5 9.5 L40.55 8.15 Q38.35 13.2 33.4 16.5 34.55 13.65 35.05 7.05 17.4 3.25 16.95 -10.65 16.75 3.75 23.6 9.3 5.45 13.95 -0.7 -0.1 -0.45 8.85 2.3 13.8 -12.85 5.4 -13.8 -13.15 -13.65 -0.65 -29.8 6.9 -28.0 4.3 -28.3 -5.15 -29.4 0.45 -33.5 3.75 -34.75 11.95 -33.5 16.8 -39.6 11.9 -39.75 6.95 -42.6 7.85 -46.15 8.2 -43.1 4.95 -42.55 0.25 -42.8 -4.2 -47.3 -8.85 L-47.85 -7.5 Q-49.45 -3.2 -47.0 2.85 -62.35 -1.85 -56.85 -14.8 -51.75 -23.9 -43.15 -27.0 -51.45 -28.8 -56.0 -37.65 -47.7 -31.5 -33.6 -41.1 -22.55 -49.75 -14.15 -51.3 -5.4 -51.0 -3.05 -44.25 5.65 -58.55 -13.75 -66.45 1.8 -72.15 10.4 -61.75 14.95 -52.4 0.35 -45.65" fill="url(#gradient0)" fill-rule="evenodd" stroke="none"/>
  </g>
  <defs>
    <linearGradient gradientTransform="matrix(0.0, 0.0455, -0.0706, 0.0, -0.5, 12.25)" gradientUnits="userSpaceOnUse" id="gradient0" spreadMethod="pad" x1="-819.2" x2="819.2">
      <stop offset="0.0" stop-color="#7bffdc" stop-opacity="0.0"/>
      <stop offset="1.0" stop-color="#7bffdc" stop-opacity="0.8"/>
    </linearGradient>
  </defs>
</svg>
