<?xml version="1.0" encoding="UTF-8" standalone="no"?>
<svg xmlns:ffdec="https://www.free-decompiler.com/flash" xmlns:xlink="http://www.w3.org/1999/xlink" ffdec:objectType="shape" height="100.2px" width="109.8px" xmlns="http://www.w3.org/2000/svg">
  <g transform="matrix(1.0, 0.0, 0.0, 1.0, 55.05, 51.1)">
    <path d="M-48.2 8.95 Q-51.4 2.25 -51.35 -4.7 -51.3 -9.8 -49.45 -15.05 -45.2 -27.55 -31.3 -39.0 -17.55 -49.7 -0.15 -51.1 17.25 -49.7 31.0 -39.0 44.9 -27.55 49.15 -15.05 51.15 -9.45 51.1 -4.2 51.0 2.1 48.0 7.9 44.05 3.15 39.4 6.2 L37.45 8.95 Q40.0 14.05 44.55 17.15 35.3 22.65 21.7 20.65 7.85 16.35 8.45 1.35 7.25 20.15 13.95 25.35 -3.45 20.05 -6.75 7.4 -9.85 -4.2 -8.6 -15.3 -22.25 0.95 -41.85 4.9 -46.15 4.9 -48.2 8.95 M-46.8 20.15 Q-44.4 25.35 -35.95 27.1 -33.45 35.25 -20.25 39.35 -7.05 43.45 10.4 41.7 31.65 38.05 35.9 27.25 42.6 25.8 46.45 21.5 47.85 27.9 54.75 33.75 38.5 46.95 1.35 49.0 L-0.15 49.1 -1.65 49.0 Q-38.8 46.95 -55.05 33.75 -47.95 27.75 -46.8 20.15" fill="url(#gradient0)" fill-rule="evenodd" stroke="none"/>
  </g>
  <defs>
    <linearGradient gradientTransform="matrix(0.0, 0.044, -0.067, 0.0, -0.15, 13.4)" gradientUnits="userSpaceOnUse" id="gradient0" spreadMethod="pad" x1="-819.2" x2="819.2">
      <stop offset="0.0" stop-color="#7bffdc" stop-opacity="0.0"/>
      <stop offset="1.0" stop-color="#7bffdc" stop-opacity="0.8"/>
    </linearGradient>
  </defs>
</svg>
