<?xml version="1.0" encoding="UTF-8" standalone="no"?>
<svg xmlns:ffdec="https://www.free-decompiler.com/flash" xmlns:xlink="http://www.w3.org/1999/xlink" ffdec:objectType="shape" height="66.35px" width="85.6px" xmlns="http://www.w3.org/2000/svg">
  <g transform="matrix(1.0, 0.0, 0.0, 1.0, 42.9, 50.85)">
    <path d="M-0.15 -50.85 Q2.95 -50.85 4.35 -49.3 8.25 -51.5 11.45 -48.45 16.7 -50.4 20.0 -46.25 24.05 -49.15 28.9 -44.3 33.25 -46.2 36.7 -42.35 40.25 -42.8 41.35 -40.65 L42.2 -34.35 Q44.0 -12.55 39.05 10.0 L32.35 15.5 Q35.05 -6.95 29.8 -15.6 14.0 -21.2 -0.1 -20.9 -14.2 -21.2 -30.0 -15.6 -35.25 -6.95 -32.55 15.5 L-39.25 10.0 Q-44.2 -12.55 -42.4 -34.35 L-41.55 -40.65 Q-40.45 -42.8 -36.9 -42.35 -33.45 -46.2 -29.1 -44.3 -24.25 -49.15 -20.2 -46.25 -16.9 -50.4 -11.65 -48.45 -8.45 -51.5 -4.55 -49.3 -3.25 -50.8 -0.15 -50.85" fill="url(#gradient0)" fill-rule="evenodd" stroke="none"/>
  </g>
  <defs>
    <linearGradient gradientTransform="matrix(0.0, 0.0444, -0.0522, 0.0, -0.1, 11.35)" gradientUnits="userSpaceOnUse" id="gradient0" spreadMethod="pad" x1="-819.2" x2="819.2">
      <stop offset="0.0" stop-color="#7bffdc" stop-opacity="0.0"/>
      <stop offset="1.0" stop-color="#7bffdc" stop-opacity="0.8"/>
    </linearGradient>
  </defs>
</svg>
