<?xml version="1.0" encoding="UTF-8" standalone="no"?>
<svg xmlns:ffdec="https://www.free-decompiler.com/flash" xmlns:xlink="http://www.w3.org/1999/xlink" ffdec:objectType="shape" height="67.2px" width="131.7px" xmlns="http://www.w3.org/2000/svg">
  <g transform="matrix(1.0, 0.0, 0.0, 1.0, 66.1, 59.35)">
    <path d="M17.85 -42.85 L21.25 -41.25 22.25 -40.65 Q28.35 -36.85 32.85 -32.2 39.85 -25.05 43.15 -15.95 44.4 -10.85 44.5 -6.4 58.25 -6.65 63.15 -20.4 66.5 -33.8 58.3 -46.55 48.5 -59.15 34.6 -57.7 21.15 -55.25 17.85 -42.85 8.4 -47.05 -0.25 -46.75 -8.9 -47.05 -18.35 -42.85 L-21.75 -41.25 -22.75 -40.65 Q-28.85 -36.85 -33.35 -32.2 -40.35 -25.05 -43.65 -15.95 -44.9 -10.85 -45.0 -6.4 -45.2 0.85 -42.45 6.35 -22.75 6.1 -11.75 -4.5 -2.7 -13.2 -0.25 -22.65 2.2 -13.2 11.25 -4.5 22.25 6.1 41.95 6.35 44.7 0.85 44.5 -6.4 M-18.35 -42.85 Q-21.65 -55.25 -35.1 -57.7 -49.0 -59.15 -58.8 -46.55 -67.0 -33.8 -63.65 -20.4 -58.75 -6.65 -45.0 -6.4" fill="none" stroke="#000000" stroke-linecap="round" stroke-linejoin="round" stroke-width="3.0"/>
  </g>
</svg>
