<?xml version="1.0" encoding="UTF-8" standalone="no"?>
<svg xmlns:ffdec="https://www.free-decompiler.com/flash" xmlns:xlink="http://www.w3.org/1999/xlink" ffdec:objectType="shape" height="141.35px" width="125.6px" xmlns="http://www.w3.org/2000/svg">
  <g transform="matrix(1.0, 0.0, 0.0, 1.0, 64.2, 70.1)">
    <path d="M-6.7 -45.6 Q-3.9 -50.95 -6.7 -57.85 -10.0 -64.2 -16.9 -69.0 -6.8 -72.3 1.7 -65.9 7.25 -59.7 2.25 -52.25 -0.75 -47.75 -6.7 -45.6 M-47.1 20.05 Q-55.95 13.8 -54.85 7.4 -58.25 13.1 -55.6 18.05 -63.6 13.55 -64.15 7.6 -64.6 2.6 -61.05 -2.3 L-48.05 -23.05 Q-40.75 -37.05 -32.05 -42.25 -22.15 -47.45 -3.0 -44.9 4.75 -48.1 14.85 -49.0 26.7 -49.05 34.9 -36.9 L53.15 -7.95 Q67.4 11.85 57.1 17.65 56.9 15.0 51.7 10.85 52.75 19.15 46.1 21.75 49.35 16.45 48.45 10.05 48.2 8.35 47.05 7.55 46.0 5.65 43.5 5.05 41.3 4.9 40.05 5.7 L37.65 7.4 Q29.35 12.95 18.35 9.9 4.35 5.8 3.55 -3.25 0.3 5.05 5.2 10.45 -9.8 3.55 -8.35 -19.8 -15.85 4.3 -38.05 7.3 -40.85 4.3 -44.25 5.25 -47.85 6.6 -48.3 11.7 -48.8 15.9 -47.1 20.05 M-44.35 22.85 Q-40.55 26.5 -35.4 26.6 -34.2 31.05 -28.4 35.7 -30.55 39.0 -32.35 40.7 -29.6 43.2 -31.55 45.7 -33.05 47.35 -35.05 48.5 -32.6 50.8 -32.6 52.25 -33.9 54.9 -35.7 55.95 L-37.65 55.5 -41.0 55.8 -42.75 56.3 Q-44.8 54.45 -45.2 52.2 -44.85 49.7 -42.4 48.1 -43.65 46.85 -43.95 45.5 -44.3 42.7 -41.5 40.15 L-43.2 38.4 Q-46.2 35.4 -46.9 32.95 -48.35 28.2 -44.35 22.85 M42.25 48.1 Q44.7 49.7 45.05 52.2 44.65 54.45 42.6 56.3 42.45 55.9 40.75 55.35 L37.5 55.45 Q35.9 56.1 35.55 55.95 33.75 54.9 32.45 52.25 32.45 50.8 34.9 48.5 32.9 47.35 31.4 45.7 29.45 43.2 32.2 40.7 30.4 39.0 28.65 34.9 34.05 31.05 35.9 26.55 40.55 26.2 43.6 23.45 48.2 28.2 46.75 32.95 46.05 35.4 43.05 38.4 L41.35 40.15 Q44.15 42.7 43.8 45.5 43.5 46.85 42.25 48.1 M-42.8 58.7 L-42.8 59.35 Q-39.05 61.8 -35.3 59.15 L-35.4 58.1 Q-32.7 60.9 -32.85 64.05 -33.05 67.85 -35.9 69.75 -35.75 66.55 -37.6 63.65 -40.15 67.6 -38.0 71.25 -45.9 69.35 -44.9 62.7 -44.45 60.6 -42.8 58.7 M42.65 58.7 Q44.3 60.6 44.75 62.7 45.75 69.35 37.85 71.25 40.0 67.6 37.45 63.65 35.6 66.55 35.75 69.75 32.9 67.85 32.7 64.05 32.55 60.9 35.25 58.1 L35.15 59.15 Q38.5 61.85 42.65 59.35 L42.65 58.7" fill="#424f86" fill-rule="evenodd" stroke="none"/>
  </g>
</svg>
