<?xml version="1.0" encoding="UTF-8" standalone="no"?>
<svg xmlns:ffdec="https://www.free-decompiler.com/flash" xmlns:xlink="http://www.w3.org/1999/xlink" ffdec:objectType="shape" height="91.65px" width="128.4px" xmlns="http://www.w3.org/2000/svg">
  <g transform="matrix(1.0, 0.0, 0.0, 1.0, 64.2, 67.35)">
    <path d="M48.4 17.05 Q41.6 16.2 38.55 12.35 35.95 18.75 27.65 21.45 29.25 17.85 29.85 10.05 11.7 4.45 7.95 -10.1 7.45 4.35 10.3 17.2 2.05 15.8 -2.7 11.1 L-1.0 17.45 Q-8.7 12.85 -10.75 1.25 -11.65 -3.75 -11.55 -9.7 -15.3 3.9 -28.95 7.55 -27.6 11.8 -24.9 15.2 -31.4 15.8 -36.05 12.1 -35.7 15.9 -34.65 18.15 -42.55 12.95 -44.05 4.9 -48.25 7.1 -48.85 13.5 -49.25 17.55 -45.85 20.75 -49.8 25.35 -56.25 24.0 -53.6 21.35 -52.7 15.3 -52.0 9.1 -54.9 2.9 -56.75 6.2 -56.7 9.15 -56.2 12.05 -53.6 15.4 -67.55 10.25 -63.15 -2.7 -58.7 -12.8 -48.5 -17.4 -56.65 -18.1 -61.55 -23.35 -54.4 -21.6 -48.35 -25.35 -42.15 -30.65 -37.0 -38.6 -30.55 -48.0 -22.6 -49.7 -15.2 -51.0 -8.35 -48.1 -6.75 -50.45 -5.9 -55.3 -4.9 -63.25 -12.15 -67.15 -2.9 -68.55 2.25 -59.85 4.2 -53.85 -2.15 -48.75 8.25 -55.25 6.25 -65.55 13.95 -59.8 13.25 -53.55 12.75 -49.55 8.7 -47.65 17.65 -50.4 25.95 -44.75 34.2 -39.1 42.1 -27.7 50.35 -15.75 64.2 -19.85 58.85 -12.3 50.55 -12.35 57.05 -9.7 60.4 -3.25 63.75 3.2 58.6 10.6 58.5 4.95 55.55 0.3 52.95 5.85 55.0 13.7 56.05 17.8 60.25 18.55 54.3 23.95 46.9 20.4 47.85 18.9 48.4 17.05 L48.55 17.05 48.45 16.85 Q48.95 14.9 48.6 10.95 48.35 7.8 46.45 6.3 44.7 5.45 44.25 6.05 46.05 12.45 48.45 16.85 L48.4 17.05 M-28.85 -13.15 L-28.95 -13.0 -29.35 -11.1 -28.85 -13.15" fill="#424f86" fill-rule="evenodd" stroke="none"/>
  </g>
</svg>
