<?xml version="1.0" encoding="UTF-8" standalone="no"?>
<svg xmlns:ffdec="https://www.free-decompiler.com/flash" xmlns:xlink="http://www.w3.org/1999/xlink" ffdec:objectType="shape" height="64.2px" width="128.7px" xmlns="http://www.w3.org/2000/svg">
  <g transform="matrix(1.0, 0.0, 0.0, 1.0, 64.6, 57.85)">
    <path d="M17.85 -42.85 Q21.15 -55.25 34.6 -57.7 48.5 -59.15 58.3 -46.55 66.5 -33.8 63.15 -20.4 58.25 -6.65 44.5 -6.4 44.7 0.85 41.95 6.35 22.25 6.1 11.25 -4.5 2.2 -13.2 -0.25 -22.65 -2.7 -13.2 -11.75 -4.5 -22.75 6.1 -42.45 6.35 -45.2 0.85 -45.0 -6.4 -58.75 -6.65 -63.65 -20.4 -67.0 -33.8 -58.8 -46.55 -49.0 -59.15 -35.1 -57.7 -21.65 -55.25 -18.35 -42.85 -8.9 -47.05 -0.25 -46.75 8.4 -47.05 17.85 -42.85" fill="url(#gradient0)" fill-rule="evenodd" stroke="none"/>
  </g>
  <defs>
    <linearGradient gradientTransform="matrix(0.0, 0.0435, -0.0786, 0.0, -0.25, 11.8)" gradientUnits="userSpaceOnUse" id="gradient0" spreadMethod="pad" x1="-819.2" x2="819.2">
      <stop offset="0.0" stop-color="#7bffdc" stop-opacity="0.0"/>
      <stop offset="1.0" stop-color="#7bffdc" stop-opacity="0.8"/>
    </linearGradient>
  </defs>
</svg>
