<?xml version="1.0" encoding="UTF-8" standalone="no"?>
<svg xmlns:ffdec="https://www.free-decompiler.com/flash" xmlns:xlink="http://www.w3.org/1999/xlink" ffdec:objectType="shape" height="15.2px" width="85.1px" xmlns="http://www.w3.org/2000/svg">
  <g transform="matrix(1.0, 0.0, 0.0, 1.0, 42.0, 29.05)">
    <path d="M41.95 -25.7 Q42.95 -24.15 43.05 -23.0 43.2 -21.8 42.45 -21.7 41.65 -21.55 40.4 -22.55 39.2 -23.5 38.2 -25.05 37.25 -26.55 37.1 -27.75 37.0 -28.9 37.8 -29.05 38.55 -29.15 39.75 -28.2 41.0 -27.2 41.95 -25.7 M12.35 -17.7 Q12.35 -16.1 11.75 -15.0 11.15 -13.85 10.3 -13.85 9.45 -13.85 8.85 -15.0 8.25 -16.1 8.25 -17.7 8.25 -19.3 8.85 -20.45 9.45 -21.55 10.3 -21.55 11.15 -21.55 11.75 -20.45 12.35 -19.3 12.35 -17.7 M7.2 -16.15 Q7.2 -15.25 6.8 -14.65 6.45 -14.0 5.95 -14.0 5.45 -14.0 5.05 -14.65 4.7 -15.25 4.7 -16.15 4.7 -17.05 5.05 -17.7 5.45 -18.3 5.95 -18.3 6.45 -18.3 6.8 -17.7 7.2 -17.05 7.2 -16.15 M37.4 -22.8 Q37.75 -21.85 37.55 -21.2 37.4 -20.55 36.8 -20.55 36.2 -20.55 35.55 -21.2 34.95 -21.85 34.6 -22.8 34.25 -23.75 34.4 -24.4 34.6 -25.05 35.2 -25.05 35.8 -25.05 36.4 -24.4 L37.4 -22.8 M26.1 -19.5 Q26.2 -18.65 25.85 -18.05 25.6 -17.4 25.1 -17.4 L24.1 -18.05 Q23.7 -18.65 23.6 -19.5 23.5 -20.35 23.75 -21.0 24.1 -21.6 24.6 -21.6 25.1 -21.6 25.5 -21.0 26.0 -20.35 26.1 -19.5 M-37.7 -23.95 Q-38.7 -22.65 -39.85 -22.05 L-41.6 -21.9 Q-42.2 -22.4 -41.9 -23.65 -41.6 -24.9 -40.6 -26.2 -39.6 -27.5 -38.45 -28.1 L-36.7 -28.2 Q-36.1 -27.75 -36.4 -26.5 -36.7 -25.25 -37.7 -23.95 M-22.2 -18.85 Q-22.35 -17.4 -22.9 -16.4 -23.45 -15.4 -24.05 -15.4 -24.65 -15.4 -24.9 -16.4 -25.15 -17.4 -25.0 -18.85 -24.8 -20.3 -24.25 -21.3 -23.75 -22.3 -23.15 -22.3 -22.55 -22.3 -22.25 -21.3 -22.0 -20.3 -22.2 -18.85 M-33.3 -21.0 Q-33.75 -20.0 -34.5 -19.5 -35.15 -19.0 -35.7 -19.25 -36.25 -19.5 -36.35 -20.3 -36.4 -21.2 -35.95 -22.2 -35.5 -23.2 -34.85 -23.7 -34.15 -24.25 -33.6 -24.0 -33.05 -23.75 -33.0 -22.9 -32.85 -22.0 -33.3 -21.0 M-7.4 -18.05 Q-7.4 -16.6 -8.1 -15.55 -8.75 -14.5 -9.7 -14.5 -10.65 -14.5 -11.35 -15.55 -12.0 -16.6 -12.0 -18.05 -12.0 -19.5 -11.35 -20.55 -10.65 -21.6 -9.7 -21.6 -8.75 -21.6 -8.1 -20.55 -7.4 -19.5 -7.4 -18.05 M-3.95 -16.4 Q-3.95 -15.6 -4.3 -15.05 -4.6 -14.5 -5.05 -14.5 -5.5 -14.5 -5.85 -15.05 L-6.15 -16.4 -5.85 -17.75 Q-5.5 -18.3 -5.05 -18.3 -4.6 -18.3 -4.3 -17.75 -3.95 -17.2 -3.95 -16.4 M-18.5 -17.15 Q-18.6 -16.25 -18.95 -15.65 -19.25 -15.05 -19.6 -15.05 -20.0 -15.1 -20.25 -15.8 L-20.35 -17.3 -19.95 -18.8 Q-19.6 -19.35 -19.2 -19.3 -18.85 -19.3 -18.65 -18.65 -18.4 -18.05 -18.5 -17.15" fill="#b6e3ff" fill-rule="evenodd" stroke="none"/>
  </g>
</svg>
