<?xml version="1.0" encoding="UTF-8" standalone="no"?>
<svg xmlns:ffdec="https://www.free-decompiler.com/flash" xmlns:xlink="http://www.w3.org/1999/xlink" ffdec:objectType="shape" height="43.85px" width="74.8px" xmlns="http://www.w3.org/2000/svg">
  <g transform="matrix(1.0, 0.0, 0.0, 1.0, 38.2, 57.25)">
    <path d="M8.0 -51.55 Q8.0 -50.8 7.65 -50.25 7.35 -49.7 6.9 -49.7 6.45 -49.7 6.1 -50.25 5.8 -50.8 5.8 -51.55 5.8 -52.3 6.1 -52.85 6.45 -53.4 6.9 -53.4 7.35 -53.4 7.65 -52.85 8.0 -52.3 8.0 -51.55 M14.9 -52.05 Q15.15 -50.35 14.6 -49.15 14.05 -47.9 13.05 -47.9 12.05 -47.9 11.2 -49.15 10.35 -50.35 10.1 -52.05 9.9 -53.75 10.45 -55.0 10.95 -56.2 11.95 -56.2 12.95 -56.2 13.85 -55.0 14.7 -53.75 14.9 -52.05 M22.05 -52.5 Q22.1 -51.55 21.7 -50.9 21.35 -50.2 20.75 -50.2 20.15 -50.2 19.65 -50.9 19.2 -51.55 19.15 -52.5 19.1 -53.45 19.45 -54.15 19.85 -54.8 20.45 -54.8 21.05 -54.8 21.5 -54.15 L22.05 -52.5 M27.9 -53.25 Q28.0 -51.6 27.35 -50.45 26.7 -49.25 25.65 -49.25 24.6 -49.25 23.75 -50.45 22.9 -51.6 22.8 -53.25 22.65 -54.9 23.3 -56.1 24.0 -57.25 25.05 -57.25 26.1 -57.25 26.9 -56.1 27.75 -54.9 27.9 -53.25 M35.8 -23.9 Q36.75 -22.2 36.6 -20.9 36.5 -19.6 35.3 -19.5 34.1 -19.4 32.55 -20.55 31.05 -21.65 30.1 -23.4 29.15 -25.1 29.2 -26.45 29.4 -27.65 30.6 -27.8 31.8 -27.9 33.25 -26.8 34.85 -25.65 35.8 -23.9 M29.3 -19.75 Q29.9 -18.35 29.65 -17.35 29.45 -16.35 28.6 -16.35 27.75 -16.35 26.7 -17.35 25.7 -18.35 25.1 -19.75 24.55 -21.15 24.75 -22.15 24.95 -23.15 25.8 -23.15 26.65 -23.15 27.7 -22.15 28.75 -21.15 29.3 -19.75 M23.75 -16.6 Q24.2 -15.6 24.05 -14.9 23.9 -14.2 23.25 -14.2 22.6 -14.2 21.85 -14.9 21.1 -15.6 20.65 -16.6 20.25 -17.6 20.35 -18.3 20.5 -19.0 21.15 -19.0 21.8 -19.0 22.55 -18.3 23.35 -17.6 23.75 -16.6 M-25.4 -53.35 Q-25.7 -51.8 -26.6 -50.75 -27.45 -49.65 -28.4 -49.65 -29.35 -49.65 -29.8 -50.75 -30.2 -51.8 -29.9 -53.35 -29.6 -54.9 -28.7 -56.0 -27.85 -57.05 -26.9 -57.05 -25.95 -57.05 -25.5 -56.0 -25.1 -54.9 -25.4 -53.35 M-21.0 -52.2 Q-21.15 -51.35 -21.65 -50.8 -22.2 -50.2 -22.8 -50.2 -23.4 -50.2 -23.65 -50.8 -23.95 -51.35 -23.8 -52.2 L-23.1 -53.65 Q-22.6 -54.2 -22.0 -54.2 -21.4 -54.2 -21.1 -53.65 -20.8 -53.05 -21.0 -52.2 M-11.9 -51.8 Q-12.0 -50.2 -12.75 -49.05 -13.45 -47.9 -14.4 -47.9 -15.35 -47.9 -15.95 -49.05 -16.5 -50.2 -16.4 -51.8 -16.3 -53.4 -15.6 -54.55 -14.85 -55.7 -13.9 -55.7 -12.95 -55.7 -12.4 -54.55 -11.8 -53.4 -11.9 -51.8 M-7.05 -51.4 Q-7.05 -50.75 -7.55 -50.3 -8.0 -49.8 -8.65 -49.8 -9.3 -49.8 -9.8 -50.3 -10.25 -50.75 -10.25 -51.4 L-9.8 -52.55 -8.65 -53.0 Q-8.0 -53.0 -7.55 -52.55 -7.05 -52.05 -7.05 -51.4 M-32.65 -21.25 Q-33.75 -19.8 -35.15 -19.15 -36.55 -18.55 -37.5 -19.15 -38.35 -19.75 -38.15 -21.2 -38.05 -22.65 -36.85 -24.05 -35.75 -25.6 -34.35 -26.1 L-32.1 -26.15 Q-31.15 -25.6 -31.4 -24.15 -31.5 -22.7 -32.65 -21.25 M-27.5 -19.55 Q-27.9 -18.4 -28.7 -17.6 -29.45 -16.8 -30.15 -16.8 -30.85 -16.8 -31.1 -17.6 -31.3 -18.4 -30.9 -19.55 -30.55 -20.7 -29.75 -21.5 -28.95 -22.3 -28.25 -22.3 -27.55 -22.3 -27.35 -21.5 -27.15 -20.7 -27.5 -19.55 M-22.1 -15.3 Q-22.35 -14.4 -22.85 -13.85 -23.3 -13.3 -23.8 -13.45 -24.25 -13.6 -24.45 -14.25 -24.6 -15.0 -24.35 -15.9 L-23.65 -17.35 Q-23.1 -17.95 -22.65 -17.8 -22.15 -17.65 -22.05 -16.95 -21.85 -16.25 -22.1 -15.3" fill="#b6e3ff" fill-rule="evenodd" stroke="none"/>
  </g>
</svg>
