<?xml version="1.0" encoding="UTF-8" standalone="no"?>
<svg xmlns:ffdec="https://www.free-decompiler.com/flash" xmlns:xlink="http://www.w3.org/1999/xlink" ffdec:objectType="shape" height="48.2px" width="120.85px" xmlns="http://www.w3.org/2000/svg">
  <g transform="matrix(1.0, 0.0, 0.0, 1.0, 60.35, 8.1)">
    <path d="M-54.85 2.75 Q-60.7 -0.5 -60.35 -6.25 -57.6 -0.9 -49.1 0.0 -40.65 0.95 -27.15 -8.1 L-28.0 -5.4 Q-31.3 3.9 -38.75 6.2 -42.1 4.1 -45.6 5.45 -49.35 8.05 -48.65 15.35 -46.55 25.7 -35.85 26.95 -32.85 33.75 -23.55 37.6 -29.35 41.2 -34.05 39.6 -40.2 37.35 -40.7 32.45 -45.45 33.7 -48.95 30.65 -53.55 26.6 -52.35 20.1 -58.0 19.75 -59.1 13.65 -59.85 7.2 -54.85 2.75 M23.8 37.65 Q34.25 33.4 35.9 26.5 44.8 26.35 47.85 18.05 49.8 11.9 47.35 7.35 44.55 3.75 40.45 5.95 L38.9 7.1 Q31.4 3.9 28.1 -5.4 L28.0 -5.65 Q46.5 6.0 60.5 -4.85 60.1 -0.1 54.95 2.75 59.95 7.2 59.2 13.65 58.1 19.75 52.45 20.1 53.65 26.6 49.05 30.65 45.55 33.7 40.8 32.45 40.3 37.35 34.15 39.6 29.4 41.2 23.8 37.65" fill="#a684e0" fill-rule="evenodd" stroke="none"/>
  </g>
</svg>
