<?xml version="1.0" encoding="UTF-8" standalone="no"?>
<svg xmlns:ffdec="https://www.free-decompiler.com/flash" xmlns:xlink="http://www.w3.org/1999/xlink" ffdec:objectType="shape" height="55.9px" width="82.8px" xmlns="http://www.w3.org/2000/svg">
  <g transform="matrix(1.0, 0.0, 0.0, 1.0, 41.35, 43.9)">
    <path d="M-10.3 -42.6 Q-5.3 -44.05 0.0 -43.9 L0.1 -43.9 Q5.4 -44.05 10.4 -42.6 22.05 -39.35 30.6 -30.4 39.4 -20.75 41.25 -7.0 42.3 2.7 37.2 12.0 37.2 -3.0 30.5 -12.3 23.8 -18.25 12.4 -20.55 6.25 -21.8 0.05 -21.8 -6.15 -21.8 -12.3 -20.55 -23.7 -18.25 -30.4 -12.3 -37.1 -3.0 -37.1 12.0 -42.2 2.7 -41.15 -7.0 -39.3 -20.75 -30.5 -30.4 -21.95 -39.35 -10.3 -42.6" fill="url(#gradient0)" fill-rule="evenodd" stroke="none"/>
  </g>
  <defs>
    <linearGradient gradientTransform="matrix(0.0, 0.0455, -0.0505, 0.0, 0.05, 11.4)" gradientUnits="userSpaceOnUse" id="gradient0" spreadMethod="pad" x1="-819.2" x2="819.2">
      <stop offset="0.0" stop-color="#7bffdc" stop-opacity="0.0"/>
      <stop offset="1.0" stop-color="#7bffdc" stop-opacity="0.8"/>
    </linearGradient>
  </defs>
</svg>
