<?xml version="1.0" encoding="UTF-8" standalone="no"?>
<svg xmlns:ffdec="https://www.free-decompiler.com/flash" xmlns:xlink="http://www.w3.org/1999/xlink" ffdec:objectType="shape" height="70.4px" width="129.55px" xmlns="http://www.w3.org/2000/svg">
  <g transform="matrix(1.0, 0.0, 0.0, 1.0, 66.25, 37.25)">
    <path d="M16.8 -19.05 L17.4 -23.6 Q18.25 -5.3 26.15 0.85 L28.3 -15.95 Q28.9 -3.75 28.75 6.8 15.15 0.05 16.8 -19.05 M56.15 29.3 Q51.2 34.35 44.3 32.8 38.25 31.4 35.85 26.75 L35.9 26.5 Q44.8 26.35 47.85 18.05 49.8 11.9 47.35 7.35 44.75 4.0 41.1 5.65 45.65 0.85 45.35 -7.85 45.1 -15.1 41.05 -22.45 39.3 -25.6 36.9 -28.8 L40.65 -32.75 40.7 -32.7 44.65 -37.25 Q47.25 20.85 63.3 32.25 59.05 32.1 56.15 29.3 M-45.6 -27.15 Q-45.45 -28.3 -45.8 -29.15 L-46.05 -29.7 Q-46.5 -33.9 -47.5 -37.25 L-42.1 -30.1 -41.8 -30.65 -37.9 -27.5 -41.1 -22.45 Q-45.15 -15.1 -45.4 -7.85 -45.7 0.3 -41.65 5.05 -43.6 4.7 -45.6 5.45 -49.35 8.05 -48.65 15.35 -46.55 25.65 -36.0 26.95 -38.45 31.45 -44.35 32.8 -51.25 34.35 -56.2 29.3 -60.0 33.05 -66.25 32.05 -53.35 28.9 -48.45 2.3 -45.3 -14.85 -45.8 -26.3 L-45.6 -27.15 M3.75 8.7 L2.9 1.35 15.05 0.9 15.0 8.05 3.75 8.7 M-11.3 4.7 L-11.85 0.1 1.85 1.3 1.15 8.7 Q-10.25 9.05 -11.3 4.7 M-11.7 -14.4 Q-15.2 -1.5 -28.75 5.95 L-28.8 0.45 Q-16.35 -1.25 -11.75 -24.4 L-10.55 -21.85 -11.7 -14.4" fill="#a684e0" fill-rule="evenodd" stroke="none"/>
  </g>
</svg>
