<?xml version="1.0" encoding="UTF-8" standalone="no"?>
<svg xmlns:ffdec="https://www.free-decompiler.com/flash" xmlns:xlink="http://www.w3.org/1999/xlink" ffdec:objectType="shape" height="97.1px" width="97.85px" xmlns="http://www.w3.org/2000/svg">
  <g transform="matrix(1.0, 0.0, 0.0, 1.0, 48.75, 34.55)">
    <path d="M26.5 -19.65 Q27.95 -9.3 28.3 1.4 14.55 0.15 12.6 -12.25 12.0 -2.65 14.1 5.3 L5.4 5.3 Q3.25 2.05 2.3 -1.9 L9.0 -1.9 Q8.65 -15.8 14.15 -29.05 15.45 -14.95 22.55 -4.95 26.2 -12.0 25.8 -24.5 L26.5 -19.65 M37.5 26.4 Q45.05 25.6 47.85 18.05 L48.0 17.6 Q49.85 31.1 48.55 44.75 45.55 62.6 22.1 61.3 28.3 55.45 29.45 49.6 21.25 59.5 0.0 62.55 -21.25 59.5 -29.45 49.6 -28.3 55.45 -22.1 61.3 -45.55 62.6 -48.55 44.75 -49.25 30.8 -47.75 18.4 -45.1 25.25 -37.4 26.7 -36.2 35.2 -33.7 40.5 -28.35 49.05 -16.8 51.0 -22.7 45.45 -25.45 36.75 -21.05 38.9 -14.9 40.25 -0.3 43.5 15.05 40.4 21.1 38.95 25.4 36.95 22.6 45.5 16.8 51.0 28.35 49.05 33.7 40.5 36.25 35.1 37.5 26.4 M38.5 6.9 Q38.4 -3.6 37.15 -14.75 43.45 -4.15 45.85 6.05 43.1 4.5 38.5 6.9 M-38.45 7.35 Q-42.1 4.1 -45.55 5.45 -42.5 -7.95 -36.6 -19.2 -38.4 -5.45 -38.45 7.35 M-9.65 -19.6 Q-15.5 -5.85 -11.45 5.95 -19.7 2.8 -20.3 -5.05 -21.65 1.0 -28.35 4.65 L-28.15 -1.6 Q-21.6 -8.1 -20.05 -15.85 L-16.8 -2.85 Q-14.7 -19.3 -7.45 -34.55 L-7.35 -31.95 Q-9.7 -15.25 -6.1 -1.9 L1.6 -1.9 Q1.7 2.2 2.25 5.65 L-7.4 5.65 Q-11.4 -4.85 -9.65 -19.6" fill="#a684e0" fill-rule="evenodd" stroke="none"/>
  </g>
</svg>
