<?xml version="1.0" encoding="UTF-8" standalone="no"?>
<svg xmlns:ffdec="https://www.free-decompiler.com/flash" xmlns:xlink="http://www.w3.org/1999/xlink" ffdec:objectType="shape" height="115.65px" width="120.1px" xmlns="http://www.w3.org/2000/svg">
  <g transform="matrix(1.0, 0.0, 0.0, 1.0, 60.15, 53.0)">
    <path d="M10.0 -22.6 Q8.9 -16.55 8.65 -11.4 14.95 7.85 31.95 9.35 L31.9 8.8 31.8 6.65 Q31.8 -5.35 29.75 -14.2 25.65 -20.05 18.4 -24.8 19.25 -27.2 22.85 -29.75 27.5 -23.85 29.75 -14.2 M0.65 60.85 Q10.4 60.45 15.15 54.15 15.45 59.25 11.6 61.15 34.65 61.35 44.75 49.35 L43.3 57.55 Q61.85 51.15 57.7 30.4 56.0 22.05 55.05 10.3 54.35 -12.4 47.95 -23.85 39.75 -39.35 23.6 -48.05 12.45 -52.65 -0.1 -51.05 -12.65 -52.7 -23.8 -48.05 -39.95 -39.35 -48.15 -23.85 -54.55 -12.4 -55.25 10.3 -56.2 22.05 -57.9 30.4 -62.05 51.15 -43.5 57.55 L-44.95 49.35 Q-34.85 61.35 -11.8 61.15 -15.65 59.25 -15.35 54.15 -10.6 60.4 -0.85 60.85 L-0.05 60.85 0.65 60.85 M37.5 25.95 L37.4 26.4 Q35.05 36.7 30.75 46.0 L31.75 33.0 Q32.35 21.4 31.95 9.35 M-31.95 32.4 Q-31.65 39.3 -30.95 46.0 -35.2 36.85 -37.5 26.7 L-37.7 25.95 Q-39.7 16.75 -39.75 6.55 L-39.75 5.65 Q-39.65 -11.25 -33.85 -29.45 M-7.7 -29.6 Q-12.15 -20.95 -13.1 -9.8 L-13.25 -7.4 Q-12.65 7.85 -2.4 14.5 -3.2 11.85 -3.1 6.2 L-0.85 7.65 0.65 8.45 Q6.75 11.5 14.75 11.65 7.9 4.15 8.65 -11.4 M39.55 6.55 Q39.5 16.75 37.5 25.95 M33.65 -29.45 Q39.6 -10.75 39.55 6.55 M-31.95 32.4 Q-32.55 20.85 -32.1 8.8 L-32.0 6.65 Q-32.0 -5.35 -29.95 -14.2 -27.7 -23.85 -23.05 -29.75 -19.45 -27.2 -18.6 -24.8 -25.85 -20.05 -29.95 -14.2 M-13.1 -9.8 Q-16.45 4.65 -32.1 8.8" fill="none" stroke="#000000" stroke-linecap="round" stroke-linejoin="round" stroke-width="3.0"/>
    <path d="M39.55 6.55 L40.4 5.9 Q41.45 5.2 42.6 5.2 43.75 5.2 44.95 5.95 47.75 7.7 48.4 12.95 L48.5 15.6 Q48.25 17.75 47.2 19.65 L45.4 21.95 Q42.9 24.65 37.5 25.95 M31.75 33.0 Q26.5 37.65 15.05 40.4 -0.3 43.5 -14.9 40.25 -26.4 37.7 -31.95 32.4 M-37.5 26.7 Q-43.65 25.5 -46.5 20.9 -48.7 18.05 -48.7 14.6 L-48.6 12.95 Q-47.95 7.7 -45.15 5.95 -42.35 4.15 -39.75 6.55 M47.2 19.65 L47.85 18.05 48.5 15.6 M-48.7 14.6 L-48.65 15.35 Q-48.0 18.55 -46.5 20.9" fill="none" stroke="#000000" stroke-linecap="round" stroke-linejoin="round" stroke-opacity="0.49803922" stroke-width="1.0"/>
  </g>
</svg>
