<?xml version="1.0" encoding="UTF-8" standalone="no"?>
<svg xmlns:ffdec="https://www.free-decompiler.com/flash" xmlns:xlink="http://www.w3.org/1999/xlink" ffdec:objectType="shape" height="54.15px" width="102.45px" xmlns="http://www.w3.org/2000/svg">
  <g transform="matrix(1.0, 0.0, 0.0, 1.0, 51.35, 28.8)">
    <path d="M-48.2 8.95 Q-51.4 2.25 -51.35 -4.7 -48.8 1.35 -44.65 2.85 -17.7 -4.5 -5.5 -28.8 -7.3 -23.75 -8.15 -18.6 -7.75 9.1 5.15 16.25 4.3 4.5 9.3 -7.25 L10.75 -10.4 Q9.0 1.55 16.25 10.55 26.9 19.8 44.55 17.15 35.3 22.65 21.7 20.65 7.85 16.35 8.45 1.35 7.25 20.15 13.95 25.35 -3.45 20.05 -6.75 7.4 -9.85 -4.2 -8.6 -15.3 -22.25 0.95 -41.85 4.9 -46.15 4.9 -48.2 8.95 M39.4 6.2 L37.45 8.95 Q35.0 4.0 34.35 -2.85 35.45 1.0 40.45 2.85 47.25 2.55 51.1 -4.2 51.0 2.1 48.0 7.9 44.05 3.15 39.4 6.2" fill="#a684e0" fill-rule="evenodd" stroke="none"/>
  </g>
</svg>
