<?xml version="1.0" encoding="UTF-8" standalone="no"?>
<svg xmlns:ffdec="https://www.free-decompiler.com/flash" xmlns:xlink="http://www.w3.org/1999/xlink" ffdec:objectType="shape" height="92.9px" width="132.9px" xmlns="http://www.w3.org/2000/svg">
  <g transform="matrix(1.0, 0.0, 0.0, 1.0, 66.35, 49.45)">
    <path d="M-3.35 -25.0 Q-6.95 -21.2 -9.1 -15.65 L-10.6 -10.75 Q-12.95 -0.5 -7.65 6.65 -3.0 11.2 5.75 9.2 13.85 6.2 16.45 1.5 11.7 2.35 8.9 0.1 5.7 -2.8 7.05 -9.35 L7.4 -10.95 M21.45 -20.35 Q27.6 -11.45 29.0 -1.5 L29.05 -0.8 29.35 4.0 Q28.3 13.65 21.25 16.0 33.85 18.9 40.2 11.8 42.5 9.25 42.75 4.55 43.0 0.15 41.45 -6.2 M56.7 8.05 L56.4 8.35 Q62.05 15.1 59.6 20.4 66.8 15.45 64.45 7.05 62.05 -1.35 53.35 -6.85 L49.8 -7.2 M53.35 -6.85 Q61.2 -7.25 63.6 -18.1 60.6 -14.6 55.1 -16.5 47.95 -19.05 43.4 -25.85 34.3 -45.0 14.5 -47.8 4.5 -48.75 -1.6 -42.6 -9.7 -47.1 -18.2 -46.95 -27.4 -45.15 -34.55 -36.65 -41.75 -28.25 -50.35 -24.2 L-56.05 -24.0 Q-59.4 -27.35 -57.45 -31.25 -65.35 -22.95 -60.0 -14.95 -56.7 -10.85 -49.9 -12.6 L-49.0 -13.2 -47.8 -14.0 M56.4 8.35 Q52.3 12.65 52.75 19.4 54.3 26.45 60.6 26.0 52.8 34.7 44.25 31.25 43.95 41.55 26.05 41.95 L28.55 35.55 M7.05 -9.35 Q8.75 -1.75 18.85 0.35 25.9 2.05 29.0 -1.5 M-40.85 -4.6 Q-41.55 0.45 -41.45 4.7 -41.0 20.0 -29.65 24.15 -33.2 17.9 -32.7 8.95 L-32.65 7.65 -31.75 0.7 M-30.85 34.6 Q-31.05 40.0 -29.4 41.85 -50.5 41.7 -49.15 26.6 -61.75 29.0 -64.85 20.35 -55.65 21.75 -52.5 15.2 -64.8 12.55 -62.45 2.25 -59.5 -6.05 -49.9 -12.6 M-52.5 15.2 Q-51.65 11.55 -53.45 6.9 M-32.7 8.95 Q-16.8 6.4 -10.6 -10.75" fill="none" stroke="#000000" stroke-linecap="round" stroke-linejoin="round" stroke-width="3.0"/>
    <path d="M28.55 35.55 Q34.4 32.0 36.0 26.95 48.95 24.55 48.8 11.55 48.45 4.8 42.75 4.55 M-41.45 4.7 Q-45.7 3.45 -48.25 9.0 -50.55 16.75 -44.7 23.3 -41.1 26.4 -36.2 26.6 -34.0 31.4 -30.85 34.6" fill="none" stroke="#000000" stroke-linecap="round" stroke-linejoin="round" stroke-opacity="0.49803922" stroke-width="1.0"/>
  </g>
</svg>
