<?xml version="1.0" encoding="UTF-8" standalone="no"?>
<svg xmlns:ffdec="https://www.free-decompiler.com/flash" xmlns:xlink="http://www.w3.org/1999/xlink" ffdec:objectType="shape" height="102.2px" width="123.9px" xmlns="http://www.w3.org/2000/svg">
  <g transform="matrix(1.0, 0.0, 0.0, 1.0, 61.9, 60.6)">
    <path d="M23.8 37.65 Q29.4 41.2 34.15 39.6 40.3 37.35 40.8 32.45 45.55 33.7 49.05 30.65 53.65 26.6 52.45 20.1 58.1 19.75 59.2 13.65 59.95 7.2 54.95 2.75 61.9 -1.1 60.15 -8.45 57.9 -14.6 52.6 -17.3 54.6 -22.65 51.2 -28.05 47.85 -33.5 42.2 -33.4 43.6 -38.95 38.95 -43.15 34.35 -47.35 28.35 -46.45 27.45 -50.8 22.15 -53.5 16.85 -56.25 11.7 -54.55 7.15 -58.95 0.05 -59.1 -7.05 -58.95 -11.6 -54.55 -16.75 -56.25 -22.05 -53.5 -27.35 -50.8 -28.25 -46.45 -34.25 -47.35 -38.85 -43.15 -43.5 -38.95 -42.1 -33.4 -47.75 -33.5 -51.1 -28.05 -54.5 -22.65 -52.5 -17.3 -57.8 -14.6 -60.05 -8.45 -61.8 -1.1 -54.85 2.75 -59.85 7.2 -59.1 13.65 -58.0 19.75 -52.35 20.1 -53.55 26.6 -48.95 30.65 -45.45 33.7 -40.7 32.45 -40.2 37.35 -34.05 39.6 -29.35 41.2 -23.55 37.6 M-38.75 6.2 Q-31.3 3.9 -28.0 -5.4 -24.75 -14.75 -27.45 -23.75 -15.8 -29.75 0.05 -30.35 15.9 -29.75 27.55 -23.75 24.85 -14.75 28.1 -5.4 31.4 3.9 38.9 7.1" fill="none" stroke="#000000" stroke-linecap="round" stroke-linejoin="round" stroke-width="3.0"/>
    <path d="M-23.55 37.6 Q-32.85 33.75 -35.85 26.95 -46.55 25.7 -48.65 15.35 -49.35 8.05 -45.6 5.45 -42.1 4.1 -38.75 6.2 M38.9 7.1 L40.45 5.95 Q44.55 3.75 47.35 7.35 49.8 11.9 47.85 18.05 44.8 26.35 35.9 26.5 34.25 33.4 23.8 37.65" fill="none" stroke="#000000" stroke-linecap="round" stroke-linejoin="round" stroke-opacity="0.49803922" stroke-width="1.0"/>
  </g>
</svg>
