<?xml version="1.0" encoding="UTF-8" standalone="no"?>
<svg xmlns:ffdec="https://www.free-decompiler.com/flash" xmlns:xlink="http://www.w3.org/1999/xlink" ffdec:objectType="shape" height="80.3px" width="121.9px" xmlns="http://www.w3.org/2000/svg">
  <g transform="matrix(1.0, 0.0, 0.0, 1.0, 61.75, 67.75)">
    <path d="M-7.45 -44.0 Q-4.05 -56.55 -14.8 -67.15 -5.95 -69.3 -1.6 -63.45 2.35 -57.7 -0.2 -51.8 -2.2 -47.25 -7.45 -44.0" fill="#424f86" fill-rule="evenodd" stroke="none"/>
    <path d="M-7.45 -44.0 Q7.85 -50.4 21.8 -46.2 32.25 -41.6 42.1 -29.25 51.9 -16.85 60.15 -18.85 54.5 -11.1 46.0 -13.0 54.3 -8.35 56.65 -2.95 59.05 2.65 53.4 8.55 53.6 5.1 49.4 0.45 51.4 5.2 48.55 10.0 45.65 3.55 39.6 6.0 35.25 12.3 25.1 12.55 29.75 7.35 30.65 0.55 13.05 -1.4 9.85 -17.8 8.6 -3.85 11.55 1.45 -1.95 0.4 -4.05 -11.4 -5.55 -2.15 -4.05 1.6 -12.75 -7.9 -12.25 -19.3 -16.45 1.85 -34.85 5.85 -31.2 1.3 -28.5 -5.6 -32.2 3.05 -38.65 5.95 -46.7 3.45 -47.95 10.9 -53.25 9.75 -52.35 4.45 -55.15 8.5 -53.65 12.5 -59.2 10.1 -61.3 5.1 -62.9 -0.45 -59.05 -6.05 -53.45 -13.05 -46.35 -16.0 -55.85 -15.2 -60.35 -23.9 -55.45 -21.55 -49.3 -25.2 -40.65 -31.35 -35.6 -37.65 -26.9 -48.35 -16.55 -47.95 -11.15 -47.45 -7.45 -44.0" fill="url(#gradient0)" fill-rule="evenodd" stroke="none"/>
  </g>
  <defs>
    <linearGradient gradientTransform="matrix(0.0, 0.0449, -0.0744, 0.0, -0.8, 10.95)" gradientUnits="userSpaceOnUse" id="gradient0" spreadMethod="pad" x1="-819.2" x2="819.2">
      <stop offset="0.0" stop-color="#7bffdc" stop-opacity="0.0"/>
      <stop offset="1.0" stop-color="#7bffdc" stop-opacity="0.8"/>
    </linearGradient>
  </defs>
</svg>
