<?xml version="1.0" encoding="UTF-8" standalone="no"?>
<svg xmlns:ffdec="https://www.free-decompiler.com/flash" xmlns:xlink="http://www.w3.org/1999/xlink" ffdec:objectType="shape" height="141.35px" width="125.6px" xmlns="http://www.w3.org/2000/svg">
  <g transform="matrix(1.0, 0.0, 0.0, 1.0, 64.15, 70.1)">
    <path d="M-6.65 -45.6 Q-3.85 -50.95 -6.65 -57.85 -9.95 -64.2 -16.85 -69.0 -6.75 -72.3 1.75 -65.9 7.3 -59.7 2.3 -52.25 -0.7 -47.75 -6.65 -45.6 M-8.3 -19.8 Q-15.8 4.3 -38.0 7.3 L-38.85 6.6 Q-42.05 4.05 -45.25 5.75 -48.5 7.45 -48.4 12.5 -48.35 17.5 -47.45 19.5 -55.85 13.5 -54.8 7.4 -58.2 13.1 -55.55 18.05 -63.55 13.55 -64.1 7.6 -64.55 2.6 -61.0 -2.3 L-48.0 -23.05 Q-40.7 -37.05 -32.0 -42.25 -22.1 -47.45 -2.95 -44.9 4.8 -48.1 14.9 -49.0 26.75 -49.05 34.95 -36.9 L53.2 -7.95 Q67.45 11.85 57.15 17.65 56.95 15.0 51.75 10.85 52.8 19.15 45.0 22.25 46.55 20.4 47.55 17.75 49.5 11.6 47.05 7.05 44.3 3.5 40.3 5.6 30.1 13.15 18.4 9.9 4.4 5.8 3.6 -3.25 0.35 5.05 5.25 10.45 -9.75 3.55 -8.3 -19.8 M42.65 56.3 L42.7 58.7 Q44.35 60.6 44.8 62.7 45.8 69.35 37.9 71.25 40.05 67.6 37.5 63.65 35.65 66.55 35.8 69.75 32.95 67.85 32.75 64.05 32.6 60.9 35.3 58.1 L35.6 55.95 Q33.8 54.9 32.5 52.25 32.5 50.8 34.95 48.5 32.95 47.35 31.45 45.7 29.5 43.2 32.25 40.7 30.45 39.0 28.6 34.45 33.1 31.65 34.15 29.1 35.2 26.5 36.55 26.2 L38.7 25.7 41.1 24.85 Q42.65 24.15 43.8 23.45 48.15 28.5 46.8 32.95 46.1 35.4 43.1 38.4 L41.4 40.15 Q44.2 42.7 43.85 45.5 43.55 46.85 42.3 48.1 44.75 49.7 45.1 52.2 44.7 54.45 42.65 56.3" fill="url(#gradient0)" fill-rule="evenodd" stroke="none"/>
  </g>
  <defs>
    <linearGradient gradientTransform="matrix(0.0, 0.0558, -0.0767, 0.0, -1.35, 22.7)" gradientUnits="userSpaceOnUse" id="gradient0" spreadMethod="pad" x1="-819.2" x2="819.2">
      <stop offset="0.0" stop-color="#7bffdc" stop-opacity="0.0"/>
      <stop offset="1.0" stop-color="#7bffdc" stop-opacity="0.8"/>
    </linearGradient>
  </defs>
</svg>
