<?xml version="1.0" encoding="UTF-8" standalone="no"?>
<svg xmlns:ffdec="https://www.free-decompiler.com/flash" xmlns:xlink="http://www.w3.org/1999/xlink" ffdec:objectType="shape" height="111.85px" width="127.1px" xmlns="http://www.w3.org/2000/svg">
  <g transform="matrix(1.0, 0.0, 0.0, 1.0, 63.55, 54.6)">
    <path d="M-29.5 -31.3 Q-35.35 -13.25 -32.25 3.75 -21.35 0.4 -19.6 -12.85 -11.9 -12.15 -6.95 -15.65 -2.05 -19.15 0.0 -26.6 2.05 -19.15 6.95 -15.65 11.9 -12.15 19.6 -12.85 21.35 0.4 32.25 3.75 35.35 -13.25 29.5 -31.3 M0.0 53.7 Q-7.6 58.35 -14.8 52.45 -24.05 57.9 -30.85 52.15 -40.35 57.15 -48.2 48.65 -58.05 50.95 -61.25 45.05 -63.85 39.05 -57.75 31.95 -62.85 23.45 -55.7 14.15 -61.0 2.75 -51.25 -9.2 -53.7 -20.9 -43.85 -28.45 -37.6 -44.15 -21.65 -46.2 -12.3 -56.35 0.0 -51.55 12.3 -56.35 21.65 -46.2 37.6 -44.15 43.85 -28.45 53.7 -20.9 51.25 -9.2 61.0 2.75 55.7 14.15 62.85 23.45 57.75 31.95 63.85 39.05 61.25 45.05 58.05 50.95 48.2 48.65 40.35 57.15 30.85 52.15 24.05 57.9 14.8 52.45 7.6 58.35 0.0 53.7 M-28.3 35.2 Q-30.15 37.15 -33.6 38.2 -28.4 41.35 -32.05 44.5 -37.7 48.05 -42.2 43.7 -39.75 43.7 -38.1 42.2 -35.45 39.95 -38.1 38.4 -42.8 37.75 -43.3 35.4 -43.55 34.2 -40.95 31.0 -44.65 28.8 -44.5 23.35 -44.35 18.1 -40.75 9.95 L-39.85 5.6 Q-38.8 -1.25 -39.55 -6.9 M-32.25 3.75 Q-31.3 9.0 -29.5 14.2 -21.5 26.75 -31.1 29.45 -25.95 31.75 -27.25 33.7 L-28.3 35.2 M28.5 35.35 L27.25 33.7 Q25.95 31.75 31.1 29.45 21.5 26.75 29.5 14.2 31.3 9.0 32.25 3.75 M40.0 6.3 L40.75 9.95 Q44.4 18.15 44.55 23.35 44.65 28.8 40.95 31.0 43.55 34.2 43.3 35.4 42.8 37.75 38.1 38.4 35.45 39.95 38.1 42.2 39.75 43.7 42.2 43.7 37.7 48.05 32.05 44.5 28.4 41.35 33.6 38.2 30.3 37.2 28.5 35.35 M40.0 6.3 Q38.75 -0.95 39.55 -6.9" fill="none" stroke="#000000" stroke-linecap="round" stroke-linejoin="round" stroke-width="3.0"/>
    <path d="M-44.5 23.35 Q-47.6 20.45 -48.65 15.35 -49.35 8.05 -45.6 5.45 L-39.85 5.6 M-28.3 35.2 Q-23.1 38.45 -14.9 40.25 -0.3 43.5 15.05 40.4 23.4 38.35 28.5 35.35 M44.55 23.35 Q46.65 21.3 47.85 18.05 49.8 11.9 47.35 7.35 44.55 3.8 40.0 6.3" fill="none" stroke="#000000" stroke-linecap="round" stroke-linejoin="round" stroke-opacity="0.49803922" stroke-width="1.0"/>
  </g>
</svg>
