<?xml version="1.0" encoding="UTF-8" standalone="no"?>
<svg xmlns:ffdec="https://www.free-decompiler.com/flash" xmlns:xlink="http://www.w3.org/1999/xlink" ffdec:objectType="shape" height="102.85px" width="139.8px" xmlns="http://www.w3.org/2000/svg">
  <g transform="matrix(1.0, 0.0, 0.0, 1.0, 70.05, 50.35)">
    <path d="M40.4 25.8 Q45.65 24.05 47.85 18.05 49.8 11.9 47.35 7.35 44.55 3.75 40.45 5.95 L37.65 8.05 Q36.75 21.9 34.6 29.7 35.5 28.15 35.9 26.5 L40.4 25.8 M29.2 4.7 Q19.6 1.15 15.55 -7.6 15.25 0.4 12.35 6.95 8.1 5.2 -0.15 5.2 -8.4 5.2 -12.65 6.95 -15.55 0.4 -15.85 -7.6 -19.9 1.15 -29.5 4.7 L-29.35 15.65 Q-28.35 26.7 -26.25 36.35 -21.6 38.75 -14.9 40.25 -0.3 43.5 15.05 40.4 21.45 38.85 25.9 36.75 28.0 26.95 29.05 15.65 L29.2 4.7 M44.65 33.8 Q42.2 40.55 27.0 45.15 24.5 48.9 21.4 52.5 L23.75 45.2 Q19.3 45.75 16.55 42.25 12.55 46.75 -0.15 47.4 -12.85 46.75 -16.85 42.25 -19.6 45.75 -24.05 45.2 L-21.7 52.5 Q-24.8 48.9 -27.3 45.15 -42.5 40.55 -44.95 33.8 -46.75 35.1 -49.3 35.5 -56.95 36.65 -64.05 32.35 -71.1 28.0 -69.85 17.35 -68.4 24.2 -62.25 20.75 -53.7 16.3 -53.8 2.2 -52.75 -20.0 -39.75 -34.0 -25.55 -50.75 -0.15 -50.35 25.25 -50.75 39.45 -34.0 52.45 -20.0 53.5 2.2 53.4 16.3 61.95 20.75 68.1 24.2 69.55 17.35 70.8 28.0 63.75 32.35 56.65 36.65 49.0 35.5 46.45 35.1 44.65 33.8 M-35.45 27.8 Q-37.3 19.6 -37.7 9.75 L-37.7 7.0 Q-42.1 4.1 -45.6 5.45 -49.35 8.05 -48.65 15.35 -47.05 23.1 -40.65 25.75 -38.55 26.65 -35.85 26.95 L-35.45 27.8" fill="#424f86" fill-rule="evenodd" stroke="none"/>
  </g>
</svg>
