<?xml version="1.0" encoding="UTF-8" standalone="no"?>
<svg xmlns:ffdec="https://www.free-decompiler.com/flash" xmlns:xlink="http://www.w3.org/1999/xlink" ffdec:objectType="shape" height="83.3px" width="124.9px" xmlns="http://www.w3.org/2000/svg">
  <g transform="matrix(1.0, 0.0, 0.0, 1.0, 63.25, 69.25)">
    <path d="M-8.7 -32.95 Q-11.95 -25.8 -12.25 -19.3 -12.75 -7.9 -4.05 1.6 -5.55 -2.15 -4.05 -11.4 -1.95 0.4 11.55 1.45 8.6 -3.85 9.85 -17.8 L9.95 -18.8 M45.35 -13.35 L46.0 -13.0 Q54.5 -11.1 60.15 -18.85 51.9 -16.85 42.1 -29.25 32.25 -41.6 21.8 -46.2 7.85 -50.4 -7.45 -44.0 -11.15 -47.45 -16.55 -47.95 -26.9 -48.35 -35.6 -37.65 -40.65 -31.35 -49.3 -25.2 -55.45 -21.55 -60.35 -23.9 -55.85 -15.2 -46.35 -16.0 L-43.8 -16.4 M48.7 -0.95 L49.4 0.45 Q53.6 5.1 53.4 8.55 59.05 2.65 56.65 -2.95 54.3 -8.35 46.0 -13.0 M49.4 0.45 Q51.4 5.2 48.55 10.0 M39.6 6.0 Q35.25 12.3 25.1 12.55 29.75 7.35 30.65 0.55 13.05 -1.4 9.85 -17.8 M27.2 -18.5 Q31.7 -7.75 30.65 0.55 M39.6 6.0 Q42.9 1.15 42.8 -7.25 M-7.45 -44.0 Q-4.05 -56.55 -14.8 -67.15 -5.95 -69.3 -1.6 -63.45 2.35 -57.7 -0.2 -51.8 -2.2 -47.25 -7.45 -44.0 M-46.35 -16.0 Q-53.45 -13.05 -59.05 -6.05 -62.9 -0.45 -61.3 5.1 -59.2 10.1 -53.65 12.5 -55.15 8.5 -52.35 4.45 -51.35 2.95 -49.8 1.5 M-27.3 -9.1 L-28.15 -6.55 -28.5 -5.6 Q-31.2 1.3 -34.85 5.85 -16.45 1.85 -12.25 -19.3 M-52.35 4.45 Q-53.25 9.75 -47.95 10.9 M-38.65 5.95 Q-32.2 3.05 -28.5 -5.6" fill="none" stroke="#000000" stroke-linecap="round" stroke-linejoin="round" stroke-width="3.0"/>
    <path d="M48.55 10.0 Q45.65 3.55 39.6 6.0 M-47.95 10.9 Q-46.7 3.45 -38.65 5.95" fill="none" stroke="#000000" stroke-linecap="round" stroke-linejoin="round" stroke-opacity="0.49803922" stroke-width="1.0"/>
  </g>
</svg>
