<?xml version="1.0" encoding="UTF-8" standalone="no"?>
<svg xmlns:ffdec="https://www.free-decompiler.com/flash" xmlns:xlink="http://www.w3.org/1999/xlink" ffdec:objectType="shape" height="38.65px" width="128.7px" xmlns="http://www.w3.org/2000/svg">
  <g transform="matrix(1.0, 0.0, 0.0, 1.0, 64.6, 32.3)">
    <path d="M-63.65 -20.4 Q-65.15 -26.45 -64.3 -32.3 -58.45 -17.9 -41.05 -21.7 -42.55 -18.95 -43.65 -15.95 -44.9 -10.85 -45.0 -6.4 -58.75 -6.65 -63.65 -20.4 M-42.45 6.35 L-43.05 5.05 -42.95 4.95 Q-14.85 4.1 -0.2 -28.95 12.25 0.05 42.6 5.0 L41.95 6.35 Q22.25 6.1 11.25 -4.5 2.2 -13.2 -0.25 -22.65 -2.7 -13.2 -11.75 -4.5 -22.75 6.1 -42.45 6.35 M43.15 -15.95 L40.3 -22.2 Q54.3 -17.4 64.1 -29.25 64.25 -24.85 63.15 -20.4 58.25 -6.65 44.5 -6.4 44.4 -10.85 43.15 -15.95" fill="#a684e0" fill-rule="evenodd" stroke="none"/>
  </g>
</svg>
