<?xml version="1.0" encoding="UTF-8" standalone="no"?>
<svg xmlns:ffdec="https://www.free-decompiler.com/flash" xmlns:xlink="http://www.w3.org/1999/xlink" ffdec:objectType="shape" height="59.2px" width="145.2px" xmlns="http://www.w3.org/2000/svg">
  <g transform="matrix(1.0, 0.0, 0.0, 1.0, 72.7, 50.6)">
    <path d="M32.5 -49.1 Q23.25 -47.25 22.25 -40.7 L22.4 -40.65 Q37.9 -30.9 43.3 -15.95 45.45 -7.0 44.2 -0.05 45.8 7.85 55.25 7.0 67.2 5.2 71.0 -1.0 57.9 -0.3 55.95 -22.0 55.6 -26.9 54.75 -30.7 51.1 -43.3 41.6 -47.15 37.3 -49.15 32.5 -49.1 M22.25 -40.7 L21.4 -41.25 Q10.1 -47.1 -0.1 -46.75 -10.3 -47.1 -21.6 -41.25 -22.05 -41.0 -22.45 -40.7 L-22.6 -40.65 Q-38.1 -30.9 -43.5 -15.95 -45.65 -7.0 -44.4 -0.05 -43.8 3.4 -42.3 6.35 -22.6 6.1 -11.6 -4.5 -2.55 -13.2 -0.1 -22.65 2.35 -13.2 11.4 -4.5 22.4 6.1 42.1 6.35 43.6 3.4 44.2 -0.05 M-22.45 -40.7 Q-23.45 -47.25 -32.7 -49.1 -37.5 -49.15 -41.8 -47.15 -51.3 -43.3 -54.95 -30.7 -55.8 -26.9 -56.15 -22.0 -58.1 -0.3 -71.2 -1.0 -67.4 5.2 -55.45 7.0 -46.0 7.85 -44.4 -0.05" fill="none" stroke="#000000" stroke-linecap="round" stroke-linejoin="round" stroke-width="3.0"/>
  </g>
</svg>
