<?xml version="1.0" encoding="UTF-8" standalone="no"?>
<svg xmlns:ffdec="https://www.free-decompiler.com/flash" xmlns:xlink="http://www.w3.org/1999/xlink" ffdec:objectType="shape" height="13.95px" width="67.4px" xmlns="http://www.w3.org/2000/svg">
  <g transform="matrix(1.0, 0.0, 0.0, 1.0, 35.75, 36.95)">
    <path d="M30.4 -34.35 Q31.4 -33.0 31.65 -31.75 31.7 -30.8 31.25 -30.35 L30.95 -30.25 29.5 -30.4 Q29.15 -30.45 28.85 -30.65 27.5 -31.45 26.5 -32.75 25.45 -34.15 25.25 -35.4 25.05 -36.55 25.9 -36.85 26.65 -37.2 27.95 -36.45 29.3 -35.75 30.4 -34.35 M23.9 -29.95 Q24.4 -28.95 24.4 -28.05 24.35 -27.1 23.7 -26.8 23.15 -26.45 22.35 -27.0 21.5 -27.5 21.0 -28.45 20.45 -29.5 20.55 -30.35 20.65 -31.3 21.2 -31.65 21.8 -31.95 22.55 -31.4 23.35 -30.95 23.9 -29.95 M15.5 -26.15 Q16.0 -25.2 15.95 -24.3 15.85 -23.35 15.25 -23.1 14.65 -22.8 13.95 -23.3 13.2 -23.85 12.7 -24.9 12.2 -25.85 12.3 -26.75 12.4 -27.7 12.95 -28.0 13.6 -28.25 14.3 -27.7 15.0 -27.15 15.5 -26.15 M-30.2 -30.25 Q-31.3 -28.5 -32.8 -27.55 -34.2 -26.55 -35.05 -26.9 -35.9 -27.25 -35.75 -28.9 -35.55 -30.3 -34.4 -32.05 -33.35 -33.8 -31.85 -34.85 -30.4 -35.75 -29.55 -35.35 -28.7 -35.05 -28.9 -33.55 -29.1 -32.0 -30.2 -30.25 M-25.8 -27.15 Q-26.25 -26.1 -26.95 -25.45 -27.5 -24.8 -28.0 -24.9 -28.5 -25.0 -28.6 -25.7 -28.55 -26.5 -28.1 -27.55 L-27.05 -29.25 Q-26.35 -29.85 -25.85 -29.8 -25.35 -29.7 -25.4 -29.0 -25.35 -28.2 -25.8 -27.15" fill="#b6e3ff" fill-rule="evenodd" stroke="none"/>
  </g>
</svg>
