<?xml version="1.0" encoding="UTF-8" standalone="no"?>
<svg xmlns:ffdec="https://www.free-decompiler.com/flash" xmlns:xlink="http://www.w3.org/1999/xlink" ffdec:objectType="shape" height="31.85px" width="115.8px" xmlns="http://www.w3.org/2000/svg">
  <g transform="matrix(1.0, 0.0, 0.0, 1.0, 58.6, 47.1)">
    <path d="M33.4 -25.6 Q34.05 -23.95 33.7 -22.55 33.45 -21.1 32.35 -20.85 31.2 -20.55 29.95 -21.5 28.7 -22.5 28.05 -24.15 27.35 -25.85 27.7 -27.25 28.0 -28.7 29.15 -29.0 30.25 -29.25 31.45 -28.3 32.7 -27.3 33.4 -25.6 M17.65 -17.7 Q17.65 -16.7 17.2 -16.0 16.75 -15.25 16.15 -15.25 15.55 -15.25 15.1 -16.0 14.65 -16.7 14.65 -17.7 14.65 -18.7 15.1 -19.45 15.55 -20.15 16.15 -20.15 16.75 -20.15 17.2 -19.45 L17.65 -17.7 M24.7 -21.6 Q24.95 -20.1 24.55 -18.95 24.1 -17.75 23.2 -17.6 22.3 -17.4 21.5 -18.4 20.65 -19.35 20.4 -20.85 20.1 -22.4 20.55 -23.55 21.0 -24.7 21.9 -24.9 22.8 -25.05 23.6 -24.1 24.4 -23.15 24.7 -21.6 M56.75 -43.95 Q57.4 -42.3 57.15 -40.85 56.85 -39.3 55.8 -38.85 54.75 -38.45 53.55 -39.4 52.3 -40.25 51.65 -41.9 51.0 -43.6 51.25 -45.1 51.55 -46.55 52.6 -46.95 53.65 -47.4 54.85 -46.55 56.1 -45.65 56.75 -43.95 M50.05 -39.8 Q50.45 -38.7 50.35 -37.75 50.25 -36.85 49.65 -36.65 49.1 -36.4 48.4 -37.0 47.65 -37.6 47.25 -38.7 46.85 -39.75 47.0 -40.65 47.1 -41.55 47.65 -41.8 48.25 -42.0 48.95 -41.4 49.65 -40.85 50.05 -39.8 M45.15 -35.7 Q45.45 -34.05 45.1 -32.9 44.75 -31.75 43.95 -31.75 43.15 -31.75 42.35 -32.9 41.55 -34.05 41.25 -35.7 40.95 -37.35 41.25 -38.5 41.65 -39.65 42.45 -39.65 43.25 -39.65 44.0 -38.5 44.85 -37.35 45.15 -35.7 M-48.15 -37.65 Q-48.35 -36.75 -49.05 -36.2 -49.6 -35.65 -50.25 -35.85 -50.85 -36.0 -51.2 -36.8 -51.45 -37.55 -51.25 -38.45 -51.0 -39.4 -50.35 -39.95 -49.7 -40.45 -49.1 -40.3 -48.45 -40.1 -48.2 -39.35 -47.9 -38.6 -48.15 -37.65 M-41.9 -35.65 Q-42.05 -33.95 -42.85 -32.8 -43.6 -31.6 -44.55 -31.6 -45.5 -31.6 -46.1 -32.8 -46.65 -33.95 -46.5 -35.65 -46.35 -37.35 -45.6 -38.55 -44.8 -39.7 -43.85 -39.7 -42.9 -39.7 -42.35 -38.55 -41.75 -37.35 -41.9 -35.65 M-52.35 -41.0 Q-53.15 -39.2 -54.5 -38.35 -55.9 -37.4 -57.1 -37.95 -58.25 -38.45 -58.55 -40.15 -58.8 -41.7 -58.0 -43.5 -57.25 -45.3 -55.85 -46.2 -54.5 -47.05 -53.35 -46.55 -52.15 -46.0 -51.8 -44.4 -51.6 -42.8 -52.35 -41.0 M-28.05 -23.0 Q-28.55 -21.1 -29.7 -20.05 -30.8 -18.95 -31.95 -19.25 -33.05 -19.55 -33.5 -21.05 -33.95 -22.55 -33.45 -24.45 -32.95 -26.35 -31.8 -27.45 -30.65 -28.55 -29.55 -28.25 -28.4 -27.95 -28.0 -26.45 -27.55 -24.9 -28.05 -23.0 M-21.5 -20.9 Q-21.7 -19.55 -22.4 -18.65 -23.1 -17.7 -23.95 -17.7 -24.8 -17.7 -25.3 -18.65 -25.8 -19.55 -25.6 -20.9 -25.45 -22.25 -24.7 -23.2 -24.0 -24.1 -23.15 -24.1 -22.3 -24.1 -21.8 -23.2 -21.35 -22.25 -21.5 -20.9 M-16.25 -18.05 Q-16.25 -17.1 -16.65 -16.45 -17.0 -15.75 -17.5 -15.75 -18.0 -15.75 -18.4 -16.45 -18.75 -17.1 -18.75 -18.05 -18.75 -19.0 -18.4 -19.7 L-17.5 -20.35 Q-17.0 -20.35 -16.65 -19.7 -16.25 -19.0 -16.25 -18.05" fill="#b6e3ff" fill-rule="evenodd" stroke="none"/>
  </g>
</svg>
