<?xml version="1.0" encoding="UTF-8" standalone="no"?>
<svg xmlns:ffdec="https://www.free-decompiler.com/flash" xmlns:xlink="http://www.w3.org/1999/xlink" ffdec:objectType="shape" height="101.9px" width="138.55px" xmlns="http://www.w3.org/2000/svg">
  <g transform="matrix(1.0, 0.0, 0.0, 1.0, 72.2, 52.4)">
    <path d="M14.8 40.45 L12.7 45.95 Q26.75 45.65 36.55 33.3 35.9 37.15 34.4 40.85 52.1 35.95 51.9 20.75 60.4 23.4 64.85 16.5 55.2 13.2 51.7 -2.8 48.9 -20.8 43.55 -28.6 29.8 -48.6 7.05 -50.5 -4.55 -52.05 -13.65 -47.25 -20.9 -51.05 -27.45 -48.25 -41.55 -41.35 -50.0 -24.5 -58.05 -8.7 -70.7 -12.35 -65.9 -1.55 -52.05 -4.65 -65.15 17.5 -50.85 34.6 -52.55 29.8 -49.9 23.25 L-49.2 21.6 M36.0 12.5 Q38.3 16.7 41.75 19.95 L36.05 20.25 Q24.05 19.55 15.65 6.75 17.2 16.65 26.1 24.2 9.45 26.65 -0.05 15.4 0.4 21.55 4.0 25.8 -8.2 22.7 -12.85 13.55 -10.8 18.65 -7.1 22.75 -23.55 22.05 -28.55 9.85 -28.75 19.75 -26.85 25.6 -33.45 21.95 -36.5 17.9 -40.85 12.1 -42.45 4.95 -44.6 -4.35 -42.1 -16.0 M14.35 40.55 L15.0 39.85 14.8 40.45 14.35 40.55 Q10.25 44.55 3.05 48.0 -3.85 44.7 -7.8 41.5 -8.0 44.45 -6.2 47.35 -25.15 45.65 -29.75 35.4 -29.0 40.2 -29.75 43.15 L-28.9 43.95 Q-49.35 38.5 -49.9 23.25 M15.65 6.75 L14.75 5.3 M31.2 -5.45 Q31.85 5.05 36.0 12.5 M-7.0 -46.6 Q-20.1 -31.2 -16.85 -10.25 -16.25 -7.25 -15.25 -4.7 -10.25 7.9 5.15 7.95 -1.35 2.8 -2.65 -9.85 -3.4 -16.95 -0.9 -28.15 M-0.05 15.4 L-0.1 13.85 M-28.55 9.85 L-28.5 7.95 M-15.25 -4.7 Q-16.35 6.6 -12.85 13.55" fill="none" stroke="#000000" stroke-linecap="round" stroke-linejoin="round" stroke-width="3.0"/>
    <path d="M14.8 40.45 L15.05 40.4 Q33.65 35.9 35.9 26.5 L36.9 26.45 Q44.95 25.85 47.85 18.05 49.8 11.9 47.35 7.35 44.55 3.75 40.45 5.95 37.75 7.05 36.0 12.5 M-42.45 4.95 Q-44.0 4.85 -45.6 5.45 -49.35 8.05 -48.65 15.35 -46.55 25.65 -36.05 26.95 L-35.85 26.95 Q-31.65 36.55 -14.9 40.25 -0.65 43.45 14.35 40.55" fill="none" stroke="#000000" stroke-linecap="round" stroke-linejoin="round" stroke-opacity="0.49803922" stroke-width="1.0"/>
  </g>
</svg>
