<?xml version="1.0" encoding="UTF-8" standalone="no"?>
<svg xmlns:ffdec="https://www.free-decompiler.com/flash" xmlns:xlink="http://www.w3.org/1999/xlink" ffdec:objectType="shape" height="88.8px" width="102.95px" xmlns="http://www.w3.org/2000/svg">
  <g transform="matrix(1.0, 0.0, 0.0, 1.0, 41.35, 76.05)">
    <path d="M-7.8 -41.0 Q-6.65 -53.25 -0.95 -60.65 3.95 -66.55 9.4 -65.25 13.8 -64.05 16.9 -59.85 18.8 -57.3 23.9 -54.3 37.15 -46.1 48.0 -58.55 46.9 -44.3 33.55 -40.8 L46.15 -32.55 Q57.3 -26.85 61.6 -34.5 61.25 -19.1 48.5 -16.45 54.8 -14.95 59.1 -16.45 56.95 -8.4 47.7 -4.6 40.7 -1.2 37.65 -3.6 41.85 1.25 50.85 -1.3 47.5 4.6 42.05 7.7 31.75 14.35 18.95 11.35 6.05 5.6 2.1 -4.0 1.0 8.15 7.25 12.75 -7.75 11.75 -9.95 -0.85 -11.8 -10.2 -9.2 -17.45 -20.85 -17.2 -30.4 -12.3 -37.1 -3.0 -37.1 12.0 -42.2 2.7 -41.15 -7.0 -39.3 -20.75 -30.5 -30.4 -21.95 -39.35 -11.3 -41.7 -25.2 -46.15 -26.3 -54.7 -24.35 -71.1 -8.55 -76.05 -14.5 -65.15 -14.1 -56.75 -13.7 -48.4 -7.8 -41.0" fill="#424f86" fill-rule="evenodd" stroke="none"/>
  </g>
</svg>
