<?xml version="1.0" encoding="UTF-8" standalone="no"?>
<svg xmlns:ffdec="https://www.free-decompiler.com/flash" xmlns:xlink="http://www.w3.org/1999/xlink" ffdec:objectType="shape" height="51.35px" width="119.65px" xmlns="http://www.w3.org/2000/svg">
  <g transform="matrix(1.0, 0.0, 0.0, 1.0, 58.95, 27.05)">
    <path d="M29.85 10.05 Q11.7 4.45 7.95 -10.1 8.15 -15.35 8.75 -20.8 7.6 -2.1 26.2 3.25 27.6 -8.5 22.2 -26.95 25.1 -22.9 27.75 -15.9 L29.35 -7.0 Q30.5 2.55 29.85 10.05 M58.6 10.6 Q58.5 4.95 55.55 0.3 52.95 5.85 55.0 13.7 56.05 17.8 60.25 18.55 54.3 23.95 46.9 20.4 47.85 18.9 48.4 17.05 L48.55 17.05 48.45 16.85 Q48.95 14.9 48.6 10.95 48.35 7.8 46.45 6.3 44.7 5.45 44.25 6.05 42.1 -1.7 41.7 -13.1 59.45 -3.3 60.7 6.85 59.95 8.7 58.6 10.6 M-53.6 15.4 L-53.7 15.4 Q-68.55 4.05 -41.2 -12.95 -45.5 -2.8 -44.05 4.85 L-44.05 4.9 Q-48.25 7.1 -48.85 13.5 -49.1 15.8 -48.1 17.8 -47.35 19.35 -45.85 20.75 -49.8 25.35 -56.25 24.0 -53.75 21.5 -52.8 15.9 L-52.7 15.3 Q-52.0 9.1 -54.9 2.9 -56.75 6.2 -56.7 9.15 -56.2 12.05 -53.6 15.4 M-11.55 -9.7 Q-15.3 3.9 -28.95 7.55 -31.45 -0.3 -29.35 -11.1 L-28.85 -13.15 -25.5 -20.55 Q-30.1 -8.2 -26.55 2.7 -14.25 -5.25 -10.7 -20.7 L-9.7 -27.05 Q-11.0 -6.45 -4.75 7.65 L-2.85 -2.05 Q-2.55 9.1 9.05 16.95 1.7 15.45 -2.7 11.1 L-1.0 17.45 Q-8.7 12.85 -10.75 1.25 -11.65 -3.75 -11.55 -9.7" fill="#a684e0" fill-rule="evenodd" stroke="none"/>
  </g>
</svg>
