<?xml version="1.0" encoding="UTF-8" standalone="no"?>
<svg xmlns:ffdec="https://www.free-decompiler.com/flash" xmlns:xlink="http://www.w3.org/1999/xlink" ffdec:objectType="shape" height="27.85px" width="103.15px" xmlns="http://www.w3.org/2000/svg">
  <g transform="matrix(1.0, 0.0, 0.0, 1.0, 51.05, 39.95)">
    <path d="M37.7 -24.0 Q37.95 -22.65 37.5 -21.7 37.05 -20.7 36.15 -20.7 35.25 -20.7 34.4 -21.7 33.55 -22.65 33.3 -24.0 33.05 -25.35 33.5 -26.35 33.95 -27.3 34.85 -27.3 35.75 -27.3 36.6 -26.35 37.45 -25.35 37.7 -24.0 M20.3 -15.7 Q20.3 -14.2 19.7 -13.15 19.1 -12.1 18.25 -12.1 17.4 -12.1 16.8 -13.15 16.2 -14.2 16.2 -15.7 16.2 -17.2 16.8 -18.25 17.4 -19.3 18.25 -19.3 19.1 -19.3 19.7 -18.25 20.3 -17.2 20.3 -15.7 M31.9 -20.5 Q32.15 -19.35 31.9 -18.55 31.65 -17.75 31.05 -17.75 30.45 -17.75 29.85 -18.55 29.25 -19.35 29.0 -20.5 28.75 -21.65 29.0 -22.45 29.25 -23.25 29.85 -23.25 30.45 -23.25 31.05 -22.45 31.65 -21.65 31.9 -20.5 M51.75 -35.75 Q52.3 -34.1 51.95 -32.95 51.65 -31.8 50.7 -31.8 49.75 -31.8 48.7 -32.95 47.7 -34.1 47.15 -35.75 46.65 -37.4 46.95 -38.55 47.25 -39.7 48.2 -39.7 49.15 -39.7 50.2 -38.55 51.25 -37.4 51.75 -35.75 M45.1 -31.25 Q45.4 -30.15 45.1 -29.25 44.85 -28.35 44.2 -28.15 43.5 -28.0 42.8 -28.65 42.2 -29.3 41.9 -30.4 41.6 -31.5 41.8 -32.4 42.1 -33.3 42.8 -33.45 43.45 -33.65 44.1 -33.0 44.8 -32.35 45.1 -31.25 M-45.4 -35.0 Q-45.9 -32.95 -47.05 -31.5 -48.15 -30.05 -49.25 -30.05 -50.35 -30.05 -50.85 -31.5 -51.3 -32.95 -50.8 -35.0 -50.35 -37.05 -49.2 -38.5 -48.05 -39.95 -46.95 -39.95 -45.85 -39.95 -45.4 -38.5 -44.95 -37.05 -45.4 -35.0 M-41.8 -31.1 Q-41.95 -30.2 -42.45 -29.6 -42.85 -28.95 -43.3 -29.0 -43.8 -29.05 -44.15 -29.8 -44.4 -30.5 -44.25 -31.4 L-43.7 -33.0 Q-43.2 -33.6 -42.7 -33.55 -42.25 -33.5 -42.0 -32.8 -41.7 -32.05 -41.8 -31.1 M-31.85 -23.65 Q-32.25 -22.3 -33.15 -21.35 -34.0 -20.4 -34.85 -20.4 -35.7 -20.4 -36.05 -21.35 -36.35 -22.3 -35.95 -23.65 -35.55 -25.0 -34.7 -25.95 -33.8 -26.9 -32.95 -26.9 -32.1 -26.9 -31.8 -25.95 -31.45 -25.0 -31.85 -23.65 M-29.1 -19.85 Q-29.2 -19.2 -29.55 -18.85 -29.95 -18.4 -30.35 -18.45 L-30.95 -19.1 -31.05 -20.25 -30.55 -21.3 Q-30.15 -21.7 -29.75 -21.6 -29.35 -21.55 -29.15 -21.05 -28.95 -20.45 -29.1 -19.85 M-14.85 -15.8 Q-14.85 -14.35 -15.45 -13.35 -16.05 -12.3 -16.9 -12.3 -17.75 -12.3 -18.35 -13.35 -18.95 -14.35 -18.95 -15.8 -18.95 -17.25 -18.35 -18.3 -17.75 -19.3 -16.9 -19.3 -16.05 -19.3 -15.45 -18.3 -14.85 -17.25 -14.85 -15.8" fill="#b6e3ff" fill-rule="evenodd" stroke="none"/>
  </g>
</svg>
