<?xml version="1.0" encoding="UTF-8" standalone="no"?>
<svg xmlns:ffdec="https://www.free-decompiler.com/flash" xmlns:xlink="http://www.w3.org/1999/xlink" ffdec:objectType="shape" height="85.3px" width="135.9px" xmlns="http://www.w3.org/2000/svg">
  <g transform="matrix(1.0, 0.0, 0.0, 1.0, 69.75, 50.45)">
    <path d="M40.2 6.2 L42.15 8.6 Q24.5 8.45 20.55 -6.8 18.3 10.8 -0.1 16.15 3.25 10.0 3.4 1.55 1.7 11.55 -9.95 14.3 -3.5 1.85 -6.35 -16.35 -6.7 -18.8 -7.3 -21.1 -14.3 -22.1 -19.8 -19.85 -18.95 -2.65 -31.2 4.0 -28.2 11.35 -20.7 15.0 -33.45 15.85 -38.9 9.75 -40.95 7.75 -42.2 4.95 -43.9 4.8 -45.6 5.45 -49.35 8.05 -48.65 15.35 -46.55 25.7 -35.85 26.95 -33.85 31.5 -29.05 34.7 -44.65 35.8 -51.4 28.7 -47.05 26.45 -45.8 22.95 -61.3 18.1 -66.8 7.25 -58.25 4.8 -52.0 -3.0 -63.15 -2.75 -69.75 -9.9 -55.3 -8.65 -46.2 -26.2 -36.0 -42.6 -22.4 -47.1 -14.5 -48.7 -8.2 -43.85 -0.9 -50.45 8.4 -50.45 19.7 -49.0 30.05 -37.5 39.55 -25.95 48.75 -17.4 59.6 -7.95 66.1 -11.4 62.5 -1.25 50.95 1.85 56.1 8.5 66.15 8.95 59.85 18.55 49.05 19.2 50.85 21.25 56.15 23.3 45.75 33.15 30.7 33.85 34.9 30.65 35.9 26.5 44.8 26.35 47.85 18.05 49.8 11.9 47.35 7.35 L46.65 6.55 Q44.15 4.25 40.5 6.05 L40.2 6.2" fill="url(#gradient0)" fill-rule="evenodd" stroke="none"/>
  </g>
  <defs>
    <linearGradient gradientTransform="matrix(0.0, 0.0448, -0.0829, 0.0, -1.8, 11.95)" gradientUnits="userSpaceOnUse" id="gradient0" spreadMethod="pad" x1="-819.2" x2="819.2">
      <stop offset="0.0" stop-color="#7bffdc" stop-opacity="0.0"/>
      <stop offset="1.0" stop-color="#7bffdc" stop-opacity="0.8"/>
    </linearGradient>
  </defs>
</svg>
