<?xml version="1.0" encoding="UTF-8" standalone="no"?>
<svg xmlns:ffdec="https://www.free-decompiler.com/flash" xmlns:xlink="http://www.w3.org/1999/xlink" ffdec:objectType="shape" height="47.8px" width="140.3px" xmlns="http://www.w3.org/2000/svg">
  <g transform="matrix(1.0, 0.0, 0.0, 1.0, 70.1, 40.7)">
    <path d="M55.25 7.0 Q45.8 7.85 44.2 -0.05 45.45 -7.0 43.3 -15.95 38.35 -29.65 24.9 -39.0 29.65 -42.65 36.5 -38.45 45.15 -29.8 47.75 -11.4 50.35 6.95 70.2 0.15 66.05 5.35 55.25 7.0 M-55.45 7.0 Q-65.85 5.45 -70.1 0.55 -56.35 5.9 -51.85 -0.8 -49.65 -4.1 -48.95 -9.35 -47.9 -24.25 -40.15 -34.35 -36.5 -39.05 -27.35 -37.35 -38.95 -28.5 -43.5 -15.95 -45.65 -7.0 -44.4 -0.05 -46.0 7.85 -55.45 7.0 M-42.3 6.35 L-42.95 4.95 Q-14.85 4.1 -0.2 -28.95 12.3 0.1 42.75 5.0 L42.1 6.35 Q22.4 6.1 11.4 -4.5 2.35 -13.2 -0.1 -22.65 -2.55 -13.2 -11.6 -4.5 -22.6 6.1 -42.3 6.35" fill="#a684e0" fill-rule="evenodd" stroke="none"/>
  </g>
</svg>
