<?xml version="1.0" encoding="UTF-8" standalone="no"?>
<svg xmlns:ffdec="https://www.free-decompiler.com/flash" xmlns:xlink="http://www.w3.org/1999/xlink" ffdec:objectType="shape" height="14.05px" width="89.55px" xmlns="http://www.w3.org/2000/svg">
  <g transform="matrix(1.0, 0.0, 0.0, 1.0, 45.25, 30.9)">
    <path d="M43.25 -27.75 Q44.25 -25.95 44.3 -24.3 44.3 -22.65 43.3 -22.1 42.35 -21.5 40.95 -22.35 39.5 -23.2 38.5 -25.0 37.45 -26.75 37.45 -28.4 37.4 -30.1 38.35 -30.7 39.35 -31.25 40.8 -30.35 42.2 -29.5 43.25 -27.75 M36.8 -23.3 Q37.0 -21.9 36.6 -20.75 36.2 -19.6 35.35 -19.45 34.55 -19.3 33.75 -20.25 32.95 -21.2 32.75 -22.6 32.5 -24.05 32.9 -25.2 33.35 -26.3 34.15 -26.45 35.0 -26.6 35.75 -25.7 36.55 -24.75 36.8 -23.3 M31.5 -19.25 Q31.5 -18.25 31.05 -17.55 30.65 -16.85 30.05 -16.85 29.45 -16.85 29.0 -17.55 28.6 -18.25 28.6 -19.25 28.6 -20.25 29.0 -20.95 29.45 -21.65 30.05 -21.65 30.65 -21.65 31.05 -20.95 31.5 -20.25 31.5 -19.25 M-40.45 -24.95 Q-41.3 -23.05 -42.45 -22.0 -43.65 -20.9 -44.45 -21.3 -45.3 -21.65 -45.25 -23.25 -45.3 -24.8 -44.45 -26.7 -43.65 -28.55 -42.45 -29.65 -41.35 -30.75 -40.5 -30.4 -39.7 -30.0 -39.65 -28.4 -39.65 -26.8 -40.45 -24.95 M-29.7 -19.5 Q-29.7 -18.7 -30.05 -18.15 -30.35 -17.55 -30.85 -17.55 -31.35 -17.55 -31.7 -18.15 L-32.0 -19.5 -31.7 -20.9 Q-31.35 -21.45 -30.85 -21.45 -30.35 -21.45 -30.05 -20.9 -29.7 -20.3 -29.7 -19.5 M-34.9 -21.55 Q-35.25 -20.25 -36.0 -19.45 -36.8 -18.7 -37.5 -18.9 -38.25 -19.1 -38.5 -20.15 -38.8 -21.2 -38.45 -22.5 -38.1 -23.8 -37.3 -24.6 -36.55 -25.4 -35.8 -25.2 -35.1 -25.0 -34.8 -23.9 -34.55 -22.85 -34.9 -21.55" fill="#b6e3ff" fill-rule="evenodd" stroke="none"/>
  </g>
</svg>
