<?xml version="1.0" encoding="UTF-8" standalone="no"?>
<svg xmlns:ffdec="https://www.free-decompiler.com/flash" xmlns:xlink="http://www.w3.org/1999/xlink" ffdec:objectType="shape" height="117.4px" width="116.4px" xmlns="http://www.w3.org/2000/svg">
  <g transform="matrix(1.0, 0.0, 0.0, 1.0, 58.2, 53.35)">
    <path d="M2.25 -16.95 L1.75 -10.75 1.65 -8.85 Q1.45 -0.6 5.4 5.3 L14.1 5.3 Q12.0 -2.65 12.6 -12.25 12.9 -17.75 14.1 -23.8 M47.95 42.6 L48.55 44.75 Q50.2 53.6 46.55 58.35 59.9 56.1 55.65 33.85 52.35 15.95 52.5 -0.45 50.8 -21.4 39.55 -34.1 30.0 -44.1 19.45 -48.75 0.0 -54.9 -19.45 -48.75 -30.0 -44.1 -39.55 -34.1 -50.8 -21.4 -52.5 -0.45 -52.35 15.95 -55.65 33.85 -59.9 56.1 -46.55 58.35 -50.2 53.6 -48.55 44.75 L-47.95 42.6 M25.4 -26.7 L26.5 -19.65 Q27.95 -9.3 28.3 1.4 28.7 14.4 27.4 27.9 26.75 32.8 25.4 36.95 22.6 45.5 16.8 51.0 28.35 49.05 33.7 40.5 36.25 35.1 37.5 26.4 L38.25 18.1 38.25 17.8 Q38.55 12.45 38.5 6.9 38.35 -5.7 36.6 -19.2 M48.55 44.75 Q45.55 62.6 22.1 61.3 28.3 55.45 29.45 49.6 21.25 59.5 0.0 62.55 -21.25 59.5 -29.45 49.6 -28.3 55.45 -22.1 61.3 -45.55 62.6 -48.55 44.75 M-7.4 -31.95 Q-9.0 -25.45 -9.65 -19.6 -11.4 -4.85 -7.4 5.65 L2.25 5.65 Q1.3 -0.6 1.65 -8.85 M12.6 -12.25 Q14.55 0.15 28.3 1.4 M-25.4 -26.7 L-26.5 -19.65 Q-28.2 -7.7 -28.35 4.65 -21.65 1.0 -20.3 -5.05 -20.5 -7.15 -20.15 -9.55 M-37.4 26.7 Q-38.0 22.75 -38.25 18.1 L-38.25 17.8 -38.45 7.35 Q-38.4 -5.45 -36.6 -19.2 M-37.4 26.7 Q-36.2 35.2 -33.7 40.5 -28.35 49.05 -16.8 51.0 -22.7 45.45 -25.45 36.75 -26.8 32.65 -27.4 27.9 -28.55 16.1 -28.35 4.65 M-20.3 -5.05 Q-19.7 2.8 -11.45 5.95 -15.5 -5.85 -9.65 -19.6" fill="none" stroke="#000000" stroke-linecap="round" stroke-linejoin="round" stroke-width="3.0"/>
    <path d="M37.5 26.4 Q45.05 25.6 47.85 18.05 49.8 11.9 47.35 7.35 44.55 3.75 38.5 6.9 M-25.45 36.75 Q-21.05 38.9 -14.9 40.25 -0.3 43.5 15.05 40.4 21.1 38.95 25.4 36.95 M-38.45 7.35 Q-42.1 4.1 -45.6 5.45 -49.35 8.05 -48.65 15.35 -46.7 24.95 -37.4 26.7" fill="none" stroke="#000000" stroke-linecap="round" stroke-linejoin="round" stroke-opacity="0.49803922" stroke-width="1.0"/>
  </g>
</svg>
