<?xml version="1.0" encoding="UTF-8" standalone="no"?>
<svg xmlns:ffdec="https://www.free-decompiler.com/flash" xmlns:xlink="http://www.w3.org/1999/xlink" ffdec:objectType="shape" height="15.25px" width="90.15px" xmlns="http://www.w3.org/2000/svg">
  <g transform="matrix(1.0, 0.0, 0.0, 1.0, 45.15, 29.85)">
    <path d="M39.95 -24.2 Q40.25 -23.1 40.05 -22.25 39.8 -21.35 39.15 -21.15 38.55 -21.0 37.85 -21.65 37.15 -22.3 36.85 -23.4 36.6 -24.55 36.8 -25.4 37.1 -26.3 37.7 -26.45 38.35 -26.65 39.0 -26.0 39.7 -25.35 39.95 -24.2 M17.65 -18.95 Q17.65 -17.4 17.05 -16.3 16.5 -15.15 15.7 -15.15 14.9 -15.15 14.3 -16.3 13.75 -17.4 13.75 -18.95 13.75 -20.5 14.3 -21.65 14.9 -22.75 15.7 -22.75 16.5 -22.75 17.05 -21.65 17.65 -20.5 17.65 -18.95 M44.5 -27.3 Q45.1 -25.95 44.95 -24.85 44.8 -23.7 44.15 -23.4 43.45 -23.1 42.6 -23.85 41.7 -24.5 41.1 -25.85 40.55 -27.15 40.65 -28.35 40.75 -29.45 41.45 -29.75 42.1 -30.05 43.0 -29.35 43.95 -28.6 44.5 -27.3 M-40.45 -24.3 Q-41.15 -22.45 -42.25 -21.4 -43.35 -20.35 -44.2 -20.7 -45.05 -21.0 -45.15 -22.55 -45.25 -24.0 -44.55 -25.85 -43.85 -27.65 -42.75 -28.75 -41.7 -29.75 -40.85 -29.45 -40.0 -29.1 -39.85 -27.6 -39.75 -26.1 -40.45 -24.3 M-36.55 -22.8 Q-36.8 -21.45 -37.35 -20.55 -37.85 -19.7 -38.35 -19.8 -38.85 -19.9 -39.1 -20.9 -39.25 -21.9 -39.0 -23.25 L-38.25 -25.45 Q-37.65 -26.25 -37.15 -26.15 -36.65 -26.05 -36.5 -25.1 -36.3 -24.1 -36.55 -22.8 M-0.6 -17.6 Q-0.6 -16.45 -1.05 -15.65 -1.45 -14.8 -2.05 -14.8 -2.65 -14.8 -3.1 -15.65 -3.5 -16.45 -3.5 -17.6 -3.5 -18.75 -3.1 -19.6 -2.65 -20.4 -2.05 -20.4 -1.45 -20.4 -1.05 -19.6 -0.6 -18.75 -0.6 -17.6 M-5.35 -18.9 Q-5.35 -17.1 -6.1 -15.85 -6.8 -14.6 -7.85 -14.6 -8.9 -14.6 -9.65 -15.85 -10.35 -17.1 -10.35 -18.9 -10.35 -20.7 -9.65 -21.95 -8.9 -23.2 -7.85 -23.2 -6.8 -23.2 -6.1 -21.95 -5.35 -20.7 -5.35 -18.9" fill="#b6e3ff" fill-rule="evenodd" stroke="none"/>
  </g>
</svg>
