<?xml version="1.0" encoding="UTF-8" standalone="no"?>
<svg xmlns:ffdec="https://www.free-decompiler.com/flash" xmlns:xlink="http://www.w3.org/1999/xlink" ffdec:objectType="shape" height="117.4px" width="116.4px" xmlns="http://www.w3.org/2000/svg">
  <g transform="matrix(1.0, 0.0, 0.0, 1.0, 58.25, 52.15)">
    <path d="M47.9 43.8 L48.5 45.95 Q50.15 54.8 46.5 59.55 59.85 57.3 55.6 35.05 52.3 17.15 52.45 0.75 50.75 -20.2 39.5 -32.9 29.95 -42.9 19.4 -47.55 -0.05 -53.7 -19.5 -47.55 -30.05 -42.9 -39.6 -32.9 -50.85 -20.2 -52.55 0.75 -52.4 17.15 -55.7 35.05 -59.95 57.3 -46.6 59.55 -50.25 54.8 -48.6 45.95 L-48.0 43.8 M25.35 -25.5 L26.45 -18.45 Q29.7 4.5 27.35 29.1 26.8 33.2 25.8 36.8 23.05 46.3 16.75 52.2 28.3 50.25 33.65 41.7 36.4 35.95 37.6 26.4 L38.2 19.3 38.2 19.0 Q38.5 12.95 38.4 6.7 38.2 -5.25 36.55 -18.0 M48.5 45.95 Q45.5 63.8 22.05 62.5 28.25 56.65 29.4 50.8 21.2 60.7 -0.05 63.75 -21.3 60.7 -29.5 50.8 -28.35 56.65 -22.15 62.5 -45.6 63.8 -48.6 45.95 M-25.45 -25.5 L-26.55 -18.45 Q-14.0 -23.55 -0.05 -23.75 13.9 -23.55 26.45 -18.45 M-38.5 7.15 L-38.5 6.2 Q-38.3 -5.5 -36.65 -18.0 M-37.65 26.7 L-38.3 19.3 -38.3 19.0 Q-38.6 13.2 -38.5 7.15 M-37.65 26.7 Q-36.45 36.05 -33.75 41.7 -28.4 50.25 -16.85 52.2 -23.2 46.2 -25.95 36.5 -26.95 33.05 -27.45 29.1 -29.8 4.5 -26.55 -18.45" fill="none" stroke="#000000" stroke-linecap="round" stroke-linejoin="round" stroke-width="3.0"/>
    <path d="M37.6 26.4 Q45.1 25.55 47.85 18.05 49.8 11.9 47.35 7.35 44.55 3.75 40.45 5.95 L38.4 6.7 M-25.95 36.5 Q-21.35 38.8 -14.9 40.25 -0.3 43.5 15.05 40.4 21.35 38.85 25.8 36.8 M-38.5 7.15 Q-39.7 5.2 -42.2 4.95 -43.9 4.8 -45.6 5.45 -49.35 8.05 -48.65 15.35 -46.75 24.85 -37.65 26.7" fill="none" stroke="#000000" stroke-linecap="round" stroke-linejoin="round" stroke-opacity="0.49803922" stroke-width="1.0"/>
  </g>
</svg>
