<?xml version="1.0" encoding="UTF-8" standalone="no"?>
<svg xmlns:ffdec="https://www.free-decompiler.com/flash" xmlns:xlink="http://www.w3.org/1999/xlink" ffdec:objectType="shape" height="86.85px" width="89.6px" xmlns="http://www.w3.org/2000/svg">
  <g transform="matrix(1.0, 0.0, 0.0, 1.0, 45.05, 73.2)">
    <path d="M9.15 -68.7 Q12.9 -70.3 16.2 -68.75 20.95 -66.2 20.5 -61.65 25.8 -61.6 29.3 -57.4 32.9 -52.25 29.2 -47.45 L29.25 -47.4 Q35.4 -45.85 34.95 -39.45 34.2 -34.95 29.5 -33.35 34.2 -29.75 37.95 -25.0 46.3 -13.0 44.05 -0.6 41.5 8.8 33.5 13.65 35.65 8.3 34.45 1.35 33.2 -5.85 32.6 -7.65 25.55 -6.5 15.6 -11.0 4.55 -15.85 -0.25 -25.1 -5.05 -15.85 -16.1 -11.0 -26.05 -6.5 -33.1 -7.65 -33.7 -5.85 -34.95 1.35 -36.15 8.3 -34.0 13.65 -42.0 8.8 -44.55 -0.6 -46.8 -13.0 -38.45 -25.0 -34.7 -29.75 -30.0 -33.35 -34.7 -34.95 -35.45 -39.45 -35.9 -45.85 -29.75 -47.4 L-29.7 -47.45 Q-33.4 -52.25 -29.8 -57.4 -26.3 -61.6 -21.0 -61.65 -21.45 -66.2 -16.7 -68.75 -13.4 -70.3 -9.65 -68.7 -6.25 -72.75 -0.25 -73.2 5.75 -72.75 9.15 -68.7" fill="url(#gradient0)" fill-rule="evenodd" stroke="none"/>
  </g>
  <defs>
    <linearGradient gradientTransform="matrix(0.0, 0.0446, -0.0547, 0.0, -0.25, 12.4)" gradientUnits="userSpaceOnUse" id="gradient0" spreadMethod="pad" x1="-819.2" x2="819.2">
      <stop offset="0.0" stop-color="#7bffdc" stop-opacity="0.0"/>
      <stop offset="1.0" stop-color="#7bffdc" stop-opacity="0.8"/>
    </linearGradient>
  </defs>
</svg>
