<?xml version="1.0" encoding="UTF-8" standalone="no"?>
<svg xmlns:ffdec="https://www.free-decompiler.com/flash" xmlns:xlink="http://www.w3.org/1999/xlink" ffdec:objectType="shape" height="24.6px" width="82.05px" xmlns="http://www.w3.org/2000/svg">
  <g transform="matrix(1.0, 0.0, 0.0, 1.0, 42.45, 33.7)">
    <path d="M38.7 -29.55 Q39.65 -27.4 39.6 -25.55 39.6 -23.75 38.55 -23.25 37.5 -22.75 36.05 -23.95 34.65 -25.1 33.7 -27.25 32.7 -29.4 32.7 -31.25 32.75 -33.05 33.8 -33.55 34.85 -34.05 36.25 -32.85 37.7 -31.7 38.7 -29.55 M32.15 -22.4 Q32.6 -20.8 32.35 -19.45 32.1 -18.1 31.3 -17.85 30.45 -17.65 29.55 -18.7 28.65 -19.75 28.2 -21.35 27.75 -23.0 28.05 -24.35 28.3 -25.7 29.15 -25.9 29.95 -26.15 30.85 -25.1 31.7 -24.05 32.15 -22.4 M1.1 -13.45 L0.8 -12.0 0.2 -11.4 Q-0.15 -11.4 -0.45 -12.0 L-0.7 -13.45 -0.45 -14.9 Q-0.15 -15.5 0.2 -15.5 L0.8 -14.9 1.1 -13.45 M23.3 -18.15 Q23.5 -16.45 22.95 -15.25 22.45 -14.0 21.45 -14.0 20.45 -14.0 19.55 -15.25 18.7 -16.45 18.5 -18.15 18.25 -19.85 18.8 -21.1 19.35 -22.3 20.35 -22.3 21.35 -22.3 22.2 -21.1 23.05 -19.85 23.3 -18.15 M-36.0 -26.7 Q-37.1 -24.6 -38.7 -23.4 -40.25 -22.2 -41.35 -22.6 -42.45 -22.9 -42.45 -24.7 -42.45 -26.45 -41.35 -28.55 -40.15 -30.75 -38.65 -32.0 -37.1 -33.25 -35.95 -32.85 -34.85 -32.45 -34.9 -30.7 -34.85 -28.9 -36.0 -26.7 M-29.7 -21.95 Q-30.1 -20.35 -31.1 -19.45 -32.0 -18.45 -32.95 -18.7 -33.85 -18.95 -34.25 -20.3 -34.55 -21.55 -34.15 -23.15 -33.7 -24.75 -32.8 -25.7 -31.8 -26.6 -30.9 -26.35 -29.95 -26.1 -29.65 -24.85 -29.25 -23.55 -29.7 -21.95 M-18.1 -17.75 Q-18.1 -16.4 -18.65 -15.5 -19.2 -14.55 -19.95 -14.55 -20.7 -14.55 -21.25 -15.5 -21.8 -16.4 -21.8 -17.75 -21.8 -19.1 -21.25 -20.05 -20.7 -20.95 -19.95 -20.95 -19.2 -20.95 -18.65 -20.05 -18.1 -19.1 -18.1 -17.75 M-2.75 -13.85 Q-2.75 -11.9 -3.45 -10.5 -4.15 -9.1 -5.15 -9.1 -6.15 -9.1 -6.85 -10.5 -7.55 -11.9 -7.55 -13.85 -7.55 -15.8 -6.85 -17.2 -6.15 -18.6 -5.15 -18.6 -4.15 -18.6 -3.45 -17.2 -2.75 -15.8 -2.75 -13.85" fill="#b6e3ff" fill-rule="evenodd" stroke="none"/>
  </g>
</svg>
