<?xml version="1.0" encoding="UTF-8" standalone="no"?>
<svg xmlns:ffdec="https://www.free-decompiler.com/flash" xmlns:xlink="http://www.w3.org/1999/xlink" ffdec:objectType="shape" height="89.9px" width="129.9px" xmlns="http://www.w3.org/2000/svg">
  <g transform="matrix(1.0, 0.0, 0.0, 1.0, 64.85, 47.95)">
    <path d="M29.0 -1.5 Q25.9 2.05 18.85 0.35 8.75 -1.75 7.05 -9.35 5.7 -2.8 8.9 0.1 11.7 2.35 16.45 1.5 13.85 6.2 5.75 9.2 -3.0 11.2 -7.65 6.65 -12.95 -0.5 -10.6 -10.75 -16.8 6.4 -32.7 8.95 -33.2 17.9 -29.65 24.15 -41.0 20.0 -41.45 4.7 -45.7 3.45 -48.25 9.0 -50.55 16.75 -44.7 23.3 -41.1 26.4 -36.2 26.6 -34.0 31.4 -30.85 34.6 -31.05 40.0 -29.4 41.85 -50.5 41.7 -49.15 26.6 -61.75 29.0 -64.85 20.35 -55.65 21.75 -52.5 15.2 -64.8 12.55 -62.45 2.25 -59.5 -6.05 -49.9 -12.6 -56.7 -10.85 -60.0 -14.95 -65.35 -22.95 -57.45 -31.25 -59.4 -27.35 -56.05 -24.0 L-50.35 -24.2 Q-41.75 -28.25 -34.55 -36.65 -27.4 -45.15 -18.2 -46.95 -9.7 -47.1 -1.6 -42.6 4.5 -48.75 14.5 -47.8 34.3 -45.0 43.4 -25.85 47.95 -19.05 55.1 -16.5 60.6 -14.6 63.6 -18.1 61.2 -7.25 53.35 -6.85 62.05 -1.35 64.45 7.05 66.8 15.45 59.6 20.4 62.05 15.1 56.4 8.35 52.3 12.65 52.75 19.4 54.3 26.45 60.6 26.0 52.8 34.7 44.25 31.25 43.95 41.55 26.05 41.95 L28.55 35.55 Q34.4 32.0 36.0 26.95 48.95 24.55 48.8 11.55 48.45 4.8 42.75 4.55 42.5 9.25 40.2 11.8 33.85 18.9 21.25 16.0 28.3 13.65 29.35 4.0 L29.05 -0.8 29.0 -1.5" fill="#424f86" fill-rule="evenodd" stroke="none"/>
  </g>
</svg>
