<?xml version="1.0" encoding="UTF-8" standalone="no"?>
<svg xmlns:ffdec="https://www.free-decompiler.com/flash" xmlns:xlink="http://www.w3.org/1999/xlink" ffdec:objectType="shape" height="20.0px" width="77.6px" xmlns="http://www.w3.org/2000/svg">
  <g transform="matrix(1.0, 0.0, 0.0, 1.0, 40.75, 35.7)">
    <path d="M31.65 -29.05 Q32.05 -27.95 31.85 -27.15 31.7 -26.35 31.05 -26.35 30.4 -26.35 29.6 -27.15 28.85 -27.95 28.45 -29.05 28.05 -30.15 28.2 -30.95 28.4 -31.75 29.05 -31.75 29.7 -31.75 30.45 -30.95 31.25 -30.15 31.65 -29.05 M27.4 -26.35 L27.45 -25.6 Q27.4 -25.2 27.15 -25.15 26.9 -25.1 26.65 -25.4 L26.3 -26.05 Q26.2 -26.5 26.25 -26.9 L26.55 -27.3 27.05 -27.1 27.4 -26.35 M36.45 -32.4 Q37.05 -31.05 36.8 -30.1 36.6 -29.1 35.75 -29.1 34.9 -29.1 33.85 -30.1 32.85 -31.05 32.25 -32.4 31.7 -33.75 31.9 -34.75 32.1 -35.7 32.95 -35.7 33.8 -35.7 34.85 -34.75 35.9 -33.75 36.45 -32.4 M21.9 -23.6 Q22.3 -22.25 21.9 -21.3 21.5 -20.35 20.5 -20.35 19.5 -20.35 18.5 -21.3 17.5 -22.25 17.1 -23.6 16.7 -24.95 17.1 -25.9 17.5 -26.85 18.5 -26.85 19.5 -26.85 20.5 -25.9 21.5 -24.95 21.9 -23.6 M16.3 -21.25 Q16.5 -20.15 16.1 -19.35 15.75 -18.55 15.0 -18.55 14.25 -18.55 13.55 -19.35 12.9 -20.15 12.7 -21.25 12.5 -22.35 12.85 -23.15 13.25 -23.95 14.0 -23.95 14.75 -23.95 15.4 -23.15 16.1 -22.35 16.3 -21.25 M7.35 -18.55 L7.15 -17.55 6.65 -17.15 6.15 -17.55 5.95 -18.55 6.15 -19.55 6.65 -19.95 Q6.95 -19.95 7.15 -19.55 L7.35 -18.55 M5.4 -19.65 Q5.4 -18.1 4.75 -17.0 4.1 -15.9 3.15 -15.9 2.2 -15.9 1.55 -17.0 0.9 -18.1 0.9 -19.65 0.9 -21.2 1.55 -22.3 2.2 -23.4 3.15 -23.4 4.1 -23.4 4.75 -22.3 5.4 -21.2 5.4 -19.65 M-35.45 -29.15 Q-36.45 -27.55 -37.8 -26.55 -39.15 -25.6 -40.0 -25.8 -40.9 -26.05 -40.75 -27.35 -40.6 -28.65 -39.6 -30.25 -38.55 -31.85 -37.25 -32.85 -35.9 -33.8 -35.0 -33.55 -34.15 -33.35 -34.3 -32.05 -34.4 -30.75 -35.45 -29.15 M-31.75 -25.65 Q-32.4 -24.6 -33.15 -24.05 -34.0 -23.5 -34.55 -23.8 -35.15 -24.15 -35.05 -25.15 -35.05 -26.15 -34.4 -27.2 -33.8 -28.3 -32.95 -28.85 L-31.55 -29.0 Q-31.0 -28.7 -31.05 -27.75 -31.15 -26.75 -31.75 -25.65 M-28.4 -23.4 L-29.4 -22.0 Q-30.0 -21.5 -30.4 -21.7 -30.8 -21.9 -30.8 -22.65 -30.8 -23.4 -30.4 -24.3 L-29.4 -25.75 Q-28.8 -26.25 -28.4 -26.05 -28.0 -25.85 -28.0 -25.1 -27.95 -24.3 -28.4 -23.4 M-21.3 -22.45 Q-21.75 -21.1 -22.5 -20.15 -23.25 -19.15 -23.9 -19.15 -24.55 -19.15 -24.75 -20.15 -24.95 -21.1 -24.5 -22.45 -24.1 -23.8 -23.35 -24.8 -22.55 -25.75 -21.9 -25.75 -21.25 -25.75 -21.1 -24.8 -20.9 -23.8 -21.3 -22.45 M-19.45 -20.05 L-19.9 -19.05 -20.4 -18.75 Q-20.65 -18.8 -20.7 -19.25 L-20.55 -20.35 -20.1 -21.4 Q-19.85 -21.75 -19.6 -21.7 -19.35 -21.65 -19.3 -21.2 L-19.45 -20.05 M-3.55 -18.15 Q-3.55 -17.45 -3.85 -16.95 -4.15 -16.4 -4.55 -16.4 -4.95 -16.4 -5.25 -16.95 L-5.55 -18.15 -5.25 -19.4 -4.55 -19.9 Q-4.15 -19.9 -3.85 -19.4 -3.55 -18.85 -3.55 -18.15 M-6.45 -19.3 Q-6.45 -17.8 -7.05 -16.75 -7.6 -15.7 -8.45 -15.7 -9.3 -15.7 -9.9 -16.75 -10.45 -17.8 -10.45 -19.3 -10.45 -20.8 -9.9 -21.85 -9.3 -22.9 -8.45 -22.9 -7.6 -22.9 -7.05 -21.85 -6.45 -20.8 -6.45 -19.3" fill="#b6e3ff" fill-rule="evenodd" stroke="none"/>
  </g>
</svg>
