<?xml version="1.0" encoding="UTF-8" standalone="no"?>
<svg xmlns:ffdec="https://www.free-decompiler.com/flash" xmlns:xlink="http://www.w3.org/1999/xlink" ffdec:objectType="shape" height="99.25px" width="103.7px" xmlns="http://www.w3.org/2000/svg">
  <g transform="matrix(1.0, 0.0, 0.0, 1.0, 52.4, 51.3)">
    <path d="M-52.15 47.95 Q-50.45 37.55 -51.7 19.7 -52.8 4.6 -52.15 -4.6 -50.75 -25.95 -34.4 -39.15 -19.5 -51.15 -1.05 -51.3 L-0.05 -51.3 Q18.4 -51.15 33.3 -39.15 49.65 -25.95 51.05 -4.6 51.7 4.6 50.6 19.7 49.35 37.55 51.05 47.95 L-52.15 47.95 M-38.75 6.2 L-40.4 5.4 Q-42.95 4.4 -45.6 5.45 -49.35 8.05 -48.65 15.35 -46.55 25.7 -35.85 26.95 L-35.25 28.15 Q-30.55 36.8 -14.9 40.25 -0.3 43.5 15.05 40.4 33.65 35.9 35.9 26.5 44.8 26.35 47.85 18.05 49.8 11.9 47.35 7.35 45.25 4.6 42.4 5.25 41.45 5.4 40.45 5.95 20.45 5.9 12.9 -12.6 14.15 -1.35 20.1 3.8 2.05 6.45 -1.65 -7.1 -2.15 1.2 -0.45 7.95 -9.7 2.15 -10.15 -12.1 L-10.15 -14.2 -10.1 -16.5 Q-18.75 4.75 -38.75 6.2" fill="url(#gradient0)" fill-rule="evenodd" stroke="none"/>
  </g>
  <defs>
    <linearGradient gradientTransform="matrix(0.0, 0.0437, -0.0633, 0.0, -0.55, 12.25)" gradientUnits="userSpaceOnUse" id="gradient0" spreadMethod="pad" x1="-819.2" x2="819.2">
      <stop offset="0.0" stop-color="#7bffdc" stop-opacity="0.0"/>
      <stop offset="1.0" stop-color="#7bffdc" stop-opacity="0.8"/>
    </linearGradient>
  </defs>
</svg>
