<?xml version="1.0" encoding="utf-8"?>
<svg version="1.1" id="Layer_1"
xmlns="http://www.w3.org/2000/svg"
xmlns:xlink="http://www.w3.org/1999/xlink"
xmlns:author="http://www.sothink.com"
width="45px" height="55px"
xml:space="preserve">
<g id="6098" transform="matrix(1, 0, 0, 1, 22, 27.1)">
<path style="fill:#F3EBE2;fill-opacity:1" d="M6.35,-18.8Q5.9 -19.3 5.2 -19.3Q4.55 -19.3 4.1 -18.8Q3.6 -18.35 3.6 -17.7Q3.6 -17.05 4.1 -16.55Q4.55 -16.1 5.2 -16.1Q5.9 -16.1 6.35 -16.55Q6.8 -17.05 6.8 -17.7Q6.8 -18.35 6.35 -18.8M7.35,-9.1Q6.9 -9.55 6.25 -9.55Q5.55 -9.55 5.1 -9.1Q4.65 -8.6 4.65 -7.95Q4.65 -7.3 5.1 -6.8Q5.55 -6.35 6.25 -6.35Q6.9 -6.35 7.35 -6.8Q7.85 -7.3 7.85 -7.95Q7.85 -8.6 7.35 -9.1M1.3,-22.65Q4.15 -23.55 4.55 -25.7Q12.2 -21.7 14.1 -15.45Q16.05 -6.3 16.3 1.75L17.75 2.95L17.3 4.55L22.05 20.05Q16.5 25.1 10.25 26.65Q6.85 23.8 4.6 20.9Q4.7 -2.1 1.3 -22.65M8.15,1Q7.65 0.55 7 0.55Q6.35 0.55 5.9 1Q5.4 1.45 5.4 2.15Q5.4 2.8 5.9 3.25Q6.35 3.75 7 3.75Q7.65 3.75 8.15 3.25Q8.6 2.8 8.6 2.15Q8.6 1.45 8.15 1M8.5,12Q8.05 11.5 7.35 11.5Q6.7 11.5 6.25 12Q5.75 12.45 5.75 13.1Q5.75 13.8 6.25 14.25Q6.7 14.7 7.35 14.7Q8.05 14.7 8.5 14.25Q8.95 13.8 8.95 13.1L8.5 12M1.85,21.45Q-1 25 -3.85 27.15Q-15.05 23.65 -22 18.9L-17.15 2.05Q-20.8 -11 -19.9 -19.6Q-18.55 -23.9 -11.55 -27.1Q-7.25 -23.45 -1.55 -22.45Q1.65 -0.7 1.85 21.45" />
</g>
</svg>
