<?xml version="1.0" encoding="utf-8"?>
<svg version="1.1" id="Layer_1"
xmlns="http://www.w3.org/2000/svg"
xmlns:xlink="http://www.w3.org/1999/xlink"
xmlns:author="http://www.sothink.com"
width="23px" height="15px"
xml:space="preserve">
<g id="1706" transform="matrix(1, 0, 0, 1, 11.3, 7.3)">
<path style="fill:#274880;fill-opacity:1" d="M5.85,-5.25Q5.85 -4.45 5.25 -3.85Q4.7 -3.25 3.85 -3.25Q3 -3.25 2.4 -3.85Q1.85 -4.45 1.85 -5.25Q1.85 -6.1 2.4 -6.7Q3 -7.3 3.85 -7.3Q4.7 -7.3 5.25 -6.7Q5.85 -6.1 5.85 -5.25M2.65,-0.25Q2.65 0.6 2 1.2Q1.45 1.8 0.6 1.8Q-0.25 1.8 -0.85 1.2Q-1.4 0.6 -1.4 -0.25Q-1.4 -1.1 -0.85 -1.65Q-0.25 -2.25 0.6 -2.25Q1.45 -2.25 2 -1.65Q2.65 -1.1 2.65 -0.25M11.35,-2.25Q11.35 -1.4 10.7 -0.8Q10.1 -0.2 9.3 -0.2Q8.45 -0.2 7.85 -0.8Q7.25 -1.4 7.25 -2.25Q7.25 -3.05 7.85 -3.65Q8.45 -4.25 9.3 -4.25Q10.1 -4.25 10.7 -3.65Q11.35 -3.05 11.35 -2.25M8.6,3.4Q8.6 4.25 7.95 4.8Q7.4 5.45 6.55 5.45Q5.7 5.45 5.1 4.8Q4.55 4.25 4.55 3.4Q4.55 2.6 5.1 1.95Q5.7 1.4 6.55 1.4Q7.4 1.4 7.95 1.95Q8.6 2.6 8.6 3.4M2.2,5.25Q2.2 6.1 1.6 6.7Q1 7.35 0.15 7.35Q-0.65 7.35 -1.25 6.7Q-1.85 6.1 -1.85 5.25Q-1.85 4.45 -1.25 3.85Q-0.65 3.25 0.15 3.25Q1 3.25 1.6 3.85Q2.2 4.45 2.2 5.25M-7.25,-1.7Q-7.25 -0.9 -7.85 -0.3Q-8.45 0.35 -9.3 0.35Q-10.1 0.35 -10.7 -0.3Q-11.3 -0.9 -11.3 -1.7Q-11.3 -2.55 -10.7 -3.15Q-10.1 -3.75 -9.3 -3.75Q-8.45 -3.75 -7.85 -3.15Q-7.25 -2.55 -7.25 -1.7M-1.9,-4Q-1.9 -3.15 -2.5 -2.55Q-3.15 -1.95 -3.95 -1.95Q-4.75 -1.95 -5.4 -2.55Q-6 -3.15 -6 -4Q-6 -4.8 -5.4 -5.45Q-4.75 -6 -3.95 -6Q-3.15 -6 -2.5 -5.45Q-1.9 -4.8 -1.9 -4M-3.95,3.7Q-3.95 4.55 -4.6 5.15Q-5.15 5.75 -6 5.75Q-6.85 5.75 -7.45 5.15Q-8 4.55 -8 3.7Q-8 2.9 -7.45 2.3Q-6.85 1.7 -6 1.7Q-5.15 1.7 -4.6 2.3Q-3.95 2.9 -3.95 3.7" />
</g>
</svg>
