<?xml version="1.0" encoding="utf-8"?>
<svg version="1.1" id="Layer_1"
xmlns="http://www.w3.org/2000/svg"
xmlns:xlink="http://www.w3.org/1999/xlink"
xmlns:author="http://www.sothink.com"
width="46px" height="11px"
xml:space="preserve">
<g id="6295" transform="matrix(1, 0, 0, 1, 22.8, 5.1)">
<path style="fill:none;stroke-width:1.5;stroke-linecap:round;stroke-linejoin:round;stroke-miterlimit:3;stroke:#000000;stroke-opacity:1" d="M0.6,-2.8L0.85 -3.25Q3.9 -3.6 9.7 -3.2L10 -2.8L11.9 -2.9Q17.25 -3.2 21.2 -4.1Q22.35 -0.6 21.9 1.7L16.25 2.85L15.95 2.9L10.25 3.25Q10.25 4.15 10.05 4.1Q5.85 4.6 0.8 4.2L0.6 3.7L0.15 3.7L-16.8 2.6L-17.5 2.5L-21.75 1.7L-21.95 1.6Q-22.4 -0.8 -20.45 -4.35L-2.3 -2.8L0.6 -2.8L0.6 3.7M10,-2.8Q10.3 -0.4 10.25 3.25" />
</g>
</svg>
