<?xml version="1.0" encoding="utf-8"?>
<svg version="1.1" id="Layer_1"
xmlns="http://www.w3.org/2000/svg"
xmlns:xlink="http://www.w3.org/1999/xlink"
xmlns:author="http://www.sothink.com"
width="27px" height="18px"
xml:space="preserve">
<g id="9415" transform="matrix(1, 0, 0, 1, 13.5, 8.7)">
<path style="fill:#FFFFFF;fill-opacity:1" d="M-0.9,-5.55Q-0.9 -3.75 -2.75 -2.1Q-4.6 -0.35 -7.2 0.3L-11.65 0.1Q-13.5 -0.75 -13.5 -2.5Q-13.5 -4.35 -11.65 -6.1Q-9.8 -7.8 -7.2 -8.4L-2.75 -8.2Q-0.9 -7.4 -0.9 -5.55M13.5,7.35Q13.5 7.95 12.45 8.35L9.85 8.75L7.3 8.35Q6.2 7.95 6.2 7.35Q6.2 6.8 7.3 6.4L9.85 6L12.45 6.4Q13.5 6.8 13.5 7.35" />
</g>
</svg>
