<?xml version="1.0" encoding="utf-8"?>
<svg version="1.1" id="Layer_1"
xmlns="http://www.w3.org/2000/svg"
xmlns:xlink="http://www.w3.org/1999/xlink"
xmlns:author="http://www.sothink.com"
width="19px" height="20px"
xml:space="preserve">
<g id="6461" transform="matrix(1, 0, 0, 1, 11.9, 2.65)">
<path style="fill:#FFF1E0;fill-opacity:1" d="M-11.85,11.35L-11.85 10.3Q-11.7 7.9 -9.5 4.7L-6.55 0.3L-5.55 -1.25L-5.5 -1.3L-5.35 -1.55L-4.7 -2.65L-4.65 -2.65Q-3.9 -1.5 -0.05 -0.05Q4.75 1.5 5.6 2.1Q5.55 2.85 6.05 6L6.15 6.65L6.35 7.65L6.9 11.25Q7.1 13.5 4.5 14Q1.9 14.5 1.55 11.3L1.15 13.2L0.2 14.95Q-1 16.25 -4 16.8L-5.75 16.95Q-9.5 16.4 -11.1 13.7L-11.15 13.65L-11.7 12.05L-11.75 11.95L-11.8 11.75L-11.8 11.7L-11.85 11.45L-11.85 11.35" />
</g>
</svg>
