<?xml version="1.0" encoding="utf-8"?>
<svg version="1.1" id="Layer_1"
xmlns="http://www.w3.org/2000/svg"
xmlns:xlink="http://www.w3.org/1999/xlink"
xmlns:author="http://www.sothink.com"
width="198px" height="236px"
xml:space="preserve">
<g id="2596" transform="matrix(1, 0, 0, 1, 98.9, 117.8)">
<path style="fill:none;stroke-width:2;stroke-linecap:round;stroke-linejoin:round;stroke-miterlimit:3;stroke:#000000;stroke-opacity:1" d="M77.15,20.7Q78.6 28.9 83 35.25Q88.25 42.85 97.85 47.8Q89.6 39.25 83.9 17.55Q80.3 2.25 83.9 -22.75Q85.15 -58.4 75.3 -83.25Q69.25 -105.65 54.9 -111.6Q44.1 -116.8 12.05 -116.8Q-17.4 -116.8 -33.85 -107.75Q-59.75 -92.05 -64.55 -46.6Q-64.5 -20.45 -74.75 -4.8Q-65.6 -8.9 -61.45 -16.05Q-59.25 -20.95 -58.4 -25.1Q-59.15 -20.1 -61.45 -16.05Q-65.7 -6.75 -74.75 5.1L-91.45 28.3Q-103.45 55.05 -93.05 68.55Q-100.35 41.55 -69.15 11.7L-68.75 9.95M12.15,96.1L12.7 99.35Q13.75 107.5 12.15 110.4Q34.95 95.5 39.25 73.65L38.45 69.35M39.25,73.65Q42.4 91.95 38.45 103.25Q62.1 89.6 64.3 67.3L63.6 62.55M12.7,99.35Q11.3 109.4 4.6 116.8Q-6.8 110.65 -11.4 95.9L-7.75 108.8Q-28.95 96.7 -26.8 67.5Q-29.2 89.1 -47.6 100.05Q-40.55 91.2 -41.5 62.2Q-51.15 95.7 -50 106.4Q-67.6 86.25 -66.2 51.05Q-79.6 82.5 -64.35 105.25Q-91.25 83.4 -80.95 51.05Q-71.65 21.55 -69.15 11.7M83,35.25Q94 74.3 62.4 108Q67.6 93.8 64.3 67.3M-11.4,95.9L-11.65 95.05Q-13.45 88.9 -14.15 81.35M-26.8,67.5L-26.1 61.4M-66.2,51.05L-66 47.5" />
<path style="fill:none;stroke-width:1.5;stroke-linecap:round;stroke-linejoin:round;stroke-miterlimit:3;stroke:#000000;stroke-opacity:1" d="M12.6,89.7Q4.8 60.6 6.6 34.65M37.3,67.35Q35.55 46.9 25.2 22.75M62.4,51Q55.75 20.1 56.8 -8M-66,47.5Q-65.25 36.6 -62.8 24.3M-13.35,76.95Q-11.15 41.2 -1 14.35M-41.5,62.2Q-43.65 40.6 -35.7 27.15M-59.2,14.7Q-50.6 -10.9 -50 -34.3" />
</g>
</svg>
