<?xml version="1.0" encoding="utf-8"?>
<svg version="1.1" id="Layer_1"
xmlns="http://www.w3.org/2000/svg"
xmlns:xlink="http://www.w3.org/1999/xlink"
xmlns:author="http://www.sothink.com"
width="144px" height="144px"
xml:space="preserve">
<g id="9843" transform="matrix(1, 0, 0, 1, 71.8, 71.55)">
<path style="fill:#8EF7AA;fill-opacity:1" d="M15.65,-70.6Q35.55 -66.4 50.7 -52.65Q58.7 -45.35 62.65 -36.65L64.25 -32.7Q71.25 -14.5 71.5 -2.1Q72.75 15.2 68.6 35.15Q64.45 55.05 66.9 66.35Q56.1 53.9 59.25 31.85Q56.35 36.2 51.1 37.1Q58.05 31.85 59.55 4.45L58.75 -14.55L57.85 -19.45Q55.25 -33.5 50.95 -36.85Q24.85 -44.15 -0.25 -41.65Q-25.35 -39.2 -29.65 -30.2Q-33.95 -21.2 -34.55 -13.95Q-43.45 18.55 -33.7 38.55Q-43.75 35.3 -46.45 26.2Q-42.35 58.8 -53.35 71.55Q-52.2 59.4 -59.7 34.35L-70.45 20Q-75 -8.95 -63.95 -36.95Q-58.55 -47.75 -49.3 -55.15Q-43.9 -59.5 -37.1 -62.9L-36.3 -63.3Q-29.9 -66.4 -22.55 -68.35L-18.1 -69.4L-16.05 -69.9L-9.6 -71L-6.1 -71.35Q0.85 -71.85 9.05 -71.2L15.65 -70.6" />
</g>
</svg>
