<?xml version="1.0" encoding="utf-8"?>
<svg version="1.1" id="Layer_1"
xmlns="http://www.w3.org/2000/svg"
xmlns:xlink="http://www.w3.org/1999/xlink"
xmlns:author="http://www.sothink.com"
width="125px" height="124px"
xml:space="preserve">
<g id="15323" transform="matrix(1, 0, 0, 1, 61.35, 61.75)">
<path style="fill:none;stroke-width:2.4;stroke-linecap:round;stroke-linejoin:round;stroke-miterlimit:3;stroke:#54453C;stroke-opacity:1" d="M8.7,60.55L25.15 59.9Q42.15 58.3 49.75 52.5Q54 49.25 56.7 45.8Q62.1 38.8 61.05 30.9Q59.5 19.1 61.6 14.35L62.3 6.2Q63.2 -15 54.7 -31.15Q48.55 -44.3 29.7 -53.65L29.65 -53.7Q21.7 -57.05 11.6 -59.5Q-8.6 -62.8 -25.3 -55.9Q-36.15 -51.45 -45.55 -42.65Q-60.75 -27.35 -60.1 0.4L-59.3 6.2Q-58.05 13.05 -55.2 21.2Q-50.9 33.7 -44.5 42.4L-41.55 45.8L-40.05 47.4Q-31.3 56.4 -5.4 59.85" />
</g>
</svg>
