<?xml version="1.0" encoding="utf-8"?>
<svg version="1.1" id="Layer_1"
xmlns="http://www.w3.org/2000/svg"
xmlns:xlink="http://www.w3.org/1999/xlink"
xmlns:author="http://www.sothink.com"
width="161px" height="95px"
xml:space="preserve">
<g id="2378" transform="matrix(1, 0, 0, 1, 80.1, 47.15)">
<path style="fill:#E56666;fill-opacity:1" d="M34.5,-16.2Q40.35 -12.45 46.65 -16Q44.05 -30.9 39.65 -37.7Q34 -29.95 34.5 -16.2M39.25,-45.25Q45.75 -39.5 49.85 -16.35L50.6 -16.5Q51.4 -16.5 52.1 -16Q66.35 -37.35 78.85 -35.1Q83.35 -6.7 72.25 7.15Q61.9 6.55 52.25 -10L51.85 -9.75Q58.3 20.1 73.95 40.85Q71.55 45.55 65.6 47.15Q52 18.85 50.5 -9.4L50.05 -9.45Q48.45 15.25 61.75 47.15Q55.65 44.55 54.2 40.9Q43.35 15.15 49.35 -9.7L48.55 -10.45Q48 -11 47.8 -11.75Q37.8 -5.85 30.35 -12.35Q28.25 -36.8 39.25 -45.25M73.75,-27.15Q65.1 -25.7 54.55 -13.55Q61.6 -2.4 69.85 -0.95Q77.45 -15.4 73.75 -27.15M-42,-12.35L-43.05 -11.6Q-35.75 13.25 -48.8 39Q-50.55 42.65 -57.95 45.2Q-41.9 13.35 -43.8 -11.35L-44.4 -11.3Q-46.2 16.95 -62.6 45.2Q-69.75 43.6 -72.65 38.95Q-53.75 18.2 -46 -11.65L-46.5 -11.9Q-58.1 4.65 -70.6 5.25Q-83.95 -8.6 -78.55 -37.05Q-63.45 -39.25 -46.3 -17.95L-44.5 -18.4L-43.6 -18.25Q-38.6 -41.4 -30.8 -47.15Q-17.45 -38.7 -20.1 -14.25Q-29.1 -7.75 -41.1 -13.65Q-41.4 -12.9 -42 -12.35M-49.3,-15.45Q-62 -27.6 -72.4 -29.05Q-76.9 -17.3 -67.7 -2.85Q-57.8 -4.3 -49.3 -15.45M-39.75,-17.95Q-32.15 -14.35 -25.05 -18.1Q-24.45 -31.85 -31.25 -39.65Q-36.6 -32.8 -39.75 -17.95" />
</g>
</svg>
