<?xml version="1.0" encoding="utf-8"?>
<svg version="1.1" id="Layer_1"
xmlns="http://www.w3.org/2000/svg"
xmlns:xlink="http://www.w3.org/1999/xlink"
xmlns:author="http://www.sothink.com"
width="169px" height="168px"
xml:space="preserve">
<g id="2379" transform="matrix(1, 0, 0, 1, 84.15, 91.05)">
<path style="fill:none;stroke-width:2;stroke-linecap:round;stroke-linejoin:round;stroke-miterlimit:3;stroke:#000000;stroke-opacity:1" d="M46.9,-75.3L50.45 -75.1Q56.05 -72.7 59.95 -68.05Q70.3 -79.7 79.7 -78Q84.2 -49.6 73.1 -35.75Q70.6 -35.9 68.15 -36.95Q69.6 -20.3 71.85 -6.2L71.9 -6.15L74.8 -2.05L73.15 0.5Q77.1 22.2 83.15 36.6Q80.95 34.3 79.05 31Q75.45 24.65 72.85 14.4Q75.8 37.95 67.85 55.45Q68.95 48.3 67.65 31.9Q69 60.45 50.85 75.5Q52.85 66.7 52.35 60.8L51.5 50.5Q51.15 47 51.2 39.9Q50.85 49.75 44.25 58.65Q47.5 45.75 47.65 11.6Q46.9 19.35 43.35 23.65Q44.7 13.2 45.2 3.2Q45.4 -22.15 39.95 -42.65Q38.15 -47.75 37.25 -52.05L37.15 -52.1Q34 -52.8 31.2 -55.25Q29.1 -79.7 40.1 -88.15Q43.95 -84.75 46.9 -75.3L46.95 -75.2Q49.05 -68.7 50.7 -59.25L51.45 -59.4Q52.25 -59.4 52.95 -58.9Q56.45 -64.15 59.85 -67.95L59.95 -68.05M36.35,-58.5Q41.75 -55.65 47.5 -58.9Q45.9 -68 43.65 -74.05L43.65 -74.15Q40.8 -72.55 38.1 -68.8Q36.1 -64.6 36.35 -58.5L35.35 -59.1Q34.85 -72.85 40.5 -80.6Q42.2 -78 43.65 -74.15M50.7,-59.25Q49.9 -59.05 49.4 -58.35Q48.55 -57.3 48.55 -55.85L48.65 -54.65Q48.85 -53.9 49.4 -53.35L50.2 -52.6Q50.55 -52.4 50.9 -52.35L51.35 -52.3L51.45 -52.3Q52.15 -52.3 52.7 -52.65L53.1 -52.9L53.5 -53.35Q54.4 -54.35 54.4 -55.85Q54.4 -57.3 53.5 -58.35L52.95 -58.9M74.6,-70.05Q69.1 -69.1 62.8 -63.8Q65.7 -58.55 67 -51.25L67.4 -44.85L70.7 -43.85Q78.3 -58.3 74.6 -70.05M67.4,-44.85Q61 -47.55 55.4 -56.45Q59.15 -60.8 62.7 -63.75L62.8 -63.8M68.15,-36.95L68.05 -37Q60.4 -40.4 53.1 -52.9M37.25,-52.05Q42.45 -51 48.65 -54.65M50.9,-52.35Q49.3 -27.65 62.6 4.25Q56.5 1.65 55.05 -2Q44.2 -27.75 50.2 -52.6M52.7,-52.65Q58.55 -25.75 71.85 -6.2M51.2,39.9L51.3 36.15L51.3 35.3L51.4 33.8M73.15,0.5L73.05 0.55Q70.6 3.15 66.45 4.25Q52.85 -24.05 51.35 -52.3M-42.75,-61.15Q-41.05 -68.95 -39.05 -74.75L-39 -74.9L-44.75 -75.1Q-49.7 -73.15 -53.55 -69.7L-53.5 -69.65Q-49.55 -65.9 -45.45 -60.85L-43.65 -61.3L-42.75 -61.15Q-41.85 -60.95 -41.15 -60.25Q-40.1 -59.2 -40.1 -57.75Q-40.1 -57.1 -40.25 -56.55Q-35.15 -54.05 -30.6 -53.75L-30.55 -53.75Q-24.45 -53.4 -19.25 -57.15Q-16.6 -81.6 -29.95 -90.05Q-35.1 -86.25 -39 -74.9M-29.8,-59.15Q-29.6 -64.85 -31.5 -68.8Q-33.45 -71.4 -35.5 -72.95L-35.55 -72.8Q-37.45 -67.65 -38.9 -60.85Q-34.3 -58.7 -29.9 -59.15L-29.8 -59.15Q-26.95 -59.5 -24.2 -61Q-23.6 -74.75 -30.4 -82.55Q-33.25 -78.9 -35.5 -72.95M-63.75,-46.4Q-55.6 -48.95 -48.45 -58.35Q-52.95 -62.65 -57.15 -65.6L-57.2 -65.6Q-61.45 -59.85 -63.35 -51.25L-63.75 -46.4L-63.85 -46.4L-66.85 -45.75Q-76.05 -60.2 -71.55 -71.95Q-64.85 -71 -57.2 -65.6M-53.55,-69.7Q-66.2 -81.65 -77.7 -79.95Q-83.1 -51.5 -69.75 -37.65Q-67.25 -37.75 -64.75 -38.5L-64.7 -38.5Q-54.95 -41.55 -45.65 -54.8L-46.15 -55.25Q-47.2 -56.3 -47.2 -57.75Q-47.2 -59.2 -46.15 -60.25L-45.45 -60.85M-40.25,-56.55Q-40.55 -55.8 -41.15 -55.25L-42.2 -54.5Q-34.9 -29.65 -47.95 -3.9Q-49.7 -0.25 -57.1 2.3Q-41.05 -29.55 -42.95 -54.25L-43.55 -54.2Q-45.35 -25.95 -61.75 2.3Q-67.65 1 -70.6 -2.35Q-75.8 21.2 -83.15 36.6Q-80.7 34.3 -78.55 31Q-74.45 24.65 -71.35 14.4Q-75.15 37.95 -66.95 55.45Q-68 48.3 -66.15 31.9Q-68.35 60.45 -49.05 75.5Q-50.95 66.7 -50.3 60.8L-49.1 50.5Q-48.65 47 -48.5 39.9L-48.5 36.15L-48.5 35.3L-48.55 33.8M-42.2,-54.5L-42.95 -54.25M-43.55,-54.2L-43.65 -54.2L-45.15 -54.55Q-52.5 -26.3 -69.8 -6.15L-69.9 -6.05L-71.8 -3.95L-70.65 -2.4L-70.6 -2.35M-45.15,-54.55L-45.65 -54.8M-64.7,-38.5Q-66.85 -20.9 -69.8 -6.15M-48.5,39.9Q-48.35 49.75 -41.45 58.65Q-44.6 45.75 -43.95 11.6Q-43.3 19.35 -39.55 23.65Q-40.75 13.2 -41.05 3.2Q-40.65 -22.15 -34.15 -42.65Q-31.7 -48.7 -30.55 -53.75" />
</g>
</svg>
