<?xml version="1.0" encoding="utf-8"?>
<svg version="1.1" id="Layer_1"
xmlns="http://www.w3.org/2000/svg"
xmlns:xlink="http://www.w3.org/1999/xlink"
xmlns:author="http://www.sothink.com"
width="27px" height="15px"
xml:space="preserve">
<g id="7841" transform="matrix(1, 0, 0, 1, 13.4, 7.25)">
<path style="fill:#F52556;fill-opacity:1" d="M4.4,-6.6Q5.65 -7.25 7.15 -7.25Q9.75 -7.25 11.6 -5.4Q13.4 -3.55 13.4 -0.95Q13.4 1.6 11.6 3.45Q9.75 5.3 7.15 5.3Q4.55 5.3 2.75 3.45Q0.9 1.6 0.9 -0.95Q0.9 -3.55 2.75 -5.4Q3.5 -6.2 4.4 -6.6M-7.2,-5.2L-7.15 -5.2Q-4.6 -5.2 -2.8 -3.4Q-0.95 -1.55 -0.95 1.05Q-0.95 3.6 -2.8 5.4Q-4.6 7.25 -7.15 7.25Q-9.75 7.25 -11.6 5.4Q-13.4 3.6 -13.4 1.05Q-13.4 -1.55 -11.6 -3.4Q-9.75 -5.2 -7.2 -5.2" />
</g>
</svg>
