<?xml version="1.0" encoding="utf-8"?>
<svg version="1.1" id="Layer_1"
xmlns="http://www.w3.org/2000/svg"
xmlns:xlink="http://www.w3.org/1999/xlink"
xmlns:author="http://www.sothink.com"
width="125px" height="154px"
xml:space="preserve">
<g id="7967" transform="matrix(1, 0, 0, 1, 62.35, 76.5)">
<path style="fill:#FFF1E0;fill-opacity:1" d="M-44.65,25.4L-44.95 25.9Q-46.2 27.55 -50.15 26.95Q-54.6 26.15 -59.35 19.65Q-64.95 11.95 -60.15 6.1Q-58.5 4.85 -55.75 4.65L-55.2 5.25Q-59.3 -6.45 -60.1 -15.55Q-60.75 -43.3 -45.55 -58.6Q-21.7 -80.9 11.6 -75.45Q21.7 -73 29.65 -69.65L29.7 -69.6Q48.55 -60.25 54.7 -47.1Q64.8 -27.9 61.6 -1.6Q59.5 3.15 61.05 14.95L61.2 17.95L61.2 18.6Q63.95 45.65 55.65 59.5Q47.35 73.3 24.45 76.35Q-4.4 78.1 -21.6 64.15Q-38.8 50.2 -43.35 27.85L-44.65 25.4" />
</g>
</svg>
