<?xml version="1.0" encoding="utf-8"?>
<svg version="1.1" id="Layer_1"
xmlns="http://www.w3.org/2000/svg"
xmlns:xlink="http://www.w3.org/1999/xlink"
xmlns:author="http://www.sothink.com"
width="42px" height="63px"
xml:space="preserve">
<g id="1708" transform="matrix(1, 0, 0, 1, 21, 31.35)">
<path style="fill:none;stroke-width:1.7;stroke-linecap:round;stroke-linejoin:round;stroke-miterlimit:3;stroke:#000000;stroke-opacity:1" d="M-0.6,-21.9L1.1 -30.5Q1.55 -29.9 4 -29.65L6.95 -29.8L5.35 -21.05M3.4,-10.85L2 -3.15L8.65 -3.85L8.75 -3.85Q13.8 -4.65 18.6 -6.2L18.95 -6.35Q19.65 -6.2 20 -4.8Q20.45 -3.2 19.6 -2.7L17.95 -2.05L9.55 26.5Q6.3 30.6 -1.5 30.45Q-10.75 29.9 -12.9 26.35L-18.55 -3.7L-19.7 -4.5Q-20.3 -5 -20.1 -6.25Q-19.85 -7.65 -19.2 -8.05L-18.65 -7.95L-16.35 -6.65Q-14.2 -5.55 -10.3 -4.6L-4.15 -3.35M-0.6,-21.9L-1.1 -19.05L-2.65 -11.2L-4.15 -3.35L2 -3.15M3.4,-10.85L4.85 -18.5L5.35 -21.05M-12.25,21.5Q-12.85 20.9 -12.85 20.1Q-12.85 19.25 -12.25 18.65Q-11.65 18.05 -10.85 18.05Q-10 18.05 -9.4 18.65Q-8.8 19.25 -8.8 20.1Q-8.8 20.9 -9.4 21.5Q-10 22.15 -10.85 22.15Q-11.65 22.15 -12.25 21.5M-3.45,17.8Q-3.45 18.65 -4.05 19.25Q-4.7 19.85 -5.5 19.85Q-6.3 19.85 -6.95 19.25Q-7.55 18.65 -7.55 17.8Q-7.55 17 -6.95 16.35Q-6.3 15.8 -5.5 15.8Q-4.7 15.8 -4.05 16.35Q-3.45 17 -3.45 17.8M-7.55,23.5Q-6.7 23.5 -6.15 24.1Q-5.5 24.7 -5.5 25.5Q-5.5 26.35 -6.15 26.95Q-6.7 27.55 -7.55 27.55Q-8.4 27.55 -9 26.95Q-9.55 26.35 -9.55 25.5Q-9.55 24.7 -9 24.1Q-8.4 23.5 -7.55 23.5M0.45,23Q-0.1 23.6 -0.95 23.6Q-1.8 23.6 -2.4 23Q-2.95 22.4 -2.95 21.55Q-2.95 20.7 -2.4 20.15Q-1.8 19.55 -0.95 19.55Q-0.1 19.55 0.45 20.15Q1.1 20.7 1.1 21.55Q1.1 22.4 0.45 23M0.05,28.5Q-0.55 29.15 -1.4 29.15Q-2.2 29.15 -2.8 28.5Q-3.35 27.95 -3.4 27.25L-3.4 27.05Q-3.4 26.25 -2.8 25.65Q-2.2 25.05 -1.4 25.05Q-0.55 25.05 0.05 25.65Q0.65 26.25 0.65 27.05L0.65 27.25Q0.6 27.95 0.05 28.5M7.75,17.55Q8.55 17.55 9.15 18.15Q9.8 18.75 9.8 19.55Q9.8 20.4 9.15 21Q8.55 21.6 7.75 21.6Q6.9 21.6 6.3 21Q5.7 20.4 5.7 19.55Q5.7 18.75 6.3 18.15Q6.9 17.55 7.75 17.55M3.7,17.95Q3.15 18.55 2.3 18.55Q1.45 18.55 0.85 17.95Q0.3 17.35 0.3 16.55Q0.3 15.7 0.85 15.1Q1.45 14.5 2.3 14.5Q3.15 14.5 3.7 15.1Q4.3 15.7 4.3 16.55Q4.3 17.35 3.7 17.95M5,23.2Q5.85 23.2 6.4 23.75Q7.05 24.4 7.05 25.2Q7.05 26.05 6.4 26.6Q5.85 27.25 5 27.25Q4.15 27.25 3.55 26.6Q3 26.05 3 25.2Q3 24.4 3.55 23.75Q4.15 23.2 5 23.2M17.95,-2.05Q8.5 1.2 -1.5 0.75Q-12.8 -0.25 -18.55 -3.7" />
<path style="fill:none;stroke-width:1.7;stroke-linecap:round;stroke-linejoin:round;stroke-miterlimit:3;stroke:#000000;stroke-opacity:0.6" d="M5.35,-21.05L7 -20.45L7.8 -20.05Q11.2 -18.6 13.9 -16.1Q17.95 -11.6 18.6 -6.2M-18.65,-7.95Q-17.25 -14.35 -11.55 -18.4Q-8.05 -20.6 -4 -21.4L-3.4 -21.5L-0.6 -21.9M-4,-21.4Q-3.8 -19.95 -1.2 -19.1L-1.1 -19.05Q1.9 -18.1 4.85 -18.5L5.8 -18.7Q7.4 -19.1 7.8 -20.05" />
<path style="fill:none;stroke-width:1.7;stroke-linecap:round;stroke-linejoin:round;stroke-miterlimit:3;stroke:#000000;stroke-opacity:0.8" d="M18.6,-6.2Q18.35 -7.3 13.55 -8.7Q8.7 -10.1 3.4 -10.85M-2.65,-11.2L-12 -10.25Q-17.55 -9.2 -18.65 -7.95" />
</g>
</svg>
