<?xml version="1.0" encoding="utf-8"?>
<svg version="1.1" id="Layer_1"
xmlns="http://www.w3.org/2000/svg"
xmlns:xlink="http://www.w3.org/1999/xlink"
xmlns:author="http://www.sothink.com"
width="31px" height="22px"
xml:space="preserve">
<g id="4757" transform="matrix(1, 0, 0, 1, 15.15, 10.85)">
<path style="fill:#F2484B;fill-opacity:1" d="M11.55,-6.75Q14.7 -4.15 15.1 -0.1Q15.5 4 12.85 7.2Q10.25 10.35 6.2 10.75Q2.1 11.15 -1.05 8.5L-3.05 6.35L-15.15 -7.7Q-15 -8.55 -14.35 -9.25L-14 -9.6L-13.85 -9.8Q-13.7 -9.85 -13.65 -9.95Q-12.8 -10.7 -11.55 -10.8Q-10.45 -10.95 -9.45 -10.45L-9.25 -10.25L-8.85 -9.95Q-8.05 -9.35 -7.75 -8.4L-7.7 -8.35L-7.6 -8.3Q-5.15 -4.85 -0.35 -7.35Q1.65 -8.75 4.3 -8.95Q8.4 -9.35 11.55 -6.75M1.5,-2.3Q0.15 -0.65 0.35 1.5Q0.55 3.6 2.15 4.95Q3.8 6.3 5.95 6.1Q8.05 5.9 9.4 4.25Q10.8 2.6 10.55 0.5Q10.4 -1.6 8.7 -3Q7.1 -4.35 5 -4.15Q2.85 -3.95 1.5 -2.3M-12,-7.4Q-12 -6.9 -11.6 -6.65Q-11.25 -6.3 -10.75 -6.35Q-10.3 -6.4 -9.95 -6.8Q-9.65 -7.15 -9.7 -7.65L-10.1 -8.4Q-10.45 -8.7 -10.95 -8.65L-11.75 -8.25Q-12.1 -7.9 -12 -7.4" />
</g>
</svg>
