<?xml version="1.0" encoding="utf-8"?>
<svg version="1.1" id="Layer_1"
xmlns="http://www.w3.org/2000/svg"
xmlns:xlink="http://www.w3.org/1999/xlink"
xmlns:author="http://www.sothink.com"
width="125px" height="135px"
xml:space="preserve">
<g id="7965" transform="matrix(1, 0, 0, 1, 62.35, 67.15)">
<path style="fill:#FFF1E0;fill-opacity:1" d="M-44.65,34.75L-44.95 35.25Q-46.2 36.9 -50.15 36.3Q-54.6 35.5 -59.35 29Q-64.95 21.3 -60.15 15.45Q-58.5 14.2 -55.75 14L-55.2 14.6Q-59.3 2.9 -60.1 -6.2Q-60.75 -33.95 -45.55 -49.25Q-21.7 -71.55 11.6 -66.1Q21.7 -63.65 29.65 -60.3L29.7 -60.25Q48.55 -50.9 54.7 -37.75Q64.8 -18.55 61.6 7.75Q59.5 12.5 61.05 24.3L61.2 27.95Q60.55 32.95 56.75 38Q52.9 43 52.3 44.75Q53.4 48.15 54.05 49.25Q54.65 50.35 52.7 54.95Q50.7 59.5 41.6 65.45L4.7 67.2Q-13.55 54.65 -25.65 49.85Q-37.8 45.05 -41.9 42.9Q-44 36 -44.65 34.75" />
</g>
</svg>
