<?xml version="1.0" encoding="utf-8"?>
<svg version="1.1" id="Layer_1"
xmlns="http://www.w3.org/2000/svg"
xmlns:xlink="http://www.w3.org/1999/xlink"
xmlns:author="http://www.sothink.com"
width="144px" height="60px"
xml:space="preserve">
<g id="1925" transform="matrix(1, 0, 0, 1, 71.55, 29.65)">
<path style="fill:none;stroke-width:2;stroke-linecap:round;stroke-linejoin:round;stroke-miterlimit:3;stroke:#000000;stroke-opacity:1" d="M-55.95,-12.2L-55.8 -12.7Q-54.75 -16.35 -52.9 -17.35Q-33.8 -27.95 7.35 -28.65Q32.15 -27.55 47.3 -19.75Q51.05 -16.5 52.2 -12.05Q54.05 -5 53 -1.8Q62.2 9 69.9 21.8Q71.3 24.15 69.75 25.65Q64.1 28.4 51 21.2Q37.9 14 22.7 12.75Q3.05 12.25 -23.5 26.3Q-33.75 30.4 -39.05 27.45Q-49.8 19 -54.95 3.35Q-55.8 3.15 -56.3 1.6L-56.45 1.1Q-65.05 4.65 -70.55 8.8Q-69.55 3 -66.5 -4.9Q-62.35 -8.85 -55.95 -12.2L-56.85 -7.75Q-57.1 -1.7 -56.45 1.1M53,-1.8Q38.55 -6.95 9.5 -8.25Q-28.95 -6.4 -54.95 3.35" />
</g>
</svg>
