<?xml version="1.0" encoding="utf-8"?>
<svg version="1.1" id="Layer_1"
xmlns="http://www.w3.org/2000/svg"
xmlns:xlink="http://www.w3.org/1999/xlink"
xmlns:author="http://www.sothink.com"
width="35px" height="35px"
xml:space="preserve">
<g id="15077" transform="matrix(1, 0, 0, 1, 17.15, 17.3)">
<path style="fill:#5F5C90;fill-opacity:1" d="M-7.65,4Q-3.1 4 1.8 2.05Q7.65 -0.5 9.5 -2.95Q11.45 -5.35 11.65 -7.65Q8.15 -12.6 3 -13.35L2.6 -13.45Q-1.75 -13.95 -6 -12.35Q-11.55 -9.35 -13.15 -3.45Q-13.75 -0.65 -13.65 2.3Q-12.15 3.95 -7.65 4M-12.5,-11.95Q-8.85 -15.65 -4 -16.85L-0.3 -17.3L3.7 -16.95Q8.35 -16 12.1 -12.3L13 -11.5Q15.75 -8.6 15.2 -5.95Q14.35 -2.15 10.5 1.35Q10.15 1.65 9.9 1.9L9.85 1.9L9.4 2.3Q3.9 6.3 -3.7 7.4Q-12.2 8.2 -15.45 5.65L-15.75 5.4Q-17.25 3.6 -17.15 -1.35Q-16.75 -7.5 -12.5 -11.95M12.3,11.85Q7.55 17.05 0.4 17.3Q-5.25 17.35 -10.05 14.3Q-14.25 11.3 -15.7 8.1L-15.8 7.75L-15.45 7.75Q-14.2 8.65 -12.05 9.2Q-7.55 10.25 -1.35 9.45L-0.8 9.3L3.4 8.2Q10.65 5.15 15.15 -0.7L15.3 -0.9L15.95 -2.35L16.6 -4.1Q17.3 -1.8 16.85 3.05Q16 8.15 12.3 11.85" />
</g>
</svg>
