<?xml version="1.0" encoding="utf-8"?>
<svg version="1.1" id="Layer_1"
xmlns="http://www.w3.org/2000/svg"
xmlns:xlink="http://www.w3.org/1999/xlink"
xmlns:author="http://www.sothink.com"
width="125px" height="126px"
xml:space="preserve">
<g id="7961" transform="matrix(1, 0, 0, 1, 62.35, 63)">
<path style="fill:#FFF1E0;fill-opacity:1" d="M-50.15,40.45Q-54.6 39.65 -59.35 33.15Q-64.95 25.45 -60.15 19.6Q-58.5 18.35 -55.75 18.15L-55.2 18.75Q-59.3 7.05 -60.1 -2.05Q-60.75 -29.8 -45.55 -45.1Q-21.7 -67.4 11.6 -61.95Q21.7 -59.5 29.65 -56.15L29.7 -56.1Q48.55 -46.75 54.7 -33.6Q64.8 -14.4 61.6 11.9Q59.5 16.65 60.95 26.85Q62.35 37 58.4 42.85Q40.6 60.85 21.8 63Q-5.95 61 -21.4 55.3Q-36.9 49.55 -40.6 45.7Q-44.3 41.8 -44.95 39.4Q-46.2 41.05 -50.15 40.45" />
</g>
</svg>
