<?xml version="1.0" encoding="utf-8"?>
<svg version="1.1" id="Layer_1"
xmlns="http://www.w3.org/2000/svg"
xmlns:xlink="http://www.w3.org/1999/xlink"
xmlns:author="http://www.sothink.com"
width="46px" height="56px"
xml:space="preserve">
<g id="6100" transform="matrix(1, 0, 0, 1, 22.75, 27.85)">
<path style="fill:none;stroke-width:1;stroke-linecap:round;stroke-linejoin:round;stroke-miterlimit:3;stroke:#000000;stroke-opacity:1" d="M6.8,-17.7Q6.8 -17.05 6.35 -16.55Q5.9 -16.1 5.2 -16.1Q4.55 -16.1 4.1 -16.55Q3.6 -17.05 3.6 -17.7Q3.6 -18.35 4.1 -18.8Q4.55 -19.3 5.2 -19.3Q5.9 -19.3 6.35 -18.8Q6.8 -18.35 6.8 -17.7M7.85,-7.95Q7.85 -7.3 7.35 -6.8Q6.9 -6.35 6.25 -6.35Q5.55 -6.35 5.1 -6.8Q4.65 -7.3 4.65 -7.95Q4.65 -8.6 5.1 -9.1Q5.55 -9.55 6.25 -9.55Q6.9 -9.55 7.35 -9.1Q7.85 -8.6 7.85 -7.95M1.3,-22.65Q4.7 -2.1 4.6 20.9M8.6,2.15Q8.6 2.8 8.15 3.25Q7.65 3.75 7 3.75Q6.35 3.75 5.9 3.25Q5.4 2.8 5.4 2.15Q5.4 1.45 5.9 1Q6.35 0.55 7 0.55Q7.65 0.55 8.15 1Q8.6 1.45 8.6 2.15M8.95,13.1Q8.95 13.8 8.5 14.25Q8.05 14.7 7.35 14.7Q6.7 14.7 6.25 14.25Q5.75 13.8 5.75 13.1Q5.75 12.45 6.25 12Q6.7 11.5 7.35 11.5Q8.05 11.5 8.5 12L8.95 13.1M1.85,21.45Q1.65 -0.7 -1.55 -22.45" />
<path style="fill:none;stroke-width:1.5;stroke-linecap:round;stroke-linejoin:round;stroke-miterlimit:3;stroke:#000000;stroke-opacity:1" d="M14.35,14.15L17.3 4.55L17.75 2.95L16.3 1.75Q16.05 -6.3 14.1 -15.45Q12.2 -21.7 4.55 -25.7Q4.15 -23.55 1.3 -22.65M-1.55,-22.45Q-7.25 -23.45 -11.55 -27.1Q-18.55 -23.9 -19.9 -19.6Q-20.8 -11 -17.15 2.05L-22 18.9Q-15.05 23.65 -3.85 27.15Q-1 25 1.85 21.45L3.4 19.3L4.6 20.9Q6.85 23.8 10.25 26.65Q16.5 25.1 22.05 20.05L17.3 4.55M-1.55,-22.45L-0.25 -22.3L1.3 -22.65" />
</g>
</svg>
