<?xml version="1.0" encoding="utf-8"?>
<svg version="1.1" id="Layer_1"
xmlns="http://www.w3.org/2000/svg"
xmlns:xlink="http://www.w3.org/1999/xlink"
xmlns:author="http://www.sothink.com"
width="27px" height="39px"
xml:space="preserve">
<g id="4014" transform="matrix(1, 0, 0, 1, 13.3, 19.3)">
<path style="fill:#FFF1E0;fill-opacity:1" d="M13.2,-15.8L12.4 -12.55L9.85 -5.1L7.5 0.75L6.9 2.3Q5.6 5.6 5.2 7.65Q4.7 10.1 4.75 10.5L4.6 12.1Q4.15 15.55 1.65 17.9Q-0.85 20.25 -5.9 18.7Q-9.55 19.15 -10.05 17.35Q-10.55 15.5 -9.05 12.35Q-12 13.3 -13 11.4Q-13.95 9.45 -12 7.9Q-10 6.3 -7.7 5.3Q-5.95 4.55 -4.8 2.3L-4.15 0.7Q-0.55 -8.65 2.5 -18.35L2.95 -19.15L4.95 -19.3Q6 -19.45 8.7 -18.6Q11.35 -17.75 13.1 -16.05Q13.45 -15.8 13.2 -15.8" />
</g>
</svg>
