<?xml version="1.0" encoding="utf-8"?>
<svg version="1.1" id="Layer_1"
xmlns="http://www.w3.org/2000/svg"
xmlns:xlink="http://www.w3.org/1999/xlink"
xmlns:author="http://www.sothink.com"
width="127px" height="139px"
xml:space="preserve">
<g id="7964" transform="matrix(1, 0, 0, 1, 63.45, 69.35)">
<path style="fill:none;stroke-width:2.2;stroke-linecap:round;stroke-linejoin:round;stroke-miterlimit:3;stroke:#54453C;stroke-opacity:1" d="M-51.65,16.45L-53.8 14.35L-54.35 14L-55.2 13.5L-55.75 12.9Q-58.5 13.1 -60.15 14.35Q-64.95 20.2 -59.35 27.9Q-54.6 34.4 -50.15 35.2Q-46.2 35.8 -44.95 34.15L-44.65 33.65L-43.35 36.1Q-38.05 46.1 -17.85 59.4Q2.35 72.7 25 66.15Q42.4 70.55 52.6 54.75Q60.7 42.15 61.2 26.85L61.2 26.2L61.05 23.2Q59.5 11.4 61.6 6.65Q64.8 -19.65 54.7 -38.85Q48.55 -52 29.7 -61.35L29.65 -61.4Q21.7 -64.75 11.6 -67.2Q-21.7 -72.65 -45.55 -50.35Q-60.75 -35.05 -60.1 -7.3Q-59.3 1.8 -55.2 13.5M-44.95,34.15L-43.35 36.1" />
<path style="fill:none;stroke-width:1;stroke-linecap:round;stroke-linejoin:round;stroke-miterlimit:3;stroke:#54453C;stroke-opacity:1" d="M-56.85,23.7Q-59.05 22.05 -57.75 19.75Q-56.45 17.45 -54.75 19.35Q-52.5 21.95 -50.3 26L-50.1 26.3L-49.85 26.85L-49.75 27.05L-49.6 27.3Q-50.6 28.7 -51 29.95L-51.15 30.6M-51,29.95Q-53.3 29.55 -54.5 26.65" />
</g>
</svg>
