<?xml version="1.0" encoding="utf-8"?>
<svg version="1.1" id="Layer_1"
xmlns="http://www.w3.org/2000/svg"
xmlns:xlink="http://www.w3.org/1999/xlink"
xmlns:author="http://www.sothink.com"
width="26px" height="22px"
xml:space="preserve">
<g id="4758" transform="matrix(1, 0, 0, 1, 12.55, 10.85)">
<path style="fill:#FF6E1D;fill-opacity:1" d="M12.6,-5.95L6.5 4.75Q5.95 6.05 5 7.2Q2.35 10.35 -1.75 10.8Q-5.8 11.2 -8.95 8.55Q-12.1 5.95 -12.5 1.85Q-12.9 -2.2 -10.3 -5.4Q-7.7 -8.5 -3.6 -8.9Q-1 -9.15 1.25 -8.15Q6.45 -6.7 8.3 -10.5L8.3 -10.6L8.35 -10.85L12.6 -5.95M2.2,0.6Q2 -1.5 0.4 -2.8Q-1.2 -4.15 -3.3 -3.95Q-5.4 -3.7 -6.75 -2.15Q-8.05 -0.5 -7.9 1.55Q-7.7 3.65 -6.05 4.95Q-4.4 6.3 -2.35 6.15Q-0.25 5.9 1.1 4.3Q2.4 2.7 2.2 0.6" />
</g>
</svg>
