<?xml version="1.0" encoding="utf-8"?>
<svg version="1.1" id="Layer_1"
xmlns="http://www.w3.org/2000/svg"
xmlns:xlink="http://www.w3.org/1999/xlink"
xmlns:author="http://www.sothink.com"
width="20px" height="22px"
xml:space="preserve">
<g id="9406" transform="matrix(1, 0, 0, 1, 9.9, 10.7)">
<path style="fill:#77C7E9;fill-opacity:1" d="M-0.3,10.45L-3.75 10.35Q-5.75 10.25 -7.1 8.9Q-9.35 6.85 -9.9 0Q-9.95 -7.6 -8.35 -10.1L-5.65 -10.55L-2.95 -10.7L0.75 -10.45L4.3 -9.75L7.9 -8.6Q9.85 -4.85 9.95 0.6Q9.5 6.2 7.5 8.6L7.45 8.65Q6.2 10.05 4.2 10.35L2.65 10.45L2.45 10.55L2.35 10.7L0.75 10.6L0 10.7L-0.05 10.55L-0.25 10.45L-0.3 10.45" />
</g>
</svg>
