<?xml version="1.0" encoding="utf-8"?>
<svg version="1.1" id="Layer_1"
xmlns="http://www.w3.org/2000/svg"
xmlns:xlink="http://www.w3.org/1999/xlink"
xmlns:author="http://www.sothink.com"
width="29px" height="59px"
xml:space="preserve">
<g id="15085" transform="matrix(1, 0, 0, 1, 15.15, 34)">
<path style="fill:#B9D1F5;fill-opacity:0.247059" d="M-6.05,21.2L-6.1 20.7L-6.1 18.6L-5.95 16.1L-5.55 13.5L-5.45 12.9L-5.35 10.2L-4.45 5.2L-4.2 4.3L-4.15 4.3L-3.85 3.2Q-2.85 1.05 -3.4 -0.8L-3.65 -1.7L-4.95 0.8L-5 0.85L-5.15 1.05L-6.45 3.7L-6.95 4.8L-7.05 4.95L-7.4 6.2L-7.4 7.05Q-7.5 7.55 -8 7.55Q-8.55 7.55 -8.55 6.9Q-8.65 7.4 -9 7.6L-9.9 7.95Q-10.55 7.95 -11 7.5Q-11.4 7.1 -11.35 6.35Q-11.35 5.8 -10.15 4.35L-9.75 3.85L-7.35 -0.2L-7.2 -0.2L-7.2 -0.3L-6.95 -0.95L-4.8 -4.45Q-4.2 -5.2 -3.1 -5.45L-2.7 -5.55L-2.25 -5.8L-2.1 -5.9Q-1.85 -6.15 -1.85 -6.85Q-7.75 -7.65 -9.7 -9.65L-10.8 -10.9Q-11.05 -10.5 -12 -10.65Q-12.95 -10.85 -14 -12.25Q-15.2 -13.95 -14.15 -15.25L-13.15 -15.55L-13.1 -15.45Q-13.95 -18 -14.15 -20.05Q-14.25 -26.15 -10.95 -29.55Q-5.65 -34.45 1.7 -33.25L5.7 -31.95Q9.8 -29.85 11.2 -27Q13.4 -22.75 12.7 -16.95Q12.25 -15.9 12.6 -13.3Q12.95 -10.7 10.1 -8.55Q7.65 -6.65 0.65 -6.8Q0.8 -5.95 1.15 -5.75L1.25 -5.65L1.8 -5.3L1.9 -5.15L3.35 -4.25L5.75 -0.95L6 -0.35L7.25 1.7L8.7 3.65L9.55 4.45L9.7 4.6Q10.85 5.65 10.1 6.65Q9.3 7.7 8.3 7.35Q7.1 6.95 6.95 6.2L6.2 4.4L6 4.15L4.1 1.2L4 1.1L3.85 0.95L3.65 0.55L3.95 1.7L4.6 4.15L4.65 5.2L4.65 5.35L4.7 5.55Q5.45 8.95 5.45 12.75L5.45 12.95L5.5 13.8L5.6 18.25L5.7 18.7Q5.75 19.95 5.9 20.4L6.05 21.05L6.15 21.45L6.6 22.65Q6.85 23.35 5.3 23.25Q3.8 23.2 3.15 22.6L2.35 21.15L2.1 20.35L1.55 18.25L1.2 15.7L1 13.1L1 12.95L0.85 12.5L0.55 10L0.35 7.55L0.3 7.55L-0.75 13.3L-0.85 13.55L-0.95 14.35L-1.85 18.7L-1.95 19.2L-2.05 20.9L-2.1 21.5L-2.05 21.95L-1.85 23.2Q-1.75 23.85 -3.35 23.7Q-4.95 23.65 -5.45 22.95Q-5.95 22.4 -6.05 21.2" />
<path style="fill:none;stroke-width:1;stroke-linecap:round;stroke-linejoin:round;stroke-miterlimit:3;stroke:#B9D1F5;stroke-opacity:1" d="M-13.1,-15.45L-13.15 -15.55L-14.15 -15.25Q-15.2 -13.95 -14 -12.25Q-12.95 -10.85 -12 -10.65Q-11.05 -10.5 -10.8 -10.9L-9.7 -9.65Q-7.75 -7.65 -1.85 -6.85L-1.5 -6.8L0.65 -6.8Q7.65 -6.65 10.1 -8.55Q12.95 -10.7 12.6 -13.3Q12.25 -15.9 12.7 -16.95Q13.4 -22.75 11.2 -27Q9.8 -29.85 5.7 -31.95L1.7 -33.25Q-5.65 -34.45 -10.95 -29.55Q-14.25 -26.15 -14.15 -20.05Q-13.95 -18 -13.1 -15.45L-12.9 -15.35L-12.7 -15.25L-12.25 -14.8M1.9,-5.15Q3.1 -4.2 3.2 -2.05Q3.35 -0.7 3.65 0.5L4 1.1L4.1 1.2L6 4.15L6.2 4.4L6.95 6.2Q7.1 6.95 8.3 7.35Q9.3 7.7 10.1 6.65Q10.85 5.65 9.7 4.6L9.55 4.45L8.7 3.65L7.25 1.7L6 -0.35L5.75 -0.95L3.35 -4.25L1.9 -5.15L1.8 -5.3L1.25 -5.65L0.3 -4.35Q-1.4 -5 -2.1 -5.9L-2.25 -5.8L-2.7 -5.55L-3.1 -5.45M-3.65,-1.7L-3.4 -0.8Q-2.85 1.05 -3.85 3.2L-4.15 4.3M-4.2,4.3L-4.45 5.2L-5.35 10.2L-5.45 12.9L-5.55 13.5L-5.95 16.1L-6.1 18.6L-6.1 20.7L-6.05 21.2M4.65,5.35L4.65 5.2L4.6 4.15L3.95 1.7L3.65 0.55L3.65 0.5M0.65,-6.8Q0.8 -5.95 1.15 -5.75L1.25 -5.65M4,1.1L3.85 0.95L3.65 0.55M-2.1,21.5L-2.05 20.9L-1.95 19.2L-1.85 18.7L-0.95 14.35L-0.85 13.55L-0.75 13.3L0.3 7.55L0.35 7.55L0.55 10L0.85 12.5L1 12.95L1 13.1L1.2 15.7L1.55 18.25L2.1 20.35L2.35 21.15L3.15 22.6Q3.8 23.2 5.3 23.25Q6.85 23.35 6.6 22.65L6.15 21.45L6.05 21.05L5.9 20.4Q5.75 19.95 5.7 18.7L5.6 18.25L5.5 13.8L5.45 12.95L5.45 12.75Q5.45 8.95 4.7 5.55M-3.65,-1.7L-4.95 0.8L-5 0.85L-5.15 1.05L-6.45 3.7L-6.95 4.8L-7.05 4.95L-7.4 6.2L-7.4 7.05Q-7.5 7.55 -8 7.55Q-8.55 7.55 -8.55 6.9Q-8.65 7.4 -9 7.6L-9.9 7.95Q-10.55 7.95 -11 7.5Q-11.4 7.1 -11.35 6.35Q-11.35 5.8 -10.15 4.35L-9.75 3.85L-7.35 -0.2L-7.2 -0.2L-7.2 -0.3L-6.95 -0.95L-4.8 -4.45Q-4.2 -5.2 -3.1 -5.45M-2.1,-5.9Q-1.85 -6.15 -1.85 -6.85M-2.1,21.5L-2.05 21.95L-1.85 23.2Q-1.75 23.85 -3.35 23.7Q-4.95 23.65 -5.45 22.95Q-5.95 22.4 -6.05 21.2" />
<path style="fill:none;stroke-width:1;stroke-linecap:round;stroke-linejoin:round;stroke-miterlimit:3;stroke:#B9D1F5;stroke-opacity:0.4" d="M-3.1,-5.45Q-2.45 -5 -2.7 -3.55L-3.65 -1.7M-4.45,5.2Q1.35 5.45 4.65 5.2M2.35,21.15L6.05 21.05M-6.05,21.2L-2.1 21.5" />
</g>
</svg>
