<?xml version="1.0" encoding="utf-8"?>
<svg version="1.1" id="Layer_1"
xmlns="http://www.w3.org/2000/svg"
xmlns:xlink="http://www.w3.org/1999/xlink"
xmlns:author="http://www.sothink.com"
width="178px" height="156px"
xml:space="preserve">
<g id="7969" transform="matrix(1, 0, 0, 1, 88.85, 77.8)">
<path style="fill:#FFF1E0;fill-opacity:1" d="M-71.15,24.1L-71.45 24.6Q-72.7 26.25 -76.65 25.65Q-81.1 24.85 -85.85 18.35Q-91.45 10.65 -86.65 4.8Q-85 3.55 -82.25 3.35L-81.7 3.95Q-85.8 -7.75 -86.6 -16.85Q-87.25 -44.6 -72.05 -59.9Q-48.2 -82.2 -14.9 -76.75Q-4.8 -74.3 3.15 -70.95L3.2 -70.9Q22.05 -61.55 28.2 -48.4Q38.3 -29.2 35.1 -2.9Q33 1.85 34.55 13.65L34.7 16.65L34.7 17.3Q54.45 25.25 70.4 32.3Q86.35 39.35 88.85 44.8Q88.15 57.35 74.95 75.45Q19.95 81.3 -30.6 72.95Q-47 66 -55.85 54.15Q-64.7 42.3 -69.85 26.55L-71.15 24.1" />
</g>
</svg>
