<?xml version="1.0" encoding="utf-8"?>
<svg version="1.1" id="Layer_1"
xmlns="http://www.w3.org/2000/svg"
xmlns:xlink="http://www.w3.org/1999/xlink"
xmlns:author="http://www.sothink.com"
width="180px" height="158px"
xml:space="preserve">
<g id="7970" transform="matrix(1, 0, 0, 1, 89.95, 78.9)">
<path style="fill:none;stroke-width:2.2;stroke-linecap:round;stroke-linejoin:round;stroke-miterlimit:3;stroke:#54453C;stroke-opacity:1" d="M-78.15,6.9L-80.3 4.8L-80.85 4.45L-81.7 3.95L-82.25 3.35Q-85 3.55 -86.65 4.8Q-91.45 10.65 -85.85 18.35Q-81.1 24.85 -76.65 25.65Q-72.7 26.25 -71.45 24.6L-71.15 24.1L-69.85 26.55Q-64.7 42.3 -55.85 54.15Q-47 66 -30.6 72.95Q19.95 81.3 74.95 75.45Q88.15 57.35 88.85 44.8Q86.35 39.35 70.4 32.3Q54.45 25.25 34.7 17.3L34.7 16.65L34.55 13.65Q33 1.85 35.1 -2.9Q38.3 -29.2 28.2 -48.4Q22.05 -61.55 3.2 -70.9L3.15 -70.95Q-4.8 -74.3 -14.9 -76.75Q-48.2 -82.2 -72.05 -59.9Q-87.25 -44.6 -86.6 -16.85Q-85.8 -7.75 -81.7 3.95M62.9,40.6Q70.85 42.8 77.05 47.35Q79.3 52.5 78.45 58.6M-71.45,24.6L-69.85 26.55" />
<path style="fill:none;stroke-width:1;stroke-linecap:round;stroke-linejoin:round;stroke-miterlimit:3;stroke:#54453C;stroke-opacity:1" d="M-83.35,14.15Q-85.55 12.5 -84.25 10.2Q-82.95 7.9 -81.25 9.8Q-79 12.4 -76.8 16.45L-76.6 16.75L-76.35 17.3L-76.25 17.5L-76.1 17.75Q-77.1 19.15 -77.5 20.4L-77.65 21.05M-77.5,20.4Q-79.8 20 -81 17.1" />
</g>
</svg>
