<?xml version="1.0" encoding="utf-8"?>
<svg version="1.1" id="Layer_1"
xmlns="http://www.w3.org/2000/svg"
xmlns:xlink="http://www.w3.org/1999/xlink"
xmlns:author="http://www.sothink.com"
width="254px" height="43px"
xml:space="preserve">
<g id="13961" transform="matrix(1, 0, 0, 1, 0, 21.05)">
<linearGradient
id="LinearGradID_1345" gradientUnits="userSpaceOnUse" gradientTransform="matrix(0, -0.0255127, 0.125336, 0, 151.3, 0)" spreadMethod ="pad" x1="-819.2" y1="0" x2="819.2" y2="0" >
<stop  offset="0" style="stop-color:#EEF3FF;stop-opacity:1" />
<stop  offset="1" style="stop-color:#D4DDFF;stop-opacity:1" />
</linearGradient>
<path style="fill:url(#LinearGradID_1345) " d="M59,21.1Q56.1 21.1 53.8 19.7Q51.45 18.3 50.05 15.95Q48.65 13.65 48.65 10.75L48.65 -20.95L56.25 -20.95L56.25 10.65Q56.25 11.85 57.05 12.7Q57.9 13.5 59.1 13.5L75.2 13.5L77.6 21.1L59 21.1M110.6,-12.5L110.6 13.5Q110.55 15.65 109.55 17.35Q108.55 19.1 106.8 20.05Q105.1 21.1 102.95 21.1L89.35 21.1Q87.2 21.1 85.55 20.05Q83.8 19.1 82.8 17.35Q81.8 15.65 81.75 13.5L81.75 -12.5L89.35 -12.5L89.35 11.95Q89.4 12.6 89.8 13.05Q90.25 13.5 90.9 13.5L101.45 13.5L102.5 13.05Q102.95 12.6 102.95 11.95L102.95 -12.5L110.6 -12.5M146,21.1L138.35 21.1L138.35 -3.35Q138.35 -4 137.95 -4.4L136.85 -4.85L124.8 -4.85L124.8 21.1L117.2 21.1L117.2 -12.5L124.8 -12.5L124.8 -8.7L128.65 -12.5L138.35 -12.5Q140.5 -12.45 142.25 -11.45Q144 -10.45 144.95 -8.75Q146 -7 146 -4.85L146 21.1M152.65,-20.9L160.2 -20.9L160.2 -14.75L152.65 -14.75L152.65 -20.9M152.65,21.1L152.65 -12.5L160.2 -12.5L160.2 21.1L152.65 21.1M216.85,21.1L209.25 21.1L209.25 -3.35Q209.25 -4 208.8 -4.4Q208.35 -4.85 207.7 -4.85L195.7 -4.85L195.7 21.1L188.05 21.1L188.05 -3.35L187.6 -4.4Q187.2 -4.85 186.55 -4.85L174.45 -4.85L174.45 21.1L166.85 21.1L166.85 -12.5L174.45 -12.5L174.45 -8.7L178.35 -12.5L188.05 -12.5Q190.4 -12.45 192.25 -11.2Q194.05 -10 195 -8L199.5 -12.5L209.25 -12.5Q211.4 -12.45 213.1 -11.45Q214.8 -10.45 215.8 -8.75Q216.85 -7 216.85 -4.85L216.85 21.1M231.05,8.15L231.05 11.95Q231.1 12.6 231.5 13.05Q231.95 13.5 232.65 13.5L252.5 13.5L250.2 21.1L231.05 21.1Q228.95 21.1 227.25 20.05Q225.5 19.1 224.5 17.35Q223.5 15.65 223.45 13.5L223.45 -4.85Q223.5 -7 224.5 -8.75Q225.5 -10.45 227.25 -11.45Q228.95 -12.45 231.05 -12.5L246.35 -12.5Q248.5 -12.45 250.25 -11.45Q251.95 -10.45 253 -8.75Q254 -7 254 -4.85L254 8.15L231.05 8.15M246.35,-3.35Q246.35 -4 245.95 -4.4Q245.5 -4.85 244.9 -4.85L232.65 -4.85Q231.95 -4.85 231.5 -4.4Q231.1 -4 231.05 -3.35L231.05 0.5L246.35 0.5L246.35 -3.35" />
<linearGradient
id="LinearGradID_1346" gradientUnits="userSpaceOnUse" gradientTransform="matrix(0, -0.0275574, 0.0258484, 0, 21.15, -1.6)" spreadMethod ="pad" x1="-819.2" y1="0" x2="819.2" y2="0" >
<stop  offset="0" style="stop-color:#00ADFA;stop-opacity:1" />
<stop  offset="1" style="stop-color:#2680FA;stop-opacity:1" />
</linearGradient>
<path style="fill:url(#LinearGradID_1346) " d="M35.95,14.95Q29.8 21.05 21.05 21.05Q12.35 21.05 6.15 14.95Q0 8.8 0 0Q0 -8.75 6.15 -14.9Q12.35 -21.05 21.05 -21.05Q29.8 -21.05 35.95 -14.9L37.1 -13.65Q33.4 -16.05 28.65 -16.05Q21.95 -16.05 17.25 -11.35Q12.6 -6.65 12.6 0Q12.6 6.7 17.25 11.35Q21.95 16.1 28.65 16.1Q33.4 16.1 37.05 13.75L35.95 14.95M15.25,0.05Q15.25 -5.7 19.2 -9.6Q22.15 -12.5 26.05 -13.3L29 -13.55L32.1 -13.25Q35.75 -12.4 38.65 -9.4Q40.2 -7.95 41.15 -6.15Q41.15 -2.1 37.15 1.4L36.55 1.8Q31.25 5.95 23.85 6.15Q16.6 6.3 15.5 2.7L15.4 1.7L15.25 0.05M20.65,-8.1Q17.4 -4.8 17.4 0.05L17.45 1.65L17.45 1.7L17.45 1.9Q18.65 4.1 23.75 3.9L23.85 3.9Q29.25 3.8 33.4 1.4Q34.65 0.7 35.7 -0.2Q38.65 -2.7 39.15 -5.65L37.3 -7.95Q33.85 -11.4 29 -11.45Q24.25 -11.5 20.9 -8.15L20.65 -8.1M38.35,9.75Q34.45 13.75 28.75 13.75Q23.1 13.75 19 9.75Q17.4 7.9 16.15 5.9L16.4 5.9Q18.4 7.35 22.4 7.85L24 7.85Q32.15 7.6 37.75 3.15L38.6 2.3Q40.75 0.45 41.5 -1.45L42.05 -2.8Q42.6 -0.95 42.1 2.85Q41.35 6.85 38.35 9.75" />
</g>
</svg>
