<?xml version="1.0" encoding="utf-8"?>
<svg version="1.1" id="Layer_1"
xmlns="http://www.w3.org/2000/svg"
xmlns:xlink="http://www.w3.org/1999/xlink"
xmlns:author="http://www.sothink.com"
width="126px" height="125px"
xml:space="preserve">
<g id="7973" transform="matrix(1, 0, 0, 1, 63, 62.4)">
<path style="fill:#FFF1E0;fill-opacity:1" d="M-19.9,53.2L-19.95 53.2Q-41.7 51 -45.3 39.55L-45.6 40Q-46.85 41.65 -50.8 41.05Q-55.25 40.25 -60 33.75Q-65.6 26.05 -60.8 20.2Q-59.15 18.95 -56.4 18.75L-55.85 19.35Q-59.95 7.65 -60.75 -1.45Q-61.4 -29.2 -46.2 -44.5Q-22.35 -66.8 10.95 -61.35Q21.05 -58.9 29 -55.55L29.05 -55.5Q47.9 -46.15 54.05 -33Q64.15 -13.8 60.95 12.5Q58.85 17.25 61.4 24.25Q62.95 28.5 63 33.55Q62.65 43.8 54.8 48.9Q46.95 53.95 43.5 54.3Q14.7 70.85 -19.35 53.5L-19.9 53.2" />
</g>
</svg>
