<?xml version="1.0" encoding="utf-8"?>
<svg version="1.1" id="Layer_1"
xmlns="http://www.w3.org/2000/svg"
xmlns:xlink="http://www.w3.org/1999/xlink"
xmlns:author="http://www.sothink.com"
width="38px" height="38px"
xml:space="preserve">
<g id="7843" transform="matrix(1, 0, 0, 1, 18.7, 18.7)">
<path style="fill:none;stroke-width:1.5;stroke-linecap:round;stroke-linejoin:round;stroke-miterlimit:3;stroke:#19080C;stroke-opacity:1" d="M-11.3,-7.4L-2.65 -7.1Q-6.5 -11.05 -10.75 -11.5L-12.75 -11.5Q-18.05 -10.95 -17.95 -8.35Q-17.85 -5.7 -15.8 -4.3Q-13.7 -2.8 -11 -2.9Q-3.35 -3.2 -2.65 -7.1Q-0.75 -7.8 -1.5 -10.65Q-3.8 -15.95 -10.45 -17.95Q-12.7 -17.75 -10.75 -11.5M-2.9,6.95L-2.65 5.45Q-5.2 5.45 -7.05 7.25Q-8.85 9.1 -8.85 11.7Q-8.85 14.25 -7.05 16.05Q-5.2 17.9 -2.6 17.9Q-0.05 17.9 1.75 16.05Q3.6 14.25 3.6 11.7Q3.6 9.1 1.75 7.25Q-0.05 5.45 -2.6 5.45L-2.65 5.45L-2.65 -7.1Q4.65 -3.8 8.95 4.05Q10.2 3.4 11.7 3.4Q14.3 3.4 16.15 5.25Q17.95 7.1 17.95 9.7Q17.95 12.25 16.15 14.1Q14.3 15.95 11.7 15.95Q9.1 15.95 7.3 14.1Q5.45 12.25 5.45 9.7Q5.45 7.1 7.3 5.25Q8.05 4.45 8.95 4.05L9.8 5.3" />
</g>
</svg>
