<?xml version="1.0" encoding="utf-8"?>
<svg version="1.1" id="Layer_1"
xmlns="http://www.w3.org/2000/svg"
xmlns:xlink="http://www.w3.org/1999/xlink"
xmlns:author="http://www.sothink.com"
width="94px" height="125px"
xml:space="preserve">
<g id="27" transform="matrix(1, 0, 0, 1, 46.75, 62.2)">
<path style="fill:#FDDBB3;fill-opacity:1" d="M-6.25,-40.6L-5.2 -41.55Q-3.35 -43.15 -0.8 -44.3Q0.35 -44.85 1.6 -45.25L4.45 -46.15L8.95 -46.55L11.25 -46.45Q13 -55.05 21.55 -61.55Q25.55 -63.6 29.15 -59.1Q36.3 -46.2 27.05 -36.7Q31.1 -32.55 33 -27.8Q33.75 -25.2 33.85 -22.9L33.8 -20.4Q33.3 -15.6 29.8 -11.75L39 -15.6Q43.6 -17.65 46.25 -14.6L46.7 -13Q46.85 -11 45 -9.7L44.6 -9.5Q33.75 -2.8 25.5 6.2Q25.95 8.45 24.75 10.1L26.1 11.7L28.1 14.65Q29.95 17.6 31.2 20.7Q31.55 22.85 31.1 24.15Q30.7 25.3 29.65 25.95L27.6 26.2Q25.8 25.95 24.1 24.1L24.3 25.95Q27.25 29.9 27.25 34.85Q27.85 42.35 23.4 49Q28.05 50.85 29.55 54.2Q30.05 56 29 57Q28.1 57.75 26.15 57.95L12.55 57.3L13.7 58.7Q14.15 60.15 13.45 61Q12.6 62.05 10.25 62.15Q1.7 62.3 -6.9 59.7Q-11.05 59.4 -13.8 54.5Q-17.35 56.5 -21.05 57.55L-24.55 58.4L-29.85 58.85L-33.55 58.6L-39.05 57.45L-42.05 56.4Q-51.4 50.5 -42.05 46.9L-38.8 46.7L-34.3 46.9L-29.4 47.5L-25.15 48.3L-23.75 48.65L-21.9 48.95Q-19.4 49.15 -18.55 48.4Q-18.1 47.95 -18.2 47.15L-18.7 43.65L-18.9 40.85Q-18.95 37.7 -18.5 34.6L-18.2 32.6L-17.55 29.3L-16 24.05Q-15 21 -13.6 18.1L-12.25 15.55Q-10.35 12.1 -7.85 8.95L-5.85 6.65Q-4.5 4.75 -3.9 3.35Q-1.9 -0.95 -3.45 -5.1Q-6.15 -6.55 -8.15 -8.35Q-10.75 -10.75 -12.05 -13.7Q-14.1 -18.35 -12.45 -24.45Q-19.25 -24.35 -23.65 -28.4L-25.95 -31Q-31.55 -40.2 -25.95 -46.8Q-23.6 -49.65 -15.5 -46.8Q-10.4 -44.55 -6.25 -40.6M24.75,-33.7Q22.7 -32.4 23.7 -28.2L23.85 -27.8Q24.15 -26.6 24.8 -24.75Q25.45 -22.95 26.65 -22.25L27.55 -22.15L27.75 -22.15Q31.9 -22.05 31.1 -29.3Q29.4 -33 26.1 -33.65L24.75 -33.7M0.4,-28.25Q-3 -28.5 -4.75 -22.5L-4.65 -22.2Q-1.7 -11.8 4.5 -16Q5.6 -16.4 5.75 -18.5Q6.2 -20.65 5.65 -22.95L5.3 -24.05L4.35 -26.35Q2.15 -28.65 0.4 -28.25M18.4,-13.85Q19.9 -13.2 20.65 -15.05Q21.4 -16.9 20.5 -19.15Q19.7 -18.95 18.6 -19.7Q17.9 -18.5 16.45 -18.3Q17 -14.45 18.4 -13.85" />
</g>
</svg>
