<?xml version="1.0" encoding="utf-8"?>
<svg version="1.1" id="Layer_1"
xmlns="http://www.w3.org/2000/svg"
xmlns:xlink="http://www.w3.org/1999/xlink"
xmlns:author="http://www.sothink.com"
width="63px" height="29px"
xml:space="preserve">
<g id="6407" transform="matrix(1, 0, 0, 1, 31.5, 14.3)">
<path style="fill:#3F3F3F;fill-opacity:1" d="M4.5,-10.1Q19.55 -10.95 21.05 -14.3Q24.85 -9.5 28.25 -2Q30.3 2.5 31.45 7.15L27.4 9.55Q25.15 10.8 23.2 10.8L21.15 10.6L23.7 12.1L14.15 13.5L13.8 13.55L13.25 13.6Q10.2 13.4 7.8 12.65L7.8 12.7L5.3 12.25L8 14.3L1.85 14.35L-0.4 14.3L-6.5 13.05Q-8.45 12.6 -9.85 11.5L-7.6 14.25Q-15.05 13.2 -21.2 9.8L-22.75 8.9Q-23 10.05 -21.15 12.1Q-28.9 9.75 -31.5 7.1Q-29.4 1.75 -26.6 -3.05Q-23.3 -8.8 -19.15 -13.4Q-15.95 -10.15 4.5 -10.1" />
</g>
</svg>
