<?xml version="1.0" encoding="utf-8"?>
<svg version="1.1" id="Layer_1"
xmlns="http://www.w3.org/2000/svg"
xmlns:xlink="http://www.w3.org/1999/xlink"
xmlns:author="http://www.sothink.com"
width="54px" height="132px"
xml:space="preserve">
<g id="11080" transform="matrix(1, 0, 0, 1, 9.3, 34.9)">
<path style="fill:#FFFFFF;fill-opacity:1" d="M5.1,25.75L-5.2 25.05Q-0.05 -4.55 -9.3 -34.9Q14 -32.4 28.05 -23.9Q44.05 -2.9 43.9 31.75Q43.55 81.25 20.95 96.45Q26.15 88.2 31.8 63.25Q30.6 66.2 29 68.85Q32.45 47.95 33.15 18.1Q32.65 22.75 31.6 27.55L30.35 7.75L29.3 27.3Q27.35 25.8 17.8 26.4L18.45 7.7Q17.2 18.45 13.8 26.15L9.6 2.6Q9.9 14.75 8.4 25.9L6.3 13.2Q6.2 19.7 5.1 25.75" />
</g>
</svg>
