<?xml version="1.0" encoding="utf-8"?>
<svg version="1.1" id="Layer_1"
xmlns="http://www.w3.org/2000/svg"
xmlns:xlink="http://www.w3.org/1999/xlink"
xmlns:author="http://www.sothink.com"
width="82px" height="93px"
xml:space="preserve">
<g id="1640" transform="matrix(1, 0, 0, 1, 40.7, 46.5)">
<path style="fill:none;stroke-width:2;stroke-linecap:round;stroke-linejoin:round;stroke-miterlimit:3;stroke:#000000;stroke-opacity:1" d="M7.5,-35.3Q27.85 -34.2 39.7 -19.9Q17.75 -26.9 7.55 -26.4L6.3 -23.7L6.75 35.75Q7 46 0.5 45.4Q-6 46.1 -5.9 35.85L-6.35 -23.6L-7.65 -26.3Q-17.9 -26.6 -39.7 -19.3Q-28.05 -33.75 -7.7 -35.2L-5.9 -36.95Q-6.15 -45.4 -0.2 -45.5Q5.7 -45.5 5.6 -37.05L7.5 -35.3L7.55 -26.4M-7.65,-26.3L-7.7 -35.2M-5.9,-36.95L5.6 -37.05M6.3,-23.7L-6.35 -23.6" />
</g>
</svg>
