<?xml version="1.0" encoding="utf-8"?>
<svg version="1.1" id="Layer_1"
xmlns="http://www.w3.org/2000/svg"
xmlns:xlink="http://www.w3.org/1999/xlink"
xmlns:author="http://www.sothink.com"
width="25px" height="19px"
xml:space="preserve">
<g id="1710" transform="matrix(1, 0, 0, 1, 12.1, 9.25)">
<path style="fill:#F584C8;fill-opacity:1" d="M-6.55,-9.25L-5.45 -8.2Q-1.7 -5.6 0.05 -6.6Q1.7 -5.6 5.45 -8.2L6.65 -9.25L6.35 -8.7Q7.2 -6.85 6.65 -4.15Q3.4 -1.7 0.05 -1.55Q-3.35 -1.7 -6.55 -4.15Q-7.15 -6.85 -6.3 -8.7L-6.55 -9.25M10.55,2.2L12.1 3.45Q12.3 6.9 7.75 5.95Q6.35 8.3 3.7 7.45L2.35 8.8L0.05 9.2L-2.35 8.8L-3.7 7.45Q-6.2 8.3 -7.75 5.95Q-12.25 6.9 -12.1 3.45L-10.5 2.2Q-7.55 4.8 -4.85 3.45Q-2 7.35 0.05 6.35Q2.05 7.35 5 3.45Q7.6 4.8 10.55 2.2" />
</g>
</svg>
