<?xml version="1.0" encoding="utf-8"?>
<svg version="1.1" id="Layer_1"
xmlns="http://www.w3.org/2000/svg"
xmlns:xlink="http://www.w3.org/1999/xlink"
xmlns:author="http://www.sothink.com"
width="84px" height="122px"
xml:space="preserve">
<g id="28" transform="matrix(1, 0, 0, 1, 41.75, 60.55)">
<path style="fill:#2C2C2C;fill-opacity:1" d="M32.05,-35.05L30.3 -36.75Q33.45 -40.1 34.9 -45.6Q35.75 -51.2 32.5 -55.4Q33.5 -48.4 30.7 -41.45L27.45 -40.5Q24.95 -42.7 21.5 -43.85Q23.15 -41.65 22.85 -39.35Q22.95 -35.95 21.25 -37.85Q19.6 -41.75 16.25 -44.8Q18 -53.4 26.55 -59.9Q30.55 -61.95 34.15 -57.45Q41.3 -44.55 32.05 -35.05M6.6,-43.6L9.45 -44.5L13.95 -44.9Q16.35 -41.3 15.8 -37.2Q14.9 -34.55 13.5 -35.9Q11.3 -40.6 6.6 -43.6M-0.2,-39.9Q1.65 -41.5 4.2 -42.65Q6.25 -39.95 6.6 -37.2Q6.75 -35 5 -35.2Q1.55 -36.45 -0.2 -39.9M35.95,-10.5Q36.05 -7 33.7 -3.5Q31.95 -2.35 32.3 -7.7L34.8 -10.1L35.95 -10.5M37.9,-11.35L41.7 -12.95L39.7 -6.95Q38 -4.35 37.9 -11.35M26.6,8.5L28.9 10.85Q28.4 13 25.1 14.6Q22.95 15 23.75 13.1Q24.25 10.8 26.6 8.5M31.1,13.35L33.1 16.3Q32.05 18.2 30 19.1Q27.75 19.5 28.4 17.45Q29.1 15.4 31.1 13.35M7.6,4.6Q9 5.5 7.7 6.7Q2.85 8.75 -0.85 8.3L1.1 5Q4.65 3.45 7.6 4.6M0.75,14.6Q4 15.3 0.7 17.25Q-2.65 19.25 -8.6 19.75L-7.25 17.2Q-2.95 14.5 0.75 14.6M15.9,35.15Q12.15 38.85 7.2 39.5Q2.85 39.95 6 37.55Q10.6 35.85 14.2 31.5Q15.3 33.3 15.9 35.15M16.65,41.25Q16.25 45.25 13.85 49.4Q8.8 52.75 5.15 52Q1.9 50.9 5.15 49.75Q12.25 46.9 16.65 41.25M-18.65,-26.75L-20.95 -29.35Q-26.55 -38.55 -20.95 -45.15Q-18.6 -48 -10.5 -45.15Q-5.4 -42.9 -1.25 -38.95Q-5.05 -35.05 -5.7 -29.1L-7.35 -28.45Q-16.7 -33.4 -20.2 -42Q-23.1 -34.4 -18.65 -26.75M-34.05,59.1L-37.05 58.05Q-46.4 52.15 -37.05 48.55L-33.8 48.35Q-36.9 53.45 -34.05 59.1M-24.85,60.5L-28.55 60.25Q-31.15 54.9 -29.3 48.55L-24.4 49.15Q-27 55.05 -24.85 60.5M-3.6,32.65Q-0.15 32.95 -2.4 34.65Q-10.3 38.55 -13.9 42.5Q-13.95 39.35 -13.5 36.25Q-8.5 33.55 -3.6 32.65M-4.55,24.15Q-2.45 25.65 -4.55 27.05Q-8.5 30.35 -12.55 30.95L-11 25.7Q-8 23.65 -4.55 24.15M-6.4,41.8Q-3.15 41.35 -5.05 44.15Q-8.5 45.95 -9.65 47.65Q-11.4 50.3 -13.55 50.05Q-13.1 49.6 -13.2 48.8L-13.7 45.3Q-10.25 42.75 -6.4 41.8M-16.05,59.2L-19.55 60.05Q-22.95 55 -20.15 49.95L-18.75 50.3L-16.9 50.6Q-18.5 56.05 -16.05 59.2" />
</g>
</svg>
