<?xml version="1.0" encoding="utf-8"?>
<svg version="1.1" id="Layer_1"
xmlns="http://www.w3.org/2000/svg"
xmlns:xlink="http://www.w3.org/1999/xlink"
xmlns:author="http://www.sothink.com"
width="130px" height="126px"
xml:space="preserve">
<g id="11081" transform="matrix(1, 0, 0, 1, 64.75, 62.65)">
<path style="fill:none;stroke-width:2;stroke-linecap:round;stroke-linejoin:round;stroke-miterlimit:3;stroke:#000000;stroke-opacity:1" d="M24.75,-61.65Q29.8 -52.25 29.5 -34.75L33.7 -11.2Q37.1 -18.9 38.35 -29.65Q39.2 -37.15 39 -46.05M4.1,-55.35Q3.15 -46.65 3.1 -41.05L3.1 -40.9L4.85 -11.7Q6.8 -13.7 7.05 -22.6L7.75 -11.7L16.85 -12.25L25 -11.6Q26.1 -17.65 26.2 -24.15L26.2 -24.7Q26.3 -29.1 25.9 -33.7M29.5,-34.75Q29.8 -22.6 28.3 -11.45L26.2 -24.15M3.1,-40.9Q2.95 -23.65 0.25 -11.55Q-4.65 -18.6 -4.45 -22.45Q-5.65 -14.4 -8.25 -11.15Q-9.5 -27.2 -14.15 -47.55Q-12.65 -25.25 -15.75 -12.55Q-20.55 -27.65 -22.75 -44.15L-22.75 -11.6Q-31.45 -11.05 -35.3 -8.55L-38.65 -18.25L-38.65 -6.75Q-42.95 -15.3 -42.9 -27.65Q-44.1 -15.5 -42.7 -4Q-41.2 14.8 -35.45 32.9Q-39 28.6 -41.7 22.45Q-37.2 38.2 -24.15 61.7Q-46.5 50.95 -55.4 33.5Q-64.45 16.1 -63.7 -11.75Q-62.95 -39.55 -46.5 -60.1M47.95,-61.25Q63.95 -40.25 63.8 -5.6Q63.45 43.9 40.85 59.1Q46.05 50.85 51.7 25.9Q50.5 28.85 48.9 31.5Q52.35 10.6 53.05 -19.25Q52.55 -14.6 51.5 -9.8L50.25 -29.6L49.2 -10.05Q47.25 -11.55 37.7 -10.95L38.35 -29.65M53.05,-19.25L53.1 -19.95L53.2 -20.75Q54.65 -38.7 47.75 -56.15M51.7,25.9L51.8 25.6Q55.15 16.85 55.1 5.2M-22.75,-44.15L-22.8 -44.6L-23.5 -50.65M-14.15,-47.55L-14.3 -49.55M-42.9,-27.65Q-42.1 -36.2 -40.05 -45.1M-47.15,3.55Q-45.65 11.8 -43.3 18.3L-43.15 18.75L-41.7 22.45" />
</g>
</svg>
