<?xml version="1.0" encoding="utf-8"?>
<svg version="1.1" id="Layer_1"
xmlns="http://www.w3.org/2000/svg"
xmlns:xlink="http://www.w3.org/1999/xlink"
xmlns:author="http://www.sothink.com"
width="127px" height="135px"
xml:space="preserve">
<g id="7972" transform="matrix(1, 0, 0, 1, 63.45, 67.25)">
<path style="fill:none;stroke-width:2.2;stroke-linecap:round;stroke-linejoin:round;stroke-miterlimit:3;stroke:#54453C;stroke-opacity:1" d="M-44.65,35.75L-44.95 36.25L-44.9 36.35Q-40.2 48 -21.15 49.3L-19.4 49.4Q-10.15 52.9 -1.5 57.4L8.6 62.65Q20.75 69.5 27.6 62.9L33.95 57.75Q39.2 53.5 50.35 49.5Q61.45 45.5 61.55 37.7Q61.65 29.85 61.05 25.3Q59.5 13.5 61.6 8.75Q64.8 -17.55 54.7 -36.75Q48.55 -49.9 29.7 -59.25L29.65 -59.3Q21.7 -62.65 11.6 -65.1Q-21.7 -70.55 -45.55 -48.25Q-60.75 -32.95 -60.1 -5.2Q-59.3 3.9 -55.2 15.6L-54.35 16.1L-53.8 16.45L-51.65 18.55M-55.2,15.6L-55.75 15Q-58.5 15.2 -60.15 16.45Q-64.95 22.3 -59.35 30Q-54.6 36.5 -50.15 37.3Q-46.2 37.9 -44.95 36.25" />
<path style="fill:none;stroke-width:1;stroke-linecap:round;stroke-linejoin:round;stroke-miterlimit:3;stroke:#54453C;stroke-opacity:1" d="M-56.85,25.8Q-59.05 24.15 -57.75 21.85Q-56.45 19.55 -54.75 21.45Q-52.5 24.05 -50.3 28.1L-50.1 28.4L-49.85 28.95L-49.75 29.15L-49.6 29.4Q-50.6 30.8 -51 32.05L-51.15 32.7M-51,32.05Q-53.3 31.65 -54.5 28.75" />
</g>
</svg>
