<?xml version="1.0" encoding="utf-8"?>
<svg version="1.1" id="Layer_1"
xmlns="http://www.w3.org/2000/svg"
xmlns:xlink="http://www.w3.org/1999/xlink"
xmlns:author="http://www.sothink.com"
width="35px" height="73px"
xml:space="preserve">
<g id="4767" transform="matrix(1, 0, 0, 1, 17.25, 36.2)">
<path style="fill:none;stroke-width:1.5;stroke-linecap:round;stroke-linejoin:round;stroke-miterlimit:3;stroke:#000000;stroke-opacity:1" d="M-4.05,16.05L-12.35 15.75Q-16.55 14.25 -16.5 8.95L-15.9 -20.75L-15.85 -21.45L-15.9 -21.65Q-14.25 -31.45 -5.3 -34.75Q4.35 -37.1 10.65 -31.3Q15.6 -26.8 16.45 -17.95L15.2 13.85Q14.85 15.9 10.7 15.75L4 15.95L4 33.55Q3.4 35.75 0.2 35.4Q-3.6 35.45 -4.05 33.55L-4.05 16.05L4 15.95" />
<path style="fill:none;stroke-width:1;stroke-linecap:round;stroke-linejoin:round;stroke-miterlimit:3;stroke:#000000;stroke-opacity:0.619608" d="M-11.35,-19.1Q-10.45 -30.4 0.65 -30.95" />
</g>
</svg>
