<?xml version="1.0" encoding="utf-8"?>
<svg version="1.1" id="Layer_1"
xmlns="http://www.w3.org/2000/svg"
xmlns:xlink="http://www.w3.org/1999/xlink"
xmlns:author="http://www.sothink.com"
width="24px" height="24px"
xml:space="preserve">
<g id="9407" transform="matrix(1, 0, 0, 1, 11.8, 11.55)">
<path style="fill:#000000;fill-opacity:1" d="M-0.05,11.2L0 11.35L-0.05 11.55L-0.25 11.6L-2.75 11.55Q-6.95 11.7 -8.35 10.65Q-11.15 8.5 -11.8 0.75Q-11.85 -8.35 -9.5 -10.85Q-0.5 -12.9 9.35 -9.15Q11.75 -4.9 11.85 1.35Q11.35 7.7 8.8 10.35Q7.7 11.7 4.3 11.5L2.75 11.6L2.55 11.55L2.45 11.35L2.55 11.2Q2.6 11.1 2.7 11.1L4.25 11Q6.25 10.7 7.5 9.3L7.55 9.25Q9.55 6.85 10 1.25Q9.9 -4.2 7.95 -7.95L4.35 -9.1L0.8 -9.8L-2.9 -10.05L-5.6 -9.9L-8.3 -9.45Q-9.9 -6.95 -9.85 0.65Q-9.3 7.5 -7.05 9.55Q-5.7 10.9 -3.7 11L-0.25 11.1L-0.05 11.2" />
</g>
</svg>
