<?xml version="1.0" encoding="utf-8"?>
<svg version="1.1" id="Layer_1"
xmlns="http://www.w3.org/2000/svg"
xmlns:xlink="http://www.w3.org/1999/xlink"
xmlns:author="http://www.sothink.com"
width="129px" height="127px"
xml:space="preserve">
<g id="7974" transform="matrix(1, 0, 0, 1, 64.1, 63.5)">
<path style="fill:none;stroke-width:2.2;stroke-linecap:round;stroke-linejoin:round;stroke-miterlimit:3;stroke:#54453C;stroke-opacity:1" d="M-52.3,22.3L-54.45 20.2L-55 19.85L-55.85 19.35L-56.4 18.75Q-59.15 18.95 -60.8 20.2Q-65.6 26.05 -60 33.75Q-55.25 40.25 -50.8 41.05Q-46.85 41.65 -45.6 40L-45.3 39.55Q-41.7 51 -19.95 53.2L-19.9 53.2L-19.5 53.45L-19.35 53.5Q14.7 70.85 43.5 54.3Q46.95 53.95 54.8 48.9Q62.65 43.8 63 33.55Q62.95 28.5 61.4 24.25Q58.85 17.25 60.95 12.5Q64.15 -13.8 54.05 -33Q47.9 -46.15 29.05 -55.5L29 -55.55Q21.05 -58.9 10.95 -61.35Q-22.35 -66.8 -46.2 -44.5Q-61.4 -29.2 -60.75 -1.45Q-59.95 7.65 -55.85 19.35M-19.95,53.2L-19.5 53.45" />
<path style="fill:none;stroke-width:1;stroke-linecap:round;stroke-linejoin:round;stroke-miterlimit:3;stroke:#54453C;stroke-opacity:1" d="M-57.5,29.55Q-59.7 27.9 -58.4 25.6Q-57.1 23.3 -55.4 25.2Q-53.15 27.8 -50.95 31.85L-50.75 32.15L-50.5 32.7L-50.4 32.9L-50.25 33.15Q-51.25 34.55 -51.65 35.8L-51.8 36.45M-51.65,35.8Q-53.95 35.4 -55.15 32.5" />
<path style="fill:none;stroke-width:1.5;stroke-linecap:round;stroke-linejoin:round;stroke-miterlimit:3;stroke:#54453C;stroke-opacity:0.329412" d="M-8.65,53.8Q12.75 60.15 31.6 54.8" />
</g>
</svg>
