<?xml version="1.0" encoding="utf-8"?>
<svg version="1.1" id="Layer_1"
xmlns="http://www.w3.org/2000/svg"
xmlns:xlink="http://www.w3.org/1999/xlink"
xmlns:author="http://www.sothink.com"
width="125px" height="137px"
xml:space="preserve">
<g id="7963" transform="matrix(1, 0, 0, 1, 62.35, 68.25)">
<path style="fill:#FFF1E0;fill-opacity:1" d="M-44.65,33.65L-44.95 34.15Q-46.2 35.8 -50.15 35.2Q-54.6 34.4 -59.35 27.9Q-64.95 20.2 -60.15 14.35Q-58.5 13.1 -55.75 12.9L-55.2 13.5Q-59.3 1.8 -60.1 -7.3Q-60.75 -35.05 -45.55 -50.35Q-21.7 -72.65 11.6 -67.2Q21.7 -64.75 29.65 -61.4L29.7 -61.35Q48.55 -52 54.7 -38.85Q64.8 -19.65 61.6 6.65Q59.5 11.4 61.05 23.2L61.2 26.2L61.2 26.85Q60.7 42.15 52.6 54.75Q42.4 70.55 25 66.15Q2.35 72.7 -17.85 59.4Q-38.05 46.1 -43.35 36.1L-44.65 33.65" />
</g>
</svg>
