<?xml version="1.0" encoding="utf-8"?>
<svg version="1.1" id="Layer_1"
xmlns="http://www.w3.org/2000/svg"
xmlns:xlink="http://www.w3.org/1999/xlink"
xmlns:author="http://www.sothink.com"
width="11px" height="45px"
xml:space="preserve">
<g id="6099" transform="matrix(1, 0, 0, 1, 5.25, 22.05)">
<path style="fill:#8F8A82;fill-opacity:1" d="M3.1,-17.1Q3.1 -16.45 2.65 -15.95Q2.2 -15.5 1.5 -15.5Q0.85 -15.5 0.4 -15.95Q-0.1 -16.45 -0.1 -17.1Q-0.1 -17.75 0.4 -18.2Q0.85 -18.7 1.5 -18.7Q2.2 -18.7 2.65 -18.2Q3.1 -17.75 3.1 -17.1M4.15,-7.35Q4.15 -6.7 3.65 -6.2Q3.2 -5.75 2.55 -5.75Q1.85 -5.75 1.4 -6.2Q0.95 -6.7 0.95 -7.35Q0.95 -8 1.4 -8.5Q1.85 -8.95 2.55 -8.95Q3.2 -8.95 3.65 -8.5Q4.15 -8 4.15 -7.35M4.9,2.75L4.45 3.85Q3.95 4.35 3.3 4.35Q2.65 4.35 2.2 3.85Q1.7 3.4 1.7 2.75Q1.7 2.05 2.2 1.6Q2.65 1.15 3.3 1.15Q3.95 1.15 4.45 1.6Q4.9 2.05 4.9 2.75M5.25,13.7Q5.25 14.4 4.8 14.85Q4.35 15.3 3.65 15.3Q3 15.3 2.55 14.85Q2.05 14.4 2.05 13.7Q2.05 13.05 2.55 12.6Q3 12.1 3.65 12.1Q4.35 12.1 4.8 12.6L5.25 13.7M-5.25,-21.85L-3.95 -21.7L-2.4 -22.05Q1 -1.5 0.9 21.5L-0.3 19.9L-1.85 22.05Q-2.05 -0.1 -5.25 -21.85" />
</g>
</svg>
