<?xml version="1.0" encoding="utf-8"?>
<svg version="1.1" id="Layer_1"
xmlns="http://www.w3.org/2000/svg"
xmlns:xlink="http://www.w3.org/1999/xlink"
xmlns:author="http://www.sothink.com"
width="37px" height="29px"
xml:space="preserve">
<g id="15093" transform="matrix(1, 0, 0, 1, 18.1, 14.2)">
<path style="fill:#D3DFFF;fill-opacity:1" d="M8,-1Q8.65 -1 8.65 -0.4L8.65 1.9L8.45 2.4L8 2.55L5.7 2.55L5.25 2.4L5.1 1.9L5.1 -0.4Q5.1 -0.7 5.25 -0.85L5.7 -1L8 -1M0.95,-1Q1.55 -1 1.55 -0.4L1.55 1.9L1.4 2.4L0.95 2.55L-1.35 2.55L-1.8 2.4L-1.95 1.9L-1.95 -0.4L-1.8 -0.85L-1.35 -1L0.95 -1M-6.1,-1Q-5.5 -1 -5.5 -0.4L-5.5 1.9L-5.65 2.4L-6.1 2.55L-8.4 2.55L-8.85 2.4L-9 1.9L-9 -0.4L-8.85 -0.85L-8.4 -1L-6.1 -1" />
<path style="fill:none;stroke-width:2.5;stroke-linecap:round;stroke-linejoin:round;stroke-miterlimit:3;stroke:#D3DFFF;stroke-opacity:1" d="M-7.2,-12.95L7.25 -12.95Q11.25 -12.95 14 -10.2Q16.85 -7.35 16.85 -3.4L16.85 -1.95Q16.85 1.95 14 4.8Q11.25 7.65 7.25 7.65L2.85 7.65L-0.1 13L-3.3 7.65L-7.2 7.65Q-11.2 7.65 -14.05 4.8Q-16.85 1.95 -16.85 -1.95L-16.85 -3.4Q-16.85 -7.35 -14.05 -10.2Q-11.2 -12.95 -7.2 -12.95z" />
</g>
</svg>
