<?xml version="1.0" encoding="utf-8"?>
<svg version="1.1" id="Layer_1"
xmlns="http://www.w3.org/2000/svg"
xmlns:xlink="http://www.w3.org/1999/xlink"
xmlns:author="http://www.sothink.com"
width="83px" height="107px"
xml:space="preserve">
<g id="1662" transform="matrix(1, 0, 0, 1, 41.4, 53.15)">
<path style="fill:none;stroke-width:2;stroke-linecap:round;stroke-linejoin:round;stroke-miterlimit:3;stroke:#000000;stroke-opacity:1" d="M37.3,-26.55Q35.3 -25.1 33.2 -23.9Q36.1 15.65 11.35 50.5L15.1 52.15Q40.45 16.3 37.3 -26.55L40.4 -28.95Q33 -43.6 11.1 -50.7Q-12.25 -55.95 -40.4 -42.05L-29.4 -35.05Q-15.1 -25.4 -4.25 -21.05Q15.3 -13.25 33.2 -23.9" />
<path style="fill:none;stroke-width:1.5;stroke-linecap:round;stroke-linejoin:round;stroke-miterlimit:3;stroke:#000000;stroke-opacity:0.439216" d="M-4.35,-49.1Q17.25 -44.75 22.6 -36.35Q26.6 -34.95 30.3 -33.15M-18.6,-46.05Q-9.9 -47.35 -4.95 -42.15Q8.8 -40.9 20.15 -37.2L22.6 -36.35M-29.15,-42.5Q-16.95 -43.15 -6.15 -42.25L-4.95 -42.15M-18.15,-36.2L-6.15 -42.25M-3.15,-34.35Q5.5 -36.6 20.15 -37.2" />
</g>
</svg>
