<?xml version="1.0" encoding="utf-8"?>
<svg version="1.1" id="Layer_1"
xmlns="http://www.w3.org/2000/svg"
xmlns:xlink="http://www.w3.org/1999/xlink"
xmlns:author="http://www.sothink.com"
width="96px" height="127px"
xml:space="preserve">
<g id="31" transform="matrix(1, 0, 0, 1, 47.75, 63.2)">
<path style="fill:none;stroke-width:2;stroke-linecap:round;stroke-linejoin:round;stroke-miterlimit:3;stroke:#5F453B;stroke-opacity:1" d="M-15.65,-13.7L-12.05 -13.7Q-14.1 -18.35 -12.45 -24.45Q-19.25 -24.35 -23.65 -28.4L-25.95 -31Q-31.55 -40.2 -25.95 -46.8Q-23.6 -49.65 -15.5 -46.8Q-10.4 -44.55 -6.25 -40.6L-5.2 -41.55Q-3.35 -43.15 -0.8 -44.3Q0.35 -44.85 1.6 -45.25L4.45 -46.15L8.95 -46.55L11.25 -46.45Q13 -55.05 21.55 -61.55Q25.55 -63.6 29.15 -59.1Q36.3 -46.2 27.05 -36.7Q31.1 -32.55 33 -27.8Q33.75 -25.2 33.85 -22.9L39.75 -26.85M27.05,-36.7L25.3 -38.4L24.6 -39L25.7 -43.1L22.45 -42.15Q19.95 -44.35 16.5 -45.5Q14.15 -46.3 11.25 -46.45M31.9,-26.6Q30.7 -32.1 31.1 -29.3Q29.4 -33 26.1 -33.65Q27.55 -31.85 28.3 -29.75L28.4 -29.4Q29.15 -27.2 29.1 -24.5Q29.1 -22.35 27.55 -22.15L26.65 -22.25Q25.45 -22.95 24.8 -24.75Q24.15 -26.6 23.85 -27.8L23.7 -28.2Q22.7 -32.4 24.75 -33.7L26.1 -33.65M0.4,-28.25Q-0.7 -25.9 -0.75 -23.75L-0.75 -23.3Q-0.8 -19.5 2.05 -16.65Q3.6 -15.7 4.5 -16Q5.6 -16.4 5.75 -18.5Q6.2 -20.65 5.65 -22.95L5.3 -24.05L4.35 -26.35Q2.15 -28.65 0.4 -28.25Q-3 -28.5 -4.75 -22.5L-4.65 -22.2M18.6,-19.7Q17.9 -18.5 16.45 -18.3Q17 -14.45 18.4 -13.85Q19.9 -13.2 20.65 -15.05Q21.4 -16.9 20.5 -19.15Q19.7 -18.95 18.6 -19.7M16.55,-21.55L18.35 -22M14.65,-18.35L16.45 -18.3M33.85,-22.9L33.8 -20.4L40.25 -21.45M20.5,-19.15Q21.4 -19.15 22.05 -20.2M43.85,-14L46.7 -13L46.25 -14.6Q43.6 -17.65 39 -15.6L29.8 -11.75L27.3 -9.35L23.4 -6.75M33.8,-20.4Q33.3 -15.6 29.8 -11.75M41.85,-12.05L45 -9.7Q46.85 -11 46.7 -13M24.25,3.2Q25.2 4.8 25.5 6.2Q33.75 -2.8 44.6 -9.5L45 -9.7M17.5,3.35L21.6 6.85L23.9 9.2L24.75 10.1Q25.95 8.45 25.5 6.2M24.75,10.1L26.1 11.7L28.1 14.65Q29.95 17.6 31.2 20.7Q31.55 22.85 31.1 24.15Q30.7 25.3 29.65 25.95L27.6 26.2Q25.8 25.95 24.1 24.1L24.3 25.95Q27.25 29.9 27.25 34.85Q27.85 42.35 23.4 49Q28.05 50.85 29.55 54.2Q30.05 56 29 57Q28.1 57.75 26.15 57.95L12.55 57.3L13.7 58.7Q14.15 60.15 13.45 61Q12.6 62.05 10.25 62.15Q1.7 62.3 -6.9 59.7Q-11.05 59.4 -13.8 54.5Q-17.35 56.5 -21.05 57.55L-24.55 58.4L-29.85 58.85L-33.55 58.6L-39.05 57.45L-42.05 56.4Q-51.4 50.5 -42.05 46.9L-38.8 46.7L-34.3 46.9L-29.4 47.5L-25.15 48.3L-23.75 48.65L-21.9 48.95Q-19.4 49.15 -18.55 48.4Q-18.1 47.95 -18.2 47.15L-18.7 43.65L-18.9 40.85Q-18.95 37.7 -18.5 34.6L-18.2 32.6L-17.55 29.3L-16 24.05Q-15 21 -13.6 18.1L-12.25 15.55Q-10.35 12.1 -7.85 8.95L-5.85 6.65Q-4.5 4.75 -3.9 3.35Q-1.9 -0.95 -3.45 -5.1Q-6.15 -6.55 -8.15 -8.35L-12.2 -6.4M29.15,23.15L31.1 24.15M9.15,9.6Q10.75 11.7 12.9 13.5Q14.95 15.25 17.6 16.7Q22.9 19.7 24.1 24.1M3.45,23.15Q7.15 26.45 9.2 29.85Q10.3 31.65 10.9 33.5Q11.9 36.5 11.65 39.6Q11.25 43.6 8.85 47.75Q7.15 50.55 4.55 53.4Q7.15 53.7 9.35 54.9Q25.7 44.6 24.3 25.95M27.35,23.4L27.6 26.2M26.85,54.2L29 57M23.8,54.5L26.15 57.95M10.7,58.1Q12.75 59.1 13.45 61M7.25,59Q9.9 60.55 10.25 62.15M12.55,57.3Q11.05 55.85 9.35 54.9M-6.25,-40.6Q-10.05 -36.7 -10.7 -30.75L-14.05 -29.55L-11.8 -26.5L-12.45 -24.45M-3.95,-13.7L-12.05 -13.7Q-10.75 -10.75 -8.15 -8.35Q-6.1 -9.3 -4.05 -10.3" />
</g>
</svg>
