<?xml version="1.0" encoding="utf-8"?>
<svg version="1.1" id="Layer_1"
xmlns="http://www.w3.org/2000/svg"
xmlns:xlink="http://www.w3.org/1999/xlink"
xmlns:author="http://www.sothink.com"
width="125px" height="118px"
xml:space="preserve">
<g id="7959" transform="matrix(1, 0, 0, 1, 62.35, 58.95)">
<path style="fill:#FFF1E0;fill-opacity:1" d="M-50.15,44.5Q-54.6 43.7 -59.35 37.2Q-64.95 29.5 -60.15 23.65Q-58.5 22.4 -55.75 22.2L-55.2 22.8Q-59.3 11.1 -60.1 2Q-60.75 -25.75 -45.55 -41.05Q-21.7 -63.35 11.6 -57.9Q21.7 -55.45 29.65 -52.1L29.7 -52.05Q48.55 -42.7 54.7 -29.55Q64.8 -10.35 61.6 15.95Q59.5 20.7 60.85 29.3Q62.15 37.85 58.6 45.8Q55.05 53.75 44.75 56.65Q12.65 60.9 -20.05 57.15Q-38.15 54.8 -42.7 46.15L-44.95 43.45Q-46.2 45.1 -50.15 44.5" />
</g>
</svg>
