<?xml version="1.0" encoding="utf-8"?>
<svg version="1.1" id="Layer_1"
xmlns="http://www.w3.org/2000/svg"
xmlns:xlink="http://www.w3.org/1999/xlink"
xmlns:author="http://www.sothink.com"
width="120px" height="77px"
xml:space="preserve">
<g id="11077" transform="matrix(1, 0, 0, 1, 77.85, 24.9)">
<path style="fill:#FFFFFF;fill-opacity:1" d="M34.65,-5.6Q41.6 13.1 41.6 22.35L41.25 51.8Q40.35 25.4 38.6 14.9Q36.7 4.35 35.25 -0.9Q34.1 -5 34.15 -5.7Q34.15 -6 34.35 -5.75L34.65 -5.6M16.55,-0.8L16.9 4.25Q16.7 10.5 14.5 19.05Q15.3 -2.8 13.7 -11.3Q15.8 -5.45 16.55 -0.8M3.3,7Q3.1 9.1 -1.5 24.7Q1.05 -10.6 -0.8 -24.3Q3.5 -11.75 3.5 1.15L3.3 7M-52.65,-17.15L-56.7 6.45L-58.7 16.65Q-59.95 3.65 -56.75 -6.45Q-53.55 -16.55 -52.65 -17.15M-69.65,-3.6Q-74.3 8.5 -77.85 26.2Q-76.1 -0.7 -69.55 -10.3Q-63.05 -19.9 -56 -24.9Q-65 -15.7 -69.65 -3.6M-27.1,-0.05Q-26.15 15.25 -27.1 16.9Q-29.05 -0.6 -30.45 -9.9L-30.9 -14.2Q-29.95 -12.65 -29.45 -11.1L-28.45 -7.95Q-27.3 -4.15 -27.1 -0.05M-38.9,-12.75Q-38.15 -3.3 -37.45 1.45Q-36.75 6.2 -36.5 10.1Q-40.2 -0.5 -39.5 -10L-38.9 -12.75M-20.75,21.5Q-23.5 12.25 -22 2.85Q-21.85 1.8 -20.95 -0.35Q-20.9 9.65 -20.4 18.25Q-20.3 19.25 -20.75 21.5M-7.85,17.7Q-8.85 22.9 -9.75 23.75Q-9.55 15.7 -9.9 7.1L-9.6 3.05Q-6.9 12.5 -7.85 17.7" />
</g>
</svg>
