<?xml version="1.0" encoding="utf-8"?>
<svg version="1.1" id="Layer_1"
xmlns="http://www.w3.org/2000/svg"
xmlns:xlink="http://www.w3.org/1999/xlink"
xmlns:author="http://www.sothink.com"
width="125px" height="133px"
xml:space="preserve">
<g id="7971" transform="matrix(1, 0, 0, 1, 62.35, 66.15)">
<path style="fill:#FFF1E0;fill-opacity:1" d="M-50.15,37.3Q-54.6 36.5 -59.35 30Q-64.95 22.3 -60.15 16.45Q-58.5 15.2 -55.75 15L-55.2 15.6Q-59.3 3.9 -60.1 -5.2Q-60.75 -32.95 -45.55 -48.25Q-21.7 -70.55 11.6 -65.1Q21.7 -62.65 29.65 -59.3L29.7 -59.25Q48.55 -49.9 54.7 -36.75Q64.8 -17.55 61.6 8.75Q59.5 13.5 61.05 25.3Q61.65 29.85 61.55 37.7Q61.45 45.5 50.35 49.5Q39.2 53.5 33.95 57.75L27.6 62.9Q20.75 69.5 8.6 62.65L-1.5 57.4Q-10.15 52.9 -19.4 49.4L-21.15 49.3Q-40.2 48 -44.9 36.35L-44.95 36.25Q-46.2 37.9 -50.15 37.3" />
</g>
</svg>
