<?xml version="1.0" encoding="utf-8"?>
<svg version="1.1" id="Layer_1"
xmlns="http://www.w3.org/2000/svg"
xmlns:xlink="http://www.w3.org/1999/xlink"
xmlns:author="http://www.sothink.com"
width="127px" height="129px"
xml:space="preserve">
<g id="7962" transform="matrix(1, 0, 0, 1, 63.45, 64.1)">
<path style="fill:none;stroke-width:2.2;stroke-linecap:round;stroke-linejoin:round;stroke-miterlimit:3;stroke:#54453C;stroke-opacity:1" d="M-44.65,38.9L-44.95 39.4Q-44.3 41.8 -40.6 45.7Q-36.9 49.55 -21.4 55.3Q-5.95 61 21.8 63Q40.6 60.85 58.4 42.85Q62.35 37 60.95 26.85Q59.5 16.65 61.6 11.9Q64.8 -14.4 54.7 -33.6Q48.55 -46.75 29.7 -56.1L29.65 -56.15Q21.7 -59.5 11.6 -61.95Q-21.7 -67.4 -45.55 -45.1Q-60.75 -29.8 -60.1 -2.05Q-59.3 7.05 -55.2 18.75L-54.35 19.25L-53.8 19.6L-51.65 21.7M-55.2,18.75L-55.75 18.15Q-58.5 18.35 -60.15 19.6Q-64.95 25.45 -59.35 33.15Q-54.6 39.65 -50.15 40.45Q-46.2 41.05 -44.95 39.4" />
<path style="fill:none;stroke-width:1;stroke-linecap:round;stroke-linejoin:round;stroke-miterlimit:3;stroke:#54453C;stroke-opacity:1" d="M-56.85,28.95Q-59.05 27.3 -57.75 25Q-56.45 22.7 -54.75 24.6Q-52.5 27.2 -50.3 31.25L-50.1 31.55L-49.85 32.1L-49.75 32.3L-49.6 32.55Q-50.6 33.95 -51 35.2L-51.15 35.85M-51,35.2Q-53.3 34.8 -54.5 31.9" />
</g>
</svg>
