<?xml version="1.0" encoding="utf-8"?>
<svg version="1.1" id="Layer_1"
xmlns="http://www.w3.org/2000/svg"
xmlns:xlink="http://www.w3.org/1999/xlink"
xmlns:author="http://www.sothink.com"
width="127px" height="137px"
xml:space="preserve">
<g id="7966" transform="matrix(1, 0, 0, 1, 63.45, 68.25)">
<path style="fill:none;stroke-width:2.2;stroke-linecap:round;stroke-linejoin:round;stroke-miterlimit:3;stroke:#54453C;stroke-opacity:1" d="M32.75,66.25L32.75 65.9L41.6 65.45Q50.7 59.5 52.7 54.95Q54.65 50.35 54.05 49.25Q53.4 48.15 52.3 44.75Q52.9 43 56.75 38Q60.55 32.95 61.2 27.95L61.05 24.3Q59.5 12.5 61.6 7.75Q64.8 -18.55 54.7 -37.75Q48.55 -50.9 29.7 -60.25L29.65 -60.3Q21.7 -63.65 11.6 -66.1Q-21.7 -71.55 -45.55 -49.25Q-60.75 -33.95 -60.1 -6.2Q-59.3 2.9 -55.2 14.6L-54.35 15.1L-53.8 15.45L-51.65 17.55M32.75,65.9L4.7 67.2Q-13.55 54.65 -25.65 49.85Q-37.8 45.05 -41.9 42.9Q-44.2 36.2 -44.95 35.25Q-46.2 36.9 -50.15 36.3Q-54.6 35.5 -59.35 29Q-64.95 21.3 -60.15 15.45Q-58.5 14.2 -55.75 14L-55.2 14.6M-44.95,35.25L-44.65 34.75Q-44 36 -41.9 42.9" />
<path style="fill:none;stroke-width:2.2;stroke-linecap:round;stroke-linejoin:round;stroke-miterlimit:3;stroke:#54453C;stroke-opacity:0.658824" d="M32.75,65.9L32.75 58.6" />
<path style="fill:none;stroke-width:1;stroke-linecap:round;stroke-linejoin:round;stroke-miterlimit:3;stroke:#54453C;stroke-opacity:1" d="M-56.85,24.8Q-59.05 23.15 -57.75 20.85Q-56.45 18.55 -54.75 20.45Q-52.5 23.05 -50.3 27.1L-50.1 27.4L-49.85 27.95L-49.75 28.15L-49.6 28.4Q-50.6 29.8 -51 31.05L-51.15 31.7M-51,31.05Q-53.3 30.65 -54.5 27.75" />
</g>
</svg>
