<?xml version="1.0" encoding="utf-8"?>
<svg version="1.1" id="Layer_1"
xmlns="http://www.w3.org/2000/svg"
xmlns:xlink="http://www.w3.org/1999/xlink"
xmlns:author="http://www.sothink.com"
width="42px" height="30px"
xml:space="preserve">
<g id="15094" transform="matrix(1, 0, 0, 1, 1, 14.55)">
<path style="fill:#FFFFFF;fill-opacity:1" d="M31.95,8.05Q31.95 8.95 31.3 9.6Q30.65 10.25 29.75 10.25Q28.85 10.25 28.2 9.6Q27.55 8.95 27.55 8.05Q27.55 7.15 28.2 6.5Q28.85 5.85 29.75 5.85Q30.65 5.85 31.3 6.5Q31.95 7.15 31.95 8.05M11.95,8.05Q11.95 8.95 11.3 9.6Q10.65 10.25 9.75 10.25Q8.85 10.25 8.2 9.6Q7.55 8.95 7.55 8.05Q7.55 7.15 8.2 6.5Q8.85 5.85 9.75 5.85Q10.65 5.85 11.3 6.5Q11.95 7.15 11.95 8.05" />
<path style="fill:none;stroke-width:2;stroke-linecap:round;stroke-linejoin:round;stroke-miterlimit:3;stroke:#FFFFFF;stroke-opacity:1" d="M4.3,7.25Q2.9 6.8 1.8 5.7Q0 3.9 0 1.35Q0 -1.2 1.8 -3Q3.05 -4.25 4.7 -4.65Q4.55 -5.4 4.55 -6.2Q4.55 -9.25 6.7 -11.4Q8.85 -13.55 11.9 -13.55L22.45 -13.55Q25.5 -13.55 27.65 -11.4Q29.8 -9.25 29.8 -6.2L29.7 -4.8L33.45 -4.8Q36 -4.8 37.8 -3Q39.6 -1.2 39.6 1.35Q39.6 3.9 37.8 5.7Q36.65 6.85 35.25 7.25L35.25 7.5L35.25 8.05Q35.25 10.35 33.65 11.95Q32.05 13.55 29.75 13.55Q27.45 13.55 25.85 11.95Q24.25 10.35 24.25 8.05L24.3 7.5L15.25 7.5L15.25 8.05Q15.25 10.35 13.65 11.95Q12.05 13.55 9.75 13.55Q7.45 13.55 5.85 11.95Q4.25 10.35 4.25 8.05L4.3 7.25Q4.55 5.45 5.85 4.15Q7.45 2.55 9.75 2.55Q12.05 2.55 13.65 4.15Q15.05 5.55 15.25 7.5M22.3,-10.45L22.65 -10.45Q23.95 -10.45 24.85 -9.55Q25.8 -8.6 25.8 -7.3Q25.8 -6 24.85 -5.1Q23.95 -4.15 22.65 -4.15L22.3 -4.15Q21 -4.15 20.05 -5.1Q19.15 -6 19.15 -7.3Q19.15 -8.6 20.05 -9.55Q21 -10.45 22.3 -10.45M24.3,7.5L24.3 7.25Q24.55 5.45 25.85 4.15Q27.45 2.55 29.75 2.55Q32.05 2.55 33.65 4.15Q34.95 5.45 35.25 7.25" />
</g>
</svg>
