<?xml version="1.0" encoding="utf-8"?>
<svg version="1.1" id="Layer_1"
xmlns="http://www.w3.org/2000/svg"
xmlns:xlink="http://www.w3.org/1999/xlink"
xmlns:author="http://www.sothink.com"
width="25px" height="53px"
xml:space="preserve">
<g id="7080" transform="matrix(1, 0, 0, 1, 12.2, 26.1)">
<path style="fill:none;stroke-width:2;stroke-linecap:round;stroke-linejoin:round;stroke-miterlimit:3;stroke:#000000;stroke-opacity:1" d="M-11.2,-21.5Q-10.25 -16.8 -1.55 -11.85L-0.25 -14.4L0.4 -15.45L1.65 -16.95L1.7 -17.05L3.9 -15.25L5 -17.5L9.25 -12Q11.95 -13.85 10.85 -17.4Q9.6 -21.4 6.5 -23.65Q6.15 -21.6 3.75 -19.4L3.35 -19.05Q-7.25 -23.1 -7.7 -25.1Q-10.3 -23.3 -11.2 -21.5M3.05,-6.95L2.8 -7Q0.4 -10.55 0.95 -12.95L1.25 -13.15Q2.35 -14.05 3.55 -14.3Q4.55 -14.5 5.6 -14.3L7.2 -13.75L7.35 -13.65L7.4 -13.65Q8.4 -10 7.65 -7.25Q11.2 8.9 11.2 17Q9.85 21.1 7.05 25.15Q2.75 21.5 0.85 17.85Q0.2 13.75 1.65 7.15Q3 0.85 3.05 -6.95Q6.05 -6.2 7.65 -7.25M3.2,-18.6L3.7 -15.75" />
</g>
</svg>
