<?xml version="1.0" encoding="utf-8"?>
<svg version="1.1" id="Layer_1"
xmlns="http://www.w3.org/2000/svg"
xmlns:xlink="http://www.w3.org/1999/xlink"
xmlns:author="http://www.sothink.com"
width="127px" height="121px"
xml:space="preserve">
<g id="7960" transform="matrix(1, 0, 0, 1, 63.45, 60.05)">
<path style="fill:none;stroke-width:2.2;stroke-linecap:round;stroke-linejoin:round;stroke-miterlimit:3;stroke:#54453C;stroke-opacity:1" d="M-44.65,42.95L-44.95 43.45L-42.7 46.15Q-38.15 54.8 -20.05 57.15Q12.65 60.9 44.75 56.65Q55.05 53.75 58.6 45.8Q62.15 37.85 60.85 29.3Q59.5 20.7 61.6 15.95Q64.8 -10.35 54.7 -29.55Q48.55 -42.7 29.7 -52.05L29.65 -52.1Q21.7 -55.45 11.6 -57.9Q-21.7 -63.35 -45.55 -41.05Q-60.75 -25.75 -60.1 2Q-59.3 11.1 -55.2 22.8L-54.35 23.3L-53.8 23.65L-51.65 25.75M-55.2,22.8L-55.75 22.2Q-58.5 22.4 -60.15 23.65Q-64.95 29.5 -59.35 37.2Q-54.6 43.7 -50.15 44.5Q-46.2 45.1 -44.95 43.45" />
<path style="fill:none;stroke-width:1;stroke-linecap:round;stroke-linejoin:round;stroke-miterlimit:3;stroke:#54453C;stroke-opacity:1" d="M-56.85,33Q-59.05 31.35 -57.75 29.05Q-56.45 26.75 -54.75 28.65Q-52.5 31.25 -50.3 35.3L-50.1 35.6L-49.85 36.15L-49.75 36.35L-49.6 36.6Q-50.6 38 -51 39.25L-51.15 39.9M-51,39.25Q-53.3 38.85 -54.5 35.95" />
</g>
</svg>
