<?xml version="1.0" encoding="utf-8"?>
<svg version="1.1" id="Layer_1"
xmlns="http://www.w3.org/2000/svg"
xmlns:xlink="http://www.w3.org/1999/xlink"
xmlns:author="http://www.sothink.com"
width="83px" height="25px"
xml:space="preserve">
<g id="1927" transform="matrix(1, 0, 0, 1, 41.1, 12.25)">
<path style="fill:#1CA1CD;fill-opacity:1" d="M39.25,6.1L35.4 4.85Q33.2 4.7 30.1 5.95L27.3 7Q18.05 10.4 11.65 11.5L7.7 12.05Q-1.35 12.75 -13.2 10.65Q-34.7 5.4 -41.1 -7.5L-37.65 -8.05L-15.9 -10.95L2.75 -12.25L3.45 -12.25Q6.3 -9.6 19.35 -5.7Q32.4 -1.85 36.65 1.25Q40.85 4.3 39.35 6.05L39.25 6.1" />
<path style="fill:#DAE8EC;fill-opacity:1" d="M39.35,6.05L39.45 6.05L39.7 6.25L41.1 6.95L39.25 6.1L39.35 6.05" />
</g>
</svg>
