<?xml version="1.0" encoding="utf-8"?>
<svg version="1.1" id="Layer_1"
xmlns="http://www.w3.org/2000/svg"
xmlns:xlink="http://www.w3.org/1999/xlink"
xmlns:author="http://www.sothink.com"
width="125px" height="121px"
xml:space="preserve">
<g id="7957" transform="matrix(1, 0, 0, 1, 62.35, 60.45)">
<path style="fill:#FFF1E0;fill-opacity:1" d="M-50.15,43Q-54.6 42.2 -59.35 35.7Q-64.95 28 -60.15 22.15Q-58.5 20.9 -55.75 20.7L-55.2 21.3Q-59.3 9.6 -60.1 0.5Q-60.75 -27.25 -45.55 -42.55Q-21.7 -64.85 11.6 -59.4Q21.7 -56.95 29.65 -53.6L29.7 -53.55Q48.55 -44.2 54.7 -31.05Q64.8 -11.85 61.6 14.45Q59.5 19.2 61.05 31Q61.65 35.55 60.1 39.8Q57 46.75 48.3 51.75Q36.45 57.5 28.8 58.8L19.2 60.45L5.9 59.85Q-7.35 59.2 -24.15 53.9Q-36.65 49 -44.85 42.05L-44.95 41.95Q-46.2 43.6 -50.15 43" />
</g>
</svg>
