<?xml version="1.0" encoding="utf-8"?>
<svg version="1.1" id="Layer_1"
xmlns="http://www.w3.org/2000/svg"
xmlns:xlink="http://www.w3.org/1999/xlink"
xmlns:author="http://www.sothink.com"
width="33px" height="24px"
xml:space="preserve">
<g id="9416" transform="matrix(1, 0, 0, 1, 13.1, 10.5)">
<path style="fill:#FFFFFF;fill-opacity:1" d="M18.8,4.75L18 9.05L17.2 10.9L15.1 11.6L14.35 11.8L12.55 12.4L10.6 12.75L7.6 13.1L4.6 13.2L4.2 13.2Q-2.85 12.6 -7.6 10.65Q-8.35 10.3 -9 10L-9.55 9.05Q-10.8 6.7 -11.9 3.15L-11.65 3.3L-12.45 1.3Q-13.2 -0.85 -13.05 -3.2Q-8.75 -7.3 -1.6 -9.5Q6.6 -11.5 14.35 -9.45L16.05 -8.8Q20.15 -7 18.8 4.75" />
</g>
</svg>
