<?xml version="1.0" encoding="utf-8"?>
<svg version="1.1" id="Layer_1"
xmlns="http://www.w3.org/2000/svg"
xmlns:xlink="http://www.w3.org/1999/xlink"
xmlns:author="http://www.sothink.com"
width="189px" height="176px"
xml:space="preserve">
<g id="3029" transform="matrix(1, 0, 0, 1, 94.3, 87.7)">
<path style="fill:none;stroke-width:2;stroke-linecap:round;stroke-linejoin:round;stroke-miterlimit:3;stroke:#766A8D;stroke-opacity:1" d="M49,-51.3L69.35 -69.9L59.6 -80.55L66.3 -86.7L93.35 -57.3L86.55 -51.1L76.3 -62.3L55.9 -43.7L81.5 -15.8L72.7 -7.7L57.7 -24.15L38.8 -6.75L32.75 -1.2L27.85 3.3L14.85 15.2L8.85 20.7L1.2 27.7L-4.75 33.15L-15.05 42.65L-21.3 48.35L-48.15 72.9L-45.45 76L-57.45 77.65L-66.15 68.2L-93.3 86.7L-73.1 60.55L-82.15 50.65L-78.9 39.3L-76.1 42.4L-49.3 17.8L-43.05 12.15L29.8 -54.6L15.85 -69.85L24.65 -77.9L49 -51.3L55.9 -43.7M23.85,-22L27.9 -17.95L47.15 -35.65L40.2 -43.25L-32.55 23.45L-25.65 31.1L-9.7 16.5L-13.8 12.15M27.9,-17.95L38.8 -6.75M-0.1,-0.1L3.95 4L16.9 -7.9L12.8 -12.2M27.9,-17.95L16.9 -7.9L27.85 3.3M32.75,-1.2L28.05 -6.35M57.7,-24.15L47.15 -35.65M40.2,-43.25L29.8 -54.6M21.6,8.6L16.9 3.55M14.85,15.2L3.95 4L-9.7 16.5L1.2 27.7M8.85,20.7L4.15 15.6M-25.65,31.1L-15.05 42.65M-4.75,33.15L-9.65 27.9M-73.1,60.55L-66.15 68.2M-21.3,48.35L-49.3 17.8M-48.15,72.9L-76.1 42.4M-43.05,12.15L-32.55 23.45" />
</g>
</svg>
