<?xml version="1.0" encoding="utf-8"?>
<svg version="1.1" id="Layer_1"
xmlns="http://www.w3.org/2000/svg"
xmlns:xlink="http://www.w3.org/1999/xlink"
xmlns:author="http://www.sothink.com"
width="155px" height="74px"
xml:space="preserve">
<g id="1713" transform="matrix(1, 0, 0, 1, 77.1, 36.55)">
<path style="fill:#FFCCFF;fill-opacity:1" d="M0.65,-30.95L0.35 -31.55Q-0.4 -34.05 0.25 -36.45Q8.25 -36 17.8 -33.85L18.6 -33.65L24.35 -31.95L35.15 -28.15Q44.65 -24.35 52.65 -19.85Q54.95 -18.45 57.15 -17.15L63.55 -12.7L68.3 -8.8Q73.65 -4.1 77.1 1.05Q70.55 3.3 65.95 6.9Q59.2 12.05 56.65 19.95L56.6 20.05L50.1 20.35Q46 20.65 42.45 21.5Q31.35 24.15 24.75 31.45L24.5 30.8L24.05 31.45Q16.1 29 8.45 29.4L5.2 29.8L3.05 30.15Q-5.05 31.7 -12.85 36.55Q-17.8 33.35 -22.95 31.5Q-31.75 28.4 -41.25 29.25Q-46.9 29.7 -52.8 31.6L-52.95 31.7L-53.05 31.7Q-56.3 27.6 -60.7 25.25Q-67.35 21.65 -76.75 21.9Q-77.2 20.65 -77.05 19.3L-71.45 10.3Q-61.45 -2.95 -50.55 -13.5L-42.15 -21L-38 -24.35Q-34.5 -26.9 -30.8 -28.9Q-25.85 -31.7 -20.45 -33.65L-18.25 -32.9L-17.4 -32.4L-17.6 -32.7Q-18.1 -33.7 -18.1 -34.45L-17.7 -34.6Q-13.95 -35.8 -9.55 -36.25L-6 -36.5L-0.25 -36.45Q-0.3 -34.65 -0.7 -33.4L-1.35 -32.3L0.65 -30.95" />
</g>
</svg>
