<?xml version="1.0" encoding="utf-8"?>
<svg version="1.1" id="Layer_1"
xmlns="http://www.w3.org/2000/svg"
xmlns:xlink="http://www.w3.org/1999/xlink"
xmlns:author="http://www.sothink.com"
width="46px" height="36px"
xml:space="preserve">
<g id="15078" transform="matrix(1, 0, 0, 1, 22.55, 17.95)">
<path style="fill:#D3DFFF;fill-opacity:1" d="M15.85,-17.6L16.1 -16.95L16.1 -5.5L22.2 -0.45L22.5 0.15L22.3 0.8L20.6 2.9L20 3.15L19.9 3.15L19.3 3L-0.05 -13.15L-19.4 3L-20.05 3.15L-20.65 2.9L-22.35 0.8L-22.55 0.15L-22.25 -0.45L-2.15 -17.2Q-1.25 -17.95 -0.05 -17.95Q1.2 -17.95 2.1 -17.2L8.9 -11.5L8.9 -16.95Q8.9 -17.35 9.15 -17.6L9.8 -17.85L15.15 -17.85L15.85 -17.6M16.1,2.75L16.1 16.2Q16.1 16.95 15.5 17.45Q15.05 17.95 14.3 17.95L3.55 17.95L3.55 7.2L-3.65 7.2L-3.65 17.95L-14.35 17.95Q-15.1 17.95 -15.6 17.45Q-16.15 16.95 -16.15 16.2L-16.15 2.55L-0.05 -10.65L16.05 2.55L16.1 2.75" />
</g>
</svg>
