<?xml version="1.0" encoding="utf-8"?>
<svg version="1.1" id="Layer_1"
xmlns="http://www.w3.org/2000/svg"
xmlns:xlink="http://www.w3.org/1999/xlink"
xmlns:author="http://www.sothink.com"
width="18px" height="16px"
xml:space="preserve">
<g id="6110" transform="matrix(1, 0, 0, 1, 8.8, 7.5)">
<path style="fill:#C6D1FF;fill-opacity:1" d="M-4.05,1.05L-3.95 0.7L5.1 -7.15L5.5 -7.4L5.95 -7.45L8.05 -7.5L8.45 -7.35L8.5 -7L8.2 -5L8 -4.5L7.7 -4.2L-1.3 3.65L-1.7 3.8L-2 3.65L-2.5 3.1L-2.65 2.75L-2.5 2.4L5.1 -4.15L5.2 -4.35L5.15 -4.5L4.95 -4.6L4.8 -4.55L-2.8 2L-3.2 2.1L-3.5 1.95L-3.95 1.4L-4.05 1.05M-6,0.6L-1.55 5.7L-1.45 6.05L-1.5 7.5L-1.65 7.8L-2 7.9L-2.3 7.75L-2.4 7.45L-2.3 6.15L-3.5 4.75L-4.75 5.4L-4.9 5.45L-5.1 5.3L-5.5 4.7Q-5.75 4.4 -6.05 4.3L-6.15 3.95L-6.05 3.8L-5.3 2.75L-6.5 1.3L-7.8 1.25L-8.1 1.05L-8.2 0.75L-8.05 0.45L-7.7 0.35L-6.25 0.45L-6 0.6M-7.2,4.75L-6.65 4.9L-6.2 5.3L-5.85 5.8L-5.8 6.35Q-5.8 6.95 -6.3 7.4L-6.8 7.7L-7.45 7.75L-7.95 7.6L-8.4 7.25Q-8.8 6.75 -8.8 6.15L-8.6 5.6L-8.3 5.15L-7.75 4.85L-7.2 4.75" />
</g>
</svg>
