<?xml version="1.0" encoding="utf-8"?>
<svg version="1.1" id="Layer_1"
xmlns="http://www.w3.org/2000/svg"
xmlns:xlink="http://www.w3.org/1999/xlink"
xmlns:author="http://www.sothink.com"
width="125px" height="122px"
xml:space="preserve">
<g id="7955" transform="matrix(1, 0, 0, 1, 62.35, 60.55)">
<path style="fill:#FFF1E0;fill-opacity:1" d="M-50.15,42.9Q-54.6 42.1 -59.35 35.6Q-64.95 27.9 -60.15 22.05Q-58.5 20.8 -55.75 20.6L-55.2 21.2Q-59.3 9.5 -60.1 0.4Q-60.75 -27.35 -45.55 -42.65Q-21.7 -64.95 11.6 -59.5Q21.7 -57.05 29.65 -53.7L29.7 -53.65Q48.55 -44.3 54.7 -31.15Q64.8 -11.95 61.6 14.35Q59.5 19.1 61.05 30.9Q62.6 42.7 49.75 52.5Q36.85 62.3 -2.9 60.15Q-30.9 56.85 -40.05 47.4L-44.95 41.85Q-46.2 43.5 -50.15 42.9" />
</g>
</svg>
