<?xml version="1.0" encoding="utf-8"?>
<svg version="1.1" id="Layer_1"
xmlns="http://www.w3.org/2000/svg"
xmlns:xlink="http://www.w3.org/1999/xlink"
xmlns:author="http://www.sothink.com"
width="18px" height="20px"
xml:space="preserve">
<g id="6105" transform="matrix(1, 0, 0, 1, 8.95, 10.15)">
<path style="fill:#D3DFFF;fill-opacity:1" d="M-4.85,2.55Q-6.05 2.55 -6.9 1.85Q-7.75 1.15 -7.75 0.15L-7.45 -0.9L-8.1 -1.3Q-8.95 -2.05 -8.95 -3.05Q-8.95 -4.05 -8.1 -4.75L-6.95 -5.35L-7 -5.7Q-7 -6.75 -6.15 -7.45Q-5.3 -8.15 -4.1 -8.15L-3.85 -8.15Q-3.7 -8.9 -3.05 -9.45Q-2.2 -10.15 -1 -10.15Q0.2 -10.15 1.05 -9.45L1.4 -9.1L2.35 -9.3Q3.55 -9.3 4.4 -8.55Q5.05 -8 5.2 -7.25Q6.1 -7.2 6.8 -6.6Q7.65 -5.9 7.65 -4.9L7.65 -4.55L7.9 -4.3Q8.7 -3.6 8.7 -2.55Q8.7 -1.6 7.95 -0.95Q8.4 0.2 7.7 1.45Q7.1 2.2 5.9 2.4L5 2.45L3.6 2.1L1.9 4.45L2.1 7.85L2.6 9.85L-2.7 9.85L-2.25 8.1L-2 3.95L-3.75 2.4L-4.85 2.55M2.05,0.9Q1.25 1.55 0.2 1.6L0.8 3.3L1.05 3.3L1.95 2.6L2.9 1.55L2.65 1.1L2.45 0.5L2.05 0.9M-2.8,1.85L-3.05 2.05L-0.7 3.25L-0.75 1.55Q-1.5 1.4 -2.05 0.9L-2.1 0.9Q-2.3 1.45 -2.8 1.85" />
</g>
</svg>
