<?xml version="1.0" encoding="utf-8"?>
<svg version="1.1" id="Layer_1"
xmlns="http://www.w3.org/2000/svg"
xmlns:xlink="http://www.w3.org/1999/xlink"
xmlns:author="http://www.sothink.com"
width="29px" height="41px"
xml:space="preserve">
<g id="4015" transform="matrix(1, 0, 0, 1, 14.25, 20.2)">
<path style="fill:none;stroke-width:2;stroke-linecap:round;stroke-linejoin:round;stroke-miterlimit:3;stroke:#54453C;stroke-opacity:1" d="M13.25,-15.85L12.45 -12.6Q11.3 -8.6 9.9 -5.15L7.55 0.7L6.95 2.25Q5.65 5.55 5.25 7.6Q4.75 10.05 4.8 10.45L4.65 12.05Q4.2 15.5 1.7 17.85Q-0.8 20.2 -5.85 18.65Q-9.5 19.1 -10 17.3Q-10.5 15.45 -9 12.3Q-11.95 13.25 -12.95 11.35Q-13.9 9.4 -11.95 7.85Q-9.95 6.25 -7.65 5.25Q-5.9 4.5 -4.75 2.25L-4.1 0.65Q-0.5 -8.7 2.55 -18.4L3 -19.2M-9,12.3L-8.6 11.6" />
</g>
</svg>
