<?xml version="1.0" encoding="utf-8"?>
<svg version="1.1" id="Layer_1"
xmlns="http://www.w3.org/2000/svg"
xmlns:xlink="http://www.w3.org/1999/xlink"
xmlns:author="http://www.sothink.com"
width="41px" height="61px"
xml:space="preserve">
<g id="1705" transform="matrix(1, 0, 0, 1, 20.15, 30.5)">
<path style="fill:#FF99FF;fill-opacity:1" d="M18.6,-6.2L18.95 -6.35Q19.65 -6.2 20 -4.8Q20.45 -3.2 19.6 -2.7L17.95 -2.05L9.55 26.5Q6.3 30.6 -1.5 30.45Q-10.75 29.9 -12.9 26.35L-18.55 -3.7L-19.7 -4.5Q-20.3 -5 -20.1 -6.25Q-19.85 -7.65 -19.2 -8.05L-18.65 -7.95Q-17.55 -9.2 -12 -10.25L-2.65 -11.2L-0.6 -21.9L1.1 -30.5Q1.55 -29.9 4 -29.65L6.95 -29.8L5.35 -21.05L3.4 -10.85Q8.7 -10.1 13.55 -8.7Q18.35 -7.3 18.6 -6.2" />
<path style="fill:#FF99FF;fill-opacity:0.278431" d="M13.55,-8.7Q8.7 -10.1 3.4 -10.85L5.35 -21.05L7 -20.45L7.8 -20.05Q11.2 -18.6 13.9 -16.1Q17.95 -11.6 18.6 -6.2Q18.35 -7.3 13.55 -8.7M-18.65,-7.95Q-17.25 -14.35 -11.55 -18.4Q-8.05 -20.6 -4 -21.4L-3.4 -21.5L-0.6 -21.9L-2.65 -11.2L-12 -10.25Q-17.55 -9.2 -18.65 -7.95" />
</g>
</svg>
