<?xml version="1.0" encoding="utf-8"?>
<svg version="1.1" id="Layer_1"
xmlns="http://www.w3.org/2000/svg"
xmlns:xlink="http://www.w3.org/1999/xlink"
xmlns:author="http://www.sothink.com"
width="51px" height="28px"
xml:space="preserve">
<g id="9410" transform="matrix(1, 0, 0, 1, 25.1, 13.6)">
<path style="fill:#000000;fill-opacity:1" d="M20.75,-1.75Q17.9 -3.9 13.1 -5.55Q-0.6 -8 -12.85 -2.95Q-12.85 -0.05 -11.95 3.3Q-11.05 6.65 -9.2 10.4L-8.9 11Q-22.15 3.9 -25.1 -4.2Q-17.2 -10.35 -7.75 -12.7Q4.2 -15.1 13.7 -10.95Q23.15 -6.9 25.05 2.2Q23.45 0.25 20.75 -1.75M-4.25,13.1L8 12.55L10.15 12.55L17.65 13L18 13L17.5 13.65L-3.6 13.65L-4.25 13.1" />
</g>
</svg>
