<?xml version="1.0" encoding="utf-8"?>
<svg version="1.1" id="Layer_1"
xmlns="http://www.w3.org/2000/svg"
xmlns:xlink="http://www.w3.org/1999/xlink"
xmlns:author="http://www.sothink.com"
width="127px" height="124px"
xml:space="preserve">
<g id="7958" transform="matrix(1, 0, 0, 1, 63.45, 61.55)">
<path style="fill:none;stroke-width:2.2;stroke-linecap:round;stroke-linejoin:round;stroke-miterlimit:3;stroke:#54453C;stroke-opacity:1" d="M-44.65,41.45L-44.95 41.95L-44.85 42.05Q-36.65 49 -24.15 53.9Q-7.35 59.2 5.9 59.85L19.2 60.45L28.8 58.8Q36.45 57.5 48.3 51.75Q57 46.75 60.1 39.8Q61.65 35.55 61.05 31Q59.5 19.2 61.6 14.45Q64.8 -11.85 54.7 -31.05Q48.55 -44.2 29.7 -53.55L29.65 -53.6Q21.7 -56.95 11.6 -59.4Q-21.7 -64.85 -45.55 -42.55Q-60.75 -27.25 -60.1 0.5Q-59.3 9.6 -55.2 21.3L-54.35 21.8L-53.8 22.15L-51.65 24.25M-55.2,21.3L-55.75 20.7Q-58.5 20.9 -60.15 22.15Q-64.95 28 -59.35 35.7Q-54.6 42.2 -50.15 43Q-46.2 43.6 -44.95 41.95" />
<path style="fill:none;stroke-width:1;stroke-linecap:round;stroke-linejoin:round;stroke-miterlimit:3;stroke:#54453C;stroke-opacity:1" d="M-56.85,31.5Q-59.05 29.85 -57.75 27.55Q-56.45 25.25 -54.75 27.15Q-52.5 29.75 -50.3 33.8L-50.1 34.1L-49.85 34.65L-49.75 34.85L-49.6 35.1Q-50.6 36.5 -51 37.75L-51.15 38.4M-51,37.75Q-53.3 37.35 -54.5 34.45" />
</g>
</svg>
