<?xml version="1.0" encoding="utf-8"?>
<svg version="1.1" id="Layer_1"
xmlns="http://www.w3.org/2000/svg"
xmlns:xlink="http://www.w3.org/1999/xlink"
xmlns:author="http://www.sothink.com"
width="49px" height="49px"
xml:space="preserve">
<g id="1633" transform="matrix(1, 0, 0, 1, 24.2, 24.05)">
<path style="fill:none;stroke-width:1.5;stroke-linecap:round;stroke-linejoin:round;stroke-miterlimit:3;stroke:#000000;stroke-opacity:1" d="M-3.05,-16.7Q-5.25 -10.05 -12.95 -12.6Q-19.9 -15.25 -23.45 -19.2Q-17.4 -24.25 -8.9 -23.1Q-3.65 -21.75 -3.05 -16.7L0.2 -15.05Q-0.2 -18.95 0.65 -22.8M0.2,-15.05Q0.5 -11.4 2.05 -7.7Q8.65 -12.4 15.65 -11.35Q25.65 -9.25 22.8 11.05Q20.9 22.45 8.95 20.1Q4.55 26.1 -4.6 20.65Q-13.85 15.2 -14.1 0Q-13.1 -5.15 -8.15 -6.55Q-3.6 -7.8 2.05 -7.7" />
<path style="fill:none;stroke-width:1;stroke-linecap:round;stroke-linejoin:round;stroke-miterlimit:3;stroke:#000000;stroke-opacity:1" d="M-3.05,-16.7Q-12.1 -20.6 -23.45 -19.2M-7,-3.35Q-11.55 -0.5 -10 5.95" />
</g>
</svg>
