<?xml version="1.0" encoding="utf-8"?>
<svg version="1.1" id="Layer_1"
xmlns="http://www.w3.org/2000/svg"
xmlns:xlink="http://www.w3.org/1999/xlink"
xmlns:author="http://www.sothink.com"
width="127px" height="156px"
xml:space="preserve">
<g id="7968" transform="matrix(1, 0, 0, 1, 63.45, 77.6)">
<path style="fill:none;stroke-width:2.2;stroke-linecap:round;stroke-linejoin:round;stroke-miterlimit:3;stroke:#54453C;stroke-opacity:1" d="M-51.65,8.2L-53.8 6.1L-54.35 5.75L-55.2 5.25L-55.75 4.65Q-58.5 4.85 -60.15 6.1Q-64.95 11.95 -59.35 19.65Q-54.6 26.15 -50.15 26.95Q-46.2 27.55 -44.95 25.9L-44.65 25.4L-43.35 27.85Q-38.8 50.2 -21.6 64.15Q-4.4 78.1 24.45 76.35Q47.35 73.3 55.65 59.5Q63.95 45.65 61.2 18.6L61.2 17.95L61.05 14.95Q59.5 3.15 61.6 -1.6Q64.8 -27.9 54.7 -47.1Q48.55 -60.25 29.7 -69.6L29.65 -69.65Q21.7 -73 11.6 -75.45Q-21.7 -80.9 -45.55 -58.6Q-60.75 -43.3 -60.1 -15.55Q-59.3 -6.45 -55.2 5.25M-44.95,25.9L-43.35 27.85" />
<path style="fill:none;stroke-width:1;stroke-linecap:round;stroke-linejoin:round;stroke-miterlimit:3;stroke:#54453C;stroke-opacity:1" d="M-56.85,15.45Q-59.05 13.8 -57.75 11.5Q-56.45 9.2 -54.75 11.1Q-52.5 13.7 -50.3 17.75L-50.1 18.05L-49.85 18.6L-49.75 18.8L-49.6 19.05Q-50.6 20.45 -51 21.7L-51.15 22.35M-51,21.7Q-53.3 21.3 -54.5 18.4" />
</g>
</svg>
