<?xml version="1.0" encoding="utf-8"?>
<svg version="1.1" id="Layer_1"
xmlns="http://www.w3.org/2000/svg"
xmlns:xlink="http://www.w3.org/1999/xlink"
xmlns:author="http://www.sothink.com"
width="135px" height="12px"
xml:space="preserve">
<g id="1711" transform="matrix(1, 0, 0, 1, 60.55, 18.5)">
<path style="fill:#B6B4CD;fill-opacity:1" d="M59.15,-17.95L59 -18.5Q65.1 -17.15 66.35 -13.85L73.9 -13.15L73.9 -12.55L66.35 -11.8Q65.1 -8.55 59 -7.2L59.15 -7.7Q59.3 -8.3 59.95 -8.9Q60.75 -9.8 62.35 -10.85Q60.2 -11.2 58.8 -12.65L58.6 -12.8L58.8 -13.1Q60.2 -14.45 62.35 -14.8Q60.75 -15.95 59.95 -16.75Q59.3 -17.45 59.15 -17.95M-47.45,-10.25L-60.05 -10.25Q-61 -12.4 -60.05 -15.5L-47.45 -15.5Q-47.9 -14.45 -47.9 -12.8Q-47.9 -11.2 -47.45 -10.25" />
</g>
</svg>
