<?xml version="1.0" encoding="utf-8"?>
<svg version="1.1" id="Layer_1"
xmlns="http://www.w3.org/2000/svg"
xmlns:xlink="http://www.w3.org/1999/xlink"
xmlns:author="http://www.sothink.com"
width="155px" height="156px"
xml:space="preserve">
<g id="1714" transform="matrix(1, 0, 0, 1, 77.1, 77.85)">
<path style="fill:#FF66CC;fill-opacity:1" d="M52.65,-61.25Q54.95 -59.85 57.15 -58.55Q58.25 -57.25 58.85 -55.5Q59.95 -52.05 58.1 -48.7Q56.3 -45.4 52.6 -44.2Q48.95 -43 45.5 -44.6Q42.1 -46.25 40.95 -49.75Q39.8 -53.2 41.6 -56.45Q43.5 -59.8 47.2 -61L52.65 -61.25M18.6,-75.05Q18.35 -73.45 17.6 -71.95Q15.75 -68.6 12.05 -67.4L7.75 -67Q6.35 -67.2 4.9 -67.85Q1.8 -69.3 0.65 -72.35L0.35 -72.95Q-0.4 -75.45 0.25 -77.85Q8.25 -77.4 17.8 -75.25L18.6 -75.05M24.35,-73.35L35.15 -69.55L35.9 -67.8Q37.05 -64.3 35.25 -61Q33.4 -57.75 29.7 -56.5Q26.05 -55.35 22.6 -56.9Q19.25 -58.55 18.1 -62.05Q17 -65.5 18.8 -68.85Q20.6 -72.15 24.25 -73.3L24.35 -73.35M7.7,-48.3L7.25 -47.55Q5.45 -44.25 1.8 -43Q-1.9 -41.85 -5.4 -43.45Q-8.75 -45.1 -9.85 -48.55Q-11 -52.05 -9.2 -55.35Q-7.35 -58.65 -3.65 -59.8L2.15 -59.95L3.45 -59.4Q6.85 -57.8 7.95 -54.35Q9 -51.25 7.7 -48.3M42.45,-19.9Q41.55 -20.1 40.8 -20.5Q37.4 -22.1 36.25 -25.6Q35.1 -29.05 36.9 -32.4Q38.7 -35.65 42.3 -36.85L42.45 -36.9Q46.15 -38.15 49.55 -36.5Q52.95 -34.85 54.1 -31.4Q55.15 -28.05 53.6 -24.9L53.4 -24.55Q52.2 -22.4 50.1 -21.05L42.45 -19.9M12,-38.9Q11.1 -42.25 12.8 -45.3Q14.7 -48.65 18.3 -49.85Q22.05 -51 25.45 -49.4Q28.85 -47.85 29.9 -44.3Q31.05 -40.85 29.3 -37.55Q27.5 -34.2 23.75 -33Q20.1 -31.8 16.65 -33.45Q14.45 -34.5 13.2 -36.35L12.1 -38.55L12.05 -38.8L12 -38.9M8.45,-12L8.1 -12.8Q7 -16.35 8.8 -19.6Q10.65 -22.9 14.35 -24.1Q16.5 -24.8 18.45 -24.55Q20 -24.4 21.4 -23.7Q24.85 -22.1 25.95 -18.55Q27.05 -15.1 25.25 -11.8L24.5 -10.6L24.05 -9.95Q16.1 -12.4 8.45 -12M-12.3,-15.35Q-13.45 -16.6 -14 -18.4Q-15.15 -21.85 -13.3 -25.2L-11.65 -27.4Q-10.05 -28.9 -7.8 -29.65Q-4.05 -30.85 -0.7 -29.25Q2.7 -27.65 3.85 -24.2Q4.95 -20.7 3.1 -17.35Q1.35 -14.1 -2.35 -12.85Q-6.05 -11.7 -9.5 -13.3Q-11.15 -14.1 -12.3 -15.35M68.3,-50.2Q73.65 -45.5 77.1 -40.35Q70.55 -38.1 65.95 -34.5Q63.45 -36.1 62.45 -39Q61.35 -42.5 63.2 -45.8Q64.85 -48.95 68.3 -50.2M5.65,57.25Q7.55 57.55 9.25 58.25Q7.35 64.95 8.15 67.15Q8.9 69.3 11.3 69.05Q13.7 68.1 14.35 64.5L14.65 63.2Q16.35 59.65 19.6 60.1Q23.2 61.95 23.3 65.7Q23.4 67.9 22.25 70.55Q19.3 77.2 12.35 77.8L7.35 77.6Q0.15 75.8 -0.7 67.75Q-1.05 63.35 0.5 57.25L3.35 57.1L5.65 57.25M-15.5,-72.3L-15.4 -72.15Q-14.25 -70.9 -13.75 -69.15Q-12.6 -65.7 -14.35 -62.4Q-16.2 -59.05 -19.9 -57.9Q-21.9 -57.25 -23.75 -57.4Q-25.4 -57.55 -27.05 -58.25Q-30.45 -59.9 -31.55 -63.4Q-32.65 -66.9 -30.9 -70.15L-30.8 -70.3Q-25.85 -73.1 -20.45 -75.05L-18.25 -74.3L-17.4 -73.8L-15.5 -72.3M-38.75,-59.25Q-40.55 -55.95 -44.25 -54.75L-50.55 -54.9L-42.15 -62.4L-38 -65.75Q-36.95 -62.4 -38.75 -59.25M-33.3,-41.3Q-34.15 -44.55 -32.45 -47.55Q-30.6 -50.8 -26.9 -52.05Q-23.2 -53.25 -19.85 -51.6Q-16.45 -50 -15.3 -46.5Q-14.2 -43 -16 -39.7Q-17.8 -36.45 -21.45 -35.25Q-25.15 -34 -28.6 -35.65Q-32.05 -37.25 -33.15 -40.7L-33.3 -41.3M-41.95,-27.05Q-43 -26.4 -44.2 -26Q-47.9 -24.85 -51.4 -26.45Q-54.75 -28.05 -55.85 -31.5Q-57 -35 -55.2 -38.35Q-53.35 -41.7 -49.65 -42.85Q-45.95 -44.05 -42.55 -42.45Q-39.2 -40.8 -38.05 -37.3Q-37.55 -35.75 -37.65 -34.2Q-37.7 -32.35 -38.75 -30.55Q-39.95 -28.3 -41.95 -27.05M-70.45,-30.2Q-66.7 -31.4 -63.3 -29.8Q-59.9 -28.2 -58.8 -24.7Q-57.65 -21.2 -59.45 -17.85L-60.7 -16.15Q-67.35 -19.75 -76.75 -19.5Q-77.2 -20.75 -77.05 -22.1L-72.55 -29.3L-70.45 -30.2M-22.95,-9.9Q-31.75 -13 -41.25 -12.15L-40.55 -13.9Q-38.7 -17.25 -35 -18.45Q-31.25 -19.6 -27.9 -17.95Q-24.5 -16.4 -23.35 -12.9Q-22.9 -11.4 -22.95 -9.9" />
</g>
</svg>
