<?xml version="1.0" encoding="utf-8"?>
<svg version="1.1" id="Layer_1"
xmlns="http://www.w3.org/2000/svg"
xmlns:xlink="http://www.w3.org/1999/xlink"
xmlns:author="http://www.sothink.com"
width="61px" height="112px"
xml:space="preserve">
<g id="29" transform="matrix(1, 0, 0, 1, 30.1, 56)">
<path style="fill:#FCF5EA;fill-opacity:1" d="M21.55,-37.35L20.85 -37.95L21.95 -42.05Q24.75 -49 23.75 -56Q27 -51.8 26.15 -46.2Q24.7 -40.7 21.55 -37.35M14.65,-12.8Q16.15 -12.15 16.9 -14Q17.65 -15.85 16.75 -18.1Q15.95 -17.9 14.85 -18.65Q14.15 -17.45 12.7 -17.25Q13.25 -13.4 14.65 -12.8M26.05,-10.7L23.55 -8.3L19.65 -5.7L20.5 4.25Q21.45 5.85 21.75 7.25Q22.2 9.5 21 11.15L20.15 10.25L17.85 7.9L13.75 4.4Q11.8 -3.8 9.45 -3.7Q4 -3.5 -1.55 -5.7Q-10.1 -10.15 0.25 -12Q7.6 -13.15 8.2 -15.2Q8.35 -16.85 9.95 -18.55Q10.85 -19.55 13.25 -20.15Q16.5 -20.6 18.3 -19.15Q19.95 -17.7 21.65 -17.75Q25.85 -17.15 30.05 -19.35Q29.55 -14.55 26.05 -10.7M9.15,14.55Q11.2 16.3 13.85 17.75Q19.15 20.75 20.35 25.15L20.55 27Q21.95 45.65 5.6 55.95Q3.4 54.75 0.8 54.45Q3.4 51.6 5.1 48.8Q7.5 44.65 7.9 40.65Q8.15 37.55 7.15 34.55Q6.55 32.7 5.45 30.9Q4 22.75 9.15 14.55M-16.2,-23.4Q-23 -23.3 -27.4 -27.35Q-31.85 -35 -28.95 -42.6Q-25.45 -34 -16.1 -29.05L-17.8 -28.5L-15.55 -25.45L-16.2 -23.4" />
</g>
</svg>
