<?xml version="1.0" encoding="utf-8"?>
<svg version="1.1" id="Layer_1"
xmlns="http://www.w3.org/2000/svg"
xmlns:xlink="http://www.w3.org/1999/xlink"
xmlns:author="http://www.sothink.com"
width="36px" height="20px"
xml:space="preserve">
<g id="30" transform="matrix(1, 0, 0, 1, 12.45, 91.6)">
<path style="fill:#FFFFFF;fill-opacity:1" d="M17.05,-91.6L18.4 -91.55Q21.7 -90.9 23.4 -87.2Q24.2 -79.95 20.05 -80.05Q21.4 -80.25 21.4 -82.4Q21.45 -85.1 20.7 -87.3Q18.95 -84.95 16 -86.1Q15 -90.3 17.05 -91.6M-8.45,-81.2Q-8.5 -77.4 -5.65 -74.55Q-4.1 -73.6 -3.2 -73.9Q-9.4 -69.7 -12.35 -80.1L-12.45 -80.4Q-10.7 -86.4 -7.3 -86.15Q-5.55 -86.55 -3.35 -84.25L-2.4 -81.95Q-5.3 -79.55 -8.45 -81.2" />
<path style="fill:#BADDFC;fill-opacity:1" d="M19.85,-80.05L18.95 -80.15Q17.75 -80.85 17.1 -82.65Q16.45 -84.5 16.15 -85.7L16 -86.1Q18.95 -84.95 20.7 -87.3Q21.45 -85.1 21.4 -82.4Q21.4 -80.25 20.05 -80.05L19.85 -80.05M-3.2,-73.9Q-4.1 -73.6 -5.65 -74.55Q-8.5 -77.4 -8.45 -81.2Q-5.3 -79.55 -2.4 -81.95L-2.05 -80.85Q-1.5 -78.55 -1.95 -76.4Q-2.1 -74.3 -3.2 -73.9" />
<path style="fill:#F9E7ED;fill-opacity:1" d="M8.75,-76.2Q10.2 -76.4 10.9 -77.6Q12 -76.85 12.8 -77.05Q13.7 -74.8 12.95 -72.95Q12.2 -71.1 10.7 -71.75Q9.3 -72.35 8.75 -76.2" />
</g>
</svg>
