<?xml version="1.0" encoding="utf-8"?>
<svg version="1.1" id="Layer_1"
xmlns="http://www.w3.org/2000/svg"
xmlns:xlink="http://www.w3.org/1999/xlink"
xmlns:author="http://www.sothink.com"
width="35px" height="32px"
xml:space="preserve">
<g id="9419" transform="matrix(1, 0, 0, 1, 13.2, 18.95)">
<path style="fill:#000000;fill-opacity:0.329412" d="M17.5,-8.25Q18.95 -5.85 19.1 -3.6L19.25 -0.15Q18.55 -2.1 17 -4.25Q0.65 -7.3 -12.55 0.9Q-13.2 -1.05 -13.05 -3.2Q-8.75 -7.3 -1.6 -9.5Q6.6 -11.5 14.35 -9.45L16.05 -8.8L17.35 -8.3L17.5 -8.25" />
<path style="fill:none;stroke-width:1;stroke-linecap:round;stroke-linejoin:round;stroke-miterlimit:3;stroke:#000000;stroke-opacity:0.439216" d="M7.15,-18.4Q12.85 -18.8 16.25 -16.5M18.35,12.35Q20.3 11.15 20.35 9.4M-10.9,11.1Q-12.35 9.55 -12.7 7.8" />
</g>
</svg>
