<?xml version="1.0" encoding="utf-8"?>
<svg version="1.1" id="Layer_1"
xmlns="http://www.w3.org/2000/svg"
xmlns:xlink="http://www.w3.org/1999/xlink"
xmlns:author="http://www.sothink.com"
width="31px" height="32px"
xml:space="preserve">
<g id="15080" transform="matrix(1, 0, 0, 1, 0, 15.65)">
<path style="fill:#E7EBFF;fill-opacity:1" d="M0.1,-1.6L0.1 -1.7L0.1 -1.95L0.4 -3.25L0.4 -3.4L2.6 -3.45L2.7 -3.45Q3.25 -5.1 4.05 -6.55L4.05 -6.65L2.65 -8.35L2.6 -8.45Q4.3 -11.3 7.1 -13L7.2 -13L8.8 -11.6L8.85 -11.55L12.1 -12.8L12.15 -12.85L12.25 -15.15L12.3 -15.15L14.65 -15.55L14.65 -15.65L16.85 -15.65L16.95 -15.65L18.85 -15.2L18.95 -15.2L19.05 -13L19.05 -12.95Q20.7 -12.35 22.2 -11.55L22.25 -11.55Q23.05 -12.35 23.95 -13L24.05 -13Q26.9 -11.35 28.6 -8.55L28.6 -8.45L27.25 -6.8L27.15 -6.8L28.45 -3.5L28.45 -3.45L30.8 -3.25L30.9 -3.25L30.9 3.15L30.9 3.2L30.8 3.25L28.45 3.4L28.45 3.55L27.15 6.75L27.25 6.8L28.6 8.4L28.6 8.5Q26.9 11.35 24.05 13L23.95 12.95L22.25 11.55L22.2 11.55L19.05 12.9L19.05 13L18.95 15.2L18.85 15.2L16.95 15.5L16.95 15.65L16.85 15.65L14.65 15.65L14.65 15.55Q13.2 15.6 12.3 15.05L12.3 14.95Q12.1 14.05 12.15 12.75L12.1 12.75L8.85 11.55L8.8 11.65L7.2 13L7.1 12.95Q4.3 11.3 2.6 8.4L2.65 8.35L4.05 6.65L4.05 6.55L2.7 3.4L2.6 3.4L0.4 3.3L0.4 3.2L0.1 1.45L0 1.45L0 -1.6L0.1 -1.6M19.85,-4.25Q18.1 -6.05 15.55 -6.05Q13.05 -6.05 11.25 -4.25Q9.45 -2.55 9.45 0Q9.45 2.5 11.25 4.3Q13.05 6.1 15.55 6.1Q18.1 6.1 19.85 4.3Q21.65 2.5 21.65 0.05Q21.65 -2.55 19.85 -4.25M23.4,-7.75Q20.15 -10.95 15.55 -10.95Q11 -10.95 7.85 -7.75Q4.6 -4.55 4.6 0Q4.6 4.6 7.85 7.75Q11 11.05 15.55 11.05Q20.15 11.05 23.4 7.75Q26.6 4.6 26.6 0.05Q26.6 -4.55 23.4 -7.75M24.9,0.05Q24.9 3.9 22.2 6.6Q19.45 9.35 15.6 9.35Q11.7 9.35 9 6.6Q6.3 3.9 6.3 0Q6.3 -3.9 9 -6.55Q11.7 -9.3 15.6 -9.3Q19.45 -9.3 22.2 -6.55Q24.9 -3.9 24.9 0.05" />
</g>
</svg>
