<?xml version="1.0" encoding="utf-8"?>
<svg version="1.1" id="Layer_1"
xmlns="http://www.w3.org/2000/svg"
xmlns:xlink="http://www.w3.org/1999/xlink"
xmlns:author="http://www.sothink.com"
width="48px" height="55px"
xml:space="preserve">
<g id="1707" transform="matrix(1, 0, 0, 1, 21.95, 67.9)">
<path style="fill:#FFFFFF;fill-opacity:0.219608" d="M0.35,-54.5L2.95 -67.9Q3.45 -67.2 6.35 -66.9L9.8 -67.1L7.35 -53.85Q3.9 -53.4 0.35 -54.5" />
<path style="fill:#FFFFFF;fill-opacity:0.329412" d="M-3.2,-36.1L-1.45 -45.3L0.35 -54.5Q3.9 -53.4 7.35 -53.85L5.65 -44.9L4 -35.85L-3.2 -36.1" />
<path style="fill:#FFFFFF;fill-opacity:0.458824" d="M4,-35.85L11.8 -36.65L11.9 -36.65Q17.85 -37.6 23.45 -39.4L23.85 -39.6Q24.7 -39.4 25.1 -37.8Q25.65 -35.9 24.65 -35.3L22.7 -34.55Q11.6 -30.75 -0.1 -31.3Q-13.35 -32.45 -20.1 -36.5L-21.45 -37.45Q-22.15 -38 -21.9 -39.5Q-21.6 -41.1 -20.85 -41.6L-20.2 -41.5L-17.5 -39.95Q-15 -38.65 -10.4 -37.55L-3.2 -36.1L4 -35.85" />
<path style="fill:#FFFFFF;fill-opacity:0.266667" d="M11.9,-36.65L11.8 -36.65L4 -35.85L5.65 -44.9Q11.85 -44 17.55 -42.35Q23.15 -40.7 23.45 -39.4Q17.85 -37.6 11.9 -36.65M-3.2,-36.1L-10.4 -37.55Q-15 -38.65 -17.5 -39.95L-20.2 -41.5Q-18.9 -42.95 -12.4 -44.15L-1.45 -45.3L-3.2 -36.1" />
<path style="fill:#FFFFFF;fill-opacity:0.878431" d="M16.85,-48.65Q17.3 -47.4 16.7 -46.8L14.85 -46.7Q13.55 -47.1 12.3 -48.35Q11.15 -49.5 10.7 -50.75Q10.35 -51.95 10.85 -52.55L12.65 -52.65Q13.9 -52.25 15.2 -51.05Q16.35 -49.85 16.85 -48.65M19.35,-43.4Q19.65 -41.65 18.3 -42.25Q16.9 -42.8 17.15 -44Q17.3 -45.25 18.2 -45.25Q19.05 -45.25 19.35 -43.4M18.35,-25.35Q17.55 -21.55 16.45 -19.9Q15.3 -18.3 15.35 -20.45Q15.35 -22.55 16.05 -24.3Q16.7 -26.1 17.95 -27.65Q19.2 -29.15 18.35 -25.35M14.95,-18.15Q16.5 -16.2 14.95 -13.55Q14.55 -12.85 14.3 -13.65Q13.3 -16.4 14.95 -18.15M-15.45,-26.2Q-13.4 -23.75 -14.05 -21Q-14.75 -18.3 -15.4 -20.25L-16.4 -23.6Q-16.8 -25.4 -15.45 -26.2" />
</g>
</svg>
