<?xml version="1.0" encoding="utf-8"?>
<svg version="1.1" id="Layer_1"
xmlns="http://www.w3.org/2000/svg"
xmlns:xlink="http://www.w3.org/1999/xlink"
xmlns:author="http://www.sothink.com"
width="32px" height="84px"
xml:space="preserve">
<g id="1754" transform="matrix(1, 0, 0, 1, 15.85, 41.65)">
<path style="fill:none;stroke-width:2;stroke-linecap:round;stroke-linejoin:round;stroke-miterlimit:3;stroke:#000000;stroke-opacity:1" d="M-11.85,-12.95Q-6.65 -26.6 1.7 -40.65Q7.4 -31.4 10.65 -22.9Q23 9.5 -0.5 31.7L-0.05 39.7Q-5.8 42 -5.05 38.55L-3.45 30.5Q-13.45 21.7 -14.65 8.3Q-15.4 0.6 -13.2 -8.6L-7.4 -9.35L-11.85 -12.95z" />
<path style="fill:none;stroke-width:2;stroke-linecap:round;stroke-linejoin:round;stroke-miterlimit:3;stroke:#000000;stroke-opacity:0.4" d="M-2.4,-7.95L-2.05 -7.25Q1.5 -0.75 3.8 10.05Q5.85 -1.6 5.45 -13.3L5.3 -16.3Q4.9 -22.8 3.7 -29.25M6.75,-26.05Q7.35 -21.55 6.95 -18.3Q6.6 -15.35 5.45 -13.3M3.8,10.05Q2.45 17.5 0.4 24.55Q4.75 21.2 6.4 15.8" />
</g>
</svg>
