<?xml version="1.0" encoding="utf-8"?>
<svg version="1.1" id="Layer_1"
xmlns="http://www.w3.org/2000/svg"
xmlns:xlink="http://www.w3.org/1999/xlink"
xmlns:author="http://www.sothink.com"
width="26px" height="28px"
xml:space="preserve">
<g id="9413" transform="matrix(1, 0, 0, 1, 12.85, 13.9)">
<path style="fill:#000000;fill-opacity:1" d="M7.85,-8.2Q4.65 -11.15 0.1 -11.65Q-4.5 -12.1 -7.75 -8.7Q-10.95 -5.3 -10.95 1.05Q-10.95 7.4 -7.65 10.85Q-5.35 13.25 -2.4 13.85L-7.25 13.95L-9 12.4Q-12.85 8.4 -12.85 0.95Q-12.85 -6.5 -9.1 -10.4Q-5.3 -14.4 0.05 -13.85Q5.35 -13.3 9.15 -9.9Q12.9 -6.5 12.9 0.95Q12.9 8.4 9.3 12.15L7.4 13.75L2.2 13.8Q5.55 13.1 8 10.6Q11.1 7.4 11.1 1.05Q11.1 -5.3 7.85 -8.2" />
</g>
</svg>
