<?xml version="1.0" encoding="utf-8"?>
<svg version="1.1" id="Layer_1"
xmlns="http://www.w3.org/2000/svg"
xmlns:xlink="http://www.w3.org/1999/xlink"
xmlns:author="http://www.sothink.com"
width="27px" height="27px"
xml:space="preserve">
<g id="15079" transform="matrix(1, 0, 0, 1, 13.15, 13.15)">
<path style="fill:#D3DFFF;fill-opacity:1" d="M-0.15,-8.15L1.9 -2.45L7.95 -2.3L3.15 1.4L4.85 7.2L-0.15 3.75L-5.1 7.2L-3.4 1.4L-8.2 -2.3L-2.15 -2.45L-0.15 -8.15" />
<path style="fill:none;stroke-width:2.5;stroke-linecap:round;stroke-linejoin:round;stroke-miterlimit:3;stroke:#D3DFFF;stroke-opacity:1" d="M11.9,0Q11.9 4.95 8.4 8.4Q4.95 11.9 0 11.9Q-4.95 11.9 -8.45 8.4Q-11.9 4.95 -11.9 0Q-11.9 -4.95 -8.45 -8.45Q-4.95 -11.9 0 -11.9Q4.95 -11.9 8.4 -8.45Q11.9 -4.95 11.9 0z" />
</g>
</svg>
