<?xml version="1.0" encoding="utf-8"?>
<svg version="1.1" id="Layer_1"
xmlns="http://www.w3.org/2000/svg"
xmlns:xlink="http://www.w3.org/1999/xlink"
xmlns:author="http://www.sothink.com"
width="25px" height="16px"
xml:space="preserve">
<g id="5621" transform="matrix(1, 0, 0, 1, 12.1, 7.6)">
<path style="fill:none;stroke-width:0.8;stroke-linecap:round;stroke-linejoin:round;stroke-miterlimit:3;stroke:#000000;stroke-opacity:0.658824" d="M-2.75,-5.3Q-2.85 -2.55 -2.35 -1.3L9.25 -1.85M-4.75,2.5L-4.75 -0.9L-6.65 -1.3L-6.8 1.95L-4.75 2.5L-1.75 3.1L11.05 2.6M-9.9,0.6L-8.05 1.5L-8.05 -3.5L-10.9 -4.2M-8.05,1.5L-6.8 1.95" />
<path style="fill:none;stroke-width:2;stroke-linecap:round;stroke-linejoin:round;stroke-miterlimit:3;stroke:#000000;stroke-opacity:1" d="M-8.15,3.65Q-9.3 2.3 -9.9 0.6L-10.05 0.2Q-10.65 -1.7 -10.9 -4.2L-11.1 -6.6Q-8.3 -5.25 -2.75 -5.3Q-1.35 -6.05 3.05 -6.15Q7.4 -6.3 9.2 -4.75L9.2 -1.95L9.25 -1.85Q10.7 0.9 11.05 2.6L11.05 2.8L10.95 4Q10.45 5.8 8.65 6.35L0.9 6.55Q-5.05 6.2 -8.15 3.65z" />
</g>
</svg>
