<?xml version="1.0" encoding="utf-8"?>
<svg version="1.1" id="Layer_1"
xmlns="http://www.w3.org/2000/svg"
xmlns:xlink="http://www.w3.org/1999/xlink"
xmlns:author="http://www.sothink.com"
width="53px" height="57px"
xml:space="preserve">
<g id="4760" transform="matrix(1, 0, 0, 1, 26.35, 28.4)">
<path style="fill:none;stroke-width:1.5;stroke-linecap:round;stroke-linejoin:round;stroke-miterlimit:3;stroke:#000000;stroke-opacity:1" d="M2.75,5.3L16.6 -18.55Q19.3 -23.75 14.25 -27.65L-1.45 0.4L1 3.2L1.2 3.4L1.6 3.7Q2.4 4.3 2.7 5.25L2.75 5.3L2.85 5.35Q5.3 8.8 10.1 6.3Q12.1 4.9 14.75 4.7Q18.85 4.3 22 6.9Q25.15 9.5 25.55 13.55Q25.95 17.65 23.3 20.85Q20.7 24 16.65 24.4Q12.55 24.8 9.4 22.15Q8.15 21.2 7.4 20L-0.45 10.85L-6.55 21.55Q-7.1 22.85 -8.05 24Q-10.7 27.15 -14.8 27.6Q-18.85 28 -22 25.35Q-25.15 22.75 -25.55 18.65Q-25.95 14.6 -23.35 11.4Q-20.75 8.3 -16.65 7.9Q-14.05 7.65 -11.8 8.65Q-6.6 10.1 -4.75 6.3L-4.75 6.2L-4.7 5.95L-22.9 -14.95Q-26.5 -19.55 -22.3 -24.3L-1.45 0.4M15.45,9.5Q17.55 9.3 19.15 10.65Q20.85 12.05 21 14.15Q21.25 16.25 19.85 17.9Q18.5 19.55 16.4 19.75Q14.25 19.95 12.6 18.6Q11 17.25 10.8 15.15Q10.6 13 11.95 11.35Q13.3 9.7 15.45 9.5M1,3.2Q0 2.7 -1.1 2.85Q-2.35 2.95 -3.2 3.7L-3.4 3.85L-3.55 4.05L-3.9 4.4Q-4.55 5.1 -4.7 5.95L-0.45 10.85M-12.65,14Q-14.25 12.65 -16.35 12.85Q-18.45 13.1 -19.8 14.65Q-21.1 16.3 -20.95 18.35Q-20.75 20.45 -19.1 21.75Q-17.45 23.1 -15.4 22.95Q-13.3 22.7 -11.95 21.1Q-10.65 19.5 -10.85 17.4Q-11.05 15.3 -12.65 14" />
<path style="fill:none;stroke-width:1;stroke-linecap:round;stroke-linejoin:round;stroke-miterlimit:3;stroke:#000000;stroke-opacity:1" d="M0.75,6Q0.8 6.5 0.5 6.85L-0.3 7.3Q-0.8 7.35 -1.15 7Q-1.55 6.75 -1.55 6.25Q-1.65 5.75 -1.3 5.4Q-1 5.1 -0.5 5Q0 4.95 0.35 5.25Q0.65 5.55 0.75 6z" />
</g>
</svg>
