<?xml version="1.0" encoding="utf-8"?>
<svg version="1.1" id="Layer_1"
xmlns="http://www.w3.org/2000/svg"
xmlns:xlink="http://www.w3.org/1999/xlink"
xmlns:author="http://www.sothink.com"
width="43px" height="35px"
xml:space="preserve">
<g id="4759" transform="matrix(1, 0, 0, 1, 6.95, 51.8)">
<path style="fill:#B8B8B8;fill-opacity:1" d="M16.5,-21.3Q15.25 -21.2 14.4 -20.45L14.2 -20.3L14.05 -20.1L13.7 -19.75Q13.05 -19.05 12.9 -18.2L-5.3 -39.1Q-8.9 -43.7 -4.7 -48.45L16.15 -23.75L31.85 -51.8Q36.9 -47.9 34.2 -42.7L20.35 -18.85L20.3 -18.9Q20 -19.85 19.2 -20.45L18.8 -20.75L18.6 -20.95L16.5 -21.3M17.95,-18.9L18.35 -18.15Q18.4 -17.65 18.1 -17.3L17.3 -16.85Q16.8 -16.8 16.45 -17.15Q16.05 -17.4 16.05 -17.9Q15.95 -18.4 16.3 -18.75Q16.6 -19.05 17.1 -19.15L17.95 -18.9" />
</g>
</svg>
