<?xml version="1.0" encoding="utf-8"?>
<svg version="1.1" id="Layer_1"
xmlns="http://www.w3.org/2000/svg"
xmlns:xlink="http://www.w3.org/1999/xlink"
xmlns:author="http://www.sothink.com"
width="17px" height="20px"
xml:space="preserve">
<g id="6462" transform="matrix(1, 0, 0, 1, 10.9, 2.65)">
<path style="fill:#FFF1E0;fill-opacity:1" d="M0,15.65Q-4.5 18.15 -8.9 14.2Q-11.05 12.2 -10.9 9.65Q-10.75 7 -8.2 3.8Q-7.45 2.8 -5.4 -1.2L-5.4 -1.25L-5.15 -1.7L-5.1 -1.85L-5 -2.05L-4.85 -2.35L-4.7 -2.65L-4.65 -2.65Q-3.9 -1.5 -0.05 -0.05Q4.75 1.5 5.6 2.1L5.5 5.8L5.45 6.25L4.75 10.55Q4.35 12.5 2.15 14.25L0.25 15.55L0 15.65" />
</g>
</svg>
