<?xml version="1.0" encoding="UTF-8" standalone="no"?>
<svg xmlns:ffdec="https://www.free-decompiler.com/flash" xmlns:xlink="http://www.w3.org/1999/xlink" ffdec:objectType="shape" height="28.8px" width="96.9px" xmlns="http://www.w3.org/2000/svg">
  <g transform="matrix(1.0, 0.0, 0.0, 1.0, 23.3, 24.8)">
    <path d="M-2.15 -16.6 Q-8.75 -19.3 -15.25 -17.4 -22.15 -15.5 -22.0 -8.7 -21.6 -3.15 -15.0 0.25 -6.1 3.7 4.0 1.8 14.1 -1.8 23.9 -6.8 39.7 -15.0 51.35 -6.8 60.45 0.7 65.4 0.1 72.3 -0.1 72.3 -8.85 72.3 -17.6 65.2 -15.95 60.35 -14.75 55.8 -17.15 51.2 -20.2 47.15 -21.75 36.75 -25.3 24.55 -20.65 19.4 -19.1 13.5 -16.6 4.4 -12.8 -2.15 -16.6 M13.05 -18.0 Q18.95 -20.5 24.15 -22.05 36.75 -26.9 47.55 -23.2 L47.6 -23.15 Q51.65 -21.6 56.35 -18.5 60.5 -16.35 64.95 -17.4 69.25 -18.4 71.4 -16.1 73.6 -14.05 73.6 -8.85 73.6 1.35 65.5 1.6 60.25 2.35 50.6 -5.55 L50.7 -5.5 Q39.55 -13.3 24.45 -5.4 L24.4 -5.4 Q14.55 -0.4 4.4 3.25 L4.25 3.3 Q-6.2 5.25 -15.35 1.7 L-15.5 1.65 Q-22.9 -2.2 -23.3 -8.55 L-23.3 -8.65 Q-23.55 -16.65 -15.55 -18.85 -8.7 -20.85 -1.7 -18.0 L-1.55 -17.95 Q4.55 -14.45 13.05 -18.0" fill="#ff8fab" fill-opacity="0.32941177" fill-rule="evenodd" stroke="none"/>
    <path d="M-2.15 -16.6 Q4.4 -12.8 13.5 -16.6 19.4 -19.1 24.55 -20.65 36.75 -25.3 47.15 -21.75 51.2 -20.2 55.8 -17.15 60.35 -14.75 65.2 -15.95 72.3 -17.6 72.3 -8.85 72.3 -0.1 65.4 0.1 60.45 0.7 51.35 -6.8 39.7 -15.0 23.9 -6.8 14.1 -1.8 4.0 1.8 -6.1 3.7 -15.0 0.25 -21.6 -3.15 -22.0 -8.7 -22.15 -15.5 -15.25 -17.4 -8.75 -19.3 -2.15 -16.6" fill="#ff8fab" fill-rule="evenodd" stroke="none"/>
  </g>
</svg>
