<?xml version="1.0" encoding="UTF-8" standalone="no"?>
<svg xmlns:ffdec="https://www.free-decompiler.com/flash" xmlns:xlink="http://www.w3.org/1999/xlink" ffdec:objectType="shape" height="25.7px" width="98.8px" xmlns="http://www.w3.org/2000/svg">
  <g transform="matrix(1.0, 0.0, 0.0, 1.0, 22.35, 21.95)">
    <path d="M76.45 -8.15 Q76.45 -3.55 70.7 -0.35 65.05 2.95 56.95 2.95 48.8 2.95 43.15 -0.35 37.45 -3.55 37.45 -8.15 37.45 -12.7 43.15 -16.0 48.8 -19.2 56.95 -19.2 65.05 -19.2 70.7 -16.0 76.45 -12.7 76.45 -8.15" fill="url(#gradient0)" fill-rule="evenodd" stroke="none"/>
    <path d="M36.3 -9.1 Q36.3 -3.75 27.7 0.05 19.1 3.75 7.0 3.75 -5.15 3.75 -13.8 0.05 -22.35 -3.75 -22.35 -9.1 -22.35 -14.45 -13.8 -18.2 -5.15 -21.95 7.0 -21.95 19.1 -21.95 27.7 -18.2 36.3 -14.45 36.3 -9.1" fill="url(#gradient1)" fill-rule="evenodd" stroke="none"/>
  </g>
  <defs>
    <radialGradient cx="0" cy="0" gradientTransform="matrix(0.0241, 0.0, 0.0, 0.0137, 56.9, -8.15)" gradientUnits="userSpaceOnUse" id="gradient0" r="819.2" spreadMethod="pad">
      <stop offset="0.27450980392156865" stop-color="#ff8e8e" stop-opacity="0.8862745"/>
      <stop offset="0.9725490196078431" stop-color="#ffb4b4" stop-opacity="0.0"/>
    </radialGradient>
    <radialGradient cx="0" cy="0" gradientTransform="matrix(0.0363, 0.0, 0.0, 0.0159, 6.95, -9.05)" gradientUnits="userSpaceOnUse" id="gradient1" r="819.2" spreadMethod="pad">
      <stop offset="0.27450980392156865" stop-color="#ff8e8e" stop-opacity="0.8862745"/>
      <stop offset="0.9725490196078431" stop-color="#ffb4b4" stop-opacity="0.0"/>
    </radialGradient>
  </defs>
</svg>
