<?xml version="1.0" encoding="UTF-8" standalone="no"?>
<svg xmlns:ffdec="https://www.free-decompiler.com/flash" xmlns:xlink="http://www.w3.org/1999/xlink" ffdec:objectType="shape" height="7.6px" width="76.9px" xmlns="http://www.w3.org/2000/svg">
  <g transform="matrix(1.0, 0.0, 0.0, 1.0, 6.85, 15.25)">
    <path d="M1.15 -14.4 Q2.9 -13.25 2.8 -11.65 2.9 -9.95 1.1 -8.85 -0.15 -8.05 -2.05 -8.05 -3.95 -8.05 -5.2 -8.85 -6.9 -9.95 -6.85 -11.65 -6.95 -13.25 -5.25 -14.4 L-5.2 -14.4 Q-3.95 -15.25 -2.05 -15.25 -0.15 -15.25 1.1 -14.4 L1.15 -14.4 M68.75 -13.75 Q70.1 -12.6 70.05 -11.1 70.05 -9.45 68.6 -8.4 67.5 -7.6 65.8 -7.65 64.05 -7.75 63.0 -8.7 61.7 -9.85 61.7 -11.4 61.65 -12.95 63.05 -14.0 L63.1 -14.05 Q64.2 -14.9 65.95 -14.85 67.65 -14.75 68.75 -13.75" fill="#ffffff" fill-opacity="0.80784315" fill-rule="evenodd" stroke="none"/>
  </g>
</svg>
