<?xml version="1.0" encoding="UTF-8" standalone="no"?>
<svg xmlns:ffdec="https://www.free-decompiler.com/flash" xmlns:xlink="http://www.w3.org/1999/xlink" ffdec:objectType="shape" height="50.8px" width="45.9px" xmlns="http://www.w3.org/2000/svg">
  <g transform="matrix(1.0, 0.0, 0.0, 1.0, -12.25, 52.1)">
    <path d="M51.8 -43.75 Q57.75 -36.1 58.1 -25.4 58.5 -14.6 52.95 -7.75 47.35 -0.75 38.05 -1.35 29.05 -1.9 20.95 -8.05 12.6 -14.4 12.25 -25.9 11.9 -37.35 18.75 -44.9 25.55 -52.55 35.65 -52.05 45.8 -51.55 51.8 -43.75 M56.75 -25.35 Q56.4 -35.5 50.75 -42.75 45.1 -50.05 35.65 -50.55 26.1 -51.0 19.7 -43.85 13.3 -36.75 13.6 -25.95 13.9 -15.2 21.7 -9.3 29.5 -3.4 38.1 -2.85 46.75 -2.3 51.95 -8.75 57.15 -15.2 56.75 -25.35" fill="#ff8fab" fill-opacity="0.32941177" fill-rule="evenodd" stroke="none"/>
    <path d="M56.75 -25.35 Q57.15 -15.2 51.95 -8.75 46.75 -2.3 38.1 -2.85 29.5 -3.4 21.7 -9.3 13.9 -15.2 13.6 -25.95 13.3 -36.75 19.7 -43.85 26.1 -51.0 35.65 -50.55 45.1 -50.05 50.75 -42.75 56.4 -35.5 56.75 -25.35" fill="#ff8fab" fill-rule="evenodd" stroke="none"/>
  </g>
</svg>
