<?xml version="1.0" encoding="UTF-8" standalone="no"?>
<svg xmlns:ffdec="https://www.free-decompiler.com/flash" xmlns:xlink="http://www.w3.org/1999/xlink" ffdec:objectType="shape" height="49.25px" width="93.85px" xmlns="http://www.w3.org/2000/svg">
  <g transform="matrix(1.0, 0.0, 0.0, 1.0, 19.95, 45.4)">
    <path d="M1.45 -18.65 Q4.6 -14.35 4.2 -8.25 3.85 -2.05 0.8 0.75 L0.75 0.75 Q-2.3 3.55 -6.7 3.8 -11.1 4.1 -15.3 1.1 -19.75 -2.0 -19.95 -8.65 -20.1 -15.15 -16.4 -19.35 L-16.4 -19.4 Q-12.7 -23.7 -7.2 -23.45 -1.75 -23.15 1.45 -18.65 M50.0 -21.1 Q49.7 -30.25 44.6 -36.8 39.55 -43.4 31.05 -43.85 22.5 -44.25 16.8 -37.8 11.05 -31.4 11.35 -21.65 11.6 -11.95 18.4 -6.7 25.15 -1.45 32.15 -1.2 39.15 -0.95 44.75 -6.45 50.3 -11.95 50.0 -21.1 M2.85 -8.35 Q3.2 -13.85 0.4 -17.75 -2.45 -21.7 -7.3 -21.95 -12.15 -22.2 -15.4 -18.35 -18.75 -14.55 -18.6 -8.7 -18.4 -2.9 -14.55 -0.15 -10.75 2.55 -6.8 2.3 -2.85 2.1 -0.1 -0.4 2.55 -2.9 2.85 -8.35 M31.15 -45.35 Q40.2 -44.85 45.65 -37.75 51.0 -30.85 51.35 -21.15 51.65 -11.25 45.65 -5.3 39.65 0.6 32.1 0.3 24.7 0.05 17.6 -5.45 L17.65 -5.45 Q10.3 -11.15 9.95 -21.6 9.65 -32.0 15.85 -38.85 21.95 -45.8 31.15 -45.35 M72.5 -7.75 Q72.75 -12.65 70.45 -16.1 68.15 -19.6 64.2 -19.85 60.2 -20.05 57.5 -16.65 54.8 -13.25 54.95 -8.05 55.05 -2.9 58.25 -0.45 61.3 1.95 64.6 1.7 67.85 1.55 70.05 -0.7 72.25 -2.9 72.5 -7.75 M71.55 -17.0 Q74.15 -13.15 73.85 -7.65 73.6 -2.1 71.0 0.4 L70.95 0.45 Q68.4 3.0 64.7 3.2 60.95 3.5 57.45 0.8 53.75 -2.05 53.55 -8.0 53.45 -13.85 56.5 -17.65 L56.5 -17.6 Q59.6 -21.6 64.3 -21.35 68.9 -21.05 71.55 -16.95 L71.55 -17.0" fill="#ff8fab" fill-opacity="0.32941177" fill-rule="evenodd" stroke="none"/>
    <path d="M2.85 -8.35 Q2.55 -2.9 -0.1 -0.4 -2.85 2.1 -6.8 2.3 -10.75 2.55 -14.55 -0.15 -18.4 -2.9 -18.6 -8.7 -18.75 -14.55 -15.4 -18.35 -12.15 -22.2 -7.3 -21.95 -2.45 -21.7 0.4 -17.75 3.2 -13.85 2.85 -8.35 M50.0 -21.1 Q50.3 -11.95 44.75 -6.45 39.15 -0.95 32.15 -1.2 25.15 -1.45 18.4 -6.7 11.6 -11.95 11.35 -21.65 11.05 -31.4 16.8 -37.8 22.5 -44.25 31.05 -43.85 39.55 -43.4 44.6 -36.8 49.7 -30.25 50.0 -21.1 M72.5 -7.75 Q72.25 -2.9 70.05 -0.7 67.85 1.55 64.6 1.7 61.3 1.95 58.25 -0.45 55.05 -2.9 54.95 -8.05 54.8 -13.25 57.5 -16.65 60.2 -20.05 64.2 -19.85 68.15 -19.6 70.45 -16.1 72.75 -12.65 72.5 -7.75" fill="#ff8fab" fill-rule="evenodd" stroke="none"/>
  </g>
</svg>
