<?xml version="1.0" encoding="UTF-8" standalone="no"?>
<svg xmlns:ffdec="https://www.free-decompiler.com/flash" xmlns:xlink="http://www.w3.org/1999/xlink" ffdec:objectType="shape" height="21.75px" width="92.2px" xmlns="http://www.w3.org/2000/svg">
  <g transform="matrix(1.0, 0.0, 0.0, 1.0, 18.05, 21.4)">
    <path d="M32.0 -10.55 Q32.0 -6.05 24.65 -2.85 17.35 0.35 7.0 0.35 -3.4 0.35 -10.75 -2.85 -18.05 -6.05 -18.05 -10.55 -18.05 -15.0 -10.75 -18.2 -3.4 -21.4 7.0 -21.4 17.35 -21.4 24.65 -18.2 32.0 -15.0 32.0 -10.55" fill="url(#gradient0)" fill-rule="evenodd" stroke="none"/>
    <path d="M74.15 -9.8 Q74.15 -5.8 69.35 -3.0 64.55 -0.15 57.75 -0.15 50.9 -0.15 46.1 -3.0 41.3 -5.8 41.3 -9.8 41.3 -13.85 46.1 -16.75 50.9 -19.55 57.75 -19.55 64.55 -19.55 69.35 -16.75 74.15 -13.85 74.15 -9.8" fill="url(#gradient1)" fill-rule="evenodd" stroke="none"/>
  </g>
  <defs>
    <radialGradient cx="0" cy="0" gradientTransform="matrix(0.0309, 0.0, 0.0, 0.0134, 6.95, -10.5)" gradientUnits="userSpaceOnUse" id="gradient0" r="819.2" spreadMethod="pad">
      <stop offset="0.27450980392156865" stop-color="#ff8e8e" stop-opacity="0.9882353"/>
      <stop offset="0.9725490196078431" stop-color="#ffb4b4" stop-opacity="0.0"/>
    </radialGradient>
    <radialGradient cx="0" cy="0" gradientTransform="matrix(0.0203, 0.0, 0.0, 0.012, 57.7, -9.85)" gradientUnits="userSpaceOnUse" id="gradient1" r="819.2" spreadMethod="pad">
      <stop offset="0.27450980392156865" stop-color="#ff8e8e" stop-opacity="0.9882353"/>
      <stop offset="0.9725490196078431" stop-color="#ffb4b4" stop-opacity="0.0"/>
    </radialGradient>
  </defs>
</svg>
