<?xml version="1.0" encoding="UTF-8" standalone="no"?>
<svg xmlns:ffdec="https://www.free-decompiler.com/flash" xmlns:xlink="http://www.w3.org/1999/xlink" ffdec:objectType="shape" height="10.7px" width="85.7px" xmlns="http://www.w3.org/2000/svg">
  <g transform="matrix(1.0, 0.0, 0.0, 1.0, 14.2, 14.25)">
    <path d="M66.95 -5.15 Q66.95 -5.75 67.3 -6.15 67.6 -6.5 68.05 -6.5 68.5 -6.5 68.8 -6.15 69.15 -5.75 69.15 -5.15 69.15 -4.6 68.8 -4.25 68.5 -3.85 68.05 -3.85 67.6 -3.85 67.3 -4.25 66.95 -4.6 66.95 -5.15 M68.1 -7.85 Q65.7 -9.45 65.4 -11.55 65.05 -14.0 66.9 -13.8 67.7 -13.65 68.3 -12.65 69.45 -13.9 70.4 -13.5 71.8 -13.0 71.4 -11.25 70.4 -8.5 68.1 -7.85 M-9.6 -7.25 Q-12.75 -8.0 -14.1 -11.25 -14.65 -13.3 -12.75 -13.9 -11.4 -14.3 -9.9 -12.9 -9.1 -14.05 -7.95 -14.25 -5.5 -14.45 -5.9 -11.6 -6.35 -9.15 -9.6 -7.25 M-6.15 -5.1 Q-6.15 -4.45 -6.6 -4.0 -7.05 -3.55 -7.65 -3.55 -8.3 -3.55 -8.75 -4.0 -9.15 -4.45 -9.15 -5.1 -9.15 -5.75 -8.75 -6.2 -8.3 -6.65 -7.65 -6.65 -7.05 -6.65 -6.6 -6.2 -6.15 -5.75 -6.15 -5.1" fill="#ffffff" fill-rule="evenodd" stroke="none"/>
  </g>
</svg>
