<?xml version="1.0" encoding="UTF-8" standalone="no"?>
<svg xmlns:ffdec="https://www.free-decompiler.com/flash" xmlns:xlink="http://www.w3.org/1999/xlink" ffdec:objectType="shape" height="35.75px" width="99.9px" xmlns="http://www.w3.org/2000/svg">
  <g transform="matrix(1.0, 0.0, 0.0, 1.0, 24.6, 29.75)">
    <path d="M28.25 -29.65 L39.6 -29.7 50.6 -29.5 Q54.15 -29.5 54.75 -27.25 55.65 -25.45 53.7 -22.0 50.7 -16.65 47.6 -13.45 44.2 -9.85 39.9 -10.2 35.9 -10.55 31.85 -13.45 27.9 -16.35 24.85 -21.95 22.9 -25.5 23.9 -27.35 24.6 -29.55 28.25 -29.65 M52.55 -22.8 Q55.45 -27.95 50.55 -28.0 L39.55 -28.2 28.3 -28.15 Q23.1 -28.0 26.0 -22.7 28.9 -17.45 32.65 -14.7 36.3 -12.0 40.0 -11.7 43.7 -11.4 46.7 -14.5 49.65 -17.65 52.55 -22.8 M-6.65 -19.55 Q-0.1 -19.9 5.6 -19.65 9.35 -19.55 10.45 -16.9 11.65 -14.7 10.35 -10.35 8.1 -2.85 3.85 1.7 -0.65 6.5 -5.4 5.95 -9.9 5.45 -14.75 1.7 -19.5 -2.0 -23.1 -9.0 -25.3 -13.2 -24.3 -15.5 -23.5 -18.2 -19.4 -18.6 L-6.65 -19.55 M9.05 -10.8 Q11.2 -17.95 5.55 -18.15 -0.1 -18.4 -6.6 -18.05 L-19.25 -17.1 Q-25.45 -16.5 -21.95 -9.75 -18.5 -3.05 -13.95 0.45 -9.45 3.95 -5.25 4.45 -1.1 4.9 2.9 0.6 6.9 -3.7 9.05 -10.8 M75.0 -19.2 Q75.5 -17.25 75.2 -13.55 74.7 -6.5 72.95 -2.25 L72.9 -2.25 Q70.6 3.05 67.6 2.35 65.05 2.15 62.5 -1.8 60.15 -5.35 58.8 -12.05 57.15 -20.15 60.95 -20.95 L66.6 -22.1 Q69.8 -22.45 72.2 -22.15 74.2 -22.1 75.0 -19.2 M73.85 -13.65 Q74.35 -20.4 72.1 -20.65 69.75 -20.95 66.75 -20.6 L61.3 -19.5 Q58.8 -18.75 60.15 -12.4 61.45 -6.05 63.6 -2.7 65.7 0.6 67.8 0.85 69.95 1.15 71.65 -2.9 73.35 -6.95 73.85 -13.65" fill="#ff8fab" fill-opacity="0.32941177" fill-rule="evenodd" stroke="none"/>
    <path d="M52.55 -22.8 Q49.65 -17.65 46.7 -14.5 43.7 -11.4 40.0 -11.7 36.3 -12.0 32.65 -14.7 28.9 -17.45 26.0 -22.7 23.1 -28.0 28.3 -28.15 L39.55 -28.2 50.55 -28.0 Q55.45 -27.95 52.55 -22.8 M9.05 -10.8 Q6.9 -3.7 2.9 0.6 -1.1 4.9 -5.25 4.45 -9.45 3.95 -13.95 0.45 -18.5 -3.05 -21.95 -9.75 -25.45 -16.5 -19.25 -17.1 L-6.6 -18.05 Q-0.1 -18.4 5.55 -18.15 11.2 -17.95 9.05 -10.8 M73.85 -13.65 Q73.35 -6.95 71.65 -2.9 69.95 1.15 67.8 0.85 65.7 0.6 63.6 -2.7 61.45 -6.05 60.15 -12.4 58.8 -18.75 61.3 -19.5 L66.75 -20.6 Q69.75 -20.95 72.1 -20.65 74.35 -20.4 73.85 -13.65" fill="#ff8fab" fill-rule="evenodd" stroke="none"/>
  </g>
</svg>
