<?xml version="1.0" encoding="UTF-8" standalone="no"?>
<svg xmlns:ffdec="https://www.free-decompiler.com/flash" xmlns:xlink="http://www.w3.org/1999/xlink" ffdec:objectType="shape" height="25.5px" width="94.25px" xmlns="http://www.w3.org/2000/svg">
  <g transform="matrix(1.0, 0.0, 0.0, 1.0, 15.8, 22.05)">
    <path d="M24.45 -9.75 Q24.45 -6.0 18.55 -3.4 12.7 -0.7 4.35 -0.7 -4.0 -0.7 -9.9 -3.4 -15.8 -6.0 -15.8 -9.75 -15.8 -13.55 -9.9 -16.2 -4.0 -18.85 4.35 -18.85 12.7 -18.85 18.55 -16.2 24.45 -13.55 24.45 -9.75" fill="url(#gradient0)" fill-rule="evenodd" stroke="none"/>
    <path d="M73.3 -9.75 Q73.3 -6.0 69.4 -3.4 65.55 -0.7 60.0 -0.7 L58.75 -0.75 Q56.0 -0.9 53.7 -1.8 52.0 -2.4 50.6 -3.4 46.75 -6.0 46.75 -9.75 46.75 -13.55 50.6 -16.2 54.5 -18.85 60.0 -18.85 65.55 -18.85 69.4 -16.2 73.3 -13.55 73.3 -9.75" fill="url(#gradient1)" fill-rule="evenodd" stroke="none"/>
    <path d="M78.45 -9.3 Q78.45 -4.0 65.45 -0.3 52.55 3.45 34.1 3.45 15.7 3.45 2.7 -0.3 -10.3 -4.0 -10.3 -9.3 -10.3 -14.55 2.7 -18.3 15.7 -22.05 34.1 -22.05 52.55 -22.05 65.45 -18.3 78.45 -14.55 78.45 -9.3" fill="url(#gradient2)" fill-rule="evenodd" stroke="none"/>
  </g>
  <defs>
    <radialGradient cx="0" cy="0" gradientTransform="matrix(0.0249, 0.0, 0.0, 0.0112, 4.3, -9.75)" gradientUnits="userSpaceOnUse" id="gradient0" r="819.2" spreadMethod="pad">
      <stop offset="0.2784313725490196" stop-color="#ff8e8e" stop-opacity="0.70980394"/>
      <stop offset="0.9725490196078431" stop-color="#ffb4b4" stop-opacity="0.0"/>
    </radialGradient>
    <radialGradient cx="0" cy="0" gradientTransform="matrix(0.0164, 0.0, 0.0, 0.0112, 60.0, -9.75)" gradientUnits="userSpaceOnUse" id="gradient1" r="819.2" spreadMethod="pad">
      <stop offset="0.2784313725490196" stop-color="#ff8e8e" stop-opacity="0.70980394"/>
      <stop offset="0.9725490196078431" stop-color="#ffb4b4" stop-opacity="0.0"/>
    </radialGradient>
    <radialGradient cx="0" cy="0" gradientTransform="matrix(0.0549, 0.0, 0.0, 0.0158, 34.05, -9.3)" gradientUnits="userSpaceOnUse" id="gradient2" r="819.2" spreadMethod="pad">
      <stop offset="0.3176470588235294" stop-color="#ff8e8e" stop-opacity="0.7764706"/>
      <stop offset="0.9725490196078431" stop-color="#ffb4b4" stop-opacity="0.0"/>
    </radialGradient>
  </defs>
</svg>
