<?xml version="1.0" encoding="UTF-8" standalone="no"?>
<svg xmlns:ffdec="https://www.free-decompiler.com/flash" xmlns:xlink="http://www.w3.org/1999/xlink" ffdec:objectType="shape" height="47.2px" width="94.25px" xmlns="http://www.w3.org/2000/svg">
  <g transform="matrix(1.0, 0.0, 0.0, 1.0, 21.35, 35.85)">
    <path d="M10.1 -4.2 Q10.25 -11.65 5.5 -16.3 0.7 -21.0 -6.3 -20.95 -13.4 -20.95 -17.2 -16.15 -21.1 -11.35 -19.35 -4.05 -17.6 3.25 -12.35 6.7 -7.1 10.1 -1.8 9.85 3.4 9.55 6.75 6.4 9.95 3.25 10.1 -4.2 M47.6 -22.6 Q47.3 -27.3 43.2 -30.7 39.1 -34.15 32.2 -34.35 25.25 -34.55 20.7 -31.25 16.05 -27.9 16.25 -22.85 16.45 -17.85 21.95 -15.15 27.45 -12.4 33.1 -12.3 38.75 -12.15 43.3 -15.0 47.8 -17.85 47.6 -22.6 M-6.3 -22.45 Q1.35 -22.5 6.45 -17.4 11.7 -12.3 11.55 -4.15 11.4 4.05 7.75 7.5 L7.7 7.55 Q4.0 11.05 -1.75 11.35 -7.4 11.65 -13.1 7.95 -18.85 4.25 -20.75 -3.65 L-20.75 -3.7 Q-22.7 -11.8 -18.3 -17.1 -14.1 -22.45 -6.3 -22.45 M44.1 -31.85 Q48.75 -28.05 49.0 -22.7 L49.0 -22.65 Q49.35 -17.05 44.1 -13.7 39.15 -10.65 33.1 -10.8 27.1 -10.9 21.35 -13.8 L21.4 -13.8 Q15.0 -16.9 14.8 -22.75 L14.8 -22.8 Q14.5 -28.65 19.85 -32.45 24.8 -36.05 32.25 -35.85 39.75 -35.65 44.1 -31.85 M71.25 -6.15 Q72.1 -12.6 69.9 -17.05 67.65 -21.55 62.85 -21.65 58.05 -21.8 55.05 -17.35 52.05 -12.9 51.7 -5.9 51.3 1.1 54.7 4.2 58.1 7.3 61.8 7.05 65.45 6.75 67.95 3.5 70.45 0.25 71.25 -6.15 M62.9 -23.15 Q68.5 -23.05 71.15 -17.75 73.55 -12.95 72.7 -5.95 71.8 0.95 69.05 4.45 66.15 8.25 61.9 8.55 57.7 8.9 53.8 5.35 49.85 1.9 50.25 -5.95 50.6 -13.5 53.9 -18.2 57.35 -23.35 62.9 -23.15" fill="#ff8fab" fill-opacity="0.32941177" fill-rule="evenodd" stroke="none"/>
    <path d="M47.6 -22.6 Q47.8 -17.85 43.3 -15.0 38.75 -12.15 33.1 -12.3 27.45 -12.4 21.95 -15.15 16.45 -17.85 16.25 -22.85 16.05 -27.9 20.7 -31.25 25.25 -34.55 32.2 -34.35 39.1 -34.15 43.2 -30.7 47.3 -27.3 47.6 -22.6 M10.1 -4.2 Q9.95 3.25 6.75 6.4 3.4 9.55 -1.8 9.85 -7.1 10.1 -12.35 6.7 -17.6 3.25 -19.35 -4.05 -21.1 -11.35 -17.2 -16.15 -13.4 -20.95 -6.3 -20.95 0.7 -21.0 5.5 -16.3 10.25 -11.65 10.1 -4.2 M71.25 -6.15 Q70.45 0.25 67.95 3.5 65.45 6.75 61.8 7.05 58.1 7.3 54.7 4.2 51.3 1.1 51.7 -5.9 52.05 -12.9 55.05 -17.35 58.05 -21.8 62.85 -21.65 67.65 -21.55 69.9 -17.05 72.1 -12.6 71.25 -6.15" fill="#ff8fab" fill-rule="evenodd" stroke="none"/>
  </g>
</svg>
