<?xml version="1.0" encoding="UTF-8" standalone="no"?>
<svg xmlns:ffdec="https://www.free-decompiler.com/flash" xmlns:xlink="http://www.w3.org/1999/xlink" ffdec:objectType="shape" height="27.55px" width="98.8px" xmlns="http://www.w3.org/2000/svg">
  <g transform="matrix(1.0, 0.0, 0.0, 1.0, 22.35, 22.15)">
    <path d="M76.45 -7.4 Q76.45 -2.45 70.7 1.0 65.05 4.5 56.95 4.5 48.8 4.5 43.15 1.0 37.45 -2.45 37.45 -7.4 37.45 -12.3 43.15 -15.85 48.8 -19.25 56.95 -19.25 65.05 -19.25 70.7 -15.85 76.45 -12.3 76.45 -7.4" fill="url(#gradient0)" fill-rule="evenodd" stroke="none"/>
    <path d="M36.3 -8.35 Q36.3 -2.65 27.7 1.4 19.1 5.4 7.0 5.4 -5.15 5.4 -13.8 1.4 -22.35 -2.65 -22.35 -8.35 -22.35 -14.1 -13.8 -18.15 -5.15 -22.15 7.0 -22.15 19.1 -22.15 27.7 -18.15 36.3 -14.1 36.3 -8.35" fill="url(#gradient1)" fill-rule="evenodd" stroke="none"/>
    <path d="M73.9 -8.85 Q73.9 -4.0 61.15 -0.55 48.45 2.95 30.55 2.95 12.6 2.95 -0.2 -0.55 -12.8 -4.0 -12.8 -8.85 -12.8 -13.7 -0.2 -17.25 12.6 -20.65 30.55 -20.65 48.45 -20.65 61.15 -17.25 73.9 -13.7 73.9 -8.85" fill="url(#gradient2)" fill-rule="evenodd" stroke="none"/>
  </g>
  <defs>
    <radialGradient cx="0" cy="0" gradientTransform="matrix(0.0241, 0.0, 0.0, 0.0147, 56.9, -7.35)" gradientUnits="userSpaceOnUse" id="gradient0" r="819.2" spreadMethod="pad">
      <stop offset="0.27450980392156865" stop-color="#ff8e8e" stop-opacity="0.827451"/>
      <stop offset="0.9725490196078431" stop-color="#ffb4b4" stop-opacity="0.0"/>
    </radialGradient>
    <radialGradient cx="0" cy="0" gradientTransform="matrix(0.0363, 0.0, 0.0, 0.017, 6.95, -8.4)" gradientUnits="userSpaceOnUse" id="gradient1" r="819.2" spreadMethod="pad">
      <stop offset="0.27450980392156865" stop-color="#ff8e8e" stop-opacity="0.827451"/>
      <stop offset="0.9725490196078431" stop-color="#ffb4b4" stop-opacity="0.0"/>
    </radialGradient>
    <radialGradient cx="0" cy="0" gradientTransform="matrix(0.0536, 0.0, 0.0, 0.0145, 30.5, -8.8)" gradientUnits="userSpaceOnUse" id="gradient2" r="819.2" spreadMethod="pad">
      <stop offset="0.2784313725490196" stop-color="#ff8e8e" stop-opacity="0.41960785"/>
      <stop offset="0.9725490196078431" stop-color="#ffb4b4" stop-opacity="0.0"/>
    </radialGradient>
  </defs>
</svg>
