<?xml version="1.0" encoding="UTF-8" standalone="no"?>
<svg xmlns:ffdec="https://www.free-decompiler.com/flash" xmlns:xlink="http://www.w3.org/1999/xlink" ffdec:objectType="shape" height="15.8px" width="89.1px" xmlns="http://www.w3.org/2000/svg">
  <g transform="matrix(1.0, 0.0, 0.0, 1.0, 15.8, 15.65)">
    <path d="M24.45 -7.75 Q24.45 -4.5 18.55 -2.2 12.7 0.15 4.35 0.15 -4.0 0.15 -9.9 -2.2 -15.8 -4.5 -15.8 -7.75 -15.8 -11.0 -9.9 -13.35 -4.0 -15.65 4.35 -15.65 12.7 -15.65 18.55 -13.35 24.45 -11.0 24.45 -7.75" fill="url(#gradient0)" fill-rule="evenodd" stroke="none"/>
    <path d="M73.3 -7.75 Q73.3 -4.5 69.4 -2.2 65.55 0.15 60.0 0.15 54.5 0.15 50.6 -2.2 46.75 -4.5 46.75 -7.75 46.75 -11.0 50.6 -13.35 54.5 -15.65 60.0 -15.65 65.55 -15.65 69.4 -13.35 73.3 -11.0 73.3 -7.75" fill="url(#gradient1)" fill-rule="evenodd" stroke="none"/>
  </g>
  <defs>
    <radialGradient cx="0" cy="0" gradientTransform="matrix(0.0249, 0.0, 0.0, 0.0097, 4.3, -7.7)" gradientUnits="userSpaceOnUse" id="gradient0" r="819.2" spreadMethod="pad">
      <stop offset="0.13725490196078433" stop-color="#ff8e8e" stop-opacity="0.7882353"/>
      <stop offset="0.9725490196078431" stop-color="#ffb4b4" stop-opacity="0.0"/>
    </radialGradient>
    <radialGradient cx="0" cy="0" gradientTransform="matrix(0.0164, 0.0, 0.0, 0.0097, 60.0, -7.7)" gradientUnits="userSpaceOnUse" id="gradient1" r="819.2" spreadMethod="pad">
      <stop offset="0.13725490196078433" stop-color="#ff8e8e" stop-opacity="0.7882353"/>
      <stop offset="0.9725490196078431" stop-color="#ffb4b4" stop-opacity="0.0"/>
    </radialGradient>
  </defs>
</svg>
