<?xml version="1.0" encoding="UTF-8" standalone="no"?>
<svg xmlns:ffdec="https://www.free-decompiler.com/flash" xmlns:xlink="http://www.w3.org/1999/xlink" ffdec:objectType="shape" height="22.55px" width="95.35px" xmlns="http://www.w3.org/2000/svg">
  <g transform="matrix(1.0, 0.0, 0.0, 1.0, 21.6, 23.3)">
    <path d="M-20.45 -7.05 Q-19.95 -3.4 -18.4 -1.8 L-16.05 -2.15 -15.85 -2.15 2.0 -2.9 2.0 -2.95 2.0 -6.35 2.0 -6.45 Q2.0 -10.7 0.65 -12.55 L-19.55 -11.95 Q-20.95 -10.05 -20.45 -7.05 M-20.2 -12.8 Q-14.9 -14.7 1.1 -13.55 2.95 -11.55 2.95 -6.45 3.3 -1.4 2.3 -1.9 L-15.7 -1.2 Q-17.6 -0.5 -18.9 -0.9 -20.8 -2.65 -21.45 -6.9 -22.05 -10.55 -20.2 -12.8 M22.5 -9.15 Q34.35 -12.45 45.95 -9.65 46.85 -9.6 47.3 -10.55 47.9 -12.1 47.7 -15.25 L47.7 -15.3 Q47.25 -19.8 44.85 -20.7 L44.9 -20.65 Q33.7 -23.85 22.85 -20.75 L22.9 -20.8 Q20.8 -19.85 21.0 -15.45 L21.0 -15.4 Q21.1 -9.7 22.5 -9.15 M22.55 -21.75 Q33.7 -24.9 45.15 -21.65 48.15 -20.65 48.65 -15.35 49.1 -8.3 45.85 -8.65 34.3 -11.45 22.5 -8.1 20.1 -8.35 20.0 -15.4 19.75 -20.65 22.55 -21.75 M72.85 -14.0 Q74.0 -11.75 73.7 -8.1 73.35 -3.85 72.25 -2.1 71.4 -1.7 70.3 -2.4 66.45 -3.6 60.4 -3.2 58.95 -2.6 59.1 -7.65 59.0 -12.75 60.15 -14.3 69.65 -15.9 72.85 -14.0 M60.05 -7.65 L60.05 -7.6 Q60.0 -5.3 60.3 -4.3 L60.3 -4.2 60.35 -4.2 Q66.6 -4.6 70.6 -3.35 L70.85 -3.25 Q71.25 -2.95 71.6 -2.95 72.45 -4.65 72.75 -8.15 73.0 -11.25 72.1 -13.25 69.1 -14.75 60.8 -13.4 59.95 -11.85 60.05 -7.65" fill="#ff8fab" fill-opacity="0.32941177" fill-rule="evenodd" stroke="none"/>
    <path d="M-20.45 -7.05 Q-20.95 -10.05 -19.55 -11.95 L0.65 -12.55 Q2.0 -10.7 2.0 -6.45 L2.0 -6.35 2.0 -2.95 2.0 -2.9 -15.85 -2.15 -16.05 -2.15 -18.4 -1.8 Q-19.95 -3.4 -20.45 -7.05 M22.5 -9.15 Q21.1 -9.7 21.0 -15.4 L21.0 -15.45 Q20.8 -19.85 22.9 -20.8 L22.85 -20.75 Q33.7 -23.85 44.9 -20.65 L44.85 -20.7 Q47.25 -19.8 47.7 -15.3 L47.7 -15.25 Q47.9 -12.1 47.3 -10.55 46.85 -9.6 45.95 -9.65 34.35 -12.45 22.5 -9.15 M60.05 -7.65 Q59.95 -11.85 60.8 -13.4 69.1 -14.75 72.1 -13.25 73.0 -11.25 72.75 -8.15 72.45 -4.65 71.6 -2.95 71.25 -2.95 70.85 -3.25 L70.6 -3.35 Q66.6 -4.6 60.35 -4.2 L60.3 -4.2 60.3 -4.3 Q60.0 -5.3 60.05 -7.6 L60.05 -7.65" fill="#ff8fab" fill-rule="evenodd" stroke="none"/>
  </g>
</svg>
