<?xml version="1.0" encoding="UTF-8" standalone="no"?>
<svg xmlns:ffdec="https://www.free-decompiler.com/flash" xmlns:xlink="http://www.w3.org/1999/xlink" ffdec:objectType="shape" height="4.6px" width="73.9px" xmlns="http://www.w3.org/2000/svg">
  <g transform="matrix(1.0, 0.0, 0.0, 1.0, 5.35, 13.75)">
    <path d="M1.3 -11.65 Q1.3 -10.75 0.3 -10.15 -0.65 -9.55 -2.05 -9.55 -3.45 -9.55 -4.4 -10.15 -5.35 -10.75 -5.35 -11.65 -5.35 -12.5 -4.4 -13.15 -3.45 -13.75 -2.05 -13.75 -0.65 -13.75 0.3 -13.15 1.3 -12.5 1.3 -11.65 M68.55 -11.1 Q68.55 -10.2 67.75 -9.65 67.0 -9.1 65.85 -9.15 64.7 -9.2 63.95 -9.85 63.2 -10.5 63.2 -11.4 63.2 -12.25 63.95 -12.85 64.7 -13.4 65.85 -13.35 67.0 -13.3 67.75 -12.65 68.55 -11.95 68.55 -11.1" fill="#ffffff" fill-opacity="0.80784315" fill-rule="evenodd" stroke="none"/>
  </g>
</svg>
