<?xml version="1.0" encoding="UTF-8" standalone="no"?>
<svg xmlns:ffdec="https://www.free-decompiler.com/flash" xmlns:xlink="http://www.w3.org/1999/xlink" ffdec:objectType="shape" height="9.25px" width="84.2px" xmlns="http://www.w3.org/2000/svg">
  <g transform="matrix(1.0, 0.0, 0.0, 1.0, 11.9, 13.4)">
    <path d="M8.15 -8.8 Q8.15 -6.9 5.15 -5.55 2.25 -4.15 -1.9 -4.15 -6.0 -4.15 -9.0 -5.55 -11.9 -6.9 -11.9 -8.8 -11.9 -10.7 -9.0 -12.05 -6.0 -13.4 -1.9 -13.4 2.25 -13.4 5.15 -12.05 8.15 -10.7 8.15 -8.8 M72.3 -8.65 Q72.3 -6.8 70.15 -5.5 68.05 -4.2 65.15 -4.2 62.25 -4.2 60.1 -5.5 58.1 -6.8 58.1 -8.65 58.1 -10.45 60.1 -11.8 62.25 -13.05 65.15 -13.05 68.05 -13.05 70.15 -11.8 72.3 -10.45 72.3 -8.65" fill="#ff7777" fill-opacity="0.7882353" fill-rule="evenodd" stroke="none"/>
  </g>
</svg>
