<?xml version="1.0" encoding="UTF-8" standalone="no"?>
<svg xmlns:ffdec="https://www.free-decompiler.com/flash" xmlns:xlink="http://www.w3.org/1999/xlink" ffdec:objectType="shape" height="21.25px" width="89.25px" xmlns="http://www.w3.org/2000/svg">
  <g transform="matrix(1.0, 0.0, 0.0, 1.0, 15.75, 20.55)">
    <path d="M4.4 -12.4 Q8.15 -10.15 8.0 -6.9 8.15 -3.65 4.3 -1.3 1.1 0.7 -4.0 0.7 -9.15 0.7 -12.15 -1.15 -15.85 -3.35 -15.75 -6.55 -15.9 -9.8 -12.3 -12.15 -9.3 -14.2 -4.0 -14.25 1.3 -14.3 4.4 -12.4 M6.7 -6.9 Q6.7 -9.35 3.8 -11.05 0.9 -12.8 -3.95 -12.75 -8.85 -12.7 -11.65 -10.85 -14.45 -9.05 -14.4 -6.6 -14.4 -4.15 -11.55 -2.45 -8.75 -0.8 -4.0 -0.8 0.7 -0.8 3.7 -2.6 6.7 -4.45 6.7 -6.9 M37.65 -20.55 Q43.25 -20.55 46.9 -17.9 51.05 -15.0 50.85 -10.8 50.85 -6.7 46.9 -3.75 43.25 -1.05 37.65 -1.05 32.1 -1.05 28.2 -3.7 23.8 -6.6 23.9 -10.8 23.8 -15.0 28.2 -17.95 32.1 -20.55 37.65 -20.55 M49.55 -10.85 Q49.6 -14.25 46.2 -16.65 42.8 -19.05 37.65 -19.05 32.5 -19.05 28.85 -16.65 25.2 -14.2 25.2 -10.8 25.2 -7.4 28.85 -5.0 32.5 -2.55 37.65 -2.55 42.8 -2.55 46.15 -5.0 49.5 -7.45 49.55 -10.85 M71.3 -13.05 Q73.65 -11.3 73.5 -8.7 73.5 -6.25 71.35 -4.4 69.45 -2.75 66.15 -2.75 62.9 -2.75 61.1 -4.2 59.0 -5.85 58.85 -8.35 58.6 -11.0 60.95 -12.9 62.9 -14.55 66.15 -14.55 69.35 -14.55 71.3 -13.05 M72.2 -8.75 Q72.25 -10.55 70.6 -11.8 68.95 -13.05 66.15 -13.05 63.4 -13.05 61.7 -11.7 60.05 -10.35 60.15 -8.5 60.3 -6.65 61.85 -5.45 63.4 -4.25 66.15 -4.25 68.95 -4.25 70.55 -5.6 72.15 -6.95 72.2 -8.75" fill="#ff8fab" fill-opacity="0.32941177" fill-rule="evenodd" stroke="none"/>
    <path d="M6.7 -6.9 Q6.7 -4.45 3.7 -2.6 0.7 -0.8 -4.0 -0.8 -8.75 -0.8 -11.55 -2.45 -14.4 -4.15 -14.4 -6.6 -14.45 -9.05 -11.65 -10.85 -8.85 -12.7 -3.95 -12.75 0.9 -12.8 3.8 -11.05 6.7 -9.35 6.7 -6.9 M49.55 -10.85 Q49.5 -7.45 46.15 -5.0 42.8 -2.55 37.65 -2.55 32.5 -2.55 28.85 -5.0 25.2 -7.4 25.2 -10.8 25.2 -14.2 28.85 -16.65 32.5 -19.05 37.65 -19.05 42.8 -19.05 46.2 -16.65 49.6 -14.25 49.55 -10.85 M72.2 -8.75 Q72.15 -6.95 70.55 -5.6 68.95 -4.25 66.15 -4.25 63.4 -4.25 61.85 -5.45 60.3 -6.65 60.15 -8.5 60.05 -10.35 61.7 -11.7 63.4 -13.05 66.15 -13.05 68.95 -13.05 70.6 -11.8 72.25 -10.55 72.2 -8.75" fill="#ff8fab" fill-rule="evenodd" stroke="none"/>
  </g>
</svg>
