<?xml version="1.0" encoding="UTF-8" standalone="no"?>
<svg xmlns:ffdec="https://www.free-decompiler.com/flash" xmlns:xlink="http://www.w3.org/1999/xlink" ffdec:objectType="shape" height="24.5px" width="87.4px" xmlns="http://www.w3.org/2000/svg">
  <g transform="matrix(1.0, 0.0, 0.0, 1.0, 14.95, 18.1)">
    <path d="M2.85 -14.15 Q-1.15 -16.15 -5.85 -15.35 -10.65 -14.1 -12.9 -9.0 -15.15 -2.7 -11.0 2.2 -6.95 5.95 0.45 4.9 5.3 3.55 6.55 -0.45 8.0 -6.9 2.25 -10.05 -3.4 -12.25 -6.7 -8.85 -9.5 -5.55 -7.15 -1.6 -4.85 2.25 -0.15 0.4 2.55 -1.15 1.1 -3.55 -0.5 -5.75 -3.05 -4.6 M55.65 -15.35 Q59.4 -17.45 63.8 -16.6 68.3 -15.3 70.45 -9.9 72.55 -3.25 68.65 1.95 64.85 5.9 57.9 4.8 53.35 3.35 52.2 -0.85 50.8 -7.7 56.2 -11.0 61.5 -13.35 64.6 -9.75 67.25 -6.25 65.05 -2.05 62.9 2.0 58.45 0.05 55.95 -1.6 57.3 -4.15 58.8 -6.45 61.2 -5.25" fill="none" stroke="#ff8fab" stroke-linecap="round" stroke-linejoin="round" stroke-width="2.5"/>
  </g>
</svg>
