<?xml version="1.0" encoding="UTF-8" standalone="no"?>
<svg xmlns:ffdec="https://www.free-decompiler.com/flash" xmlns:xlink="http://www.w3.org/1999/xlink" ffdec:objectType="shape" height="93.6px" width="56.8px" xmlns="http://www.w3.org/2000/svg">
  <g transform="matrix(1.0, 0.0, 0.0, 1.0, 37.85, 77.35)">
    <path d="M-1.1 -55.1 Q3.95 -57.85 7.25 -56.15 M18.05 -73.1 Q-0.95 -82.9 -18.7 -64.1 -29.95 -49.3 -30.6 -35.5 -34.4 -7.65 -33.8 -5.45 -34.6 2.05 -36.7 8.9 -38.35 16.1 -29.55 15.25 -19.1 14.1 -12.15 -4.1 -9.0 -13.9 -8.65 -26.55 -7.4 -40.2 -1.1 -55.1" fill="none" stroke="#000000" stroke-linecap="round" stroke-linejoin="round" stroke-width="1.8"/>
    <path d="M10.45 -60.35 L8.7 -57.95 Q3.5 -61.5 0.4 -58.55 L-0.95 -55.3 -1.1 -55.1 M0.4 -58.55 Q7.95 -74.6 18.05 -70.55" fill="none" stroke="#000000" stroke-linecap="round" stroke-linejoin="round" stroke-opacity="0.49803922" stroke-width="1.0"/>
  </g>
</svg>
