<?xml version="1.0" encoding="UTF-8" standalone="no"?>
<svg xmlns:ffdec="https://www.free-decompiler.com/flash" xmlns:xlink="http://www.w3.org/1999/xlink" ffdec:objectType="shape" height="40.4px" width="57.0px" xmlns="http://www.w3.org/2000/svg">
  <g transform="matrix(1.0, 0.0, 0.0, 1.0, 45.55, 90.65)">
    <path d="M-7.25 -51.5 L-3.25 -51.3 Q-3.05 -54.65 -2.25 -54.85 -0.65 -54.2 0.95 -52.1 2.75 -52.2 4.45 -54.0 M8.75 -71.8 L6.35 -76.15 Q2.9 -74.5 1.4 -75.1 1.3 -77.15 4.15 -80.05 2.3 -82.55 -0.7 -84.7 L-4.6 -87.05 Q-8.4 -83.6 -10.9 -82.85 -11.8 -83.8 -11.55 -88.65 L-16.75 -89.15 -20.6 -89.25 Q-22.35 -85.2 -23.8 -84.6 -25.15 -86.3 -26.0 -89.3 -36.55 -90.05 -44.55 -89.25 -37.6 -83.55 -33.4 -78.25 L-29.3 -78.0 Q-28.95 -75.8 -30.25 -73.2 L-27.95 -69.7 -25.8 -65.35 Q-22.65 -66.9 -21.05 -66.85 -20.3 -65.1 -22.15 -61.0 L-19.3 -57.6 Q-17.85 -56.1 -15.8 -54.8 -13.05 -57.05 -11.55 -57.2 -11.2 -56.1 -11.55 -52.55 -9.35 -51.8 -7.25 -51.5 M8.75 -71.8 Q9.9 -69.45 10.45 -67.05" fill="none" stroke="#000000" stroke-linecap="round" stroke-linejoin="round" stroke-width="2.0"/>
    <path d="M-4.5 -63.15 Q1.95 -59.6 5.8 -61.35 5.0 -64.75 2.2 -68.2 L1.45 -69.1 Q-2.1 -71.05 -6.75 -73.15 L-15.85 -77.1 -21.05 -79.2 Q-27.85 -81.75 -32.05 -84.2 -24.65 -78.95 -18.7 -73.9 L-16.35 -71.95 Q-13.0 -68.9 -10.0 -66.7 -7.05 -64.5 -4.5 -63.15 -4.5 -56.75 -7.25 -51.5 M2.2 -68.2 Q7.55 -69.8 8.75 -71.8 M-0.7 -84.7 Q-5.6 -80.4 -6.75 -73.15 M-15.85 -77.1 Q-18.05 -83.25 -16.75 -89.15 M-27.95 -69.7 Q-21.6 -70.9 -18.7 -73.9 M-10.0 -66.7 Q-15.85 -62.85 -19.3 -57.6" fill="none" stroke="#000000" stroke-linecap="round" stroke-linejoin="round" stroke-opacity="0.49803922" stroke-width="1.5"/>
  </g>
</svg>
