<?xml version="1.0" encoding="UTF-8" standalone="no"?>
<svg xmlns:ffdec="https://www.free-decompiler.com/flash" xmlns:xlink="http://www.w3.org/1999/xlink" ffdec:objectType="shape" height="59.8px" width="51.45px" xmlns="http://www.w3.org/2000/svg">
  <g transform="matrix(1.0, 0.0, 0.0, 1.0, 41.55, 62.35)">
    <path d="M-24.5 -27.15 Q-16.35 -29.0 -14.1 -3.55 -11.85 -26.9 -6.45 -31.45 -3.9 -29.55 -3.0 -23.35 -1.55 -35.85 3.15 -39.5 5.4 -40.8 8.9 -36.35 L7.6 -40.35 Q6.45 -44.55 6.95 -46.6 9.3 -50.65 4.8 -57.05 3.6 -56.35 2.4 -53.45 1.85 -59.4 -2.8 -61.0 -3.75 -60.5 -3.7 -57.5 -7.6 -61.0 -12.1 -61.35 -24.9 -30.8 -40.55 -23.5 -30.8 -23.45 -24.5 -27.15" fill="none" stroke="#000000" stroke-linecap="round" stroke-linejoin="round" stroke-width="2.0"/>
    <path d="M-24.5 -27.15 Q-18.2 -30.8 -15.2 -38.4 -13.5 -33.6 -9.05 -37.05 -4.6 -40.55 -3.9 -53.0 2.2 -51.15 5.95 -43.3" fill="none" stroke="#000000" stroke-linecap="round" stroke-linejoin="round" stroke-opacity="0.49803922" stroke-width="1.5"/>
  </g>
</svg>
