<?xml version="1.0" encoding="UTF-8" standalone="no"?>
<svg xmlns:ffdec="https://www.free-decompiler.com/flash" xmlns:xlink="http://www.w3.org/1999/xlink" ffdec:objectType="shape" height="59.3px" width="32.55px" xmlns="http://www.w3.org/2000/svg">
  <g transform="matrix(1.0, 0.0, 0.0, 1.0, 19.45, 95.8)">
    <path d="M10.6 -71.25 Q-2.05 -86.35 -14.1 -94.75 L-14.65 -94.8 Q-21.15 -77.55 -16.5 -59.15 -11.8 -43.75 -1.5 -37.5" fill="none" stroke="#000000" stroke-linecap="round" stroke-linejoin="round" stroke-width="2.0"/>
    <path d="M-9.05 -56.55 Q-9.3 -53.15 -3.85 -52.55 -4.4 -47.35 1.1 -49.45 0.15 -45.55 3.15 -43.15 5.05 -41.75 7.45 -45.85 8.25 -43.05 10.2 -43.15 L11.2 -44.85 Q12.8 -48.3 12.2 -55.7 4.5 -62.85 -4.85 -76.8 -9.95 -73.2 -6.1 -66.75 -11.7 -65.25 -7.3 -60.6 -8.85 -58.25 -9.05 -56.55 -15.15 -69.05 -10.35 -82.4 L-11.3 -82.3 M-4.85 -76.8 Q-8.4 -82.2 -10.35 -82.4" fill="none" stroke="#000000" stroke-linecap="round" stroke-linejoin="round" stroke-opacity="0.49803922" stroke-width="1.5"/>
  </g>
</svg>
