<?xml version="1.0" encoding="UTF-8" standalone="no"?>
<svg xmlns:ffdec="https://www.free-decompiler.com/flash" xmlns:xlink="http://www.w3.org/1999/xlink" ffdec:objectType="shape" height="88.95px" width="59.35px" xmlns="http://www.w3.org/2000/svg">
  <g transform="matrix(1.0, 0.0, 0.0, 1.0, 25.15, 135.85)">
    <path d="M5.65 -63.9 Q10.6 -61.25 16.45 -59.05 M23.8 -64.35 Q24.05 -69.05 23.75 -73.4 M20.7 -62.45 Q6.3 -71.2 5.0 -88.15 3.75 -104.8 -14.3 -125.1 -18.0 -129.6 -24.15 -134.85" fill="none" stroke="#000000" stroke-linecap="round" stroke-linejoin="round" stroke-opacity="0.49803922" stroke-width="2.0"/>
    <path d="M13.95 -53.35 Q7.95 -45.95 2.55 -48.6 4.85 -50.65 5.35 -53.2 5.75 -55.9 9.6 -56.7 3.25 -58.55 -0.9 -62.25 2.5 -62.0 5.65 -63.9 -14.25 -74.85 -18.8 -93.9 -24.4 -117.65 -24.15 -134.85 2.8 -122.65 18.0 -94.35 22.9 -85.15 23.75 -73.4 24.6 -76.85 29.95 -80.25 28.4 -74.55 28.3 -68.9 31.35 -71.2 33.05 -73.5 34.15 -68.35 27.05 -63.2" fill="none" stroke="#000000" stroke-linecap="round" stroke-linejoin="round" stroke-width="2.0"/>
  </g>
</svg>
