<?xml version="1.0" encoding="UTF-8" standalone="no"?>
<svg xmlns:ffdec="https://www.free-decompiler.com/flash" xmlns:xlink="http://www.w3.org/1999/xlink" ffdec:objectType="shape" height="30.15px" width="32.45px" xmlns="http://www.w3.org/2000/svg">
  <g transform="matrix(1.0, 0.0, 0.0, 1.0, 22.8, 19.4)">
    <path d="M1.6 -8.45 L1.35 -8.85 1.3 -8.9 Q0.15 -10.6 -0.8 -11.5 L-1.15 -11.85 Q-3.4 -13.8 -7.1 -15.6 -12.95 -18.4 -21.15 -18.4 L-21.8 -18.4 Q-20.15 -11.05 -17.75 -5.6 -14.45 1.65 -9.55 5.45 -5.65 8.55 -0.65 9.45 L3.95 9.75 6.25 9.6 8.65 9.25" fill="none" stroke="#000000" stroke-linecap="round" stroke-linejoin="round" stroke-width="2.0"/>
    <path d="M-21.15 -18.4 L-12.05 -11.85 -1.35 -3.2 -0.7 -2.75 3.7 1.1 4.85 2.05 M-0.7 -2.75 Q-4.75 3.7 0.95 6.85" fill="none" stroke="#000000" stroke-linecap="round" stroke-linejoin="round" stroke-opacity="0.49803922" stroke-width="1.5"/>
  </g>
</svg>
