<?xml version="1.0" encoding="UTF-8" standalone="no"?>
<svg xmlns:ffdec="https://www.free-decompiler.com/flash" xmlns:xlink="http://www.w3.org/1999/xlink" ffdec:objectType="shape" height="53.8px" width="65.15px" xmlns="http://www.w3.org/2000/svg">
  <g transform="matrix(1.0, 0.0, 0.0, 1.0, 59.45, 48.4)">
    <path d="M0.35 -14.5 L-12.6 -27.25 Q-38.45 -40.5 -58.45 -47.4 -57.3 -40.25 -49.65 -35.6 -43.5 -32.25 -34.9 -29.0 -51.35 -31.75 -56.3 -30.25 -45.65 -15.95 -31.95 -17.15 -40.45 -14.25 -43.6 -10.85 -33.55 -3.85 -20.4 -10.0 -28.05 -3.6 -26.55 -0.3 -20.0 2.85 -10.75 -3.15 -7.75 6.3 -2.0 2.6 3.75 6.65 4.7 1.65" fill="none" stroke="#000000" stroke-linecap="round" stroke-linejoin="round" stroke-width="2.0"/>
    <path d="M-34.9 -29.0 Q-29.15 -26.7 -22.25 -24.5 L-0.15 -3.05" fill="none" stroke="#000000" stroke-linecap="round" stroke-linejoin="round" stroke-opacity="0.49803922" stroke-width="1.5"/>
  </g>
</svg>
