<?xml version="1.0" encoding="UTF-8" standalone="no"?>
<svg xmlns:ffdec="https://www.free-decompiler.com/flash" xmlns:xlink="http://www.w3.org/1999/xlink" ffdec:objectType="shape" height="46.05px" width="34.75px" xmlns="http://www.w3.org/2000/svg">
  <g transform="matrix(1.0, 0.0, 0.0, 1.0, -4.3, 92.05)">
    <path d="M33.65 -81.45 Q34.15 -84.55 32.35 -87.65 30.3 -80.95 27.35 -74.15 31.85 -76.05 33.95 -77.85 33.35 -74.7 31.15 -71.35 32.4 -72.2 33.95 -71.85 L35.2 -71.6 M17.95 -56.85 L18.95 -58.3 Q23.8 -66.25 27.35 -74.15 M30.7 -66.25 L32.4 -66.9 M20.9 -53.3 Q20.4 -55.65 18.95 -58.3 M31.6 -61.45 L33.15 -61.0 M29.85 -70.05 L31.15 -71.35" fill="none" stroke="#000000" stroke-linecap="round" stroke-linejoin="round" stroke-opacity="0.49803922" stroke-width="2.0"/>
    <path d="M35.2 -71.6 Q37.4 -83.85 33.95 -91.05 14.6 -86.85 5.3 -67.9 M32.4 -66.9 Q35.8 -68.5 38.05 -71.7 L35.2 -71.6 M32.4 -66.9 Q35.25 -65.8 35.7 -63.85 36.2 -61.95 37.3 -60.65 L33.15 -61.0 Q34.8 -55.75 33.4 -50.9 32.8 -54.35 30.05 -57.3 31.4 -54.35 31.25 -52.35 31.1 -50.4 31.25 -47.0 26.85 -47.85 23.85 -52.1 23.65 -49.9 21.4 -48.95 21.55 -50.25 20.9 -53.3" fill="none" stroke="#000000" stroke-linecap="round" stroke-linejoin="round" stroke-width="2.0"/>
  </g>
</svg>
