<?xml version="1.0" encoding="UTF-8" standalone="no"?>
<svg xmlns:ffdec="https://www.free-decompiler.com/flash" xmlns:xlink="http://www.w3.org/1999/xlink" ffdec:objectType="shape" height="46.25px" width="39.85px" xmlns="http://www.w3.org/2000/svg">
  <g transform="matrix(1.0, 0.0, 0.0, 1.0, 24.8, 81.35)">
    <path d="M-21.8 -70.85 Q-18.8 -76.8 -13.75 -80.15 -8.7 -82.95 -2.5 -79.15 L6.1 -73.2 Q9.75 -70.55 15.05 -71.15 L11.4 -67.15 Q8.0 -60.85 5.75 -54.4 L5.4 -53.4 Q6.1 -52.4 6.3 -51.1 6.3 -49.55 4.75 -49.45 3.95 -46.0 4.05 -43.35 4.1 -40.5 4.65 -37.6 4.0 -35.85 2.05 -35.15 1.25 -35.75 1.7 -36.85 L0.15 -35.25 Q-3.15 -34.4 -1.3 -37.7 -3.95 -35.8 -7.6 -36.65 -13.75 -37.5 -18.95 -42.75 -23.5 -48.35 -24.75 -56.1 -25.2 -62.55 -22.5 -69.35 L-21.8 -70.85" fill="#65ddff" fill-rule="evenodd" stroke="none"/>
  </g>
</svg>
