<?xml version="1.0" encoding="UTF-8" standalone="no"?>
<svg xmlns:ffdec="https://www.free-decompiler.com/flash" xmlns:xlink="http://www.w3.org/1999/xlink" ffdec:objectType="shape" height="73.35px" width="26.6px" xmlns="http://www.w3.org/2000/svg">
  <g transform="matrix(1.0, 0.0, 0.0, 1.0, 21.7, 101.7)">
    <path d="M1.45 -50.95 Q7.4 -43.45 3.05 -29.0 L-5.15 -28.45 Q-10.45 -29.0 -14.4 -31.85 -16.55 -33.8 -18.1 -35.85 -21.0 -39.95 -21.6 -44.8 -21.9 -48.35 -21.2 -52.65 -20.5 -57.2 -18.75 -62.45 -17.5 -66.25 -15.7 -70.4 L-15.65 -70.4 Q-13.95 -74.45 -13.05 -78.4 -12.15 -82.1 -12.0 -85.75 -11.75 -93.9 -15.3 -101.7 -0.05 -91.7 -2.9 -66.45 -4.85 -53.45 1.45 -50.95" fill="#ffe7d4" fill-rule="evenodd" stroke="none"/>
  </g>
</svg>
