<?xml version="1.0" encoding="UTF-8" standalone="no"?>
<svg xmlns:ffdec="https://www.free-decompiler.com/flash" xmlns:xlink="http://www.w3.org/1999/xlink" ffdec:objectType="shape" height="59.25px" width="33.85px" xmlns="http://www.w3.org/2000/svg">
  <g transform="matrix(1.0, 0.0, 0.0, 1.0, -2.7, 106.4)">
    <path d="M30.55 -94.8 Q31.15 -97.35 33.45 -100.1 38.25 -87.2 35.65 -71.95 L34.85 -73.25 Q33.3 -75.8 31.45 -75.45 31.85 -78.55 30.2 -80.85 L28.25 -74.15 Q26.5 -68.9 24.0 -63.45 20.95 -56.9 22.95 -53.8 23.95 -52.45 24.85 -49.85 23.65 -48.25 21.35 -47.15 20.85 -48.4 19.3 -50.1 L11.1 -58.8 Q5.9 -64.15 2.9 -67.85 1.3 -75.9 13.95 -86.3 26.55 -96.65 29.05 -106.4 31.4 -100.9 30.55 -94.8" fill="#91d7ff" fill-rule="evenodd" stroke="none"/>
  </g>
</svg>
