<?xml version="1.0" encoding="UTF-8" standalone="no"?>
<svg xmlns:ffdec="https://www.free-decompiler.com/flash" xmlns:xlink="http://www.w3.org/1999/xlink" ffdec:objectType="shape" height="69.85px" width="60.5px" xmlns="http://www.w3.org/2000/svg">
  <g transform="matrix(1.0, 0.0, 0.0, 1.0, 44.6, 87.8)">
    <path d="M-38.0 -74.05 Q-36.0 -76.85 -33.25 -79.6 -25.65 -87.75 -12.2 -87.8 -3.4 -87.25 3.0 -78.1 9.8 -71.0 15.9 -70.0 L13.75 -67.3 Q10.65 -66.6 3.4 -49.35 -0.55 -38.3 1.3 -29.25 1.95 -25.95 3.4 -22.9 L0.85 -18.4 Q-1.55 -17.45 -2.75 -20.95 -3.75 -16.05 -12.7 -19.1 -15.15 -21.9 -8.55 -23.2 -17.35 -22.5 -25.55 -27.55 L-25.55 -27.6 -25.6 -27.6 Q-27.6 -28.9 -29.65 -30.55 -37.0 -36.45 -40.6 -44.1 -44.15 -49.6 -44.6 -57.35 -44.35 -65.55 -38.0 -74.05" fill="#65ddff" fill-rule="evenodd" stroke="none"/>
  </g>
</svg>
