<?xml version="1.0" encoding="UTF-8" standalone="no"?>
<svg xmlns:ffdec="https://www.free-decompiler.com/flash" xmlns:xlink="http://www.w3.org/1999/xlink" ffdec:objectType="shape" height="55.75px" width="47.9px" xmlns="http://www.w3.org/2000/svg">
  <g transform="matrix(1.0, 0.0, 0.0, 1.0, 17.0, 104.65)">
    <path d="M7.05 -102.75 Q20.9 -98.7 26.2 -91.25 31.4 -83.85 30.85 -80.65 28.3 -72.0 20.55 -63.1 9.0 -50.4 -4.4 -48.9 -11.3 -50.15 -13.9 -62.45 L-13.95 -62.55 Q-21.2 -92.45 -11.3 -102.1 -6.85 -106.85 7.05 -102.75 M12.4 -85.2 Q5.2 -90.8 -1.7 -88.9 -7.55 -85.1 0.35 -58.75 L0.95 -57.3 Q13.3 -61.05 22.2 -76.3 20.55 -80.35 12.4 -85.2" fill="#91d7ff" fill-rule="evenodd" stroke="none"/>
  </g>
</svg>
