<?xml version="1.0" encoding="UTF-8" standalone="no"?>
<svg xmlns:ffdec="https://www.free-decompiler.com/flash" xmlns:xlink="http://www.w3.org/1999/xlink" ffdec:objectType="shape" height="86.5px" width="43.5px" xmlns="http://www.w3.org/2000/svg">
  <g transform="matrix(1.0, 0.0, 0.0, 1.0, 7.1, 115.4)">
    <path d="M7.75 -51.45 L6.65 -45.3 Q5.0 -37.4 1.95 -31.7 L0.9 -30.05 Q0.1 -29.15 -0.65 -28.9 L-1.6 -30.05 Q-7.35 -37.65 -7.1 -50.1 -7.05 -61.45 5.6 -86.75 L7.5 -90.9 Q14.65 -106.25 21.75 -115.4 26.7 -109.15 30.1 -98.1 L30.3 -97.4 Q36.3 -81.95 36.4 -71.05 34.35 -62.85 26.65 -59.05 L30.5 -63.2 29.8 -63.55 23.7 -64.2 Q27.2 -67.65 27.2 -73.05 27.2 -75.65 27.8 -77.55 25.35 -76.6 22.05 -76.85 16.75 -76.65 14.3 -73.45 16.25 -76.85 15.8 -80.55 8.9 -78.05 6.85 -69.95 9.1 -62.75 8.0 -53.5 L7.75 -51.45" fill="#91d7ff" fill-rule="evenodd" stroke="none"/>
  </g>
</svg>
