<?xml version="1.0" encoding="UTF-8" standalone="no"?>
<svg xmlns:ffdec="https://www.free-decompiler.com/flash" xmlns:xlink="http://www.w3.org/1999/xlink" ffdec:objectType="shape" height="30.65px" width="23.65px" xmlns="http://www.w3.org/2000/svg">
  <g transform="matrix(1.0, 0.0, 0.0, 1.0, -6.85, 80.55)">
    <path d="M29.8 -63.55 L30.5 -63.2 26.65 -59.05 26.4 -58.7 Q23.75 -55.75 19.0 -55.75 22.65 -53.9 23.5 -50.65 15.7 -48.8 11.3 -51.4 10.4 -51.85 9.6 -52.6 L7.75 -51.45 8.0 -53.5 Q9.1 -62.75 6.85 -69.95 8.9 -78.05 15.8 -80.55 16.25 -76.85 14.3 -73.45 16.75 -76.65 22.05 -76.85 25.35 -76.6 27.8 -77.55 27.2 -75.65 27.2 -73.05 27.2 -67.65 23.7 -64.2 L29.8 -63.55" fill="#72ff7b" fill-rule="evenodd" stroke="none"/>
  </g>
</svg>
