<?xml version="1.0" encoding="UTF-8" standalone="no"?>
<svg xmlns:ffdec="https://www.free-decompiler.com/flash" xmlns:xlink="http://www.w3.org/1999/xlink" ffdec:objectType="shape" height="32.75px" width="19.7px" xmlns="http://www.w3.org/2000/svg">
  <g transform="matrix(1.0, 0.0, 0.0, 1.0, -22.15, 80.85)">
    <path d="M35.65 -71.95 L36.2 -71.4 Q38.3 -69.35 41.85 -69.55 39.7 -66.05 33.7 -67.5 36.9 -66.3 36.05 -62.3 35.05 -57.6 35.45 -54.55 32.3 -56.55 31.05 -60.2 31.7 -52.75 28.45 -50.25 27.85 -54.05 25.9 -57.8 27.0 -52.8 25.35 -48.1 L24.85 -49.85 Q23.95 -52.45 22.95 -53.8 20.95 -56.9 24.0 -63.45 26.5 -68.9 28.25 -74.15 L30.2 -80.85 Q31.85 -78.55 31.45 -75.45 33.3 -75.8 34.85 -73.25 L35.65 -71.95" fill="#72ff7b" fill-rule="evenodd" stroke="none"/>
  </g>
</svg>
