<?xml version="1.0" encoding="UTF-8" standalone="no"?>
<svg xmlns:ffdec="https://www.free-decompiler.com/flash" xmlns:xlink="http://www.w3.org/1999/xlink" ffdec:objectType="shape" height="64.25px" width="77.15px" xmlns="http://www.w3.org/2000/svg">
  <g transform="matrix(1.0, 0.0, 0.0, 1.0, 65.25, 75.4)">
    <path d="M10.05 -52.3 Q8.7 -42.2 4.5 -31.7 -0.2 -21.1 -4.9 -17.75 L-6.5 -24.45 Q-20.7 -10.95 -38.05 -11.15 -40.15 -11.25 -39.15 -14.5 -45.1 -11.85 -51.0 -13.95 -54.75 -15.15 -47.05 -19.0 L-52.1 -20.1 Q-63.25 -23.0 -65.0 -26.3 -66.45 -28.8 -60.1 -31.8 -56.25 -33.65 -49.05 -35.8 -30.9 -41.15 -14.2 -53.7 -3.35 -75.7 0.6 -75.4 6.5 -74.9 11.85 -69.6 12.2 -62.35 10.05 -52.3" fill="#ffe7d4" fill-rule="evenodd" stroke="none"/>
  </g>
</svg>
