<?xml version="1.0" encoding="UTF-8" standalone="no"?>
<svg xmlns:ffdec="https://www.free-decompiler.com/flash" xmlns:xlink="http://www.w3.org/1999/xlink" ffdec:objectType="shape" height="70.35px" width="29.95px" xmlns="http://www.w3.org/2000/svg">
  <g transform="matrix(1.0, 0.0, 0.0, 1.0, -16.55, 90.85)">
    <path d="M18.2 -58.55 Q17.55 -60.2 17.95 -62.15 L16.55 -69.9 Q28.0 -73.7 21.7 -76.0 25.45 -75.85 27.8 -77.35 30.2 -78.9 34.2 -79.95 32.7 -80.7 28.2 -80.75 29.85 -82.15 36.3 -82.95 L34.5 -84.65 Q42.65 -87.3 46.5 -90.85 44.75 -80.6 36.15 -71.05 37.45 -70.45 39.4 -70.6 37.7 -67.15 30.35 -65.65 34.65 -65.65 38.55 -62.85 L38.7 -62.3 Q39.15 -59.15 37.65 -56.75 41.4 -55.3 38.7 -50.55 44.1 -42.5 45.35 -34.05 42.25 -31.8 37.7 -31.2 38.65 -27.25 39.2 -23.15 35.15 -21.05 29.85 -20.5 28.75 -37.35 23.25 -54.2 22.15 -54.6 21.05 -55.3 18.95 -56.75 18.2 -58.55" fill="#72ff7b" fill-rule="evenodd" stroke="none"/>
  </g>
</svg>
