<?xml version="1.0" encoding="UTF-8" standalone="no"?>
<svg xmlns:ffdec="https://www.free-decompiler.com/flash" xmlns:xlink="http://www.w3.org/1999/xlink" ffdec:objectType="shape" height="39.6px" width="26.05px" xmlns="http://www.w3.org/2000/svg">
  <g transform="matrix(1.0, 0.0, 0.0, 1.0, 20.35, 17.65)">
    <path d="M-2.35 -17.4 Q0.4 -13.4 2.5 -7.2 L2.55 -7.05 4.6 -0.25 4.75 0.2 Q7.25 7.2 3.15 14.0 1.5 16.8 -1.4 18.65 -5.75 21.4 -13.05 21.95 -12.6 19.9 -12.45 16.5 -14.55 18.3 -19.25 18.35 -17.25 14.35 -15.75 7.8 -17.7 8.0 -19.9 7.1 L-20.35 6.95 Q-16.95 5.4 -14.95 0.85 L-9.5 -13.15 Q-6.35 -18.75 -2.35 -17.4" fill="#ffe7d4" fill-rule="evenodd" stroke="none"/>
  </g>
</svg>
