<svg width="157" height="269" viewBox="0 0 157 269" fill="none" xmlns="http://www.w3.org/2000/svg">
<path d="M83.3291 219.571C62.5009 219.193 50.3271 213.101 46.8079 201.293C46.5132 205.852 48.813 212.018 53.7073 219.79C41.5741 214.021 34.1034 206.471 31.2954 197.14C26.5608 181.699 26.7771 167.184 31.9444 153.594C34.9761 147.92 38.2937 139.79 41.8973 129.204C46.7411 114.508 50.7423 96.2578 53.901 74.4531C57.2844 58.8672 64.9521 50.1567 76.9039 48.3217C91.8846 48.604 101.247 58.4873 104.992 77.9713C107.423 100.44 111.926 123.847 118.5 148.193C124.448 165.882 126.289 182.316 124.022 197.494L124.245 198.538C120.904 212.787 107.265 219.798 83.3291 219.571Z" fill="#630894"/>
<path d="M139.619 192.281C137.281 203.156 132.481 210.359 125.219 213.892C125.96 209.796 125.722 204.461 124.505 197.887L124.283 196.843C126.549 181.665 124.709 165.231 118.761 147.542C112.186 123.196 107.684 99.7889 105.253 77.3202C101.508 57.8361 92.1452 47.9529 77.1644 47.6705C65.2126 49.5056 57.545 58.216 54.1615 73.802C51.0028 95.6067 47.0016 113.857 42.1579 128.552C38.5542 139.139 35.2366 147.269 32.2049 152.943C27.0376 166.533 26.8213 181.048 31.5559 196.489C34.364 205.82 41.8346 213.37 53.9678 219.139C32.8858 212.972 22.8856 202.502 23.9673 187.73C20.5155 194.208 18.9675 200.725 19.3232 207.281C14.1767 201.225 12.5113 192.801 14.327 182.011C16.0479 174.542 19.3719 169.029 24.299 165.473C19.6054 167.05 15.2404 165.598 11.2039 161.118C15.6122 161.949 19.8517 161.175 23.9224 158.797C12.1124 158.723 5.4286 150.854 3.8711 135.191C8.57233 139.183 13.6014 140.194 18.9582 138.224C24.2007 136.324 27.6767 131.256 29.3863 123.021L32.1344 112.035C25.0511 112.727 18.272 108.967 11.7974 100.756C24.035 107.125 31.357 99.555 33.7632 78.0456C34.2031 68.303 37.4217 59.2148 43.4189 50.7809C52.4838 38.8246 64.042 32.9781 78.0936 33.2415C91.9681 33.2144 103.69 38.4732 113.258 49.0179C122.004 58.4224 126.402 72.9126 126.45 92.4884C125.354 117.371 128.438 133.256 135.703 140.145C141.953 146.75 148.593 148.427 155.623 145.177C150.934 152.562 144.09 156.198 135.092 156.086C136.16 157.399 138.781 158.755 142.954 160.155C140.167 163.133 135.829 164.407 129.941 163.976C137.726 170.994 140.952 180.429 139.619 192.281Z" fill="#8C10E6"/>
<path d="M139.619 192.281C137.281 203.156 132.481 210.359 125.219 213.892C125.96 209.796 125.722 204.461 124.505 197.887L124.283 196.843C126.549 181.665 124.709 165.231 118.761 147.542C112.186 123.196 107.684 99.7889 105.253 77.3202C101.508 57.8361 92.1452 47.9529 77.1644 47.6705C65.2126 49.5056 57.545 58.216 54.1615 73.802C51.0028 95.6067 47.0016 113.857 42.1579 128.552C38.5542 139.139 35.2366 147.269 32.2049 152.943C27.0376 166.533 26.8213 181.048 31.5559 196.489C34.364 205.82 41.8346 213.37 53.9678 219.139C32.8858 212.972 22.8856 202.502 23.9673 187.73C20.5155 194.208 18.9675 200.725 19.3232 207.281C14.1767 201.225 12.5113 192.801 14.327 182.011C16.0479 174.542 19.3719 169.029 24.299 165.473C19.6054 167.05 15.2404 165.598 11.2039 161.118C15.6122 161.949 19.8517 161.175 23.9224 158.797C12.1124 158.723 5.4286 150.854 3.8711 135.191C8.57233 139.183 13.6014 140.194 18.9582 138.224C24.2007 136.324 27.6767 131.256 29.3863 123.021L32.1344 112.035C25.0511 112.727 18.272 108.967 11.7974 100.756C24.035 107.125 31.357 99.555 33.7632 78.0456C34.2031 68.303 37.4217 59.2148 43.4189 50.7809C52.4838 38.8246 64.042 32.9781 78.0936 33.2415C91.9681 33.2144 103.69 38.4732 113.258 49.0179C122.004 58.4224 126.402 72.9126 126.45 92.4884C125.354 117.371 128.438 133.256 135.703 140.145C141.953 146.75 148.593 148.427 155.623 145.177C150.934 152.562 144.09 156.198 135.092 156.086C136.16 157.399 138.781 158.755 142.954 160.155C140.167 163.133 135.829 164.407 129.941 163.976C137.726 170.994 140.952 180.429 139.619 192.281Z" fill="url(#paint0_linear_0_1)"/>
<path d="M127.321 161.843L129.941 163.976M129.941 163.976C135.829 164.407 140.167 163.133 142.954 160.155C138.781 158.755 136.16 157.399 135.092 156.086C144.09 156.198 150.934 152.562 155.623 145.177C148.593 148.427 141.953 146.75 135.703 140.145C128.438 133.256 125.354 117.371 126.45 92.4884C126.402 72.9126 122.004 58.4224 113.258 49.0179C103.69 38.4732 91.9681 33.2144 78.0936 33.2415C64.042 32.9781 52.4838 38.8246 43.4189 50.7809C37.4217 59.2148 34.2031 68.303 33.7632 78.0456C31.357 99.555 24.035 107.125 11.7974 100.756C18.2721 108.967 25.0511 112.727 32.1344 112.035L29.3863 123.021C27.6767 131.256 24.2006 136.324 18.9582 138.224C13.6014 140.194 8.57233 139.183 3.8711 135.191C5.4286 150.854 12.1124 158.723 23.9224 158.797M129.941 163.976C137.726 170.994 140.952 180.429 139.619 192.281C137.281 203.156 132.481 210.359 125.219 213.892C125.96 209.796 125.722 204.461 124.505 197.887M23.9224 158.797L24.7112 158.347M23.9224 158.797C19.8517 161.175 15.6122 161.949 11.2039 161.118C15.2404 165.598 19.6054 167.05 24.299 165.473M46.3924 198.083L46.9372 200.317L47.0684 200.642M47.0684 200.642C50.5876 212.45 62.7614 218.542 83.5896 218.92C107.526 219.147 121.164 212.136 124.505 197.887M47.0684 200.642C46.7737 205.201 49.0735 211.367 53.9678 219.139M124.505 197.887L124.283 196.843C126.549 181.665 124.709 165.231 118.761 147.542C112.186 123.196 107.684 99.7889 105.253 77.3202C101.508 57.8361 92.1452 47.9529 77.1644 47.6705C65.2126 49.5056 57.545 58.216 54.1615 73.802C51.0028 95.6067 47.0016 113.857 42.1578 128.552C38.5542 139.139 35.2366 147.269 32.2049 152.943C27.0376 166.533 26.8213 181.048 31.5559 196.489C34.364 205.82 41.8346 213.37 53.9678 219.139M53.9678 219.139C32.8858 212.972 22.8856 202.502 23.9673 187.73M27.8622 163.681C26.6713 164.493 25.4835 165.091 24.299 165.473M24.299 165.473C19.3719 169.029 16.0479 174.542 14.327 182.011C12.5113 192.801 14.1767 201.225 19.3232 207.281C18.9675 200.725 20.5155 194.208 23.9673 187.73M23.9673 187.73C24.0825 186.083 24.3344 184.391 24.723 182.654" stroke="black" stroke-width="1.39644" stroke-linecap="round" stroke-linejoin="round"/>
<path d="M94.4125 166.313C95.9705 170.443 98.1162 171.803 100.85 170.395C103.583 168.986 104.13 165.513 102.49 159.974C100.85 154.404 98.8952 148.882 96.6265 143.408C95.2052 140.206 92.6085 138.078 88.8365 137.021C87.3605 138.302 87.1829 141.231 88.3035 145.809L94.4125 166.313Z" fill="#FFEFFF"/>
<path d="M88.4737 137.021C92.2457 138.078 94.8424 140.206 96.2637 143.408C98.5324 148.882 100.487 154.404 102.127 159.974C103.767 165.513 103.22 168.986 100.487 170.395C97.7534 171.803 95.6077 170.443 94.0497 166.313L87.9407 145.809" stroke="#54453C" stroke-width="1.77485" stroke-linecap="round" stroke-linejoin="round"/>
<path d="M85.3972 137.531C85.2392 140.484 85.8002 143.248 87.0803 145.822C87.6484 148.362 88.6655 151.748 90.1319 155.98L93.9014 166.829C95.8887 171.104 98.1961 172.355 100.823 170.582L101.785 169.822C102.53 169.119 103.106 168.262 103.514 167.253L104.181 164.871C102.685 158.718 100.113 151.327 96.464 142.7C95.7861 141.062 94.7574 139.582 93.3779 138.261L91.4997 137.185L88.3074 136.066L86.9214 136.363L85.3972 137.531Z" fill="#0038F0"/>
<path d="M85.366 137.532C85.7878 137.002 86.2958 136.613 86.8901 136.364L88.2761 136.068C89.4603 136.339 90.5244 136.712 91.4684 137.186L93.3466 138.263C94.7262 139.584 95.7549 141.063 96.4328 142.701C100.081 151.329 102.654 158.719 104.15 164.872L103.483 167.254C103.075 168.264 102.499 169.12 101.754 169.823L100.792 170.583C98.1648 172.356 95.8575 171.105 93.8702 166.83L90.1006 155.981C88.6343 151.749 87.6171 148.363 87.0491 145.824" stroke="black" stroke-width="1.7749" stroke-linecap="round" stroke-linejoin="round"/>
<path d="M101.991 160.292L100.351 160.148C99.7772 160.052 98.7522 160.276 97.2762 160.82C95.8276 161.364 94.6249 162.18 93.6682 163.269C93.4769 163.429 93.4496 163.509 93.5862 163.509L94.2422 166.63L96.3332 173.785L96.7022 174.89C98.1782 179.115 99.1486 182.669 99.6132 185.55C99.8592 187.055 100.023 188.799 100.105 190.784C100.187 192.833 101.499 194.674 104.041 196.306C106.501 197.907 108.934 197.443 111.339 194.914C113.717 192.353 113.526 189.023 110.765 184.926C110.328 184.221 109.481 182.413 108.223 179.5C106.119 173.929 104.164 167.783 102.36 161.06L101.991 160.292Z" fill="#FFEFFF"/>
<path d="M93.5435 163.426L94.1995 166.547L96.2905 173.702L96.6595 174.807C98.1355 179.033 99.1058 182.586 99.5705 185.467C99.8165 186.972 99.9805 188.717 100.062 190.701C100.144 192.75 101.456 194.591 103.998 196.224C106.458 197.824 108.891 197.36 111.296 194.831C113.674 192.27 113.483 188.941 110.722 184.843C110.285 184.139 109.438 182.33 108.18 179.417C106.076 173.846 104.121 167.7 102.317 160.977L101.948 160.209M106.581 187.724C107.456 191.182 108.672 192.43 110.23 191.47C111.761 190.445 112.021 188.637 111.009 186.043" stroke="#54453C" stroke-width="1.77485" stroke-linecap="round" stroke-linejoin="round"/>
<path d="M95.0527 175.624C95.7087 179.017 96.4193 180.89 97.1847 181.242C101.011 178.969 105.111 177.449 109.485 176.68C109.621 175.4 109.211 173.799 108.255 171.878L102.105 157.905C100.683 157.585 98.811 157.809 96.4877 158.577C94.547 159.473 93.194 160.61 92.4287 161.986L95.0527 175.624Z" fill="#0038F0"/>
<path d="M97.3975 181.7C96.9055 183.653 97.0695 185.365 97.8895 186.838C102.317 183.957 106.814 182.228 111.378 181.652C111.296 180.019 110.736 178.515 109.697 177.138C105.324 177.906 101.224 179.427 97.3975 181.7Z" fill="#001D7D"/>
<path d="M102.097 158.146C104.284 163.236 106.334 167.894 108.247 172.12C109.204 174.041 109.614 175.641 109.477 176.922M109.477 176.922C105.104 177.69 101.004 179.211 97.177 181.484M109.477 176.922C110.516 178.299 111.076 179.803 111.158 181.436C106.593 182.012 102.097 183.741 97.669 186.622C96.849 185.149 96.685 183.437 97.177 181.484M97.177 181.484C96.4117 181.132 95.701 179.259 95.045 175.866L92.421 162.228" stroke="black" stroke-width="1.77485" stroke-linecap="round" stroke-linejoin="round"/>
<path d="M81.5594 224.344C80.956 229.658 78.1639 232.381 73.1828 232.51C67.6958 232.073 64.4993 230.123 63.5933 226.66C62.6857 223.162 62.2383 216.857 62.2511 207.743C62.569 194.705 63.3883 185.155 64.7092 179.093C66.4818 177.752 70.0995 178.709 75.5624 181.962C79.5007 184.043 81.5311 186.452 81.6536 189.188C82.7836 200.343 82.7522 212.061 81.5594 224.344Z" fill="#FFEFFF"/>
<path d="M64.6987 178.857C63.3778 184.92 62.5584 194.47 62.2406 207.508C62.2278 216.621 62.6752 222.927 63.5827 226.425C64.4887 229.888 67.6852 231.838 73.1723 232.275C78.1533 232.145 80.9455 229.423 81.5488 224.108C82.7416 211.826 82.773 200.108 81.643 188.953" stroke="#54453C" stroke-width="1.94814" stroke-linecap="round" stroke-linejoin="round"/>
<path d="M73.1525 215.711C76.8425 216.062 79.8575 216.572 82.1975 217.239C82.3175 218.012 82.1525 219.681 81.7025 222.246C80.0825 232.014 79.0325 239.059 78.5525 243.381L78.3275 245.647C78.0575 249.477 77.9225 252.182 77.9225 253.763C77.8925 255.309 77.9975 256.978 78.2375 258.77C78.4475 260.562 78.7775 262.495 79.2275 264.568C79.6175 266.641 77.6225 267.59 73.2425 267.414C68.8625 267.203 65.9075 266.096 64.3775 264.094C62.8475 262.021 61.9325 258.507 61.6325 253.553L61.2275 243.381C61.1675 239.059 61.3175 235.071 61.6775 231.417L62.8925 218.768C62.8325 217.714 62.9675 216.695 63.2975 215.711C66.1475 215.289 69.4325 215.289 73.1525 215.711Z" fill="#FFEFFF"/>
<path d="M63.2975 215.553C62.9675 216.537 62.8325 217.555 62.8925 218.61L61.6775 231.259C61.3175 234.913 61.1675 238.901 61.2275 243.223L61.6325 253.395C61.9325 258.349 62.8475 261.862 64.3775 263.935C65.9075 265.938 68.8625 267.045 73.2425 267.256C77.6225 267.431 79.6175 266.483 79.2275 264.41C78.7775 262.337 78.4475 260.404 78.2375 258.612C77.9975 256.82 77.8925 255.151 77.9225 253.605C77.9225 252.024 78.0575 249.319 78.3275 245.489L78.5525 243.223C79.0325 238.901 80.0825 231.856 81.7025 222.088C82.1525 219.523 82.3175 217.854 82.1975 217.081" stroke="#54453C" stroke-width="1.948" stroke-linecap="round" stroke-linejoin="round"/>
<path d="M104.07 223.638C103.785 228.989 101.162 231.933 96.2004 232.47C90.7006 232.482 87.3957 230.798 86.2857 227.417C85.1721 224.002 84.3502 217.748 83.8201 208.656C83.3607 195.624 83.6093 186.03 84.5659 179.874C86.2543 178.392 89.9201 179.051 95.5635 181.85C99.6162 183.604 101.785 185.841 102.07 188.561C103.862 199.596 104.528 211.289 104.07 223.638Z" fill="#FFEFFF"/>
<path d="M84.5414 179.64C83.5848 185.796 83.3362 195.39 83.7956 208.422C84.3257 217.514 85.1476 223.768 86.2612 227.183C87.3712 230.564 90.6761 232.248 96.1759 232.236C101.137 231.699 103.76 228.756 104.046 223.405C104.504 211.055 103.837 199.362 102.046 188.327" stroke="#54453C" stroke-width="1.94872" stroke-linecap="round" stroke-linejoin="round"/>
<path d="M88.7675 210.587C92.8285 210.504 97.8178 211.197 103.736 212.665C103.946 213.461 104.029 214.604 103.983 216.094C103.224 226.531 103.224 233.57 103.983 237.211L103.929 240.951C104.03 244.998 104.298 247.968 104.735 249.859C104.862 251.484 105.118 253.222 105.505 255.075C105.919 256.928 106.624 258.924 107.621 261.063C108.26 263.188 107.274 264.481 104.661 264.943C99.8622 265.258 95.8859 264.1 92.7323 261.468C90.8497 259.482 89.3416 256.193 88.208 251.601L86.1824 241.304C85.6711 236.781 85.2966 232.501 85.0589 228.462L84.3625 210.864" fill="#FFEFFF"/>
<path d="M84.0608 211.052C84.0005 212.07 84.2157 218.268 84.7063 229.645C85.0012 233.468 85.5054 237.319 86.2187 241.2L88.0582 251.016C88.8965 256.172 90.4303 259.822 92.6597 261.965C94.5351 263.877 97.4626 265.034 101.442 265.436C105.205 265.667 107.54 265.08 108.449 263.673C107.744 261.555 106.8 258.804 105.617 255.419C105.17 253.57 104.808 251.017 104.529 247.759C104.366 246.102 104.164 242.992 103.924 238.431L103.893 232.247C103.971 227.659 103.983 221.238 103.93 212.986" stroke="#54453C" stroke-width="2.09445" stroke-linecap="round" stroke-linejoin="round"/>
<path d="M92.6964 188.969C90.2664 190.979 87.1914 192.06 83.4714 192.212C75.7014 191.877 70.2564 190.385 67.1364 187.736C64.0164 185.056 63.8814 180.534 66.7314 174.17C69.4314 168.232 69.9714 162.674 68.3514 157.498C66.7314 152.29 66.2814 147.966 67.0014 144.525C67.7214 141.054 69.7764 138.481 73.1664 136.806C74.8464 135.862 75.2514 132.025 74.3814 125.295C75.8814 124.108 77.8164 123.575 80.1864 123.697C83.0364 124.062 84.5664 125.158 84.7764 126.985C84.7464 132.71 85.4364 136.136 86.8464 137.263C87.5964 137.872 88.4664 138.496 89.4564 139.135C93.0264 141.846 95.0064 146.292 95.3964 152.473C95.9964 158.046 96.9564 163.146 98.2764 167.775C99.5964 172.404 100.436 175.86 100.796 178.144C101.156 180.397 101.231 182.163 101.021 183.442C99.8514 183.655 98.5764 184.493 97.1964 185.955C95.7864 187.355 94.2864 188.36 92.6964 188.969Z" fill="#FFEFFF"/>
<path d="M92.6964 188.969C90.2664 190.979 87.1914 192.06 83.4714 192.212C75.7014 191.877 70.2564 190.385 67.1364 187.736C64.0164 185.056 63.8814 180.534 66.7314 174.17C69.4314 168.232 69.9714 162.674 68.3514 157.498C66.7314 152.29 66.2814 147.966 67.0014 144.525C67.7214 141.054 69.7764 138.481 73.1664 136.806C74.8464 135.862 75.2514 132.025 74.3814 125.295C75.8814 124.108 77.8164 123.575 80.1864 123.697C83.0364 124.062 84.5664 125.158 84.7764 126.985C84.7464 132.71 85.4364 136.136 86.8464 137.263C87.5964 137.872 88.4664 138.496 89.4564 139.135C93.0264 141.846 95.0064 146.292 95.3964 152.473C95.9964 158.046 96.9564 163.146 98.2764 167.775C99.5964 172.404 100.436 175.86 100.796 178.144C101.156 180.397 101.231 182.163 101.021 183.442" stroke="#54453C" stroke-width="1.81349" stroke-linecap="round" stroke-linejoin="round"/>
<path d="M88.7875 143.438C88.5175 143.133 88.1725 142.981 87.7525 142.981C87.3625 142.981 87.0325 143.133 86.7625 143.438C86.4625 143.712 86.3125 144.047 86.3125 144.443C86.3125 144.839 86.4625 145.189 86.7625 145.493C87.0325 145.768 87.3625 145.905 87.7525 145.905C88.1725 145.905 88.5175 145.768 88.7875 145.493C89.0575 145.189 89.1925 144.839 89.1925 144.443C89.1925 144.047 89.0575 143.712 88.7875 143.438ZM89.6875 152.299C89.4175 152.025 89.0875 151.888 88.6975 151.888C88.2775 151.888 87.9325 152.025 87.6625 152.299C87.3925 152.604 87.2575 152.954 87.2575 153.35C87.2575 153.746 87.3925 154.096 87.6625 154.401C87.9325 154.675 88.2775 154.812 88.6975 154.812C89.0875 154.812 89.4175 154.675 89.6875 154.401C89.9875 154.096 90.1375 153.746 90.1375 153.35C90.1375 152.954 89.9875 152.604 89.6875 152.299ZM84.2425 139.921C85.9525 139.373 86.9275 138.444 87.1675 137.135C91.7575 139.571 94.6225 142.692 95.7625 146.498C96.9325 152.071 97.5925 157.309 97.7425 162.211L99.0475 163.308L98.6425 164.769L102.918 178.929C99.5875 182.005 96.0475 184.015 92.2975 184.959C90.2575 183.223 88.5625 181.472 87.2125 179.706C87.2725 165.698 86.2825 152.436 84.2425 139.921ZM90.4075 161.526C90.1075 161.252 89.7625 161.115 89.3725 161.115C88.9825 161.115 88.6525 161.252 88.3825 161.526C88.0825 161.8 87.9325 162.15 87.9325 162.577C87.9325 162.973 88.0825 163.308 88.3825 163.582C88.6525 163.886 88.9825 164.038 89.3725 164.038C89.7625 164.038 90.1075 163.886 90.4075 163.582C90.6775 163.308 90.8125 162.973 90.8125 162.577C90.8125 162.15 90.6775 161.8 90.4075 161.526ZM90.7225 171.575C90.4525 171.271 90.1075 171.118 89.6875 171.118C89.2975 171.118 88.9675 171.271 88.6975 171.575C88.3975 171.849 88.2475 172.184 88.2475 172.58C88.2475 173.006 88.3975 173.357 88.6975 173.631C88.9675 173.905 89.2975 174.042 89.6875 174.042C90.1075 174.042 90.4525 173.905 90.7225 173.631C90.9925 173.357 91.1275 173.006 91.1275 172.58L90.7225 171.575ZM84.7375 180.208C83.0275 182.37 81.3175 184.106 79.6075 185.415C72.8875 183.284 67.4425 180.772 63.2725 177.879L67.6375 162.485C65.4475 154.538 64.6225 147.945 65.1625 142.707C65.9725 140.088 68.4775 137.804 72.6775 135.856C75.2575 138.079 78.2575 139.495 81.6775 140.104C83.5975 153.35 84.6175 166.718 84.7375 180.208Z" fill="#1F67AB"/>
<path d="M89.485 144.1C89.485 144.496 89.35 144.846 89.08 145.151C88.81 145.425 88.465 145.562 88.045 145.562C87.655 145.562 87.325 145.425 87.055 145.151C86.755 144.846 86.605 144.496 86.605 144.1C86.605 143.704 86.755 143.369 87.055 143.095C87.325 142.791 87.655 142.639 88.045 142.639C88.465 142.639 88.81 142.791 89.08 143.095C89.35 143.369 89.485 143.704 89.485 144.1ZM90.43 153.007C90.43 153.403 90.28 153.753 89.98 154.058C89.71 154.332 89.38 154.469 88.99 154.469C88.57 154.469 88.225 154.332 87.955 154.058C87.685 153.753 87.55 153.403 87.55 153.007C87.55 152.611 87.685 152.261 87.955 151.957C88.225 151.683 88.57 151.546 88.99 151.546C89.38 151.546 89.71 151.683 89.98 151.957C90.28 152.261 90.43 152.611 90.43 153.007ZM91.105 162.234L90.7 163.239C90.4 163.544 90.055 163.696 89.665 163.696C89.275 163.696 88.945 163.544 88.675 163.239C88.375 162.965 88.225 162.63 88.225 162.234C88.225 161.808 88.375 161.458 88.675 161.184C88.945 160.91 89.275 160.772 89.665 160.772C90.055 160.772 90.4 160.91 90.7 161.184C90.97 161.458 91.105 161.808 91.105 162.234ZM91.42 172.237C91.42 172.664 91.285 173.014 91.015 173.288C90.745 173.562 90.4 173.699 89.98 173.699C89.59 173.699 89.26 173.562 88.99 173.288C88.69 173.014 88.54 172.664 88.54 172.237C88.54 171.842 88.69 171.507 88.99 171.233C89.26 170.928 89.59 170.776 89.98 170.776C90.4 170.776 90.745 170.928 91.015 171.233L91.42 172.237ZM81.97 139.761L83.14 139.898L84.535 139.578C86.575 152.094 87.565 165.355 87.505 179.363L86.425 177.901L85.03 179.866C84.91 166.376 83.89 153.007 81.97 139.761Z" fill="#030033"/>
<path d="M95.9875 173.539L98.6425 164.769M98.6425 164.769L99.0475 163.308L97.7425 162.211C97.5925 157.309 96.9325 152.071 95.7625 146.498C94.6225 142.692 91.7575 139.571 87.1675 137.135C86.9275 138.444 85.9525 139.373 84.2425 139.921L82.8475 140.241L81.6775 140.104C78.2575 139.495 75.2575 138.079 72.6775 135.856C68.4775 137.804 65.9725 140.088 65.1625 142.707C64.6225 147.945 65.4475 154.538 67.6375 162.485L63.2725 177.879C67.4425 180.772 72.8875 183.284 79.6075 185.415C81.3175 184.106 83.0275 182.37 84.7375 180.208L86.1325 178.244L87.2125 179.706C88.5625 181.472 90.2575 183.223 92.2975 184.959C96.0475 184.015 99.5875 182.005 102.918 178.929L98.6425 164.769Z" stroke="black" stroke-width="1.36012" stroke-linecap="round" stroke-linejoin="round"/>
<path d="M84.2425 139.921C86.2825 152.436 87.2725 165.698 87.2125 179.706M84.7375 180.208C84.6175 166.718 83.5975 153.35 81.6775 140.104M89.1925 144.443C89.1925 144.839 89.0575 145.189 88.7875 145.493C88.5175 145.768 88.1725 145.905 87.7525 145.905C87.3625 145.905 87.0325 145.768 86.7625 145.493C86.4625 145.189 86.3125 144.839 86.3125 144.443C86.3125 144.047 86.4625 143.712 86.7625 143.438C87.0325 143.133 87.3625 142.981 87.7525 142.981C88.1725 142.981 88.5175 143.133 88.7875 143.438C89.0575 143.712 89.1925 144.047 89.1925 144.443ZM90.1375 153.35C90.1375 153.746 89.9875 154.096 89.6875 154.401C89.4175 154.675 89.0875 154.812 88.6975 154.812C88.2775 154.812 87.9325 154.675 87.6625 154.401C87.3925 154.096 87.2575 153.746 87.2575 153.35C87.2575 152.954 87.3925 152.604 87.6625 152.299C87.9325 152.025 88.2775 151.888 88.6975 151.888C89.0875 151.888 89.4175 152.025 89.6875 152.299C89.9875 152.604 90.1375 152.954 90.1375 153.35ZM90.8125 162.577C90.8125 162.973 90.6775 163.308 90.4075 163.582C90.1075 163.886 89.7625 164.038 89.3725 164.038C88.9825 164.038 88.6525 163.886 88.3825 163.582C88.0825 163.308 87.9325 162.973 87.9325 162.577C87.9325 162.15 88.0825 161.8 88.3825 161.526C88.6525 161.252 88.9825 161.115 89.3725 161.115C89.7625 161.115 90.1075 161.252 90.4075 161.526C90.6775 161.8 90.8125 162.15 90.8125 162.577ZM91.1275 172.58C91.1275 173.006 90.9925 173.357 90.7225 173.631C90.4525 173.905 90.1075 174.042 89.6875 174.042C89.2975 174.042 88.9675 173.905 88.6975 173.631C88.3975 173.357 88.2475 173.006 88.2475 172.58C88.2475 172.184 88.3975 171.849 88.6975 171.575C88.9675 171.271 89.2975 171.118 89.6875 171.118C90.1075 171.118 90.4525 171.271 90.7225 171.575L91.1275 172.58Z" stroke="black" stroke-width="0.906747" stroke-linecap="round" stroke-linejoin="round"/>
<path d="M92.7004 192.174C90.7804 193.392 87.9904 194.092 84.3304 194.275C78.0004 194.488 72.3754 193.194 67.4554 190.392C63.7354 186.951 62.9254 182.841 65.0254 178.06C78.0754 180.039 90.0304 180.039 100.89 178.06C101.55 180.587 101.7 182.825 101.34 184.774C98.6704 187.941 95.7904 190.408 92.7004 192.174Z" fill="#434343"/>
<path d="M92.7004 191.556C90.7804 192.652 87.9904 193.277 84.3304 193.429C78.0004 193.642 72.3754 192.485 67.4554 189.957C63.7354 186.882 62.9254 183.197 65.0254 178.904C78.0754 180.7 90.0304 180.7 100.89 178.904C101.55 181.187 101.7 183.197 101.34 184.933" stroke="black" stroke-width="1.81349" stroke-linecap="round" stroke-linejoin="round"/>
<path d="M72.3604 136.38L75.1174 141.433L80.3574 150.66L80.4048 150.709L81.3418 152.28L83.0713 155.42L85.4055 159.834L86.6583 151.451C87.1177 149.03 87.393 146.104 87.4841 142.673L87.4858 142.575L87.4874 142.478L86.5225 136.923L89.0887 139.057C92.7807 141.131 94.9431 144.327 95.5758 148.646L97.4357 161.019C98.3729 166.315 99.5085 171.29 100.842 175.946C101.712 179.556 102.054 182.105 101.868 183.591L90.9827 188.694L89.0722 184.871L85.7065 175.969L80.7594 188.95C73.4882 187.591 67.2251 185.536 61.9701 182.787C62.3027 180.267 63.6309 176.841 65.9548 172.51C66.5468 167.986 66.6067 163.566 66.1346 159.25C63.6059 149.326 64.5108 142.492 68.8491 138.747C70.0251 137.635 71.1955 136.846 72.3604 136.38Z" fill="#0038F0"/>
<path d="M89.0887 139.057C92.7807 141.131 94.9431 144.327 95.5758 148.646L97.4357 161.019C98.3729 166.315 99.5085 171.29 100.842 175.946C101.712 179.556 102.054 182.105 101.868 183.591L90.9827 188.694L89.0722 184.871L85.7065 175.969L80.7594 188.95C73.4882 187.591 67.2251 185.536 61.9701 182.787C62.3027 180.267 63.6309 176.841 65.9548 172.51C66.5468 167.986 66.6067 163.566 66.1346 159.25C63.6059 149.326 64.5108 142.492 68.8491 138.747C70.0251 137.635 71.1955 136.846 72.3604 136.38" stroke="black" stroke-width="1.93539" stroke-linecap="round" stroke-linejoin="round"/>
<path d="M72.5987 137.04L75.3557 142.093L80.5957 151.32L80.6431 151.369L81.5801 152.94L83.3096 156.08L85.5366 161.124L86.8966 152.112C87.356 149.691 87.6312 146.764 87.7224 143.333L87.7241 143.236L87.7257 143.138L86.7608 137.583L89.327 139.717C90.9398 141.236 92.1961 142.926 93.096 144.788L90.1223 146.727L93.1473 147.413C93.5103 150.593 93.0722 153.646 91.8329 156.571C90.2197 160.689 88.1786 163.519 85.7098 165.062C78.9114 160.504 74.0286 154.799 71.0615 147.944L73.9254 146.781L69.8961 145.64C70.4591 142.8 71.3599 139.933 72.5987 137.04Z" fill="#002566"/>
<path d="M85.4716 164.402C78.6731 159.844 73.7903 154.138 70.8232 147.284L73.6872 146.12L69.6578 144.98C70.2208 142.14 71.1216 139.273 72.3604 136.38L75.1174 141.433L80.3574 150.66L82.1833 153.801C83.3983 156.025 84.4366 158.246 85.2983 160.464L86.6583 151.451C87.1177 149.03 87.393 146.104 87.4841 142.673L87.4858 142.575L87.4874 142.478L86.5225 136.923L89.0887 139.057C90.7015 140.576 91.9578 142.266 92.8577 144.128L89.884 146.067L92.909 146.753C93.2721 149.933 92.834 152.986 91.5947 155.911C89.9814 160.029 87.9404 162.859 85.4716 164.402ZM85.4716 164.402C84.7442 165.588 84.1586 166.938 83.7148 168.452C84.5117 170.701 85.1756 173.207 85.7065 175.969M85.2585 168.382L86.8487 168.41" stroke="black" stroke-width="1.45155" stroke-linecap="round" stroke-linejoin="round"/>
<path d="M83.4341 144.709L83.2194 144.654C81.7129 142.115 81.0101 139.865 81.1112 137.901C83.2867 136.523 85.514 136.483 87.7932 137.784C88.4011 140.372 88.4578 142.592 87.9633 144.446C90.0931 155.773 91.6294 165.954 92.5722 174.987C91.5038 179.201 89.8062 182.25 87.4796 184.134C84.4595 181.937 82.2629 178.707 80.8899 174.443C81.133 170.178 81.6146 165.58 82.3346 160.647C83.0905 155.715 83.4569 150.402 83.4341 144.709Z" fill="#CC3D21"/>
<path d="M83.4341 144.709L83.2194 144.654C81.7129 142.115 81.0101 139.865 81.1112 137.901C83.2867 136.523 85.514 136.483 87.7932 137.784C88.4011 140.372 88.4578 142.592 87.9633 144.446M83.4341 144.709C83.4569 150.402 83.0905 155.715 82.3346 160.647C81.6146 165.58 81.133 170.178 80.8899 174.443C82.2629 178.707 84.4595 181.937 87.4796 184.134C89.8062 182.25 91.5038 179.201 92.5722 174.987C91.6294 165.954 90.0931 155.773 87.9633 144.446M83.4341 144.709C85.4017 145.224 86.9115 145.136 87.9633 144.446" stroke="black" stroke-width="2.09286" stroke-linecap="round" stroke-linejoin="round"/>
<path d="M84.1119 134.24C85.2786 132.717 85.8952 131.195 85.9619 129.672C88.0619 131.117 89.6286 133.245 90.6619 136.055C91.6619 138.866 91.5619 141.072 90.3619 142.673C88.3619 139.081 86.2786 136.27 84.1119 134.24ZM73.3119 129.145C73.6786 130.551 77.0119 132.268 83.3119 134.299C82.0452 137.539 81.2786 140.779 81.0119 144.02C74.8786 140.701 71.3786 137.246 70.5119 133.654C70.9452 132.21 71.8786 130.707 73.3119 129.145Z" fill="white"/>
<path d="M90.3619 142.673C91.5619 141.072 91.6619 138.866 90.6619 136.055C89.6286 133.245 88.0619 131.117 85.9619 129.672C85.8952 131.195 85.2786 132.717 84.1119 134.24C86.2786 136.27 88.3619 139.081 90.3619 142.673ZM70.5119 133.654C71.3786 137.246 74.8786 140.701 81.0119 144.02C81.2786 140.779 82.0452 137.539 83.3119 134.299C77.0119 132.268 73.6786 130.551 73.3119 129.145C71.8786 130.707 70.9452 132.21 70.5119 133.654Z" stroke="black" stroke-width="1.62334" stroke-linecap="round" stroke-linejoin="round"/>
<path d="M102.639 181.625L114.97 197.554C114.33 200.771 111.419 203.269 106.237 205.05L105.71 204.253C101.487 207.751 95.2017 209.36 86.8529 209.079V208.516L76.9207 208.891C72.6343 208.798 68.6839 208.157 65.0693 206.97L65.5011 205.612C58.6557 205.206 53.5057 203.379 50.051 200.131L64.4935 182.562L72.2665 184.483C76.4249 185.264 81.1271 185.592 86.3731 185.467C90.7874 185.311 94.8178 184.717 98.4644 183.687L102.639 181.625Z" fill="#190C0A"/>
<path d="M105.11 200.404L104.774 199.514C100.488 202.575 94.5219 204.214 86.8769 204.433V203.215C78.1442 203.996 71.2989 203.636 66.3408 202.137L66.6287 201.153C60.2951 200.498 55.385 199.077 51.8983 196.89L53.8176 194.454C57.816 196.578 62.4063 197.749 67.5883 197.968L67.3004 198.905C73.9538 200.435 80.4314 200.623 86.7329 199.467L86.7809 201.06C93.5623 200.904 99.2561 199.576 103.862 197.078L104.198 197.968C107.685 196.281 110.084 194.267 111.395 191.924L113.123 194.032C111.715 196.625 109.044 198.749 105.11 200.404Z" fill="#3D1C17"/>
<path d="M106.237 205.05C111.419 203.269 114.33 200.771 114.97 197.554L102.639 181.625L98.4644 183.687M106.237 205.05L98.4644 183.687M106.237 205.05L105.71 204.253C101.487 207.751 95.2017 209.36 86.8529 209.079V208.516M98.4644 183.687C94.8178 184.717 90.7874 185.311 86.3731 185.467M86.8529 208.516L76.9207 208.891C72.6343 208.798 68.6839 208.157 65.0693 206.97L65.5011 205.612M86.8529 208.516L86.3731 185.467M65.5011 205.612C58.6557 205.206 53.5057 203.379 50.051 200.131L64.4935 182.562L72.2665 184.483M65.5011 205.612L72.2665 184.483M72.2665 184.483C76.4249 185.264 81.1271 185.592 86.3731 185.467" stroke="black" stroke-width="1.89646" stroke-linecap="round" stroke-linejoin="round"/>
<path d="M82.3073 177.026L82.5238 176.499C84.6311 176.304 87.1859 176.323 90.1881 176.557L90.4479 177.026C90.6211 178.9 90.6933 181.262 90.6644 184.112C90.6644 184.814 90.6067 185.146 90.4912 185.107C88.0663 185.498 85.3961 185.537 82.4805 185.224L82.3073 184.639V177.026Z" fill="#808080"/>
<path d="M90.8224 178L92.4679 177.883C95.5567 177.649 98.2414 177.181 100.522 176.478C101.186 179.211 101.388 181.475 101.128 183.271L96.2351 184.618L95.9753 184.676L91.0389 185.086C91.0678 182.236 90.9956 179.874 90.8224 178ZM82.6818 178V185.613H82.2921L67.6129 184.325L67.0067 184.208L63.3261 183.271L63.1529 183.154C62.8931 181.28 63.3261 178.957 64.4519 176.185L80.1703 178H82.6818Z" fill="#002445"/>
<path d="M82.6818 177.604L82.8983 177.076C84.6592 176.803 87.214 176.823 90.5626 177.135L90.8224 177.604M82.6818 177.604H80.1703L64.4519 175.788C63.3261 178.56 62.8931 180.883 63.1529 182.757L63.3261 182.874L67.0067 183.811L67.6129 183.928L82.2921 185.216H82.6818M82.6818 177.604V185.216M90.8224 177.604L92.4679 177.486C95.5567 177.252 98.2414 176.784 100.522 176.081C101.186 178.814 101.388 181.078 101.128 182.874L96.2351 184.221L95.9753 184.279L91.0389 184.689M90.8224 177.604C90.9956 179.477 91.0678 181.839 91.0389 184.689M91.0389 184.689C91.0389 185.392 90.9812 185.724 90.8657 185.685C88.4409 186.075 85.7706 186.114 82.855 185.802L82.6818 185.216" stroke="black" stroke-width="1.51069" stroke-linecap="round" stroke-linejoin="round"/>
<path d="M135.381 46.9976C137.737 78.1644 142.555 101.486 149.835 116.963C148.522 115.742 147.299 114.256 146.165 112.503C144.017 109.132 142.168 104.725 140.616 99.2828C142.376 111.787 140.885 122.684 136.141 131.976C136.798 128.18 136.738 121.928 135.962 113.22C136.768 128.379 131.756 139.954 120.927 147.944C122.12 143.272 122.568 139.369 122.269 136.237L121.509 128.034C121.3 126.175 121.21 123.361 121.24 119.592C121.031 124.821 118.958 129.799 115.02 134.525C116.959 127.675 117.973 115.185 118.063 97.0529C117.615 101.168 116.333 104.367 114.215 106.65C115.02 101.101 115.572 95.6724 115.87 90.3629C115.99 76.9033 114.423 64.7313 111.172 53.8469C107.532 44.7411 106.98 37.799 109.516 33.0204C113.006 28.6932 116.691 27.0207 120.569 28.003C128.534 31.0294 133.471 37.3609 135.381 46.9976ZM35.3671 28.003C39.6033 27.0207 43.5561 28.6932 47.2255 33.0204C49.821 37.799 49.0304 44.7411 44.8538 53.8469C40.9756 64.7313 38.9172 76.9033 38.6785 90.3629C38.8575 95.6724 39.305 101.101 40.021 106.65C37.7835 104.367 36.4709 101.168 36.0831 97.0529C35.6953 115.185 36.4411 127.675 38.3205 134.525C34.2036 129.799 32.1004 124.821 32.0109 119.592C31.9214 123.361 31.7424 126.175 31.474 128.034L30.4 136.237C30.0122 139.369 30.3851 143.272 31.5187 147.944C20.0033 139.954 14.902 128.379 16.2146 113.22C15.1108 121.928 14.8721 128.18 15.4986 131.976C10.6061 122.684 9.29345 111.787 11.5607 99.2828C9.71111 104.725 7.56316 109.132 5.11689 112.503C3.83409 114.256 2.4618 115.742 1 116.963C9.35311 101.486 15.26 78.1644 18.7205 46.9976C21.0773 37.3609 26.6262 31.0294 35.3671 28.003Z" fill="#8C10E6"/>
<path d="M135.381 46.9976C137.737 78.1644 142.555 101.486 149.835 116.963C148.522 115.742 147.299 114.256 146.165 112.503C144.017 109.132 142.168 104.725 140.616 99.2828C142.376 111.787 140.885 122.684 136.141 131.976C136.798 128.18 136.738 121.928 135.962 113.22C136.768 128.379 131.756 139.954 120.927 147.944C122.12 143.272 122.568 139.369 122.269 136.237L121.509 128.034C121.3 126.175 121.21 123.361 121.24 119.592C121.031 124.821 118.958 129.799 115.02 134.525C116.959 127.675 117.973 115.185 118.063 97.0529C117.615 101.168 116.333 104.367 114.215 106.65C115.02 101.101 115.572 95.6724 115.87 90.3629C115.99 76.9033 114.423 64.7313 111.172 53.8469C107.532 44.7411 106.98 37.799 109.516 33.0204C113.006 28.6932 116.691 27.0207 120.569 28.003C128.534 31.0294 133.471 37.3609 135.381 46.9976ZM35.3671 28.003C39.6033 27.0207 43.5561 28.6932 47.2255 33.0204C49.821 37.799 49.0304 44.7411 44.8538 53.8469C40.9756 64.7313 38.9172 76.9033 38.6785 90.3629C38.8575 95.6724 39.305 101.101 40.021 106.65C37.7835 104.367 36.4709 101.168 36.0831 97.0529C35.6953 115.185 36.4411 127.675 38.3205 134.525C34.2036 129.799 32.1004 124.821 32.0109 119.592C31.9214 123.361 31.7424 126.175 31.474 128.034L30.4 136.237C30.0122 139.369 30.3851 143.272 31.5187 147.944C20.0033 139.954 14.902 128.379 16.2146 113.22C15.1108 121.928 14.8721 128.18 15.4986 131.976C10.6061 122.684 9.29345 111.787 11.5607 99.2828C9.71111 104.725 7.56316 109.132 5.11689 112.503C3.83409 114.256 2.4618 115.742 1 116.963C9.35311 101.486 15.26 78.1644 18.7205 46.9976C21.0773 37.3609 26.6262 31.0294 35.3671 28.003Z" fill="url(#paint1_linear_0_1)"/>
<path d="M106.275 41.4855C109.765 43.4766 113.39 43.5297 117.149 41.6448C115.597 33.7337 113.509 27.9729 110.884 24.3624C107.513 28.4773 105.976 34.185 106.275 41.4855ZM110.526 18.3494C114.404 21.4024 117.566 29.0746 120.013 41.366L120.684 41.2466C121.161 41.2466 121.609 41.3793 122.026 41.6448C130.529 30.309 138.509 25.2385 145.967 26.4331C148.652 41.5121 146.683 52.7284 140.06 60.082C133.885 59.7634 127.918 55.2105 122.161 46.4233L121.803 46.6224C125.651 62.4713 132.244 75.9043 141.582 86.9215C140.15 89.4169 137.659 91.0894 134.109 91.9389C125.994 76.9131 121.489 61.9005 120.594 46.9012L120.192 46.8614C119.237 59.9758 122.727 75.0017 130.663 91.9389C127.023 90.5585 124.771 88.8992 123.906 86.9613C117.432 73.2893 115.985 59.8563 119.565 46.6623L118.849 46.0649C118.521 45.7729 118.297 45.4278 118.178 45.0296C112.211 48.1622 107.006 48.0029 102.561 44.5517C101.308 31.57 103.963 22.8359 110.526 18.3494ZM141.403 32.7647C136.242 33.5345 130.514 37.145 124.219 43.596C128.425 49.5161 132.99 52.8611 137.912 53.631C142.447 45.9588 143.61 39.0033 141.403 32.7647ZM37.8091 44.5517L36.8693 45.1491C41.2249 58.3431 39.5095 71.7761 31.7232 85.4481C30.6791 87.386 27.9494 89.032 23.5342 90.3859C33.1104 73.4752 37.3317 58.4626 36.1981 45.3482L35.6611 45.388C34.5872 60.3873 29.1576 75.3866 19.3726 90.3859C15.1065 89.5364 12.1083 87.8772 10.378 85.4083C21.6547 74.3911 29.6051 60.9581 34.2292 45.1092L33.7817 44.9101C26.8605 53.6973 19.6709 58.2502 12.2127 58.5688C4.24745 51.2151 1.87576 39.9856 5.09768 24.8801C14.1071 23.712 23.7281 28.7826 33.9607 40.0918L35.5716 39.7334L36.3771 39.8528C39.3604 27.5614 43.1789 19.8892 47.8328 16.8362C55.7981 21.3227 58.9902 30.0568 57.409 43.0385C52.0392 46.4897 45.7744 46.649 38.6145 43.5164C38.4356 43.9146 38.1671 44.2597 37.8091 44.5517ZM31.2757 42.0828C23.6983 35.6318 16.807 32.0213 10.6018 31.2515C7.91685 37.4901 9.31898 44.4455 14.8082 52.1178C20.715 51.3479 26.2042 48.0029 31.2757 42.0828ZM39.8228 40.0918C44.3573 42.0032 48.7427 41.9634 52.9789 39.9723C53.3369 32.6718 51.4873 26.9508 47.4301 22.8094C44.238 26.4464 41.7022 32.2072 39.8228 40.0918Z" fill="#FF17F7"/>
<path d="M117.392 28.0857L120.569 28.245C123.91 29.5192 126.744 31.3908 129.071 33.8597M117.392 28.0857C115.632 23.0682 113.603 19.6569 111.306 17.8516C104.743 22.3382 102.088 31.0723 103.341 44.054C105.011 45.3548 106.786 46.191 108.666 46.5627L108.755 46.6025M117.392 28.0857L117.436 28.1653C118.689 31.6165 119.808 35.8508 120.793 40.8683M129.071 33.8597C135.246 27.6742 141.138 25.0327 146.747 25.9353C149.432 41.0143 147.463 52.2306 140.84 59.5842C139.348 59.5046 137.872 59.186 136.41 58.6285M129.071 33.8597L128.982 33.9394C126.953 35.957 124.895 38.3595 122.806 41.147M136.41 58.6285C137.275 67.4688 138.379 75.6322 139.721 83.1185M136.41 58.6285L136.32 58.5887C131.756 56.7835 127.296 52.5624 122.941 45.9256M139.721 83.1185L139.766 83.1583L142.362 86.4237L140.885 88.4546M139.721 83.1185C131.786 72.7385 126.073 60.4072 122.583 46.1247M140.885 88.4546C143.242 99.9762 146.225 109.56 149.835 117.205C148.522 115.984 147.299 114.498 146.165 112.745C144.017 109.374 142.168 104.967 140.616 99.5249C142.376 112.029 140.885 122.926 136.141 132.218C136.798 128.422 136.738 122.17 135.962 113.462C136.768 128.621 131.756 140.196 120.927 148.186C122.12 143.514 122.568 139.611 122.269 136.479L121.509 128.276C121.3 126.417 121.21 123.603 121.24 119.834M140.885 88.4546L140.795 88.4944C139.334 89.8749 137.365 90.8571 134.888 91.4412C126.774 76.4153 122.269 61.4027 121.374 46.4034M121.24 119.834C121.031 125.063 118.958 130.041 115.02 134.767C116.959 127.917 117.973 115.427 118.063 97.2949C117.615 101.41 116.333 104.609 114.215 106.892C115.02 101.343 115.572 95.9144 115.87 90.6049C115.99 77.1454 114.423 64.9734 111.172 54.0889C110.098 51.3811 109.292 48.8856 108.755 46.6025M121.24 119.834L121.33 116.847V116.17L121.419 114.975M108.755 46.6025C111.858 47.16 115.259 46.4698 118.958 44.5318M120.793 40.8683L121.464 40.7488C121.941 40.7488 122.389 40.8815 122.806 41.147M120.793 40.8683C120.315 40.9745 119.927 41.2134 119.629 41.5851C119.122 42.1426 118.868 42.8062 118.868 43.5761L118.958 44.5318M122.806 41.147L123.299 41.5851C123.836 42.1426 124.104 42.8062 124.104 43.5761C124.104 44.3725 123.836 45.0362 123.299 45.5672L122.941 45.9256M107.95 41.4656C111.172 42.9788 114.498 42.8726 117.929 41.147C116.974 36.3154 115.825 32.2934 114.483 29.0812V29.0016M107.95 41.4656C107.801 38.2268 108.323 35.4924 109.516 33.2624C111.127 31.2714 112.783 29.8511 114.483 29.0016M107.95 41.4656L107.055 40.9877C106.756 33.6872 108.293 27.9795 111.664 23.8646C112.678 25.2451 113.618 26.9574 114.483 29.0016M118.958 44.5318C119.077 44.93 119.301 45.2751 119.629 45.5672L120.345 46.1645M120.345 46.1645C120.554 46.2707 120.763 46.337 120.972 46.3636M120.345 46.1645C116.765 59.3586 118.212 72.7916 124.686 86.4635C125.551 88.4015 127.803 90.0607 131.443 91.4412C123.507 74.5039 120.017 59.478 120.972 46.3636M120.972 46.3636L121.374 46.4034M121.374 46.4034H121.464C121.881 46.4034 122.254 46.3105 122.583 46.1247M122.583 46.1247L122.941 45.9256M131.622 37.2445C135.381 34.4305 138.901 32.7713 142.183 32.2669C144.39 38.5055 143.227 45.461 138.692 53.1332L135.739 52.3368M131.622 37.2445C133.352 40.032 134.605 43.3637 135.381 47.2397L135.739 52.3368M131.622 37.2445L131.532 37.2844C129.414 38.8507 127.236 40.7886 124.999 43.0983C128.34 47.8237 131.92 50.9032 135.739 52.3368M37.1571 39.3551C38.1714 35.2137 39.2752 31.6032 40.4685 28.5237L40.5132 28.4042M37.1571 39.3551L36.3516 39.2356L34.7406 39.594M37.1571 39.3551C37.694 39.4613 38.1714 39.7002 38.589 40.0718C39.2155 40.6293 39.5287 41.293 39.5287 42.0629C39.5287 42.408 39.484 42.7266 39.3945 43.0186M40.5132 28.4042L35.3671 28.245C32.4137 29.2803 29.7884 30.7139 27.4913 32.5457M40.5132 28.4042C42.8402 22.378 45.54 18.356 48.6128 16.3384C56.578 20.825 59.7701 29.5591 58.189 42.5408C55.0864 44.5318 51.7153 45.4344 48.0758 45.2486M27.4913 32.5457L27.5361 32.5855C29.8928 34.5765 32.2943 36.9127 34.7406 39.594M27.4913 32.5457C19.9437 26.2008 12.7391 23.4797 5.87763 24.3823C2.65571 39.4878 5.0274 50.7174 12.9927 58.071C14.4843 58.0179 15.9759 57.7923 17.4676 57.3941H17.5123M34.7406 39.594L34.1141 40.0718C33.4876 40.6293 33.1744 41.293 33.1744 42.0629C33.1744 42.8328 33.4876 43.4965 34.1141 44.054L34.5616 44.4124M39.3945 43.0186C42.4374 44.346 45.3163 45.0893 48.031 45.2486H48.0758M39.3945 43.0186C39.2155 43.4168 38.947 43.7619 38.589 44.054L37.6493 44.6513M48.0758 45.2486C47.3896 47.9299 46.3156 50.8767 44.8538 54.0889C40.9756 64.9734 38.9172 77.1454 38.6785 90.6049C38.8575 95.9144 39.305 101.343 40.021 106.892C37.7835 104.609 36.4709 101.41 36.0831 97.2949C35.6953 115.427 36.4411 127.917 38.3205 134.767C34.2036 130.041 32.1004 125.063 32.0109 119.834M48.747 40.9479C48.8663 37.9215 48.3592 35.3597 47.2255 33.2624C46.0621 31.882 44.8688 30.7802 43.6456 29.9573M48.747 40.9479H48.6575C46.0322 41.1868 43.3473 40.7355 40.6027 39.594C41.4679 35.9835 42.4672 32.8111 43.6009 30.0767L43.6456 29.9573M48.747 40.9479C50.4475 40.7621 52.1181 40.271 53.7589 39.4745C54.1169 32.174 52.2672 26.453 48.21 22.3116C46.5096 24.2496 44.9881 26.7981 43.6456 29.9573M18.3625 51.1023C23.2253 49.7484 27.7896 46.576 32.0557 41.5851C29.3708 39.302 26.7753 37.3773 24.2694 35.811H24.2246M18.3625 51.1023L18.7205 47.2397C19.8542 42.6735 21.6889 38.8639 24.2246 35.811M18.3625 51.1023H18.273L15.5881 51.62C10.0989 43.9478 8.6968 36.9923 11.3817 30.7537C15.3793 31.2581 19.6603 32.9439 24.2246 35.811M17.5123 57.3941C23.3297 55.7747 29.0128 51.4474 34.5616 44.4124M17.5123 57.3941C16.2295 66.7388 14.7081 75.3269 12.9479 83.1583M34.5616 44.4124L35.0091 44.6115M37.6493 44.6513C42.0048 57.8454 40.2895 71.2784 32.5032 84.9503C31.459 86.8883 28.7294 88.5342 24.3141 89.8881C33.8904 72.9774 38.1117 57.9648 36.9781 44.8504M37.6493 44.6513L36.9781 44.8504M36.9781 44.8504L36.4411 44.8902M36.4411 44.8902C35.3671 59.8895 29.9376 74.8888 20.1525 89.8881C16.6323 89.1979 13.9921 87.9634 12.232 86.1848M36.4411 44.8902H36.3516L35.0091 44.6115M12.232 86.1848C9.12937 98.6886 5.38538 109.029 1 117.205C2.4618 115.984 3.83409 114.498 5.11689 112.745C7.56316 109.374 9.71111 104.967 11.5607 99.5249C9.29345 112.029 10.6061 122.926 15.4986 132.218C14.8721 128.422 15.1108 122.17 16.2146 113.462C14.902 128.621 20.0033 140.196 31.5187 148.186C30.3851 143.514 30.0122 139.611 30.4 136.479L31.474 128.276C31.7424 126.417 31.9214 123.603 32.0109 119.834M12.232 86.1848L12.1872 86.1449L11.158 84.9105L12.8584 83.238L12.9479 83.1583M32.0109 119.834V116.847V116.17L31.9662 114.975M35.0091 44.6115C30.6237 59.6108 23.27 72.4597 12.9479 83.1583" stroke="black" stroke-width="1.68853" stroke-linecap="round" stroke-linejoin="round"/>
<path d="M84.3601 25.5113C85.8667 11.04 93.1191 3.08255 106.117 1.63893C102.677 14.8512 95.4242 22.8086 84.3601 25.5113C68.6043 21.102 59.5472 13.28 57.1887 2.04531C69.8118 4.12279 78.869 11.9448 84.3601 25.5113Z" fill="#73FF00"/>
<path d="M84.3601 25.5113C85.8667 11.04 93.1191 3.08255 106.117 1.63893C102.677 14.8512 95.4242 22.8086 84.3601 25.5113ZM84.3601 25.5113C68.6043 21.102 59.5472 13.28 57.1887 2.04531C69.8118 4.12279 78.869 11.9448 84.3601 25.5113Z" stroke="black" stroke-width="1.84907" stroke-linecap="round" stroke-linejoin="round"/>
<path d="M42.8891 114.152C40.8214 113.716 38.6839 111.73 36.4767 108.193C33.8746 104.002 33.6887 100.315 35.9191 97.1312C36.6858 96.4509 37.7081 96.0564 38.9859 95.9475L39.3693 96.4373C37.4641 90.0699 36.3257 84.41 35.954 79.4576C35.6519 64.3554 39.0324 52.641 46.0953 44.3144C57.1776 32.1783 70.4555 27.5932 85.9289 30.5592C90.622 31.8925 94.8156 33.4708 98.5097 35.2939L98.5446 35.3347C107.304 40.4232 113.112 46.5457 115.97 53.7023C120.663 64.1513 122.266 76.5324 120.779 90.8454C119.803 93.4305 119.675 97.934 120.396 104.356C121.116 110.778 118.49 116.655 112.519 121.989C106.525 127.322 94.2929 129.404 75.8224 128.234C62.8117 126.438 54.1805 122.968 49.9288 117.825L46.5135 113.295C45.9327 114.193 44.7246 114.478 42.8891 114.152Z" fill="#FFEFFF"/>
<path d="M38.2192 104.764C37.197 103.866 36.9879 102.791 37.5919 101.539C38.196 100.288 38.893 100.179 39.6829 101.213C40.7284 102.628 41.7623 104.437 42.7846 106.642L42.924 106.886L43.0982 107.335L43.1679 107.499L43.2725 107.703C42.8078 108.465 42.4825 109.186 42.2967 109.866M42.2967 109.866L42.1921 110.397M42.2967 109.866C41.2279 109.648 40.4148 108.75 39.8572 107.172" stroke="#54453C" stroke-width="0.754311" stroke-linecap="round" stroke-linejoin="round"/>
<path d="M46.7226 112.886L46.5135 113.295M46.5135 113.295L49.9288 117.825C54.1805 122.968 62.8117 126.438 75.8224 128.234C94.2929 129.404 106.525 127.322 112.519 121.989C118.49 116.655 121.116 110.778 120.396 104.356C119.675 97.934 119.803 93.4305 120.779 90.8454C122.266 76.5324 120.663 64.1513 115.97 53.7023C113.112 46.5457 107.304 40.4232 98.5446 35.3347L98.5097 35.2939C94.8156 33.4708 90.622 31.8925 85.9289 30.5592C70.4555 27.5932 57.1776 32.1783 46.0953 44.3144C39.0324 52.641 35.6519 64.3554 35.954 79.4576C36.3257 84.41 37.4641 90.0699 39.3693 96.4373M46.5135 113.295C45.9327 114.193 44.7246 114.478 42.8891 114.152C40.8214 113.716 38.6839 111.73 36.4767 108.193C33.8746 104.002 33.6887 100.315 35.9191 97.1312C36.6858 96.4509 37.7081 96.0564 38.9859 95.9475L39.3693 96.4373M39.3693 96.4373L39.9617 96.8455L40.3451 97.1312L41.8436 98.8455" stroke="#54453C" stroke-width="1.65948" stroke-linecap="round" stroke-linejoin="round"/>
<path d="M84.4944 92.3979C85.1523 94.5098 85.2619 96.9356 84.8233 99.6752C84.3604 102.386 83.4953 104.655 82.2283 106.482C76.8189 105.854 71.4715 105.745 66.186 106.156C64.843 106.302 63.6304 105.592 62.548 104.026C60.5864 99.2504 59.6031 94.9626 59.598 91.1622C65.5679 87.9658 72.0026 87.1649 78.9022 88.7593C81.2414 89.8152 83.1055 91.0281 84.4944 92.3979Z" fill="white"/>
<path d="M74.9831 106.26L72.4107 106.173C71.4165 106.115 70.5839 105.693 69.9128 104.907C68.7944 103.713 68.0985 101.122 67.8251 97.1345C67.8003 92.7099 68.1855 89.7699 68.9808 88.3144L70.994 87.9214L73.0072 87.7905L75.766 88.0088L78.4129 88.6201L81.0971 89.6243C82.0664 91.8075 82.576 94.4856 82.6257 97.6585C82.402 100.919 81.7931 103.247 80.7989 104.645L80.7616 104.688C80.1403 105.503 79.3325 105.998 78.3383 106.173L77.1826 106.26L77.0335 106.348L76.9589 106.479L75.766 106.391L75.2067 106.479L75.1695 106.348L75.0203 106.26H74.9831Z" fill="#A486FF"/>
<path d="M74.3551 106.395C72.6738 105.607 71.581 104.508 71.0766 103.096C70.5722 101.554 71.1046 100.701 72.6738 100.536C73.6266 100.635 74.5093 101.193 75.3219 102.21C76.4147 101.062 77.4235 100.586 78.3482 100.783C79.2729 100.947 79.5812 101.767 79.2729 103.244C78.9367 104.721 77.8859 105.771 76.1205 106.395H74.3551Z" fill="white" fill-opacity="0.498039"/>
<path d="M75.0643 106.259L75.1008 106.388L75.0643 106.559L74.9181 106.602L73.0906 106.559C71.0438 106.644 69.6792 106.388 68.997 105.788C67.6324 104.561 66.7918 101.736 66.475 97.3123C66.4506 92.1183 67.0111 88.8079 68.1563 87.3809C72.5423 86.2109 77.1354 86.696 81.9357 88.8364C83.1053 91.2622 83.7144 94.2587 83.7632 97.826C83.5195 101.45 82.7763 104.019 81.5336 105.531C80.9975 106.302 79.901 106.63 78.2441 106.516L77.1111 106.602L76.9649 106.559L76.8918 106.388L76.9649 106.259C76.9892 106.202 77.0258 106.174 77.0745 106.174L78.2076 106.088C79.1822 105.917 79.9741 105.432 80.5833 104.632L80.6199 104.59C81.5945 103.22 82.1915 100.937 82.4108 97.7404C82.3621 94.6297 81.8626 92.0042 80.9123 89.8638L78.2807 88.8792L75.6856 88.2799L72.9809 88.0659L71.0072 88.1943L69.0335 88.5796C68.2538 90.0065 67.8761 92.8889 67.9005 97.2267C68.1685 101.136 68.8508 103.676 69.9473 104.846C70.6052 105.617 71.4214 106.031 72.3961 106.088L74.9181 106.174L75.0643 106.259Z" fill="black"/>
<path d="M84.589 93.4642C82.0061 92.0658 78.1806 91.5379 73.1123 91.8803C68.044 92.2228 63.6811 93.2343 60.0233 94.9148C59.5847 92.7744 59.4033 90.7783 59.4792 88.9266C65.449 85.7303 71.7722 84.9027 78.4486 86.4438C80.7878 87.4997 82.6519 88.7126 84.0408 90.0824C84.6987 91.9089 84.8814 93.0362 84.589 93.4642Z" fill="black" fill-opacity="0.247059"/>
<path d="M79.6476 85.4307C76.8211 83.5757 73.3488 82.4484 69.2308 82.0489C74.9326 80.7361 78.4049 81.8634 79.6476 85.4307Z" fill="black"/>
<path d="M84.4573 93.4403C83.0684 92.2132 81.2043 91.1287 78.8651 90.1869C72.1887 88.7885 65.8655 89.5305 59.8957 92.4129C59.8957 94.0682 60.115 95.8518 60.5536 97.7639C60.9922 99.676 61.6623 101.702 62.5638 103.843L62.7831 104.356C56.326 100.304 52.3786 95.966 50.9409 91.3427C54.7909 87.8325 59.0185 85.4067 63.6238 84.0654C69.4474 82.6956 74.6741 83.195 79.3037 85.5637C83.909 87.8753 86.6746 91.6281 87.6006 96.8221C86.8208 95.7091 85.7731 94.5819 84.4573 93.4403ZM66.1823 106.154L75.137 105.683H76.7087L82.1912 106.069H82.447L82.0815 106.625H66.6574L66.1823 106.154Z" fill="black"/>
<path d="M72.1881 97.6531C72.1881 98.3073 71.7419 98.8525 70.8496 99.2886C69.2351 99.494 68.1132 99.6057 67.4838 99.6239C66.8545 99.6421 65.7881 99.5304 64.2846 99.2886C63.3497 98.8525 62.8823 98.3073 62.8823 97.6531C62.8823 97.0534 63.3404 96.5725 64.2565 96.2106C64.7084 95.7402 65.792 95.5221 67.5071 95.5564C68.5716 95.5928 69.6857 95.7738 70.8496 96.0993C71.7419 96.5354 72.1881 97.0534 72.1881 97.6531Z" fill="white"/>
<path d="M101.343 92.764C100.892 94.8022 100.817 97.1434 101.117 99.7875C101.435 102.404 102.029 104.594 102.898 106.356C106.609 105.751 110.277 105.646 113.904 106.042C114.825 106.183 115.657 105.498 116.399 103.986C117.745 99.3775 118.42 95.2392 118.423 91.5714C114.328 88.4866 109.913 87.7135 105.18 89.2523C103.575 90.2714 102.296 91.442 101.343 92.764Z" fill="white"/>
<path d="M107.868 106.143L109.633 106.059C110.315 106.002 110.886 105.595 111.347 104.836C112.114 103.685 112.592 101.184 112.779 97.3354C112.796 93.0652 112.532 90.2277 111.986 88.823L110.605 88.4437L109.224 88.3173L107.331 88.528L105.515 89.118L103.674 90.0872C103.009 92.1943 102.659 94.7789 102.625 97.8411C102.779 100.988 103.196 103.235 103.879 104.584L103.904 104.626C104.33 105.412 104.885 105.89 105.567 106.059L106.359 106.143L106.462 106.227L106.513 106.354L107.331 106.269L107.715 106.354L107.741 106.227L107.843 106.143H107.868Z" fill="#A486FF"/>
<path d="M108.299 106.272C109.453 105.512 110.202 104.451 110.548 103.089C110.894 101.601 110.529 100.777 109.453 100.619C108.799 100.714 108.193 101.252 107.636 102.234C106.886 101.125 106.194 100.666 105.56 100.856C104.925 101.015 104.714 101.806 104.925 103.232C105.156 104.657 105.877 105.671 107.088 106.272H108.299Z" fill="white" fill-opacity="0.498039"/>
<path d="M107.813 106.142L107.788 106.266L107.813 106.431L107.913 106.472L109.167 106.431C110.571 106.514 111.507 106.266 111.975 105.687C112.911 104.503 113.488 101.776 113.705 97.507C113.722 92.4942 113.338 89.2992 112.552 87.9221C109.543 86.7928 106.392 87.261 103.099 89.3268C102.296 91.6679 101.878 94.5599 101.845 98.0028C102.012 101.501 102.522 103.98 103.375 105.439C103.742 106.183 104.495 106.5 105.631 106.39L106.409 106.472L106.509 106.431L106.559 106.266L106.509 106.142C106.492 106.087 106.467 106.059 106.434 106.059L105.656 105.976C104.988 105.811 104.444 105.343 104.026 104.572L104.001 104.53C103.333 103.208 102.923 101.005 102.773 97.9202C102.806 94.918 103.149 92.384 103.801 90.3183L105.606 89.3681L107.387 88.7897L109.242 88.5831L110.596 88.707L111.95 89.0789C112.485 90.456 112.744 93.2379 112.727 97.4244C112.544 101.198 112.076 103.649 111.323 104.778C110.872 105.522 110.312 105.921 109.643 105.976L107.913 106.059L107.813 106.142Z" fill="black"/>
<path d="M101.278 93.7932C103.05 92.4435 105.675 91.934 109.152 92.2645C112.629 92.595 115.622 93.5712 118.132 95.1931C118.432 93.1274 118.557 91.201 118.505 89.4138C114.409 86.329 110.071 85.5303 105.491 87.0176C103.886 88.0367 102.607 89.2072 101.654 90.5293C101.203 92.2921 101.078 93.38 101.278 93.7932Z" fill="black" fill-opacity="0.247059"/>
<path d="M102.624 86.5199C104.563 84.7296 106.945 83.6416 109.77 83.256C105.858 81.9891 103.476 83.077 102.624 86.5199Z" fill="black"/>
<path d="M101.369 93.7701C102.322 92.5857 103.6 91.5391 105.205 90.6302C109.785 89.2806 114.123 89.9967 118.219 92.7785C118.219 94.376 118.069 96.0975 117.768 97.9428C117.467 99.7882 117.007 101.744 116.389 103.809L116.238 104.305C120.668 100.394 123.376 96.2076 124.362 91.7457C121.721 88.3579 118.821 86.0167 115.661 84.7222C111.666 83.4001 108.08 83.8821 104.904 86.1682C101.745 88.3992 99.8474 92.0211 99.2122 97.0339C99.7471 95.9597 100.466 94.8718 101.369 93.7701ZM113.906 106.04L107.763 105.586H106.685L102.923 105.958H102.748L102.999 106.495H113.58L113.906 106.04Z" fill="black"/>
<path d="M108.035 97.8889C108.035 98.5432 107.588 99.0883 106.696 99.5245C105.082 99.7298 103.96 99.8416 103.33 99.8598C102.701 99.878 102.074 99.8964 101.45 99.915C100.959 98.8875 100.938 98.2453 101.387 97.9884C101.387 97.3887 101.309 96.7771 101.152 96.1536C100.905 95.8784 101.638 95.758 103.354 95.7923C104.418 95.8287 105.532 96.0096 106.696 96.3351C107.588 96.7713 108.035 97.2892 108.035 97.8889Z" fill="white"/>
<path d="M94.4048 117.905C90.3597 117.92 88.0252 117.11 87.4015 115.475C89.0586 116.171 91.3523 116.436 94.2826 116.269C96.6462 116.127 98.3878 115.715 99.5073 115.034C99.2558 116.592 97.555 117.549 94.4048 117.905Z" fill="#FCBAC6"/>
<path d="M100.327 114.633L99.4796 115.369C98.3601 116.05 96.6185 116.462 94.2549 116.604C91.3246 116.771 89.031 116.507 87.3738 115.81L85.7878 114.724" stroke="black" stroke-width="0.997644" stroke-linecap="round" stroke-linejoin="round"/>
<path d="M74.9279 55.5119C72.8505 67.7237 66.331 77.4666 55.3694 84.7406C57.2258 108.872 60.9165 123.327 66.4415 128.106C63.4359 127.044 60.8171 125.823 58.585 124.442C61.2149 128.239 63.5575 130.92 65.6128 132.486C67.6681 134.053 70.4416 136.654 73.9334 140.291C77.4031 143.902 78.917 150.074 78.475 158.808C75.1158 149.198 69.2372 142.508 60.8392 138.738C53.2368 135.287 47.5018 130.907 43.6343 125.597C35.4131 119.81 30.6616 111.288 29.3798 100.032C28.0759 88.7493 29.6008 75.7543 33.9545 61.047C34.9269 57.7286 36.0982 54.6491 37.4684 51.8085C43.7669 38.2428 56.3087 30.1458 75.0937 27.5176C82.674 26.9867 90.2101 27.5973 97.702 29.3494C108.664 32.5351 116.564 37.9109 121.404 45.477C126.222 53.3616 128.697 63.277 128.83 75.2234C128.962 87.1432 126.001 98.9701 119.946 110.704L121.106 96.687C121.04 83.2274 118.73 72.1306 114.178 63.3965C100.895 55.4588 87.8122 52.8306 74.9279 55.5119Z" fill="#8C10E6"/>
<path d="M74.7234 55.4977C72.646 67.7095 66.1265 77.4524 55.1649 84.7264C57.0213 108.858 60.712 123.313 66.237 128.092C63.2314 127.03 60.6125 125.809 58.3804 124.428C61.0103 128.224 63.3529 130.906 65.4082 132.472C67.4635 134.038 70.2371 136.64 73.7289 140.277C77.1986 143.887 78.7124 150.06 78.2704 158.794C74.9112 149.184 69.0326 142.494 60.6346 138.724C53.0322 135.273 47.2973 130.892 43.4298 125.583C35.2086 119.796 30.457 111.274 29.1752 100.018C27.8714 88.7351 29.3963 75.7401 33.7499 61.0328C34.7223 57.7144 35.8936 54.6349 37.2639 51.7943C43.5624 38.2286 56.1041 30.1316 74.8891 27.5034C82.4694 26.9724 90.0055 27.583 97.4974 29.3352C108.459 32.5209 116.36 37.8967 121.2 45.4627C126.017 53.3473 128.493 63.2628 128.625 75.2092C128.758 87.129 125.796 98.9558 119.741 110.69L120.901 96.6728C120.835 83.2132 118.526 72.1164 113.973 63.3823C100.691 55.4446 87.6077 52.8164 74.7234 55.4977Z" fill="url(#paint2_linear_0_1)"/>
<path d="M110.691 58.0462C111.885 59.7187 112.978 61.4974 113.973 63.3823M113.973 63.3823C118.526 72.1164 120.835 83.2132 120.901 96.6728L119.741 110.69C125.796 98.9558 128.758 87.129 128.625 75.2092C128.493 63.2628 126.017 53.3473 121.2 45.4627C116.36 37.8967 108.459 32.5209 97.4974 29.3352C90.0055 27.583 82.4694 26.9724 74.8891 27.5034C56.1041 30.1316 43.5624 38.2286 37.2639 51.7943C35.8936 54.6349 34.7223 57.7144 33.75 61.0328C29.3963 75.7401 27.8714 88.7351 29.1752 100.018C30.457 111.274 35.2086 119.796 43.4298 125.583M113.973 63.3823C100.691 55.4446 87.6077 52.8164 74.7234 55.4977M43.4298 125.583C41.7944 123.167 40.5236 120.473 39.6175 117.499C35.7058 103.907 36.3909 88.3103 41.6728 70.7094M43.4298 125.583C47.2973 130.892 53.0322 135.273 60.6346 138.724C69.0326 142.494 74.9112 149.184 78.2704 158.794C78.7124 150.06 77.1986 143.887 73.7289 140.277C70.2371 136.64 67.4635 134.038 65.4082 132.472C63.3529 130.906 61.0103 128.224 58.3804 124.428M55.9605 69.9926C55.1649 76.3374 54.8997 81.2487 55.1649 84.7264M55.1649 84.7264C66.1265 77.4524 72.646 67.7095 74.7234 55.4977M55.1649 84.7264C57.0213 108.858 60.712 123.313 66.237 128.092C63.2314 127.03 60.6125 125.809 58.3804 124.428M74.7234 55.4977C74.9665 54.0907 75.1433 52.6704 75.2538 51.2368M58.3804 124.428C51.7283 120.287 47.894 114.433 46.8774 106.867C45.1978 96.0091 46.0155 85.5361 49.3305 75.4481" stroke="black" stroke-width="1.45331" stroke-linecap="round" stroke-linejoin="round"/>
<path d="M128.315 70.7894C130.436 76.7891 133.884 80.811 138.658 82.8552C133.729 85.3241 129.508 84.8462 125.994 81.4216C126.436 90.846 123.265 97.9076 116.48 102.606L114.955 103.562C118.712 95.1466 119.033 83.7578 115.917 69.3956C116.602 75.0768 116.337 80.8907 115.121 86.8373C112.756 85.855 109.198 85.4037 104.447 85.4834C104.778 78.4218 103.773 68.7718 101.43 56.5334C102.115 66.8603 101.729 76.2714 100.27 84.7666C98.1042 85.5365 95.3417 85.563 91.9825 84.8462C88.6012 84.0764 86.3359 84.0233 85.1867 84.687C86.6895 78.6341 87.2752 69.6478 86.9437 57.728C85.7503 69.0903 84.2254 77.997 82.369 84.448C79.8054 83.0676 76.634 82.5233 72.8549 82.8154C72.7665 78.5943 73.4185 73.4574 74.8108 67.4046C73.1533 72.6344 71.982 77.851 71.2969 83.0543C68.0703 83.5852 64.4901 84.7666 60.5563 86.5984C60.3795 83.7843 60.4458 80.957 60.7552 78.1165C58.1253 95.0803 60.0148 105.5 66.4238 109.376C64.1917 108.686 62.1696 107.876 60.3574 106.947C52.1804 103.416 48.0808 96.1953 48.0587 85.2843L48.2576 80.7447C45.5835 86.0011 40.8762 86.1869 34.1357 81.3022C38.9977 80.665 44.7658 75.2361 51.44 65.0153C52.9649 60.5022 55.0423 56.2148 57.6722 52.1531L58.2689 51.3566C66.9763 40.4456 78.7114 36.0653 93.4742 38.2157C106.955 39.9943 117.055 45.7419 123.773 55.4582L128.315 70.7894Z" fill="#8C10E6"/>
<path d="M128.315 70.7894C130.436 76.7891 133.884 80.811 138.658 82.8552C133.729 85.3241 129.508 84.8462 125.994 81.4216C126.436 90.846 123.265 97.9076 116.48 102.606L114.955 103.562C118.712 95.1466 119.033 83.7578 115.917 69.3956C116.602 75.0768 116.337 80.8907 115.121 86.8373C112.756 85.855 109.198 85.4037 104.447 85.4834C104.778 78.4218 103.773 68.7718 101.43 56.5334C102.115 66.8603 101.729 76.2714 100.27 84.7666C98.1042 85.5365 95.3417 85.563 91.9825 84.8462C88.6012 84.0764 86.3359 84.0233 85.1867 84.687C86.6895 78.6341 87.2752 69.6478 86.9437 57.728C85.7503 69.0903 84.2254 77.997 82.369 84.448C79.8054 83.0676 76.634 82.5233 72.8549 82.8154C72.7665 78.5943 73.4185 73.4574 74.8108 67.4046C73.1533 72.6344 71.982 77.851 71.2969 83.0543C68.0703 83.5852 64.4901 84.7666 60.5563 86.5984C60.3795 83.7843 60.4458 80.957 60.7552 78.1165C58.1253 95.0803 60.0148 105.5 66.4238 109.376C64.1917 108.686 62.1696 107.876 60.3574 106.947C52.1804 103.416 48.0808 96.1953 48.0587 85.2843L48.2576 80.7447C45.5835 86.0011 40.8762 86.1869 34.1357 81.3022C38.9977 80.665 44.7658 75.2361 51.44 65.0153C52.9649 60.5022 55.0423 56.2148 57.6722 52.1531L58.2689 51.3566C66.9763 40.4456 78.7114 36.0653 93.4742 38.2157C106.955 39.9943 117.055 45.7419 123.773 55.4582L128.315 70.7894Z" fill="url(#paint3_linear_0_1)"/>
<path d="M86.7116 52.4849L86.9437 58.0598M86.9437 58.0598C87.2752 69.9796 86.6895 78.9659 85.1867 85.0188C86.3359 84.3551 88.6012 84.4082 91.9825 85.1781C95.3417 85.8948 98.1042 85.8683 100.27 85.0984C101.729 76.6032 102.115 67.1922 101.43 56.8652M86.9437 58.0598C85.7503 69.4221 84.2254 78.3288 82.369 84.7798C79.8054 83.3994 76.634 82.8551 72.8549 83.1472C72.7665 78.9261 73.4185 73.7892 74.8108 67.7364C73.1533 72.9662 71.982 78.1828 71.2969 83.3861C68.0703 83.917 64.4901 85.0984 60.5563 86.9302C60.3795 84.1162 60.4458 81.2888 60.7552 78.4483M101.43 56.8652L101.032 52.445M101.43 56.8652C103.773 69.1036 104.778 78.7536 104.447 85.8152C109.198 85.7355 112.756 86.1869 115.121 87.1691C116.337 81.2225 116.602 75.4086 115.917 69.7274M115.917 69.7274C115.276 64.3383 114.701 60.2765 114.193 57.5422M115.917 69.7274C119.033 84.0896 118.712 95.4785 114.955 103.894L116.48 102.938C123.265 98.2394 126.436 91.1778 125.994 81.7534M123.773 55.79L128.315 71.1212C130.436 77.1209 133.884 81.1428 138.658 83.187C133.729 85.6559 129.508 85.178 125.994 81.7534M125.994 81.7534C126.039 81.3552 125.818 79.2049 125.331 75.3024M58.2689 51.6884L57.6722 52.4849C55.0423 56.5466 52.9649 60.834 51.44 65.3471M51.44 65.3471C49.7162 70.3115 48.6554 75.5546 48.2576 81.0765M51.44 65.3471C44.7658 75.5679 38.9977 80.9968 34.1357 81.634C40.8762 86.5187 45.5835 86.3329 48.2576 81.0765M48.2576 81.0765L48.0587 85.6161C48.0808 96.5271 52.1804 103.748 60.3574 107.279C62.1696 108.208 64.1917 109.018 66.4238 109.708C60.0148 105.832 58.1253 95.4121 60.7552 78.4483M60.7552 78.4483V78.289C61.3961 72.3955 63.0315 66.5019 65.6614 60.6084" stroke="black" stroke-width="1.45331" stroke-linecap="round" stroke-linejoin="round"/>
<path d="M53.4073 66.9885C51.8886 69.1389 50.999 71.11 50.7383 72.902C50.455 74.8267 50.7836 76.0213 51.7243 76.4859C52.7556 76.6585 53.2486 76.081 53.2033 74.7537C53.0446 72.8688 53.6566 71.0901 55.0393 69.4176C54.858 68.6212 54.943 67.6854 55.2943 66.6102C54.603 66.9155 53.974 67.0416 53.4073 66.9885Z" fill="#00B862"/>
<path d="M51.3479 56.3905C50.0559 58.1958 50.1296 59.8616 51.5689 61.3881C50.4923 63.1004 50.4696 64.6667 51.5009 66.087C51.9656 66.6843 52.5323 67.0162 53.2009 67.0825C53.7676 67.1356 54.3966 67.0095 55.0879 66.7042C54.7366 67.7794 54.6516 68.7152 54.8329 69.5116C54.9689 70.0426 55.2239 70.5005 55.5979 70.8854C56.8106 72.0934 58.1479 72.0668 59.6099 70.8058C60.9133 72.4916 62.3413 72.5845 63.8939 71.0846C65.1293 69.3988 65.2596 67.8789 64.2849 66.525C65.4523 67.64 66.7499 67.4874 68.1779 66.0671C69.4813 64.222 69.4076 62.5429 67.9569 61.0297C69.0449 59.3041 69.0733 57.7312 68.0419 56.3109C67.1919 55.2623 65.9906 55.0764 64.4379 55.7534C65.0159 53.9349 64.8516 52.5213 63.9449 51.5124C62.7323 50.3045 61.3893 50.3377 59.9159 51.612C58.6239 49.913 57.1959 49.8333 55.6319 51.3731C54.4079 53.0323 54.2719 54.5455 55.2239 55.9127C54.0793 54.7844 52.7873 54.9437 51.3479 56.3905Z" fill="#44FF00"/>
<path d="M55.2239 56.0691C54.0793 54.9408 52.7873 55.1001 51.3479 56.5469C50.0559 58.3521 50.1296 60.018 51.5689 61.5445C50.4923 63.2568 50.4696 64.8231 51.5009 66.2434C51.9656 66.8407 52.5323 67.1725 53.2009 67.2389M55.2239 56.0691C54.2719 54.7019 54.4079 53.1887 55.6319 51.5294C57.1959 49.9897 58.6239 50.0693 59.9159 51.7684C61.3893 50.4941 62.7323 50.4609 63.9449 51.6688C64.8516 52.6776 65.0159 54.0913 64.4379 55.9098M55.2239 56.0691L59.7629 61.3852M53.2009 67.2389C51.6823 69.3892 50.7926 71.3604 50.5319 73.1523C50.2486 75.077 50.5773 76.2717 51.5179 76.7362C52.5493 76.9088 53.0423 76.3314 52.9969 75.004C52.8383 73.1192 53.4503 71.3405 54.8329 69.668M53.2009 67.2389C53.7676 67.292 54.3966 67.1659 55.0879 66.8606M54.8329 69.668C54.9689 70.1989 55.2239 70.6569 55.5979 71.0418C56.8106 72.2497 58.1479 72.2232 59.6099 70.9622C60.9133 72.6479 62.3413 72.7409 63.8939 71.2409C65.1293 69.5552 65.2596 68.0353 64.2849 66.6814M54.8329 69.668C54.6516 68.8716 54.7366 67.9358 55.0879 66.8606M64.2849 66.6814C65.4523 67.7964 66.7499 67.6437 68.1779 66.2235C69.4813 64.3784 69.4076 62.6993 67.9569 61.1861C69.0449 59.4605 69.0733 57.8876 68.0419 56.4673C67.1919 55.4186 65.9906 55.2328 64.4379 55.9098M64.2849 66.6814L59.7629 61.3852M64.4379 55.9098L59.7629 61.3852M59.7629 61.3852L55.0879 66.8606" stroke="black" stroke-width="0.735913" stroke-linecap="round" stroke-linejoin="round"/>
<path d="M57.485 88.7774V94.5565H57.3767L48.5983 93.7053C48.8632 95.4973 48.9957 97.2145 48.9957 98.8572L57.485 99.3948V105.353L49.971 104.905L49.8988 104.86V104.905C49.4894 106.249 48.9836 107.503 48.3815 108.668L47.4062 110.46C43.3602 115.836 38.6157 117.255 33.1729 114.716C31.7279 113.969 30.3552 112.745 29.0547 111.042C26.55 107.727 25.1291 103.471 24.7919 98.2748C24.3343 93.2275 25.0448 88.7177 26.9233 84.7455C27.5495 83.5808 28.2479 82.5653 29.0185 81.6992C32.8719 76.7714 37.8692 76.1143 44.0104 79.7281C44.757 80.4747 45.5277 81.3856 46.3224 82.4608C47.5025 84.1333 48.4779 86.0447 49.2485 88.1951L57.485 88.7774ZM35.0875 86.9855C33.4017 86.9855 31.9808 87.9263 30.8248 89.8078C29.6929 91.7491 29.1269 94.0637 29.1269 96.7516C29.151 99.4694 29.7772 101.784 31.0054 103.695C32.1614 105.696 33.6064 106.712 35.3404 106.742C37.0262 106.742 38.4833 105.786 39.7115 103.875C40.8435 101.963 41.3853 99.6337 41.3372 96.886C41.3372 94.1981 40.711 91.8984 39.4587 89.987C38.2545 88.0159 36.7975 87.0154 35.0875 86.9855Z" fill="#00AAFF" fill-opacity="0.3216"/>
<path d="M41.1796 96.8428C41.2278 99.5905 40.6859 101.92 39.554 103.831C38.3257 105.743 36.8687 106.699 35.1829 106.699C33.4489 106.669 32.0039 105.653 30.8479 103.652C29.6196 101.741 28.9934 99.4262 28.9694 96.7084C28.9694 94.0205 29.5353 91.7059 30.6672 89.7646C31.8232 87.8831 33.2442 86.9423 34.93 86.9423C36.6399 86.9722 38.0969 87.9727 39.3011 89.9438C40.5534 91.8552 41.1796 94.1549 41.1796 96.8428ZM57.3275 99.3516L48.8381 98.814C48.8381 97.1714 48.7057 95.4541 48.4407 93.6621L57.2191 94.5133H57.3275V99.3516Z" fill="#00AAFF" fill-opacity="0.32"/>
<path d="M57.3275 94.5133V89.451C58.0259 87.1215 60.1332 85.7477 63.6494 85.3295L63.9023 85.2399L84.8548 85.5983C88.5636 86.0165 90.6829 87.5546 91.2128 90.2126L91.1405 93.1693C94.6326 93.8563 97.2818 93.916 99.088 93.3485V90.6606C99.4974 88.122 101.123 86.6287 103.965 86.1807L119.354 86.7631C122.051 87.1514 123.593 88.6596 123.978 91.2878L123.761 104.817C123.521 108.043 122.027 109.745 119.282 109.924L103.676 109.745C100.786 109.177 99.2566 107.46 99.088 104.593V101.995C95.4755 101.696 92.7782 101.741 90.996 102.129V104.369C90.707 107.684 88.6238 109.446 84.7464 109.655L63.541 109.834C60.0008 109.237 57.9296 107.729 57.3275 105.31V99.3516V94.5133Z" fill="#FF0DAA" fill-opacity="0.216863"/>
<path d="M99.1552 102.038V104.636C99.3238 107.503 100.853 109.221 103.743 109.788L119.349 109.967C122.095 109.788 123.588 108.086 123.829 104.86L124.045 91.331C123.66 88.7028 122.119 87.1945 119.421 86.8063L104.032 86.2239C101.19 86.6719 99.5646 88.1652 99.1552 90.7038V93.3917M99.1552 102.038V93.3917M99.1552 102.038C95.5427 101.739 92.8454 101.784 91.0632 102.172M99.1552 93.3917C97.349 93.9592 94.6998 93.8994 91.2077 93.2125M91.0632 102.172V104.412C90.7742 107.727 88.691 109.489 84.8136 109.698L63.6082 109.878C60.068 109.28 57.9968 107.772 57.3947 105.353M91.0632 102.172L91.2077 93.2125M57.3947 105.353L49.8807 104.905M57.3947 105.353V99.3948V94.5565M49.8807 104.905H49.8085M49.8807 104.905L49.8085 104.86M49.8085 104.905C49.399 106.249 48.8933 107.503 48.2912 108.668L47.3158 110.46C43.2698 115.836 38.5254 117.255 33.0826 114.716C31.6376 113.969 30.2648 112.745 28.9643 111.042C26.4597 107.727 25.0388 103.471 24.7016 98.2748C24.244 93.2275 24.9545 88.7177 26.833 84.7455L28.9282 81.6992C32.7815 76.7714 37.7788 76.1143 43.9201 79.7281C44.6667 80.4747 45.4373 81.3856 46.2321 82.4608C47.4122 84.1333 48.3875 86.0447 49.1582 88.1951M49.8085 104.905V104.86M49.1582 88.1951L57.3947 88.7774V89.4942M49.1582 88.1951H49.1221L47.6771 89.0014L47.7132 89.2702L47.7493 89.4494L48.508 93.7053C48.7729 95.4973 48.9053 97.2145 48.9053 98.8572C48.9053 100.052 48.8331 101.202 48.6886 102.307L48.5441 103.113L48.3996 103.83L49.8085 104.86M57.3947 89.4942C58.0931 87.1647 60.2004 85.7909 63.7166 85.3727L63.9695 85.2831L84.922 85.6415C88.6308 86.0596 90.7501 87.5977 91.28 90.2558L91.2077 93.2125M57.3947 89.4942V94.5565M57.2863 94.5565H57.3947" stroke="black" stroke-width="1.60915" stroke-linecap="round" stroke-linejoin="round"/>
<path d="M48.508 93.7053L57.2864 94.5565M48.9054 98.8572L57.3947 99.3948M30.7345 89.8078C31.8905 87.9263 33.3114 86.9855 34.9972 86.9855C36.7072 87.0154 38.1642 88.0159 39.3684 89.987C40.6207 91.8984 41.2469 94.1981 41.2469 96.886C41.295 99.6337 40.7532 101.963 39.6212 103.875C38.393 105.786 36.936 106.742 35.2501 106.742C33.5161 106.712 32.0711 105.696 30.9151 103.695C29.6869 101.784 29.0607 99.4694 29.0366 96.7516C29.0366 94.0637 29.6026 91.7491 30.7345 89.8078Z" stroke="black" stroke-width="1.12641" stroke-linecap="round" stroke-linejoin="round"/>
<path d="M40.6837 67.9585L38.2348 67.4806L33.1544 66.5249L30.1573 65.9276L29.6821 65.848L31.2172 61.1093L44.3021 63.5782L42.767 67.9187L41.9264 67.9983L40.6837 67.9585ZM29.938 78.5111C30.3766 78.1925 30.8395 77.9536 31.3269 77.7943C31.8873 77.5554 32.4721 77.4094 33.0813 77.3563H33.1909C34.2874 77.2501 35.457 77.3961 36.6997 77.7943L36.4073 79.865C37.3089 80.8207 38.5638 80.8207 40.172 79.865L40.5009 77.6749L41.8167 78.5509C45.5448 80.9667 48.347 85.6922 50.2232 92.7273C51.3197 99.1783 51.4172 105.205 50.5156 110.806C49.2729 117.523 45.5326 120.868 39.2948 120.841C38.0277 121 36.6753 120.775 35.2377 120.164C37.6256 120.881 39.9283 120.084 42.1457 117.775C44.7285 113.66 45.7032 107.594 45.0697 99.5765C43.9975 91.745 41.8289 85.878 38.5638 81.9755C35.8591 79.5863 32.5817 78.7235 28.7318 79.3872C29.0973 79.0686 29.4994 78.7766 29.938 78.5111Z" fill="#263035"/>
<path d="M29.6035 92.9844L33.0392 92.8252L33.8068 98.4798C35.2444 99.1169 36.085 100.139 36.3287 101.546C36.2069 103.139 35.5246 103.909 34.2819 103.856C33.1123 103.67 32.3691 102.727 32.0524 101.028L31.6869 95.6923C30.8097 95.4268 30.1152 94.5242 29.6035 92.9844ZM31.9793 106.404L33.8068 106.086L34.2454 107.878C34.7083 108.063 34.9398 108.409 34.9398 108.913C34.8423 109.709 34.5134 110.015 33.953 109.829C33.3925 109.59 33.1367 109.205 33.1854 108.674L32.9661 107.32L31.9793 106.404Z" fill="#60A9BB"/>
<path d="M31.327 77.7943C30.8396 77.9536 30.3767 78.1925 29.9381 78.5111C29.4995 78.7766 29.0974 79.0686 28.7319 79.3872L27.9644 80.1836C28.3786 75.7236 29.1096 70.9716 30.1574 65.9276L33.1545 66.5249L31.327 77.7943ZM38.2349 67.4806L40.6838 67.9585L41.9265 67.9983L40.501 77.6749L40.1721 79.865C38.5639 80.8207 37.309 80.8207 36.4074 79.865L36.6998 77.7943L38.2349 67.4806ZM30.0477 87.1523C31.7046 85.055 33.7636 85.5993 36.2247 88.785C38.5882 93.6431 39.7091 99.0721 39.5873 105.072C39.4167 109.585 38.1618 112.173 35.8226 112.837C34.7505 112.943 33.7758 112.611 32.8986 111.841C29.6822 107.912 28.074 101.966 28.074 94.0015C28.1471 91.0813 28.805 88.7982 30.0477 87.1523ZM31.729 95.913L32.0945 101.249C32.4113 102.948 33.1545 103.89 34.3241 104.076C35.5668 104.129 36.249 103.36 36.3709 101.767C36.1272 100.36 35.2865 99.3376 33.8489 98.7004L33.0814 93.0458L29.6457 93.2051C30.1574 94.7449 30.8518 95.6475 31.729 95.913ZM33.0083 107.541L33.2276 108.895C33.1788 109.426 33.4347 109.811 33.9951 110.049C34.5555 110.235 34.8845 109.93 34.982 109.134C34.982 108.629 34.7505 108.284 34.2875 108.098L33.8489 106.306L32.0214 106.625L33.0083 107.541Z" fill="#B8B8B8"/>
<path d="M31.2037 61.423C34.5419 51.8128 39.5493 43.769 46.2257 37.2914C53.0728 30.2298 61.8813 26.168 72.6514 25.1061C83.7382 23.9115 93.4361 24.9734 101.745 28.2918C102.939 29.0351 103.731 29.6457 104.121 30.1236C104.486 30.5749 104.694 31.066 104.742 31.597L104.56 33.1898C99.272 31.5173 92.3275 30.9731 83.726 31.5571C71.7376 32.6721 62.3077 37.2383 55.4363 45.2556C50.5874 51.0961 46.8714 57.3082 44.2886 63.8919L31.2037 61.423ZM38.5502 82.2893C41.8154 86.1918 43.984 92.0588 45.0561 99.8903C45.6897 107.908 44.715 113.974 42.1321 118.089C39.9148 120.398 37.6121 121.195 35.2242 120.478C34.3713 120.239 33.4941 119.801 32.5926 119.164C28.9132 116.323 26.2938 111.345 24.7343 104.231C23.6135 97.2488 23.8815 90.904 25.5384 85.1963L25.8308 84.2007V84.0016L26.5253 82.4884C26.9151 81.7451 27.3903 81.0814 27.9507 80.4974L28.7183 79.7009C32.5682 79.0373 35.8455 79.9 38.5502 82.2893ZM28.0604 94.3153C28.0604 102.28 29.6686 108.226 32.885 112.155C33.7622 112.925 34.7368 113.257 35.809 113.151C38.1482 112.487 39.4031 109.899 39.5736 105.386C39.6955 99.3859 38.5746 93.9569 36.211 89.0987C33.75 85.913 31.691 85.3688 30.0341 87.4661C28.7914 89.112 28.1335 91.3951 28.0604 94.3153Z" fill="#BB3D3D"/>
<path d="M105.473 31.3611C105.425 30.8301 105.217 30.339 104.852 29.8877C104.462 29.4099 103.67 28.7993 102.476 28.0559C94.1671 24.7375 84.4692 23.6756 73.3823 24.8702C62.6123 25.9321 53.8037 29.9939 46.9567 37.0555C40.2802 43.5331 35.2729 51.577 31.9346 61.1871M105.473 31.3611L105.29 32.9539C100.003 31.2815 93.0584 30.7372 84.457 31.3213C72.4686 32.4363 63.0387 37.0024 56.1673 45.0198C51.3183 50.8602 47.6024 57.0723 45.0195 63.6561L43.4844 67.9966L42.6438 68.0762L41.2183 77.7528L42.5341 78.6288C46.2622 81.0446 49.0644 85.7701 50.9406 92.8052C52.0371 99.2562 52.1346 105.282 51.233 110.884C49.9903 117.6 46.2501 120.945 40.0122 120.919C38.7451 121.078 37.3928 120.853 35.9551 120.242C35.1023 120.003 34.2251 119.565 33.3235 118.928C29.6442 116.087 27.0248 111.11 25.4653 103.995C24.3444 97.0129 24.6125 90.6681 26.2694 84.9604L26.5618 83.9649V83.7657L27.2562 82.2525C27.6461 81.5092 28.1213 80.8455 28.6817 80.2615C29.0959 75.8015 29.8269 71.0495 30.8747 66.0055L30.3995 65.9259L31.9346 61.1871" stroke="black" stroke-width="1.52602" stroke-linecap="round" stroke-linejoin="round"/>
<path d="M31.2036 61.1871L41.8762 63.3375M41.8762 63.3375C44.6784 56.1962 48.7598 49.2275 54.1205 42.4314C59.7979 36.0334 67.7658 31.7726 78.0242 29.6488C86.5281 28.109 95.4342 28.6798 104.742 31.3611M41.8762 63.3375C41.2914 64.9834 40.8894 66.5497 40.6701 68.0364M41.8762 63.3375L44.2885 63.656M30.1437 66.0055L33.1408 66.6028M33.1408 66.6028L38.2212 67.5585M33.1408 66.6028L31.3133 77.8722M38.2212 67.5585L40.6701 68.0364M38.2212 67.5585L36.8689 76.9165M40.6701 68.0364L41.9128 68.0762M40.4873 77.7527L40.2315 79.5049M40.2315 79.5049C43.9352 83.8056 46.3719 89.4602 47.5415 96.4687C48.4918 102.097 48.1872 107.765 46.6277 113.472C45.2876 118.038 42.8387 120.521 39.2812 120.919M40.2315 79.5049L40.1584 79.9429C38.5502 80.8986 37.2953 80.8986 36.3937 79.9429L36.6861 77.8722M36.6861 77.8722C35.4434 77.474 34.2738 77.328 33.1773 77.4342M36.6861 77.8722L36.8689 76.9165M33.1773 77.4342H33.0677C32.4585 77.4873 31.8737 77.6333 31.3133 77.8722M33.1773 77.4342L36.8689 76.9165M31.3133 77.8722C30.8259 78.0315 30.363 78.2704 29.9244 78.589L28.7182 79.465M28.7182 79.465C32.5682 78.8014 35.8455 79.6642 38.5502 82.0534C41.8153 85.9559 43.9839 91.8229 45.0561 99.6544C45.6896 107.672 44.7149 113.738 42.1321 117.853C39.9147 120.162 37.6121 120.959 35.2241 120.242M28.7182 79.465L27.9507 80.2615M30.034 87.2302C31.691 85.1329 33.7499 85.6771 36.211 88.8628C38.5745 93.721 39.6954 99.15 39.5736 105.15C39.403 109.663 38.1481 112.251 35.8089 112.915C34.7368 113.021 33.7621 112.689 32.8849 111.919C29.6685 107.99 28.0603 102.044 28.0603 94.0794C28.1334 91.1592 28.7913 88.8761 30.034 87.2302ZM29.632 93.283L33.0677 93.1237L33.8352 98.7783C35.2729 99.4154 36.1135 100.438 36.3572 101.845C36.2353 103.437 35.5531 104.207 34.3104 104.154C33.1408 103.968 32.3976 103.026 32.0808 101.327L31.7153 95.9908C30.8381 95.7254 30.1437 94.8227 29.632 93.283ZM32.0077 106.703L33.8352 106.384L34.2738 108.176C34.7368 108.362 34.9683 108.707 34.9683 109.211C34.8708 110.008 34.5419 110.313 33.9814 110.127C33.421 109.888 33.1651 109.503 33.2139 108.973L32.9946 107.619L32.0077 106.703Z" stroke="black" stroke-width="0.763011" stroke-linecap="round" stroke-linejoin="round"/>
<path d="M65.4427 166.837C63.8847 170.967 61.7391 172.327 59.0057 170.919C56.2724 169.51 55.7257 166.037 57.3657 160.499C59.0057 154.928 60.9601 149.406 63.2287 143.932C64.6501 140.731 67.2467 138.602 71.0187 137.545C72.4947 138.826 72.6724 141.755 71.5517 146.333L65.4427 166.837Z" fill="#FFEFFF"/>
<path d="M71.3815 137.545C67.6095 138.602 65.0129 140.731 63.5915 143.932C61.3229 149.406 59.3685 154.928 57.7285 160.499C56.0885 166.037 56.6352 169.51 59.3685 170.919C62.1019 172.327 64.2475 170.967 65.8055 166.837L71.9145 146.333" stroke="#54453C" stroke-width="1.77485" stroke-linecap="round" stroke-linejoin="round"/>
<path d="M57.7462 161.291L59.3862 161.147C59.9602 161.051 60.9852 161.275 62.4612 161.819C63.9098 162.363 65.1125 163.18 66.0692 164.268C66.2605 164.428 66.2878 164.508 66.1512 164.508L65.4952 167.63C64.8665 170.191 64.1695 172.576 63.4042 174.784L62.2152 178.29L61.9282 179.25L61.6002 180.499L61.5182 180.739L61.3541 181.411L61.1082 182.612L60.8212 184.196L60.6162 185.589C60.4248 186.965 60.4385 188.198 60.6572 189.286L61.1491 193.08C61.2585 194.521 60.6298 195.401 59.2632 195.721C57.8965 196.041 57.1175 195.177 56.9262 193.128C56.8168 194.601 56.4615 195.769 55.8602 196.633C55.2315 197.466 54.1382 198.058 52.5802 198.41C50.9675 198.73 49.5871 198.394 48.4391 197.402C47.2365 196.377 46.5531 194.969 46.3891 193.176C46.2252 191.383 46.7992 189.366 48.1111 187.126L50.8582 182.612C53.0175 176.561 55.1905 169.71 57.3772 162.059L57.7462 161.291Z" fill="#FFEFFF"/>
<path d="M66.1939 164.425L65.5379 167.547C64.9092 170.108 64.2122 172.493 63.4469 174.702L62.2579 178.207L61.9709 179.167L61.6429 180.416L61.5609 180.656L61.3969 181.328L61.1509 182.529L60.8639 184.113L60.6589 185.506C60.4675 186.883 60.4812 188.115 60.6999 189.204C60.9185 190.26 61.0825 191.525 61.1919 192.997C61.3012 194.438 60.6725 195.318 59.3059 195.638C57.9392 195.958 57.1602 195.094 56.9689 193.045C56.8595 194.518 56.5042 195.686 55.9029 196.551C55.2742 197.383 54.1809 197.975 52.6229 198.327C51.0102 198.647 49.6299 198.311 48.4819 197.319C47.2792 196.294 46.5959 194.886 46.4319 193.093C46.2679 191.3 46.8419 189.284 48.1539 187.043L50.9009 182.529C53.0602 176.478 55.2332 169.628 57.4199 161.976L57.7889 161.208" stroke="#54453C" stroke-width="1.77485" stroke-linecap="round" stroke-linejoin="round"/>
<path d="M73.8083 137.455C74.0543 140.4 73.576 143.185 72.3733 145.811C71.8813 148.372 70.9657 151.797 69.6263 156.087L66.1823 167.083C64.3237 171.437 62.055 172.782 59.3763 171.117L58.3923 170.397C57.627 169.724 57.0257 168.892 56.5883 167.9L55.8503 165.547C57.1623 159.336 59.513 151.845 62.9023 143.073C63.531 141.409 64.515 139.888 65.8543 138.512L67.6993 137.359L70.8563 136.111L72.2503 136.351L73.8083 137.455Z" fill="#0038F0"/>
<path d="M73.8396 137.455C73.4023 136.943 72.8829 136.575 72.2816 136.351L70.8876 136.111C69.7123 136.431 68.6599 136.847 67.7306 137.359L65.8856 138.512C64.5463 139.888 63.5623 141.409 62.9336 143.073C59.5443 151.845 57.1936 159.336 55.8816 165.547L56.6196 167.9C57.0569 168.892 57.6583 169.724 58.4236 170.397L59.4076 171.117C62.0863 172.782 64.3549 171.437 66.2136 167.083L69.6576 156.087C70.9969 151.797 71.9126 148.372 72.4046 145.811" stroke="black" stroke-width="1.77485" stroke-linecap="round" stroke-linejoin="round"/>
<path d="M64.489 176.927C63.833 180.321 63.1223 182.193 62.357 182.546C58.5303 180.273 54.4303 178.752 50.057 177.984C49.9203 176.703 50.3303 175.103 51.287 173.182L57.437 159.208C58.8583 158.888 60.7307 159.112 63.054 159.88C64.9947 160.777 66.3477 161.913 67.113 163.29L64.489 176.927Z" fill="#0038F0"/>
<path d="M62.1443 183.003C62.6363 184.956 62.4723 186.669 61.6523 188.141C57.2243 185.26 52.728 183.531 48.1633 182.955C48.2453 181.322 48.8057 179.818 49.8443 178.441C54.2177 179.21 58.3177 180.73 62.1443 183.003Z" fill="#001D7D"/>
<path d="M57.4447 159.45C55.258 164.54 53.208 169.198 51.2947 173.423C50.338 175.344 49.928 176.945 50.0647 178.225M50.0647 178.225C54.438 178.994 58.538 180.514 62.3647 182.787M50.0647 178.225C49.026 179.602 48.4657 181.106 48.3837 182.739C52.9483 183.315 57.4447 185.044 61.8727 187.925C62.6927 186.453 62.8567 184.74 62.3647 182.787M62.3647 182.787C63.13 182.435 63.8407 180.562 64.4967 177.169L67.1207 163.531" stroke="black" stroke-width="1.77485" stroke-linecap="round" stroke-linejoin="round"/>
<g opacity="0.5">
<path d="M84.4624 92.436C85.1203 94.5478 85.2299 96.9736 84.7913 99.7133C84.3283 102.424 83.4633 104.693 82.1963 106.52C76.7869 105.892 71.4394 105.783 66.154 106.194C64.811 106.34 63.5983 105.63 62.516 104.064C60.5544 99.2884 59.5711 95.0006 59.566 91.2002C65.5358 88.0039 71.9706 87.2029 78.8702 88.7973C81.2094 89.8532 83.0735 91.0661 84.4624 92.436Z" fill="white"/>
<path d="M74.951 106.298L72.3786 106.211C71.3844 106.153 70.5518 105.731 69.8807 104.945C68.7623 103.751 68.0664 101.161 67.793 97.1726C67.7682 92.748 68.1534 89.8079 68.9487 88.3525L70.9619 87.9595L72.9751 87.8285L75.7339 88.0468L78.3808 88.6581L81.065 89.6624C82.0343 91.8456 82.5439 94.5236 82.5936 97.6965C82.3699 100.957 81.761 103.286 80.7668 104.683L80.7295 104.726C80.1082 105.541 79.3004 106.036 78.3062 106.211L77.1505 106.298L77.0014 106.386L76.9269 106.517L75.7339 106.429L75.1746 106.517L75.1374 106.386L74.9882 106.298H74.951Z" fill="#A486FF"/>
<path d="M74.323 106.433C72.6417 105.645 71.5489 104.546 71.0445 103.134C70.5401 101.592 71.0725 100.739 72.6417 100.574C73.5945 100.673 74.4772 101.231 75.2898 102.248C76.3826 101.1 77.3914 100.624 78.3161 100.821C79.2408 100.985 79.5491 101.805 79.2408 103.282C78.9046 104.759 77.8538 105.809 76.0884 106.433H74.323Z" fill="white" fill-opacity="0.498039"/>
<path d="M75.0322 106.297L75.0687 106.426L75.0322 106.597L74.886 106.64L73.0585 106.597C71.0117 106.682 69.6471 106.426 68.9649 105.826C67.6003 104.599 66.7597 101.774 66.4429 97.3504C66.4186 92.1564 66.979 88.8459 68.1242 87.419C72.5102 86.2489 77.1033 86.7341 81.9036 88.8745C83.0732 91.3002 83.6823 94.2968 83.7311 97.8641C83.4874 101.488 82.7442 104.057 81.5015 105.569C80.9655 106.34 79.869 106.668 78.212 106.554L77.079 106.64L76.9328 106.597L76.8597 106.426L76.9328 106.297C76.9571 106.24 76.9937 106.212 77.0424 106.212L78.1755 106.126C79.1501 105.955 79.9421 105.47 80.5512 104.671L80.5878 104.628C81.5624 103.258 82.1594 100.975 82.3787 97.7785C82.33 94.6678 81.8305 92.0422 80.8802 89.9018L78.2486 88.9173L75.6535 88.318L72.9488 88.1039L70.9751 88.2323L69.0014 88.6176C68.2217 90.0445 67.844 92.9269 67.8684 97.2648C68.1364 101.175 68.8187 103.714 69.9152 104.885C70.5731 105.655 71.3894 106.069 72.364 106.126L74.886 106.212L75.0322 106.297Z" fill="black"/>
<path d="M84.5569 93.5023C81.974 92.1039 78.1485 91.5759 73.0802 91.9184C68.0119 92.2609 63.6489 93.2723 59.9912 94.9529C59.5526 92.8125 59.3712 90.8164 59.4471 88.9647C65.4169 85.7684 71.74 84.9407 78.4165 86.4818C80.7557 87.5377 82.6198 88.7506 84.0087 90.1205C84.6666 91.9469 84.8493 93.0742 84.5569 93.5023Z" fill="black" fill-opacity="0.247059"/>
<path d="M79.6155 85.4687C76.789 83.6137 73.3167 82.4865 69.1988 82.0869C74.9006 80.7742 78.3728 81.9014 79.6155 85.4687Z" fill="black"/>
<path d="M84.4252 93.4784C83.0363 92.2512 81.1722 91.1667 78.833 90.225C72.1565 88.8266 65.8334 89.5686 59.8636 92.451C59.8636 94.1062 60.0829 95.8899 60.5215 97.8019C60.9601 99.714 61.6301 101.74 62.5317 103.881L62.751 104.394C56.2938 100.342 52.3464 96.004 50.9088 91.3808C54.7587 87.8705 58.9864 85.4448 63.5917 84.1035C69.4153 82.7336 74.6419 83.233 79.2716 85.6017C83.8769 87.9134 86.6425 91.6662 87.5685 96.8602C86.7887 95.7472 85.741 94.6199 84.4252 93.4784ZM66.1502 106.192L75.1049 105.721H76.6766L82.1591 106.107H82.4149L82.0494 106.663H66.6253L66.1502 106.192Z" fill="black"/>
<path d="M72.1561 97.6911C72.1561 98.3453 71.7099 98.8905 70.8176 99.3267C69.2031 99.532 68.0812 99.6438 67.4518 99.662C66.8225 99.6802 65.7561 99.5684 64.2526 99.3267C63.3177 98.8905 62.8503 98.3453 62.8503 97.6911C62.8503 97.0914 63.3084 96.6106 64.2245 96.2487C64.6764 95.7782 65.76 95.5602 67.4751 95.5945C68.5396 95.6309 69.6537 95.8118 70.8176 96.1373C71.7099 96.5735 72.1561 97.0914 72.1561 97.6911Z" fill="white"/>
<path d="M101.311 92.8021C100.86 94.8403 100.784 97.1814 101.085 99.8255C101.403 102.442 101.996 104.632 102.866 106.395C106.577 105.789 110.245 105.684 113.871 106.08C114.793 106.221 115.625 105.536 116.367 104.024C117.713 99.4155 118.388 95.2773 118.391 91.6094C114.296 88.5246 109.881 87.7516 105.148 89.2904C103.543 90.3094 102.264 91.48 101.311 92.8021Z" fill="white"/>
<path d="M107.836 106.181L109.601 106.097C110.283 106.04 110.854 105.633 111.315 104.875C112.082 103.723 112.559 101.222 112.747 97.3735C112.764 93.1032 112.5 90.2657 111.954 88.861L110.573 88.4818L109.192 88.3553L107.299 88.5661L105.483 89.156L103.642 90.1253C102.977 92.2323 102.627 94.8169 102.593 97.8792C102.747 101.026 103.164 103.273 103.846 104.622L103.872 104.664C104.298 105.45 104.852 105.928 105.534 106.097L106.327 106.181L106.43 106.265L106.481 106.392L107.299 106.307L107.683 106.392L107.708 106.265L107.811 106.181H107.836Z" fill="#A486FF"/>
<path d="M108.267 106.311C109.421 105.55 110.17 104.489 110.516 103.127C110.862 101.639 110.497 100.815 109.421 100.657C108.767 100.752 108.161 101.29 107.604 102.272C106.854 101.163 106.162 100.704 105.528 100.894C104.893 101.053 104.682 101.844 104.893 103.27C105.124 104.695 105.845 105.709 107.056 106.311H108.267Z" fill="white" fill-opacity="0.498039"/>
<path d="M107.781 106.18L107.756 106.304L107.781 106.469L107.881 106.51L109.135 106.469C110.539 106.552 111.475 106.304 111.943 105.725C112.879 104.541 113.456 101.814 113.673 97.5451C113.69 92.5322 113.305 89.3373 112.52 87.9601C109.511 86.8308 106.36 87.2991 103.067 89.3648C102.264 91.706 101.846 94.598 101.813 98.0408C101.98 101.539 102.49 104.018 103.342 105.477C103.71 106.221 104.462 106.538 105.599 106.428L106.376 106.51L106.477 106.469L106.527 106.304L106.477 106.18C106.46 106.125 106.435 106.097 106.402 106.097L105.624 106.015C104.956 105.849 104.412 105.381 103.994 104.61L103.969 104.569C103.301 103.246 102.891 101.043 102.741 97.9582C102.774 94.956 103.117 92.4221 103.769 90.3563L105.574 89.4061L107.354 88.8277L109.21 88.6211L110.564 88.7451L111.918 89.1169C112.453 90.4941 112.712 93.2759 112.695 97.4624C112.511 101.236 112.043 103.687 111.291 104.816C110.84 105.56 110.28 105.959 109.611 106.015L107.881 106.097L107.781 106.18Z" fill="black"/>
<path d="M101.246 93.8312C103.018 92.4816 105.643 91.9721 109.12 92.3026C112.597 92.6331 115.59 93.6093 118.099 95.2312C118.4 93.1654 118.525 91.239 118.473 89.4519C114.377 86.3671 110.039 85.5683 105.459 87.0556C103.854 88.0747 102.575 89.2453 101.622 90.5674C101.171 92.3301 101.046 93.4181 101.246 93.8312Z" fill="black" fill-opacity="0.247059"/>
<path d="M102.591 86.5579C104.531 84.7677 106.913 83.6797 109.738 83.2941C105.826 82.0271 103.444 83.1151 102.591 86.5579Z" fill="black"/>
<path d="M101.337 93.8081C102.289 92.6238 103.568 91.5771 105.173 90.6682C109.753 89.3186 114.091 90.0347 118.187 92.8166C118.187 94.4141 118.036 96.1355 117.736 97.9809C117.435 99.8263 116.975 101.782 116.356 103.848L116.206 104.343C120.636 100.432 123.344 96.2457 124.33 91.7837C121.689 88.3959 118.789 86.0548 115.629 84.7602C111.634 83.4382 108.048 83.9202 104.872 86.2063C101.713 88.4372 99.8153 92.0591 99.1801 97.072C99.715 95.9978 100.434 94.9098 101.337 93.8081ZM113.874 106.079L107.731 105.624H106.652L102.891 105.996H102.716L102.966 106.533H113.548L113.874 106.079Z" fill="black"/>
<path d="M108.002 97.927C108.002 98.5812 107.556 99.1264 106.664 99.5626C105.049 99.7679 103.928 99.8797 103.298 99.8979C102.669 99.9161 102.042 99.9345 101.418 99.953C100.927 98.9255 100.906 98.2833 101.355 98.0264C101.355 97.4267 101.277 96.8151 101.12 96.1916C100.873 95.9165 101.606 95.796 103.322 95.8303C104.386 95.8667 105.5 96.0477 106.664 96.3732C107.556 96.8093 108.002 97.3273 108.002 97.927Z" fill="white"/>
</g>
<defs>
<linearGradient id="paint0_linear_0_1" x1="80.8694" y1="66.0304" x2="77.7909" y2="216.615" gradientUnits="userSpaceOnUse">
<stop stop-color="#AE6AE6" stop-opacity="0"/>
<stop offset="0.380392" stop-color="#AD69E6"/>
<stop offset="0.603922" stop-color="#AD69E6"/>
<stop offset="1" stop-color="#AE6AE6" stop-opacity="0"/>
</linearGradient>
<linearGradient id="paint1_linear_0_1" x1="75.4173" y1="49.2079" x2="75.4173" y2="189.099" gradientUnits="userSpaceOnUse">
<stop stop-color="#AE6AE6" stop-opacity="0"/>
<stop offset="0.380392" stop-color="#AD69E6"/>
<stop offset="0.603922" stop-color="#AD69E6"/>
<stop offset="1" stop-color="#AD69E6" stop-opacity="0"/>
</linearGradient>
<linearGradient id="paint2_linear_0_1" x1="78.6682" y1="58.9818" x2="78.6682" y2="190.671" gradientUnits="userSpaceOnUse">
<stop stop-color="#AE6AE6" stop-opacity="0"/>
<stop offset="0.380392" stop-color="#AD69E6"/>
<stop offset="0.603922" stop-color="#AD69E6"/>
<stop offset="1" stop-color="#AD69E6"/>
</linearGradient>
<linearGradient id="paint3_linear_0_1" x1="86.4133" y1="57.2501" x2="86.4133" y2="187.625" gradientUnits="userSpaceOnUse">
<stop offset="0.01" stop-color="#AE6AE6" stop-opacity="0"/>
<stop offset="0.380392" stop-color="#AD69E6"/>
<stop offset="0.603922" stop-color="#AD69E6"/>
<stop offset="1" stop-color="#AD69E6"/>
</linearGradient>
</defs>
</svg>
