<svg width="126" height="127" viewBox="0 0 126 127" fill="none" xmlns="http://www.w3.org/2000/svg">
<path d="M42.4266 116.92C65.1266 128.487 86.0766 128.754 105.277 117.72C107.577 117.487 111.343 115.687 116.577 112.32C121.81 108.92 124.543 103.804 124.777 96.9702C124.743 93.6035 124.21 90.5035 123.177 87.6702C121.477 83.0035 121.327 79.0869 122.727 75.9202C124.86 58.3869 122.56 43.2202 115.827 30.4202C111.727 21.6535 103.393 14.1535 90.8266 7.92021L90.7766 7.87021C85.4766 5.63687 79.46 3.70354 72.7266 2.07021C50.5266 -1.56313 31.4766 4.05354 15.5766 18.9202C5.44331 29.1202 0.593308 43.4702 1.02664 61.9702C1.42664 66.5369 2.45997 71.5869 4.12664 77.1202L5.77664 82.3202L5.92664 82.7702C8.69331 90.8369 12.1266 97.7202 16.2266 103.42L16.4766 102.97L17.0766 104.52C20.0766 111.22 28.3266 115.254 41.8266 116.62H41.8766L42.4266 116.92Z" stroke="#54453C" stroke-width="2" stroke-linecap="round" stroke-linejoin="round"/>
</svg>
