<?xml version="1.0" encoding="UTF-8" standalone="no"?>
<svg xmlns:ffdec="https://www.free-decompiler.com/flash" xmlns:xlink="http://www.w3.org/1999/xlink" ffdec:objectType="shape" height="70.9px" width="123.65px" xmlns="http://www.w3.org/2000/svg">
  <g transform="matrix(1.0, 0.0, 0.0, 1.0, 62.05, 51.0)">
    <path d="M4.4 -16.2 Q0.15 -18.0 -4.45 -17.85 L-4.8 -17.85 Q-10.15 -17.65 -15.95 -14.9 -17.25 -10.0 -18.2 -4.1 -20.25 8.85 -15.4 12.3 -28.3 11.6 -27.25 0.85 -30.7 7.8 -27.35 11.35 -36.5 11.8 -39.55 6.4 L-39.95 5.65 Q-46.9 3.7 -48.15 10.8 -53.25 8.85 -54.0 6.9 -55.5 10.15 -54.15 14.1 -61.25 10.25 -60.15 5.35 -56.8 -3.05 -48.6 -10.3 -58.3 -8.75 -62.05 -15.4 -56.7 -13.5 -50.25 -18.0 -45.25 -23.3 -40.35 -30.15 -33.1 -43.85 -26.8 -46.4 -21.45 -47.55 -16.0 -44.4 -10.3 -50.65 -1.15 -51.0 13.15 -51.05 23.5 -44.2 33.85 -37.4 41.05 -28.45 48.2 -19.55 61.6 -20.8 58.4 -14.05 50.25 -14.2 53.85 -11.25 57.0 -6.1 61.35 0.0 59.7 6.15 58.7 9.7 53.95 11.95 56.85 6.8 51.55 -0.45 52.7 5.4 48.3 10.75 46.4 4.55 41.4 5.9 L40.65 8.6 Q36.3 16.95 27.4 19.9 30.8 13.55 30.3 5.75 26.2 17.3 13.55 16.65 17.45 12.95 17.05 1.85 15.45 13.8 1.4 15.55 8.05 9.9 6.6 -2.8 5.9 -10.3 4.4 -16.2" fill="url(#gradient0)" fill-rule="evenodd" stroke="none"/>
  </g>
  <defs>
    <linearGradient gradientTransform="matrix(0.0, 0.0444, -0.0755, 0.0, -0.2, 11.65)" gradientUnits="userSpaceOnUse" id="gradient0" spreadMethod="pad" x1="-819.2" x2="819.2">
      <stop offset="0.0" stop-color="#7bffdc" stop-opacity="0.0"/>
      <stop offset="1.0" stop-color="#7bffdc" stop-opacity="0.8"/>
    </linearGradient>
  </defs>
</svg>
