<?xml version="1.0" encoding="UTF-8" standalone="no"?>
<svg xmlns:ffdec="https://www.free-decompiler.com/flash" xmlns:xlink="http://www.w3.org/1999/xlink" ffdec:objectType="shape" height="17.7px" width="90.15px" xmlns="http://www.w3.org/2000/svg">
  <g transform="matrix(1.0, 0.0, 0.0, 1.0, 45.5, 28.8)">
    <path d="M43.65 -24.5 Q44.55 -22.45 44.65 -20.7 44.7 -19.05 43.9 -18.7 43.1 -18.35 41.95 -19.6 40.75 -20.85 39.85 -22.9 39.0 -24.95 38.9 -26.7 38.85 -28.35 39.65 -28.7 40.45 -29.05 41.6 -27.8 42.8 -26.55 43.65 -24.5 M13.75 -15.95 Q13.75 -14.1 13.2 -12.8 12.7 -11.45 11.95 -11.45 11.2 -11.45 10.65 -12.8 10.15 -14.1 10.15 -15.95 10.15 -17.8 10.65 -19.15 11.2 -20.45 11.95 -20.45 12.7 -20.45 13.2 -19.15 13.75 -17.8 13.75 -15.95 M18.75 -17.0 L18.45 -15.55 Q18.2 -14.95 17.8 -14.95 17.4 -14.95 17.1 -15.55 16.85 -16.15 16.85 -17.0 16.85 -17.85 17.1 -18.45 17.4 -19.05 17.8 -19.05 18.2 -19.05 18.45 -18.45 L18.75 -17.0 M4.35 -15.6 L4.15 -14.65 3.65 -14.25 3.15 -14.65 2.95 -15.6 3.15 -16.55 3.65 -16.95 Q3.95 -16.95 4.15 -16.55 L4.35 -15.6 M8.65 -14.9 Q8.65 -13.85 8.3 -13.1 8.0 -12.35 7.55 -12.35 7.1 -12.35 6.75 -13.1 6.45 -13.85 6.45 -14.9 6.45 -15.95 6.75 -16.7 7.1 -17.45 7.55 -17.45 8.0 -17.45 8.3 -16.7 8.65 -15.95 8.65 -14.9 M38.0 -21.5 Q38.45 -20.05 38.2 -19.0 38.0 -17.95 37.25 -17.95 36.5 -17.95 35.65 -19.0 34.85 -20.05 34.4 -21.5 34.0 -22.95 34.15 -24.0 34.4 -25.05 35.15 -25.05 35.9 -25.05 36.7 -24.0 37.6 -22.95 38.0 -21.5 M32.75 -20.35 Q32.85 -19.4 32.5 -18.7 32.15 -17.95 31.55 -17.9 30.95 -17.85 30.5 -18.5 30.05 -19.1 29.95 -20.05 29.85 -21.0 30.15 -21.75 30.5 -22.45 31.1 -22.5 L32.15 -21.95 Q32.65 -21.3 32.75 -20.35 M23.85 -17.45 Q23.85 -15.9 23.35 -14.85 22.9 -13.75 22.2 -13.75 21.5 -13.75 21.0 -14.85 20.55 -15.9 20.55 -17.45 20.55 -19.0 21.0 -20.1 21.5 -21.15 22.2 -21.15 22.9 -21.15 23.35 -20.1 23.85 -19.0 23.85 -17.45 M-40.55 -21.9 Q-41.3 -19.9 -42.45 -18.75 -43.55 -17.55 -44.45 -17.85 -45.35 -18.2 -45.5 -19.9 -45.6 -21.5 -44.85 -23.5 -44.1 -25.55 -43.0 -26.75 -41.85 -27.9 -40.95 -27.55 -40.05 -27.25 -39.95 -25.6 -39.8 -23.95 -40.55 -21.9 M-21.45 -17.65 Q-21.45 -16.2 -22.0 -15.15 -22.55 -14.1 -23.3 -14.1 -24.05 -14.1 -24.6 -15.15 -25.15 -16.2 -25.15 -17.65 -25.15 -19.1 -24.6 -20.15 -24.05 -21.2 -23.3 -21.2 -22.55 -21.2 -22.0 -20.15 -21.45 -19.1 -21.45 -17.65 M-29.9 -20.6 Q-29.9 -19.75 -30.3 -19.15 -30.65 -18.5 -31.15 -18.5 -31.65 -18.5 -32.05 -19.15 -32.4 -19.75 -32.4 -20.6 -32.4 -21.45 -32.05 -22.1 -31.65 -22.7 -31.15 -22.7 -30.65 -22.7 -30.3 -22.1 -29.9 -21.45 -29.9 -20.6 M-35.05 -20.15 Q-35.15 -18.95 -35.75 -18.2 -36.35 -17.4 -37.05 -17.5 -37.75 -17.6 -38.15 -18.5 -38.5 -19.35 -38.4 -20.55 -38.25 -21.75 -37.7 -22.55 -37.1 -23.35 -36.4 -23.25 -35.7 -23.15 -35.3 -22.25 -34.9 -21.35 -35.05 -20.15 M-8.45 -15.5 Q-8.45 -13.7 -9.2 -12.4 -9.95 -11.1 -11.0 -11.1 -12.05 -11.1 -12.8 -12.4 -13.55 -13.7 -13.55 -15.5 -13.55 -17.3 -12.8 -18.6 -12.05 -19.9 -11.0 -19.9 -9.95 -19.9 -9.2 -18.6 -8.45 -17.3 -8.45 -15.5 M-4.2 -15.1 Q-4.2 -14.1 -4.6 -13.4 -5.0 -12.7 -5.55 -12.7 -6.1 -12.7 -6.5 -13.4 -6.9 -14.1 -6.9 -15.1 -6.9 -16.1 -6.5 -16.8 -6.1 -17.5 -5.55 -17.5 -5.0 -17.5 -4.6 -16.8 -4.2 -16.1 -4.2 -15.1 M-18.5 -17.35 Q-18.5 -16.6 -18.75 -16.05 -18.95 -15.5 -19.3 -15.5 L-19.9 -16.05 -20.1 -17.35 -19.9 -18.65 -19.3 -19.2 Q-18.95 -19.2 -18.75 -18.65 -18.5 -18.1 -18.5 -17.35" fill="#b6e3ff" fill-rule="evenodd" stroke="none"/>
  </g>
</svg>
