<?xml version="1.0" encoding="UTF-8" standalone="no"?>
<svg xmlns:ffdec="https://www.free-decompiler.com/flash" xmlns:xlink="http://www.w3.org/1999/xlink" ffdec:objectType="shape" height="64.1px" width="76.6px" xmlns="http://www.w3.org/2000/svg">
  <g transform="matrix(1.0, 0.0, 0.0, 1.0, 38.55, 50.45)">
    <path d="M29.2 -47.45 L29.25 -47.4 Q35.4 -45.85 34.95 -39.45 34.2 -34.95 29.5 -33.35 17.6 -42.4 -0.25 -43.2 -18.1 -42.4 -30.0 -33.35 -34.7 -34.95 -35.45 -39.45 -35.9 -45.85 -29.75 -47.4 L-29.7 -47.45 Q-30.85 -48.95 -31.3 -50.45 -0.25 -39.35 30.8 -50.45 30.35 -48.95 29.2 -47.45 M32.6 -7.65 Q25.55 -6.5 15.6 -11.0 4.55 -15.85 -0.25 -25.1 -5.05 -15.85 -16.1 -11.0 -26.05 -6.5 -33.1 -7.65 -33.7 -5.85 -34.95 1.35 -36.15 8.3 -34.0 13.65 L-34.8 13.15 Q-40.65 6.05 -37.35 -11.0 -17.05 -7.05 -0.25 -29.4 16.55 -7.05 36.85 -11.0 40.15 6.05 34.3 13.15 L33.5 13.65 Q35.65 8.3 34.45 1.35 33.2 -5.85 32.6 -7.65" fill="#a684e0" fill-rule="evenodd" stroke="none"/>
  </g>
</svg>
