<?xml version="1.0" encoding="UTF-8" standalone="no"?>
<svg xmlns:ffdec="https://www.free-decompiler.com/flash" xmlns:xlink="http://www.w3.org/1999/xlink" ffdec:objectType="shape" height="18.95px" width="92.6px" xmlns="http://www.w3.org/2000/svg">
  <g transform="matrix(1.0, 0.0, 0.0, 1.0, 46.8, 26.3)">
    <path d="M6.15 -12.1 Q6.15 -10.25 5.5 -8.95 4.9 -7.65 4.05 -7.65 3.2 -7.65 2.55 -8.95 1.95 -10.25 1.95 -12.1 1.95 -13.95 2.55 -15.25 3.2 -16.55 4.05 -16.55 4.9 -16.55 5.5 -15.25 6.15 -13.95 6.15 -12.1 M19.5 -10.5 Q19.6 -9.55 19.1 -8.9 18.7 -8.2 18.0 -8.2 17.3 -8.2 16.75 -8.9 16.3 -9.55 16.2 -10.5 16.15 -11.45 16.55 -12.15 17.0 -12.8 17.7 -12.8 18.4 -12.8 18.9 -12.15 19.45 -11.45 19.5 -10.5 M45.1 -20.45 Q45.95 -18.35 45.75 -16.85 45.65 -15.35 44.55 -15.35 43.45 -15.35 42.0 -16.85 40.65 -18.35 39.8 -20.45 38.9 -22.55 39.05 -24.05 39.25 -25.55 40.35 -25.55 41.45 -25.55 42.8 -24.05 44.2 -22.55 45.1 -20.45 M39.45 -17.2 Q39.9 -15.85 39.6 -14.95 39.3 -14.0 38.45 -14.0 37.6 -14.0 36.7 -14.95 35.8 -15.85 35.35 -17.2 34.9 -18.55 35.2 -19.5 35.5 -20.4 36.35 -20.4 37.2 -20.4 38.1 -19.5 39.0 -18.55 39.45 -17.2 M34.15 -15.45 Q34.4 -14.3 34.05 -13.5 33.75 -12.65 33.05 -12.65 32.35 -12.65 31.7 -13.5 31.1 -14.3 30.85 -15.45 30.65 -16.6 30.9 -17.45 31.25 -18.25 31.95 -18.25 32.65 -18.25 33.25 -17.45 33.95 -16.6 34.15 -15.45 M25.65 -12.15 Q25.75 -10.15 25.1 -8.75 24.5 -7.35 23.55 -7.35 22.6 -7.35 21.85 -8.75 21.15 -10.15 21.05 -12.15 20.95 -14.15 21.55 -15.55 22.2 -16.95 23.15 -16.95 24.1 -16.95 24.8 -15.55 25.55 -14.15 25.65 -12.15 M-38.5 -19.35 Q-39.55 -16.45 -41.45 -14.45 -43.3 -12.4 -44.85 -12.4 -46.4 -12.4 -46.75 -14.45 -47.05 -16.45 -46.0 -19.35 -44.9 -22.2 -43.0 -24.3 -41.15 -26.3 -39.6 -26.3 -38.05 -26.3 -37.7 -24.3 -37.4 -22.2 -38.5 -19.35 M-24.1 -14.2 Q-24.3 -13.25 -24.9 -12.55 -25.5 -11.85 -26.2 -11.85 -26.9 -11.85 -27.3 -12.55 -27.7 -13.25 -27.5 -14.2 -27.35 -15.15 -26.75 -15.85 -26.1 -16.55 -25.4 -16.55 -24.7 -16.55 -24.35 -15.85 -23.95 -15.15 -24.1 -14.2 M-31.75 -16.25 Q-32.4 -14.3 -33.6 -12.95 -34.8 -11.55 -35.9 -11.55 -37.0 -11.55 -37.35 -12.95 -37.7 -14.3 -37.05 -16.25 -36.45 -18.2 -35.25 -19.6 -34.0 -20.95 -32.9 -20.95 -31.8 -20.95 -31.5 -19.6 -31.15 -18.2 -31.75 -16.25 M-2.45 -11.6 Q-2.45 -10.7 -2.95 -10.05 -3.4 -9.4 -4.1 -9.4 -4.8 -9.4 -5.3 -10.05 -5.75 -10.7 -5.75 -11.6 L-5.3 -13.15 Q-4.8 -13.8 -4.1 -13.8 -3.4 -13.8 -2.95 -13.15 -2.45 -12.5 -2.45 -11.6" fill="#b6e3ff" fill-rule="evenodd" stroke="none"/>
  </g>
</svg>
