<?xml version="1.0" encoding="UTF-8" standalone="no"?>
<svg xmlns:ffdec="https://www.free-decompiler.com/flash" xmlns:xlink="http://www.w3.org/1999/xlink" ffdec:objectType="shape" height="18.4px" width="87.2px" xmlns="http://www.w3.org/2000/svg">
  <g transform="matrix(1.0, 0.0, 0.0, 1.0, 43.2, 32.1)">
    <path d="M25.15 -21.9 Q25.5 -20.2 24.95 -19.05 24.5 -17.85 23.5 -17.85 22.5 -17.85 21.5 -19.05 20.6 -20.2 20.25 -21.9 19.9 -23.6 20.4 -24.8 20.9 -25.95 21.9 -25.95 22.9 -25.95 23.85 -24.8 24.8 -23.6 25.15 -21.9 M43.3 -25.05 Q44.15 -23.25 43.95 -22.0 43.8 -20.75 42.7 -20.75 41.6 -20.75 40.15 -22.0 38.75 -23.25 37.9 -25.05 37.0 -26.85 37.2 -28.1 37.4 -29.35 38.5 -29.35 39.6 -29.35 41.0 -28.1 42.4 -26.85 43.3 -25.05 M19.05 -19.15 Q19.2 -18.3 18.85 -17.7 18.45 -17.1 17.8 -17.1 17.15 -17.1 16.65 -17.7 16.1 -18.3 15.95 -19.15 15.85 -20.0 16.2 -20.6 16.55 -21.2 17.2 -21.2 17.85 -21.2 18.4 -20.6 L19.05 -19.15 M4.5 -18.0 L4.3 -16.8 3.8 -16.3 Q3.5 -16.3 3.3 -16.8 L3.1 -18.0 3.3 -19.2 Q3.5 -19.7 3.8 -19.7 L4.3 -19.2 4.5 -18.0 M36.25 -22.0 Q36.8 -20.7 36.6 -19.8 36.45 -18.85 35.65 -18.85 34.85 -18.85 33.9 -19.8 33.0 -20.7 32.45 -22.0 31.9 -23.3 32.05 -24.25 32.25 -25.15 33.05 -25.15 33.85 -25.15 34.75 -24.25 35.7 -23.3 36.25 -22.0 M31.7 -21.35 L31.75 -19.9 Q31.65 -19.25 31.2 -19.15 30.75 -19.0 30.3 -19.55 29.9 -19.95 29.7 -20.8 29.45 -21.6 29.55 -22.3 29.7 -22.85 30.15 -23.0 30.6 -23.1 31.0 -22.65 L31.7 -21.35 M-36.75 -27.15 Q-37.9 -25.1 -39.5 -23.65 -41.05 -22.2 -42.15 -22.2 -43.25 -22.2 -43.2 -23.65 -43.1 -25.1 -41.95 -27.15 -40.8 -29.2 -39.25 -30.65 -37.65 -32.1 -36.55 -32.1 -35.45 -32.1 -35.55 -30.65 -35.6 -29.2 -36.75 -27.15 M-32.7 -23.0 Q-33.3 -21.75 -34.15 -20.9 -35.0 -20.0 -35.65 -20.0 -36.3 -20.0 -36.35 -20.9 -36.4 -21.75 -35.8 -23.0 -35.25 -24.25 -34.35 -25.15 -33.5 -26.0 -32.85 -26.0 -32.2 -26.0 -32.15 -25.15 -32.15 -24.25 -32.7 -23.0 M-27.7 -19.55 Q-27.95 -18.65 -28.6 -18.1 -29.25 -17.6 -29.85 -17.75 -30.5 -17.95 -30.8 -18.7 -31.05 -19.45 -30.8 -20.35 -30.55 -21.3 -30.0 -21.85 -29.3 -22.4 -28.65 -22.2 -28.05 -22.05 -27.8 -21.25 -27.45 -20.5 -27.7 -19.55 M-19.05 -18.55 Q-19.5 -16.95 -20.45 -15.8 -21.3 -14.65 -22.15 -14.65 -23.0 -14.65 -23.3 -15.8 -23.5 -16.95 -23.05 -18.55 -22.6 -20.15 -21.75 -21.3 -20.8 -22.45 -19.95 -22.45 -19.1 -22.45 -18.9 -21.3 -18.6 -20.15 -19.05 -18.55 M0.25 -17.85 L-0.05 -16.55 Q-0.3 -16.0 -0.7 -16.0 -1.1 -16.0 -1.4 -16.55 L-1.65 -17.85 -1.4 -19.15 Q-1.1 -19.7 -0.7 -19.7 -0.3 -19.7 -0.05 -19.15 L0.25 -17.85 M-2.85 -19.15 Q-2.85 -17.6 -3.5 -16.5 -4.1 -15.4 -5.0 -15.4 -5.9 -15.4 -6.55 -16.5 -7.15 -17.6 -7.15 -19.15 -7.15 -20.7 -6.55 -21.8 -5.9 -22.9 -5.0 -22.9 -4.1 -22.9 -3.5 -21.8 -2.85 -20.7 -2.85 -19.15 M-15.15 -15.5 Q-15.3 -14.65 -15.65 -14.15 -16.05 -13.65 -16.45 -13.7 -16.85 -13.8 -17.05 -14.4 -17.3 -15.0 -17.15 -15.85 L-16.6 -17.25 Q-16.2 -17.7 -15.8 -17.6 -15.4 -17.55 -15.2 -17.0 -15.0 -16.35 -15.15 -15.5" fill="#b6e3ff" fill-rule="evenodd" stroke="none"/>
  </g>
</svg>
