<?xml version="1.0" encoding="UTF-8" standalone="no"?>
<svg xmlns:ffdec="https://www.free-decompiler.com/flash" xmlns:xlink="http://www.w3.org/1999/xlink" ffdec:objectType="shape" height="90.5px" width="124.1px" xmlns="http://www.w3.org/2000/svg">
  <g transform="matrix(1.0, 0.0, 0.0, 1.0, 62.05, 52.45)">
    <path d="M26.35 36.5 Q34.45 32.5 35.9 26.5 44.8 26.35 47.85 18.05 49.8 11.9 47.35 7.35 44.95 4.3 41.65 5.45 M-41.7 5.05 Q-43.6 4.7 -45.6 5.45 -49.35 8.05 -48.65 15.35 -46.55 25.7 -35.85 26.95 -33.3 32.8 -26.1 36.45" fill="none" stroke="#000000" stroke-linecap="round" stroke-linejoin="round" stroke-opacity="0.49803922" stroke-width="1.0"/>
    <path d="M2.85 -14.1 L2.3 -10.9 Q1.75 -6.35 2.05 -0.55 2.25 3.25 2.85 7.6 L14.65 7.6 Q13.75 3.7 13.4 -0.9 12.85 -8.5 13.85 -18.05 L14.65 -24.65 M-8.3 -31.15 Q-10.8 -24.65 -12.15 -17.95 -13.9 -9.7 -13.9 -1.2 L-13.8 2.95 Q-12.0 8.9 1.05 7.65 0.95 3.6 1.2 -0.55 1.5 -5.6 2.3 -10.9 M13.85 -18.05 Q14.45 -8.0 17.8 -1.25 21.35 6.0 28.2 9.45 26.4 5.35 26.4 -2.35 L26.4 -3.95 Q25.7 -6.1 25.35 -8.6 M33.75 -8.8 L34.15 -3.8 Q34.35 0.9 34.0 5.15 33.1 17.0 27.8 25.25 39.85 19.85 41.65 5.45 42.35 -0.25 41.5 -7.3 M34.0 5.15 Q29.15 2.8 27.0 -2.45 L26.4 -3.95 M-26.1 36.45 Q-41.85 37.25 -48.5 27.6 -49.05 31.15 -46.5 35.35 -59.4 32.15 -60.55 22.45 -60.3 13.9 -55.1 3.95 -51.4 -3.7 -49.3 -12.85 -47.45 -22.35 -45.05 -27.6 -40.1 -38.35 -26.55 -44.7 -19.9 -48.0 -11.45 -49.8 0.2 -52.1 12.05 -49.8 19.95 -48.0 26.55 -44.7 40.1 -38.35 45.05 -27.6 47.45 -22.35 49.3 -12.85 51.4 -3.7 55.1 3.95 60.3 13.9 60.55 22.45 59.5 31.3 48.75 34.75 L46.5 35.35 Q49.05 31.15 48.5 27.6 41.9 37.2 26.35 36.5 M-33.75 -8.8 L-34.15 -3.8 Q-34.35 0.9 -34.0 5.15 -29.1 2.7 -26.85 -2.65 -26.0 -4.75 -25.55 -7.3 L-25.35 -8.6 M-25.55 -7.3 L-25.55 5.6 -15.8 5.6 -15.45 -1.35 Q-14.65 -9.05 -12.15 -17.95 M-34.0 5.15 Q-33.1 17.0 -27.8 25.25 -40.0 19.8 -41.7 5.05 -42.35 -0.5 -41.5 -7.3" fill="none" stroke="#000000" stroke-linecap="round" stroke-linejoin="round" stroke-width="3.0"/>
  </g>
</svg>
