<?xml version="1.0" encoding="UTF-8" standalone="no"?>
<svg xmlns:ffdec="https://www.free-decompiler.com/flash" xmlns:xlink="http://www.w3.org/1999/xlink" ffdec:objectType="shape" height="42.5px" width="73.0px" xmlns="http://www.w3.org/2000/svg">
  <g transform="matrix(1.0, 0.0, 0.0, 1.0, 36.8, 52.1)">
    <path d="M19.0 -48.9 Q19.0 -48.0 18.55 -47.35 18.15 -46.7 17.55 -46.7 16.95 -46.7 16.5 -47.35 16.1 -48.0 16.1 -48.9 16.1 -49.8 16.5 -50.45 16.95 -51.1 17.55 -51.1 18.15 -51.1 18.55 -50.45 19.0 -49.8 19.0 -48.9 M13.65 -49.65 L13.35 -48.5 Q13.1 -48.0 12.7 -48.0 12.3 -48.0 12.0 -48.5 11.75 -48.95 11.75 -49.65 11.75 -50.35 12.0 -50.85 L12.7 -51.3 13.35 -50.85 13.65 -49.65 M25.55 -48.15 Q25.55 -46.65 24.95 -45.6 24.35 -44.5 23.5 -44.5 22.65 -44.5 22.05 -45.6 21.45 -46.65 21.45 -48.15 21.45 -49.65 22.05 -50.75 22.65 -51.8 23.5 -51.8 24.35 -51.8 24.95 -50.75 25.55 -49.65 25.55 -48.15 M16.55 -13.5 Q16.55 -11.9 15.85 -10.75 15.15 -9.6 14.2 -9.6 13.25 -9.6 12.55 -10.75 11.85 -11.9 11.85 -13.5 11.85 -15.1 12.55 -16.25 13.25 -17.4 14.2 -17.4 15.15 -17.4 15.85 -16.25 16.55 -15.1 16.55 -13.5 M20.65 -14.1 Q20.65 -13.4 20.3 -12.9 20.0 -12.35 19.5 -12.35 19.0 -12.35 18.65 -12.9 18.35 -13.4 18.35 -14.1 18.35 -14.8 18.65 -15.35 19.0 -15.85 19.5 -15.85 L20.3 -15.35 Q20.65 -14.8 20.65 -14.1 M35.25 -20.55 Q36.15 -18.95 36.2 -17.6 36.25 -16.3 35.45 -16.1 34.6 -15.9 33.35 -16.85 32.1 -17.85 31.2 -19.45 30.25 -21.1 30.2 -22.4 30.15 -23.7 31.0 -23.9 31.8 -24.1 33.05 -23.15 34.3 -22.2 35.25 -20.55 M28.65 -17.55 Q29.15 -16.2 28.85 -15.15 28.65 -14.1 27.85 -14.0 27.1 -13.9 26.15 -14.75 25.3 -15.65 24.8 -17.0 24.35 -18.35 24.6 -19.35 24.85 -20.35 25.6 -20.45 26.4 -20.55 27.3 -19.75 28.2 -18.9 28.65 -17.55 M-22.3 -48.75 Q-22.3 -47.35 -22.85 -46.4 -23.4 -45.4 -24.2 -45.4 -25.0 -45.4 -25.55 -46.4 -26.1 -47.35 -26.1 -48.75 -26.1 -50.15 -25.55 -51.15 -25.0 -52.1 -24.2 -52.1 -23.4 -52.1 -22.85 -51.15 -22.3 -50.15 -22.3 -48.75 M-17.9 -49.0 Q-17.9 -48.2 -18.25 -47.65 -18.6 -47.1 -19.1 -47.1 -19.6 -47.1 -19.95 -47.65 -20.3 -48.2 -20.3 -49.0 L-19.95 -50.35 -19.1 -50.9 Q-18.6 -50.9 -18.25 -50.35 -17.9 -49.8 -17.9 -49.0 M-12.6 -49.3 Q-12.6 -48.6 -12.95 -48.1 -13.25 -47.55 -13.7 -47.55 -14.15 -47.55 -14.5 -48.1 L-14.8 -49.3 -14.5 -50.55 -13.7 -51.05 Q-13.25 -51.05 -12.95 -50.55 -12.6 -50.0 -12.6 -49.3 M-24.0 -16.95 Q-24.2 -15.8 -24.9 -15.0 -25.6 -14.2 -26.35 -14.2 -27.1 -14.2 -27.5 -15.0 -27.9 -15.8 -27.7 -16.95 -27.5 -18.1 -26.8 -18.9 -26.1 -19.7 -25.35 -19.7 -24.6 -19.7 -24.2 -18.9 -23.8 -18.1 -24.0 -16.95 M-19.3 -14.8 Q-19.3 -14.0 -19.65 -13.45 -19.95 -12.9 -20.45 -12.9 -20.95 -12.9 -21.3 -13.45 L-21.6 -14.8 -21.3 -16.15 Q-20.95 -16.7 -20.45 -16.7 L-19.65 -16.15 Q-19.3 -15.6 -19.3 -14.8 M-30.65 -19.45 Q-31.15 -17.5 -32.35 -16.15 -33.55 -14.75 -34.75 -14.75 -35.95 -14.75 -36.5 -16.15 -37.05 -17.5 -36.55 -19.45 -36.1 -21.4 -34.9 -22.8 -33.65 -24.15 -32.45 -24.15 -31.25 -24.15 -30.75 -22.8 -30.2 -21.4 -30.65 -19.45 M-13.0 -14.6 Q-13.0 -12.9 -13.65 -11.7 -14.3 -10.45 -15.2 -10.45 -16.1 -10.45 -16.75 -11.7 -17.4 -12.9 -17.4 -14.6 -17.4 -16.3 -16.75 -17.55 -16.1 -18.75 -15.2 -18.75 -14.3 -18.75 -13.65 -17.55 -13.0 -16.3 -13.0 -14.6" fill="#b6e3ff" fill-rule="evenodd" stroke="none"/>
  </g>
</svg>
