<?xml version="1.0" encoding="UTF-8" standalone="no"?>
<svg xmlns:ffdec="https://www.free-decompiler.com/flash" xmlns:xlink="http://www.w3.org/1999/xlink" ffdec:objectType="shape" height="86.3px" width="99.6px" xmlns="http://www.w3.org/2000/svg">
  <g transform="matrix(1.0, 0.0, 0.0, 1.0, 49.8, 43.15)">
    <path d="M37.3 10.05 Q37.8 7.6 38.45 5.1 40.35 -4.0 38.0 -13.55 33.6 -27.05 23.2 -33.9 12.5 -41.6 0.0 -41.65 -12.5 -41.6 -23.2 -33.9 -33.6 -27.05 -38.0 -13.55 -40.35 -4.0 -38.45 5.1 -37.8 7.6 -37.3 10.05 -36.4 14.8 -36.3 19.4 -36.45 23.45 -35.4 26.6 -33.85 31.55 -29.4 34.4 -17.85 41.8 0.0 41.65 17.85 41.8 29.4 34.4 33.85 31.55 35.4 26.6 36.45 23.45 36.3 19.4 36.4 14.8 37.3 10.05 38.85 5.6 42.8 5.3 48.05 5.9 48.3 12.4 48.55 18.5 44.35 22.85 41.2 25.7 35.4 26.6 M-37.3 10.05 Q-38.85 5.6 -42.8 5.3 -48.05 5.9 -48.3 12.4 -48.55 18.5 -44.35 22.85 -41.2 25.7 -35.4 26.6" fill="none" stroke="#60463d" stroke-linecap="round" stroke-linejoin="round" stroke-width="3.0"/>
    <path d="M44.8 12.8 Q44.55 10.25 42.95 9.95 41.3 9.95 39.8 14.7 39.3 17.35 38.45 19.3 41.15 15.8 42.6 16.9 44.25 18.9 41.85 20.65 M38.45 19.3 L38.15 20.05 M-44.8 12.8 Q-44.55 10.25 -42.95 9.95 -41.3 9.95 -39.8 14.7 -39.3 17.35 -38.45 19.3 L-38.15 20.05 M-38.45 19.3 Q-41.15 15.8 -42.6 16.9 -44.25 18.9 -41.85 20.65" fill="none" stroke="#60463d" stroke-linecap="round" stroke-linejoin="round" stroke-opacity="0.49803922" stroke-width="1.5"/>
  </g>
</svg>
