<?xml version="1.0" encoding="UTF-8" standalone="no"?>
<svg xmlns:ffdec="https://www.free-decompiler.com/flash" xmlns:xlink="http://www.w3.org/1999/xlink" ffdec:objectType="shape" height="73.85px" width="34.75px" xmlns="http://www.w3.org/2000/svg">
  <g transform="matrix(1.0, 0.0, 0.0, 1.0, 3.85, 145.9)">
    <path d="M15.05 -128.85 Q17.35 -124.7 17.15 -122.0" fill="none" stroke="#000000" stroke-linecap="round" stroke-linejoin="round" stroke-opacity="0.49803922" stroke-width="2.0"/>
    <path d="M11.4 -73.05 Q17.0 -94.3 10.85 -121.55 L5.1 -133.75 M10.85 -121.55 Q31.0 -97.4 14.6 -74.4" fill="none" stroke="#000000" stroke-linecap="round" stroke-linejoin="round" stroke-opacity="0.49803922" stroke-width="1.5"/>
    <path d="M11.4 -73.05 Q8.05 -73.05 7.95 -78.0 6.35 -91.4 6.2 -100.4 9.45 -101.95 9.55 -103.9 8.95 -105.35 6.2 -106.3 5.8 -116.75 -2.85 -144.9 15.55 -130.8 23.6 -120.1 23.35 -117.65 20.95 -115.1 24.25 -113.5 27.05 -114.75 29.3 -110.55 29.65 -106.95 30.65 -96.4 27.9 -88.9 L25.2 -88.9 25.9 -85.05 Q20.7 -77.75 14.6 -74.4 13.0 -73.6 11.4 -73.05 Z" fill="none" stroke="#000000" stroke-linecap="round" stroke-linejoin="round" stroke-width="2.0"/>
  </g>
</svg>
