<?xml version="1.0" encoding="UTF-8" standalone="no"?>
<svg xmlns:ffdec="https://www.free-decompiler.com/flash" xmlns:xlink="http://www.w3.org/1999/xlink" ffdec:objectType="shape" height="84.6px" width="57.7px" xmlns="http://www.w3.org/2000/svg">
  <g transform="matrix(1.0, 0.0, 0.0, 1.0, 24.45, 104.1)">
    <path d="M32.25 -78.7 Q30.1 -89.35 20.6 -98.75 22.8 -93.6 23.3 -87.7 22.0 -95.45 9.3 -96.45 3.75 -96.8 -4.85 -96.65 -15.05 -96.25 -19.95 -103.1 -22.05 -96.9 -19.55 -90.75 -22.35 -91.85 -23.0 -93.15 -22.9 -87.25 -18.35 -80.9 -21.1 -80.8 -23.45 -82.0 -21.4 -78.0 -16.45 -74.25 -18.75 -74.9 -20.55 -73.9 -18.35 -72.45 -17.25 -70.85 -16.05 -69.2 -13.2 -67.35 L-15.25 -66.75 Q-13.25 -64.8 -9.65 -64.45 -10.3 -63.1 -9.7 -61.8 L-11.1 -60.6 Q-9.75 -58.4 -8.05 -56.5 L-7.85 -56.3 Q-10.25 -55.05 -10.75 -53.8 -10.4 -52.05 -9.35 -50.35 -16.1 -43.6 -20.25 -36.65 -17.5 -33.6 -12.15 -31.25 -10.75 -35.7 3.85 -54.95 -5.4 -40.25 -8.4 -24.5 -4.95 -21.1 1.95 -20.5 3.25 -37.45 8.8 -54.0 10.8 -54.45 12.3 -56.25 L13.35 -57.85" fill="none" stroke="#000000" stroke-linecap="round" stroke-linejoin="round" stroke-width="2.0"/>
    <path d="M-13.2 -67.35 L-12.35 -68.05 M-15.45 -91.3 Q-15.95 -94.1 -12.8 -92.05 L-12.5 -91.85 Q-9.4 -89.9 -5.1 -88.35 L4.9 -85.25 Q10.35 -83.8 18.05 -82.5 13.0 -81.35 12.6 -79.9 16.3 -80.65 21.7 -78.55 17.05 -77.75 15.2 -76.0 17.05 -73.15 24.45 -73.55 23.0 -71.8 20.5 -70.75 21.85 -69.35 25.3 -68.85 L27.2 -68.9 M13.35 -57.85 Q15.0 -61.1 13.0 -64.9 L12.35 -65.6 11.85 -65.95 Q9.75 -67.15 7.5 -65.05 8.85 -64.35 10.55 -61.75 13.2 -60.6 10.8 -59.25 8.35 -57.9 8.7 -61.2 7.55 -63.0 6.25 -63.7 L5.7 -63.05 Q1.0 -56.5 3.85 -54.95 6.6 -53.6 8.8 -54.0 M-12.5 -91.85 Q-10.6 -81.1 -4.9 -72.85 -6.15 -72.05 -7.65 -72.85 -6.5 -69.55 -1.25 -69.55 -2.6 -68.7 -5.75 -68.2 -3.35 -66.5 3.0 -66.9 L3.25 -67.0 Q5.75 -68.4 8.5 -67.8 10.1 -68.5 11.9 -67.85 13.15 -66.55 11.85 -65.95 M6.05 -66.9 L8.5 -67.8 M7.5 -65.05 L6.25 -63.7 M3.0 -66.9 L2.35 -66.35 Q0.8 -64.9 0.4 -62.9 0.0 -61.2 0.35 -59.0 0.8 -60.4 2.05 -62.2 M0.35 -59.0 Q-0.3 -57.1 0.55 -56.05 1.2 -55.25 2.95 -55.0 L3.85 -54.95 M-9.7 -61.8 Q-7.6 -63.45 -4.15 -64.6 L3.0 -66.9 M-7.85 -56.3 L-6.6 -55.05 Q-3.9 -57.0 0.35 -59.0 M-9.35 -50.35 Q-8.05 -48.3 -5.7 -46.45 -2.15 -50.7 2.95 -55.0 M-5.4 -60.05 Q-3.5 -61.6 0.4 -62.9 M-5.05 -51.95 Q-3.1 -54.0 0.55 -56.05" fill="none" stroke="#000000" stroke-linecap="round" stroke-linejoin="round" stroke-opacity="0.49803922" stroke-width="2.0"/>
  </g>
</svg>
