<?xml version="1.0" encoding="UTF-8" standalone="no"?>
<svg xmlns:ffdec="https://www.free-decompiler.com/flash" xmlns:xlink="http://www.w3.org/1999/xlink" ffdec:objectType="shape" height="65.2px" width="45.1px" xmlns="http://www.w3.org/2000/svg">
  <g transform="matrix(1.0, 0.0, 0.0, 1.0, 4.95, 72.65)">
    <path d="M19.45 -41.3 Q28.85 -42.0 30.75 -47.15 32.0 -50.65 30.7 -54.05 L30.65 -54.15 M14.35 -67.7 L15.25 -66.75 Q16.9 -64.05 19.35 -60.9 24.05 -54.7 19.65 -49.8 18.8 -48.7 16.5 -47.95 13.9 -47.15 12.45 -45.15 M19.4 -37.8 Q20.75 -38.55 22.55 -38.95 27.4 -39.8 31.2 -36.25 32.85 -34.8 33.65 -33.3 M15.3 -28.65 Q19.05 -29.6 21.75 -26.8 24.6 -23.95 24.55 -21.6" fill="none" stroke="#000000" stroke-linecap="round" stroke-linejoin="round" stroke-opacity="0.49803922" stroke-width="2.0"/>
    <path d="M30.65 -54.15 Q30.15 -55.4 30.15 -56.6 30.15 -61.65 27.35 -65.2 22.0 -71.7 14.35 -67.7 6.75 -75.25 -3.95 -68.45 8.3 -61.35 12.45 -45.15 13.65 -40.6 19.45 -41.3 18.65 -39.55 19.4 -37.8 15.3 -35.65 15.3 -28.65 12.65 -23.25 13.1 -18.0 13.55 -12.8 16.6 -8.45 18.0 -15.4 21.05 -17.15 24.4 -19.1 24.55 -21.6 32.35 -19.9 34.6 -25.95 35.65 -29.8 33.65 -33.3 39.15 -34.85 39.15 -41.3 39.15 -51.75 30.65 -54.15 Z" fill="none" stroke="#000000" stroke-linecap="round" stroke-linejoin="round" stroke-width="2.0"/>
  </g>
</svg>
