<?xml version="1.0" encoding="UTF-8" standalone="no"?>
<svg xmlns:ffdec="https://www.free-decompiler.com/flash" xmlns:xlink="http://www.w3.org/1999/xlink" ffdec:objectType="shape" height="68.0px" width="40.9px" xmlns="http://www.w3.org/2000/svg">
  <g transform="matrix(1.0, 0.0, 0.0, 1.0, 22.05, 100.6)">
    <path d="M17.95 -70.9 Q13.0 -77.0 10.35 -83.55 7.75 -92.75 -3.65 -99.7 -17.6 -80.6 -21.0 -60.7 -22.4 -50.35 -12.45 -44.65 -19.5 -45.5 -14.5 -40.15 -12.35 -37.6 -9.75 -38.35 -15.4 -35.0 -9.55 -34.65 L-6.25 -35.95 Q-8.7 -31.85 -4.0 -34.65" fill="none" stroke="#000000" stroke-linecap="round" stroke-linejoin="round" stroke-width="1.8"/>
    <path d="M-2.4 -41.25 Q-9.55 -40.4 -5.65 -43.45 -13.85 -45.15 -9.3 -48.1 -13.75 -50.7 -15.85 -57.75 L-13.25 -67.75 -5.9 -90.85 -1.4 -83.5 0.9 -61.75 Q-1.9 -62.1 -1.15 -60.15 -0.65 -58.6 2.2 -55.6 0.35 -54.85 0.0 -53.85 L0.0 -53.65 Q-0.1 -52.5 2.2 -51.15 M-1.15 -60.15 L-7.6 -63.25 Q-9.8 -59.25 -5.05 -55.3 -11.75 -52.5 -5.05 -51.2 -6.45 -46.35 -3.0 -46.6 -3.0 -47.25 -2.45 -48.1 -2.85 -48.85 -1.8 -50.75 -6.8 -51.2 0.0 -53.85 M-1.25 -44.5 Q-3.0 -45.35 -3.0 -46.6 M0.4 -47.95 L-2.45 -48.1" fill="none" stroke="#000000" stroke-linecap="round" stroke-linejoin="round" stroke-opacity="0.49803922" stroke-width="1.0"/>
  </g>
</svg>
