<?xml version="1.0" encoding="UTF-8" standalone="no"?>
<svg xmlns:ffdec="https://www.free-decompiler.com/flash" xmlns:xlink="http://www.w3.org/1999/xlink" ffdec:objectType="shape" height="88.5px" width="45.5px" xmlns="http://www.w3.org/2000/svg">
  <g transform="matrix(1.0, 0.0, 0.0, 1.0, 8.1, 116.4)">
    <path d="M30.1 -98.1 Q26.7 -109.15 21.75 -115.4 14.65 -106.25 7.5 -90.9 L5.6 -86.75 Q-7.05 -61.45 -7.1 -50.1 -7.35 -37.65 -1.6 -30.05 L-0.65 -28.9 M30.1 -98.1 L30.3 -97.4 Q36.3 -81.95 36.4 -71.05" fill="none" stroke="#000000" stroke-linecap="round" stroke-linejoin="round" stroke-width="2.0"/>
    <path d="M29.8 -63.55 L23.7 -64.2 Q27.2 -67.65 27.2 -73.05 27.2 -75.65 27.8 -77.55 25.35 -76.6 22.05 -76.85 16.75 -76.65 14.3 -73.45 16.25 -76.85 15.8 -80.55 8.9 -78.05 6.85 -69.95 9.1 -62.75 8.0 -53.5 L7.75 -51.45 9.6 -52.6 Q10.4 -51.85 11.3 -51.4 15.7 -48.8 23.5 -50.65 22.65 -53.9 19.0 -55.75 23.75 -55.75 26.4 -58.7 L26.65 -59.05 30.5 -63.2 29.8 -63.55 Q27.8 -66.3 27.95 -73.05 28.0 -79.6 29.95 -86.8 30.9 -92.4 30.1 -98.1 M7.5 -90.9 Q5.0 -81.95 6.45 -71.35 L6.85 -69.95" fill="none" stroke="#000000" stroke-linecap="round" stroke-linejoin="round" stroke-opacity="0.49803922" stroke-width="1.5"/>
  </g>
</svg>
