<?xml version="1.0" encoding="UTF-8" standalone="no"?>
<svg xmlns:ffdec="https://www.free-decompiler.com/flash" xmlns:xlink="http://www.w3.org/1999/xlink" ffdec:objectType="shape" height="77.7px" width="61.9px" xmlns="http://www.w3.org/2000/svg">
  <g transform="matrix(1.0, 0.0, 0.0, 1.0, 63.5, 46.25)">
    <path d="M-3.45 -27.7 Q-5.0 -32.85 -8.05 -34.35 -8.6 -34.3 -9.6 -31.7 -22.05 -47.2 -35.75 -45.0 -40.25 -12.4 -52.85 12.75 -57.1 21.35 -62.5 29.1 L-62.5 30.45 Q-59.85 30.7 -56.0 27.35 -47.35 26.95 -43.5 22.1 -39.75 17.15 -38.2 13.15 L-41.45 24.65 Q-31.6 24.15 -24.5 8.6 L-23.7 4.3 -23.8 5.05 Q-25.0 14.45 -23.7 16.5 -21.3 15.3 -19.1 11.4 -15.55 5.1 -12.55 -8.15 -9.85 -4.1 -7.55 -13.75 -5.5 -10.75 -3.25 -14.15 L-2.6 -15.25" fill="none" stroke="#000000" stroke-linecap="round" stroke-linejoin="round" stroke-width="2.0"/>
    <path d="M-56.0 27.35 L-55.25 26.7 Q-45.55 17.0 -39.3 3.1 -38.3 0.95 -37.45 -1.4 L-35.15 -7.95 -34.2 -10.75 Q-30.9 -22.2 -29.5 -35.75 -17.5 -32.95 -7.25 -20.0 M-34.75 -5.45 Q-33.95 3.2 -32.6 4.6 -27.5 2.35 -24.45 -11.15 L-23.25 -17.55 -22.7 -21.05 -22.45 -22.55 M-12.55 -8.15 L-13.75 -10.6 M-23.8 -8.15 Q-21.25 -3.4 -19.2 -4.1 -17.15 -6.55 -15.65 -12.25 -14.95 -14.75 -14.35 -17.8 L-14.15 -19.1 -13.75 -21.9" fill="none" stroke="#000000" stroke-linecap="round" stroke-linejoin="round" stroke-opacity="0.49803922" stroke-width="1.5"/>
  </g>
</svg>
