<?xml version="1.0" encoding="UTF-8" standalone="no"?>
<svg xmlns:ffdec="https://www.free-decompiler.com/flash" xmlns:xlink="http://www.w3.org/1999/xlink" ffdec:objectType="shape" height="40.2px" width="32.65px" xmlns="http://www.w3.org/2000/svg">
  <g transform="matrix(1.0, 0.0, 0.0, 1.0, 21.05, 81.05)">
    <path d="M3.85 -46.05 Q-1.6 -38.05 -12.45 -44.9 L-14.15 -46.05 Q-26.1 -62.15 -14.15 -75.4 L-12.45 -77.0 Q-5.7 -82.9 0.85 -77.8 4.95 -72.3 10.7 -66.95" fill="none" stroke="#000000" stroke-linecap="round" stroke-linejoin="round" stroke-width="1.8"/>
    <path d="M5.0 -49.55 L5.35 -50.8 Q3.4 -47.55 -3.35 -46.8 -10.15 -46.6 -12.45 -53.15 -14.15 -57.85 -13.55 -66.0 L-12.45 -68.35 Q-8.3 -76.2 -3.2 -70.4 -1.25 -64.3 1.9 -61.0 3.25 -59.6 4.85 -58.75 6.4 -55.4 6.1 -53.0 6.05 -52.1 5.65 -51.4 L5.45 -50.95 5.45 -50.9 5.35 -50.8 5.5 -51.25 Q3.25 -49.8 2.15 -51.95 -1.55 -47.9 -1.1 -55.6 -3.3 -52.75 -6.0 -55.6 -10.5 -59.7 1.9 -61.0 M6.1 -53.0 L5.5 -51.25 5.6 -51.25 5.65 -51.35 5.65 -51.4" fill="none" stroke="#000000" stroke-linecap="round" stroke-linejoin="round" stroke-opacity="0.49803922" stroke-width="1.0"/>
  </g>
</svg>
