<?xml version="1.0" encoding="UTF-8" standalone="no"?>
<svg xmlns:ffdec="https://www.free-decompiler.com/flash" xmlns:xlink="http://www.w3.org/1999/xlink" ffdec:objectType="shape" height="48.05px" width="41.65px" xmlns="http://www.w3.org/2000/svg">
  <g transform="matrix(1.0, 0.0, 0.0, 1.0, 25.7, 82.25)">
    <path d="M4.65 -37.6 Q4.0 -35.85 2.05 -35.15 1.25 -35.75 1.7 -36.85 L0.15 -35.25 Q-3.15 -34.4 -1.3 -37.7 -3.95 -35.8 -7.6 -36.65 -13.75 -37.5 -18.95 -42.75 -23.5 -48.35 -24.75 -56.1 -25.2 -62.55 -22.5 -69.35 L-21.8 -70.85 Q-18.8 -76.8 -13.75 -80.15 -8.7 -82.95 -2.5 -79.15 L6.1 -73.2 Q9.75 -70.55 15.05 -71.15" fill="none" stroke="#000000" stroke-linecap="round" stroke-linejoin="round" stroke-width="1.8"/>
    <path d="M4.75 -49.45 Q3.7 -49.7 2.9 -51.45 L2.7 -49.55 Q2.15 -47.95 1.05 -47.65 -1.0 -48.05 -0.35 -51.0 -1.5 -49.75 -3.25 -49.2 -6.55 -48.5 -8.7 -50.7 -9.8 -52.8 -7.3 -54.95 -4.2 -56.65 -0.35 -57.65 M-21.8 -70.85 L-19.65 -73.0 Q-15.7 -76.8 -8.55 -76.45 -4.05 -75.85 -0.55 -72.35 4.55 -68.0 11.4 -67.15 M-24.75 -56.1 Q-23.4 -51.15 -20.0 -47.4 -14.95 -42.75 -8.45 -40.65 L-1.5 -40.2 Q1.25 -41.25 4.05 -43.35 M0.3 -51.75 L-0.35 -51.0" fill="none" stroke="#000000" stroke-linecap="round" stroke-linejoin="round" stroke-opacity="0.49803922" stroke-width="1.0"/>
  </g>
</svg>
