<?xml version="1.0" encoding="UTF-8" standalone="no"?>
<svg xmlns:ffdec="https://www.free-decompiler.com/flash" xmlns:xlink="http://www.w3.org/1999/xlink" ffdec:objectType="shape" height="24.25px" width="20.95px" xmlns="http://www.w3.org/2000/svg">
  <g transform="matrix(1.0, 0.0, 0.0, 1.0, 12.2, 12.2)">
    <path d="M1.4 -8.7 Q-1.05 -13.4 -2.65 -9.25 -5.8 -12.55 -5.9 -8.5 L-11.05 -8.7 Q-11.75 -6.75 -9.5 -4.8 -12.35 -2.05 -8.8 0.45 -11.9 4.0 -6.5 5.25 -7.1 7.35 -4.05 7.85 -4.25 9.85 -2.1 10.4 -0.35 10.8 0.65 9.15 1.95 13.1 5.15 8.8 8.05 11.35 7.7 6.6" fill="none" stroke="#000000" stroke-linecap="round" stroke-linejoin="round" stroke-width="2.0"/>
    <path d="M-5.0 0.95 Q-6.3 -3.5 -5.45 -4.8 -2.75 -4.75 0.95 -0.75 -0.35 0.95 1.65 1.85 L1.7 4.75 Q3.3 5.2 4.55 4.75 M1.7 4.75 Q0.3 4.65 -1.05 6.9" fill="none" stroke="#000000" stroke-linecap="round" stroke-linejoin="round" stroke-opacity="0.49803922" stroke-width="1.5"/>
  </g>
</svg>
