<?xml version="1.0" encoding="UTF-8" standalone="no"?>
<svg xmlns:ffdec="https://www.free-decompiler.com/flash" xmlns:xlink="http://www.w3.org/1999/xlink" ffdec:objectType="shape" height="57.4px" width="59.6px" xmlns="http://www.w3.org/2000/svg">
  <g transform="matrix(1.0, 0.0, 0.0, 1.0, 42.9, 78.75)">
    <path d="M5.85 -77.1 L3.45 -77.5 Q-8.3 -79.0 -17.1 -72.3 L-20.6 -69.05 Q-24.65 -64.85 -26.55 -59.7 -29.45 -58.95 -32.0 -57.6 L-33.55 -56.7 Q-40.7 -51.05 -41.65 -42.95 L-41.7 -42.65 Q-42.4 -36.5 -40.8 -31.35 L-39.95 -30.1 Q-38.15 -27.7 -33.55 -26.1 L-29.7 -25.85 Q-32.0 -27.35 -29.2 -28.4 -32.85 -29.3 -34.95 -31.35 -35.75 -32.65 -36.15 -34.0 -36.7 -36.15 -36.3 -38.5 -35.8 -40.45 -34.7 -42.1 -32.85 -45.1 -29.05 -47.0 -29.4 -42.4 -28.05 -37.55 -27.6 -35.7 -26.8 -33.9 -24.45 -29.35 -20.35 -25.85 L-18.25 -24.25 Q-11.9 -20.8 -5.45 -23.65 0.2 -26.85 1.75 -34.2 L2.1 -37.35 Q2.2 -41.1 0.7 -44.5 M5.85 -77.1 Q10.45 -76.05 12.75 -73.95 16.4 -70.6 15.55 -66.2" fill="none" stroke="#000000" stroke-linecap="round" stroke-linejoin="round" stroke-width="2.0"/>
    <path d="M-29.7 -25.85 Q-27.7 -27.6 -29.2 -28.4" fill="none" stroke="#000000" stroke-linecap="round" stroke-linejoin="round" stroke-opacity="0.49803922" stroke-width="2.0"/>
    <path d="M-20.6 -69.05 Q-22.0 -64.2 -19.55 -60.3 -13.55 -58.85 -9.0 -55.8 L-7.55 -54.75 Q-5.95 -68.05 5.85 -77.1 M0.7 -44.5 Q-0.4 -47.1 -2.6 -49.65 -4.75 -52.55 -7.55 -54.75 M2.1 -37.35 Q-4.45 -32.65 -13.0 -35.45 L-12.6 -32.75 M-26.55 -59.7 L-19.55 -60.3 M-32.0 -57.6 Q-26.25 -53.2 -27.7 -47.45 -24.45 -48.05 -20.25 -45.85 L-17.8 -43.6 Q-9.6 -45.55 -9.0 -55.8 M-41.7 -42.65 Q-38.0 -45.5 -34.7 -42.1 M-29.05 -47.0 L-27.7 -47.45 M-39.95 -30.1 Q-39.35 -34.0 -36.15 -34.0 M-17.8 -43.6 L-16.65 -42.3 Q-14.55 -39.85 -13.55 -37.05 L-13.0 -35.45 M-28.05 -37.55 Q-25.8 -43.6 -16.65 -42.3 M-20.35 -25.85 Q-21.65 -34.55 -13.55 -37.05" fill="none" stroke="#000000" stroke-linecap="round" stroke-linejoin="round" stroke-opacity="0.49803922" stroke-width="1.2000000000000002"/>
  </g>
</svg>
