<?xml version="1.0" encoding="UTF-8" standalone="no"?>
<svg xmlns:ffdec="https://www.free-decompiler.com/flash" xmlns:xlink="http://www.w3.org/1999/xlink" ffdec:objectType="shape" height="23.8px" width="22.95px" xmlns="http://www.w3.org/2000/svg">
  <g transform="matrix(1.0, 0.0, 0.0, 1.0, 14.5, 12.65)">
    <path d="M-5.05 0.5 Q-0.8 -0.45 -1.0 -4.75 L-3.0 -6.55 Q-2.5 -2.5 -7.15 -0.75 M-10.1 -1.95 Q-11.1 -5.1 -9.35 -6.95 -7.25 -9.45 -3.0 -6.55 M-1.0 -4.75 Q2.4 -1.6 5.0 1.5 2.25 2.1 1.7 3.7 1.15 5.55 3.3 6.6 0.35 7.75 -3.3 2.85" fill="none" stroke="#000000" stroke-linecap="round" stroke-linejoin="round" stroke-opacity="0.49803922" stroke-width="1.5"/>
    <path d="M4.55 -3.0 Q1.05 -8.5 -2.75 -10.85 -9.25 -13.3 -12.4 -8.05 -15.5 -0.6 -10.0 2.8 -4.95 5.3 -2.55 7.6 3.25 12.7 7.45 7.65" fill="none" stroke="#000000" stroke-linecap="round" stroke-linejoin="round" stroke-width="2.0"/>
  </g>
</svg>
