<?xml version="1.0" encoding="UTF-8" standalone="no"?>
<svg xmlns:ffdec="https://www.free-decompiler.com/flash" xmlns:xlink="http://www.w3.org/1999/xlink" ffdec:objectType="shape" height="49.0px" width="44.25px" xmlns="http://www.w3.org/2000/svg">
  <g transform="matrix(1.0, 0.0, 0.0, 1.0, -2.75, 117.35)">
    <path d="M12.6 -96.3 Q16.3 -106.75 20.15 -99.0 L20.9 -97.9 25.95 -90.2 Q27.65 -87.65 29.6 -85.75 35.75 -80.45 41.1 -81.3 45.65 -81.95 45.85 -86.25 47.1 -101.35 35.9 -111.25 25.1 -120.85 17.85 -112.4 7.75 -100.65 3.75 -78.9 M23.0 -69.35 Q27.8 -75.85 29.6 -85.75" fill="none" stroke="#000000" stroke-linecap="round" stroke-linejoin="round" stroke-width="2.0"/>
    <path d="M17.9 -70.9 Q24.1 -78.9 25.95 -90.2 M10.1 -74.65 Q12.3 -88.25 20.9 -97.9" fill="none" stroke="#000000" stroke-linecap="round" stroke-linejoin="round" stroke-opacity="0.49803922" stroke-width="1.5"/>
  </g>
</svg>
