<?xml version="1.0" encoding="UTF-8" standalone="no"?>
<svg xmlns:ffdec="https://www.free-decompiler.com/flash" xmlns:xlink="http://www.w3.org/1999/xlink" ffdec:objectType="shape" height="72.6px" width="66.65px" xmlns="http://www.w3.org/2000/svg">
  <g transform="matrix(1.0, 0.0, 0.0, 1.0, 63.5, 87.2)">
    <path d="M-25.55 -74.55 Q-26.5 -78.5 -25.9 -86.2 -31.35 -83.25 -34.25 -77.25 -46.7 -69.5 -54.65 -56.75 -67.6 -33.95 -59.25 -15.6 -59.2 -21.65 -58.15 -27.3 -44.65 -49.55 -35.6 -29.0 L-34.55 -24.55 -34.25 -30.3 Q-31.5 -43.65 -19.9 -41.7 L-18.35 -41.4 Q-14.0 -38.55 -6.8 -37.65 L2.15 -37.25 M-25.55 -74.55 Q-23.5 -65.7 -18.7 -56.45 -16.35 -51.9 -13.4 -47.3 -11.35 -45.2 -6.8 -44.05 L1.4 -42.8" fill="none" stroke="#000000" stroke-linecap="round" stroke-linejoin="round" stroke-width="2.0"/>
    <path d="M-34.25 -77.25 Q-33.7 -74.75 -31.0 -72.3 -27.25 -72.85 -25.55 -74.55 M-58.15 -27.3 Q-55.4 -42.5 -45.65 -55.95 -41.4 -61.85 -34.25 -67.6 -39.8 -49.25 -35.6 -29.0 M-34.25 -30.3 Q-33.15 -47.8 -28.15 -64.5 -25.5 -54.1 -19.9 -44.05 L-18.35 -41.4" fill="none" stroke="#000000" stroke-linecap="round" stroke-linejoin="round" stroke-opacity="0.49803922" stroke-width="1.5"/>
  </g>
</svg>
