<?xml version="1.0" encoding="UTF-8" standalone="no"?>
<svg xmlns:ffdec="https://www.free-decompiler.com/flash" xmlns:xlink="http://www.w3.org/1999/xlink" ffdec:objectType="shape" height="74.15px" width="40.15px" xmlns="http://www.w3.org/2000/svg">
  <g transform="matrix(1.0, 0.0, 0.0, 1.0, 12.75, 143.55)">
    <path d="M-8.05 -122.05 Q-8.6 -131.2 -11.75 -142.55 4.8 -133.5 15.05 -117.0 15.2 -114.8 11.5 -110.5 L18.9 -109.85 Q31.6 -86.4 22.85 -70.4 12.15 -71.3 7.25 -74.5 -0.15 -79.65 -4.35 -84.8 L-2.4 -88.9 Q-6.75 -88.2 -7.45 -89.45 L-7.5 -89.5 Q-10.3 -99.3 -8.45 -111.7 L-3.9 -109.8 Q-3.95 -112.65 -8.05 -115.5 -7.85 -118.55 -8.05 -121.95" fill="none" stroke="#000000" stroke-linecap="round" stroke-linejoin="round" stroke-width="2.0"/>
    <path d="M-8.05 -121.95 L-8.05 -122.05" fill="none" stroke="#000000" stroke-linecap="round" stroke-linejoin="round" stroke-opacity="0.49803922" stroke-width="2.0"/>
    <path d="M22.85 -70.4 Q21.1 -79.0 17.05 -89.7 12.9 -100.45 7.85 -107.3 2.75 -114.25 0.8 -119.7 L0.75 -119.75 Q-0.85 -105.75 2.65 -93.9 6.8 -81.1 22.85 -70.4 M-3.3 -119.3 L-8.05 -121.95 M1.35 -119.3 L-6.4 -134.9" fill="none" stroke="#000000" stroke-linecap="round" stroke-linejoin="round" stroke-opacity="0.49803922" stroke-width="1.5"/>
  </g>
</svg>
