<?xml version="1.0" encoding="UTF-8" standalone="no"?>
<svg xmlns:ffdec="https://www.free-decompiler.com/flash" xmlns:xlink="http://www.w3.org/1999/xlink" ffdec:objectType="shape" height="20.75px" width="17.5px" xmlns="http://www.w3.org/2000/svg">
  <g transform="matrix(1.0, 0.0, 0.0, 1.0, 8.7, 9.35)">
    <path d="M-4.2 -5.4 L-4.4 -4.95 Q-4.55 -4.75 -4.85 -4.75 L-5.35 -4.95 -5.55 -5.4 -5.35 -5.85 -4.85 -6.0 -4.4 -5.85 -4.2 -5.4 M6.4 4.8 L6.6 5.4 6.45 6.0 5.85 5.95 5.35 5.4 5.05 4.75 Q5.05 4.4 5.3 4.3 L5.75 4.25 6.4 4.8" fill="#000000" fill-rule="evenodd" stroke="none"/>
    <path d="M6.4 8.95 L7.8 7.45 M0.25 -6.5 Q-3.85 -8.35 -6.25 -8.35 L-7.1 -3.8 Q-7.6 0.05 -7.7 4.55 -3.9 8.7 3.7 10.4 5.0 10.0 6.4 8.95" fill="none" stroke="#000000" stroke-linecap="round" stroke-linejoin="round" stroke-width="2.0"/>
    <path d="M-7.1 -3.8 Q-5.9 -1.9 -3.6 -0.05 -3.85 -1.9 -3.65 -3.75 -0.65 -0.55 3.9 2.75 2.9 3.6 2.35 4.6 3.7 6.7 6.4 8.95 M2.35 4.6 Q1.8 5.35 1.55 6.3 -1.6 5.15 -2.85 3.7 L-3.6 -0.05" fill="none" stroke="#000000" stroke-linecap="round" stroke-linejoin="round" stroke-opacity="0.49803922" stroke-width="1.5"/>
  </g>
</svg>
