<?xml version="1.0" encoding="UTF-8" standalone="no"?>
<svg xmlns:ffdec="https://www.free-decompiler.com/flash" xmlns:xlink="http://www.w3.org/1999/xlink" ffdec:objectType="shape" height="42.15px" width="33.2px" xmlns="http://www.w3.org/2000/svg">
  <g transform="matrix(1.0, 0.0, 0.0, 1.0, 18.95, 80.35)">
    <path d="M2.9 -40.0 Q-1.4 -40.5 -4.25 -42.4 -11.15 -47.4 -12.6 -55.75 -13.7 -60.65 -12.9 -65.9 L-12.9 -67.45 Q-11.0 -74.1 -6.1 -71.0 0.7 -65.0 3.25 -56.7 L3.55 -56.2 6.25 -50.8 M3.55 -56.2 L-1.5 -57.85 Q-7.65 -60.2 -7.95 -53.65 -6.7 -48.3 -0.75 -48.75 -3.0 -43.2 1.3 -43.1 4.45 -42.45 5.45 -46.2" fill="none" stroke="#000000" stroke-linecap="round" stroke-linejoin="round" stroke-opacity="0.49803922" stroke-width="1.0"/>
    <path d="M13.35 -67.9 Q8.0 -71.8 3.25 -76.25 -3.35 -83.25 -12.85 -74.95 -19.05 -68.55 -17.85 -56.6 -16.6 -44.35 -8.8 -41.0 -1.7 -37.8 2.9 -40.0" fill="none" stroke="#000000" stroke-linecap="round" stroke-linejoin="round" stroke-width="1.8"/>
  </g>
</svg>
