<?xml version="1.0" encoding="UTF-8" standalone="no"?>
<svg xmlns:ffdec="https://www.free-decompiler.com/flash" xmlns:xlink="http://www.w3.org/1999/xlink" ffdec:objectType="shape" height="52.0px" width="103.35px" xmlns="http://www.w3.org/2000/svg">
  <g transform="matrix(1.0, 0.0, 0.0, 1.0, 100.25, 34.55)">
    <path d="M-71.85 0.45 Q-65.5 -1.2 -60.35 -3.95 -53.75 -7.55 -46.7 -7.55 L-44.35 -9.7 Q-54.65 -6.3 -63.9 -11.4 M-65.4 8.2 Q-60.7 6.25 -58.8 4.8 L-52.4 0.1 Q-50.7 -3.6 -46.95 -7.35 L-46.7 -7.55 M-41.45 -20.4 Q-39.45 -19.8 -35.8 -19.3 -30.1 -18.65 -25.2 -20.9 -27.95 -15.15 -20.4 -18.1 -15.55 -20.05 -13.3 -23.1 -12.85 -15.8 -8.7 -15.75 -4.45 -15.7 -2.65 -20.35 -2.1 -21.55 -1.95 -22.7 L-1.95 -22.85 M-23.35 -3.35 Q-25.1 -4.45 -23.55 -11.9 -32.95 -3.8 -35.2 -4.5 -38.3 1.55 -37.35 6.9 L-35.3 6.7 Q-31.6 5.9 -28.75 3.7 -25.7 1.5 -23.55 -2.4 L-23.35 -3.35 Q-21.0 -1.7 -12.05 -12.5 -12.0 -8.95 -9.6 -6.45 -4.65 -9.1 -2.85 -16.8 -2.2 -19.5 -1.95 -22.7 M-52.4 0.1 L-53.55 3.05 Q-47.6 2.95 -42.9 0.6 -38.8 -1.5 -35.75 -5.2 -35.95 -6.1 -35.45 -7.85 -32.6 -17.2 -25.2 -20.9 M-35.2 -4.5 L-35.75 -5.2 M-9.6 -6.45 Q-10.1 -1.7 -7.15 2.0 -3.95 -1.0 -2.9 -5.7 -1.9 -10.4 -2.85 -16.8 M-37.35 -12.95 Q-40.95 -10.85 -44.35 -9.7 M-29.8 7.35 L-29.8 7.15 Q-29.0 5.45 -28.75 3.7 M-38.5 9.85 L-35.3 6.7 M-49.5 9.05 Q-45.65 6.8 -42.9 0.6 M-17.15 4.45 Q-12.2 0.6 -9.6 -6.45 M-23.1 7.45 Q-24.15 2.75 -23.55 -2.4 M-2.9 -5.7 Q-1.45 -4.8 0.1 -5.85" fill="none" stroke="#000000" stroke-linecap="round" stroke-linejoin="round" stroke-opacity="0.49803922" stroke-width="1.0"/>
    <path d="M-3.55 -28.4 Q-1.6 -25.95 -1.95 -23.0 L-1.95 -22.85 Q4.9 -10.4 0.45 -6.15 L0.1 -5.85 Q0.55 6.75 -4.15 8.6 -6.8 6.35 -7.15 2.0 -11.1 9.05 -15.05 9.95 -16.75 7.95 -17.15 4.45 -19.8 6.4 -23.1 7.45 -26.45 9.85 -28.9 9.7 -30.1 8.2 -29.8 7.35 -32.0 12.1 -37.65 15.45 -38.95 12.8 -38.5 9.85 -44.85 15.65 -50.7 16.55 -51.05 12.8 -49.5 9.05 -62.75 16.35 -69.2 14.75 -68.75 11.45 -65.4 8.2 L-70.45 10.1 Q-84.95 16.1 -86.55 13.75 -88.0 9.55 -71.85 0.45 -90.9 5.05 -99.35 3.75 -91.25 -6.35 -63.9 -11.4 -61.2 -13.75 -54.3 -15.7 -47.5 -17.7 -41.45 -20.4 -47.85 -22.6 -36.2 -26.95 -20.75 -32.55 -13.9 -33.45 -7.65 -34.6 -3.55 -28.4 Z" fill="none" stroke="#000000" stroke-linecap="round" stroke-linejoin="round" stroke-width="1.8"/>
  </g>
</svg>
