<?xml version="1.0" encoding="UTF-8" standalone="no"?>
<svg xmlns:ffdec="https://www.free-decompiler.com/flash" xmlns:xlink="http://www.w3.org/1999/xlink" ffdec:objectType="shape" height="62.3px" width="44.9px" xmlns="http://www.w3.org/2000/svg">
  <g transform="matrix(1.0, 0.0, 0.0, 1.0, 7.65, 121.55)">
    <path d="M-6.65 -60.25 L-5.75 -67.15 -4.35 -76.6 -2.95 -84.55 -1.3 -92.2 0.6 -99.45 Q1.85 -103.65 3.2 -107.15 4.75 -111.2 6.55 -114.2 9.0 -118.4 11.75 -120.55 L14.0 -118.55 Q27.75 -106.0 36.25 -82.25" fill="none" stroke="#000000" stroke-linecap="round" stroke-linejoin="round" stroke-width="2.0"/>
    <path d="M6.55 -114.2 L9.75 -114.45 Q11.7 -117.6 14.0 -118.55 M9.75 -114.45 Q8.2 -111.9 6.95 -107.95 5.9 -104.7 5.05 -100.5 4.4 -97.45 3.9 -93.85 L3.0 -86.8 2.35 -79.65 1.8 -70.95 1.6 -66.65 M3.2 -107.15 L6.95 -107.95 M0.6 -99.45 L5.05 -100.5 M-2.95 -84.55 L3.0 -86.8 M-4.35 -76.6 L2.35 -79.65 M-5.75 -67.15 L1.8 -70.95 M-1.3 -92.2 L3.9 -93.85" fill="none" stroke="#000000" stroke-linecap="round" stroke-linejoin="round" stroke-opacity="0.49803922" stroke-width="1.5"/>
  </g>
</svg>
