<?xml version="1.0" encoding="UTF-8" standalone="no"?>
<svg xmlns:ffdec="https://www.free-decompiler.com/flash" xmlns:xlink="http://www.w3.org/1999/xlink" ffdec:objectType="shape" height="38.5px" width="41.1px" xmlns="http://www.w3.org/2000/svg">
  <g transform="matrix(1.0, 0.0, 0.0, 1.0, 36.0, 52.65)">
    <path d="M-30.95 -44.6 Q-31.5 -47.3 -27.15 -44.6 L-14.5 -34.7 Q-11.85 -32.5 -8.5 -32.05 L-9.3 -29.55 -4.7 -30.15 -5.15 -27.65 -2.2 -27.45" fill="none" stroke="#000000" stroke-linecap="round" stroke-linejoin="round" stroke-opacity="0.49803922" stroke-width="1.0"/>
    <path d="M0.75 -50.1 Q-11.1 -49.35 -22.0 -51.6 -31.25 -52.7 -35.1 -46.85 -31.95 -41.0 -29.65 -35.45 L-27.05 -29.0 Q-21.6 -19.9 -10.9 -17.95 L-4.35 -17.7 -4.6 -15.05 Q-1.1 -16.0 1.0 -18.4 L1.25 -16.15 4.2 -19.25" fill="none" stroke="#000000" stroke-linecap="round" stroke-linejoin="round" stroke-width="1.8"/>
  </g>
</svg>
