<?xml version="1.0" encoding="UTF-8" standalone="no"?>
<svg xmlns:ffdec="https://www.free-decompiler.com/flash" xmlns:xlink="http://www.w3.org/1999/xlink" ffdec:objectType="shape" height="75.35px" width="26.75px" xmlns="http://www.w3.org/2000/svg">
  <g transform="matrix(1.0, 0.0, 0.0, 1.0, 22.7, 102.7)">
    <path d="M-13.05 -78.4 Q-11.95 -76.85 -10.4 -76.15 -8.8 -75.45 -6.7 -75.55 M-12.0 -85.75 Q-11.25 -84.45 -9.35 -84.25 L-6.7 -84.3 -6.05 -84.35 M-15.65 -70.4 Q-14.95 -69.15 -12.85 -68.15 -10.8 -67.1 -7.45 -66.15 M-18.75 -62.45 Q-17.9 -60.2 -14.85 -59.4 L-8.95 -58.95 -7.85 -59.1 M-21.2 -52.65 Q-19.4 -48.5 -14.85 -47.6 -12.15 -47.15 -8.6 -47.6 L-7.65 -47.8 M-5.15 -28.45 Q-0.8 -29.2 -0.15 -34.3 L-0.3 -38.45 M-18.1 -35.85 Q-13.45 -33.55 -9.5 -35.35 -6.9 -36.6 -4.5 -39.45" fill="none" stroke="#000000" stroke-linecap="round" stroke-linejoin="round" stroke-opacity="0.49803922" stroke-width="1.5"/>
    <path d="M-12.0 -85.75 Q-12.15 -82.1 -13.05 -78.4 -13.95 -74.45 -15.65 -70.4 L-15.7 -70.4 Q-17.5 -66.25 -18.75 -62.45 -20.5 -57.2 -21.2 -52.65 -21.9 -48.35 -21.6 -44.8 -21.0 -39.95 -18.1 -35.85 -16.55 -33.8 -14.4 -31.85 -10.45 -29.0 -5.15 -28.45 L3.05 -29.0 M1.45 -50.95 Q-4.85 -53.45 -2.9 -66.45 -0.05 -91.7 -15.3 -101.7 -11.75 -93.9 -12.0 -85.75" fill="none" stroke="#000000" stroke-linecap="round" stroke-linejoin="round" stroke-width="2.0"/>
  </g>
</svg>
