<?xml version="1.0" encoding="UTF-8" standalone="no"?>
<svg xmlns:ffdec="https://www.free-decompiler.com/flash" xmlns:xlink="http://www.w3.org/1999/xlink" ffdec:objectType="shape" height="41.7px" width="39.1px" xmlns="http://www.w3.org/2000/svg">
  <g transform="matrix(1.0, 0.0, 0.0, 1.0, 11.55, 81.9)">
    <path d="M-1.2 -41.8 Q-3.0 -40.9 -5.1 -41.15 -8.0 -42.85 -4.15 -44.0 L-7.0 -45.5 Q-9.5 -47.75 -10.6 -51.15 -11.1 -54.9 -7.9 -52.5 -9.35 -61.95 -5.25 -69.65 -2.45 -73.8 0.8 -77.4 4.7 -80.55 9.15 -80.9 12.25 -81.15 14.15 -80.2 15.55 -81.55 17.75 -80.55 L20.1 -78.6 Q21.95 -74.95 26.65 -73.6" fill="none" stroke="#000000" stroke-linecap="round" stroke-linejoin="round" stroke-width="1.8"/>
    <path d="M15.7 -78.95 L14.15 -80.2 M-4.3 -59.15 Q-3.95 -60.85 -2.0 -62.35 -1.15 -62.8 -0.15 -62.65 0.7 -62.4 1.4 -61.85 3.15 -60.15 5.6 -59.05 M-0.15 -62.65 Q-1.2 -60.75 -1.2 -58.45 -0.75 -54.25 0.5 -50.3" fill="none" stroke="#000000" stroke-linecap="round" stroke-linejoin="round" stroke-opacity="0.49803922" stroke-width="1.0"/>
  </g>
</svg>
