<?xml version="1.0" encoding="UTF-8" standalone="no"?>
<svg xmlns:ffdec="https://www.free-decompiler.com/flash" xmlns:xlink="http://www.w3.org/1999/xlink" ffdec:objectType="shape" height="57.95px" width="35.3px" xmlns="http://www.w3.org/2000/svg">
  <g transform="matrix(1.0, 0.0, 0.0, 1.0, 2.9, 121.4)">
    <path d="M23.6 -118.6 L21.4 -115.6 Q19.75 -113.15 18.25 -110.4 16.65 -107.6 15.2 -104.4 L13.1 -99.5 11.2 -94.4 9.25 -88.55 7.55 -82.55 Q6.75 -79.8 6.1 -76.8 M9.55 -106.95 L15.2 -104.4 M12.95 -112.3 L18.25 -110.4 M6.75 -101.7 L13.1 -99.5 M17.55 -117.4 L21.4 -115.6 M2.0 -91.1 L9.25 -88.55 M4.5 -96.9 L11.2 -94.4 M-0.3 -85.2 L7.55 -82.55" fill="none" stroke="#000000" stroke-linecap="round" stroke-linejoin="round" stroke-opacity="0.49803922" stroke-width="1.5"/>
    <path d="M-1.9 -80.8 L-0.3 -85.2 2.0 -91.1 4.5 -96.9 6.75 -101.7 9.55 -106.95 12.95 -112.3 Q15.25 -115.45 17.55 -117.4 20.2 -119.7 22.75 -120.4 L23.6 -118.6 Q33.1 -97.35 31.0 -64.45" fill="none" stroke="#000000" stroke-linecap="round" stroke-linejoin="round" stroke-width="2.0"/>
  </g>
</svg>
