<?xml version="1.0" encoding="UTF-8" standalone="no"?>
<svg xmlns:ffdec="https://www.free-decompiler.com/flash" xmlns:xlink="http://www.w3.org/1999/xlink" ffdec:objectType="shape" height="39.45px" width="65.15px" xmlns="http://www.w3.org/2000/svg">
  <g transform="matrix(1.0, 0.0, 0.0, 1.0, -10.5, 91.15)">
    <path d="M20.3 -80.35 L22.35 -79.5 24.0 -78.6 25.45 -77.6 28.55 -74.85 30.4 -72.75 31.05 -71.9 33.25 -69.2 37.55 -64.8 Q42.3 -60.45 47.75 -57.65 66.35 -49.2 74.1 -55.2 76.1 -56.1 70.75 -60.1 65.85 -64.75 60.8 -68.95 L57.2 -71.9 57.1 -71.95 Q46.5 -80.5 35.5 -87.2 29.2 -90.5 25.45 -90.1 L24.0 -89.8 Q23.25 -89.55 22.6 -89.1 17.65 -84.55 13.55 -77.75 L13.25 -77.2 12.35 -75.35 11.5 -73.55 M22.8 -68.55 L23.25 -69.2 24.0 -70.25 25.25 -71.9 25.45 -72.1 26.9 -73.55 27.7 -74.2 28.55 -74.85" fill="none" stroke="#000000" stroke-linecap="round" stroke-linejoin="round" stroke-width="2.0"/>
    <path d="M16.1 -69.65 L19.65 -75.5 Q20.45 -77.05 21.6 -78.55 L22.35 -79.5" fill="none" stroke="#000000" stroke-linecap="round" stroke-linejoin="round" stroke-opacity="0.49803922" stroke-width="1.5"/>
  </g>
</svg>
