<?xml version="1.0" encoding="UTF-8" standalone="no"?>
<svg xmlns:ffdec="https://www.free-decompiler.com/flash" xmlns:xlink="http://www.w3.org/1999/xlink" ffdec:objectType="shape" height="52.15px" width="46.3px" xmlns="http://www.w3.org/2000/svg">
  <g transform="matrix(1.0, 0.0, 0.0, 1.0, 35.3, 19.95)">
    <path d="M-30.7 15.65 L-31.9 16.4 -30.1 15.8 Q-19.2 15.5 -6.5 17.1 -5.6 22.15 -5.5 30.6 L-5.8 31.2 Q2.4 21.65 10.0 9.85 M-31.5 -17.65 Q-22.95 -8.75 -19.65 -0.65 -23.85 7.45 -30.7 15.65 M-0.95 -12.4 L-34.3 -18.95 -31.5 -17.65" fill="none" stroke="#000000" stroke-linecap="round" stroke-linejoin="round" stroke-width="2.0"/>
    <path d="M-31.5 -17.65 Q-18.25 -11.45 -0.95 -5.2 -14.55 5.4 -30.7 15.65 M-30.1 15.8 Q-11.0 9.4 6.4 1.0 1.35 15.65 -5.5 30.6" fill="none" stroke="#000000" stroke-linecap="round" stroke-linejoin="round" stroke-opacity="0.49803922" stroke-width="1.5"/>
  </g>
</svg>
