<?xml version="1.0" encoding="UTF-8" standalone="no"?>
<svg xmlns:ffdec="https://www.free-decompiler.com/flash" xmlns:xlink="http://www.w3.org/1999/xlink" ffdec:objectType="shape" height="48.7px" width="41.05px" xmlns="http://www.w3.org/2000/svg">
  <g transform="matrix(1.0, 0.0, 0.0, 1.0, 24.75, 79.75)">
    <path d="M15.4 -69.55 Q12.35 -68.5 -1.25 -77.5 -10.75 -81.65 -18.2 -73.05 -27.45 -57.65 -21.55 -46.05 -19.1 -41.45 -15.7 -38.8 -11.3 -35.45 -5.35 -35.45 -8.3 -29.6 -0.65 -34.05 0.35 -29.4 3.65 -34.95" fill="none" stroke="#000000" stroke-linecap="round" stroke-linejoin="round" stroke-width="1.8"/>
    <path d="M4.4 -45.25 Q3.3 -45.45 3.3 -47.55 -0.75 -47.2 -1.95 -49.0 L-2.2 -49.3 Q-4.0 -48.75 -7.15 -49.7 -10.35 -50.55 -9.1 -46.2 -7.95 -41.85 -2.9 -42.75 -2.55 -39.6 -1.7 -38.8 -1.1 -38.3 -0.35 -38.8 0.6 -39.45 1.85 -41.45 2.2 -39.7 2.7 -39.1 L3.0 -38.8 3.35 -38.8 Q4.0 -39.1 4.9 -41.45 5.25 -43.9 4.4 -45.25 L4.55 -45.25 Q5.55 -45.15 7.45 -46.6 M-2.2 -49.3 Q-4.55 -52.65 1.4 -52.45 -2.65 -54.15 -4.1 -58.15 -5.1 -62.95 -9.5 -67.55 -16.2 -72.65 -19.1 -59.4 -19.55 -43.9 -7.3 -38.8 -5.6 -38.15 -3.7 -37.65 0.8 -37.05 2.5 -38.8 L2.7 -39.1" fill="none" stroke="#000000" stroke-linecap="round" stroke-linejoin="round" stroke-opacity="0.49803922" stroke-width="1.0"/>
  </g>
</svg>
