<?xml version="1.0" encoding="UTF-8" standalone="no"?>
<svg xmlns:ffdec="https://www.free-decompiler.com/flash" xmlns:xlink="http://www.w3.org/1999/xlink" ffdec:objectType="shape" height="56.25px" width="97.6px" xmlns="http://www.w3.org/2000/svg">
  <g transform="matrix(1.0, 0.0, 0.0, 1.0, 84.2, 71.05)">
    <path d="M-76.9 -20.4 Q-80.8 -25.2 -67.2 -27.85 -38.6 -32.9 -18.9 -39.6 1.5 -46.6 12.4 -55.2 M-18.9 -39.6 Q-23.75 -36.45 -20.2 -34.1 -18.6 -33.15 -14.95 -35.45 -13.1 -31.35 -10.6 -31.95 M-23.95 -52.55 Q-33.85 -45.95 -45.25 -39.65" fill="none" stroke="#000000" stroke-linecap="round" stroke-linejoin="round" stroke-opacity="0.49803922" stroke-width="1.5"/>
    <path d="M12.4 -55.2 Q10.2 -47.3 5.7 -45.3 7.2 -38.45 1.2 -38.75 -0.65 -29.65 -6.9 -34.6 -8.95 -32.35 -10.6 -31.95 -25.3 -20.95 -49.65 -16.8 -68.3 -13.65 -76.9 -20.4 -91.7 -32.0 -71.85 -39.4 -63.35 -42.75 -52.0 -44.95 -35.65 -47.7 -23.95 -52.55 L-2.15 -67.25 Q2.85 -70.75 7.05 -69.9" fill="none" stroke="#000000" stroke-linecap="round" stroke-linejoin="round" stroke-width="2.0"/>
  </g>
</svg>
