<?xml version="1.0" encoding="UTF-8" standalone="no"?>
<svg xmlns:ffdec="https://www.free-decompiler.com/flash" xmlns:xlink="http://www.w3.org/1999/xlink" ffdec:objectType="shape" height="31.25px" width="33.65px" xmlns="http://www.w3.org/2000/svg">
  <g transform="matrix(1.0, 0.0, 0.0, 1.0, 25.6, 26.15)">
    <path d="M-0.55 -23.1 Q-6.6 -27.4 -12.4 -23.1 -19.1 -18.1 -21.9 -13.85 -26.05 -9.25 -24.05 -7.2 -21.4 -3.65 -16.35 -2.0 -10.5 -0.6 -7.1 1.95 -0.85 5.75 4.0 3.1 7.15 0.85 7.15 -3.5" fill="none" stroke="#000000" stroke-linecap="round" stroke-linejoin="round" stroke-width="1.8"/>
    <path d="M3.3 -5.85 L2.35 -4.15 0.95 -1.75 -0.4 0.75 M2.35 -4.15 Q-0.45 -5.1 -3.7 -8.65 -7.0 -12.4 -12.05 -8.5 -12.8 -5.75 -9.7 -5.3 -6.55 -4.5 -4.3 -2.4 -2.0 -0.35 0.95 -1.75" fill="none" stroke="#000000" stroke-linecap="round" stroke-linejoin="round" stroke-opacity="0.49803922" stroke-width="1.0"/>
  </g>
</svg>
