<?xml version="1.0" encoding="UTF-8" standalone="no"?>
<svg xmlns:ffdec="https://www.free-decompiler.com/flash" xmlns:xlink="http://www.w3.org/1999/xlink" ffdec:objectType="shape" height="61.7px" width="44.0px" xmlns="http://www.w3.org/2000/svg">
  <g transform="matrix(1.0, 0.0, 0.0, 1.0, 27.7, 102.8)">
    <path d="M14.7 -59.05 Q13.95 -60.7 11.85 -63.35 9.05 -65.8 6.55 -68.35 -14.3 -68.3 -6.35 -61.6 -2.7 -57.85 2.75 -59.1 2.6 -60.2 4.2 -62.75 M6.55 -68.35 Q-2.95 -77.85 -9.0 -90.35 -14.7 -103.65 -22.95 -90.35 -26.2 -72.15 -17.1 -60.4 -9.85 -48.05 -0.6 -49.1 6.55 -48.9 8.5 -51.25 7.6 -52.05 6.75 -55.7 -2.95 -49.7 2.75 -59.1 4.8 -58.35 8.35 -60.25" fill="none" stroke="#000000" stroke-linecap="round" stroke-linejoin="round" stroke-opacity="0.49803922" stroke-width="1.0"/>
    <path d="M15.4 -76.9 L-14.35 -101.85 Q-20.5 -102.7 -24.55 -92.7 -27.35 -85.05 -26.65 -79.35 -25.6 -68.75 -25.2 -69.4 -21.8 -56.3 -21.95 -58.65 -21.5 -53.5 -13.0 -48.3 -8.0 -45.85 -3.45 -45.95 -7.55 -42.15 1.45 -44.65 0.65 -39.35 5.0 -44.65" fill="none" stroke="#000000" stroke-linecap="round" stroke-linejoin="round" stroke-width="1.8"/>
  </g>
</svg>
