<?xml version="1.0" encoding="UTF-8" standalone="no"?>
<svg xmlns:ffdec="https://www.free-decompiler.com/flash" xmlns:xlink="http://www.w3.org/1999/xlink" ffdec:objectType="shape" height="43.2px" width="36.5px" xmlns="http://www.w3.org/2000/svg">
  <g transform="matrix(1.0, 0.0, 0.0, 1.0, 27.6, 11.6)">
    <path d="M2.7 8.25 L6.0 8.75 M6.25 1.9 L4.6 2.0 Q0.95 1.65 0.25 -4.7 -6.8 -2.6 -19.15 -1.5 -14.05 1.9 -0.75 3.15 M-6.1 6.45 L-2.65 7.3" fill="none" stroke="#000000" stroke-linecap="round" stroke-linejoin="round" stroke-opacity="0.49803922" stroke-width="1.5"/>
    <path d="M6.0 8.75 L7.9 8.95 M2.7 8.25 Q3.5 10.15 3.3 14.25 2.45 19.75 4.2 20.3 6.4 20.25 5.3 14.25 L5.35 13.55 Q5.45 10.7 6.0 8.75 M-2.65 7.3 L2.7 8.25 M0.35 -10.6 L-26.6 -1.85 Q-23.2 0.2 -19.45 1.85 -19.05 3.95 -19.25 6.85 L-19.35 7.85 Q-20.25 14.0 -18.0 14.05 -15.55 14.05 -16.85 8.2 L-17.0 7.1 Q-17.35 4.3 -16.85 2.95 -11.8 5.0 -6.1 6.45 -5.55 10.05 -5.9 15.3 L-6.5 19.05 Q-7.05 24.4 -4.7 24.6 -1.35 23.85 -3.0 16.65 -3.55 10.75 -2.65 7.3 M-3.65 28.3 Q-3.35 29.25 -3.9 29.9 -4.45 30.6 -5.25 30.6 -6.0 30.6 -6.6 29.9 -7.15 29.25 -6.95 28.4 L-6.3 26.85 Q-5.85 26.1 -5.2 26.05 -4.5 26.0 -4.25 26.7 L-3.65 28.3 Z" fill="none" stroke="#000000" stroke-linecap="round" stroke-linejoin="round" stroke-width="2.0"/>
  </g>
</svg>
