<?xml version="1.0" encoding="UTF-8" standalone="no"?>
<svg xmlns:ffdec="https://www.free-decompiler.com/flash" xmlns:xlink="http://www.w3.org/1999/xlink" ffdec:objectType="shape" height="54.9px" width="43.2px" xmlns="http://www.w3.org/2000/svg">
  <g transform="matrix(1.0, 0.0, 0.0, 1.0, 10.2, 102.7)">
    <path d="M11.65 -90.4 L22.25 -75.15 Q23.7 -67.6 16.8 -60.0 10.7 -58.9 11.7 -71.5 L12.05 -74.05 12.45 -79.7 Q12.55 -83.4 12.2 -86.7 L11.65 -90.4 Q11.0 -93.5 9.85 -96.15" fill="none" stroke="#000000" stroke-linecap="round" stroke-linejoin="round" stroke-opacity="0.49803922" stroke-width="1.5"/>
    <path d="M-3.25 -48.8 Q-10.55 -53.95 -8.9 -63.65 -8.35 -69.05 -7.1 -74.05 L-5.75 -78.8 Q-4.1 -83.9 -1.75 -88.6 1.25 -94.45 5.35 -99.65 7.65 -103.45 12.25 -100.2 16.9 -97.2 20.75 -93.5 L24.05 -90.1 27.15 -86.3 Q29.85 -82.55 32.0 -78.3" fill="none" stroke="#000000" stroke-linecap="round" stroke-linejoin="round" stroke-width="2.0"/>
  </g>
</svg>
