<?xml version="1.0" encoding="UTF-8" standalone="no"?>
<svg xmlns:ffdec="https://www.free-decompiler.com/flash" xmlns:xlink="http://www.w3.org/1999/xlink" ffdec:objectType="shape" height="51.8px" width="38.85px" xmlns="http://www.w3.org/2000/svg">
  <g transform="matrix(1.0, 0.0, 0.0, 1.0, 32.0, 31.3)">
    <path d="M-30.35 -25.85 L-15.85 -25.25 -16.5 -30.4 M-30.35 -25.85 L-17.4 -16.65 -15.85 -25.25 -2.8 -17.75 -2.75 -18.15 M-3.45 -10.75 L-8.75 -10.55 M-24.2 -9.95 L-17.2 -5.7 -2.9 -8.4 M-17.4 -16.65 L-3.45 -13.3 M-24.85 -13.4 L-17.4 -16.65 M-6.75 10.5 L-2.3 14.4 4.35 2.2 1.95 0.0 -6.75 10.5 -12.85 10.1 M-0.7 19.3 L-2.3 14.4 -10.5 19.6 -6.75 10.5 M-1.45 -5.25 L-15.4 1.85 -16.6 8.7 M-15.4 1.85 L-31.1 2.45 -17.2 -5.7 -15.4 1.85 M-0.1 -2.35 L1.95 0.0" fill="none" stroke="#000000" stroke-linecap="round" stroke-linejoin="round" stroke-opacity="0.49803922" stroke-width="1.0"/>
    <path d="M-16.5 -30.4 L-30.35 -25.85 -24.85 -13.4 -8.75 -10.55 -24.2 -9.95 -31.1 2.45 -16.6 8.7 -0.1 -2.35 -12.85 10.1 -10.5 19.6 -0.7 19.3 5.95 4.75 M-16.5 -30.4 L-2.75 -20.5" fill="none" stroke="#000000" stroke-linecap="round" stroke-linejoin="round" stroke-width="1.8"/>
  </g>
</svg>
