<?xml version="1.0" encoding="UTF-8" standalone="no"?>
<svg xmlns:ffdec="https://www.free-decompiler.com/flash" xmlns:xlink="http://www.w3.org/1999/xlink" ffdec:objectType="shape" height="117.45px" width="40.15px" xmlns="http://www.w3.org/2000/svg">
  <g transform="matrix(1.0, 0.0, 0.0, 1.0, 27.0, 83.7)">
    <path d="M-24.6 30.6 Q-24.15 31.5 -23.3 32.0 -16.2 34.75 -8.4 27.65 0.4 16.25 2.0 0.95 3.95 -16.45 4.75 -32.65 L5.0 -42.0 Q8.55 -39.7 11.35 -40.8 12.75 -42.5 10.6 -47.35 15.8 -52.65 3.8 -76.2 0.6 -83.85 -2.95 -82.5 -5.65 -76.3 -4.15 -71.25 -16.0 -64.85 -18.7 -32.95 L-19.25 -24.55 -24.95 16.5 Q-27.25 26.35 -24.6 30.6" fill="none" stroke="#000000" stroke-linecap="round" stroke-linejoin="round" stroke-width="2.0"/>
    <path d="M-24.6 30.6 Q-14.8 23.6 -7.6 -0.95 -4.75 -15.45 -3.75 -32.8 -3.35 -37.95 -3.2 -43.15 -1.8 -56.75 4.3 -57.6" fill="none" stroke="#000000" stroke-linecap="round" stroke-linejoin="round" stroke-opacity="0.49803922" stroke-width="1.5"/>
  </g>
</svg>
