<?xml version="1.0" encoding="UTF-8" standalone="no"?>
<svg xmlns:ffdec="https://www.free-decompiler.com/flash" xmlns:xlink="http://www.w3.org/1999/xlink" ffdec:objectType="shape" height="48.95px" width="76.1px" xmlns="http://www.w3.org/2000/svg">
  <g transform="matrix(1.0, 0.0, 0.0, 1.0, 69.55, 36.9)">
    <path d="M4.7 -2.85 L5.65 -3.3 Q-9.4 -4.9 -16.5 -23.85 -44.6 -40.1 -68.65 -34.65 -60.2 -30.95 -53.15 -21.55 -45.45 -10.55 -42.6 -0.55 -30.75 0.75 -20.7 11.15 -11.1 2.25 -0.55 3.0 1.35 -0.85 4.7 -2.85" fill="none" stroke="#000000" stroke-linecap="round" stroke-linejoin="round" stroke-width="1.8"/>
    <path d="M-68.65 -34.65 Q-41.0 -34.7 -19.25 -20.65 -14.35 -6.25 -0.45 -2.15 2.15 -1.75 4.7 -2.85 M-42.05 -1.65 Q-32.05 -15.2 -19.7 -20.15 M-0.75 2.45 Q-1.6 0.2 -1.35 -2.1 M-20.6 10.05 Q-18.6 -1.15 -11.85 -7.8" fill="none" stroke="#000000" stroke-linecap="round" stroke-linejoin="round" stroke-opacity="0.49803922" stroke-width="1.0"/>
  </g>
</svg>
