<?xml version="1.0" encoding="UTF-8" standalone="no"?>
<svg xmlns:ffdec="https://www.free-decompiler.com/flash" xmlns:xlink="http://www.w3.org/1999/xlink" ffdec:objectType="shape" height="71.65px" width="62.3px" xmlns="http://www.w3.org/2000/svg">
  <g transform="matrix(1.0, 0.0, 0.0, 1.0, 45.5, 88.7)">
    <path d="M3.4 -22.9 L0.85 -18.4 Q-1.55 -17.45 -2.75 -20.95 -3.75 -16.05 -12.7 -19.1 -15.15 -21.9 -8.55 -23.2 -17.35 -22.5 -25.55 -27.55 L-25.55 -27.6 -25.6 -27.6 Q-27.6 -28.9 -29.65 -30.55 -37.0 -36.45 -40.6 -44.1 -44.15 -49.6 -44.6 -57.35 -44.35 -65.55 -38.0 -74.05 -36.0 -76.85 -33.25 -79.6 -25.65 -87.75 -12.2 -87.8 -3.4 -87.25 3.0 -78.1 9.8 -71.0 15.9 -70.0" fill="none" stroke="#000000" stroke-linecap="round" stroke-linejoin="round" stroke-width="1.8"/>
    <path d="M-10.55 -57.45 Q-16.7 -58.75 -20.7 -62.8 -27.75 -66.45 -25.5 -53.45 -22.3 -44.2 -14.2 -45.4 -20.2 -39.35 -11.0 -38.3 -7.0 -38.3 -7.25 -43.6 -3.25 -36.2 -1.4 -43.3 L-1.4 -43.6 M13.75 -67.3 Q7.4 -68.1 -1.95 -77.25 -17.45 -89.5 -38.0 -74.05 M-6.9 -47.55 Q-21.2 -51.25 -6.9 -51.6 M-25.55 -27.6 Q-4.45 -22.95 1.3 -29.25" fill="none" stroke="#000000" stroke-linecap="round" stroke-linejoin="round" stroke-opacity="0.49803922" stroke-width="1.0"/>
  </g>
</svg>
