<?xml version="1.0" encoding="UTF-8" standalone="no"?>
<svg xmlns:ffdec="https://www.free-decompiler.com/flash" xmlns:xlink="http://www.w3.org/1999/xlink" ffdec:objectType="shape" height="52.6px" width="48.3px" xmlns="http://www.w3.org/2000/svg">
  <g transform="matrix(1.0, 0.0, 0.0, 1.0, 6.85, 102.3)">
    <path d="M17.35 -73.75 L21.7 -80.75 23.55 -84.2 24.85 -86.85 26.25 -90.2 Q27.3 -92.7 26.65 -95.9 M26.05 -66.3 Q25.5 -71.3 25.4 -76.0 L25.45 -81.1 25.7 -85.45 26.25 -90.2" fill="none" stroke="#000000" stroke-linecap="round" stroke-linejoin="round" stroke-opacity="0.49803922" stroke-width="1.5"/>
    <path d="M-5.85 -81.65 Q0.5 -89.25 9.05 -94.1 11.2 -95.35 13.5 -96.4 L16.4 -97.65 Q22.15 -99.95 28.7 -101.3 31.15 -99.15 34.0 -93.4 36.0 -89.4 37.4 -85.5 L39.3 -79.15 40.15 -74.45 Q41.8 -61.25 34.8 -50.7" fill="none" stroke="#000000" stroke-linecap="round" stroke-linejoin="round" stroke-width="2.0"/>
  </g>
</svg>
