<?xml version="1.0" encoding="UTF-8" standalone="no"?>
<svg xmlns:ffdec="https://www.free-decompiler.com/flash" xmlns:xlink="http://www.w3.org/1999/xlink" ffdec:objectType="shape" height="39.75px" width="36.55px" xmlns="http://www.w3.org/2000/svg">
  <g transform="matrix(1.0, 0.0, 0.0, 1.0, 27.85, 12.45)">
    <path d="M-1.1 -11.0 Q-6.2 -13.0 -11.2 -6.5 L-12.4 -3.85 Q-15.25 2.8 -18.05 8.7 -21.45 15.7 -24.85 21.5 L-25.55 22.7 -26.85 24.8 -24.3 25.7 Q-19.45 26.9 -13.55 25.7 L-10.25 24.8 -8.6 23.85 Q-6.9 22.8 -5.5 21.5 -0.75 17.4 1.7 11.2 L1.95 12.5 Q2.95 16.6 2.35 18.35 3.8 17.75 4.8 16.75 8.25 13.45 7.6 6.5" fill="none" stroke="#000000" stroke-linecap="round" stroke-linejoin="round" stroke-width="2.0"/>
  </g>
</svg>
