<?xml version="1.0" encoding="UTF-8" standalone="no"?>
<svg xmlns:ffdec="https://www.free-decompiler.com/flash" xmlns:xlink="http://www.w3.org/1999/xlink" ffdec:objectType="shape" height="64.15px" width="50.6px" xmlns="http://www.w3.org/2000/svg">
  <g transform="matrix(1.0, 0.0, 0.0, 1.0, 45.3, 46.1)">
    <path d="M-1.2 -27.5 Q0.8 -28.55 1.05 -30.7 -7.65 -31.15 -9.95 -37.9 -7.2 -42.2 -1.65 -45.0 L-9.25 -44.8 Q-28.8 -40.15 -44.4 -27.85 L-39.4 -28.6 -34.55 -28.3 Q-31.9 -27.95 -29.9 -26.75 -27.75 -24.65 -29.1 -18.8 L-30.05 -13.45 -30.15 -12.9 M-30.2 -12.65 L-30.35 -11.8 Q-37.15 -3.7 -41.7 5.9 L-37.55 3.15 Q-35.25 1.75 -33.1 1.1 L-28.25 0.55 Q-25.35 1.55 -23.95 7.35 L-23.35 9.65 -22.55 12.6 -21.35 17.15 -20.8 15.75 -19.4 13.0 -19.05 12.35 Q-16.15 7.65 -12.3 6.25 -7.35 4.35 -4.75 6.75 L-4.05 7.65 -4.2 6.45 Q-3.4 6.2 -2.75 5.6 L-2.2 5.1 -0.15 3.15 Q0.95 2.15 4.4 2.0 3.35 -2.9 1.4 -6.65 0.05 -9.4 -1.7 -11.4 L-1.15 -11.2 Q0.05 -16.15 -0.05 -20.35 -0.1 -24.15 -1.2 -27.5" fill="none" stroke="#000000" stroke-linecap="round" stroke-linejoin="round" stroke-width="1.8"/>
    <path d="M-30.35 -11.8 L-30.95 -8.8 -29.8 -9.9 -26.55 -16.2 Q-20.85 -26.55 -13.95 -34.8 -14.6 -31.35 -14.3 -26.65 L-13.95 -22.9 -13.85 -22.75 -12.75 -16.35 -11.5 -10.95 -11.35 -10.5 -11.2 -9.8 -11.2 -9.75 -11.15 -9.8 -11.1 -10.5 -10.85 -11.0 Q-10.3 -12.95 -10.0 -15.3 -9.25 -21.65 -10.1 -29.5 -5.95 -27.2 -1.2 -27.5 M-9.95 -37.9 Q-11.5 -42.35 -9.25 -44.8 M-39.4 -28.6 Q-28.8 -34.65 -17.3 -37.85 L-21.2 -32.9 Q-27.25 -24.05 -30.15 -12.9 L-30.2 -12.65 -30.05 -13.45 M-30.35 -11.8 L-30.3 -12.4 -30.2 -12.65 M-34.55 -28.3 Q-28.55 -31.0 -21.2 -32.9 M-13.95 -22.9 L-16.35 -28.05 -21.35 -21.3 Q-24.3 -17.0 -26.8 -12.15 -24.65 -13.45 -22.55 -14.1 L-21.85 -14.4 -18.0 -14.65 Q-12.75 -14.3 -11.5 -10.95 M-29.8 -9.9 L-26.8 -12.15 M-21.85 -14.4 L-23.05 -8.75 Q-24.75 1.6 -22.55 12.6 L-22.4 13.55 -21.35 17.15 M-20.8 15.75 Q-20.8 -0.1 -17.35 -13.7 -16.15 -9.05 -12.2 -2.9 -9.25 1.55 -4.75 6.75 M-4.2 6.45 Q-5.8 -1.05 -11.15 -9.8 M-19.05 12.35 Q-18.85 2.5 -16.5 -6.45 L-12.2 -2.9 M-0.05 -20.35 Q-2.15 -24.95 -5.75 -25.6 -8.25 -21.2 -8.9 -15.1 L-9.1 -11.05 -8.4 -11.35 -5.8 -12.2 -3.7 -12.05 -1.7 -11.4 M-10.85 -11.0 L-9.1 -11.05 M-11.1 -10.5 Q-7.15 -10.45 -3.7 -12.05 M-23.35 9.65 L-22.4 13.55 M-33.1 1.1 Q-28.8 -3.8 -23.05 -8.75 M-2.75 5.6 Q-6.45 -2.4 -5.95 -8.95 -2.4 -9.9 1.4 -6.65 M-37.55 3.15 Q-30.95 -6.55 -22.55 -14.1" fill="none" stroke="#000000" stroke-linecap="round" stroke-linejoin="round" stroke-opacity="0.49803922" stroke-width="1.0"/>
  </g>
</svg>
