<?xml version="1.0" encoding="UTF-8" standalone="no"?>
<svg xmlns:ffdec="https://www.free-decompiler.com/flash" xmlns:xlink="http://www.w3.org/1999/xlink" ffdec:objectType="shape" height="46.55px" width="51.6px" xmlns="http://www.w3.org/2000/svg">
  <g transform="matrix(1.0, 0.0, 0.0, 1.0, 1.0, 100.15)">
    <path d="M22.9 -60.95 Q24.7 -59.45 25.7 -56.7 26.65 -54.0 29.05 -54.8 31.4 -55.6 31.15 -59.95 31.8 -57.3 35.6 -58.35 39.4 -59.45 39.95 -64.25 41.2 -62.45 40.75 -59.85 46.55 -66.4 46.0 -72.15 47.85 -71.1 49.6 -71.65 49.15 -82.9 41.9 -90.05 47.4 -86.8 47.8 -89.35 48.25 -92.4 41.4 -95.6 34.5 -98.8 29.25 -99.1 23.95 -99.4 18.45 -97.4 12.9 -95.4 13.75 -90.15 11.2 -93.0 11.3 -95.9 7.15 -94.0 8.5 -81.3 -0.4 -82.35 0.0 -78.8 0.2 -77.0 5.5 -74.65" fill="none" stroke="#000000" stroke-linecap="round" stroke-linejoin="round" stroke-width="2.0"/>
    <path d="M20.1 -80.1 Q20.5 -76.4 23.0 -73.7 25.4 -70.95 28.7 -70.65 32.0 -70.5 34.4 -72.9 36.85 -75.5 36.85 -79.45 36.85 -83.75 34.15 -86.85 31.4 -90.05 27.7 -89.95 24.0 -90.0 21.85 -87.0 19.75 -84.15 20.1 -80.1 Z" fill="none" stroke="#000000" stroke-linecap="round" stroke-linejoin="round" stroke-opacity="0.49803922" stroke-width="1.5"/>
  </g>
</svg>
