<?xml version="1.0" encoding="UTF-8" standalone="no"?>
<svg xmlns:ffdec="https://www.free-decompiler.com/flash" xmlns:xlink="http://www.w3.org/1999/xlink" ffdec:objectType="shape" height="61.25px" width="41.15px" xmlns="http://www.w3.org/2000/svg">
  <g transform="matrix(1.0, 0.0, 0.0, 1.0, -1.7, 107.4)">
    <path d="M33.85 -85.65 Q33.55 -88.65 32.1 -91.65 31.65 -86.6 30.2 -80.85 31.85 -78.55 31.45 -75.45 33.3 -75.8 34.85 -73.25 L35.65 -71.95 M30.55 -94.8 L30.4 -93.8 M32.45 -67.9 L33.7 -67.5 M30.2 -80.85 L28.25 -74.15 Q26.5 -68.9 24.0 -63.45 20.95 -56.9 22.95 -53.8 23.95 -52.45 24.85 -49.85 M30.65 -62.9 L31.05 -60.2 M30.75 -72.95 L31.45 -75.45" fill="none" stroke="#000000" stroke-linecap="round" stroke-linejoin="round" stroke-opacity="0.49803922" stroke-width="2.0"/>
    <path d="M35.65 -71.95 Q38.25 -87.2 33.45 -100.1 31.15 -97.35 30.55 -94.8 31.4 -100.9 29.05 -106.4 26.55 -96.65 13.95 -86.3 1.3 -75.9 2.9 -67.85 M35.65 -71.95 L36.2 -71.4 Q38.3 -69.35 41.85 -69.55 39.7 -66.05 33.7 -67.5 36.9 -66.3 36.05 -62.3 35.05 -57.6 35.45 -54.55 32.3 -56.55 31.05 -60.2 31.7 -52.75 28.45 -50.25 27.85 -54.05 25.9 -57.8 27.0 -52.8 25.35 -48.1 L24.85 -49.85 Q23.65 -48.25 21.35 -47.15" fill="none" stroke="#000000" stroke-linecap="round" stroke-linejoin="round" stroke-width="2.0"/>
  </g>
</svg>
