<?xml version="1.0" encoding="UTF-8" standalone="no"?>
<svg xmlns:ffdec="https://www.free-decompiler.com/flash" xmlns:xlink="http://www.w3.org/1999/xlink" ffdec:objectType="shape" height="46.0px" width="35.8px" xmlns="http://www.w3.org/2000/svg">
  <g transform="matrix(1.0, 0.0, 0.0, 1.0, 29.5, 25.0)">
    <path d="M0.6 -19.5 Q-3.0 -23.9 -4.7 -24.0 -6.3 -21.95 -5.4 -17.35 -11.65 -21.2 -13.4 -14.65 -17.8 3.15 -27.5 12.3 -29.2 13.9 -28.0 15.6 -26.5 17.4 -24.55 18.45 -20.6 20.55 -14.9 19.85 -7.95 18.7 -1.8 12.2 3.1 17.15 5.3 4.9" fill="none" stroke="#000000" stroke-linecap="round" stroke-linejoin="round" stroke-width="2.0"/>
    <path d="M-24.55 18.45 Q-10.35 19.05 -3.45 4.1 -2.05 -0.1 -2.1 -4.65 L-2.1 -5.15 M-1.8 12.2 Q-0.25 5.1 -2.1 -4.65" fill="none" stroke="#000000" stroke-linecap="round" stroke-linejoin="round" stroke-opacity="0.49803922" stroke-width="1.5"/>
  </g>
</svg>
