<?xml version="1.0" encoding="UTF-8" standalone="no"?>
<svg xmlns:ffdec="https://www.free-decompiler.com/flash" xmlns:xlink="http://www.w3.org/1999/xlink" ffdec:objectType="shape" height="72.9px" width="45.1px" xmlns="http://www.w3.org/2000/svg">
  <g transform="matrix(1.0, 0.0, 0.0, 1.0, 1.0, 128.25)">
    <path d="M24.65 -81.25 L27.95 -83.9 31.9 -111.0 Q32.3 -118.05 29.95 -122.0 27.65 -125.9 25.05 -126.8 22.45 -127.7 19.45 -126.75 13.5 -124.65 10.0 -120.45 1.6 -111.4 2.4 -97.55 2.9 -89.05 6.25 -80.7 9.6 -80.7 13.1 -79.5 L17.25 -77.55 Q19.7 -81.55 22.0 -79.1 L24.65 -81.25 M27.95 -83.9 L35.1 -88.15 Q42.7 -79.25 43.1 -66.25 37.7 -64.5 33.25 -64.95 28.8 -65.45 24.0 -69.6 L21.1 -68.85 Q17.2 -61.05 7.45 -56.35 -1.55 -67.4 0.35 -80.7 L6.25 -80.7" fill="none" stroke="#000000" stroke-linecap="round" stroke-linejoin="round" stroke-width="2.0"/>
    <path d="M13.1 -79.5 Q4.3 -98.2 13.1 -111.8 16.8 -117.55 22.95 -116.45 29.55 -115.35 24.6 -102.1 18.45 -85.9 24.65 -81.25 M22.0 -79.1 Q24.3 -74.1 24.0 -69.6 M21.1 -68.85 L17.25 -77.55" fill="none" stroke="#000000" stroke-linecap="round" stroke-linejoin="round" stroke-opacity="0.49803922" stroke-width="1.5"/>
  </g>
</svg>
