<?xml version="1.0" encoding="UTF-8" standalone="no"?>
<svg xmlns:ffdec="https://www.free-decompiler.com/flash" xmlns:xlink="http://www.w3.org/1999/xlink" ffdec:objectType="shape" height="51.45px" width="52.5px" xmlns="http://www.w3.org/2000/svg">
  <g transform="matrix(1.0, 0.0, 0.0, 1.0, 47.05, 32.45)">
    <path d="M-16.75 -20.6 Q-16.05 -26.05 -11.95 -31.55 -16.6 -29.85 -19.2 -27.7 -36.5 -13.95 -46.15 5.65 -43.7 3.8 -41.45 2.5 -39.0 1.1 -36.65 0.5 -33.8 -0.35 -31.25 -0.15 -28.15 0.95 -26.7 7.35 L-25.7 11.3 -25.1 13.55 -24.15 17.15 -23.9 18.1 -23.25 16.55 -21.7 13.6 -21.3 12.9 Q-18.05 7.75 -13.75 6.15 -8.4 4.2 -5.65 6.8 -5.15 7.2 -4.8 7.85 L-5.0 6.5 -3.25 5.6 -2.7 5.05 -0.55 2.95 Q0.8 1.9 4.55 1.75 3.35 -3.7 1.3 -7.85 -0.55 -11.7 -3.25 -14.4 -1.7 -16.35 -2.6 -18.65 -11.35 -15.05 -16.75 -20.6" fill="none" stroke="#000000" stroke-linecap="round" stroke-linejoin="round" stroke-width="1.8"/>
    <path d="M-19.2 -27.7 Q-20.35 -24.2 -16.75 -20.6 M-24.15 17.15 L-25.0 14.25 -25.0 14.1 -25.1 13.75 -25.7 11.3 M-41.45 2.5 Q-33.8 -8.45 -24.0 -17.1 -25.0 -13.8 -25.45 -10.4 -27.4 1.2 -25.1 13.55 L-25.1 13.75 M-5.0 6.5 Q-6.8 -2.2 -12.95 -12.15 -7.8 -11.95 -3.25 -14.4 M-23.25 16.55 Q-23.15 -0.8 -19.2 -15.7 -18.0 -10.55 -13.6 -3.9 -10.4 1.05 -5.65 6.8 M-21.3 12.9 Q-20.9 2.1 -18.45 -7.85 L-13.6 -3.9 M-3.25 5.6 Q-7.4 -3.2 -6.8 -10.4 -2.9 -11.4 1.3 -7.85 M-36.65 0.5 Q-31.9 -4.9 -25.45 -10.4" fill="none" stroke="#000000" stroke-linecap="round" stroke-linejoin="round" stroke-opacity="0.49803922" stroke-width="1.0"/>
  </g>
</svg>
