<?xml version="1.0" encoding="UTF-8" standalone="no"?>
<svg xmlns:ffdec="https://www.free-decompiler.com/flash" xmlns:xlink="http://www.w3.org/1999/xlink" ffdec:objectType="shape" height="62.7px" width="57.95px" xmlns="http://www.w3.org/2000/svg">
  <g transform="matrix(1.0, 0.0, 0.0, 1.0, -5.85, 124.95)">
    <path d="M24.25 -114.35 L27.7 -113.4 Q32.65 -111.1 34.4 -104.05 35.05 -101.45 36.05 -98.8 37.05 -96.35 38.35 -93.9 M27.7 -113.4 Q20.85 -90.15 11.55 -67.65 25.8 -81.95 36.05 -98.8" fill="none" stroke="#000000" stroke-linecap="round" stroke-linejoin="round" stroke-opacity="0.49803922" stroke-width="2.0"/>
    <path d="M38.35 -93.9 L39.55 -91.8 Q45.3 -82.15 59.05 -77.4 64.1 -84.65 62.35 -95.85 59.2 -115.2 52.1 -118.9 37.0 -126.0 26.45 -123.1 16.95 -120.1 6.85 -70.7 M38.35 -93.9 Q27.3 -77.25 13.5 -63.25" fill="none" stroke="#000000" stroke-linecap="round" stroke-linejoin="round" stroke-width="2.0"/>
  </g>
</svg>
