<?xml version="1.0" encoding="UTF-8" standalone="no"?>
<svg xmlns:ffdec="https://www.free-decompiler.com/flash" xmlns:xlink="http://www.w3.org/1999/xlink" ffdec:objectType="shape" height="82.4px" width="55.9px" xmlns="http://www.w3.org/2000/svg">
  <g transform="matrix(1.0, 0.0, 0.0, 1.0, 1.0, 101.9)">
    <path d="M38.7 -62.3 Q41.25 -63.8 43.15 -66.2 45.05 -68.65 49.05 -69.65 47.95 -70.2 47.9 -71.35 51.9 -75.15 52.25 -80.1 51.35 -79.05 49.55 -78.95 53.85 -85.4 53.9 -91.4 52.9 -89.75 51.65 -89.35 53.2 -95.7 51.35 -100.9 46.15 -96.05 37.0 -96.05 L19.55 -94.85 Q11.25 -93.7 7.2 -90.15 8.7 -94.7 12.95 -99.65 6.0 -97.0 2.9 -91.75 -1.65 -84.1 0.9 -78.0 M18.2 -58.55 Q18.95 -56.75 21.05 -55.3 22.15 -54.6 23.25 -54.2 28.75 -37.35 29.85 -20.5 35.15 -21.05 39.2 -23.15 38.65 -27.25 37.7 -31.2 42.25 -31.8 45.35 -34.05 44.1 -42.5 38.7 -50.55 41.4 -55.3 37.65 -56.75 39.15 -59.15 38.7 -62.3" fill="none" stroke="#000000" stroke-linecap="round" stroke-linejoin="round" stroke-width="2.0"/>
    <path d="M16.55 -69.9 Q28.0 -73.7 21.7 -76.0 25.45 -75.85 27.8 -77.35 30.2 -78.9 34.2 -79.95 32.7 -80.7 28.2 -80.75 29.85 -82.15 36.3 -82.95 L34.5 -84.65 Q42.65 -87.3 46.5 -90.85 L48.55 -93.4 M17.95 -62.15 Q18.2 -63.45 18.95 -64.9 18.25 -65.55 18.15 -66.1 17.85 -67.35 20.6 -67.9 24.7 -68.85 28.25 -67.1 29.45 -66.5 30.3 -65.65 L30.35 -65.65 Q37.7 -67.15 39.4 -70.6 37.45 -70.45 36.15 -71.05 44.75 -80.6 46.5 -90.85 M18.2 -58.55 Q17.55 -60.2 17.95 -62.15 M38.7 -62.3 L38.55 -62.85 Q34.65 -65.65 30.35 -65.65 M23.25 -54.2 Q25.75 -53.4 28.05 -54.65 L30.3 -56.45 30.85 -57.1 Q30.3 -61.4 27.3 -64.05 23.65 -67.25 18.95 -64.9 M37.7 -31.2 Q34.8 -43.5 28.1 -54.65 L28.05 -54.65 M38.7 -50.55 L37.5 -48.6 Q36.25 -47.15 35.45 -46.95 32.2 -51.1 28.1 -54.65 M37.65 -56.75 L36.5 -55.3 Q33.85 -56.05 32.75 -57.05 L32.1 -56.45 31.55 -56.25 Q32.9 -55.2 33.3 -53.2 M32.75 -57.05 Q33.55 -58.3 32.1 -60.75 L32.05 -61.7 Q31.8 -64.1 30.3 -65.65 M36.45 -59.95 Q34.0 -61.45 32.05 -61.7 M30.3 -56.45 L31.55 -56.25" fill="none" stroke="#000000" stroke-linecap="round" stroke-linejoin="round" stroke-opacity="0.49803922" stroke-width="2.0"/>
  </g>
</svg>
