<?xml version="1.0" encoding="UTF-8" standalone="no"?>
<svg xmlns:ffdec="https://www.free-decompiler.com/flash" xmlns:xlink="http://www.w3.org/1999/xlink" ffdec:objectType="shape" height="46.7px" width="28.25px" xmlns="http://www.w3.org/2000/svg">
  <g transform="matrix(1.0, 0.0, 0.0, 1.0, 17.4, 34.65)">
    <path d="M6.0 -13.1 Q3.3 -21.25 0.95 -23.05 -0.2 -20.5 0.4 -18.65 L-3.9 -25.7 Q-8.5 -33.85 -10.0 -33.65 -17.15 -25.0 -11.55 -10.2 -16.0 -13.9 -16.4 -12.0 -16.65 -7.25 -11.85 -2.55 -14.7 -2.8 -13.95 -0.75 -12.75 1.95 -6.2 4.05 -8.45 5.2 -8.5 6.75 -5.25 12.15 9.85 10.75" fill="none" stroke="#000000" stroke-linecap="round" stroke-linejoin="round" stroke-width="2.0"/>
    <path d="M-8.4 -23.7 Q-7.05 -15.85 2.1 -6.1 -6.95 -9.0 -0.9 0.3 -3.2 2.1 -1.2 4.3 0.7 6.15 5.7 8.2" fill="none" stroke="#000000" stroke-linecap="round" stroke-linejoin="round" stroke-opacity="0.49803922" stroke-width="1.5"/>
  </g>
</svg>
