<?xml version="1.0" encoding="UTF-8" standalone="no"?>
<svg xmlns:ffdec="https://www.free-decompiler.com/flash" xmlns:xlink="http://www.w3.org/1999/xlink" ffdec:objectType="shape" height="37.0px" width="30.25px" xmlns="http://www.w3.org/2000/svg">
  <g transform="matrix(1.0, 0.0, 0.0, 1.0, 22.05, 25.9)">
    <path d="M-8.6 -15.3 L-8.2 -14.0 M3.65 5.65 L1.9 4.85 Q-0.4 3.45 -0.55 1.5 -0.8 -0.85 2.7 -0.95 -6.05 -8.7 -13.75 -12.6 -13.9 -11.95 -13.45 -10.2 M-12.7 -8.2 Q-9.0 -2.1 -0.7 3.45" fill="none" stroke="#000000" stroke-linecap="round" stroke-linejoin="round" stroke-opacity="0.49803922" stroke-width="1.5"/>
    <path d="M-8.6 -15.3 L-21.05 -24.9 Q-20.2 -12.35 -12.5 0.1 -8.7 4.55 -4.1 6.0 L-7.6 9.5 Q0.7 11.55 7.2 6.4 M-1.45 -12.65 Q-1.75 -14.75 -4.25 -16.8 -7.65 -19.2 -8.95 -21.5 -9.45 -18.55 -8.6 -15.3" fill="none" stroke="#000000" stroke-linecap="round" stroke-linejoin="round" stroke-width="2.0"/>
  </g>
</svg>
