<?xml version="1.0" encoding="UTF-8" standalone="no"?>
<svg xmlns:ffdec="https://www.free-decompiler.com/flash" xmlns:xlink="http://www.w3.org/1999/xlink" ffdec:objectType="shape" height="55.85px" width="53.95px" xmlns="http://www.w3.org/2000/svg">
  <g transform="matrix(1.0, 0.0, 0.0, 1.0, 47.4, 36.75)">
    <path d="M2.3 -6.95 L2.65 -5.75 2.8 -5.4 M-20.25 -16.55 Q-22.4 -19.6 -22.3 -23.15 L-19.7 -22.6 -22.05 -25.15 -22.6 -27.6 -23.8 -27.15 -32.75 -35.85 M-45.75 -21.85 Q-39.35 -19.2 -34.75 -15.9 -32.5 -14.8 -30.9 -13.5 -26.5 -16.15 -19.1 -14.0 M-30.9 -13.5 Q-27.65 -8.2 -21.8 -4.95 L-19.5 -3.85 -17.9 -3.15 -15.3 -2.45 Q-14.3 -4.45 -14.1 -6.5 -21.9 -11.0 -30.9 -13.5 M0.45 -10.1 Q-6.25 -14.55 -14.0 -18.35 L-17.85 -22.05 -19.7 -22.6 M-15.85 -12.2 Q-12.8 -10.35 -10.65 -8.0 L-7.75 -7.5 Q-11.15 -10.1 -11.75 -13.4 L-9.95 -13.2 Q-3.25 -12.15 2.65 -5.75 M-15.3 -2.45 Q-11.4 -1.5 -9.25 -3.3 -10.8 -5.6 -13.0 -7.95 L-12.25 -8.0 -10.65 -8.0 M-7.75 -7.5 Q-4.15 -6.5 -1.15 -3.5 -3.35 -8.0 -9.95 -13.2 M-17.9 -3.15 Q-26.5 -0.55 -27.9 3.25 L-18.6 0.85 Q-16.85 2.65 -16.2 4.25 L-13.0 3.35 -12.3 0.9 -9.25 2.85 Q-8.15 1.85 -6.65 0.9 L-7.6 -0.15 -9.25 -3.3 M-1.15 -3.5 L-0.75 -3.05 Q-6.45 -5.0 -12.25 -8.0 M-17.85 -22.05 Q-13.1 -20.65 -9.0 -18.4 M2.7 7.3 Q1.6 7.9 0.35 8.1 -1.25 12.2 -3.8 16.6 L-4.15 17.2 M-3.95 2.95 Q-4.05 4.55 -4.65 5.7 L-0.25 3.85 Q-2.2 3.75 -3.95 2.95 -5.35 2.25 -6.65 0.9 M-6.95 8.05 L-6.0 7.45 -5.35 6.75 -5.25 6.65 -5.15 6.5 -4.65 5.7 -13.85 9.0 -14.0 9.9 -14.05 10.7 -6.95 8.05 M-16.2 17.4 Q-9.75 13.55 -6.15 8.25 L-6.0 7.45 M-6.2 9.1 L-6.15 8.25 M0.35 8.1 L-2.75 7.75 Q-4.0 7.5 -5.35 6.75 M-15.25 11.4 L-15.0 11.0 -20.05 12.35 -21.9 13.7 Q-23.6 11.4 -22.5 7.45 L-21.45 4.75 -16.2 4.25 M-15.0 11.0 L-14.0 9.9 M-13.85 9.0 Q-12.9 5.7 -9.25 2.85 M-27.9 3.25 L-28.1 4.25 -22.45 4.75 M-37.05 5.1 L-37.85 4.9 -38.25 4.85 M-37.75 4.9 L-31.55 2.85 -27.9 3.25 M-37.85 4.9 L-37.75 4.9 M-2.75 7.75 Q0.15 7.3 0.95 5.25 1.2 4.3 -0.25 3.85" fill="none" stroke="#000000" stroke-linecap="round" stroke-linejoin="round" stroke-opacity="0.49803922" stroke-width="1.0"/>
    <path d="M-38.25 4.85 L-40.9 4.3 Q-32.85 -4.85 -21.8 -4.95 -30.75 -7.0 -35.1 -11.9 L-34.75 -15.9 -38.85 -14.55 -46.5 -21.75 -45.75 -21.85 Q-32.7 -24.45 -19.1 -14.0 -17.4 -13.2 -15.85 -12.2 -18.65 -14.3 -20.25 -16.55 -29.75 -25.0 -32.75 -35.85 -17.6 -30.65 -9.0 -18.4 -4.65 -16.0 -1.0 -12.55 L0.45 -10.1 2.3 -6.95 M-3.8 16.6 Q0.85 13.5 2.7 7.3 4.3 6.45 5.65 4.7 M-21.45 4.75 Q-22.0 5.1 -22.45 5.25 -27.15 9.55 -25.3 16.1 -19.6 15.9 -15.25 11.4 -16.7 14.5 -16.2 17.4 L-15.9 18.2 Q-7.6 15.0 -6.2 9.1 -7.15 14.6 -4.15 16.9 L-3.8 16.6 M-22.45 4.75 L-21.45 4.75 M-22.45 5.25 Q-25.85 6.75 -30.15 6.35 L-37.05 5.1 -37.75 4.9 -38.25 4.85 M-22.45 5.25 L-22.45 4.75" fill="none" stroke="#000000" stroke-linecap="round" stroke-linejoin="round" stroke-width="1.8"/>
  </g>
</svg>
