<?xml version="1.0" encoding="UTF-8" standalone="no"?>
<svg xmlns:ffdec="https://www.free-decompiler.com/flash" xmlns:xlink="http://www.w3.org/1999/xlink" ffdec:objectType="shape" height="41.6px" width="28.05px" xmlns="http://www.w3.org/2000/svg">
  <g transform="matrix(1.0, 0.0, 0.0, 1.0, 21.35, 18.65)">
    <path d="M4.75 0.2 L4.6 -0.3 4.6 -0.25 2.55 1.1 Q0.45 1.95 -1.65 0.7 -5.0 -2.4 -4.1 -7.2 L-3.25 -10.2 -4.6 -7.2 Q-7.45 -0.5 -7.2 7.1 L-6.8 12.05 M1.8 3.55 L1.85 5.7 1.7 7.1 Q0.8 12.3 -4.7 15.8 M-15.75 7.8 Q-14.55 7.65 -13.4 7.1 L-11.75 5.9 -12.0 7.1 Q-12.5 10.75 -12.45 14.8 L-12.45 16.5" fill="none" stroke="#000000" stroke-linecap="round" stroke-linejoin="round" stroke-opacity="0.49803922" stroke-width="1.5"/>
    <path d="M4.6 -0.25 L4.75 0.2 Q7.25 7.2 3.15 14.0 1.5 16.8 -1.4 18.65 -5.75 21.4 -13.05 21.95 -12.6 19.9 -12.45 16.5 -14.55 18.3 -19.25 18.35 -17.25 14.35 -15.75 7.8 -17.7 8.0 -19.9 7.1 L-20.35 6.95 Q-16.95 5.4 -14.95 0.85 L-9.5 -13.15 Q-6.35 -18.75 -2.35 -17.4" fill="none" stroke="#000000" stroke-linecap="round" stroke-linejoin="round" stroke-width="2.0"/>
  </g>
</svg>
