<?xml version="1.0" encoding="UTF-8" standalone="no"?>
<svg xmlns:ffdec="https://www.free-decompiler.com/flash" xmlns:xlink="http://www.w3.org/1999/xlink" ffdec:objectType="shape" height="59.7px" width="37.95px" xmlns="http://www.w3.org/2000/svg">
  <g transform="matrix(1.0, 0.0, 0.0, 1.0, 11.5, 107.65)">
    <path d="M25.45 -67.55 L25.0 -72.8 Q23.05 -84.55 10.3 -90.85 -1.0 -96.4 -5.15 -106.65 -7.15 -102.65 -6.5 -98.0 -8.35 -100.3 -9.05 -102.6 -12.55 -93.15 -7.6 -70.8 -3.6 -53.1 1.6 -50.8 3.25 -49.75 6.45 -48.95" fill="none" stroke="#000000" stroke-linecap="round" stroke-linejoin="round" stroke-width="2.0"/>
    <path d="M-3.2 -83.3 Q-4.0 -93.95 -0.8 -88.4 0.95 -85.35 2.9 -82.65 8.8 -74.8 17.05 -70.0 16.65 -61.25 9.3 -55.7 10.1 -57.45 10.3 -59.25 5.35 -54.4 1.05 -55.95 2.15 -57.65 1.95 -59.65 1.8 -61.6 2.9 -63.55 -0.6 -63.1 -2.3 -61.85 -1.85 -67.35 2.45 -67.6 -1.95 -69.25 -4.75 -74.5 -3.05 -71.85 0.35 -71.85 -2.25 -75.6 -2.8 -79.05 1.2 -77.05 3.5 -74.35 2.15 -78.5 2.9 -82.65 M4.95 -70.6 Q3.75 -71.6 0.35 -71.85 M9.7 -64.35 Q10.55 -61.75 10.3 -59.25 M-6.5 -98.0 L-5.3 -96.65" fill="none" stroke="#000000" stroke-linecap="round" stroke-linejoin="round" stroke-opacity="0.49803922" stroke-width="2.0"/>
  </g>
</svg>
