<?xml version="1.0" encoding="UTF-8" standalone="no"?>
<svg xmlns:ffdec="https://www.free-decompiler.com/flash" xmlns:xlink="http://www.w3.org/1999/xlink" ffdec:objectType="shape" height="36.6px" width="39.35px" xmlns="http://www.w3.org/2000/svg">
  <g transform="matrix(1.0, 0.0, 0.0, 1.0, 27.7, 19.95)">
    <path d="M-1.4 -16.5 Q-5.3 -19.2 -9.2 -18.95 -8.5 -16.35 -5.75 -12.9 -10.35 -9.35 -15.85 -2.15 -21.25 5.4 -26.7 8.1 -22.95 13.6 -11.0 15.6 -1.85 16.05 4.2 11.9 4.1 13.75 6.2 15.05 9.65 11.45 10.65 5.85" fill="none" stroke="#000000" stroke-linecap="round" stroke-linejoin="round" stroke-width="2.0"/>
    <path d="M-0.4 -9.7 Q5.95 -2.5 6.0 3.95 2.8 8.9 -5.85 11.45 -17.2 12.85 -19.8 9.15 -7.85 1.45 -0.4 -9.7 Z" fill="none" stroke="#000000" stroke-linecap="round" stroke-linejoin="round" stroke-opacity="0.49803922" stroke-width="1.5"/>
  </g>
</svg>
