<?xml version="1.0" encoding="UTF-8" standalone="no"?>
<svg xmlns:ffdec="https://www.free-decompiler.com/flash" xmlns:xlink="http://www.w3.org/1999/xlink" ffdec:objectType="shape" height="23.5px" width="19.05px" xmlns="http://www.w3.org/2000/svg">
  <g transform="matrix(1.0, 0.0, 0.0, 1.0, 10.55, 12.75)">
    <path d="M2.95 -7.25 L2.6 -7.5 2.25 -7.8 -0.2 -9.7 Q-3.35 -12.25 -6.3 -11.65 -9.6 -11.15 -9.55 -2.95 -9.45 7.55 -4.15 9.25 2.55 10.75 7.5 7.85" fill="none" stroke="#000000" stroke-linecap="round" stroke-linejoin="round" stroke-width="2.0"/>
    <path d="M2.7 -6.55 L1.3 -3.8 2.65 -2.35 5.1 -3.3 M1.3 -3.8 Q-0.35 -5.15 -3.6 -6.65 L-4.15 -6.85 -5.7 -8.55 Q-5.2 -7.45 -5.3 -6.4 L-5.45 -5.5 Q-6.1 -2.1 -5.35 0.45 L-4.9 1.6 -4.7 2.0 Q-4.05 3.15 -3.0 4.0 L-0.3 5.65 Q1.7 6.55 2.15 7.0 1.85 6.35 2.0 5.0 2.85 2.25 2.95 -0.15 L2.75 -2.2 2.65 -2.35 M3.55 -6.7 L2.95 -7.25 M2.95 -0.15 L5.85 0.65 M-3.0 4.0 L-4.6 6.35 M-4.7 2.0 L-6.75 3.45 -7.05 3.55 M-5.35 0.45 L-8.05 0.45" fill="none" stroke="#000000" stroke-linecap="round" stroke-linejoin="round" stroke-opacity="0.49803922" stroke-width="1.5"/>
  </g>
</svg>
