<?xml version="1.0" encoding="UTF-8" standalone="no"?>
<svg xmlns:ffdec="https://www.free-decompiler.com/flash" xmlns:xlink="http://www.w3.org/1999/xlink" ffdec:objectType="shape" height="45.4px" width="49.4px" xmlns="http://www.w3.org/2000/svg">
  <g transform="matrix(1.0, 0.0, 0.0, 1.0, 39.15, 40.25)">
    <path d="M9.3 -2.0 L9.35 -1.9 Q9.2 1.85 4.6 3.7 L4.15 3.8 -2.5 4.05 Q1.3 2.85 2.85 1.25 -9.65 4.2 -21.25 3.1 -31.45 1.25 -37.0 -7.3 -40.1 -12.9 -35.4 -15.25 -29.0 -17.55 -24.15 -20.45 L-21.75 -22.1 Q-20.0 -23.35 -18.4 -24.7 -15.15 -27.35 -12.65 -30.15 -15.55 -28.35 -18.35 -29.75 -14.6 -30.9 -12.15 -34.3 -9.85 -37.6 -7.5 -39.35" fill="none" stroke="#000000" stroke-linecap="round" stroke-linejoin="round" stroke-width="1.8"/>
    <path d="M4.15 3.8 Q2.3 1.1 5.1 -1.6 7.1 -3.25 9.3 -2.0 M-24.15 -20.45 Q-24.65 -19.0 -22.5 -16.85 -21.55 -15.9 -21.0 -14.7 -19.8 -12.95 -15.55 -15.3 -10.5 -18.5 -12.2 -21.65 -13.7 -24.25 -15.65 -23.75 L-17.95 -23.8 -18.4 -24.7 M-25.45 -6.95 Q-27.3 -8.95 -31.5 -11.2 -34.8 -12.3 -33.7 -7.3 -32.8 -2.95 -27.3 0.4 -23.0 2.8 -17.4 2.55 -9.1 2.1 -0.95 -0.8 4.2 -2.1 5.85 -5.15 -0.2 -2.4 -9.3 -1.8 -22.85 -1.55 -27.85 -6.85 L-25.45 -6.95 M-16.25 -5.65 Q-15.75 -4.2 -17.25 -3.5 -18.8 -2.85 -19.9 -3.15 -21.1 -3.45 -21.9 -3.9 -22.85 -4.25 -22.95 -5.55 -23.05 -6.7 -22.2 -7.45 -21.35 -8.2 -20.35 -7.8 L-18.0 -7.2 Q-16.75 -7.0 -16.25 -5.65 M0.05 -31.3 Q-2.2 -32.0 -4.6 -29.3 -6.35 -26.9 -3.75 -24.65 -3.45 -24.1 -4.1 -23.2 -4.8 -20.75 -2.15 -20.05 1.15 -19.6 2.2 -26.05 M-0.8 -9.5 Q-0.35 -8.35 -1.55 -7.45 -2.75 -6.65 -4.5 -6.65 -6.3 -6.65 -7.25 -7.45 -8.3 -8.35 -8.35 -9.7 -8.35 -11.0 -7.55 -11.6 -7.05 -12.1 -6.0 -11.85 L-4.8 -12.0 -3.15 -12.15 Q-1.95 -12.05 -1.55 -11.35 L-0.8 -9.5 Z" fill="none" stroke="#000000" stroke-linecap="round" stroke-linejoin="round" stroke-opacity="0.49803922" stroke-width="1.0"/>
  </g>
</svg>
