<?xml version="1.0" encoding="UTF-8" standalone="no"?>
<svg xmlns:ffdec="https://www.free-decompiler.com/flash" xmlns:xlink="http://www.w3.org/1999/xlink" ffdec:objectType="shape" height="79.75px" width="47.6px" xmlns="http://www.w3.org/2000/svg">
  <g transform="matrix(1.0, 0.0, 0.0, 1.0, 40.5, 37.9)">
    <path d="M-0.9 -17.3 Q-5.15 -24.1 -8.4 -25.8 -9.05 -25.05 -9.2 -21.15 -17.15 -26.5 -27.3 -35.4 -33.85 -39.75 -35.6 -31.6 -38.65 -16.45 -39.25 -4.4 -39.7 3.3 -39.25 9.75 -38.75 20.35 -34.6 19.75 -33.85 19.5 -33.5 17.8 -28.05 37.85 -16.15 40.85 -15.05 39.45 -17.55 33.2 L-19.65 27.7 -20.6 25.25 Q-13.3 37.8 1.45 36.7 2.2 34.8 -3.75 29.85 L-4.55 29.05 Q-10.8 23.1 -13.55 16.7 -1.1 26.7 6.1 22.4 5.8 21.0 0.85 16.4 L-0.3 15.4 Q-6.45 9.75 -10.25 4.25 L-4.4 4.8 Q-3.95 3.15 -7.05 -0.7 L-13.35 -7.15 -14.8 -9.6 Q-10.4 -10.0 -6.65 -3.3 -6.0 -3.55 -4.95 -5.35 -4.55 -6.2 -3.65 -6.25 L-0.1 -6.2 Q0.05 -7.35 -0.7 -8.85" fill="none" stroke="#000000" stroke-linecap="round" stroke-linejoin="round" stroke-width="2.0"/>
    <path d="M-33.5 17.8 L-33.2 14.35 -33.3 10.9 -33.45 9.4 -32.05 -0.9 -31.15 -7.15 M-10.25 4.25 Q-18.55 2.1 -23.9 -7.65 L-24.2 -8.2 -19.6 7.05 -19.1 8.9 Q-17.4 15.8 -18.3 16.35 -29.5 15.3 -32.05 -0.9 M-14.8 -9.6 L-25.35 -27.4 M-13.55 16.7 L-14.5 14.05 M-20.6 25.25 L-21.6 22.3 -21.95 21.45" fill="none" stroke="#000000" stroke-linecap="round" stroke-linejoin="round" stroke-opacity="0.49803922" stroke-width="1.5"/>
  </g>
</svg>
