<?xml version="1.0" encoding="UTF-8" standalone="no"?>
<svg xmlns:ffdec="https://www.free-decompiler.com/flash" xmlns:xlink="http://www.w3.org/1999/xlink" ffdec:objectType="shape" height="65.0px" width="28.0px" xmlns="http://www.w3.org/2000/svg">
  <g transform="matrix(1.0, 0.0, 0.0, 1.0, -4.9, 89.05)">
    <path d="M7.45 -74.75 Q6.2 -74.8 5.9 -74.35 9.4 -65.5 18.0 -53.2 19.8 -45.65 20.35 -38.35 21.0 -31.1 22.1 -25.5 26.55 -24.7 31.9 -25.3 29.65 -34.7 26.35 -41.85 27.2 -51.75 22.35 -57.5 31.65 -72.85 26.0 -88.05 12.6 -85.3 7.45 -74.75" fill="none" stroke="#000000" stroke-linecap="round" stroke-linejoin="round" stroke-width="2.0"/>
    <path d="M18.0 -53.2 L18.35 -54.15 Q19.3 -57.55 18.7 -61.15 18.3 -63.8 16.95 -66.55 13.1 -74.55 7.45 -74.75 M22.35 -57.5 L18.7 -61.15 M18.35 -54.15 Q22.9 -49.2 26.35 -41.85" fill="none" stroke="#000000" stroke-linecap="round" stroke-linejoin="round" stroke-opacity="0.49803922" stroke-width="2.0"/>
  </g>
</svg>
