<?xml version="1.0" encoding="UTF-8" standalone="no"?>
<svg xmlns:ffdec="https://www.free-decompiler.com/flash" xmlns:xlink="http://www.w3.org/1999/xlink" ffdec:objectType="shape" height="75.6px" width="38.8px" xmlns="http://www.w3.org/2000/svg">
  <g transform="matrix(1.0, 0.0, 0.0, 1.0, 32.25, 50.25)">
    <path d="M-1.25 -3.85 L0.75 -8.5 -2.15 -9.7 0.1 -12.85 2.35 -12.95 -2.5 -21.1 2.55 -20.15 0.4 -26.0 5.55 -25.7 Q-4.85 -38.4 -22.5 -49.25 L-18.45 -43.95 Q-25.95 -29.45 -27.35 -11.95 L-31.25 -11.85 Q-29.45 -10.65 -27.05 -9.65 -26.2 6.4 -15.9 19.7 L-19.6 24.35 Q-3.2 19.5 5.45 6.0 L2.2 6.4 2.1 3.75 -2.95 4.6 4.55 -3.25 -1.25 -3.85" fill="none" stroke="#000000" stroke-linecap="round" stroke-linejoin="round" stroke-width="2.0"/>
    <path d="M-27.05 -9.65 Q-18.2 -5.7 -1.25 -3.85 M0.1 -12.85 L-27.35 -11.95 M-15.9 19.7 Q-9.55 11.85 -2.95 4.6 M-18.45 -43.95 Q-9.1 -31.55 -2.5 -21.1" fill="none" stroke="#000000" stroke-linecap="round" stroke-linejoin="round" stroke-opacity="0.49803922" stroke-width="1.5"/>
  </g>
</svg>
