<?xml version="1.0" encoding="UTF-8" standalone="no"?>
<svg xmlns:ffdec="https://www.free-decompiler.com/flash" xmlns:xlink="http://www.w3.org/1999/xlink" ffdec:objectType="shape" height="33.4px" width="31.85px" xmlns="http://www.w3.org/2000/svg">
  <g transform="matrix(1.0, 0.0, 0.0, 1.0, 14.45, 84.7)">
    <path d="M-12.4 -75.75 Q-13.75 -72.5 -13.5 -68.15 L-13.25 -65.5 Q-10.35 -54.25 -0.1 -52.3 6.15 -51.55 8.9 -55.4 M-12.4 -75.75 Q-10.85 -80.1 -6.6 -82.5 1.35 -86.9 9.35 -76.25 12.4 -70.6 16.5 -68.25" fill="none" stroke="#000000" stroke-linecap="round" stroke-linejoin="round" stroke-width="1.8"/>
    <path d="M13.45 -64.1 Q11.15 -65.75 9.5 -67.75 6.5 -66.9 2.0 -68.85 -1.15 -64.0 4.85 -62.9 0.5 -55.4 7.9 -59.05 6.75 -55.0 9.9 -57.5 M9.5 -67.75 Q7.25 -70.25 5.85 -73.25 -2.6 -85.5 -12.4 -75.75 M-13.5 -68.15 Q-10.85 -60.9 -5.15 -57.4 0.65 -53.75 8.9 -55.4" fill="none" stroke="#000000" stroke-linecap="round" stroke-linejoin="round" stroke-opacity="0.49803922" stroke-width="1.0"/>
  </g>
</svg>
