<?xml version="1.0" encoding="UTF-8" standalone="no"?>
<svg xmlns:ffdec="https://www.free-decompiler.com/flash" xmlns:xlink="http://www.w3.org/1999/xlink" ffdec:objectType="shape" height="35.7px" width="38.75px" xmlns="http://www.w3.org/2000/svg">
  <g transform="matrix(1.0, 0.0, 0.0, 1.0, 27.9, 72.7)">
    <path d="M-25.5 -54.45 Q-24.15 -52.45 -22.1 -50.6 -17.7 -46.55 -10.5 -43.4 -3.25 -40.35 6.8 -38.0 M9.85 -69.65 Q5.65 -71.95 -3.0 -71.7 -2.55 -69.1 0.8 -66.35 L-7.95 -62.95 -21.25 -57.35 -26.9 -54.7 -25.5 -54.45" fill="none" stroke="#000000" stroke-linecap="round" stroke-linejoin="round" stroke-width="2.0"/>
    <path d="M-25.5 -54.45 L-23.4 -54.25 -21.7 -53.95 Q-15.05 -53.15 -9.4 -53.7 L-9.15 -53.7 Q-0.5 -54.65 6.3 -58.5 L7.1 -57.6 Q9.25 -55.15 8.95 -53.6 8.6 -51.65 5.75 -51.05 2.4 -44.4 0.6 -44.8 -2.15 -45.85 -2.75 -49.55 -7.0 -47.2 -10.05 -46.75 L-12.35 -46.7 Q-12.0 -49.3 -9.4 -53.7" fill="none" stroke="#000000" stroke-linecap="round" stroke-linejoin="round" stroke-opacity="0.49803922" stroke-width="1.5"/>
  </g>
</svg>
