<?xml version="1.0" encoding="UTF-8" standalone="no"?>
<svg xmlns:ffdec="https://www.free-decompiler.com/flash" xmlns:xlink="http://www.w3.org/1999/xlink" ffdec:objectType="shape" height="48.4px" width="35.35px" xmlns="http://www.w3.org/2000/svg">
  <g transform="matrix(1.0, 0.0, 0.0, 1.0, 12.95, 85.3)">
    <path d="M4.95 -42.8 Q-5.55 -48.4 0.5 -48.7 L-5.1 -56.15 Q-8.25 -64.6 -8.4 -73.0 -9.6 -81.6 -5.0 -78.05 6.25 -72.6 9.05 -64.55 4.2 -66.2 6.0 -63.95 6.75 -62.9 9.05 -60.9 8.8 -57.6 11.75 -57.35 M6.0 -63.95 Q-4.4 -66.2 3.2 -59.55 -4.7 -53.3 3.2 -56.3 3.5 -47.2 7.0 -52.6 L7.15 -48.45 M9.05 -60.9 Q2.6 -60.55 7.45 -56.85" fill="none" stroke="#000000" stroke-linecap="round" stroke-linejoin="round" stroke-opacity="0.49803922" stroke-width="1.0"/>
    <path d="M3.15 -38.35 Q-3.8 -36.75 -0.8 -40.0 -10.65 -45.15 -4.35 -45.6 -11.4 -55.5 -11.9 -66.9 -12.85 -82.9 -8.5 -84.4 1.85 -84.3 21.5 -73.4" fill="none" stroke="#000000" stroke-linecap="round" stroke-linejoin="round" stroke-width="1.8"/>
  </g>
</svg>
