<?xml version="1.0" encoding="UTF-8" standalone="no"?>
<svg xmlns:ffdec="https://www.free-decompiler.com/flash" xmlns:xlink="http://www.w3.org/1999/xlink" ffdec:objectType="shape" height="48.5px" width="45.65px" xmlns="http://www.w3.org/2000/svg">
  <g transform="matrix(1.0, 0.0, 0.0, 1.0, -12.7, 117.7)">
    <path d="M14.8 -71.45 Q11.5 -91.35 18.0 -110.65 20.0 -113.5 25.2 -115.5 32.25 -117.6 40.65 -115.95 47.75 -112.9 56.6 -103.6 58.55 -101.75 55.5 -99.9 47.8 -95.85 39.65 -97.05 37.75 -97.6 35.95 -98.75 L34.55 -93.95 Q31.5 -83.85 27.45 -72.6 M27.05 -108.35 L26.45 -109.35 M35.95 -98.75 Q31.3 -101.55 27.05 -108.35" fill="none" stroke="#431720" stroke-linecap="round" stroke-linejoin="round" stroke-width="2.0"/>
    <path d="M27.05 -108.35 L26.4 -107.45 Q22.0 -102.55 19.1 -69.95" fill="none" stroke="#000000" stroke-linecap="round" stroke-linejoin="round" stroke-opacity="0.49803922" stroke-width="1.5"/>
  </g>
</svg>
