<?xml version="1.0" encoding="UTF-8" standalone="no"?>
<svg xmlns:ffdec="https://www.free-decompiler.com/flash" xmlns:xlink="http://www.w3.org/1999/xlink" ffdec:objectType="shape" height="28.95px" width="24.8px" xmlns="http://www.w3.org/2000/svg">
  <g transform="matrix(1.0, 0.0, 0.0, 1.0, 13.55, 15.2)">
    <path d="M0.5 6.45 Q0.5 5.05 -2.6 2.55 -5.85 0.8 -6.8 -3.4 L-7.0 -4.45 M-8.15 -6.0 Q-8.55 -9.85 -7.45 -9.25 -0.1 -3.0 5.35 3.2 3.4 4.55 3.35 6.15 3.3 7.65 5.45 8.9" fill="none" stroke="#000000" stroke-linecap="round" stroke-linejoin="round" stroke-opacity="0.49803922" stroke-width="1.5"/>
    <path d="M3.0 -7.45 Q-3.05 -10.75 -12.5 -14.2 -13.05 -2.0 -6.1 6.55 L-2.45 3.7 -1.65 10.1 Q1.95 12.55 5.75 12.75 8.1 12.55 10.25 10.2" fill="none" stroke="#000000" stroke-linecap="round" stroke-linejoin="round" stroke-width="2.0"/>
  </g>
</svg>
