<?xml version="1.0" encoding="UTF-8" standalone="no"?>
<svg xmlns:ffdec="https://www.free-decompiler.com/flash" xmlns:xlink="http://www.w3.org/1999/xlink" ffdec:objectType="shape" height="52.8px" width="29.9px" xmlns="http://www.w3.org/2000/svg">
  <g transform="matrix(1.0, 0.0, 0.0, 1.0, 22.15, 30.35)">
    <path d="M3.55 -5.75 L0.6 -9.25 Q-0.2 -9.95 -1.15 -12.1 L-1.95 -10.3 -5.95 -13.45 -5.75 -15.2 Q-16.15 -21.15 -21.1 -29.35 L-20.85 -28.6 Q-22.75 -11.3 -12.3 3.0 -15.55 3.75 -19.85 3.0 -17.35 6.65 -11.1 10.8 -8.1 6.0 -5.05 4.3 L-4.55 12.85 -3.25 12.85 Q-3.65 18.2 -5.35 21.45 L-0.15 19.3 Q6.55 15.3 6.75 6.5" fill="none" stroke="#000000" stroke-linecap="round" stroke-linejoin="round" stroke-width="2.0"/>
    <path d="M-1.95 -10.3 Q-3.6 -7.55 -5.35 -6.55 -6.25 -9.85 -5.95 -13.45 M-20.85 -28.6 Q-13.2 1.8 4.5 3.95 M-12.3 3.0 L-12.05 3.35" fill="none" stroke="#000000" stroke-linecap="round" stroke-linejoin="round" stroke-opacity="0.49803922" stroke-width="1.5"/>
  </g>
</svg>
