<?xml version="1.0" encoding="UTF-8" standalone="no"?>
<svg xmlns:ffdec="https://www.free-decompiler.com/flash" xmlns:xlink="http://www.w3.org/1999/xlink" ffdec:objectType="shape" height="52.0px" width="31.15px" xmlns="http://www.w3.org/2000/svg">
  <g transform="matrix(1.0, 0.0, 0.0, 1.0, 6.6, 95.6)">
    <path d="M4.9 -44.5 Q0.6 -46.35 -2.35 -51.9 -8.5 -61.85 -3.4 -74.6 1.3 -86.3 10.85 -94.7 23.5 -84.7 23.65 -73.95" fill="none" stroke="#000000" stroke-linecap="round" stroke-linejoin="round" stroke-width="1.8"/>
    <path d="M5.9 -48.5 Q0.55 -57.0 2.65 -65.7 L7.7 -83.3 Q8.75 -86.1 10.05 -88.7 L11.35 -91.05 M10.05 -88.7 Q12.45 -83.9 16.4 -80.4 20.2 -75.3 20.75 -68.95 M16.25 -64.0 Q16.0 -65.1 14.35 -64.85 12.85 -64.45 12.2 -62.85 12.55 -65.15 11.4 -67.25 9.3 -69.25 8.25 -67.25 6.8 -63.6 8.25 -59.7" fill="none" stroke="#000000" stroke-linecap="round" stroke-linejoin="round" stroke-opacity="0.49803922" stroke-width="1.0"/>
  </g>
</svg>
