<?xml version="1.0" encoding="UTF-8" standalone="no"?>
<svg xmlns:ffdec="https://www.free-decompiler.com/flash" xmlns:xlink="http://www.w3.org/1999/xlink" ffdec:objectType="shape" height="33.95px" width="65.85px" xmlns="http://www.w3.org/2000/svg">
  <g transform="matrix(1.0, 0.0, 0.0, 1.0, -11.05, 97.95)">
    <path d="M14.65 -81.2 L14.8 -81.5 Q17.55 -87.45 20.9 -92.0 L22.85 -94.45 23.55 -95.3 Q27.05 -98.65 36.1 -95.2 L42.6 -92.0 47.95 -89.1 Q60.05 -82.25 71.85 -73.1 77.3 -69.9 75.4 -68.75 68.25 -61.8 49.75 -67.65 39.9 -71.15 32.05 -80.15 L30.15 -82.0 27.45 -79.1 Q26.25 -77.5 25.55 -75.85 23.05 -70.7 21.25 -70.0 M14.7 -81.2 Q12.0 -76.25 12.05 -73.65" fill="none" stroke="#431720" stroke-linecap="round" stroke-linejoin="round" stroke-width="2.0"/>
    <path d="M30.15 -82.0 Q27.05 -84.65 23.7 -84.05 21.4 -81.75 18.95 -77.3 16.5 -72.9 16.3 -70.6" fill="none" stroke="#000000" stroke-linecap="round" stroke-linejoin="round" stroke-opacity="0.49803922" stroke-width="1.5"/>
    <path d="M14.65 -81.2 L14.7 -81.2" fill="none" stroke="#000000" stroke-linecap="round" stroke-linejoin="round" stroke-width="2.0"/>
  </g>
</svg>
