<?xml version="1.0" encoding="UTF-8" standalone="no"?>
<svg xmlns:ffdec="https://www.free-decompiler.com/flash" xmlns:xlink="http://www.w3.org/1999/xlink" ffdec:objectType="shape" height="35.5px" width="43.95px" xmlns="http://www.w3.org/2000/svg">
  <g transform="matrix(1.0, 0.0, 0.0, 1.0, 40.5, 30.85)">
    <path d="M-37.5 -10.1 Q-35.5 -6.6 -32.55 -3.75 -25.4 2.05 -17.95 3.75 -10.9 3.5 -5.05 0.5 L-4.4 1.1 Q-2.25 0.6 -0.85 -0.8 L-0.4 1.05 Q1.45 0.75 2.55 -0.8 M-37.5 -10.1 Q-38.7 -12.3 -39.55 -14.7 -39.95 -17.95 -37.55 -18.35 -29.7 -20.75 -21.9 -24.95 -8.25 -32.6 -1.0 -28.5" fill="none" stroke="#000000" stroke-linecap="round" stroke-linejoin="round" stroke-width="1.8"/>
    <path d="M-1.2 -25.05 Q-7.85 -27.25 -14.2 -24.05 L-25.2 -19.2 Q-29.3 -17.15 -34.0 -16.25 -35.8 -16.3 -36.8 -15.0 -38.1 -13.2 -37.5 -10.1 M-0.85 -0.8 L-0.1 -1.7 M-1.15 -11.6 Q-1.3 -8.25 -2.6 -7.1 -4.4 -8.35 -4.9 -10.15 -4.75 -8.0 -5.45 -6.0 -6.55 -4.55 -7.85 -5.75 -9.55 -7.45 -9.05 -11.9 -11.0 -8.85 -14.35 -8.75 -18.0 -9.9 -17.7 -11.8 M-5.05 -11.2 L-4.9 -10.15" fill="none" stroke="#000000" stroke-linecap="round" stroke-linejoin="round" stroke-opacity="0.49803922" stroke-width="1.0"/>
  </g>
</svg>
