<?xml version="1.0" encoding="UTF-8" standalone="no"?>
<svg xmlns:ffdec="https://www.free-decompiler.com/flash" xmlns:xlink="http://www.w3.org/1999/xlink" ffdec:objectType="shape" height="69.9px" width="52.85px" xmlns="http://www.w3.org/2000/svg">
  <g transform="matrix(1.0, 0.0, 0.0, 1.0, 35.8, 89.95)">
    <path d="M1.45 -25.75 Q2.65 -21.75 -0.15 -23.45 -2.05 -21.4 -4.5 -20.95 -7.2 -21.15 -4.5 -23.3 -7.25 -21.95 -7.95 -24.15 -16.35 -23.0 -14.55 -26.8 -16.8 -27.05 -21.2 -30.15 -30.0 -37.55 -33.45 -47.25 -36.55 -59.3 -33.0 -71.5 -31.35 -75.7 -28.7 -79.15 -26.05 -82.6 -22.35 -85.25 L-19.6 -87.05 Q-9.35 -91.3 0.1 -86.45 L8.2 -75.9 Q11.05 -72.05 16.15 -70.4" fill="none" stroke="#000000" stroke-linecap="round" stroke-linejoin="round" stroke-width="1.8"/>
    <path d="M2.7 -58.65 L-3.85 -58.65 Q-4.95 -53.75 1.8 -53.6 -0.9 -48.3 3.45 -50.0 M1.65 -44.9 L1.4 -44.7 Q-5.0 -39.0 -4.15 -49.55 -7.2 -46.45 -8.75 -46.6 -11.65 -48.75 -6.0 -57.15 -15.0 -57.85 -11.5 -67.5 L1.45 -64.05 M9.2 -60.3 Q2.4 -66.5 -3.4 -77.4 -10.45 -86.95 -22.35 -85.25 M-28.7 -79.15 Q-38.4 -45.75 -14.55 -26.8" fill="none" stroke="#000000" stroke-linecap="round" stroke-linejoin="round" stroke-opacity="0.49803922" stroke-width="1.0"/>
  </g>
</svg>
