<?xml version="1.0" encoding="UTF-8" standalone="no"?>
<svg xmlns:ffdec="https://www.free-decompiler.com/flash" xmlns:xlink="http://www.w3.org/1999/xlink" ffdec:objectType="shape" height="60.45px" width="45.8px" xmlns="http://www.w3.org/2000/svg">
  <g transform="matrix(1.0, 0.0, 0.0, 1.0, 39.95, 111.75)">
    <path d="M1.65 -52.3 Q8.1 -52.2 1.65 -57.35 L-3.35 -60.8 -8.9 -79.45 -11.15 -75.45 -8.7 -64.3 -14.65 -70.1 -14.65 -79.7 -13.2 -84.4 -13.2 -98.15 Q-15.0 -87.0 -18.5 -78.35 L-22.3 -87.7 -23.65 -95.4 -21.7 -110.75 Q-25.15 -104.5 -27.35 -98.45 L-27.3 -92.35 Q-26.95 -80.85 -25.0 -73.9 -29.15 -74.3 -33.15 -76.9 L-38.95 -83.85 -35.8 -74.1 -25.6 -69.75 Q-11.2 -58.2 1.65 -52.3 Z" fill="none" stroke="#000000" stroke-linecap="round" stroke-linejoin="round" stroke-width="2.0"/>
  </g>
</svg>
