<?xml version="1.0" encoding="UTF-8" standalone="no"?>
<svg xmlns:ffdec="https://www.free-decompiler.com/flash" xmlns:xlink="http://www.w3.org/1999/xlink" ffdec:objectType="shape" height="69.7px" width="49.25px" xmlns="http://www.w3.org/2000/svg">
  <g transform="matrix(1.0, 0.0, 0.0, 1.0, 32.9, 75.6)">
    <path d="M-2.2 -47.6 Q6.9 -40.45 13.35 -56.0 17.5 -66.1 13.1 -70.75 5.9 -78.25 -5.5 -71.2 -11.1 -74.75 -16.8 -68.3 -21.55 -62.85 -19.95 -56.1 -24.75 -58.25 -28.05 -55.6 -33.4 -50.4 -31.35 -40.95 -30.6 -37.5 -29.35 -34.25 -32.25 -30.3 -30.15 -25.15 -28.35 -20.75 -22.95 -20.85 -20.4 -20.95 -18.75 -20.0 -19.9 -16.75 -16.75 -15.25 L-12.65 -13.15 Q-7.4 -10.7 -6.75 -6.9 -3.2 -11.7 -4.3 -18.7 -5.2 -24.4 -9.65 -26.4 -8.8 -34.65 -14.55 -35.75 L-12.3 -37.45 Q-7.4 -40.65 -9.7 -46.05 -5.05 -45.75 -2.2 -47.6" fill="none" stroke="#000000" stroke-linecap="round" stroke-linejoin="round" stroke-width="2.0"/>
    <path d="M-5.5 -71.2 Q-2.3 -69.15 0.6 -63.5 5.3 -54.6 -1.0 -48.5 -1.55 -48.0 -2.2 -47.6 M-19.95 -56.1 L-17.8 -54.95 Q-14.8 -53.05 -13.2 -51.2 -10.7 -48.4 -9.7 -46.05 M-29.35 -34.25 L-29.05 -33.5 Q-27.5 -29.5 -22.45 -30.4 -17.5 -31.35 -16.55 -33.3 -16.0 -34.45 -14.55 -35.75 M-18.75 -20.0 L-17.95 -19.4 Q-15.85 -17.25 -12.3 -20.05 -10.2 -21.7 -9.65 -26.2 L-9.65 -26.4" fill="none" stroke="#000000" stroke-linecap="round" stroke-linejoin="round" stroke-opacity="0.49803922" stroke-width="2.0"/>
  </g>
</svg>
