<?xml version="1.0" encoding="UTF-8" standalone="no"?>
<svg xmlns:ffdec="https://www.free-decompiler.com/flash" xmlns:xlink="http://www.w3.org/1999/xlink" ffdec:objectType="shape" height="71.8px" width="64.35px" xmlns="http://www.w3.org/2000/svg">
  <g transform="matrix(1.0, 0.0, 0.0, 1.0, 42.85, 80.9)">
    <path d="M13.75 -63.1 Q10.05 -55.95 3.45 -51.85 -1.3 -52.9 -7.35 -51.7 L-10.45 -50.2 -16.2 -46.5 Q-19.0 -44.0 -20.8 -40.9 -22.55 -37.95 -23.05 -34.3 -23.5 -31.8 -23.0 -29.5 -22.55 -26.7 -20.65 -23.8 -19.65 -23.0 -18.45 -22.55 L-13.3 -22.25 -10.45 -24.85 -8.4 -26.25 Q-6.15 -26.15 -5.75 -23.65 L-6.05 -21.55 Q-6.9 -17.25 -9.9 -13.15 -12.8 -9.4 -19.75 -9.1 -29.85 -10.8 -37.05 -20.2 -44.55 -31.8 -42.35 -45.65 -39.4 -56.0 -32.35 -65.7 -23.5 -78.4 -5.25 -80.85 11.0 -81.35 21.5 -72.8 21.65 -65.25 13.75 -63.1" fill="#65ddff" fill-rule="evenodd" stroke="none"/>
  </g>
</svg>
