<?xml version="1.0" encoding="UTF-8" standalone="no"?>
<svg xmlns:ffdec="https://www.free-decompiler.com/flash" xmlns:xlink="http://www.w3.org/1999/xlink" ffdec:objectType="shape" height="50.0px" width="35.45px" xmlns="http://www.w3.org/2000/svg">
  <g transform="matrix(1.0, 0.0, 0.0, 1.0, 31.1, 30.4)">
    <path d="M-30.35 -25.85 L-16.5 -30.4 -15.85 -25.25 -2.8 -17.75 -3.45 -13.3 -17.4 -16.65 -24.85 -13.4 -30.35 -25.85 -17.4 -16.65 -15.85 -25.25 -30.35 -25.85 M-15.4 1.85 L-1.45 -5.25 -1.25 -4.85 -1.2 -4.6 -0.1 -2.35 -16.6 8.7 -15.4 1.85 -31.1 2.45 -17.2 -5.7 -24.2 -9.95 -3.45 -10.75 -2.9 -8.4 -17.2 -5.7 -15.4 1.85 M-2.3 14.4 L-0.7 19.3 -10.5 19.6 -2.3 14.4 -6.75 10.5 -10.5 19.6 -12.85 10.1 -6.75 10.5 1.95 0.0 4.35 2.2 -2.3 14.4" fill="#4aff96" fill-rule="evenodd" stroke="none"/>
  </g>
</svg>
