<?xml version="1.0" encoding="UTF-8" standalone="no"?>
<svg xmlns:ffdec="https://www.free-decompiler.com/flash" xmlns:xlink="http://www.w3.org/1999/xlink" ffdec:objectType="shape" height="35.25px" width="33.6px" xmlns="http://www.w3.org/2000/svg">
  <g transform="matrix(1.0, 0.0, 0.0, 1.0, 24.25, 31.45)">
    <path d="M9.3 -2.0 L9.35 -1.9 Q9.2 1.85 4.6 3.7 L4.15 3.8 Q2.3 1.1 5.1 -1.6 7.1 -3.25 9.3 -2.0 M0.05 -31.3 L2.2 -26.05 Q1.15 -19.6 -2.15 -20.05 -4.8 -20.75 -4.1 -23.2 -3.45 -24.1 -3.75 -24.65 -6.35 -26.9 -4.6 -29.3 -2.2 -32.0 0.05 -31.3 M-16.25 -5.65 Q-15.75 -4.2 -17.25 -3.5 -18.8 -2.85 -19.9 -3.15 -21.1 -3.45 -21.9 -3.9 -22.85 -4.25 -22.95 -5.55 -23.05 -6.7 -22.2 -7.45 -21.35 -8.2 -20.35 -7.8 L-18.0 -7.2 Q-16.75 -7.0 -16.25 -5.65 M-24.15 -20.45 L-21.75 -22.1 Q-20.0 -23.35 -18.4 -24.7 L-17.95 -23.8 -15.65 -23.75 Q-13.7 -24.25 -12.2 -21.65 -10.5 -18.5 -15.55 -15.3 -19.8 -12.95 -21.0 -14.7 -21.55 -15.9 -22.5 -16.85 -24.65 -19.0 -24.15 -20.45 M-0.8 -9.5 Q-0.35 -8.35 -1.55 -7.45 -2.75 -6.65 -4.5 -6.65 -6.3 -6.65 -7.25 -7.45 -8.3 -8.35 -8.35 -9.7 -8.35 -11.0 -7.55 -11.6 -7.05 -12.1 -6.0 -11.85 L-4.8 -12.0 -3.15 -12.15 Q-1.95 -12.05 -1.55 -11.35 L-0.8 -9.5" fill="#5bff80" fill-rule="evenodd" stroke="none"/>
  </g>
</svg>
