<?xml version="1.0" encoding="UTF-8" standalone="no"?>
<svg xmlns:ffdec="https://www.free-decompiler.com/flash" xmlns:xlink="http://www.w3.org/1999/xlink" ffdec:objectType="shape" height="67.7px" width="47.25px" xmlns="http://www.w3.org/2000/svg">
  <g transform="matrix(1.0, 0.0, 0.0, 1.0, 31.9, 74.6)">
    <path d="M-5.5 -71.2 Q5.9 -78.25 13.1 -70.75 17.5 -66.1 13.35 -56.0 6.9 -40.45 -2.2 -47.6 -5.05 -45.75 -9.7 -46.05 -7.4 -40.65 -12.3 -37.45 L-14.55 -35.75 Q-8.8 -34.65 -9.65 -26.4 -5.2 -24.4 -4.3 -18.7 -3.2 -11.7 -6.75 -6.9 -7.4 -10.7 -12.65 -13.15 L-16.75 -15.25 Q-19.9 -16.75 -18.75 -20.0 -20.4 -20.95 -22.95 -20.85 -28.35 -20.75 -30.15 -25.15 -32.25 -30.3 -29.35 -34.25 -30.6 -37.5 -31.35 -40.95 -33.4 -50.4 -28.05 -55.6 -24.75 -58.25 -19.95 -56.1 -21.55 -62.85 -16.8 -68.3 -11.1 -74.75 -5.5 -71.2" fill="#91d7ff" fill-rule="evenodd" stroke="none"/>
  </g>
</svg>
