<?xml version="1.0" encoding="UTF-8" standalone="no"?>
<svg xmlns:ffdec="https://www.free-decompiler.com/flash" xmlns:xlink="http://www.w3.org/1999/xlink" ffdec:objectType="shape" height="53.6px" width="43.8px" xmlns="http://www.w3.org/2000/svg">
  <g transform="matrix(1.0, 0.0, 0.0, 1.0, 39.4, 37.85)">
    <path d="M-1.2 -27.5 Q-0.1 -24.15 -0.05 -20.35 0.05 -16.15 -1.15 -11.2 L-1.7 -11.4 Q0.05 -9.4 1.4 -6.65 3.35 -2.9 4.4 2.0 0.95 2.15 -0.15 3.15 L-2.2 5.1 -2.75 5.6 Q-3.4 6.2 -4.2 6.45 -5.8 -1.05 -11.15 -9.8 L-11.1 -10.5 Q-7.15 -10.45 -3.7 -12.05 L-5.8 -12.2 -8.4 -11.35 -9.1 -11.05 -10.85 -11.0 Q-10.3 -12.95 -10.0 -15.3 -9.25 -21.65 -10.1 -29.5 -5.95 -27.2 -1.2 -27.5 M-22.4 13.55 L-23.95 7.35 Q-25.35 1.55 -28.25 0.55 L-33.1 1.1 Q-35.25 1.75 -37.55 3.15 -30.95 -6.55 -22.55 -14.1 -24.65 -13.45 -26.8 -12.15 L-29.8 -9.9 -26.55 -16.2 Q-20.85 -26.55 -13.95 -34.8 -14.6 -31.35 -14.3 -26.65 L-13.95 -22.9 -13.85 -22.75 -12.75 -16.35 -11.5 -10.95 Q-12.75 -14.3 -18.0 -14.65 L-21.85 -14.4 -23.05 -8.75 Q-24.75 1.6 -22.55 12.6 L-22.4 13.55 M-29.1 -18.8 Q-27.75 -24.65 -29.9 -26.75 -31.9 -27.95 -34.55 -28.3 L-39.4 -28.6 Q-28.8 -34.65 -17.3 -37.85 L-21.2 -32.9 Q-27.25 -24.05 -30.15 -12.9 L-29.1 -18.8 M-4.75 6.75 Q-7.35 4.35 -12.3 6.25 -16.15 7.65 -19.05 12.35 L-19.4 13.0 -20.8 15.75 Q-20.8 -0.1 -17.35 -13.7 -16.15 -9.05 -12.2 -2.9 -9.25 1.55 -4.75 6.75" fill="#59ff99" fill-rule="evenodd" stroke="none"/>
  </g>
</svg>
