<?xml version="1.0" encoding="UTF-8" standalone="no"?>
<svg xmlns:ffdec="https://www.free-decompiler.com/flash" xmlns:xlink="http://www.w3.org/1999/xlink" ffdec:objectType="shape" height="36.45px" width="36.2px" xmlns="http://www.w3.org/2000/svg">
  <g transform="matrix(1.0, 0.0, 0.0, 1.0, 24.8, 76.5)">
    <path d="M11.4 -67.15 Q8.0 -60.85 5.75 -54.4 L5.4 -53.4 Q6.1 -52.4 6.3 -51.1 6.3 -49.55 4.75 -49.45 3.95 -46.0 4.05 -43.35 1.25 -41.25 -1.5 -40.2 L-8.45 -40.65 Q-14.95 -42.75 -20.0 -47.4 -23.4 -51.15 -24.75 -56.1 -25.2 -62.55 -22.5 -69.35 L-21.8 -70.85 -19.65 -73.0 Q-15.7 -76.8 -8.55 -76.45 -4.05 -75.85 -0.55 -72.35 4.55 -68.0 11.4 -67.15" fill="#5bff80" fill-rule="evenodd" stroke="none"/>
  </g>
</svg>
