<?xml version="1.0" encoding="UTF-8" standalone="no"?>
<svg xmlns:ffdec="https://www.free-decompiler.com/flash" xmlns:xlink="http://www.w3.org/1999/xlink" ffdec:objectType="shape" height="46.2px" width="18.9px" xmlns="http://www.w3.org/2000/svg">
  <g transform="matrix(1.0, 0.0, 0.0, 1.0, 12.55, 19.0)">
    <path d="M-7.4 -16.3 Q-6.25 -15.05 -6.9 -13.75 -7.6 -12.35 -8.75 -12.25 -9.95 -12.15 -11.0 -13.15 -12.0 -14.15 -12.3 -15.55 L-12.55 -18.05 Q-12.45 -19.15 -11.4 -18.95 -10.35 -18.8 -9.4 -18.25 L-7.4 -16.3 M-0.5 -7.75 Q4.9 -1.85 6.35 5.85 5.0 7.3 2.25 7.85 1.6 8.8 2.45 12.9 3.8 16.85 2.25 17.55 0.3 17.4 -0.25 13.75 -1.3 8.5 -3.3 6.6 -12.1 2.4 -9.5 -8.0 -8.15 -4.5 -4.1 -3.85 -2.3 -5.05 -3.85 -8.6 -2.55 -8.85 -0.5 -7.75 M5.45 24.0 Q5.75 25.3 5.0 26.3 4.3 27.2 3.2 27.2 2.15 27.2 1.4 26.3 0.65 25.3 0.75 24.0 0.8 22.65 1.65 21.7 2.45 20.75 3.05 20.75 3.6 20.75 4.35 21.7 5.1 22.65 5.45 24.0" fill="#ffe7d4" fill-rule="evenodd" stroke="none"/>
  </g>
</svg>
