<?xml version="1.0" encoding="UTF-8" standalone="no"?>
<svg xmlns:ffdec="https://www.free-decompiler.com/flash" xmlns:xlink="http://www.w3.org/1999/xlink" ffdec:objectType="shape" height="73.35px" width="24.75px" xmlns="http://www.w3.org/2000/svg">
  <g transform="matrix(1.0, 0.0, 0.0, 1.0, 21.7, 101.7)">
    <path d="M3.05 -29.0 L-5.15 -28.45 Q-10.45 -29.0 -14.4 -31.85 -16.55 -33.8 -18.1 -35.85 -21.0 -39.95 -21.6 -44.8 -21.9 -48.35 -21.2 -52.65 -20.5 -57.2 -18.75 -62.45 -17.5 -66.25 -15.7 -70.4 L-15.65 -70.4 Q-13.95 -74.45 -13.05 -78.4 -12.15 -82.1 -12.0 -85.75 -11.75 -93.9 -15.3 -101.7 -11.55 -96.4 -10.3 -89.6 -9.0 -84.85 -6.7 -84.3 L-9.35 -84.25 Q-9.7 -81.65 -9.7 -78.6 L-6.7 -75.55 Q-8.8 -75.45 -10.4 -76.15 L-11.9 -70.15 Q-10.4 -67.2 -7.45 -66.15 -10.8 -67.1 -12.85 -68.15 -14.2 -63.65 -13.85 -61.3 -12.1 -59.25 -8.95 -58.95 L-14.85 -59.4 Q-16.6 -54.3 -15.25 -51.15 -12.85 -48.75 -8.6 -47.6 -12.15 -47.15 -14.85 -47.6 -14.05 -36.5 -4.5 -39.45 -6.9 -36.6 -9.5 -35.35 -5.7 -32.0 -3.85 -31.1 -3.05 -31.1 -0.15 -34.3 0.85 -31.45 3.05 -29.0" fill="#d9b2a7" fill-rule="evenodd" stroke="none"/>
  </g>
</svg>
