<?xml version="1.0" encoding="UTF-8" standalone="no"?>
<svg xmlns:ffdec="https://www.free-decompiler.com/flash" xmlns:xlink="http://www.w3.org/1999/xlink" ffdec:objectType="shape" height="45.25px" width="34.4px" xmlns="http://www.w3.org/2000/svg">
  <g transform="matrix(1.0, 0.0, 0.0, 1.0, 5.15, 103.4)">
    <path d="M7.2 -62.9 Q4.2 -60.65 2.75 -58.15 L1.85 -60.0 1.1 -61.65 Q-3.4 -72.3 -4.75 -82.1 -6.9 -96.95 2.15 -102.6 10.65 -106.5 21.25 -91.05 26.9 -83.0 28.85 -73.05 L29.25 -70.9 24.35 -70.5 23.8 -72.35 Q22.05 -78.35 18.55 -84.3 14.15 -92.75 9.35 -93.75 4.6 -94.8 2.45 -90.35 0.3 -85.9 1.15 -79.15 1.95 -73.4 5.75 -65.7 L7.2 -62.9" fill="#91d7ff" fill-rule="evenodd" stroke="none"/>
  </g>
</svg>
