<?xml version="1.0" encoding="UTF-8" standalone="no"?>
<svg xmlns:ffdec="https://www.free-decompiler.com/flash" xmlns:xlink="http://www.w3.org/1999/xlink" ffdec:objectType="shape" height="66.9px" width="45.6px" xmlns="http://www.w3.org/2000/svg">
  <g transform="matrix(1.0, 0.0, 0.0, 1.0, 39.5, 26.05)">
    <path d="M-19.1 8.9 Q-17.4 15.8 -18.3 16.35 -29.5 15.3 -32.05 -0.9 L-31.15 -7.15 Q-23.5 12.95 -19.1 8.9 M-20.6 25.25 L-21.6 22.3 Q-9.5 31.35 -4.55 29.05 L-3.75 29.85 Q2.2 34.8 1.45 36.7 -13.3 37.8 -20.6 25.25 M-39.25 -4.4 Q-37.05 13.1 -33.3 10.9 L-33.2 14.35 Q-24.85 35.35 -19.65 27.7 L-17.55 33.2 Q-15.05 39.45 -16.15 40.85 -28.05 37.85 -33.5 17.8 -33.85 19.5 -34.6 19.75 -38.75 20.35 -39.25 9.75 -39.7 3.3 -39.25 -4.4 M-13.55 16.7 L-14.5 14.05 -15.95 11.5 Q-6.2 19.75 0.85 16.4 5.8 21.0 6.1 22.4 -1.1 26.7 -13.55 16.7 M-10.25 4.25 Q-18.55 2.1 -23.9 -7.65 -9.6 1.7 -7.05 -0.7 -3.95 3.15 -4.4 4.8 L-10.25 4.25 M-24.55 -26.05 Q-11.85 -12.95 -6.4 -12.0 -3.45 -16.3 -0.7 -8.85 0.05 -7.35 -0.1 -6.2 L-3.65 -6.25 Q-4.55 -6.2 -4.95 -5.35 -6.0 -3.55 -6.65 -3.3 -10.4 -10.0 -14.8 -9.6 L-24.55 -26.05" fill="#d9b2a7" fill-rule="evenodd" stroke="none"/>
  </g>
</svg>
