<?xml version="1.0" encoding="UTF-8" standalone="no"?>
<svg xmlns:ffdec="https://www.free-decompiler.com/flash" xmlns:xlink="http://www.w3.org/1999/xlink" ffdec:objectType="shape" height="57.2px" width="52.15px" xmlns="http://www.w3.org/2000/svg">
  <g transform="matrix(1.0, 0.0, 0.0, 1.0, 38.4, 69.9)">
    <path d="M-9.7 -69.85 L-8.65 -69.9 Q4.0 -70.3 13.75 -63.1 10.05 -55.95 3.45 -51.85 -1.3 -52.9 -7.35 -51.7 L-10.45 -50.2 -16.2 -46.5 Q-19.0 -44.0 -20.8 -40.9 -22.55 -37.95 -23.05 -34.3 -23.5 -31.8 -23.0 -29.5 -22.55 -26.7 -20.65 -23.8 -19.65 -23.0 -18.45 -22.55 L-13.3 -22.25 -10.45 -24.85 -8.4 -26.25 Q-6.15 -26.15 -5.75 -23.65 L-6.05 -21.55 Q-11.75 -11.05 -21.65 -13.0 L-25.5 -14.8 Q-31.1 -18.0 -34.4 -23.65 -36.15 -26.3 -37.05 -29.1 -39.75 -36.5 -37.05 -44.6 -35.7 -49.15 -33.2 -53.35 -29.7 -59.5 -24.05 -64.55 -18.0 -69.3 -9.7 -69.85" fill="#5bff80" fill-rule="evenodd" stroke="none"/>
  </g>
</svg>
