<?xml version="1.0" encoding="UTF-8" standalone="no"?>
<svg xmlns:ffdec="https://www.free-decompiler.com/flash" xmlns:xlink="http://www.w3.org/1999/xlink" ffdec:objectType="shape" height="54.05px" width="52.15px" xmlns="http://www.w3.org/2000/svg">
  <g transform="matrix(1.0, 0.0, 0.0, 1.0, 46.5, 35.85)">
    <path d="M-22.45 5.25 Q-25.85 6.75 -30.15 6.35 L-40.9 4.3 Q-32.85 -4.85 -21.8 -4.95 -30.75 -7.0 -35.1 -11.9 L-34.75 -15.9 -38.85 -14.55 -46.5 -21.75 -45.75 -21.85 Q-32.7 -24.45 -19.1 -14.0 -17.4 -13.2 -15.85 -12.2 -18.65 -14.3 -20.25 -16.55 -29.75 -25.0 -32.75 -35.85 -17.6 -30.65 -9.0 -18.4 -4.65 -16.0 -1.0 -12.55 L2.3 -6.95 2.65 -5.75 2.8 -5.4 5.65 4.7 Q4.3 6.45 2.7 7.3 0.85 13.5 -3.8 16.6 L-4.15 16.9 Q-7.15 14.6 -6.2 9.1 -7.6 15.0 -15.9 18.2 L-16.2 17.4 Q-16.7 14.5 -15.25 11.4 -19.6 15.9 -25.3 16.1 -27.15 9.55 -22.45 5.25 -22.0 5.1 -21.45 4.75 L-22.45 4.75 -22.45 5.25" fill="#65ddff" fill-rule="evenodd" stroke="none"/>
  </g>
</svg>
