<?xml version="1.0" encoding="UTF-8" standalone="no"?>
<svg xmlns:ffdec="https://www.free-decompiler.com/flash" xmlns:xlink="http://www.w3.org/1999/xlink" ffdec:objectType="shape" height="44.7px" width="26.25px" xmlns="http://www.w3.org/2000/svg">
  <g transform="matrix(1.0, 0.0, 0.0, 1.0, 16.4, 33.65)">
    <path d="M6.0 -13.1 L5.35 -13.3 Q5.5 -13.1 6.35 -13.05 L5.6 -12.5 6.0 -11.05 6.4 -9.6 Q10.15 4.95 9.85 10.75 -5.25 12.15 -8.5 6.75 -8.45 5.2 -6.2 4.05 -12.75 1.95 -13.95 -0.75 -14.7 -2.8 -11.85 -2.55 -16.65 -7.25 -16.4 -12.0 -16.0 -13.9 -11.55 -10.2 -17.15 -25.0 -10.0 -33.65 -8.5 -33.85 -3.9 -25.7 L0.4 -18.65 Q-0.2 -20.5 0.95 -23.05 3.3 -21.25 6.0 -13.1" fill="#ffe7d4" fill-rule="evenodd" stroke="none"/>
  </g>
</svg>
