<?xml version="1.0" encoding="UTF-8" standalone="no"?>
<svg xmlns:ffdec="https://www.free-decompiler.com/flash" xmlns:xlink="http://www.w3.org/1999/xlink" ffdec:objectType="shape" height="28.15px" width="20.2px" xmlns="http://www.w3.org/2000/svg">
  <g transform="matrix(1.0, 0.0, 0.0, 1.0, -3.0, 79.2)">
    <path d="M19.6 -58.0 Q17.0 -54.95 16.6 -51.9 14.75 -54.65 14.6 -57.6 12.7 -52.05 8.3 -51.05 9.5 -53.1 8.75 -55.65 7.55 -59.45 9.65 -62.7 6.45 -60.15 5.6 -57.6 3.9 -63.5 8.95 -70.0 5.2 -66.65 3.0 -67.05 5.5 -69.35 6.35 -73.45 6.55 -74.7 9.0 -75.8 4.7 -75.95 3.35 -78.2 7.5 -77.7 12.0 -79.2 18.45 -74.05 23.0 -66.95 23.6 -62.4 22.25 -59.5 21.0 -56.85 21.25 -54.35 19.95 -55.95 19.6 -58.0" fill="#72ff7b" fill-rule="evenodd" stroke="none"/>
  </g>
</svg>
