<?xml version="1.0" encoding="UTF-8" standalone="no"?>
<svg xmlns:ffdec="https://www.free-decompiler.com/flash" xmlns:xlink="http://www.w3.org/1999/xlink" ffdec:objectType="shape" height="44.55px" width="34.55px" xmlns="http://www.w3.org/2000/svg">
  <g transform="matrix(1.0, 0.0, 0.0, 1.0, 3.8, 93.45)">
    <path d="M19.6 -58.0 Q19.95 -55.95 21.25 -54.35 21.0 -56.85 22.25 -59.5 23.6 -62.4 23.0 -66.95 18.45 -74.05 12.0 -79.2 7.5 -77.7 3.35 -78.2 4.7 -75.95 9.0 -75.8 6.55 -74.7 6.35 -73.45 5.5 -69.35 3.0 -67.05 5.2 -66.65 8.95 -70.0 3.9 -63.5 5.6 -57.6 6.45 -60.15 9.65 -62.7 7.55 -59.45 8.75 -55.65 9.5 -53.1 8.3 -51.05 12.7 -52.05 14.6 -57.6 14.75 -54.65 16.6 -51.9 17.0 -54.95 19.6 -58.0 M2.65 -50.55 Q-5.55 -70.5 -3.3 -93.45 19.2 -85.45 27.4 -75.5 31.4 -70.05 30.65 -63.6 27.5 -56.65 20.15 -52.5 9.25 -46.45 2.65 -50.55" fill="#91d7ff" fill-rule="evenodd" stroke="none"/>
  </g>
</svg>
