<?xml version="1.0" encoding="UTF-8" standalone="no"?>
<svg xmlns:ffdec="https://www.free-decompiler.com/flash" xmlns:xlink="http://www.w3.org/1999/xlink" ffdec:objectType="shape" height="75.7px" width="60.1px" xmlns="http://www.w3.org/2000/svg">
  <g transform="matrix(1.0, 0.0, 0.0, 1.0, 62.5, 45.25)">
    <path d="M-3.45 -27.7 Q-1.95 -20.9 -2.6 -15.25 L-3.25 -14.15 Q-5.5 -10.75 -7.55 -13.75 -9.85 -4.1 -12.55 -8.15 -15.55 5.1 -19.1 11.4 -21.3 15.3 -23.7 16.5 -25.0 14.45 -23.8 5.05 L-23.7 4.3 -24.5 8.6 Q-31.6 24.15 -41.45 24.65 L-38.2 13.15 Q-39.75 17.15 -43.5 22.1 -47.35 26.95 -56.0 27.35 -59.85 30.7 -62.5 30.45 L-62.5 29.1 Q-57.1 21.35 -52.85 12.75 -40.25 -12.4 -35.75 -45.0 -22.05 -47.2 -9.6 -31.7 -8.6 -34.3 -8.05 -34.35 -5.0 -32.85 -3.45 -27.7" fill="#ffe7d4" fill-rule="evenodd" stroke="none"/>
  </g>
</svg>
