<?xml version="1.0" encoding="UTF-8" standalone="no"?>
<svg xmlns:ffdec="https://www.free-decompiler.com/flash" xmlns:xlink="http://www.w3.org/1999/xlink" ffdec:objectType="shape" height="61.0px" width="78.8px" xmlns="http://www.w3.org/2000/svg">
  <g transform="matrix(1.0, 0.0, 0.0, 1.0, 79.45, 41.55)">
    <path d="M-44.8 -23.0 L-44.25 -24.55 -48.0 -26.4 Q-45.25 -28.35 -40.45 -26.8 -42.7 -29.85 -42.9 -32.7 -39.85 -27.45 -32.4 -25.2 L-34.95 -28.65 Q-25.8 -25.2 -19.65 -28.8 L-8.35 -40.25 Q-5.95 -42.8 -4.2 -40.25 -3.0 -38.25 -2.2 -35.85 -0.15 -29.8 -0.8 -21.15 -2.35 -10.2 -5.3 -17.7 -6.05 -9.55 -8.9 -8.45 -9.85 -8.5 -11.05 -16.65 -9.9 -3.2 -13.75 -0.3 -15.05 -0.4 -16.4 -5.4 -16.5 5.95 -19.05 6.7 -22.5 6.4 -22.9 -5.5 -31.25 17.05 -40.15 19.45 -41.65 19.25 -33.75 0.65 -41.35 14.4 -50.4 17.2 -55.35 18.95 -52.95 14.8 -48.7 7.65 -44.4 -2.35 -54.0 11.85 -65.8 16.1 -72.95 18.35 -70.05 13.3 -64.8 5.2 -59.25 -1.6 -73.2 1.75 -79.25 -3.55 -80.2 -4.5 -76.85 -6.2 L-44.8 -23.0" fill="#439aff" fill-rule="evenodd" stroke="none"/>
  </g>
</svg>
