<?xml version="1.0" encoding="UTF-8" standalone="no"?>
<svg xmlns:ffdec="https://www.free-decompiler.com/flash" xmlns:xlink="http://www.w3.org/1999/xlink" ffdec:objectType="shape" height="47.3px" width="52.15px" xmlns="http://www.w3.org/2000/svg">
  <g transform="matrix(1.0, 0.0, 0.0, 1.0, 17.9, 99.1)">
    <path d="M10.2 -55.8 Q6.1 -47.8 3.3 -55.75 0.1 -54.2 -3.15 -55.6 -8.05 -57.6 -7.5 -62.4 -9.25 -59.75 -8.15 -57.3 -9.45 -54.7 -12.85 -62.45 -15.55 -68.45 -14.5 -74.75 -15.75 -72.05 -16.75 -71.15 -19.3 -69.2 -16.2 -80.95 -14.4 -87.7 -7.85 -90.45 -14.1 -89.4 -14.55 -91.2 -15.3 -93.9 -6.1 -97.45 2.55 -100.7 12.6 -97.55 20.55 -94.95 22.3 -90.05 22.5 -93.05 24.45 -95.9 26.4 -94.05 27.0 -91.1 27.6 -88.45 27.0 -84.85 26.75 -82.95 26.1 -80.75 L27.0 -80.9 Q34.8 -81.75 34.2 -78.7 34.1 -77.15 27.0 -74.05 25.05 -73.15 22.55 -72.2 17.05 -69.0 10.2 -55.8 M16.35 -78.5 Q16.35 -82.6 13.4 -85.55 10.5 -88.4 6.4 -88.4 2.3 -88.4 -0.65 -85.55 -3.5 -82.6 -3.5 -78.5 -3.5 -74.4 -0.65 -71.5 2.3 -68.55 6.4 -68.55 10.5 -68.55 13.4 -71.5 16.35 -74.4 16.35 -78.5" fill="#91d7ff" fill-rule="evenodd" stroke="none"/>
  </g>
</svg>
