<?xml version="1.0" encoding="UTF-8" standalone="no"?>
<svg xmlns:ffdec="https://www.free-decompiler.com/flash" xmlns:xlink="http://www.w3.org/1999/xlink" ffdec:objectType="shape" height="59.9px" width="43.8px" xmlns="http://www.w3.org/2000/svg">
  <g transform="matrix(1.0, 0.0, 0.0, 1.0, 26.8, 101.9)">
    <path d="M15.4 -76.9 Q18.9 -63.8 14.7 -59.05 16.45 -55.4 11.85 -56.75 10.1 -49.85 8.5 -51.25 6.75 -45.95 5.0 -44.65 0.65 -39.35 1.45 -44.65 -7.55 -42.15 -3.45 -45.95 -8.0 -45.85 -13.0 -48.3 -21.5 -53.5 -21.95 -58.65 -21.8 -56.3 -25.2 -69.4 -25.6 -68.75 -26.65 -79.35 -27.35 -85.05 -24.55 -92.7 -20.5 -102.7 -14.35 -101.85 L15.4 -76.9" fill="#65ddff" fill-rule="evenodd" stroke="none"/>
  </g>
</svg>
