<?xml version="1.0" encoding="UTF-8" standalone="no"?>
<svg xmlns:ffdec="https://www.free-decompiler.com/flash" xmlns:xlink="http://www.w3.org/1999/xlink" ffdec:objectType="shape" height="55.3px" width="78.8px" xmlns="http://www.w3.org/2000/svg">
  <g transform="matrix(1.0, 0.0, 0.0, 1.0, 79.45, 35.85)">
    <path d="M-59.25 -1.6 Q-73.2 1.75 -79.25 -3.55 -80.2 -4.5 -76.85 -6.2 L-44.8 -23.0 Q-45.75 -20.8 -47.6 -18.95 L-46.25 -19.2 -58.65 -2.35 -59.25 -1.6 Q-61.65 1.85 -56.5 0.6 -47.45 -2.35 -42.05 -7.95 L-39.3 -11.35 -44.25 0.55 Q-45.1 3.65 -42.15 2.3 -35.35 -1.0 -30.55 -11.35 L-32.3 -5.35 Q-32.95 -3.0 -32.5 -2.25 -31.8 -0.55 -26.25 -5.5 -20.8 -10.35 -18.3 -20.6 -18.45 -16.7 -17.25 -16.45 -14.65 -16.65 -13.15 -25.6 -12.9 -21.95 -11.8 -21.3 -8.8 -22.45 -8.8 -31.05 -5.95 -22.8 -5.55 -31.95 -1.6 -24.55 -2.2 -35.85 -0.15 -29.8 -0.8 -21.15 -2.35 -10.2 -5.3 -17.7 -6.05 -9.55 -8.9 -8.45 -9.85 -8.5 -11.05 -16.65 -9.9 -3.2 -13.75 -0.3 -15.05 -0.4 -16.4 -5.4 -16.5 5.95 -19.05 6.7 -22.5 6.4 -22.9 -5.5 -31.25 17.05 -40.15 19.45 -41.65 19.25 -33.75 0.65 -41.35 14.4 -50.4 17.2 -55.35 18.95 -52.95 14.8 -48.7 7.65 -44.4 -2.35 -54.0 11.85 -65.8 16.1 -72.95 18.35 -70.05 13.3 -64.8 5.2 -59.25 -1.6" fill="#5bff80" fill-rule="evenodd" stroke="none"/>
  </g>
</svg>
