<?xml version="1.0" encoding="UTF-8" standalone="no"?>
<svg xmlns:ffdec="https://www.free-decompiler.com/flash" xmlns:xlink="http://www.w3.org/1999/xlink" ffdec:objectType="shape" height="70.6px" width="65.85px" xmlns="http://www.w3.org/2000/svg">
  <g transform="matrix(1.0, 0.0, 0.0, 1.0, 62.5, 86.2)">
    <path d="M2.15 -37.25 L-6.8 -37.65 Q-14.0 -38.55 -18.35 -41.4 L-19.9 -41.7 Q-31.5 -43.65 -34.25 -30.3 L-34.55 -24.55 -35.6 -29.0 Q-44.65 -49.55 -58.15 -27.3 -59.2 -21.65 -59.25 -15.6 -67.6 -33.95 -54.65 -56.75 -46.7 -69.5 -34.25 -77.25 -31.35 -83.25 -25.9 -86.2 -26.5 -78.5 -25.55 -74.55 -23.5 -65.7 -18.7 -56.45 -16.35 -51.9 -13.4 -47.3 -11.35 -45.2 -6.8 -44.05 L1.4 -42.8 Q4.9 -40.0 2.15 -37.25" fill="#ffe7d4" fill-rule="evenodd" stroke="none"/>
  </g>
</svg>
