<?xml version="1.0" encoding="UTF-8" standalone="no"?>
<svg xmlns:ffdec="https://www.free-decompiler.com/flash" xmlns:xlink="http://www.w3.org/1999/xlink" ffdec:objectType="shape" height="28.15px" width="30.45px" xmlns="http://www.w3.org/2000/svg">
  <g transform="matrix(1.0, 0.0, 0.0, 1.0, 21.8, 18.4)">
    <path d="M1.65 -8.3 L3.55 -4.4 4.2 -3.2 6.0 1.1 Q7.75 5.4 8.65 9.25 L6.25 9.6 3.95 9.75 -0.65 9.45 Q-5.65 8.55 -9.55 5.45 -14.45 1.65 -17.75 -5.6 -20.15 -11.05 -21.8 -18.4 L-21.15 -18.4 Q-12.95 -18.4 -7.1 -15.6 -3.4 -13.8 -1.15 -11.85 L-0.8 -11.5 1.0 -9.45 1.3 -8.9 1.35 -8.85 1.6 -8.45 1.65 -8.3" fill="#ffe7d4" fill-rule="evenodd" stroke="none"/>
  </g>
</svg>
