<?xml version="1.0" encoding="UTF-8" standalone="no"?>
<svg xmlns:ffdec="https://www.free-decompiler.com/flash" xmlns:xlink="http://www.w3.org/1999/xlink" ffdec:objectType="shape" height="84.1px" width="53.8px" xmlns="http://www.w3.org/2000/svg">
  <g transform="matrix(1.0, 0.0, 0.0, 1.0, 0.0, 135.05)">
    <path d="M49.25 -128.7 Q40.45 -117.2 36.7 -100.15 32.75 -82.3 26.5 -74.6 20.6 -67.35 13.25 -63.0 10.05 -60.45 13.95 -57.95 L14.25 -58.1 Q22.85 -62.45 30.75 -50.95 26.25 -53.05 22.1 -52.1 L18.15 -51.8 Q15.0 -48.9 7.8 -55.85 2.15 -61.35 1.0 -66.85 -1.7 -73.15 2.85 -82.8 5.4 -79.5 7.0 -76.8 9.3 -101.75 40.9 -128.0 L48.45 -133.8 Q53.05 -136.95 53.5 -132.15 L53.8 -126.55 Q52.15 -130.4 49.25 -128.7" fill="#91d7ff" fill-rule="evenodd" stroke="none"/>
  </g>
</svg>
