<?xml version="1.0" encoding="UTF-8" standalone="no"?>
<svg xmlns:ffdec="https://www.free-decompiler.com/flash" xmlns:xlink="http://www.w3.org/1999/xlink" ffdec:objectType="shape" height="66.2px" width="39.1px" xmlns="http://www.w3.org/2000/svg">
  <g transform="matrix(1.0, 0.0, 0.0, 1.0, 21.15, 99.7)">
    <path d="M17.95 -70.9 L2.2 -51.15 Q-0.1 -52.5 0.0 -53.65 L0.0 -53.85 Q0.35 -54.85 2.2 -55.6 -0.65 -58.6 -1.15 -60.15 L-7.6 -63.25 Q-9.8 -59.25 -5.05 -55.3 -11.75 -52.5 -5.05 -51.2 -6.45 -46.35 -3.0 -46.6 -3.0 -45.35 -1.25 -44.5 L-2.4 -41.25 Q-3.45 -38.05 -4.0 -34.65 -8.7 -31.85 -6.25 -35.95 L-9.55 -34.65 Q-15.4 -35.0 -9.75 -38.35 -12.35 -37.6 -14.5 -40.15 -19.5 -45.5 -12.45 -44.65 -22.4 -50.35 -21.0 -60.7 -17.6 -80.6 -3.65 -99.7 7.75 -92.75 10.35 -83.55 13.0 -77.0 17.95 -70.9" fill="#65ddff" fill-rule="evenodd" stroke="none"/>
  </g>
</svg>
