<?xml version="1.0" encoding="UTF-8" standalone="no"?>
<svg xmlns:ffdec="https://www.free-decompiler.com/flash" xmlns:xlink="http://www.w3.org/1999/xlink" ffdec:objectType="shape" height="29.8px" width="10.1px" xmlns="http://www.w3.org/2000/svg">
  <g transform="matrix(1.0, 0.0, 0.0, 1.0, 4.55, 2.6)">
    <path d="M2.25 0.85 Q3.3 2.05 2.8 3.2 2.3 4.35 1.3 4.2 L-1.35 3.45 Q-2.8 2.85 -3.95 0.65 -5.1 -1.5 -4.1 -2.1 -3.2 -2.7 -2.1 -2.6 -1.1 -2.5 0.05 -1.4 L2.25 0.85 M5.45 24.0 Q5.75 25.3 5.0 26.3 4.3 27.2 3.2 27.2 2.15 27.2 1.4 26.3 0.65 25.3 0.75 24.0 0.8 22.65 1.65 21.7 2.45 20.75 3.05 20.75 3.6 20.75 4.35 21.7 5.1 22.65 5.45 24.0" fill="#d9b2a7" fill-rule="evenodd" stroke="none"/>
  </g>
</svg>
