<?xml version="1.0" encoding="UTF-8" standalone="no"?>
<svg xmlns:ffdec="https://www.free-decompiler.com/flash" xmlns:xlink="http://www.w3.org/1999/xlink" ffdec:objectType="shape" height="45.35px" width="40.8px" xmlns="http://www.w3.org/2000/svg">
  <g transform="matrix(1.0, 0.0, 0.0, 1.0, 16.85, 98.5)">
    <path d="M-15.95 -98.35 L-12.1 -98.05 Q4.8 -92.75 20.05 -81.1 22.15 -79.5 23.95 -77.25 22.75 -76.3 21.2 -75.3 L20.85 -75.05 20.25 -74.7 Q5.6 -66.5 -2.4 -56.05 -4.6 -53.3 -6.3 -53.15 -7.7 -53.3 -9.75 -58.35 -15.85 -76.65 -16.8 -92.7 -17.05 -97.1 -16.05 -98.35 L-15.95 -98.35 M-10.5 -90.15 L-10.4 -89.45 Q-10.15 -79.4 -4.45 -61.25 -1.35 -65.25 2.45 -68.6 7.9 -73.5 14.9 -77.2 2.2 -86.8 -10.5 -90.15" fill="#91d7ff" fill-rule="evenodd" stroke="none"/>
  </g>
</svg>
