<?xml version="1.0" encoding="UTF-8" standalone="no"?>
<svg xmlns:ffdec="https://www.free-decompiler.com/flash" xmlns:xlink="http://www.w3.org/1999/xlink" ffdec:objectType="shape" height="18.1px" width="35.95px" xmlns="http://www.w3.org/2000/svg">
  <g transform="matrix(1.0, 0.0, 0.0, 1.0, 23.4, 60.85)">
    <path d="M7.1 -57.6 L12.5 -60.85 Q12.7 -56.25 12.3 -52.1 11.4 -47.65 10.2 -44.25 L6.55 -42.9 Q-2.15 -42.15 -10.2 -45.5 -16.2 -48.05 -21.85 -52.7 L-23.4 -54.25 -21.7 -53.95 Q-15.05 -53.15 -9.4 -53.7 -12.0 -49.3 -12.35 -46.7 L-10.05 -46.75 Q-7.0 -47.2 -2.75 -49.55 -2.15 -45.85 0.6 -44.8 2.4 -44.4 5.75 -51.05 8.6 -51.65 8.95 -53.6 9.25 -55.15 7.1 -57.6" fill="#d9b2a7" fill-rule="evenodd" stroke="none"/>
  </g>
</svg>
