<?xml version="1.0" encoding="UTF-8" standalone="no"?>
<svg xmlns:ffdec="https://www.free-decompiler.com/flash" xmlns:xlink="http://www.w3.org/1999/xlink" ffdec:objectType="shape" height="49.65px" width="50.7px" xmlns="http://www.w3.org/2000/svg">
  <g transform="matrix(1.0, 0.0, 0.0, 1.0, 46.15, 31.55)">
    <path d="M-5.0 6.5 L-4.8 7.85 Q-5.15 7.2 -5.65 6.8 -8.4 4.2 -13.75 6.15 -18.05 7.75 -21.3 12.9 L-21.7 13.6 -23.25 16.55 -23.9 18.1 -25.0 14.25 -25.0 14.1 -25.1 13.75 -26.7 7.35 Q-28.15 0.95 -31.25 -0.15 -33.8 -0.35 -36.65 0.5 -39.0 1.1 -41.45 2.5 -43.7 3.8 -46.15 5.65 -36.5 -13.95 -19.2 -27.7 -16.6 -29.85 -11.95 -31.55 -16.05 -26.05 -16.75 -20.6 -11.35 -15.05 -2.6 -18.65 -1.7 -16.35 -3.25 -14.4 -0.55 -11.7 1.3 -7.85 3.35 -3.7 4.55 1.75 0.8 1.9 -0.55 2.95 L-2.7 5.05 -3.25 5.6 -5.0 6.5" fill="#66a0ff" fill-rule="evenodd" stroke="none"/>
  </g>
</svg>
