<?xml version="1.0" encoding="UTF-8" standalone="no"?>
<svg xmlns:ffdec="https://www.free-decompiler.com/flash" xmlns:xlink="http://www.w3.org/1999/xlink" ffdec:objectType="shape" height="54.05px" width="49.2px" xmlns="http://www.w3.org/2000/svg">
  <g transform="matrix(1.0, 0.0, 0.0, 1.0, 46.5, 35.85)">
    <path d="M-34.75 -15.9 L-38.85 -14.55 -46.5 -21.75 -45.75 -21.85 Q-39.35 -19.2 -34.75 -15.9 -32.5 -14.8 -30.9 -13.5 -21.9 -11.0 -14.1 -6.5 -14.3 -4.45 -15.3 -2.45 L-17.9 -3.15 -19.5 -3.85 -21.8 -4.95 Q-30.75 -7.0 -35.1 -11.9 L-34.75 -15.9 M-9.0 -18.4 Q-4.65 -16.0 -1.0 -12.55 L0.45 -10.1 Q-6.25 -14.55 -14.0 -18.35 L-17.85 -22.05 -19.7 -22.6 -22.05 -25.15 -22.6 -27.6 -23.8 -27.15 -32.75 -35.85 Q-17.6 -30.65 -9.0 -18.4 M-12.25 -8.0 L-10.65 -8.0 -7.75 -7.5 Q-11.15 -10.1 -11.75 -13.4 L-9.95 -13.2 Q-3.35 -8.0 -1.15 -3.5 L-0.75 -3.05 Q-6.45 -5.0 -12.25 -8.0 M-6.2 9.1 Q-7.6 15.0 -15.9 18.2 L-16.2 17.4 Q-9.75 13.55 -6.15 8.25 L-6.2 9.1 M-0.25 3.85 Q1.2 4.3 0.95 5.25 0.15 7.3 -2.75 7.75 -4.0 7.5 -5.35 6.75 L-6.0 7.45 -6.95 8.05 -14.05 10.7 -14.0 9.9 -13.85 9.0 Q-12.9 5.7 -9.25 2.85 -8.15 1.85 -6.65 0.9 -5.35 2.25 -3.95 2.95 -2.2 3.75 -0.25 3.85 M-22.45 5.25 Q-25.85 6.75 -30.15 6.35 L-37.85 4.9 -37.75 4.9 -31.55 2.85 -27.9 3.25 -18.6 0.85 Q-16.85 2.65 -16.2 4.25 L-21.45 4.75 -22.5 7.45 Q-23.6 11.4 -21.9 13.7 L-20.05 12.35 -15.0 11.0 -15.25 11.4 Q-19.6 15.9 -25.3 16.1 -27.15 9.55 -22.45 5.25 -22.0 5.1 -21.45 4.75 L-22.45 4.75 -22.45 5.25 M2.7 7.3 Q0.85 13.5 -3.8 16.6 -1.25 12.2 0.35 8.1 1.6 7.9 2.7 7.3" fill="#1fce62" fill-rule="evenodd" stroke="none"/>
  </g>
</svg>
