<?xml version="1.0" encoding="UTF-8" standalone="no"?>
<svg xmlns:ffdec="https://www.free-decompiler.com/flash" xmlns:xlink="http://www.w3.org/1999/xlink" ffdec:objectType="shape" height="33.65px" width="46.0px" xmlns="http://www.w3.org/2000/svg">
  <g transform="matrix(1.0, 0.0, 0.0, 1.0, 41.45, 17.1)">
    <path d="M-41.45 2.5 Q-33.8 -8.45 -24.0 -17.1 -25.0 -13.8 -25.45 -10.4 -27.4 1.2 -25.1 13.55 L-25.1 13.75 -26.7 7.35 Q-28.15 0.95 -31.25 -0.15 -33.8 -0.35 -36.65 0.5 -39.0 1.1 -41.45 2.5 M-5.0 6.5 Q-6.8 -2.2 -12.95 -12.15 -7.8 -11.95 -3.25 -14.4 -0.55 -11.7 1.3 -7.85 3.35 -3.7 4.55 1.75 0.8 1.9 -0.55 2.95 L-2.7 5.05 -3.25 5.6 -5.0 6.5 M-23.25 16.55 Q-23.15 -0.8 -19.2 -15.7 -18.0 -10.55 -13.6 -3.9 -10.4 1.05 -5.65 6.8 -8.4 4.2 -13.75 6.15 -18.05 7.75 -21.3 12.9 L-21.7 13.6 -23.25 16.55" fill="#59ff99" fill-rule="evenodd" stroke="none"/>
  </g>
</svg>
