<?xml version="1.0" encoding="UTF-8" standalone="no"?>
<svg xmlns:ffdec="https://www.free-decompiler.com/flash" xmlns:xlink="http://www.w3.org/1999/xlink" ffdec:objectType="shape" height="38.4px" width="55.0px" xmlns="http://www.w3.org/2000/svg">
  <g transform="matrix(1.0, 0.0, 0.0, 1.0, 44.55, 89.65)">
    <path d="M4.45 -54.0 Q2.75 -52.2 0.95 -52.1 -0.65 -54.2 -2.25 -54.85 -3.05 -54.65 -3.25 -51.3 L-7.25 -51.5 Q-9.35 -51.8 -11.55 -52.55 -11.2 -56.1 -11.55 -57.2 -13.05 -57.05 -15.8 -54.8 -17.85 -56.1 -19.3 -57.6 L-22.15 -61.0 Q-20.3 -65.1 -21.05 -66.85 -22.65 -66.9 -25.8 -65.35 L-27.95 -69.7 -30.25 -73.2 Q-28.95 -75.8 -29.3 -78.0 L-33.4 -78.25 Q-37.6 -83.55 -44.55 -89.25 -36.55 -90.05 -26.0 -89.3 -25.15 -86.3 -23.8 -84.6 -22.35 -85.2 -20.6 -89.25 L-16.75 -89.15 -11.55 -88.65 Q-11.8 -83.8 -10.9 -82.85 -8.4 -83.6 -4.6 -87.05 L-0.7 -84.7 Q2.3 -82.55 4.15 -80.05 1.3 -77.15 1.4 -75.1 2.9 -74.5 6.35 -76.15 L8.75 -71.8 Q9.9 -69.45 10.45 -67.05 10.05 -57.85 4.45 -54.0" fill="#ffe7d4" fill-rule="evenodd" stroke="none"/>
  </g>
</svg>
