<?xml version="1.0" encoding="UTF-8" standalone="no"?>
<svg xmlns:ffdec="https://www.free-decompiler.com/flash" xmlns:xlink="http://www.w3.org/1999/xlink" ffdec:objectType="shape" height="45.35px" width="34.45px" xmlns="http://www.w3.org/2000/svg">
  <g transform="matrix(1.0, 0.0, 0.0, 1.0, 5.2, 97.15)">
    <path d="M29.15 -91.35 Q29.8 -75.35 26.2 -57.05 24.85 -51.95 23.65 -51.8 22.15 -51.95 19.9 -54.75 12.0 -65.15 -1.65 -73.4 -3.7 -74.7 -5.2 -75.95 -3.75 -78.2 -2.1 -79.75 9.2 -90.55 22.35 -95.85 L24.6 -96.7 Q26.9 -97.45 27.9 -97.0 28.95 -95.75 29.15 -91.35 M20.0 -87.45 Q11.65 -83.75 5.1 -75.7 L9.25 -72.6 Q16.2 -67.65 21.45 -61.1 L22.05 -60.3 Q25.45 -79.05 24.1 -89.1 L21.25 -88.0 20.0 -87.45" fill="#91d7ff" fill-rule="evenodd" stroke="none"/>
  </g>
</svg>
