<?xml version="1.0" encoding="UTF-8" standalone="no"?>
<svg xmlns:ffdec="https://www.free-decompiler.com/flash" xmlns:xlink="http://www.w3.org/1999/xlink" ffdec:objectType="shape" height="46.7px" width="40.55px" xmlns="http://www.w3.org/2000/svg">
  <g transform="matrix(1.0, 0.0, 0.0, 1.0, 36.05, 26.8)">
    <path d="M-3.0 -20.85 L2.2 -14.05 Q4.6 -7.6 3.1 -3.9 L3.1 -3.75 3.05 -3.25 Q4.2 0.8 4.5 4.25 L4.5 9.2 Q3.6 16.65 -2.35 19.85 L-2.55 19.9 Q-1.75 17.5 -2.55 11.25 -9.0 18.95 -22.4 19.25 -19.1 11.55 -17.55 4.5 L-17.2 3.05 Q-24.45 7.0 -32.6 5.4 -29.25 -0.8 -22.95 -5.75 -32.55 -10.5 -36.05 -26.8 -27.15 -23.4 -15.5 -24.4 -7.6 -25.35 -3.0 -20.85" fill="#ffe7d4" fill-rule="evenodd" stroke="none"/>
  </g>
</svg>
