<?xml version="1.0" encoding="UTF-8" standalone="no"?>
<svg xmlns:ffdec="https://www.free-decompiler.com/flash" xmlns:xlink="http://www.w3.org/1999/xlink" ffdec:objectType="shape" height="31.45px" width="24.1px" xmlns="http://www.w3.org/2000/svg">
  <g transform="matrix(1.0, 0.0, 0.0, 1.0, 19.1, 68.95)">
    <path d="M-2.2 -49.3 L-1.95 -49.0 Q-0.75 -47.2 3.3 -47.55 3.3 -45.45 4.4 -45.25 5.25 -43.9 4.9 -41.45 4.0 -39.1 3.35 -38.8 L3.0 -38.8 2.7 -39.1 2.5 -38.8 Q0.8 -37.05 -3.7 -37.65 -5.6 -38.15 -7.3 -38.8 -19.55 -43.9 -19.1 -59.4 -16.2 -72.65 -9.5 -67.55 -5.1 -62.95 -4.1 -58.15 -2.65 -54.15 1.4 -52.45 -4.55 -52.65 -2.2 -49.3" fill="#5bff80" fill-rule="evenodd" stroke="none"/>
  </g>
</svg>
