<?xml version="1.0" encoding="UTF-8" standalone="no"?>
<svg xmlns:ffdec="https://www.free-decompiler.com/flash" xmlns:xlink="http://www.w3.org/1999/xlink" ffdec:objectType="shape" height="71.35px" width="47.45px" xmlns="http://www.w3.org/2000/svg">
  <g transform="matrix(1.0, 0.0, 0.0, 1.0, 20.25, 91.85)">
    <path d="M-9.7 -61.8 Q-7.6 -63.45 -4.15 -64.6 L3.0 -66.9 Q-3.35 -66.5 -5.75 -68.2 -2.6 -68.7 -1.25 -69.55 -6.5 -69.55 -7.65 -72.85 -6.15 -72.05 -4.9 -72.85 -10.6 -81.1 -12.5 -91.85 -9.4 -89.9 -5.1 -88.35 L4.9 -85.25 Q10.35 -83.8 18.05 -82.5 13.0 -81.35 12.6 -79.9 16.3 -80.65 21.7 -78.55 17.05 -77.75 15.2 -76.0 17.05 -73.15 24.45 -73.55 23.0 -71.8 20.5 -70.75 21.85 -69.35 25.3 -68.85 L27.2 -68.9 26.9 -68.6 Q21.05 -61.65 13.35 -57.85 L12.3 -56.25 Q10.8 -54.45 8.8 -54.0 3.25 -37.45 1.95 -20.5 -4.95 -21.1 -8.4 -24.5 -5.4 -40.25 3.85 -54.95 -10.75 -35.7 -12.15 -31.25 -17.5 -33.6 -20.25 -36.65 -16.1 -43.6 -9.35 -50.35 -10.4 -52.05 -10.75 -53.8 -10.25 -55.05 -7.85 -56.3 L-8.05 -56.5 Q-9.75 -58.4 -11.1 -60.6 L-9.7 -61.8" fill="#72ff7b" fill-rule="evenodd" stroke="none"/>
  </g>
</svg>
