<?xml version="1.0" encoding="UTF-8" standalone="no"?>
<svg xmlns:ffdec="https://www.free-decompiler.com/flash" xmlns:xlink="http://www.w3.org/1999/xlink" ffdec:objectType="shape" height="42.35px" width="53.9px" xmlns="http://www.w3.org/2000/svg">
  <g transform="matrix(1.0, 0.0, 0.0, 1.0, 0.0, 100.9)">
    <path d="M38.7 -62.3 L38.55 -62.85 Q34.65 -65.65 30.35 -65.65 37.7 -67.15 39.4 -70.6 37.45 -70.45 36.15 -71.05 44.75 -80.6 46.5 -90.85 42.65 -87.3 34.5 -84.65 L36.3 -82.95 Q29.85 -82.15 28.2 -80.75 32.7 -80.7 34.2 -79.95 30.2 -78.9 27.8 -77.35 25.45 -75.85 21.7 -76.0 28.0 -73.7 16.55 -69.9 L17.95 -62.15 Q17.55 -60.2 18.2 -58.55 12.35 -62.2 9.45 -65.8 3.95 -71.9 0.9 -78.0 -1.65 -84.1 2.9 -91.75 6.0 -97.0 12.95 -99.65 8.7 -94.7 7.2 -90.15 11.25 -93.7 19.55 -94.85 L37.0 -96.05 Q46.15 -96.05 51.35 -100.9 53.2 -95.7 51.65 -89.35 52.9 -89.75 53.9 -91.4 53.85 -85.4 49.55 -78.95 51.35 -79.05 52.25 -80.1 51.9 -75.15 47.9 -71.35 47.95 -70.2 49.05 -69.65 45.05 -68.65 43.15 -66.2 41.25 -63.8 38.7 -62.3" fill="#91d7ff" fill-rule="evenodd" stroke="none"/>
  </g>
</svg>
