<?xml version="1.0" encoding="UTF-8" standalone="no"?>
<svg xmlns:ffdec="https://www.free-decompiler.com/flash" xmlns:xlink="http://www.w3.org/1999/xlink" ffdec:objectType="shape" height="23.45px" width="31.95px" xmlns="http://www.w3.org/2000/svg">
  <g transform="matrix(1.0, 0.0, 0.0, 1.0, 32.75, 58.15)">
    <path d="M-0.8 -35.15 L-4.25 -34.8 Q-23.4 -33.65 -32.75 -43.95 L-15.4 -56.05 -15.2 -56.05 -8.8 -58.15 Q-6.5 -58.05 -8.0 -56.55 L-12.35 -53.55 -3.3 -55.4 Q-1.15 -55.1 -2.3 -53.9 -8.0 -48.45 -15.7 -46.4 L-12.4 -45.5 Q-11.05 -45.25 -12.35 -44.35 L-17.7 -43.75 Q-12.35 -42.35 -6.65 -41.5 -4.75 -41.1 -6.45 -39.8 L-13.15 -38.0 Q-9.75 -36.8 -5.25 -36.8 L-2.75 -36.65 Q-0.6 -36.2 -0.8 -35.15" fill="#74f860" fill-rule="evenodd" stroke="none"/>
  </g>
</svg>
