<?xml version="1.0" encoding="UTF-8" standalone="no"?>
<svg xmlns:ffdec="https://www.free-decompiler.com/flash" xmlns:xlink="http://www.w3.org/1999/xlink" ffdec:objectType="shape" height="43.6px" width="47.6px" xmlns="http://www.w3.org/2000/svg">
  <g transform="matrix(1.0, 0.0, 0.0, 1.0, 38.25, 39.35)">
    <path d="M0.05 -31.3 L2.2 -26.05 Q3.85 -21.0 5.2 -14.05 6.8 -8.05 9.3 -2.0 L9.35 -1.9 Q9.2 1.85 4.6 3.7 L4.15 3.8 -2.5 4.05 Q1.3 2.85 2.85 1.25 -9.65 4.2 -21.25 3.1 -31.45 1.25 -37.0 -7.3 -40.1 -12.9 -35.4 -15.25 -29.0 -17.55 -24.15 -20.45 L-21.75 -22.1 Q-20.0 -23.35 -18.4 -24.7 -15.15 -27.35 -12.65 -30.15 -15.55 -28.35 -18.35 -29.75 -14.6 -30.9 -12.15 -34.3 -9.85 -37.6 -7.5 -39.35 -3.15 -37.8 0.05 -31.3" fill="#4eb3ef" fill-rule="evenodd" stroke="none"/>
  </g>
</svg>
