<?xml version="1.0" encoding="UTF-8" standalone="no"?>
<svg xmlns:ffdec="https://www.free-decompiler.com/flash" xmlns:xlink="http://www.w3.org/1999/xlink" ffdec:objectType="shape" height="86.95px" width="57.35px" xmlns="http://www.w3.org/2000/svg">
  <g transform="matrix(1.0, 0.0, 0.0, 1.0, 24.15, 134.85)">
    <path d="M20.7 -62.45 Q6.3 -71.2 5.0 -88.15 3.75 -104.8 -14.3 -125.1 -18.0 -129.6 -24.15 -134.85 2.8 -122.65 18.0 -94.35 22.9 -85.15 23.75 -73.4 24.6 -76.85 29.95 -80.25 28.4 -74.55 28.3 -68.9 31.35 -71.2 33.05 -73.5 34.15 -68.35 27.05 -63.2 22.75 -56.5 13.95 -53.35 7.95 -45.95 2.55 -48.6 4.85 -50.65 5.35 -53.2 5.75 -55.9 9.6 -56.7 3.25 -58.55 -0.9 -62.25 2.5 -62.0 5.65 -63.9 10.6 -61.25 16.45 -59.05 20.85 -58.95 20.7 -62.45" fill="#91d7ff" fill-rule="evenodd" stroke="none"/>
  </g>
</svg>
