<?xml version="1.0" encoding="UTF-8" standalone="no"?>
<svg xmlns:ffdec="https://www.free-decompiler.com/flash" xmlns:xlink="http://www.w3.org/1999/xlink" ffdec:objectType="shape" height="37.45px" width="63.15px" xmlns="http://www.w3.org/2000/svg">
  <g transform="matrix(1.0, 0.0, 0.0, 1.0, -11.5, 90.15)">
    <path d="M28.55 -74.85 L25.45 -77.6 24.0 -78.6 22.35 -79.5 21.6 -78.55 Q20.45 -77.05 19.65 -75.5 L16.1 -69.65 13.55 -71.25 12.35 -72.35 11.5 -73.55 12.35 -75.35 13.25 -77.2 13.55 -77.75 Q17.65 -84.55 22.6 -89.1 23.25 -89.55 24.0 -89.8 L25.45 -90.1 Q29.2 -90.5 35.5 -87.2 46.5 -80.5 57.1 -71.95 L57.2 -71.9 60.8 -68.95 Q65.85 -64.75 70.75 -60.1 76.1 -56.1 74.1 -55.2 66.35 -49.2 47.75 -57.65 42.3 -60.45 37.55 -64.8 L33.25 -69.2 31.05 -71.9 30.4 -72.75 28.55 -74.85" fill="#91d7ff" fill-rule="evenodd" stroke="none"/>
  </g>
</svg>
