<?xml version="1.0" encoding="UTF-8" standalone="no"?>
<svg xmlns:ffdec="https://www.free-decompiler.com/flash" xmlns:xlink="http://www.w3.org/1999/xlink" ffdec:objectType="shape" height="37.75px" width="34.55px" xmlns="http://www.w3.org/2000/svg">
  <g transform="matrix(1.0, 0.0, 0.0, 1.0, 26.85, 11.45)">
    <path d="M7.6 6.5 Q8.25 13.45 4.8 16.75 3.8 17.75 2.35 18.35 2.95 16.6 1.95 12.5 L1.7 11.2 Q-0.75 17.4 -5.5 21.5 -6.9 22.8 -8.6 23.85 L-10.25 24.8 -13.55 25.7 Q-19.45 26.9 -24.3 25.7 L-26.85 24.8 -25.55 22.7 -24.85 21.5 Q-21.45 15.7 -18.05 8.7 -15.25 2.8 -12.4 -3.85 L-11.2 -6.5 Q-6.2 -13.0 -1.1 -11.0 1.75 -7.3 3.75 -3.85 L4.8 -1.65 Q6.85 2.5 7.6 6.5" fill="#ffe7d4" fill-rule="evenodd" stroke="none"/>
  </g>
</svg>
