<?xml version="1.0" encoding="UTF-8" standalone="no"?>
<svg xmlns:ffdec="https://www.free-decompiler.com/flash" xmlns:xlink="http://www.w3.org/1999/xlink" ffdec:objectType="shape" height="68.1px" width="51.05px" xmlns="http://www.w3.org/2000/svg">
  <g transform="matrix(1.0, 0.0, 0.0, 1.0, 34.9, 89.05)">
    <path d="M-22.35 -85.25 L-19.6 -87.05 Q-9.35 -91.3 0.1 -86.45 L8.2 -75.9 Q11.05 -72.05 16.15 -70.4 15.25 -61.95 9.75 -59.9 5.2 -52.8 3.05 -45.65 -0.05 -35.7 1.45 -25.75 2.65 -21.75 -0.15 -23.45 -2.05 -21.4 -4.5 -20.95 -7.2 -21.15 -4.5 -23.3 -7.25 -21.95 -7.95 -24.15 -16.35 -23.0 -14.55 -26.8 -16.8 -27.05 -21.2 -30.15 -30.0 -37.55 -33.45 -47.25 -36.55 -59.3 -33.0 -71.5 -31.35 -75.7 -28.7 -79.15 -26.05 -82.6 -22.35 -85.25" fill="#65ddff" fill-rule="evenodd" stroke="none"/>
  </g>
</svg>
