<?xml version="1.0" encoding="UTF-8" standalone="no"?>
<svg xmlns:ffdec="https://www.free-decompiler.com/flash" xmlns:xlink="http://www.w3.org/1999/xlink" ffdec:objectType="shape" height="73.6px" width="36.8px" xmlns="http://www.w3.org/2000/svg">
  <g transform="matrix(1.0, 0.0, 0.0, 1.0, 31.25, 49.25)">
    <path d="M5.45 6.0 Q-3.2 19.5 -19.6 24.35 L-15.9 19.7 Q-9.55 11.85 -2.95 4.6 L2.1 3.75 2.2 6.4 5.45 6.0 M-1.25 -3.85 Q-18.2 -5.7 -27.05 -9.65 -29.45 -10.65 -31.25 -11.85 L0.1 -12.85 -2.15 -9.7 0.75 -8.5 -1.25 -3.85 M-2.5 -21.1 Q-9.1 -31.55 -18.45 -43.95 L-22.5 -49.25 Q-4.85 -38.4 5.55 -25.7 L0.4 -26.0 2.55 -20.15 -2.5 -21.1" fill="#72ff7b" fill-rule="evenodd" stroke="none"/>
  </g>
</svg>
