<?xml version="1.0" encoding="UTF-8" standalone="no"?>
<svg xmlns:ffdec="https://www.free-decompiler.com/flash" xmlns:xlink="http://www.w3.org/1999/xlink" ffdec:objectType="shape" height="51.5px" width="59.25px" xmlns="http://www.w3.org/2000/svg">
  <g transform="matrix(1.0, 0.0, 0.0, 1.0, 62.5, 21.05)">
    <path d="M-23.8 5.05 Q-22.4 10.3 -19.1 11.4 -21.3 15.3 -23.7 16.5 -25.0 14.45 -23.8 5.05 M-52.85 12.75 Q-47.15 12.95 -39.3 3.1 -38.3 0.95 -37.45 -1.4 -35.75 -1.75 -37.5 6.5 -39.25 14.7 -34.95 16.7 -30.7 18.7 -24.5 0.4 L-23.8 4.95 -24.5 8.6 Q-31.6 24.15 -41.45 24.65 L-38.2 13.15 Q-39.75 17.15 -43.5 22.1 -47.35 26.95 -56.0 27.35 -59.85 30.7 -62.5 30.45 L-62.5 29.1 Q-57.1 21.35 -52.85 12.75 M-12.55 -8.15 L-13.75 -10.6 -15.65 -12.25 Q-17.15 -6.55 -19.2 -4.1 -21.25 -3.4 -23.8 -8.15 L-24.45 -11.15 Q-27.5 2.35 -32.6 4.6 -33.95 3.2 -34.75 -5.45 L-35.15 -7.95 -34.2 -10.75 Q-26.5 -8.15 -22.7 -21.05 L-23.25 -17.55 Q-18.2 -11.25 -14.15 -19.1 L-14.35 -17.8 Q-10.05 -12.8 -6.15 -17.8 L-3.25 -14.15 Q-5.5 -10.75 -7.55 -13.75 -9.85 -4.1 -12.55 -8.15" fill="#d9b2a7" fill-rule="evenodd" stroke="none"/>
  </g>
</svg>
