<?xml version="1.0" encoding="UTF-8" standalone="no"?>
<svg xmlns:ffdec="https://www.free-decompiler.com/flash" xmlns:xlink="http://www.w3.org/1999/xlink" ffdec:objectType="shape" height="115.45px" width="38.15px" xmlns="http://www.w3.org/2000/svg">
  <g transform="matrix(1.0, 0.0, 0.0, 1.0, 26.0, 82.7)">
    <path d="M3.8 -76.2 Q15.8 -52.65 10.6 -47.35 12.75 -42.5 11.35 -40.8 8.55 -39.7 5.0 -42.0 L4.75 -32.65 Q3.95 -16.45 2.0 0.95 0.4 16.25 -8.4 27.65 -16.2 34.75 -23.3 32.0 -24.15 31.5 -24.6 30.6 -27.25 26.35 -24.95 16.5 L-19.25 -24.55 -18.7 -32.95 Q-16.0 -64.85 -4.15 -71.25 -5.65 -76.3 -2.95 -82.5 0.6 -83.85 3.8 -76.2" fill="#ffe7d4" fill-rule="evenodd" stroke="none"/>
  </g>
</svg>
