<?xml version="1.0" encoding="UTF-8" standalone="no"?>
<svg xmlns:ffdec="https://www.free-decompiler.com/flash" xmlns:xlink="http://www.w3.org/1999/xlink" ffdec:objectType="shape" height="27.1px" width="21.8px" xmlns="http://www.w3.org/2000/svg">
  <g transform="matrix(1.0, 0.0, 0.0, 1.0, 4.75, 82.65)">
    <path d="M10.3 -59.25 Q5.35 -54.4 1.05 -55.95 2.15 -57.65 1.95 -59.65 1.8 -61.6 2.9 -63.55 -0.6 -63.1 -2.3 -61.85 -1.85 -67.35 2.45 -67.6 -1.95 -69.25 -4.75 -74.5 -3.05 -71.85 0.35 -71.85 -2.25 -75.6 -2.8 -79.05 1.2 -77.05 3.5 -74.35 2.15 -78.5 2.9 -82.65 8.8 -74.8 17.05 -70.0 16.65 -61.25 9.3 -55.7 10.1 -57.45 10.3 -59.25" fill="#72ff7b" fill-rule="evenodd" stroke="none"/>
  </g>
</svg>
