<?xml version="1.0" encoding="UTF-8" standalone="no"?>
<svg xmlns:ffdec="https://www.free-decompiler.com/flash" xmlns:xlink="http://www.w3.org/1999/xlink" ffdec:objectType="shape" height="71.85px" width="32.75px" xmlns="http://www.w3.org/2000/svg">
  <g transform="matrix(1.0, 0.0, 0.0, 1.0, 2.85, 144.9)">
    <path d="M11.4 -73.05 Q8.05 -73.05 7.95 -78.0 6.35 -91.4 6.2 -100.4 9.45 -101.95 9.55 -103.9 8.95 -105.35 6.2 -106.3 5.8 -116.75 -2.85 -144.9 15.55 -130.8 23.6 -120.1 23.35 -117.65 20.95 -115.1 24.25 -113.5 27.05 -114.75 29.3 -110.55 29.65 -106.95 30.65 -96.4 27.9 -88.9 L25.2 -88.9 25.9 -85.05 Q20.7 -77.75 14.6 -74.4 31.0 -97.4 10.85 -121.55 17.0 -94.3 11.4 -73.05" fill="#91d7ff" fill-rule="evenodd" stroke="none"/>
  </g>
</svg>
