<?xml version="1.0" encoding="UTF-8" standalone="no"?>
<svg xmlns:ffdec="https://www.free-decompiler.com/flash" xmlns:xlink="http://www.w3.org/1999/xlink" ffdec:objectType="shape" height="42.85px" width="43.1px" xmlns="http://www.w3.org/2000/svg">
  <g transform="matrix(1.0, 0.0, 0.0, 1.0, -11.5, 96.2)">
    <path d="M16.7 -67.65 L14.15 -67.85 Q13.15 -70.8 12.55 -73.85 11.1 -81.05 11.65 -89.05 12.05 -95.4 19.15 -96.1 25.55 -97.05 32.65 -89.45 L38.5 -82.25 41.15 -78.75 Q48.05 -69.35 53.2 -59.85 57.25 -53.5 49.5 -53.35 40.6 -54.4 32.85 -58.55 28.05 -61.55 24.8 -64.95 22.95 -66.85 21.65 -68.8 20.5 -70.5 19.7 -72.25 18.95 -74.15 18.35 -76.1 L17.4 -79.5 17.2 -80.3 17.05 -81.1 16.45 -84.7 Q15.25 -76.4 16.7 -67.65" fill="#91d7ff" fill-rule="evenodd" stroke="none"/>
  </g>
</svg>
