<?xml version="1.0" encoding="UTF-8" standalone="no"?>
<svg xmlns:ffdec="https://www.free-decompiler.com/flash" xmlns:xlink="http://www.w3.org/1999/xlink" ffdec:objectType="shape" height="57.8px" width="49.45px" xmlns="http://www.w3.org/2000/svg">
  <g transform="matrix(1.0, 0.0, 0.0, 1.0, 40.55, 61.35)">
    <path d="M6.95 -46.6 Q6.45 -44.55 7.6 -40.35 L8.9 -36.35 Q5.4 -40.8 3.15 -39.5 -1.55 -35.85 -3.0 -23.35 -3.9 -29.55 -6.45 -31.45 -11.85 -26.9 -14.1 -3.55 -16.35 -29.0 -24.5 -27.15 -30.8 -23.45 -40.55 -23.5 -24.9 -30.8 -12.1 -61.35 -7.6 -61.0 -3.7 -57.5 -3.75 -60.5 -2.8 -61.0 1.85 -59.4 2.4 -53.45 3.6 -56.35 4.8 -57.05 9.3 -50.65 6.95 -46.6" fill="#ffe7d4" fill-rule="evenodd" stroke="none"/>
  </g>
</svg>
