<?xml version="1.0" encoding="UTF-8" standalone="no"?>
<svg xmlns:ffdec="https://www.free-decompiler.com/flash" xmlns:xlink="http://www.w3.org/1999/xlink" ffdec:objectType="shape" height="50.8px" width="28.05px" xmlns="http://www.w3.org/2000/svg">
  <g transform="matrix(1.0, 0.0, 0.0, 1.0, 21.15, 29.35)">
    <path d="M3.55 -5.75 Q6.25 0.5 6.8 6.65 L6.9 7.3 Q6.6 15.5 -0.15 19.3 L-5.35 21.45 Q-3.65 18.2 -3.25 12.85 L-4.55 12.85 -5.05 4.3 Q-8.1 6.0 -11.1 10.8 -17.35 6.65 -19.85 3.0 -15.55 3.75 -12.3 3.0 -22.75 -11.3 -20.85 -28.6 L-21.1 -29.35 Q-16.15 -21.15 -5.75 -15.2 L-5.95 -13.45 -1.95 -10.3 -1.15 -12.1 Q-0.2 -9.95 0.6 -9.25 L3.55 -5.75" fill="#ffe7d4" fill-rule="evenodd" stroke="none"/>
  </g>
</svg>
