<?xml version="1.0" encoding="UTF-8" standalone="no"?>
<svg xmlns:ffdec="https://www.free-decompiler.com/flash" xmlns:xlink="http://www.w3.org/1999/xlink" ffdec:objectType="shape" height="30.3px" width="66.1px" xmlns="http://www.w3.org/2000/svg">
  <g transform="matrix(1.0, 0.0, 0.0, 1.0, 63.9, 22.85)">
    <path d="M-9.6 -6.45 Q-4.65 -9.1 -2.85 -16.8 -2.2 -19.5 -1.95 -22.7 L-1.95 -22.85 Q4.9 -10.4 0.45 -6.15 L0.1 -5.85 Q-1.45 -4.8 -2.9 -5.7 -3.95 -1.0 -7.15 2.0 -10.1 -1.7 -9.6 -6.45 -12.2 0.6 -17.15 4.45 -19.8 6.4 -23.1 7.45 -24.15 2.75 -23.55 -2.4 -25.7 1.5 -28.75 3.7 -31.6 5.9 -35.3 6.7 L-37.35 6.9 Q-38.3 1.55 -35.2 -4.5 -32.95 -3.8 -23.55 -11.9 -25.1 -4.45 -23.35 -3.35 -21.0 -1.7 -12.05 -12.5 -12.0 -8.95 -9.6 -6.45 M-63.9 -11.4 Q-61.2 -13.75 -54.3 -15.7 -47.5 -17.7 -41.45 -20.4 -39.45 -19.8 -35.8 -19.3 -30.1 -18.65 -25.2 -20.9 -32.6 -17.2 -35.45 -7.85 -35.95 -6.1 -35.75 -5.2 -38.8 -1.5 -42.9 0.6 -47.6 2.95 -53.55 3.05 L-52.4 0.1 Q-50.7 -3.6 -46.95 -7.35 L-46.7 -7.55 -44.35 -9.7 Q-54.65 -6.3 -63.9 -11.4" fill="#4aff96" fill-rule="evenodd" stroke="none"/>
  </g>
</svg>
