<?xml version="1.0" encoding="UTF-8" standalone="no"?>
<svg xmlns:ffdec="https://www.free-decompiler.com/flash" xmlns:xlink="http://www.w3.org/1999/xlink" ffdec:objectType="shape" height="60.3px" width="20.65px" xmlns="http://www.w3.org/2000/svg">
  <g transform="matrix(1.0, 0.0, 0.0, 1.0, 6.65, 120.55)">
    <path d="M-6.65 -60.25 L-5.75 -67.15 -4.35 -76.6 -2.95 -84.55 -1.3 -92.2 0.6 -99.45 Q1.85 -103.65 3.2 -107.15 4.75 -111.2 6.55 -114.2 9.0 -118.4 11.75 -120.55 L14.0 -118.55 Q11.7 -117.6 9.75 -114.45 8.2 -111.9 6.95 -107.95 5.9 -104.7 5.05 -100.5 4.4 -97.45 3.9 -93.85 L3.0 -86.8 2.35 -79.65 1.8 -70.95 1.6 -66.65 Q-4.2 -59.95 -6.65 -60.25" fill="#91d7ff" fill-rule="evenodd" stroke="none"/>
  </g>
</svg>
