<?xml version="1.0" encoding="UTF-8" standalone="no"?>
<svg xmlns:ffdec="https://www.free-decompiler.com/flash" xmlns:xlink="http://www.w3.org/1999/xlink" ffdec:objectType="shape" height="60.95px" width="56.0px" xmlns="http://www.w3.org/2000/svg">
  <g transform="matrix(1.0, 0.0, 0.0, 1.0, -6.8, 123.95)">
    <path d="M27.7 -113.4 Q20.85 -90.15 11.55 -67.65 25.8 -81.95 36.05 -98.8 35.05 -101.45 34.4 -104.05 32.65 -111.1 27.7 -113.4 M6.85 -70.7 Q16.95 -120.1 26.45 -123.1 37.0 -126.0 52.1 -118.9 59.2 -115.2 62.35 -95.85 64.1 -84.65 59.05 -77.4 45.3 -82.15 39.55 -91.8 L38.35 -93.9 Q27.3 -77.25 13.5 -63.25 10.75 -62.3 8.4 -64.9 6.45 -67.05 6.85 -70.7" fill="#91d7ff" fill-rule="evenodd" stroke="none"/>
  </g>
</svg>
