<?xml version="1.0" encoding="UTF-8" standalone="no"?>
<svg xmlns:ffdec="https://www.free-decompiler.com/flash" xmlns:xlink="http://www.w3.org/1999/xlink" ffdec:objectType="shape" height="50.2px" width="101.55px" xmlns="http://www.w3.org/2000/svg">
  <g transform="matrix(1.0, 0.0, 0.0, 1.0, 99.35, 33.65)">
    <path d="M-3.55 -28.4 Q-1.6 -25.95 -1.95 -23.0 L-1.95 -22.85 Q4.9 -10.4 0.45 -6.15 L0.1 -5.85 Q0.55 6.75 -4.15 8.6 -6.8 6.35 -7.15 2.0 -11.1 9.05 -15.05 9.95 -16.75 7.95 -17.15 4.45 -19.8 6.4 -23.1 7.45 -26.45 9.85 -28.9 9.7 -30.1 8.2 -29.8 7.35 -32.0 12.1 -37.65 15.45 -38.95 12.8 -38.5 9.85 -44.85 15.65 -50.7 16.55 -51.05 12.8 -49.5 9.05 -62.75 16.35 -69.2 14.75 -68.75 11.45 -65.4 8.2 L-70.45 10.1 Q-84.95 16.1 -86.55 13.75 -88.0 9.55 -71.85 0.45 -90.9 5.05 -99.35 3.75 -91.25 -6.35 -63.9 -11.4 -61.2 -13.75 -54.3 -15.7 -47.5 -17.7 -41.45 -20.4 -47.85 -22.6 -36.2 -26.95 -20.75 -32.55 -13.9 -33.45 -7.65 -34.6 -3.55 -28.4" fill="#34a2ff" fill-rule="evenodd" stroke="none"/>
  </g>
</svg>
