<?xml version="1.0" encoding="UTF-8" standalone="no"?>
<svg xmlns:ffdec="https://www.free-decompiler.com/flash" xmlns:xlink="http://www.w3.org/1999/xlink" ffdec:objectType="shape" height="50.6px" width="46.3px" xmlns="http://www.w3.org/2000/svg">
  <g transform="matrix(1.0, 0.0, 0.0, 1.0, 5.85, 101.3)">
    <path d="M17.35 -73.75 Q7.85 -79.8 -5.85 -81.65 0.5 -89.25 9.05 -94.1 11.2 -95.35 13.5 -96.4 L16.4 -97.65 Q22.15 -99.95 28.7 -101.3 31.15 -99.15 34.0 -93.4 36.0 -89.4 37.4 -85.5 L39.3 -79.15 40.15 -74.45 Q41.8 -61.25 34.8 -50.7 31.8 -59.8 26.05 -66.3 25.5 -71.3 25.4 -76.0 L25.45 -81.1 25.7 -85.45 26.25 -90.2 24.85 -86.85 23.55 -84.2 21.7 -80.75 17.35 -73.75" fill="#91d7ff" fill-rule="evenodd" stroke="none"/>
  </g>
</svg>
