<?xml version="1.0" encoding="UTF-8" standalone="no"?>
<svg xmlns:ffdec="https://www.free-decompiler.com/flash" xmlns:xlink="http://www.w3.org/1999/xlink" ffdec:objectType="shape" height="62.35px" width="48.8px" xmlns="http://www.w3.org/2000/svg">
  <g transform="matrix(1.0, 0.0, 0.0, 1.0, 44.4, 45.2)">
    <path d="M-9.25 -44.8 L-1.65 -45.0 Q-7.2 -42.2 -9.95 -37.9 -7.65 -31.15 1.05 -30.7 0.8 -28.55 -1.2 -27.5 -0.1 -24.15 -0.05 -20.35 0.05 -16.15 -1.15 -11.2 L-1.7 -11.4 Q0.05 -9.4 1.4 -6.65 3.35 -2.9 4.4 2.0 0.95 2.15 -0.15 3.15 L-2.2 5.1 -2.75 5.6 Q-3.4 6.2 -4.2 6.45 L-4.05 7.65 -4.75 6.75 Q-7.35 4.35 -12.3 6.25 -16.15 7.65 -19.05 12.35 L-19.4 13.0 -20.8 15.75 -21.35 17.15 -23.95 7.35 Q-25.35 1.55 -28.25 0.55 L-33.1 1.1 Q-35.25 1.75 -37.55 3.15 L-41.7 5.9 Q-37.15 -3.7 -30.35 -11.8 L-30.3 -12.4 -30.2 -12.65 -29.1 -18.8 Q-27.75 -24.65 -29.9 -26.75 -31.9 -27.95 -34.55 -28.3 L-39.4 -28.6 -44.4 -27.85 Q-28.8 -40.15 -9.25 -44.8" fill="#66a0ff" fill-rule="evenodd" stroke="none"/>
  </g>
</svg>
