<?xml version="1.0" encoding="UTF-8" standalone="no"?>
<svg xmlns:ffdec="https://www.free-decompiler.com/flash" xmlns:xlink="http://www.w3.org/1999/xlink" ffdec:objectType="shape" height="63.2px" width="43.1px" xmlns="http://www.w3.org/2000/svg">
  <g transform="matrix(1.0, 0.0, 0.0, 1.0, 3.95, 71.65)">
    <path d="M14.35 -67.7 Q22.0 -71.7 27.35 -65.2 30.15 -61.65 30.15 -56.6 30.15 -55.4 30.65 -54.15 39.15 -51.75 39.15 -41.3 39.15 -34.85 33.65 -33.3 35.65 -29.8 34.6 -25.95 32.35 -19.9 24.55 -21.6 24.4 -19.1 21.05 -17.15 18.0 -15.4 16.6 -8.45 13.55 -12.8 13.1 -18.0 12.65 -23.25 15.3 -28.65 15.3 -35.65 19.4 -37.8 18.65 -39.55 19.45 -41.3 13.65 -40.6 12.45 -45.15 8.3 -61.35 -3.95 -68.45 6.75 -75.25 14.35 -67.7" fill="#91d7ff" fill-rule="evenodd" stroke="none"/>
  </g>
</svg>
