<?xml version="1.0" encoding="UTF-8" standalone="no"?>
<svg xmlns:ffdec="https://www.free-decompiler.com/flash" xmlns:xlink="http://www.w3.org/1999/xlink" ffdec:objectType="shape" height="41.2px" width="34.8px" xmlns="http://www.w3.org/2000/svg">
  <g transform="matrix(1.0, 0.0, 0.0, 1.0, 26.6, 10.6)">
    <path d="M0.35 -10.6 Q5.1 -7.5 7.0 0.5 8.85 6.5 7.9 8.95 L6.0 8.75 Q5.45 10.7 5.35 13.55 L5.3 14.25 Q6.4 20.25 4.2 20.3 2.45 19.75 3.3 14.25 3.5 10.15 2.7 8.25 L-2.65 7.3 Q-3.55 10.75 -3.0 16.65 -1.35 23.85 -4.7 24.6 -7.05 24.4 -6.5 19.05 L-5.9 15.3 Q-5.55 10.05 -6.1 6.45 -11.8 5.0 -16.85 2.95 -17.35 4.3 -17.0 7.1 L-16.85 8.2 Q-15.55 14.05 -18.0 14.05 -20.25 14.0 -19.35 7.85 L-19.25 6.85 Q-19.05 3.95 -19.45 1.85 -23.2 0.2 -26.6 -1.85 L0.35 -10.6 M-3.65 28.3 Q-3.35 29.25 -3.9 29.9 -4.45 30.6 -5.25 30.6 -6.0 30.6 -6.6 29.9 -7.15 29.25 -6.95 28.4 L-6.3 26.85 Q-5.85 26.1 -5.2 26.05 -4.5 26.0 -4.25 26.7 L-3.65 28.3" fill="#ffe7d4" fill-rule="evenodd" stroke="none"/>
  </g>
</svg>
