<?xml version="1.0" encoding="UTF-8" standalone="no"?>
<svg xmlns:ffdec="https://www.free-decompiler.com/flash" xmlns:xlink="http://www.w3.org/1999/xlink" ffdec:objectType="shape" height="55.4px" width="57.6px" xmlns="http://www.w3.org/2000/svg">
  <g transform="matrix(1.0, 0.0, 0.0, 1.0, 41.9, 77.75)">
    <path d="M-33.55 -56.7 L-32.0 -57.6 Q-29.45 -58.95 -26.55 -59.7 -24.65 -64.85 -20.6 -69.05 L-17.1 -72.3 Q-8.3 -79.0 3.45 -77.5 L5.85 -77.1 Q10.45 -76.05 12.75 -73.95 16.4 -70.6 15.55 -66.2 14.95 -59.35 11.15 -53.85 7.2 -48.65 0.7 -44.5 2.2 -41.1 2.1 -37.35 L1.75 -34.2 Q0.2 -26.85 -5.45 -23.65 -11.9 -20.8 -18.25 -24.25 L-20.35 -25.85 Q-24.45 -29.35 -26.8 -33.9 -27.6 -35.7 -28.05 -37.55 -29.4 -42.4 -29.05 -47.0 -32.85 -45.1 -34.7 -42.1 -35.8 -40.45 -36.3 -38.5 -36.7 -36.15 -36.15 -34.0 -35.75 -32.65 -34.95 -31.35 -32.85 -29.3 -29.2 -28.4 -32.0 -27.35 -29.7 -25.85 L-33.55 -26.1 Q-38.15 -27.7 -39.95 -30.1 L-40.8 -31.35 Q-42.4 -36.5 -41.7 -42.65 L-41.65 -42.95 Q-40.7 -51.05 -33.55 -56.7" fill="#65ddff" fill-rule="evenodd" stroke="none"/>
  </g>
</svg>
