<?xml version="1.0" encoding="UTF-8" standalone="no"?>
<svg xmlns:ffdec="https://www.free-decompiler.com/flash" xmlns:xlink="http://www.w3.org/1999/xlink" ffdec:objectType="shape" height="39.9px" width="37.3px" xmlns="http://www.w3.org/2000/svg">
  <g transform="matrix(1.0, 0.0, 0.0, 1.0, 10.65, 81.0)">
    <path d="M14.15 -80.2 Q15.55 -81.55 17.75 -80.55 L20.1 -78.6 Q21.95 -74.95 26.65 -73.6 24.65 -70.9 21.6 -69.65 19.0 -67.85 16.1 -67.45 13.05 -66.0 11.45 -64.0 8.6 -60.4 5.6 -59.05 1.1 -55.0 0.5 -50.3 L-1.2 -41.8 Q-3.0 -40.9 -5.1 -41.15 -8.0 -42.85 -4.15 -44.0 L-7.0 -45.5 Q-9.5 -47.75 -10.6 -51.15 -11.1 -54.9 -7.9 -52.5 -9.35 -61.95 -5.25 -69.65 -2.45 -73.8 0.8 -77.4 4.7 -80.55 9.15 -80.9 12.25 -81.15 14.15 -80.2" fill="#65ddff" fill-rule="evenodd" stroke="none"/>
  </g>
</svg>
