<?xml version="1.0" encoding="UTF-8" standalone="no"?>
<svg xmlns:ffdec="https://www.free-decompiler.com/flash" xmlns:xlink="http://www.w3.org/1999/xlink" ffdec:objectType="shape" height="52.9px" width="41.2px" xmlns="http://www.w3.org/2000/svg">
  <g transform="matrix(1.0, 0.0, 0.0, 1.0, 9.2, 101.7)">
    <path d="M-7.1 -74.05 L-5.75 -78.8 Q-4.1 -83.9 -1.75 -88.6 1.25 -94.45 5.35 -99.65 7.65 -103.45 12.25 -100.2 16.9 -97.2 20.75 -93.5 L24.05 -90.1 27.15 -86.3 Q29.85 -82.55 32.0 -78.3 26.75 -48.25 -0.2 -50.45 -2.45 -50.65 -3.25 -48.8 -10.55 -53.95 -8.9 -63.65 -8.35 -69.05 -7.1 -74.05 M11.65 -90.4 L12.2 -86.7 Q12.55 -83.4 12.45 -79.7 L12.05 -74.05 11.7 -71.5 Q10.7 -58.9 16.8 -60.0 23.7 -67.6 22.25 -75.15 L11.65 -90.4" fill="#91d7ff" fill-rule="evenodd" stroke="none"/>
  </g>
</svg>
