<?xml version="1.0" encoding="UTF-8" standalone="no"?>
<svg xmlns:ffdec="https://www.free-decompiler.com/flash" xmlns:xlink="http://www.w3.org/1999/xlink" ffdec:objectType="shape" height="77.75px" width="45.6px" xmlns="http://www.w3.org/2000/svg">
  <g transform="matrix(1.0, 0.0, 0.0, 1.0, 39.5, 36.9)">
    <path d="M-0.9 -17.3 Q0.75 -11.7 -0.7 -8.85 0.05 -7.35 -0.1 -6.2 L-3.65 -6.25 Q-4.55 -6.2 -4.95 -5.35 -6.0 -3.55 -6.65 -3.3 -10.4 -10.0 -14.8 -9.6 L-13.35 -7.15 -7.05 -0.7 Q-3.95 3.15 -4.4 4.8 L-10.25 4.25 Q-6.45 9.75 -0.3 15.4 L0.85 16.4 Q5.8 21.0 6.1 22.4 -1.1 26.7 -13.55 16.7 -10.8 23.1 -4.55 29.05 L-3.75 29.85 Q2.2 34.8 1.45 36.7 -13.3 37.8 -20.6 25.25 L-19.65 27.7 -17.55 33.2 Q-15.05 39.45 -16.15 40.85 -28.05 37.85 -33.5 17.8 -33.85 19.5 -34.6 19.75 -38.75 20.35 -39.25 9.75 -39.7 3.3 -39.25 -4.4 -38.65 -16.45 -35.6 -31.6 -33.85 -39.75 -27.3 -35.4 -17.15 -26.5 -9.2 -21.15 -9.05 -25.05 -8.4 -25.8 -5.15 -24.1 -0.9 -17.3" fill="#ffe7d4" fill-rule="evenodd" stroke="none"/>
  </g>
</svg>
