<?xml version="1.0" encoding="UTF-8" standalone="no"?>
<svg xmlns:ffdec="https://www.free-decompiler.com/flash" xmlns:xlink="http://www.w3.org/1999/xlink" ffdec:objectType="shape" height="58.45px" width="43.8px" xmlns="http://www.w3.org/2000/svg">
  <g transform="matrix(1.0, 0.0, 0.0, 1.0, 38.95, 110.75)">
    <path d="M-21.7 -110.75 L-23.65 -95.4 -22.3 -87.7 -18.5 -78.35 Q-15.0 -87.0 -13.2 -98.15 L-13.2 -84.4 -14.65 -79.7 -14.65 -70.1 -8.7 -64.3 -11.15 -75.45 -8.9 -79.45 -3.35 -60.8 1.65 -57.35 Q8.1 -52.2 1.65 -52.3 -11.2 -58.2 -25.6 -69.75 L-35.8 -74.1 -38.95 -83.85 -33.15 -76.9 Q-29.15 -74.3 -25.0 -73.9 -26.95 -80.85 -27.3 -92.35 L-27.35 -98.45 Q-25.15 -104.5 -21.7 -110.75" fill="#65ddff" fill-rule="evenodd" stroke="none"/>
  </g>
</svg>
