<?xml version="1.0" encoding="UTF-8" standalone="no"?>
<svg xmlns:ffdec="https://www.free-decompiler.com/flash" xmlns:xlink="http://www.w3.org/1999/xlink" ffdec:objectType="shape" height="31.15px" width="21.0px" xmlns="http://www.w3.org/2000/svg">
  <g transform="matrix(1.0, 0.0, 0.0, 1.0, 11.55, 18.7)">
    <path d="M9.35 10.35 Q5.9 12.85 2.75 12.35 -0.45 11.8 -3.0 9.4 0.7 9.4 1.0 7.05 -8.1 6.35 -10.05 -0.95 -7.2 1.25 -5.4 1.0 -3.95 0.6 -3.55 -1.0 -5.8 0.2 -9.0 -5.1 -12.25 -10.4 -11.35 -18.7 -8.3 -13.05 -2.4 -10.8 1.05 -9.45 4.05 -5.7 4.45 -5.15 4.5 -5.9 6.55 -1.8 7.9 2.25 9.8 7.25 9.35 10.35" fill="#fff1e0" fill-rule="evenodd" stroke="none"/>
  </g>
</svg>
