<?xml version="1.0" encoding="UTF-8" standalone="no"?>
<svg xmlns:ffdec="https://www.free-decompiler.com/flash" xmlns:xlink="http://www.w3.org/1999/xlink" ffdec:objectType="shape" height="50.05px" width="28.05px" xmlns="http://www.w3.org/2000/svg">
  <g transform="matrix(1.0, 0.0, 0.0, 1.0, 21.15, 28.6)">
    <path d="M-20.85 -28.6 Q-13.2 1.8 4.5 3.95 5.6 3.85 6.75 6.5 L6.8 6.65 6.9 7.3 Q6.6 15.5 -0.15 19.3 L-5.35 21.45 Q-3.65 18.2 -3.25 12.85 L-4.55 12.85 -5.05 4.3 Q-8.1 6.0 -11.1 10.8 -17.35 6.65 -19.85 3.0 -15.55 3.75 -12.3 3.0 -22.75 -11.3 -20.85 -28.6 M-1.95 -10.3 Q-3.6 -7.55 -5.35 -6.55 -6.25 -9.85 -5.95 -13.45 L-1.95 -10.3" fill="#d9b2a7" fill-rule="evenodd" stroke="none"/>
  </g>
</svg>
