<?xml version="1.0" encoding="utf-8"?>
<svg version="1.1" id="Layer_1"
xmlns="http://www.w3.org/2000/svg"
xmlns:xlink="http://www.w3.org/1999/xlink"
xmlns:author="http://www.sothink.com"
width="43px" height="77px"
xml:space="preserve">
<g id="5772" transform="matrix(1, 0, 0, 1, 21.25, 38.5)">
<path style="fill:none;stroke-width:2;stroke-linecap:round;stroke-linejoin:round;stroke-miterlimit:3;stroke:#54453C;stroke-opacity:1" d="M10.85,33.95Q6.8 37.25 0.6 37.5Q-12.35 36.95 -17.55 32.6Q-22.75 28.2 -18 17.75Q-13.5 8 -16.2 -0.5Q-18.9 -9.05 -17.7 -14.7Q-16.5 -20.4 -10.85 -23.15Q-8.05 -24.7 -9.5 -35.75Q-7 -37.7 -3.05 -37.5Q1.7 -36.9 2.05 -33.9Q2 -24.5 4.35 -22.65Q5.6 -21.65 7.25 -20.6Q13.2 -16.15 13.85 -6Q14.85 3.15 17.05 10.75Q19.25 18.35 19.85 22.1Q20.45 25.8 20.1 27.9" />
</g>
</svg>
