<?xml version="1.0" encoding="utf-8"?>
<svg version="1.1" id="Layer_1"
xmlns="http://www.w3.org/2000/svg"
xmlns:xlink="http://www.w3.org/1999/xlink"
xmlns:author="http://www.sothink.com"
width="19px" height="21px"
xml:space="preserve">
<g id="6502" transform="matrix(1, 0, 0, 1, 11.8, 3.5)">
<path style="fill:none;stroke-width:1.2;stroke-linecap:round;stroke-linejoin:round;stroke-miterlimit:3;stroke:#362723;stroke-opacity:0.498039" d="M-4.65,-2.6L-5 -2.05M-3.15,6.8Q-4.75 12.2 -7.6 10.7Q-10.4 9.1 -8.55 5.05" />
<path style="fill:none;stroke-width:1.8;stroke-linecap:round;stroke-linejoin:round;stroke-miterlimit:3;stroke:#54453C;stroke-opacity:1" d="M-5,-2.05L-5.1 -1.85L-5.15 -1.7L-5.4 -1.2Q-7.45 2.8 -8.2 3.8Q-10.75 7 -10.9 9.65Q-11.05 12.2 -8.9 14.2Q-4.5 18.15 0 15.65L0.25 15.55L2.15 14.25Q4.35 12.5 4.75 10.55L5.45 6.25L5.5 5.8L5.6 2.1M-5,-2.05L-4.85 -2.35L-4.65 -2.6" />
</g>
</svg>
