<?xml version="1.0" encoding="utf-8"?>
<svg version="1.1" id="Layer_1"
xmlns="http://www.w3.org/2000/svg"
xmlns:xlink="http://www.w3.org/1999/xlink"
xmlns:author="http://www.sothink.com"
width="24px" height="50px"
xml:space="preserve">
<g id="5207" transform="matrix(1, 0, 0, 1, 11.7, 24.65)">
<path style="fill:#FFF1E0;fill-opacity:1" d="M1.55,-24.35Q7.7 -23.85 11.6 -22.9Q11.8 -21.8 11.05 -18.15Q8.35 -4.25 7.55 1.9L7.3 4.05Q6.85 9.5 6.85 11.75Q6.8 13.95 7.2 16.5Q7.55 19.05 8.3 22Q8.95 24.95 1.65 24.7Q-5.65 24.4 -8.2 21.55Q-10.75 18.6 -11.25 11.55L-11.7 1.9Q-11.8 -4.25 -11.2 -9.45L-9.85 -21.45Q-9.95 -22.95 -9.4 -24.35Q-4.65 -24.95 1.55 -24.35" />
</g>
</svg>
