<?xml version="1.0" encoding="utf-8"?>
<svg version="1.1" id="Layer_1"
xmlns="http://www.w3.org/2000/svg"
xmlns:xlink="http://www.w3.org/1999/xlink"
xmlns:author="http://www.sothink.com"
width="127px" height="124px"
xml:space="preserve">
<g id="7956" transform="matrix(1, 0, 0, 1, 63.45, 61.65)">
<path style="fill:none;stroke-width:1;stroke-linecap:round;stroke-linejoin:round;stroke-miterlimit:3;stroke:#54453C;stroke-opacity:1" d="M-56.85,31.4Q-59.05 29.75 -57.75 27.45Q-56.45 25.15 -54.75 27.05Q-52.5 29.65 -50.3 33.7L-50.1 34L-49.85 34.55L-49.75 34.75L-49.6 35Q-50.6 36.4 -51 37.65L-51.15 38.3M-51,37.65Q-53.3 37.25 -54.5 34.35" />
<path style="fill:none;stroke-width:2.2;stroke-linecap:round;stroke-linejoin:round;stroke-miterlimit:3;stroke:#54453C;stroke-opacity:1" d="M-44.65,41.35L-44.95 41.85L-40.05 47.4Q-30.9 56.85 -2.9 60.15Q36.85 62.3 49.75 52.5Q62.6 42.7 61.05 30.9Q59.5 19.1 61.6 14.35Q64.8 -11.95 54.7 -31.15Q48.55 -44.3 29.7 -53.65L29.65 -53.7Q21.7 -57.05 11.6 -59.5Q-21.7 -64.95 -45.55 -42.65Q-60.75 -27.35 -60.1 0.4Q-59.3 9.5 -55.2 21.2L-54.35 21.7L-53.8 22.05L-51.65 24.15M-55.2,21.2L-55.75 20.6Q-58.5 20.8 -60.15 22.05Q-64.95 27.9 -59.35 35.6Q-54.6 42.1 -50.15 42.9Q-46.2 43.5 -44.95 41.85" />
</g>
</svg>
