<?xml version="1.0" encoding="UTF-8" standalone="no"?>
<svg xmlns:ffdec="https://www.free-decompiler.com/flash" xmlns:xlink="http://www.w3.org/1999/xlink" ffdec:objectType="shape" height="80.4px" width="47.0px" xmlns="http://www.w3.org/2000/svg">
  <g transform="matrix(1.0, 0.0, 0.0, 1.0, -6.9, 100.9)">
    <path d="M18.2 -58.55 Q10.3 -63.65 6.9 -68.8 L17.15 -85.35 15.7 -76.6 Q21.85 -76.25 26.95 -76.85 L27.0 -76.85 Q38.75 -78.3 44.9 -84.9 50.4 -90.8 51.35 -100.9 53.2 -95.7 51.65 -89.35 52.9 -89.75 53.9 -91.4 53.85 -85.4 49.55 -78.95 51.35 -79.05 52.25 -80.1 51.9 -75.15 47.9 -71.35 47.95 -70.2 49.05 -69.65 45.05 -68.65 43.15 -66.2 41.25 -63.8 38.7 -62.3 39.15 -59.15 37.65 -56.75 41.4 -55.3 38.7 -50.55 44.1 -42.5 45.35 -34.05 42.25 -31.8 37.7 -31.2 38.65 -27.25 39.2 -23.15 35.15 -21.05 29.85 -20.5 28.75 -37.35 23.25 -54.2 22.15 -54.6 21.05 -55.3 18.95 -56.75 18.2 -58.55" fill="#7a5bff" fill-rule="evenodd" stroke="none"/>
  </g>
</svg>
