<?xml version="1.0" encoding="UTF-8" standalone="no"?>
<svg xmlns:ffdec="https://www.free-decompiler.com/flash" xmlns:xlink="http://www.w3.org/1999/xlink" ffdec:objectType="shape" height="53.25px" width="48.4px" xmlns="http://www.w3.org/2000/svg">
  <g transform="matrix(1.0, 0.0, 0.0, 1.0, 45.75, 35.85)">
    <path d="M-4.65 5.7 L-0.25 3.85 Q1.2 4.3 0.95 5.25 0.15 7.3 -2.75 7.75 L0.35 8.1 Q-1.25 12.2 -3.8 16.6 L-4.15 16.9 Q-7.15 14.6 -6.2 9.1 L-6.15 8.25 Q-9.75 13.55 -16.2 17.4 -16.7 14.5 -15.25 11.4 L-15.0 11.0 -20.05 12.35 -21.9 13.7 Q-23.6 11.4 -22.5 7.45 L-21.45 4.75 -16.2 4.25 Q-16.85 2.65 -18.6 0.85 L-27.9 3.25 -31.55 2.85 -37.75 4.9 -37.85 4.9 -38.25 4.85 -40.9 4.3 Q-32.85 -4.85 -21.8 -4.95 L-19.5 -3.85 -17.9 -3.15 -15.3 -2.45 Q-14.3 -4.45 -14.1 -6.5 -21.9 -11.0 -30.9 -13.5 -32.5 -14.8 -34.75 -15.9 -39.35 -19.2 -45.75 -21.85 -32.7 -24.45 -19.1 -14.0 -17.4 -13.2 -15.85 -12.2 -18.65 -14.3 -20.25 -16.55 -29.75 -25.0 -32.75 -35.85 L-23.8 -27.15 -22.6 -27.6 -22.05 -25.15 -19.7 -22.6 -17.85 -22.05 -14.0 -18.35 Q-6.25 -14.55 0.45 -10.1 L2.3 -6.95 2.65 -5.75 Q-3.25 -12.15 -9.95 -13.2 -3.35 -8.0 -1.15 -3.5 L-0.75 -3.05 Q-6.45 -5.0 -12.25 -8.0 L-13.0 -7.95 Q-10.8 -5.6 -9.25 -3.3 L-7.6 -0.15 -6.65 0.9 Q-5.35 2.25 -3.95 2.95 -4.05 4.55 -4.65 5.7 L-13.85 9.0 -14.0 9.9 -14.05 10.7 -6.95 8.05 -6.0 7.45 -5.35 6.75 -5.25 6.65 -5.15 6.5 -4.65 5.7" fill="#ae6cff" fill-rule="evenodd" stroke="none"/>
  </g>
</svg>
