<?xml version="1.0" encoding="utf-8"?>
<svg version="1.1" id="Layer_1"
xmlns="http://www.w3.org/2000/svg"
xmlns:xlink="http://www.w3.org/1999/xlink"
xmlns:author="http://www.sothink.com"
width="68px" height="38px"
xml:space="preserve">
<g id="8955" transform="matrix(1, 0, 0, 1, 33.95, 13.45)">
<path style="fill:#85B6D9;fill-opacity:1" d="M-15.05,-13.45L15.1 -13.45Q22.95 -13.45 28.45 -7.95Q34 -2.4 34 5.45L34 5.5Q34 13.35 28.45 18.85Q22.95 24.4 15.1 24.4L-15.05 24.4Q-22.9 24.4 -28.45 18.85Q-33.95 13.35 -33.95 5.5L-33.95 5.45Q-33.95 -2.4 -28.45 -7.95Q-22.9 -13.45 -15.05 -13.45M22.85,-2.35Q21.65 -3.55 19.95 -3.55Q18.25 -3.55 17 -2.35Q15.8 -1.1 15.8 0.6Q15.8 2.3 17 3.5Q18.25 4.75 19.95 4.75Q21.65 4.75 22.85 3.5Q24.1 2.3 24.1 0.6Q24.1 -1.1 22.85 -2.35M13.1,7.7Q11.9 6.5 10.2 6.5Q8.5 6.5 7.25 7.7Q6.05 8.95 6.05 10.65Q6.05 12.35 7.25 13.55Q8.5 14.8 10.2 14.8Q11.9 14.8 13.1 13.55Q14.35 12.35 14.35 10.65Q14.35 8.95 13.1 7.7M-12.7,14.6L-12.55 14.45L-12.4 14.3Q-11.75 13.65 -11.75 12.65L-11.75 7L-6.1 7Q-5.15 7 -4.45 6.35L-4.25 6.15L-4.15 6.05Q-3.45 5.35 -3.45 4.45Q-3.45 3.45 -4.15 2.8Q-4.85 2.1 -5.8 2.1L-11.75 2.1L-11.75 -3.85Q-11.75 -4.85 -12.4 -5.5Q-13.05 -6.15 -14.05 -6.15Q-14.95 -6.15 -15.65 -5.45L-15.75 -5.3L-15.95 -5.15Q-16.6 -4.5 -16.6 -3.55L-16.6 2.1L-22.3 2.1Q-23.25 2.1 -23.9 2.75L-24.05 2.9L-24.2 3.05Q-24.85 3.7 -24.85 4.7Q-24.85 5.65 -24.2 6.35Q-23.55 7 -22.6 7L-16.6 7L-16.6 12.95Q-16.6 13.95 -15.95 14.6Q-15.3 15.25 -14.35 15.25Q-13.35 15.25 -12.7 14.6" />
</g>
</svg>
