<?xml version="1.0" encoding="utf-8"?>
<svg version="1.1" id="Layer_1"
xmlns="http://www.w3.org/2000/svg"
xmlns:xlink="http://www.w3.org/1999/xlink"
xmlns:author="http://www.sothink.com"
width="119px" height="83px"
xml:space="preserve">
<g id="9315" transform="matrix(1, 0, 0, 1, 57.55, 63.3)">
<linearGradient
id="LinearGradID_2576" gradientUnits="userSpaceOnUse" gradientTransform="matrix(0, 0.0710449, -0.0645447, 0, -3, -3.95)" spreadMethod ="pad" x1="-819.2" y1="0" x2="819.2" y2="0" >
<stop  offset="0" style="stop-color:#F5EA9F;stop-opacity:1" />
<stop  offset="0.482353" style="stop-color:#91D8E9;stop-opacity:1" />
<stop  offset="0.988235" style="stop-color:#E794C2;stop-opacity:1" />
</linearGradient>
<path style="fill:url(#LinearGradID_2576) " d="M-19,-5.25Q-27.8 -8.35 -35.8 -11.9L-11 -18.6L-31.75 -26.85L-17.65 -30.2L3.35 -22.45L15.2 -17.95L41.35 -8.15L41.75 5.5L40.2 6.15L25.9 11.4L25.7 -3.7L2.3 -13.1L-19 -5.25" />
<linearGradient
id="LinearGradID_2577" gradientUnits="userSpaceOnUse" gradientTransform="matrix(0, 0.0713501, -0.0506897, 0, 7.7, -3.2)" spreadMethod ="pad" x1="-819.2" y1="0" x2="819.2" y2="0" >
<stop  offset="0" style="stop-color:#BF9B65;stop-opacity:1" />
<stop  offset="0.482353" style="stop-color:#5BA5CD;stop-opacity:1" />
<stop  offset="1" style="stop-color:#BF5C88;stop-opacity:1" />
</linearGradient>
<path style="fill:url(#LinearGradID_2577) " d="M-35.8,-11.9Q-27.8 -8.35 -19 -5.25L-19.5 10.95L-33.85 5L-35.8 4.2L-35.8 -11.9" />
<linearGradient
id="LinearGradID_2578" gradientUnits="userSpaceOnUse" gradientTransform="matrix(-0.00688171, 0.0323944, -0.0387878, -0.00823975, -29.8, 21.8)" spreadMethod ="pad" x1="-819.2" y1="0" x2="819.2" y2="0" >
<stop  offset="0" style="stop-color:#2C1F0F;stop-opacity:1" />
<stop  offset="0.231373" style="stop-color:#1C311E;stop-opacity:1" />
<stop  offset="0.482353" style="stop-color:#1D3856;stop-opacity:1" />
<stop  offset="0.721569" style="stop-color:#2C2043;stop-opacity:1" />
<stop  offset="0.988235" style="stop-color:#51192C;stop-opacity:1" />
</linearGradient>
<path style="fill:url(#LinearGradID_2578) " d="M-19,-5.25Q-8.3 -1.45 3.7 1.9L4 19Q-7.25 15.55 -17.7 11.6L-19.5 10.95L-19 -5.25M-35.8,-11.9L-35.8 4.2Q-42.7 1 -49.2 -2.35L-53.95 -4.8Q-55.9 -11 -53.95 -20.8Q-45.5 -16.1 -35.8 -11.9" />
<linearGradient
id="LinearGradID_2579" gradientUnits="userSpaceOnUse" gradientTransform="matrix(0.00723267, 0.0332947, -0.0367279, 0.00798035, 36.55, 23.9)" spreadMethod ="pad" x1="-819.2" y1="0" x2="819.2" y2="0" >
<stop  offset="0" style="stop-color:#4F381B;stop-opacity:1" />
<stop  offset="0.231373" style="stop-color:#325836;stop-opacity:1" />
<stop  offset="0.482353" style="stop-color:#274C74;stop-opacity:1" />
<stop  offset="0.721569" style="stop-color:#46336B;stop-opacity:1" />
<stop  offset="0.988235" style="stop-color:#6B203A;stop-opacity:1" />
</linearGradient>
<path style="fill:url(#LinearGradID_2579) " d="M41.35,-8.15Q51.25 -11.05 59.7 -14.1Q61.65 -8.05 59.7 -1.9L54.55 0.35L41.75 5.5L41.35 -8.15M25.7,-3.7L25.9 11.4L24 12.1L4.95 18.7L4 19L3.7 1.9L25.7 -3.7" />
<linearGradient
id="LinearGradID_2580" gradientUnits="userSpaceOnUse" gradientTransform="matrix(0, -0.0201416, 0.0693665, 0, 2.85, -17.3)" spreadMethod ="pad" x1="-819.2" y1="0" x2="819.2" y2="0" >
<stop  offset="0" style="stop-color:#6B4C24;stop-opacity:1" />
<stop  offset="1" style="stop-color:#AD9E6B;stop-opacity:1" />
</linearGradient>
<path style="fill:url(#LinearGradID_2580) " d="M15.2,-17.95L34.2 -23.9Q46.45 -19.65 59.7 -14.1Q51.25 -11.05 41.35 -8.15L15.2 -17.95M-53.95,-20.8Q-43.7 -23.9 -31.75 -26.85L-11 -18.6L-35.8 -11.9Q-45.5 -16.1 -53.95 -20.8M-17.65,-30.2L1.8 -34.25L23.1 -27.75L3.35 -22.45L-17.65 -30.2M2.3,-13.1L25.7 -3.7L3.7 1.9Q-8.3 -1.45 -19 -5.25L2.3 -13.1" />
<path style="fill:#ABDCD5;fill-opacity:1" d="M15.2,-17.95L3.35 -22.45L23.1 -27.75L34.2 -23.9L15.2 -17.95" />
<path style="fill:none;stroke-width:1;stroke-linecap:round;stroke-linejoin:round;stroke-miterlimit:3;stroke:#000000;stroke-opacity:1" d="M23.1,-27.75L34.2 -23.9Q46.45 -19.65 59.7 -14.1Q61.65 -8.05 59.7 -1.9L54.55 0.35L41.75 5.5L40.2 6.15L25.9 11.4L24 12.1L4.95 18.7L4 19Q-7.25 15.55 -17.7 11.6L-19.5 10.95L-33.85 5L-35.8 4.2Q-42.7 1 -49.2 -2.35L-53.95 -4.8Q-55.9 -11 -53.95 -20.8Q-43.7 -23.9 -31.75 -26.85L-17.65 -30.2L1.8 -34.25L23.1 -27.75L3.35 -22.45L15.2 -17.95L34.2 -23.9M2.3,-13.1L25.7 -3.7L25.9 11.4M15.2,-17.95L41.35 -8.15L41.75 5.5M2.3,-13.1L-19 -5.25L-19.5 10.95M-35.8,-11.9L-35.8 4.2M-35.8,-11.9L-11 -18.6L-31.75 -26.85M2.3,-13.1L-11 -18.6M3.35,-22.45L-17.65 -30.2" />
<linearGradient
id="LinearGradID_2581" gradientUnits="userSpaceOnUse" gradientTransform="matrix(-0.00694275, 0.00979614, -0.0171814, -0.0121613, -17.7, -27.2)" spreadMethod ="pad" x1="-819.2" y1="0" x2="819.2" y2="0" >
<stop  offset="0" style="stop-color:#698798;stop-opacity:1" />
<stop  offset="1" style="stop-color:#725574;stop-opacity:1" />
</linearGradient>
<path style="fill:url(#LinearGradID_2581) " d="M-2.75,-18.5Q-14.6 -17.05 -25 -30Q-29.45 -37.9 -26.9 -44.2Q-22.2 -48.6 -18.35 -44.6Q-13.7 -40.7 -10.05 -30.3Q-6.2 -23.6 -2.7 -21.35L-2.75 -18.5" />
<linearGradient
id="LinearGradID_2582" gradientUnits="userSpaceOnUse" gradientTransform="matrix(-0.0075531, -0.00648499, 0.0127411, -0.0148621, 27.85, -40.6)" spreadMethod ="pad" x1="-819.2" y1="0" x2="819.2" y2="0" >
<stop  offset="0" style="stop-color:#698798;stop-opacity:1" />
<stop  offset="1" style="stop-color:#725574;stop-opacity:1" />
</linearGradient>
<path style="fill:url(#LinearGradID_2582) " d="M18.2,-27.8Q20.15 -39 26.8 -46.35Q34.8 -53.95 40.3 -51.05Q46.55 -46.8 41.35 -39.6Q37.3 -32.95 27.5 -31.1Q21.2 -30.25 18.2 -27.8" />
<linearGradient
id="LinearGradID_2583" gradientUnits="userSpaceOnUse" gradientTransform="matrix(0.0189819, 0.0396576, -0.0556335, 0.0266266, 1.7, -24.6)" spreadMethod ="pad" x1="-819.2" y1="0" x2="819.2" y2="0" >
<stop  offset="0" style="stop-color:#F5EA9F;stop-opacity:1" />
<stop  offset="0.482353" style="stop-color:#91D8E9;stop-opacity:1" />
<stop  offset="0.988235" style="stop-color:#E794C2;stop-opacity:1" />
</linearGradient>
<path style="fill:url(#LinearGradID_2583) " d="M12.8,-24.7Q13.7 -28.7 15 -32.45Q20.15 -44.35 29.3 -53.15Q22.15 -51 15.2 -39.45Q15 -50.4 11.45 -51.75Q4 -51.35 2.9 -34.8Q0.45 -42.35 1.4 -49Q2.7 -59.4 13.6 -62.65Q17.65 -63.2 26.15 -61.35Q35.1 -58.75 41.55 -54.25L42.75 -53.35Q49.65 -47.5 44.75 -37.5Q39.2 -29.3 28.65 -27.55Q19.25 -25.85 14.8 -22.2Q21.55 -26.3 33.5 -25.3Q43.4 -23.5 49.05 -27.35Q51.7 -16.25 45.6 -10.15Q39.2 -3.7 38.95 -0.55Q33.4 -0.5 28 -8.9Q24.4 -14.55 16.1 -15.95Q15.2 -13.65 10.9 -12.3Q5.1 -15.95 10.1 -21.75L2.5 -21.95Q-1.15 -20.05 0.45 -27.15L5.85 -27.5Q10.25 -27.15 12.8 -24.7M0.75,-11.9Q-3.5 -1.3 -2.4 1.55Q-0.6 -2.35 4.75 -11.2L8.9 -11.85Q8.25 -1.55 15.25 9.4Q7.35 6.8 3.05 9.1Q-6.75 12.6 -12.95 11.4Q-14.95 -6.15 -1.05 -13.1L0.75 -11.9M-55.9,-27.8L-54.35 -30.2Q-44.5 -44.35 -30.25 -50.15L-28.15 -50.9Q-22 -52.85 -15.95 -48.6Q-11.25 -43.95 -6.75 -35.9Q-5.55 -29.1 -1.6 -25.75Q-2.45 -23.75 -2.7 -21.35Q-6.2 -23.6 -10.05 -30.3Q-13.7 -40.7 -18.35 -44.6Q-22.2 -48.6 -26.9 -44.2Q-29.45 -37.9 -25 -30Q-14.6 -17.05 -2.75 -18.5L-2.6 -16.35Q-10.45 -14.9 -16.85 -18.6Q-29.15 -26.5 -31.75 -37.65Q-46.7 -28.4 -55.9 -27.8M16.5,-17.45L35.35 -18.25Q30.25 -21.25 15.45 -20.7Q16.4 -18.9 16.5 -17.45M27.5,-31.1Q37.3 -32.95 41.35 -39.6Q46.55 -46.8 40.3 -51.05Q34.8 -53.95 26.8 -46.35Q20.15 -39 18.2 -27.8Q21.2 -30.25 27.5 -31.1" />
<linearGradient
id="LinearGradID_2584" gradientUnits="userSpaceOnUse" gradientTransform="matrix(0.0168915, 0.0427246, -0.0521851, 0.0206299, -6.35, -18.3)" spreadMethod ="pad" x1="-819.2" y1="0" x2="819.2" y2="0" >
<stop  offset="0" style="stop-color:#BF9B65;stop-opacity:1" />
<stop  offset="0.482353" style="stop-color:#5BA5CD;stop-opacity:1" />
<stop  offset="1" style="stop-color:#BF5C88;stop-opacity:1" />
</linearGradient>
<path style="fill:url(#LinearGradID_2584) " d="M-2.75,-18.5L-2.7 -21.35Q-2.45 -23.75 -1.6 -25.75Q-0.7 -26.65 0.45 -27.15Q-1.15 -20.05 2.5 -21.95L10.1 -21.75Q5.1 -15.95 10.9 -12.3L8.9 -11.85L4.75 -11.2Q-0.6 -2.35 -2.4 1.55Q-3.5 -1.3 0.75 -11.9L-1.05 -13.1Q-2.1 -14.35 -2.6 -16.35L-2.75 -18.5M5.85,-27.5Q4.1 -31.2 2.9 -34.8Q4 -51.35 11.45 -51.75Q15 -50.4 15.2 -39.45Q22.15 -51 29.3 -53.15Q20.15 -44.35 15 -32.45Q13.7 -28.7 12.8 -24.7Q10.25 -27.15 5.85 -27.5M15.45,-20.7Q30.25 -21.25 35.35 -18.25L16.5 -17.45Q16.4 -18.9 15.45 -20.7" />
<linearGradient
id="LinearGradID_2585" gradientUnits="userSpaceOnUse" gradientTransform="matrix(0.0168915, 0.0427246, -0.0521851, 0.0206299, -6.35, -18.3)" spreadMethod ="pad" x1="-819.2" y1="0" x2="819.2" y2="0" >
<stop  offset="0" style="stop-color:#CDA76C;stop-opacity:1" />
<stop  offset="0.482353" style="stop-color:#63B4E0;stop-opacity:1" />
<stop  offset="1" style="stop-color:#BF5C88;stop-opacity:1" />
</linearGradient>
<path style="fill:url(#LinearGradID_2585) " d="M-31.75,-37.65Q-29.15 -26.5 -16.85 -18.6Q-10.45 -14.9 -2.6 -16.35Q-8.35 -11.95 -22.2 -9.25Q-36.15 -9.2 -44.25 -11.55Q-55.45 -16.4 -56.85 -20.85Q-57.5 -24.5 -55.9 -27.8Q-46.7 -28.4 -31.75 -37.65" />
<path style="fill:none;stroke-width:1;stroke-linecap:round;stroke-linejoin:round;stroke-miterlimit:3;stroke:#000000;stroke-opacity:1" d="M2.9,-34.8Q0.45 -42.35 1.4 -49Q2.7 -59.4 13.6 -62.65Q17.65 -63.2 26.15 -61.35Q35.1 -58.75 41.55 -54.25L42.75 -53.35Q49.65 -47.5 44.75 -37.5Q39.2 -29.3 28.65 -27.55Q19.25 -25.85 14.8 -22.2Q21.55 -26.3 33.5 -25.3Q43.4 -23.5 49.05 -27.35Q51.7 -16.25 45.6 -10.15Q39.2 -3.7 38.95 -0.55Q33.4 -0.5 28 -8.9Q24.4 -14.55 16.1 -15.95Q15.2 -13.65 10.9 -12.3L8.9 -11.85Q8.25 -1.55 15.25 9.4Q7.35 6.8 3.05 9.1Q-6.75 12.6 -12.95 11.4Q-14.95 -6.15 -1.05 -13.1Q-2.1 -14.35 -2.6 -16.35Q-8.35 -11.95 -22.2 -9.25Q-36.15 -9.2 -44.25 -11.55Q-55.45 -16.4 -56.85 -20.85Q-57.5 -24.5 -55.9 -27.8L-54.35 -30.2Q-44.5 -44.35 -30.25 -50.15L-28.15 -50.9Q-22 -52.85 -15.95 -48.6Q-11.25 -43.95 -6.75 -35.9Q-5.55 -29.1 -1.6 -25.75Q-0.7 -26.65 0.45 -27.15L5.85 -27.5Q4.1 -31.2 2.9 -34.8M5.85,-27.5Q10.25 -27.15 12.8 -24.7L14.8 -22.2L15.45 -20.7Q16.4 -18.9 16.5 -17.45Q16.5 -16.6 16.1 -15.95M8.9,-11.85L4.75 -11.2Q2.3 -11.2 0.75 -11.9L-1.05 -13.1M18.2,-27.8Q20.15 -39 26.8 -46.35Q34.8 -53.95 40.3 -51.05Q46.55 -46.8 41.35 -39.6Q37.3 -32.95 27.5 -31.1Q21.2 -30.25 18.2 -27.8M-2.7,-21.35Q-6.2 -23.6 -10.05 -30.3Q-13.7 -40.7 -18.35 -44.6Q-22.2 -48.6 -26.9 -44.2Q-29.45 -37.9 -25 -30Q-14.6 -17.05 -2.75 -18.5L-2.7 -21.35Q-2.45 -23.75 -1.6 -25.75M-2.75,-18.5L-2.6 -16.35" />
</g>
</svg>
