<?xml version="1.0" encoding="utf-8"?>
<svg version="1.1" id="Layer_1"
xmlns="http://www.w3.org/2000/svg"
xmlns:xlink="http://www.w3.org/1999/xlink"
xmlns:author="http://www.sothink.com"
width="144px" height="39px"
xml:space="preserve">
<g id="10844" transform="matrix(1, 0, 0, 1, 66.7, 12.8)">
<path style="fill:#312222;fill-opacity:1" d="M27.25,-2.5Q29.7 -3.95 32.9 -3.95Q36.05 -3.95 38.55 -2.5Q41.05 -1.1 42.6 1.5L42.6 1.6Q43.95 4.05 43.95 7.25L43.95 13.95Q43.95 17.1 42.65 19.6L42.6 19.65Q41.15 22.3 38.55 23.85L38.6 23.8Q36.1 25.35 32.85 25.35Q30.05 25.35 27.6 24.25Q25.1 23.05 23.45 20.95Q22.5 19.7 22.55 18.5Q22.45 16.6 24.3 15.35L24.35 15.35Q24.5 15.2 24.65 15.15Q23.75 14.1 23.1 12.85L22.35 11.1L22.35 14.2Q22.35 16.05 21.1 17.15L21.05 17.2Q19.9 18.3 18.3 18.3Q16.6 18.3 15.5 17.2Q14.2 16.1 14.2 14.2L14.2 6.5Q14.2 5.25 13.65 4.55L13.65 4.5Q12.85 3.9 11.7 3.9L10.5 4.2L10.4 4.25L9.75 4.75L9.55 5.4L9.55 14.2Q9.55 16.05 8.3 17.15L8.25 17.2Q7.15 18.3 5.45 18.3Q3.75 18.3 2.65 17.2Q1.35 16.1 1.35 14.2L1.35 9.85Q1 11.45 0.25 12.9L0.25 12.95Q-1.2 15.5 -3.75 16.95Q-6.25 18.35 -9.45 18.35Q-12.65 18.35 -15.1 16.95Q-17.75 15.5 -19.1 12.95L-19.15 12.9Q-20.55 10.4 -20.55 7.25Q-20.55 5.4 -20.05 3.75L-21.75 4.05L-22.6 4L-22.7 3.95L-24.2 3.75Q-25.5 3.75 -26.3 4.3Q-26.7 4.6 -26.7 5.1L-26.7 14.2Q-26.7 16.15 -27.8 17.15Q-28.8 18.25 -30.8 18.25Q-32.5 18.25 -33.6 17.25L-33.7 17.15Q-34.85 16.15 -34.85 14.2L-34.85 0.25L-34.8 -0.4L-39.5 15.2L-39.6 15.4Q-40.1 16.6 -40.9 17.3L-41 17.4Q-42.15 18.25 -43.55 18.25Q-44.95 18.25 -46.05 17.4Q-47.2 16.55 -47.55 15.05L-47.55 15.1L-49.8 6.4L-52.1 15.1L-52.15 15.25Q-52.6 16.55 -53.5 17.3L-53.6 17.4Q-54.75 18.25 -56.15 18.25Q-57.55 18.25 -58.65 17.4Q-59.7 16.6 -60.15 15.25L-60.2 15.2L-66.4 -5.55L-66.45 -5.6L-66.7 -7.2Q-66.7 -8.95 -65.55 -10Q-64.65 -11.1 -62.8 -11.1Q-61.4 -11.1 -60.35 -10.3Q-59.25 -9.55 -58.85 -8.1L-56.2 1.05L-53.8 -7.85L-53.85 -7.7Q-53.55 -9.2 -52.2 -10.05Q-51.15 -10.8 -49.85 -10.8Q-48.55 -10.8 -47.55 -10.15L-47.5 -10.1Q-46.3 -9.3 -45.9 -7.95L-45.85 -7.9L-43.45 1.15L-40.75 -8.15L-40.75 -8.25Q-40.3 -9.95 -39.05 -10.5Q-38.2 -11.1 -36.75 -11.1Q-34.85 -11.1 -33.95 -9.9L-33.95 -9.85Q-33 -8.85 -33 -7.25Q-33 -6.45 -33.25 -5.6L-34.4 -1.8L-33.7 -2.65L-33.6 -2.75Q-32.5 -3.8 -30.8 -3.8Q-29.1 -3.8 -28.1 -3.1L-27.95 -3.15L-27.9 -3.15Q-26.1 -4 -24 -4Q-21.55 -4 -20.2 -3.2L-20.15 -3.15Q-18 -2 -17.9 -0.25Q-16.75 -1.65 -15.1 -2.55L-15.1 -2.5Q-12.65 -3.95 -9.45 -3.95Q-6.3 -3.95 -3.8 -2.5Q-1.3 -1.1 0.25 1.5L0.25 1.6Q1 3 1.35 4.65L1.35 0.25Q1.35 -1.55 2.55 -2.65L2.65 -2.75Q3.75 -3.8 5.45 -3.8Q6.9 -3.8 7.95 -3.05L8.45 -3.25L8.55 -3.3L12.35 -3.95Q15.15 -3.95 17.4 -2.75Q19.8 -1.45 21.1 1.05Q21.85 2.45 22.15 4.2Q22.5 2.8 23.2 1.6Q24.6 -1.05 27.25 -2.55L27.25 -2.5M76.7,-8.55Q76.7 -7.2 75.9 -5.9L75.8 -5.8L68.45 4L75.7 14L75.75 14.1Q76.55 15.35 76.55 16.7Q76.55 18.4 75.4 19.7Q74.3 21.05 72.3 21.05Q70.1 21 68.85 19.4L68.8 19.35L62.7 10.95L56.25 19.5L56.05 19.8Q54.75 21.05 52.95 21.05Q51.05 21.05 49.9 19.85L49.75 19.65Q48.7 18.4 48.7 16.8Q48.7 15.2 49.65 13.95L57.15 3.95L50.3 -5.65Q49.25 -6.75 49.25 -8.45Q49.25 -10.1 50.35 -11.4L50.4 -11.45Q51.5 -12.8 53.5 -12.8Q55.95 -12.8 56.85 -11.35L56.95 -11.25L62.9 -2.95L69.1 -11.3L69.45 -11.65Q70.6 -12.8 72.5 -12.8Q74.3 -12.8 75.55 -11.55L75.6 -11.45Q76.7 -10.3 76.7 -8.55M34.5,4.25L32.9 3.85Q32 3.85 31.35 4.25Q30.65 4.65 30.25 5.45L30.3 5.35Q29.85 6.2 29.85 7.25Q29.85 8.2 30.25 9Q30.65 9.75 31.35 10.15Q32 10.55 32.9 10.55Q33.8 10.55 34.5 10.15L35.5 9.1L35.55 9.05Q35.95 8.25 35.95 7.25Q35.95 6.25 35.55 5.45L35.5 5.35Q35.1 4.65 34.5 4.25M-7.85,4.25L-9.45 3.85Q-10.35 3.85 -11 4.25L-12.1 5.45L-12.05 5.35L-12.5 7.25Q-12.5 8.2 -12.1 9L-11 10.15Q-10.35 10.55 -9.45 10.55L-7.85 10.15L-6.85 9.1L-6.8 9.05Q-6.4 8.25 -6.4 7.25Q-6.4 6.25 -6.8 5.45L-6.85 5.35Q-7.25 4.65 -7.85 4.25" />
<path style="fill:#FFB1B1;fill-opacity:1" d="M12.35,-1.45Q14.5 -1.45 16.2 -0.55Q17.95 0.4 18.9 2.2Q19.85 4 19.85 6.5L19.85 14.2Q19.85 14.9 19.4 15.3Q18.95 15.8 18.3 15.8Q17.6 15.8 17.15 15.3Q16.7 14.9 16.7 14.2L16.7 6.5Q16.7 4 15.35 2.7Q13.95 1.4 11.7 1.4Q10.4 1.4 9.35 1.95Q8.25 2.45 7.65 3.35Q7.05 4.25 7.05 5.4L7.05 14.2Q7.05 14.9 6.6 15.3Q6.15 15.8 5.45 15.8Q4.75 15.8 4.3 15.3Q3.85 14.9 3.85 14.2L3.85 0.25Q3.85 -0.45 4.3 -0.9Q4.75 -1.3 5.45 -1.3Q6.15 -1.3 6.6 -0.9Q7.05 -0.45 7.05 0.25L7.05 0.6Q8.05 -0.4 9.4 -0.95L12.35 -1.45M32.9,-1.45Q35.35 -1.45 37.3 -0.35Q39.25 0.75 40.4 2.75Q41.45 4.7 41.45 7.25L41.45 13.95Q41.45 16.45 40.4 18.45Q39.3 20.5 37.3 21.65Q35.35 22.85 32.85 22.85Q30.6 22.85 28.65 21.95Q26.7 21.05 25.4 19.4Q25.05 18.95 25.05 18.5Q25.05 17.85 25.7 17.4Q26.15 17.1 26.6 17.1Q27.4 17.1 27.9 17.8Q28.7 18.85 30 19.45Q31.3 20.05 32.9 20.05Q34.45 20.05 35.7 19.3Q36.9 18.55 37.7 17.15Q38.45 15.7 38.45 13.75L38.45 12.25Q37.45 13.95 35.85 14.9Q34.25 15.85 32.25 15.85Q29.95 15.85 28.15 14.75Q26.3 13.65 25.3 11.7Q24.3 9.75 24.3 7.25Q24.3 4.7 25.4 2.75Q26.45 0.75 28.45 -0.35Q30.4 -1.45 32.9 -1.45M32.9,13.05Q34.5 13.05 35.75 12.3Q37 11.55 37.7 10.25Q38.45 8.9 38.45 7.25Q38.45 5.55 37.7 4.2Q37 2.85 35.75 2.1Q34.5 1.35 32.9 1.35Q31.3 1.35 30.05 2.1Q28.8 2.85 28.05 4.2Q27.35 5.55 27.35 7.25Q27.35 8.9 28.05 10.25Q28.8 11.55 30.05 12.3Q31.3 13.05 32.9 13.05M-36.75,-8.6Q-36.15 -8.6 -35.85 -8.25Q-35.5 -7.85 -35.5 -7.25L-35.65 -6.35L-41.9 14.45L-42.55 15.4Q-43 15.75 -43.55 15.75L-44.55 15.4L-45.15 14.45L-49.8 -3.5L-54.55 14.45L-55.15 15.4Q-55.6 15.75 -56.15 15.75Q-56.7 15.75 -57.15 15.4L-57.8 14.45L-64.05 -6.35L-64.2 -7.2Q-64.2 -7.85 -63.8 -8.25L-62.8 -8.6Q-62.25 -8.6 -61.85 -8.3L-61.25 -7.4L-56.1 10.4L-51.4 -7.2Q-51.3 -7.7 -50.85 -8L-49.85 -8.3L-48.9 -8.05Q-48.45 -7.75 -48.3 -7.25L-43.55 10.5L-38.35 -7.55L-37.8 -8.35L-36.75 -8.6M-24,-1.5L-21.4 -1Q-20.45 -0.5 -20.45 0.25L-20.5 0.55Q-20.75 1.55 -21.75 1.55L-22.2 1.5L-24.2 1.25Q-26.5 1.25 -27.85 2.3Q-29.2 3.35 -29.2 5.1L-29.2 14.2Q-29.2 14.95 -29.6 15.35Q-30 15.75 -30.8 15.75Q-31.5 15.75 -31.95 15.35Q-32.35 14.95 -32.35 14.2L-32.35 0.25Q-32.35 -0.5 -31.95 -0.9Q-31.5 -1.3 -30.8 -1.3Q-29.2 -1.3 -29.2 0.25L-29.2 0.85Q-28.3 -0.25 -26.9 -0.9Q-25.55 -1.5 -24 -1.5M-9.45,15.85Q-11.95 15.85 -13.9 14.75Q-15.9 13.65 -16.95 11.7Q-18.05 9.75 -18.05 7.25Q-18.05 4.7 -16.95 2.75Q-15.9 0.75 -13.9 -0.35Q-11.95 -1.45 -9.45 -1.45Q-7 -1.45 -5.05 -0.35Q-3.1 0.75 -1.95 2.75Q-0.9 4.7 -0.9 7.25Q-0.9 9.75 -1.95 11.7Q-3.05 13.65 -5 14.75Q-6.95 15.85 -9.45 15.85M-9.45,13.05Q-7.85 13.05 -6.6 12.3Q-5.35 11.55 -4.65 10.25Q-3.9 8.9 -3.9 7.25Q-3.9 5.55 -4.65 4.2Q-5.35 2.85 -6.6 2.1Q-7.85 1.35 -9.45 1.35Q-11.05 1.35 -12.3 2.1Q-13.55 2.85 -14.3 4.2Q-15 5.55 -15 7.25Q-15 8.9 -14.3 10.25Q-13.55 11.55 -12.3 12.3Q-11.05 13.05 -9.45 13.05" />
<path style="fill:#FF6666;fill-opacity:1" d="M73.65,15.45Q74.05 16.05 74.05 16.7Q74.05 17.45 73.55 18Q73.1 18.55 72.3 18.55Q71.35 18.55 70.8 17.85L62.75 6.7L54.25 18Q53.7 18.55 52.95 18.55Q52.15 18.55 51.65 18.05Q51.2 17.5 51.2 16.8Q51.2 16.05 51.65 15.45L60.25 4L52.15 -7.3Q51.75 -7.75 51.75 -8.45Q51.75 -9.2 52.25 -9.8Q52.7 -10.3 53.5 -10.3Q54.5 -10.3 54.9 -9.8L62.85 1.25L71.1 -9.8Q71.65 -10.3 72.5 -10.3Q73.25 -10.3 73.75 -9.8Q74.2 -9.3 74.2 -8.55Q74.2 -7.9 73.8 -7.3L65.35 3.95L73.65 15.45" />
</g>
</svg>
