<?xml version="1.0" encoding="utf-8"?>
<svg version="1.1" id="Layer_1"
xmlns="http://www.w3.org/2000/svg"
xmlns:xlink="http://www.w3.org/1999/xlink"
xmlns:author="http://www.sothink.com"
width="175px" height="33px"
xml:space="preserve">
<g id="10843" transform="matrix(1, 0, 0, 1, 81.15, 12.25)">
<path style="fill:#173A2B;fill-opacity:1" d="M27.95,-2.55Q30.6 -4.1 33.95 -4.1Q38.5 -4.1 41.7 -1.05Q41.95 -1.65 42.5 -2.1Q43.25 -2.95 44.45 -3.15L44.45 -5.65Q44.45 -7.4 45.55 -8.55L45.75 -8.75Q46.9 -9.85 48.65 -9.85Q50.5 -9.85 51.65 -8.65Q52.85 -7.45 52.85 -5.65L52.85 -3.25L53.25 -3.25Q54.95 -3.25 56.05 -2.2Q57.35 -1.15 57.35 0.75Q57.35 2.45 56.05 3.65Q54.95 4.65 53.25 4.65L52.85 4.65L52.85 10.55L53.05 11.25L54.1 11.25Q55.75 11.25 56.9 12.5Q58.05 13.6 58.05 15.45Q58 17.4 56.6 18.6Q55.35 19.65 53.55 19.65L52.95 19.65Q50.5 19.65 48.6 18.45L48.55 18.4Q46.6 17.15 45.55 15.1L45.55 15.05Q44.45 13 44.45 10.55L44.45 4.6L43.15 4.1L41.7 5.65L41.65 5.7Q40.65 6.35 39.45 6.35Q37.55 6.35 36.25 4.95L36.2 4.85L35.35 4.25L33.95 4Q32.45 4 31.5 4.95Q30.6 6.1 30.6 7.85Q30.6 9.05 31.1 10Q31.5 10.8 32.25 11.25L32.3 11.3L34.15 11.75Q35.45 11.75 36.3 11.15Q37.65 10 39.15 10.05Q40.3 10 41.45 10.8L41.75 11Q43.2 12.35 43.15 14.1Q43.2 15.6 42.05 16.8L41.95 16.85Q38.8 19.8 34.15 19.8Q30.75 19.8 28.05 18.2L28.1 18.25Q25.3 16.7 23.8 13.95Q22.9 12.35 22.55 10.55L21.3 11.35Q22.65 12.55 22.55 14.2Q22.6 15.95 21.1 17.15L21 17.25Q19.55 18.4 17.45 19.05L17.35 19.1L13.35 19.8Q9.85 19.8 7.15 18.25L7.2 18.3Q4.35 16.8 2.75 14Q1.15 11.3 1.15 7.85Q1.15 5.6 1.85 3.7Q0.95 4.25 -0.3 4.2L-1.2 4.1L-3.05 3.9Q-4.55 3.9 -5.5 4.55Q-6.05 4.9 -6 5.55L-6 15.45Q-6 17.35 -7 18.35L-7.1 18.5Q-8.15 19.65 -10.2 19.65Q-12.15 19.65 -13.2 18.5Q-14.4 17.5 -14.4 15.45L-14.4 3.5Q-15.35 4.25 -16.8 4.2L-17.7 4.1L-19.55 3.9Q-21.05 3.9 -22 4.55Q-22.55 4.9 -22.5 5.55L-22.5 15.45Q-22.5 17.35 -23.5 18.35L-23.6 18.5Q-24.65 19.65 -26.7 19.65Q-28.65 19.65 -29.7 18.5Q-30.9 17.5 -30.9 15.45L-30.9 0.25Q-30.9 -1.7 -29.7 -2.75Q-28.65 -3.95 -26.7 -3.95Q-24.85 -3.95 -23.8 -3.1L-23.5 -3.25L-23.45 -3.3Q-21.45 -4.15 -19.3 -4.15Q-16.65 -4.15 -15.25 -3.3L-13.75 -2.15L-13.2 -2.75Q-12.15 -3.95 -10.2 -3.95Q-8.35 -3.95 -7.3 -3.1L-7 -3.25L-6.95 -3.3Q-4.95 -4.15 -2.8 -4.15Q-0.15 -4.15 1.25 -3.3Q3.75 -1.9 3.55 0.25L3.55 0.4Q4.85 -1.4 6.85 -2.55Q9.5 -4.1 12.85 -4.1Q16.2 -4.1 18.65 -2.6L18.7 -2.55Q21.15 -1 22.55 1.65L22.55 1.75L23.15 3.15L23.75 1.85L23.8 1.8Q25.25 -0.95 27.95 -2.55M86.6,-11.65L92.9 -6.45Q93.7 -5.8 93.8 -4.75Q93.9 -3.75 93.2 -2.9L75.45 18.1Q74.95 18.65 74.25 18.85Q73.55 19.05 72.85 18.85Q72.1 18.65 71.65 18.05L62.35 7Q61.7 6.25 61.75 5.25Q61.8 4.25 62.55 3.6L66.45 -0.1Q66.95 -0.6 67.7 -0.75L69.05 -0.6L70.15 0.2L73.15 4.25L82.9 -11.1L83.95 -12L85.3 -12.2Q86.05 -12.15 86.6 -11.65M13.35,11.85L14.8 11.6L14.9 11.55L11.6 11.55L13.35 11.85M-69,-3Q-70.7 -1.95 -71.7 -0.15Q-72.7 1.7 -72.7 3.85Q-72.7 6.05 -71.7 7.9Q-70.7 9.65 -69 10.75Q-67.4 11.75 -65.5 11.75Q-63.05 11.7 -60.75 10L-60.6 9.95Q-59.3 9.05 -58.1 9.1Q-56.3 9.1 -55.15 10.4Q-54.15 11.4 -54.15 13.3Q-54.1 15 -55.4 16.35L-55.6 16.5Q-59.95 20 -65.5 20Q-69.85 20 -73.4 17.85Q-77 15.7 -79.05 12Q-81.15 8.3 -81.15 3.85Q-81.15 -0.55 -79.05 -4.2Q-77 -7.9 -73.4 -10.05L-73.45 -10Q-69.85 -12.25 -65.5 -12.25Q-62.45 -12.25 -60.25 -11.4L-60.15 -11.4Q-57.9 -10.6 -55.6 -8.7L-55.7 -8.8Q-54.75 -8.1 -54.4 -7.3L-54.25 -6.85L-54.05 -5.45Q-54.05 -3.65 -55.2 -2.5L-55.3 -2.45Q-56.55 -1.35 -58.15 -1.35Q-59.65 -1.35 -60.9 -2.35L-60.95 -2.4Q-62 -3.25 -62.9 -3.7L-65.5 -4.05Q-67.4 -4.05 -69 -3.05L-69 -3M-49,-2.55Q-46.35 -4.1 -42.9 -4.1Q-39.5 -4.1 -36.85 -2.55Q-34.1 -0.95 -32.55 1.7L-32.55 1.75Q-31.05 4.4 -31.05 7.85Q-31.05 11.3 -32.55 14Q-34.15 16.75 -36.85 18.25L-36.8 18.2Q-39.5 19.8 -42.9 19.8Q-46.35 19.8 -49.05 18.2L-49 18.25Q-51.7 16.75 -53.25 14Q-54.8 11.3 -54.8 7.85Q-54.8 4.4 -53.25 1.75L-53.25 1.7Q-51.75 -0.95 -49.05 -2.55L-49 -2.55M-39.85,5.7Q-40.3 4.9 -41.05 4.5L-41.05 4.45Q-41.85 4 -42.9 4Q-43.95 4 -44.7 4.45L-44.75 4.5Q-45.5 4.9 -45.9 5.7L-45.95 5.75Q-46.45 6.7 -46.45 7.85Q-46.45 9 -45.95 9.95L-45.9 10Q-45.5 10.8 -44.75 11.25L-44.65 11.3L-42.9 11.75Q-41.9 11.75 -41.1 11.3L-41.05 11.25Q-40.3 10.8 -39.85 10Q-39.4 9.05 -39.4 7.85Q-39.4 6.65 -39.85 5.7" />
<path style="fill:#87E7B0;fill-opacity:1" d="M34.15,17.3Q31.45 17.3 29.3 16.05Q27.15 14.85 25.95 12.7Q24.75 10.55 24.75 7.85Q24.75 5.15 25.95 3Q27.1 0.85 29.2 -0.4Q31.3 -1.6 33.95 -1.6Q38 -1.6 40.65 1.5Q41 1.85 41 2.35Q41 3.1 40.25 3.6L39.45 3.85Q38.65 3.85 38.1 3.25Q37.3 2.3 36.25 1.9L33.95 1.5Q31.35 1.5 29.7 3.2Q28.1 5 28.1 7.85Q28.1 9.7 28.85 11.15Q29.6 12.6 31 13.4Q32.4 14.25 34.15 14.25Q36.45 14.25 37.9 13.05Q38.5 12.55 39.15 12.55Q39.6 12.55 40.05 12.85Q40.65 13.4 40.65 14.1Q40.65 14.6 40.25 15Q37.8 17.3 34.15 17.3M21.3,7.55Q21.3 8.2 20.85 8.65Q20.45 9.05 19.75 9.05L6.8 9.05Q7.2 11.45 8.95 12.9Q10.75 14.35 13.35 14.35L15.5 14L17.3 13.05Q17.75 12.7 18.4 12.7Q19.05 12.7 19.45 13.05Q20.05 13.55 20.05 14.2Q20.05 14.8 19.5 15.2Q18.35 16.15 16.6 16.7Q14.9 17.3 13.35 17.3Q10.55 17.3 8.35 16.05Q6.15 14.9 4.9 12.75Q3.65 10.6 3.65 7.85Q3.65 5.15 4.85 3Q6 0.85 8.1 -0.4Q10.2 -1.6 12.85 -1.6Q15.45 -1.6 17.35 -0.45Q19.25 0.75 20.3 2.8Q21.3 4.9 21.3 7.55M54.1,13.75Q54.7 13.75 55.1 14.25Q55.55 14.7 55.55 15.45Q55.55 16.2 55 16.65Q54.4 17.15 53.55 17.15L52.95 17.15Q51.25 17.15 49.9 16.3Q48.5 15.4 47.75 13.9Q46.95 12.4 46.95 10.55L46.95 2.15L45.35 2.15Q44.65 2.15 44.25 1.75Q43.8 1.35 43.8 0.75Q43.8 0.05 44.25 -0.35Q44.65 -0.75 45.35 -0.75L46.95 -0.75L46.95 -5.65Q46.95 -6.4 47.4 -6.9Q47.9 -7.35 48.65 -7.35Q49.4 -7.35 49.85 -6.9Q50.35 -6.4 50.35 -5.65L50.35 -0.75L53.25 -0.75Q53.95 -0.75 54.4 -0.35Q54.85 0.05 54.85 0.75Q54.85 1.35 54.4 1.75Q53.95 2.15 53.25 2.15L50.35 2.15L50.35 10.55Q50.35 11.9 51.1 12.85Q51.85 13.75 52.95 13.75L54.1 13.75M12.85,1.35Q10.35 1.35 8.8 2.7Q7.25 4.05 6.85 6.35L18.15 6.35Q17.85 4.05 16.45 2.7Q15.1 1.35 12.85 1.35M-2.8,-1.65Q-0.95 -1.65 0.05 -1.1Q1.05 -0.55 1.05 0.25L1.05 0.6Q0.7 1.7 -0.3 1.7L-0.85 1.6L-3.05 1.4Q-5.5 1.4 -7 2.5Q-8.5 3.6 -8.5 5.55L-8.5 15.45Q-8.5 16.25 -8.9 16.7Q-9.35 17.15 -10.2 17.15Q-11 17.15 -11.45 16.7Q-11.9 16.3 -11.9 15.45L-11.9 0.25Q-11.9 -0.55 -11.45 -1Q-11 -1.45 -10.2 -1.45Q-8.5 -1.45 -8.5 0.25L-8.5 0.9L-5.95 -1Q-4.45 -1.65 -2.8 -1.65M-65.5,17.5Q-69.15 17.5 -72.15 15.7Q-75.15 13.9 -76.9 10.75Q-78.65 7.65 -78.65 3.85Q-78.65 0.1 -76.9 -3Q-75.15 -6.1 -72.15 -7.9Q-69.15 -9.75 -65.5 -9.75Q-62.9 -9.75 -61.05 -9.05Q-59.15 -8.4 -57.2 -6.8L-56.65 -6.2L-56.55 -5.45Q-56.55 -4.75 -57 -4.3Q-57.5 -3.85 -58.15 -3.85Q-58.8 -3.85 -59.35 -4.3Q-60.75 -5.5 -62.05 -6.05L-65.5 -6.55Q-68.15 -6.55 -70.35 -5.15Q-72.6 -3.75 -73.9 -1.35Q-75.2 1.05 -75.2 3.85Q-75.2 6.7 -73.9 9.1Q-72.6 11.45 -70.35 12.85Q-68.15 14.25 -65.5 14.25Q-62.25 14.25 -59.25 12Q-58.65 11.6 -58.1 11.6Q-57.45 11.6 -57.05 12.05Q-56.65 12.5 -56.65 13.3Q-56.65 14 -57.2 14.55Q-60.85 17.5 -65.5 17.5M-42.9,17.3Q-45.65 17.3 -47.8 16.05Q-49.9 14.9 -51.1 12.75Q-52.3 10.6 -52.3 7.85Q-52.3 5.1 -51.1 2.95Q-49.9 0.85 -47.8 -0.4Q-45.65 -1.6 -42.9 -1.6Q-40.2 -1.6 -38.1 -0.4Q-35.95 0.85 -34.75 2.95Q-33.55 5.1 -33.55 7.85Q-33.55 10.6 -34.75 12.75Q-35.95 14.9 -38.05 16.05Q-40.2 17.3 -42.9 17.3M-19.3,-1.65Q-17.45 -1.65 -16.45 -1.1Q-15.45 -0.55 -15.45 0.25L-15.45 0.6Q-15.8 1.7 -16.8 1.7L-17.35 1.6L-19.55 1.4Q-22 1.4 -23.5 2.5Q-25 3.6 -25 5.55L-25 15.45Q-25 16.25 -25.4 16.7Q-25.85 17.15 -26.7 17.15Q-27.5 17.15 -27.95 16.7Q-28.4 16.3 -28.4 15.45L-28.4 0.25Q-28.4 -0.55 -27.95 -1Q-27.5 -1.45 -26.7 -1.45Q-25 -1.45 -25 0.25L-25 0.9Q-23.95 -0.3 -22.45 -1L-19.3 -1.65M-42.9,14.25Q-41.15 14.25 -39.8 13.4Q-38.4 12.6 -37.65 11.15Q-36.9 9.7 -36.9 7.85Q-36.9 6.05 -37.65 4.55Q-38.4 3.1 -39.8 2.3Q-41.15 1.5 -42.9 1.5Q-44.65 1.5 -46 2.3Q-47.4 3.1 -48.15 4.55Q-48.95 6.05 -48.95 7.85Q-48.95 9.7 -48.15 11.15Q-47.4 12.6 -46 13.4Q-44.65 14.25 -42.9 14.25" />
<path style="fill:#59D48C;fill-opacity:1" d="M64.25,5.4L68.15 1.7L73.3 8.65L85 -9.75L91.3 -4.55L73.55 16.45L64.25 5.4" />
</g>
</svg>
