<?xml version="1.0" encoding="utf-8"?>
<svg version="1.1" id="Layer_1"
xmlns="http://www.w3.org/2000/svg"
xmlns:xlink="http://www.w3.org/1999/xlink"
xmlns:author="http://www.sothink.com"
width="105px" height="91px"
xml:space="preserve">
<g id="9304" transform="matrix(1, 0, 0, 1, 49.65, 26.45)">
<path style="fill:#D7F0F5;fill-opacity:1" d="M24,2.2L23.4 1.85L24 1.65L24 2.2" />
<path style="fill:#A4B7BB;fill-opacity:1" d="M-17.95,-0.25L-17.4 -0.05L-17.95 0.1L-17.95 -0.25" />
<path style="fill:#C6C6C6;fill-opacity:1" d="M39.9,-4L54.55 -9.2L54.55 42.15L39.8 48.5L39.9 -4M23.95,55.4L5.5 63.45L5.15 8.3L23.4 1.85L24 2.2L23.95 55.4" />
<path style="fill:#E0E0E0;fill-opacity:1" d="M39.8,48.5L23.95 55.4L24 2.2L24 1.65L39.9 -4L39.8 48.5" />
<path style="fill:#A3ABB6;fill-opacity:1" d="M24,1.65L23.4 1.85L20.3 0L35.9 -5.3L39.9 -4L24 1.65M-33.85,-6.2L-33.55 -6.1L-29.25 -7.35L-13.25 -1.55L-17.4 -0.05L-17.95 -0.25L-17.95 0.1L-18.1 39.3L-18.65 53.2L-33.85 46.9L-33.85 -6.2" />
<path style="fill:#4F5358;fill-opacity:1" d="M-29.25,-7.35L-40.55 -11.4L5.15 -23.55L47.85 -9.4L35.9 -5.3L20.3 0L5.25 5.1L-13.25 -1.55L-29.25 -7.35" />
<path style="fill:#9C9C9C;fill-opacity:1" d="M-33.85,46.9L-49.15 40.5L-49.15 -11.95L4.5 -25.95L54.55 -9.2L39.9 -4L35.9 -5.3L47.85 -9.4L5.15 -23.55L-40.55 -11.4L-29.25 -7.35L-33.55 -6.1L-33.85 -6.2L-33.85 46.9M-18.1,39.3L-17.95 0.1L-17.4 -0.05L-13.25 -1.55L5.25 5.1L20.3 0L23.4 1.85L5.15 8.3L5.5 63.45L-18.65 53.2L-18.1 39.3" />
<path style="fill:none;stroke-width:1;stroke-linecap:round;stroke-linejoin:round;stroke-miterlimit:3;stroke:#000000;stroke-opacity:1" d="M39.9,-4L35.9 -5.3L20.3 0L23.4 1.85L24 1.65L39.9 -4L54.55 -9.2L4.5 -25.95L-49.15 -11.95L-33.85 -6.2L-33.55 -6.1L-29.25 -7.35L-40.55 -11.4L5.15 -23.55L47.85 -9.4L35.9 -5.3M20.3,0L5.25 5.1L-13.25 -1.55L-17.4 -0.05L5.15 8.3L23.4 1.85L24 2.2L24 1.65M54.55,-9.2L54.55 42.15L39.8 48.5L23.95 55.4L5.5 63.45L-18.65 53.2L-33.85 46.9L-49.15 40.5L-49.15 -11.95M23.95,55.4L24 2.2M39.9,-4L39.8 48.5M-33.55,-6.1L-17.95 -0.25L-17.4 -0.05L-17.95 0.1L-18.1 39.3L-18.65 53.2M-13.25,-1.55L-29.25 -7.35M-17.95,-0.25L-17.95 0.1M-33.85,-6.2L-33.85 46.9" />
</g>
</svg>
