<?xml version="1.0" encoding="UTF-8" standalone="no"?>
<svg xmlns:ffdec="https://www.free-decompiler.com/flash" xmlns:xlink="http://www.w3.org/1999/xlink" ffdec:objectType="shape" height="58.9px" width="85.8px" xmlns="http://www.w3.org/2000/svg">
  <g transform="matrix(1.0, 0.0, 0.0, 1.0, 42.85, 45.4)">
    <path d="M-10.3 -42.6 Q-21.95 -39.35 -30.5 -30.4 -39.3 -20.75 -41.15 -7.0 -42.2 2.7 -37.1 12.0 -37.1 -3.0 -30.4 -12.3 -23.7 -18.25 -12.3 -20.55 -6.15 -21.8 0.05 -21.8 6.25 -21.8 12.4 -20.55 23.8 -18.25 30.5 -12.3 37.2 -3.0 37.2 12.0 42.3 2.7 41.25 -7.0 39.4 -20.75 30.6 -30.4 22.05 -39.35 10.4 -42.6 5.4 -44.05 0.1 -43.9 L0.0 -43.9 Q-5.3 -44.05 -10.3 -42.6 Z" fill="none" stroke="#000000" stroke-linecap="round" stroke-linejoin="round" stroke-width="3.0"/>
  </g>
</svg>
