<?xml version="1.0" encoding="UTF-8" standalone="no"?>
<svg xmlns:ffdec="https://www.free-decompiler.com/flash" xmlns:xlink="http://www.w3.org/1999/xlink" ffdec:objectType="shape" height="100.55px" width="114.65px" xmlns="http://www.w3.org/2000/svg">
  <g transform="matrix(1.0, 0.0, 0.0, 1.0, 57.75, 50.45)">
    <path d="M5.8 2.0 Q3.95 9.4 -3.6 14.85 -2.3 11.85 -1.75 8.6 -9.15 5.5 -11.2 -5.85 -11.8 2.25 -10.05 7.95 -17.9 0.6 -17.3 -9.9 -20.4 4.4 -34.5 9.85 -36.05 -1.05 -33.1 -15.3 -35.35 1.1 -30.55 2.9 -22.35 -3.45 -15.45 -18.95 L-12.95 -25.05 -12.9 -25.15 Q-17.15 -13.3 -6.1 -0.95 -5.35 -8.25 -7.45 -19.85 0.3 -10.0 1.7 -0.15 6.2 -7.65 4.6 -13.55 10.65 -8.1 10.55 -0.95 14.8 -10.75 9.8 -24.85 14.4 -19.0 15.3 -12.05 18.95 -1.1 32.35 3.6 L32.95 3.55 Q25.8 -3.35 24.4 -15.1 22.6 -24.75 24.4 -27.7 41.0 -3.5 32.3 20.35 L30.3 21.9 Q31.65 13.4 30.3 3.75 18.9 4.1 15.35 -5.75 13.5 5.7 5.15 13.2 6.4 8.8 5.8 2.0 M47.35 7.35 Q44.9 4.2 41.45 5.5 42.5 1.4 42.65 -3.35 60.85 6.5 55.8 21.9 L55.25 22.4 Q56.0 14.05 49.1 5.8 L49.0 5.65 47.95 8.45 47.35 7.35 M47.55 18.8 L47.6 18.75 47.6 18.85 48.3 20.6 Q50.25 24.6 55.7 26.75 50.6 30.35 44.55 27.95 35.55 32.55 32.2 42.25 30.75 38.7 27.4 36.4 25.25 40.1 27.7 45.55 15.85 45.95 12.8 40.9 12.05 46.7 4.55 50.1 3.7 46.15 -1.4 41.95 6.7 42.1 15.05 40.4 33.65 35.9 35.9 26.5 44.35 26.35 47.55 18.8 M-46.75 23.15 Q-51.3 27.95 -57.75 26.75 -49.55 19.95 -48.2 17.1 -45.6 25.85 -35.85 26.95 -31.65 36.55 -14.9 40.25 -9.1 41.55 -3.2 41.85 -4.8 45.15 -3.45 48.45 -16.1 48.75 -18.05 40.75 -20.95 44.05 -27.65 46.05 -26.5 38.9 -33.85 31.75 L-32.95 39.55 Q-46.8 36.05 -46.75 23.15 M-0.2 -50.45 L-0.2 -43.35 Q-6.15 -30.7 1.2 -20.55 -12.2 -32.55 -0.2 -50.45" fill="#a684e0" fill-rule="evenodd" stroke="none"/>
  </g>
</svg>
