<?xml version="1.0" encoding="UTF-8" standalone="no"?>
<svg xmlns:ffdec="https://www.free-decompiler.com/flash" xmlns:xlink="http://www.w3.org/1999/xlink" ffdec:objectType="shape" height="82.55px" width="82.8px" xmlns="http://www.w3.org/2000/svg">
  <g transform="matrix(1.0, 0.0, 0.0, 1.0, 40.4, 34.6)">
    <path d="M-38.75 6.2 L-40.4 5.4 Q-31.35 2.8 -21.15 -5.4 -13.7 -12.65 -9.55 -21.85 -7.45 -26.65 -6.2 -31.9 L-4.45 -34.6 Q-11.3 -17.9 -4.45 -2.05 -5.8 -8.9 -2.3 -15.75 -1.7 -5.8 10.85 -2.35 8.65 -12.15 10.6 -24.3 20.75 -0.45 42.4 5.25 41.45 5.4 40.45 5.95 20.45 5.9 12.9 -12.6 14.15 -1.35 20.1 3.8 2.05 6.45 -1.65 -7.1 -2.15 1.2 -0.45 7.95 -9.7 2.15 -10.15 -12.1 L-10.15 -14.2 -10.1 -16.5 Q-18.75 4.75 -38.75 6.2 M-14.9 40.25 Q-0.3 43.5 15.05 40.4 33.65 35.9 35.9 26.5 33.9 37.25 35.4 47.95 L-34.45 47.95 Q-33.3 39.4 -35.25 28.15 -30.55 36.8 -14.9 40.25" fill="#a684e0" fill-rule="evenodd" stroke="none"/>
  </g>
</svg>
