<?xml version="1.0" encoding="UTF-8" standalone="no"?>
<svg xmlns:ffdec="https://www.free-decompiler.com/flash" xmlns:xlink="http://www.w3.org/1999/xlink" ffdec:objectType="shape" height="57.85px" width="98.8px" xmlns="http://www.w3.org/2000/svg">
  <g transform="matrix(1.0, 0.0, 0.0, 1.0, 49.1, 11.8)">
    <path d="M28.05 2.75 L18.45 2.45 18.15 -3.6 27.95 -3.6 28.05 2.75 M31.35 42.65 Q36.25 34.75 38.85 26.2 45.3 24.9 47.85 18.05 49.8 11.9 47.35 7.35 45.0 4.35 41.8 5.4 42.0 -3.15 40.85 -11.4 57.0 10.9 43.75 41.35 L42.4 41.45 Q42.7 35.9 41.1 29.9 40.95 35.45 38.6 41.5 L31.35 42.65 M14.3 3.25 L0.1 3.7 -14.1 3.25 -14.85 -3.6 15.1 -3.6 14.3 3.25 M0.6 41.95 Q7.75 41.9 15.05 40.4 22.2 38.65 26.95 36.25 L25.8 43.45 Q15.6 45.4 1.75 46.05 L0.6 41.95 M-18.25 2.45 L-27.85 2.75 -27.7 -3.6 -17.95 -3.6 -18.25 2.45 M-42.2 41.45 Q-56.75 16.7 -40.55 -11.8 -41.75 -3.5 -41.55 5.05 -43.55 4.65 -45.6 5.45 -49.35 8.05 -48.65 15.35 -46.8 24.35 -38.55 26.45 -36.0 34.85 -31.15 42.65 L-38.4 41.5 Q-40.75 35.45 -40.9 29.9 -42.5 35.9 -42.2 41.45 M-26.7 36.1 Q-21.9 38.7 -14.9 40.25 -7.75 41.85 -0.35 41.95 L-1.55 46.05 Q-15.4 45.4 -25.6 43.45 L-26.7 36.1" fill="#a684e0" fill-rule="evenodd" stroke="none"/>
  </g>
</svg>
