<?xml version="1.0" encoding="UTF-8" standalone="no"?>
<svg xmlns:ffdec="https://www.free-decompiler.com/flash" xmlns:xlink="http://www.w3.org/1999/xlink" ffdec:objectType="shape" height="55.05px" width="93.9px" xmlns="http://www.w3.org/2000/svg">
  <g transform="matrix(1.0, 0.0, 0.0, 1.0, 48.3, 35.15)">
    <path d="M40.65 -12.85 L38.65 -21.75 Q49.6 -7.8 43.35 5.65 L41.4 5.9 Q43.5 -3.35 40.65 -12.85 M4.4 -16.2 Q0.15 -18.0 -4.45 -17.85 L-4.8 -17.85 Q-10.15 -17.65 -15.95 -14.9 -17.25 -10.0 -18.2 -4.1 -20.25 8.85 -15.4 12.3 -28.3 11.6 -27.25 0.85 -30.7 7.8 -27.35 11.35 L-28.45 11.4 Q-36.15 9.45 -26.15 -10.5 -25.7 -0.55 -22.7 5.55 -21.15 -17.0 -13.55 -30.75 L-4.0 -19.85 -1.5 -35.15 Q6.3 -26.7 9.4 -14.35 13.3 1.45 4.15 15.1 L1.4 15.55 Q8.05 9.9 6.6 -2.8 5.9 -10.3 4.4 -16.2 M17.05 1.85 L17.25 -1.25 17.25 -9.55 Q27.7 1.65 14.85 16.7 L13.55 16.65 Q17.45 12.95 17.05 1.85 M27.4 19.9 Q30.55 14.05 30.35 6.95 L31.0 -4.55 Q36.55 5.3 29.2 19.25 L27.4 19.9 M-48.15 10.8 Q-49.4 2.05 -40.4 -9.25 -42.35 0.55 -39.95 5.65 -46.9 3.7 -48.15 10.8" fill="#a684e0" fill-rule="evenodd" stroke="none"/>
  </g>
</svg>
