<?xml version="1.0" encoding="UTF-8" standalone="no"?>
<svg xmlns:ffdec="https://www.free-decompiler.com/flash" xmlns:xlink="http://www.w3.org/1999/xlink" ffdec:objectType="shape" height="90.9px" width="98.25px" xmlns="http://www.w3.org/2000/svg">
  <g transform="matrix(1.0, 0.0, 0.0, 1.0, 48.75, 29.75)">
    <path d="M-13.1 -9.8 Q-16.45 4.65 -32.1 8.8 L-32.0 6.65 -31.95 4.2 Q-20.9 4.2 -11.6 -18.95 L-8.1 -28.8 Q-13.15 -7.95 -6.9 2.15 -7.6 -2.65 -5.9 -7.9 -4.2 5.9 14.05 11.65 6.5 11.35 0.65 8.45 L-0.85 7.65 -3.1 6.2 Q-3.2 11.85 -2.4 14.5 -12.65 7.85 -13.25 -7.4 L-13.1 -9.8 M0.65 60.85 L-0.05 60.85 -0.85 60.85 Q-10.6 60.4 -15.35 54.15 -15.65 59.25 -11.8 61.15 -22.05 61.25 -29.7 58.95 -43.5 48.8 -46.75 36.65 -54.15 -5.3 -34.35 -27.85 -39.65 -10.5 -39.75 5.65 L-39.75 6.55 Q-42.35 4.15 -45.15 5.95 -47.95 7.7 -48.6 12.95 L-48.7 14.6 Q-48.7 18.05 -46.5 20.9 -43.65 25.5 -37.5 26.7 -35.2 36.85 -30.95 46.0 -31.65 39.3 -31.95 32.4 -26.4 37.7 -14.9 40.25 -0.3 43.5 15.05 40.4 26.5 37.65 31.75 33.0 L30.75 46.0 Q35.05 36.7 37.4 26.4 L37.5 25.95 Q42.9 24.65 45.4 21.95 L47.2 19.65 Q48.25 17.75 48.5 15.6 L48.4 12.95 Q47.75 7.7 44.95 5.95 43.75 5.2 42.6 5.2 41.45 5.2 40.4 5.9 L39.55 6.55 Q39.6 -10.4 33.9 -28.65 48.85 -2.95 49.5 14.85 47.85 45.25 30.65 58.6 22.6 61.25 11.6 61.15 15.45 59.25 15.15 54.15 10.4 60.45 0.65 60.85 M10.0 -22.6 Q11.7 -1.6 31.8 5.95 L31.8 6.65 31.9 8.8 31.95 9.35 Q14.95 7.85 8.65 -11.4 8.9 -16.55 10.0 -22.6 M29.75 -14.2 Q25.65 -20.05 18.4 -24.8 19.25 -27.2 22.85 -29.75 27.5 -23.85 29.75 -14.2 M-29.95 -14.2 Q-27.7 -23.85 -23.05 -29.75 -19.45 -27.2 -18.6 -24.8 -25.85 -20.05 -29.95 -14.2" fill="#a684e0" fill-rule="evenodd" stroke="none"/>
  </g>
</svg>
