<?xml version="1.0" encoding="UTF-8" standalone="no"?>
<svg xmlns:ffdec="https://www.free-decompiler.com/flash" xmlns:xlink="http://www.w3.org/1999/xlink" ffdec:objectType="shape" height="60.6px" width="85.6px" xmlns="http://www.w3.org/2000/svg">
  <g transform="matrix(1.0, 0.0, 0.0, 1.0, 43.05, 54.3)">
    <path d="M-42.45 6.3 L-43.05 5.0 -42.95 4.95 Q-14.85 4.1 -0.2 -28.95 12.25 0.0 42.55 5.0 L41.95 6.3 Q22.25 6.05 11.25 -4.55 2.2 -13.25 -0.25 -22.7 -2.7 -13.25 -11.75 -4.55 -22.75 6.05 -42.45 6.3 M22.25 -40.7 L21.25 -41.3 Q9.95 -47.15 -0.25 -46.8 -10.45 -47.15 -21.75 -41.3 L-22.75 -40.7 Q-28.55 -43.6 -29.45 -50.55 -29.5 -52.5 -28.75 -54.3 -1.9 -41.6 28.3 -54.3 29.0 -52.5 28.95 -50.55 28.05 -43.6 22.25 -40.7" fill="#a684e0" fill-rule="evenodd" stroke="none"/>
  </g>
</svg>
