<?xml version="1.0" encoding="UTF-8" standalone="no"?>
<svg xmlns:ffdec="https://www.free-decompiler.com/flash" xmlns:xlink="http://www.w3.org/1999/xlink" ffdec:objectType="shape" height="75.5px" width="131.85px" xmlns="http://www.w3.org/2000/svg">
  <g transform="matrix(1.0, 0.0, 0.0, 1.0, 66.8, 40.65)">
    <path d="M20.55 -6.8 Q21.1 -11.5 20.55 -17.1 23.1 -5.7 34.6 2.35 30.7 -7.95 35.2 -17.75 38.3 0.95 44.95 5.5 43.0 4.8 40.5 6.05 L40.2 6.2 42.15 8.6 Q24.5 8.45 20.55 -6.8 M-21.25 -30.0 Q-20.05 -24.55 -19.8 -19.85 -18.95 -2.65 -31.2 4.0 L-32.0 1.7 Q-19.65 -8.0 -24.05 -35.7 L-16.6 -29.95 -14.7 -40.65 Q3.55 -18.45 -5.1 9.6 2.9 4.7 3.3 -10.45 9.65 4.85 1.5 15.65 L-0.1 16.15 Q3.25 10.0 3.4 1.55 1.7 11.55 -9.95 14.3 -3.5 1.85 -6.35 -16.35 -6.7 -18.8 -7.3 -21.1 -9.1 -27.9 -13.35 -33.4 -13.75 -29.7 -16.6 -26.0 L-21.25 -30.0 M30.7 33.85 Q34.9 30.65 35.9 26.5 44.8 26.35 47.85 18.05 49.15 13.9 48.5 10.5 55.75 15.4 65.05 10.5 58.95 18.6 49.05 19.2 50.85 21.25 56.15 23.3 45.75 33.15 30.7 33.85 M-38.9 9.75 Q-40.95 7.75 -42.2 4.95 -43.9 4.8 -45.6 5.45 -47.25 6.6 -48.05 8.7 -48.4 -2.7 -45.25 -15.45 L-44.15 -9.45 -44.05 -9.0 Q-40.55 6.0 -22.1 15.1 -33.75 15.5 -38.9 9.75 M-29.05 34.7 Q-44.65 35.8 -51.4 28.7 -47.05 26.45 -45.8 22.95 -61.3 18.1 -66.8 7.25 L-65.85 7.0 Q-62.05 14.8 -48.75 13.2 L-48.65 15.35 Q-46.55 25.7 -35.85 26.95 -33.85 31.5 -29.05 34.7" fill="#a684e0" fill-rule="evenodd" stroke="none"/>
  </g>
</svg>
