<?xml version="1.0" encoding="UTF-8" standalone="no"?>
<svg xmlns:ffdec="https://www.free-decompiler.com/flash" xmlns:xlink="http://www.w3.org/1999/xlink" ffdec:objectType="shape" height="105.85px" width="142.8px" xmlns="http://www.w3.org/2000/svg">
  <g transform="matrix(1.0, 0.0, 0.0, 1.0, 71.55, 51.85)">
    <path d="M13.4 -25.75 Q15.9 -15.9 15.55 -7.6 19.6 1.15 29.2 4.7 28.8 -11.6 24.0 -23.5 M37.65 8.05 Q36.75 21.9 34.6 29.7 31.95 37.7 27.0 45.15 42.2 40.55 44.65 33.8 41.2 31.35 40.4 25.8 M44.65 33.8 Q46.45 35.1 49.0 35.5 56.65 36.65 63.75 32.35 70.8 28.0 69.55 17.35 68.1 24.2 61.95 20.75 53.4 16.3 53.5 2.2 52.45 -20.0 39.45 -34.0 25.25 -50.75 -0.15 -50.35 -25.55 -50.75 -39.75 -34.0 -52.75 -20.0 -53.8 2.2 -53.7 16.3 -62.25 20.75 -68.4 24.2 -69.85 17.35 -71.1 28.0 -64.05 32.35 -56.95 36.65 -49.3 35.5 -46.75 35.1 -44.95 33.8 -41.5 31.35 -40.65 25.75 M-37.7 7.0 L-37.7 1.6 M37.65 8.05 L37.8 4.65 M29.2 4.7 L29.05 15.65 Q28.0 26.95 25.9 36.75 L23.75 45.2 21.4 52.5 Q24.5 48.9 27.0 45.15 M-26.25 36.35 L-24.05 45.2 Q-19.6 45.75 -16.85 42.25 -12.85 46.75 -0.15 47.4 12.55 46.75 16.55 42.25 19.3 45.75 23.75 45.2 M-13.7 -25.75 Q-16.2 -15.9 -15.85 -7.6 -15.55 0.4 -12.65 6.95 -8.4 5.2 -0.15 5.2 8.1 5.2 12.35 6.95 15.25 0.4 15.55 -7.6 M-35.45 27.8 Q-37.3 19.6 -37.7 9.75 L-37.7 7.0 M-15.85 -7.6 Q-19.9 1.15 -29.5 4.7 L-29.35 15.65 Q-28.35 26.7 -26.25 36.35 M-35.45 27.8 Q-32.85 36.85 -27.3 45.15 -24.8 48.9 -21.7 52.5 L-24.05 45.2 M-44.95 33.8 Q-42.5 40.55 -27.3 45.15 M-24.3 -23.5 Q-29.1 -11.6 -29.5 4.7" fill="none" stroke="#000000" stroke-linecap="round" stroke-linejoin="round" stroke-width="3.0"/>
    <path d="M34.6 29.7 Q35.5 28.15 35.9 26.5 L40.4 25.8 Q45.65 24.05 47.85 18.05 49.8 11.9 47.35 7.35 44.55 3.75 40.45 5.95 L37.65 8.05 M-40.65 25.75 Q-47.05 23.1 -48.65 15.35 -49.35 8.05 -45.6 5.45 -42.1 4.1 -37.7 7.0 M-26.25 36.35 Q-21.6 38.75 -14.9 40.25 -0.3 43.5 15.05 40.4 21.45 38.85 25.9 36.75 M-40.65 25.75 Q-38.55 26.65 -35.85 26.95 L-35.45 27.8" fill="none" stroke="#000000" stroke-linecap="round" stroke-linejoin="round" stroke-opacity="0.49803922" stroke-width="1.0"/>
  </g>
</svg>
