<?xml version="1.0" encoding="UTF-8" standalone="no"?>
<svg xmlns:ffdec="https://www.free-decompiler.com/flash" xmlns:xlink="http://www.w3.org/1999/xlink" ffdec:objectType="shape" height="22.15px" width="82.0px" xmlns="http://www.w3.org/2000/svg">
  <g transform="matrix(1.0, 0.0, 0.0, 1.0, 46.85, 32.9)">
    <path d="M24.9 -21.95 Q25.4 -20.25 25.1 -18.85 24.9 -17.4 24.05 -17.2 23.25 -16.95 22.3 -18.1 21.45 -19.2 20.95 -20.9 20.5 -22.65 20.7 -24.05 20.95 -25.45 21.75 -25.7 22.6 -25.9 23.5 -24.8 24.45 -23.7 24.9 -21.95 M28.85 -25.3 L29.3 -23.5 Q29.35 -22.6 28.9 -22.4 28.45 -22.2 27.8 -22.8 27.2 -23.35 26.75 -24.4 26.3 -25.4 26.3 -26.2 26.3 -27.05 26.75 -27.25 27.2 -27.45 27.8 -26.9 L28.85 -25.3 M34.3 -30.2 Q35.15 -28.7 35.15 -27.35 35.2 -25.95 34.4 -25.5 33.65 -25.05 32.5 -25.8 31.3 -26.5 30.45 -28.0 29.6 -29.45 29.55 -30.9 29.5 -32.25 30.25 -32.7 31.05 -33.15 32.2 -32.45 33.45 -31.65 34.3 -30.2 M13.3 -15.8 Q13.3 -13.85 12.55 -12.5 11.8 -11.1 10.75 -11.1 9.7 -11.1 8.95 -12.5 8.2 -13.85 8.2 -15.8 8.2 -17.75 8.95 -19.15 9.7 -20.5 10.75 -20.5 11.8 -20.5 12.55 -19.15 13.3 -17.75 13.3 -15.8 M6.15 -14.0 Q6.15 -13.1 5.7 -12.45 5.3 -11.8 4.7 -11.8 4.1 -11.8 3.65 -12.45 3.25 -13.1 3.25 -14.0 3.25 -14.9 3.65 -15.55 4.1 -16.2 4.7 -16.2 5.3 -16.2 5.7 -15.55 L6.15 -14.0 M-40.9 -21.35 Q-41.6 -19.6 -42.9 -18.45 -44.2 -17.25 -45.35 -17.4 -46.45 -17.55 -46.75 -18.95 -47.05 -20.3 -46.35 -22.05 -45.65 -23.85 -44.3 -25.05 -43.05 -26.2 -41.95 -26.05 -40.8 -25.9 -40.45 -24.55 -40.2 -23.15 -40.9 -21.35 M-26.95 -14.75 L-27.2 -13.55 Q-27.4 -13.05 -27.75 -13.05 -28.1 -13.05 -28.35 -13.55 L-28.55 -14.75 -28.35 -15.95 -27.75 -16.45 Q-27.4 -16.45 -27.2 -15.95 L-26.95 -14.75 M-30.4 -16.4 Q-30.65 -14.75 -31.35 -13.7 -32.05 -12.65 -32.8 -12.75 -33.55 -12.8 -33.95 -14.05 -34.35 -15.2 -34.1 -16.85 -33.9 -18.5 -33.2 -19.6 -32.5 -20.6 -31.75 -20.55 -31.0 -20.45 -30.6 -19.25 -30.2 -18.05 -30.4 -16.4 M-36.15 -17.8 Q-36.6 -16.55 -37.5 -15.75 -38.4 -14.95 -39.15 -15.05 -39.9 -15.15 -40.1 -16.1 -40.3 -17.05 -39.85 -18.3 -39.35 -19.5 -38.45 -20.35 -37.55 -21.1 -36.8 -21.0 -36.05 -20.9 -35.85 -20.0 -35.65 -19.0 -36.15 -17.8 M0.15 -14.55 Q0.15 -13.0 -0.45 -11.9 -1.0 -10.75 -1.8 -10.75 -2.6 -10.75 -3.2 -11.9 -3.75 -13.0 -3.75 -14.55 -3.75 -16.1 -3.2 -17.25 -2.6 -18.35 -1.8 -18.35 -1.0 -18.35 -0.45 -17.25 0.15 -16.1 0.15 -14.55" fill="#b6e3ff" fill-rule="evenodd" stroke="none"/>
  </g>
</svg>
