<?xml version="1.0" encoding="UTF-8" standalone="no"?>
<svg xmlns:ffdec="https://www.free-decompiler.com/flash" xmlns:xlink="http://www.w3.org/1999/xlink" ffdec:objectType="shape" height="20.85px" width="70.85px" xmlns="http://www.w3.org/2000/svg">
  <g transform="matrix(1.0, 0.0, 0.0, 1.0, 35.85, 40.1)">
    <path d="M33.7 -32.3 Q34.7 -30.95 34.95 -29.75 35.15 -28.45 34.5 -28.0 33.85 -27.5 32.75 -28.15 31.65 -28.7 30.65 -30.05 29.7 -31.35 29.4 -32.65 29.15 -33.85 29.8 -34.35 L31.6 -34.25 Q32.75 -33.6 33.7 -32.3 M24.65 -25.3 Q25.0 -24.5 24.85 -23.8 24.75 -23.05 24.25 -22.85 23.75 -22.65 23.1 -23.15 22.6 -23.55 22.25 -24.35 21.9 -25.2 22.0 -25.95 22.15 -26.65 22.65 -26.85 23.15 -27.05 23.75 -26.6 24.3 -26.15 24.65 -25.3 M29.15 -28.1 Q29.7 -27.15 29.7 -26.2 29.7 -25.3 29.15 -24.95 28.6 -24.65 27.8 -25.1 27.0 -25.6 26.45 -26.55 25.9 -27.5 25.9 -28.4 25.9 -29.35 26.45 -29.65 L27.8 -29.5 29.15 -28.1 M15.95 -21.9 L15.65 -20.95 15.1 -20.55 14.45 -20.95 14.25 -21.9 14.45 -22.85 15.1 -23.25 Q15.45 -23.25 15.65 -22.85 L15.95 -21.9 M12.05 -21.5 Q12.05 -20.55 11.65 -19.9 11.25 -19.25 10.65 -19.25 10.05 -19.25 9.65 -19.9 9.25 -20.55 9.25 -21.5 9.25 -22.45 9.65 -23.1 L10.65 -23.75 Q11.25 -23.75 11.65 -23.1 12.05 -22.45 12.05 -21.5 M-16.75 -25.35 Q-17.15 -24.6 -17.8 -24.3 L-18.8 -24.2 Q-19.25 -24.45 -19.3 -25.15 -19.3 -25.85 -18.9 -26.6 L-17.85 -27.65 Q-17.25 -27.9 -16.8 -27.65 -16.4 -27.4 -16.35 -26.8 -16.3 -26.05 -16.75 -25.35 M-30.35 -35.75 Q-31.85 -34.75 -33.4 -34.5 -34.9 -34.25 -35.55 -34.9 -36.15 -35.55 -35.6 -36.7 -34.95 -37.85 -33.45 -38.85 -31.95 -39.8 -30.45 -40.05 -28.9 -40.3 -28.3 -39.65 -27.65 -39.0 -28.25 -37.85 -28.85 -36.7 -30.35 -35.75 M-20.3 -28.9 Q-21.1 -27.55 -22.35 -26.7 -23.6 -25.9 -24.45 -26.05 -25.4 -26.25 -25.4 -27.35 -25.4 -28.45 -24.55 -29.75 -23.7 -31.1 -22.45 -31.9 -21.25 -32.75 -20.3 -32.55 -19.45 -32.4 -19.4 -31.3 -19.5 -30.25 -20.3 -28.9 M-27.65 -31.1 Q-28.25 -30.5 -28.95 -30.25 -29.65 -30.0 -30.05 -30.25 -30.5 -30.5 -30.4 -31.1 L-29.65 -32.25 -28.45 -33.1 -27.3 -33.05 Q-26.9 -32.8 -27.0 -32.25 -27.1 -31.7 -27.65 -31.1" fill="#b6e3ff" fill-rule="evenodd" stroke="none"/>
  </g>
</svg>
