<?xml version="1.0" encoding="UTF-8" standalone="no"?>
<svg xmlns:ffdec="https://www.free-decompiler.com/flash" xmlns:xlink="http://www.w3.org/1999/xlink" ffdec:objectType="shape" height="105.85px" width="132.4px" xmlns="http://www.w3.org/2000/svg">
  <g transform="matrix(1.0, 0.0, 0.0, 1.0, 67.2, 55.75)">
    <path d="M47.95 -4.5 Q55.7 -0.1 58.65 6.55 62.6 15.6 55.25 22.4 56.0 14.05 49.1 5.8 L49.0 5.65 47.95 8.45 47.35 7.35 Q44.9 4.2 41.45 5.5 38.8 15.75 30.3 21.9 31.65 13.4 30.3 3.75 18.9 4.1 15.35 -5.75 13.5 5.7 5.15 13.2 6.4 8.8 5.8 2.0 3.95 9.4 -3.6 14.85 -2.3 11.85 -1.75 8.6 -9.15 5.5 -11.2 -5.85 -11.8 2.25 -10.05 7.95 -17.9 0.6 -17.3 -9.9 -20.4 4.4 -34.5 9.85 -33.7 15.95 -31.45 21.0 -41.7 15.55 -44.55 5.15 L-45.6 5.45 Q-49.35 8.05 -48.65 15.35 -46.55 25.7 -35.85 26.95 -31.65 36.55 -14.9 40.25 -9.1 41.55 -3.2 41.85 -4.8 45.15 -3.45 48.45 -16.1 48.75 -18.05 40.75 -20.95 44.05 -27.65 46.05 -26.5 38.9 -33.85 31.75 L-32.95 39.55 Q-46.8 36.05 -46.75 23.15 -52.2 28.9 -60.3 26.05 -52.9 21.7 -52.05 14.6 -52.05 9.7 -55.9 2.35 -58.45 9.4 -56.4 17.0 -65.5 12.1 -63.35 -0.15 -60.3 -11.1 -51.55 -18.7 -62.4 -19.6 -67.2 -28.85 -58.7 -21.65 -46.75 -28.15 -30.35 -41.8 -20.45 -48.4 -15.7 -51.75 -11.45 -48.4 -9.25 -52.65 -4.95 -55.5 0.55 -57.2 4.4 -48.3 13.3 -52.1 20.8 -49.95 28.25 -47.85 31.3 -43.05 L38.8 -30.95 Q53.55 -5.6 65.2 -10.55 58.85 -3.45 47.95 -4.5 M47.55 18.8 L47.6 18.75 47.6 18.85 48.3 20.6 Q50.25 24.6 55.7 26.75 50.6 30.35 44.55 27.95 35.55 32.55 32.2 42.25 30.75 38.7 27.4 36.4 25.25 40.1 27.7 45.55 15.85 45.95 12.8 40.9 12.05 46.7 4.55 50.1 3.7 46.15 -1.4 41.95 6.7 42.1 15.05 40.4 33.65 35.9 35.9 26.5 44.35 26.35 47.55 18.8" fill="url(#gradient0)" fill-rule="evenodd" stroke="none"/>
  </g>
  <defs>
    <linearGradient gradientTransform="matrix(0.0, 0.0471, -0.0808, 0.0, -1.0, 12.1)" gradientUnits="userSpaceOnUse" id="gradient0" spreadMethod="pad" x1="-819.2" x2="819.2">
      <stop offset="0.0" stop-color="#7bffdc" stop-opacity="0.0"/>
      <stop offset="1.0" stop-color="#7bffdc" stop-opacity="0.8"/>
    </linearGradient>
  </defs>
</svg>
