<?xml version="1.0" encoding="UTF-8" standalone="no"?>
<svg xmlns:ffdec="https://www.free-decompiler.com/flash" xmlns:xlink="http://www.w3.org/1999/xlink" ffdec:objectType="shape" height="22.35px" width="111.0px" xmlns="http://www.w3.org/2000/svg">
  <g transform="matrix(1.0, 0.0, 0.0, 1.0, 55.5, 35.4)">
    <path d="M13.45 -17.8 Q13.45 -15.85 12.75 -14.45 12.05 -13.05 11.05 -13.05 10.05 -13.05 9.35 -14.45 8.65 -15.85 8.65 -17.8 8.65 -19.75 9.35 -21.15 10.05 -22.55 11.05 -22.55 12.05 -22.55 12.75 -21.15 13.45 -19.75 13.45 -17.8 M4.45 -17.4 Q4.45 -16.3 4.0 -15.55 3.6 -14.75 3.0 -14.75 2.4 -14.75 1.95 -15.55 1.55 -16.3 1.55 -17.4 1.55 -18.5 1.95 -19.3 2.4 -20.05 3.0 -20.05 3.6 -20.05 4.0 -19.3 4.45 -18.5 4.45 -17.4 M38.35 -21.75 Q39.2 -20.15 39.15 -18.9 39.05 -17.55 38.15 -17.3 37.2 -17.05 35.95 -18.05 34.65 -18.9 33.8 -20.5 32.95 -22.1 33.05 -23.4 33.1 -24.65 34.05 -24.9 34.95 -25.15 36.25 -24.25 37.5 -23.35 38.35 -21.75 M31.55 -21.1 Q31.8 -20.2 31.55 -19.45 31.3 -18.65 30.7 -18.5 30.05 -18.35 29.4 -18.85 28.85 -19.4 28.6 -20.3 28.35 -21.2 28.6 -21.95 28.85 -22.7 29.5 -22.85 30.1 -23.0 30.75 -22.55 L31.55 -21.1 M49.0 -28.0 Q49.25 -27.2 49.0 -26.55 48.75 -25.9 48.2 -25.7 47.6 -25.55 47.05 -26.0 46.55 -26.45 46.3 -27.25 46.1 -28.1 46.3 -28.75 46.55 -29.4 47.15 -29.55 47.7 -29.75 48.25 -29.3 48.8 -28.85 49.0 -28.0 M54.95 -31.55 Q55.6 -29.75 55.5 -28.3 55.35 -26.8 54.45 -26.45 53.55 -26.15 52.5 -27.15 51.4 -28.15 50.75 -29.95 50.05 -31.7 50.2 -33.2 50.3 -34.75 51.2 -35.05 52.1 -35.4 53.2 -34.35 54.25 -33.3 54.95 -31.55 M-50.5 -29.65 Q-51.05 -27.6 -52.15 -26.25 -53.2 -24.95 -54.2 -25.2 -55.15 -25.45 -55.4 -27.15 -55.7 -28.8 -55.15 -30.85 -54.6 -32.95 -53.5 -34.3 -52.45 -35.6 -51.5 -35.35 -50.5 -35.1 -50.25 -33.4 -49.95 -31.75 -50.5 -29.65 M-45.6 -27.15 L-45.8 -26.3 Q-46.0 -25.7 -46.35 -25.25 -46.85 -24.6 -47.45 -24.65 -48.05 -24.75 -48.4 -25.55 -48.7 -26.45 -48.5 -27.6 -48.35 -28.75 -47.85 -29.45 -47.25 -30.15 -46.65 -30.05 L-46.05 -29.7 -45.8 -29.15 Q-45.45 -28.3 -45.6 -27.15 M-34.2 -20.75 Q-34.8 -19.2 -35.9 -18.35 -36.95 -17.5 -37.9 -17.85 -38.8 -18.2 -39.1 -19.55 -39.4 -20.9 -38.8 -22.45 -38.25 -24.0 -37.1 -24.85 -36.0 -25.7 -35.1 -25.35 -34.15 -25.0 -33.9 -23.65 -33.65 -22.3 -34.2 -20.75 M-17.75 -18.9 Q-17.75 -17.6 -18.25 -16.7 -18.7 -15.8 -19.35 -15.8 -20.0 -15.8 -20.5 -16.7 -20.95 -17.6 -20.95 -18.9 -20.95 -20.2 -20.5 -21.1 -20.0 -22.0 -19.35 -22.0 -18.7 -22.0 -18.25 -21.1 -17.75 -20.2 -17.75 -18.9 M-28.7 -20.05 Q-28.95 -19.15 -29.55 -18.55 -30.1 -18.0 -30.65 -18.15 -31.25 -18.35 -31.5 -19.1 L-31.45 -20.8 -30.65 -22.3 Q-30.05 -22.85 -29.45 -22.65 -28.9 -22.5 -28.7 -21.75 -28.45 -20.95 -28.7 -20.05 M-2.35 -18.05 Q-2.35 -16.2 -3.15 -14.9 -3.95 -13.6 -5.05 -13.6 -6.15 -13.6 -6.95 -14.9 -7.75 -16.2 -7.75 -18.05 -7.75 -19.9 -6.95 -21.2 -6.15 -22.5 -5.05 -22.5 -3.95 -22.5 -3.15 -21.2 -2.35 -19.9 -2.35 -18.05" fill="#b6e3ff" fill-rule="evenodd" stroke="none"/>
  </g>
</svg>
