<?xml version="1.0" encoding="UTF-8" standalone="no"?>
<svg xmlns:ffdec="https://www.free-decompiler.com/flash" xmlns:xlink="http://www.w3.org/1999/xlink" ffdec:objectType="shape" height="19.95px" width="80.25px" xmlns="http://www.w3.org/2000/svg">
  <g transform="matrix(1.0, 0.0, 0.0, 1.0, 41.3, 33.7)">
    <path d="M32.9 -26.35 Q33.25 -25.05 32.85 -24.0 32.55 -22.9 31.7 -22.7 30.9 -22.45 30.0 -23.25 29.2 -24.0 28.85 -25.3 28.5 -26.65 28.8 -27.75 29.2 -28.8 30.0 -29.05 30.85 -29.25 31.65 -28.5 32.55 -27.7 32.9 -26.35 M38.0 -29.85 Q38.9 -28.25 38.95 -26.8 39.1 -25.3 38.25 -24.8 37.45 -24.35 36.15 -25.2 34.9 -25.95 34.0 -27.55 33.05 -29.15 33.0 -30.7 32.95 -32.15 33.75 -32.6 34.6 -33.1 35.8 -32.3 37.05 -31.45 38.0 -29.85 M19.25 -19.65 Q19.4 -18.85 19.15 -18.15 18.9 -17.5 18.4 -17.4 17.9 -17.3 17.4 -17.8 16.95 -18.35 16.8 -19.15 16.65 -20.0 16.8 -20.65 17.1 -21.3 17.6 -21.4 18.1 -21.5 18.55 -21.0 19.1 -20.5 19.25 -19.65 M10.1 -18.25 Q10.4 -16.5 9.95 -15.3 9.5 -14.05 8.6 -14.05 7.7 -14.05 6.85 -15.3 6.0 -16.5 5.7 -18.25 5.45 -20.0 5.85 -21.25 6.3 -22.45 7.2 -22.45 8.1 -22.45 8.95 -21.25 9.85 -20.0 10.1 -18.25 M2.8 -15.8 Q2.8 -14.95 2.35 -14.35 1.95 -13.75 1.35 -13.75 0.75 -13.75 0.3 -14.35 -0.1 -14.95 -0.1 -15.8 -0.1 -16.65 0.3 -17.25 0.75 -17.85 1.35 -17.85 1.95 -17.85 2.35 -17.25 2.8 -16.65 2.8 -15.8 M25.35 -22.15 Q25.65 -21.0 25.35 -20.1 25.15 -19.1 24.45 -18.9 23.75 -18.75 23.05 -19.45 22.35 -20.15 22.05 -21.3 21.7 -22.45 22.0 -23.4 22.25 -24.35 22.95 -24.5 23.65 -24.7 24.3 -24.05 25.0 -23.3 25.35 -22.15 M-36.05 -28.2 Q-37.3 -26.55 -38.6 -25.85 -40.0 -25.05 -40.75 -25.65 -41.55 -26.2 -41.15 -27.75 -40.85 -29.25 -39.6 -30.9 -38.35 -32.55 -37.0 -33.3 L-34.85 -33.45 Q-34.1 -32.85 -34.45 -31.4 -34.8 -29.85 -36.05 -28.2 M-18.05 -22.05 Q-18.4 -20.05 -19.4 -18.65 -20.4 -17.25 -21.5 -17.25 -22.6 -17.25 -23.1 -18.65 -23.6 -20.05 -23.25 -22.05 -22.9 -24.05 -21.9 -25.45 -20.9 -26.85 -19.8 -26.85 -18.7 -26.85 -18.2 -25.45 -17.7 -24.05 -18.05 -22.05 M-31.95 -24.85 Q-32.4 -23.85 -33.15 -23.35 -33.8 -22.8 -34.3 -23.05 -34.8 -23.3 -34.8 -24.15 -34.75 -25.0 -34.3 -26.0 L-33.15 -27.55 Q-32.45 -28.15 -31.95 -27.9 -31.45 -27.65 -31.5 -26.75 -31.45 -25.85 -31.95 -24.85 M-28.3 -22.4 Q-28.45 -21.7 -28.85 -21.25 -29.25 -20.9 -29.7 -21.0 -30.15 -21.1 -30.3 -21.65 L-30.3 -22.9 -29.65 -24.0 Q-29.3 -24.35 -28.85 -24.25 -28.4 -24.15 -28.2 -23.6 -28.1 -23.05 -28.3 -22.4 M-4.55 -15.8 Q-4.55 -15.0 -4.85 -14.45 -5.15 -13.9 -5.6 -13.9 -6.05 -13.9 -6.35 -14.45 L-6.65 -15.8 -6.35 -17.15 Q-6.05 -17.7 -5.6 -17.7 -5.15 -17.7 -4.85 -17.15 -4.55 -16.6 -4.55 -15.8 M-9.6 -17.25 Q-9.6 -16.0 -10.2 -15.1 -10.8 -14.2 -11.65 -14.2 -12.5 -14.2 -13.1 -15.1 -13.7 -16.0 -13.7 -17.25 -13.7 -18.5 -13.1 -19.4 -12.5 -20.3 -11.65 -20.3 -10.8 -20.3 -10.2 -19.4 -9.6 -18.5 -9.6 -17.25" fill="#b6e3ff" fill-rule="evenodd" stroke="none"/>
  </g>
</svg>
