<?xml version="1.0" encoding="UTF-8" standalone="no"?>
<svg xmlns:ffdec="https://www.free-decompiler.com/flash" xmlns:xlink="http://www.w3.org/1999/xlink" ffdec:objectType="shape" height="126.95px" width="116.45px" xmlns="http://www.w3.org/2000/svg">
  <g transform="matrix(1.0, 0.0, 0.0, 1.0, 58.95, 57.2)">
    <path d="M-6.65 -45.6 Q-4.55 -49.55 -5.55 -54.4 -2.2 -51.8 4.45 -57.15 L4.5 -57.2 Q4.0 -54.8 2.3 -52.25 -0.7 -47.75 -6.65 -45.6 M-47.45 19.5 Q-55.85 13.5 -54.8 7.4 -58.2 13.1 -55.55 18.05 L-57.8 16.65 Q-62.85 4.25 -45.25 -12.7 -51.85 0.1 -48.5 4.25 -47.4 5.95 -36.8 2.1 -17.55 -4.7 -7.3 -28.75 L-7.3 -28.35 Q-8.0 -12.5 -0.55 0.15 -1.3 -5.75 1.75 -11.95 13.1 13.4 46.1 0.0 57.3 4.8 57.5 17.45 L57.15 17.65 Q56.95 15.0 51.75 10.85 52.8 19.15 45.0 22.25 46.55 20.4 47.55 17.75 49.5 11.6 47.05 7.05 44.3 3.5 40.3 5.6 30.1 13.15 18.4 9.9 4.4 5.8 3.6 -3.25 0.35 5.05 5.25 10.45 -9.75 3.55 -8.3 -19.8 -15.8 4.3 -38.0 7.3 L-38.85 6.6 Q-42.05 4.05 -45.25 5.75 -48.5 7.45 -48.4 12.5 -48.35 17.5 -47.45 19.5 M43.8 23.45 Q48.15 28.5 46.8 32.95 46.1 35.4 43.1 38.4 L41.4 40.15 Q39.75 41.9 38.6 43.4 L38.7 50.1 38.55 55.0 38.55 55.15 38.25 60.5 38.25 60.6 37.95 64.4 37.5 63.65 Q35.65 66.55 35.8 69.75 32.95 67.85 32.75 64.05 32.6 60.9 35.3 58.1 L35.6 55.95 Q33.8 54.9 32.5 52.25 32.5 50.8 34.95 48.5 32.95 47.35 31.45 45.7 29.5 43.2 32.25 40.7 30.45 39.0 28.6 34.45 33.1 31.65 34.15 29.1 35.2 26.5 36.55 26.2 L38.7 25.7 41.1 24.85 Q42.65 24.15 43.8 23.45" fill="#a684e0" fill-rule="evenodd" stroke="none"/>
  </g>
</svg>
