<?xml version="1.0" encoding="UTF-8" standalone="no"?>
<svg xmlns:ffdec="https://www.free-decompiler.com/flash" xmlns:xlink="http://www.w3.org/1999/xlink" ffdec:objectType="shape" height="106.3px" width="120.2px" xmlns="http://www.w3.org/2000/svg">
  <g transform="matrix(1.0, 0.0, 0.0, 1.0, 52.15, 57.7)">
    <path d="M-46.95 19.55 L-48.2 19.3 Q-57.6 7.45 -44.6 -3.55 L-44.3 5.2 Q-51.15 8.65 -46.95 19.55 M-11.05 -17.35 Q-17.15 2.15 -33.75 4.85 L-33.8 0.05 Q-20.15 -0.05 -8.1 -29.9 L-7.75 -30.8 Q-8.6 -25.8 -8.7 -21.55 L-8.45 -16.8 Q-7.05 -3.6 4.3 0.0 2.35 -13.8 6.6 -25.65 7.2 -23.4 7.95 -21.25 14.3 -3.95 33.75 3.05 L33.65 7.4 Q10.2 5.25 7.65 -18.6 6.4 1.1 12.55 5.95 -3.1 5.6 -7.75 -2.75 -11.7 -9.0 -11.05 -17.35 M27.2 -50.1 Q22.7 -52.5 18.15 -53.15 21.1 -57.85 33.85 -57.7 31.25 -52.2 29.85 -52.2 51.75 -42.1 56.1 -4.35 53.6 20.1 68.05 27.15 61.0 28.55 55.6 23.2 L51.9 11.5 Q52.3 26.85 46.25 37.55 40.45 47.75 39.45 48.25 L39.35 48.3 38.3 48.6 38.5 48.0 Q40.0 42.85 38.3 33.15 39.8 29.6 40.95 25.6 44.25 24.4 46.05 21.7 50.2 15.5 48.4 9.6 47.2 6.9 44.25 5.65 L44.4 2.8 Q50.35 -2.7 52.45 -11.1 50.25 -17.65 45.8 -23.6 40.0 -31.9 33.95 -37.4 L27.9 -42.55 Q30.3 -44.7 31.0 -47.6 L27.2 -50.1" fill="#a684e0" fill-rule="evenodd" stroke="none"/>
  </g>
</svg>
