<?xml version="1.0" encoding="UTF-8" standalone="no"?>
<svg xmlns:ffdec="https://www.free-decompiler.com/flash" xmlns:xlink="http://www.w3.org/1999/xlink" ffdec:objectType="shape" height="20.2px" width="89.65px" xmlns="http://www.w3.org/2000/svg">
  <g transform="matrix(1.0, 0.0, 0.0, 1.0, 47.0, 26.8)">
    <path d="M42.1 -22.65 Q42.8 -20.95 42.6 -19.75 42.4 -18.5 41.4 -18.5 40.4 -18.5 39.2 -19.75 38.0 -20.95 37.3 -22.65 36.6 -24.35 36.8 -25.6 37.0 -26.8 38.0 -26.8 39.0 -26.8 40.2 -25.6 41.4 -24.35 42.1 -22.65 M20.45 -12.4 Q20.85 -10.75 20.4 -9.6 19.95 -8.4 18.95 -8.4 17.95 -8.4 16.95 -9.6 15.95 -10.75 15.55 -12.4 15.2 -14.05 15.6 -15.25 16.05 -16.4 17.05 -16.4 18.05 -16.4 19.05 -15.25 20.1 -14.05 20.45 -12.4 M10.55 -8.7 Q10.6 -7.85 10.25 -7.25 9.9 -6.65 9.3 -6.6 8.7 -6.55 8.25 -7.1 7.8 -7.6 7.75 -8.45 7.7 -9.25 8.05 -9.9 8.4 -10.5 9.0 -10.55 9.6 -10.6 10.05 -10.05 10.5 -9.5 10.55 -8.7 M36.1 -18.75 Q36.4 -17.9 36.2 -17.3 36.0 -16.65 35.4 -16.65 34.8 -16.65 34.2 -17.3 33.6 -17.9 33.3 -18.75 33.0 -19.6 33.2 -20.25 33.4 -20.85 34.0 -20.85 34.6 -20.85 35.2 -20.25 35.8 -19.6 36.1 -18.75 M31.7 -15.95 Q32.25 -14.4 32.0 -13.3 31.8 -12.2 30.95 -12.2 30.1 -12.2 29.05 -13.3 28.05 -14.4 27.5 -15.95 26.95 -17.5 27.15 -18.6 27.4 -19.7 28.25 -19.7 29.1 -19.7 30.1 -18.6 31.15 -17.5 31.7 -15.95 M-41.05 -20.55 Q-42.0 -18.4 -43.4 -16.9 -44.8 -15.4 -45.85 -15.4 -46.9 -15.4 -47.0 -16.9 -47.1 -18.4 -46.15 -20.55 -45.2 -22.7 -43.8 -24.2 -42.4 -25.7 -41.35 -25.7 -40.3 -25.7 -40.2 -24.2 -40.1 -22.7 -41.05 -20.55 M-22.0 -16.05 Q-22.25 -14.5 -23.05 -13.45 -23.8 -12.35 -24.65 -12.35 -25.5 -12.35 -26.0 -13.45 -26.45 -14.5 -26.2 -16.05 -25.95 -17.6 -25.2 -18.7 -24.4 -19.75 -23.55 -19.75 -22.7 -19.75 -22.25 -18.7 -21.75 -17.6 -22.0 -16.05 M-29.75 -14.4 Q-29.95 -13.7 -30.4 -13.4 -30.85 -13.0 -31.3 -13.1 -31.8 -13.25 -32.0 -13.85 -32.2 -14.3 -32.0 -15.0 L-31.4 -16.1 -30.45 -16.3 Q-30.0 -16.2 -29.8 -15.65 -29.6 -15.05 -29.75 -14.4 M-35.4 -17.2 Q-35.65 -16.1 -36.35 -15.3 -37.1 -14.5 -37.85 -14.5 -38.6 -14.5 -38.95 -15.3 -39.35 -16.1 -39.1 -17.2 -38.85 -18.3 -38.1 -19.1 -37.4 -19.9 -36.65 -19.9 -35.9 -19.9 -35.5 -19.1 -35.15 -18.3 -35.4 -17.2 M-17.6 -12.7 Q-17.65 -11.95 -18.1 -11.45 -18.55 -10.9 -19.0 -10.95 -19.5 -11.0 -19.8 -11.6 -20.1 -12.2 -20.05 -12.95 L-19.55 -14.2 Q-19.1 -14.7 -18.6 -14.65 -18.15 -14.6 -17.85 -14.05 -17.5 -13.45 -17.6 -12.7" fill="#b6e3ff" fill-rule="evenodd" stroke="none"/>
  </g>
</svg>
