<?xml version="1.0" encoding="UTF-8" standalone="no"?>
<svg xmlns:ffdec="https://www.free-decompiler.com/flash" xmlns:xlink="http://www.w3.org/1999/xlink" ffdec:objectType="shape" height="88.3px" width="138.9px" xmlns="http://www.w3.org/2000/svg">
  <g transform="matrix(1.0, 0.0, 0.0, 1.0, 71.25, 51.95)">
    <path d="M-21.45 -30.8 L-21.25 -30.0 -16.6 -26.0 Q-13.75 -29.7 -13.35 -33.4 -9.1 -27.9 -7.3 -21.1 -6.7 -18.8 -6.35 -16.35 -3.5 1.85 -9.95 14.3 1.7 11.55 3.4 1.55 3.25 10.0 -0.1 16.15 18.3 10.8 20.55 -6.8 21.3 -13.05 20.05 -20.8 M30.7 33.85 Q45.75 33.15 56.15 23.3 50.85 21.25 49.05 19.2 59.85 18.55 66.15 8.95 56.1 8.5 50.95 1.85 62.5 -1.25 66.1 -11.4 59.6 -7.95 48.75 -17.4 39.55 -25.95 30.05 -37.5 19.7 -49.0 8.4 -50.45 -0.9 -50.45 -8.2 -43.85 -14.5 -48.7 -22.4 -47.1 -36.0 -42.6 -46.2 -26.2 -55.3 -8.65 -69.75 -9.9 -63.15 -2.75 -52.0 -3.0 L-51.15 -3.05 M20.55 -6.8 Q24.5 8.45 42.15 8.6 L40.2 6.2 Q35.1 -0.8 35.25 -11.05 M-21.25 -30.0 Q-20.05 -24.55 -19.8 -19.85 -14.3 -22.1 -7.3 -21.1 M-42.2 4.95 Q-44.75 -0.65 -44.05 -9.5 M-19.8 -19.85 Q-18.95 -2.65 -31.2 4.0 -28.2 11.35 -20.7 15.0 -33.45 15.85 -38.9 9.75 -40.95 7.75 -42.2 4.95 M-52.0 -3.0 Q-58.25 4.8 -66.8 7.25 -61.3 18.1 -45.8 22.95 -47.05 26.45 -51.4 28.7 -44.65 35.8 -29.05 34.7 M-33.25 -6.25 Q-33.05 -0.45 -31.2 4.0" fill="none" stroke="#000000" stroke-linecap="round" stroke-linejoin="round" stroke-width="3.0"/>
    <path d="M40.2 6.2 L40.5 6.05 Q44.15 4.25 46.65 6.55 L47.35 7.35 Q49.8 11.9 47.85 18.05 44.8 26.35 35.9 26.5 34.9 30.65 30.7 33.85 M-29.05 34.7 Q-33.85 31.5 -35.85 26.95 -46.55 25.7 -48.65 15.35 -49.35 8.05 -45.6 5.45 -43.9 4.8 -42.2 4.95" fill="none" stroke="#000000" stroke-linecap="round" stroke-linejoin="round" stroke-opacity="0.49803922" stroke-width="1.0"/>
  </g>
</svg>
