<?xml version="1.0" encoding="UTF-8" standalone="no"?>
<svg xmlns:ffdec="https://www.free-decompiler.com/flash" xmlns:xlink="http://www.w3.org/1999/xlink" ffdec:objectType="shape" height="90.5px" width="140.25px" xmlns="http://www.w3.org/2000/svg">
  <g transform="matrix(1.0, 0.0, 0.0, 1.0, 70.15, 47.05)">
    <path d="M41.05 -22.45 Q43.75 -23.95 43.45 -26.8 42.3 -30.0 40.7 -32.7 36.4 -39.8 28.8 -43.55 33.2 -47.05 40.95 -46.9 53.7 -44.4 56.75 -30.05 58.65 -17.0 58.2 -1.35 58.55 22.25 70.1 31.05 66.35 32.35 63.3 32.25 59.05 32.1 56.15 29.3 51.2 34.35 44.3 32.8 38.25 31.4 35.85 26.75 L35.9 26.5 Q44.8 26.35 47.85 18.05 49.8 11.9 47.35 7.35 44.75 4.0 41.1 5.65 L40.6 6.15 39.4 7.15 Q38.35 17.0 35.25 25.35 33.8 29.25 31.9 32.85 28.9 38.55 24.75 43.45 L26.2 36.6 Q28.45 23.8 28.75 6.8 15.15 0.05 16.8 -19.05 15.35 -8.0 15.05 0.9 L15.0 8.05 3.75 8.7 2.3 -3.5 1.15 8.7 Q-10.25 9.05 -11.3 4.7 L-11.85 0.1 Q-12.5 -7.05 -11.7 -14.4 -15.2 -1.5 -28.75 5.95 -28.55 23.3 -26.25 36.35 L-24.8 43.45 Q-29.3 38.2 -32.4 31.95 -34.05 28.75 -35.3 25.35 -38.4 17.0 -39.45 7.15 L-41.65 5.05 Q-43.6 4.7 -45.6 5.45 -49.35 8.05 -48.65 15.35 -46.55 25.65 -36.0 26.95 -38.45 31.45 -44.35 32.8 -51.25 34.35 -56.2 29.3 -60.0 33.05 -66.25 32.05 L-70.15 31.05 Q-58.6 22.25 -58.25 -1.35 -58.7 -17.0 -56.8 -30.05 -53.75 -44.4 -41.0 -46.9 -33.25 -47.05 -28.85 -43.55 -37.8 -39.15 -42.1 -30.1 L-43.5 -26.8 Q-43.8 -23.95 -41.1 -22.45 -37.9 -28.3 -32.25 -34.25 -27.6 -38.25 -22.55 -41.0 -12.3 -46.6 -0.35 -47.05 L0.35 -47.05 Q12.25 -46.65 22.5 -41.0 27.55 -38.25 32.2 -34.25 37.85 -28.3 41.05 -22.45" fill="#424f86" fill-rule="evenodd" stroke="none"/>
  </g>
</svg>
