<?xml version="1.0" encoding="UTF-8" standalone="no"?>
<svg xmlns:ffdec="https://www.free-decompiler.com/flash" xmlns:xlink="http://www.w3.org/1999/xlink" ffdec:objectType="shape" height="16.6px" width="84.9px" xmlns="http://www.w3.org/2000/svg">
  <g transform="matrix(1.0, 0.0, 0.0, 1.0, 42.35, 32.45)">
    <path d="M42.05 -27.75 Q42.75 -25.8 42.45 -24.45 42.2 -23.05 41.1 -23.05 40.0 -23.05 38.65 -24.45 37.35 -25.8 36.65 -27.75 35.9 -29.7 36.2 -31.1 36.5 -32.45 37.6 -32.45 38.7 -32.45 40.0 -31.1 41.3 -29.7 42.05 -27.75 M17.6 -19.0 Q17.6 -17.9 17.1 -17.1 16.65 -16.3 16.0 -16.3 15.35 -16.3 14.85 -17.1 14.4 -17.9 14.4 -19.0 14.4 -20.1 14.85 -20.9 15.35 -21.7 16.0 -21.7 16.65 -21.7 17.1 -20.9 17.6 -20.1 17.6 -19.0 M35.75 -22.85 L35.8 -21.4 Q35.6 -20.75 35.1 -20.75 34.6 -20.75 34.05 -21.4 33.5 -22.0 33.25 -22.85 33.0 -23.7 33.2 -24.35 33.4 -24.95 33.9 -24.95 34.4 -24.95 34.95 -24.35 L35.75 -22.85 M26.95 -21.6 Q27.2 -19.85 26.65 -18.6 26.05 -17.35 24.95 -17.35 23.85 -17.35 22.95 -18.6 22.0 -19.85 21.75 -21.6 21.5 -23.35 22.1 -24.6 22.65 -25.85 23.75 -25.85 24.85 -25.85 25.8 -24.6 26.7 -23.35 26.95 -21.6 M-37.05 -26.7 Q-37.9 -24.8 -39.2 -23.65 -40.45 -22.45 -41.35 -22.65 -42.25 -22.9 -42.35 -24.5 -42.35 -25.95 -41.5 -27.85 -40.65 -29.75 -39.35 -31.0 -38.05 -32.1 -37.15 -31.85 -36.25 -31.65 -36.2 -30.15 -36.2 -28.6 -37.05 -26.7 M-33.55 -23.8 Q-33.85 -22.7 -34.4 -21.95 -34.85 -21.2 -35.35 -21.2 -35.85 -21.2 -36.05 -21.95 -36.15 -22.7 -35.85 -23.8 L-35.1 -25.65 Q-34.55 -26.4 -34.05 -26.4 -33.55 -26.4 -33.45 -25.65 -33.3 -24.9 -33.55 -23.8 M-22.4 -21.8 Q-22.6 -19.85 -23.5 -18.45 -24.35 -17.05 -25.35 -17.05 -26.35 -17.05 -26.95 -18.45 -27.5 -19.85 -27.3 -21.8 -27.1 -23.75 -26.25 -25.15 -25.35 -26.55 -24.35 -26.55 -23.35 -26.55 -22.8 -25.15 -22.2 -23.75 -22.4 -21.8 M-14.65 -18.55 Q-14.65 -17.45 -15.1 -16.65 -15.55 -15.85 -16.2 -15.85 -16.85 -15.85 -17.3 -16.65 -17.75 -17.45 -17.75 -18.55 -17.75 -19.65 -17.3 -20.45 -16.85 -21.25 -16.2 -21.25 -15.55 -21.25 -15.1 -20.45 -14.65 -19.65 -14.65 -18.55" fill="#b6e3ff" fill-rule="evenodd" stroke="none"/>
  </g>
</svg>
