<?xml version="1.0" encoding="UTF-8" standalone="no"?>
<svg xmlns:ffdec="https://www.free-decompiler.com/flash" xmlns:xlink="http://www.w3.org/1999/xlink" ffdec:objectType="shape" height="102.35px" width="116.4px" xmlns="http://www.w3.org/2000/svg">
  <g transform="matrix(1.0, 0.0, 0.0, 1.0, 58.1, 47.45)">
    <path d="M31.35 42.65 Q27.4 49.0 21.95 54.9 24.4 50.55 25.8 43.45 15.6 45.4 1.75 46.05 L0.6 41.95 Q7.75 41.9 15.05 40.4 22.2 38.65 26.95 36.25 28.5 22.9 28.05 2.75 L18.45 2.45 18.15 -3.6 Q17.25 -15.6 14.25 -25.45 15.85 -14.15 15.1 -3.6 L14.3 3.25 0.1 3.7 -14.1 3.25 -14.85 -3.6 Q-15.65 -14.15 -14.05 -25.45 -17.05 -15.6 -17.95 -3.6 L-18.25 2.45 -27.85 2.75 Q-28.3 22.85 -26.7 36.1 -21.9 38.7 -14.9 40.25 -7.75 41.85 -0.35 41.95 L-1.55 46.05 Q-15.4 45.4 -25.6 43.45 -24.2 50.55 -21.75 54.9 -27.2 49.0 -31.15 42.65 L-38.4 41.5 Q-40.75 35.45 -40.9 29.9 -42.5 35.9 -42.2 41.45 -50.15 40.9 -55.2 35.9 -59.45 30.75 -57.45 24.0 -53.3 12.75 -52.05 0.5 -51.7 -18.75 -38.6 -31.35 -26.95 -42.0 -13.25 -45.85 0.3 -49.0 13.5 -45.9 27.15 -42.0 38.8 -31.35 51.9 -18.75 52.25 0.5 53.5 12.75 57.65 24.0 59.65 30.75 55.4 35.9 50.8 40.45 43.75 41.35 L42.4 41.45 Q42.7 35.9 41.1 29.9 40.95 35.45 38.6 41.5 L31.35 42.65 M38.85 26.2 Q45.3 24.9 47.85 18.05 49.8 11.9 47.35 7.35 45.0 4.35 41.8 5.4 41.6 12.25 40.5 19.3 39.85 22.8 38.85 26.2 M-38.55 26.45 Q-39.6 22.95 -40.3 19.3 -41.4 12.1 -41.55 5.05 -43.55 4.65 -45.6 5.45 -49.35 8.05 -48.65 15.35 -46.8 24.35 -38.55 26.45" fill="url(#gradient0)" fill-rule="evenodd" stroke="none"/>
  </g>
  <defs>
    <linearGradient gradientTransform="matrix(0.0, 0.0444, -0.071, 0.0, 0.1, 13.4)" gradientUnits="userSpaceOnUse" id="gradient0" spreadMethod="pad" x1="-819.2" x2="819.2">
      <stop offset="0.0" stop-color="#7bffdc" stop-opacity="0.0"/>
      <stop offset="1.0" stop-color="#7bffdc" stop-opacity="0.8"/>
    </linearGradient>
  </defs>
</svg>
