<?xml version="1.0" encoding="UTF-8" standalone="no"?>
<svg xmlns:ffdec="https://www.free-decompiler.com/flash" xmlns:xlink="http://www.w3.org/1999/xlink" ffdec:objectType="shape" height="65.9px" width="87.3px" xmlns="http://www.w3.org/2000/svg">
  <g transform="matrix(1.0, 0.0, 0.0, 1.0, 25.75, 53.6)">
    <path d="M33.55 -40.8 Q21.2 -39.25 13.45 -45.3 L12.75 -45.9 Q9.3 -49.45 7.1 -53.6 18.9 -40.3 43.3 -46.3 39.7 -42.4 33.55 -40.8 M2.1 -4.0 Q2.35 -7.45 3.3 -11.45 0.75 1.65 21.95 5.95 40.3 8.25 50.8 -1.2 47.45 4.6 42.05 7.7 31.75 14.35 18.95 11.35 6.05 5.6 2.1 -4.0 M37.65 -3.6 Q28.75 -13.8 23.1 -17.5 39.4 -7.8 58.25 -14.0 55.45 -7.8 47.7 -4.6 40.7 -1.2 37.65 -3.6 M-7.8 -41.0 L-9.1 -41.2 -10.05 -41.35 -11.3 -41.7 Q-23.3 -45.55 -25.75 -52.45 -19.35 -45.15 -12.9 -50.3 -11.35 -45.45 -7.8 -41.0 M61.55 -32.85 Q60.75 -21.4 52.4 -17.65 L40.35 -16.0 Q56.9 -20.55 61.55 -32.85" fill="#a684e0" fill-rule="evenodd" stroke="none"/>
  </g>
</svg>
