<?xml version="1.0" encoding="UTF-8" standalone="no"?>
<svg xmlns:ffdec="https://www.free-decompiler.com/flash" xmlns:xlink="http://www.w3.org/1999/xlink" ffdec:objectType="shape" height="19.0px" width="82.6px" xmlns="http://www.w3.org/2000/svg">
  <g transform="matrix(1.0, 0.0, 0.0, 1.0, 45.35, 28.05)">
    <path d="M36.8 -24.15 Q37.45 -22.55 37.2 -21.4 37.05 -20.25 36.15 -20.25 35.25 -20.25 34.15 -21.4 33.15 -22.55 32.5 -24.15 31.9 -25.75 32.05 -26.9 32.25 -28.05 33.15 -28.05 34.05 -28.05 35.1 -26.9 36.2 -25.75 36.8 -24.15 M16.6 -14.7 Q16.75 -12.8 16.25 -11.5 15.75 -10.15 14.8 -10.15 13.85 -10.15 13.05 -11.5 12.25 -12.8 12.1 -14.7 11.9 -16.6 12.4 -17.95 12.95 -19.25 13.9 -19.25 14.85 -19.25 15.6 -17.95 16.4 -16.6 16.6 -14.7 M9.9 -13.3 L9.6 -11.5 Q9.3 -10.75 8.85 -10.75 8.4 -10.75 8.1 -11.5 7.8 -12.25 7.8 -13.3 7.8 -14.35 8.1 -15.1 8.4 -15.85 8.85 -15.85 9.3 -15.85 9.6 -15.1 L9.9 -13.3 M31.9 -21.6 Q32.05 -20.6 31.75 -19.9 31.45 -19.2 30.8 -19.2 30.15 -19.2 29.55 -19.9 28.95 -20.6 28.8 -21.6 28.6 -22.6 28.9 -23.3 29.25 -24.0 29.9 -24.0 30.55 -24.0 31.1 -23.3 31.7 -22.6 31.9 -21.6 M23.65 -18.8 L23.55 -17.6 Q23.35 -16.95 22.95 -16.85 22.55 -16.75 22.2 -17.2 21.8 -17.6 21.7 -18.3 21.55 -18.95 21.75 -19.55 21.95 -20.15 22.35 -20.25 22.75 -20.35 23.15 -19.95 L23.65 -18.8 M-39.75 -20.75 Q-40.5 -19.4 -41.75 -18.55 -42.95 -17.8 -44.0 -17.95 -45.05 -18.15 -45.3 -19.15 -45.55 -20.2 -44.8 -21.55 -44.1 -22.9 -42.85 -23.75 -41.6 -24.55 -40.55 -24.35 -39.5 -24.2 -39.3 -23.15 -39.05 -22.1 -39.75 -20.75 M-26.45 -13.85 Q-26.6 -12.95 -27.05 -12.4 -27.5 -11.8 -28.0 -11.85 -28.5 -11.9 -28.8 -12.6 -29.05 -13.25 -28.9 -14.15 L-28.4 -15.6 Q-27.95 -16.15 -27.45 -16.1 -26.95 -16.05 -26.65 -15.4 -26.35 -14.75 -26.45 -13.85 M-20.5 -12.7 Q-20.65 -11.1 -21.35 -10.05 -22.1 -8.95 -23.05 -9.05 -24.0 -9.1 -24.55 -10.3 -25.15 -11.45 -25.0 -13.05 -24.9 -14.65 -24.15 -15.75 -23.4 -16.8 -22.45 -16.75 -21.5 -16.65 -20.95 -15.5 -20.4 -14.3 -20.5 -12.7 M-36.7 -17.55 Q-37.0 -16.75 -37.5 -16.4 -38.05 -15.95 -38.45 -16.1 -38.85 -16.3 -38.95 -16.95 L-38.7 -18.4 -37.9 -19.6 Q-37.35 -20.0 -36.95 -19.8 -36.55 -19.65 -36.45 -19.05 -36.35 -18.35 -36.7 -17.55" fill="#b6e3ff" fill-rule="evenodd" stroke="none"/>
  </g>
</svg>
