<?xml version="1.0" encoding="UTF-8" standalone="no"?>
<svg xmlns:ffdec="https://www.free-decompiler.com/flash" xmlns:xlink="http://www.w3.org/1999/xlink" ffdec:objectType="shape" height="10.4px" width="87.95px" xmlns="http://www.w3.org/2000/svg">
  <g transform="matrix(1.0, 0.0, 0.0, 1.0, 43.45, 29.25)">
    <path d="M43.9 -24.95 Q44.7 -23.15 44.4 -21.9 44.15 -20.65 42.95 -20.65 41.75 -20.65 40.35 -21.9 39.0 -23.15 38.2 -24.95 37.4 -26.75 37.65 -28.0 37.95 -29.25 39.15 -29.25 40.35 -29.25 41.7 -28.0 43.1 -26.75 43.9 -24.95 M35.95 -21.4 Q36.2 -20.35 35.9 -19.6 35.65 -18.85 35.0 -18.85 34.35 -18.85 33.65 -19.6 33.0 -20.35 32.75 -21.4 32.45 -22.45 32.7 -23.2 33.05 -23.95 33.7 -23.95 34.35 -23.95 34.95 -23.2 35.65 -22.45 35.95 -21.4 M-37.85 -23.35 Q-38.55 -21.55 -39.8 -20.3 -41.05 -19.05 -42.1 -19.05 -43.15 -19.05 -43.4 -20.3 -43.65 -21.55 -42.95 -23.35 -42.2 -25.15 -40.95 -26.4 -39.75 -27.65 -38.7 -27.65 -37.65 -27.65 -37.35 -26.4 -37.1 -25.15 -37.85 -23.35 M-32.1 -22.05 Q-32.25 -20.8 -32.95 -19.95 -33.6 -19.05 -34.35 -19.05 -35.1 -19.05 -35.5 -19.95 -35.85 -20.8 -35.7 -22.05 -35.5 -23.3 -34.85 -24.2 -34.2 -25.05 -33.45 -25.05 -32.7 -25.05 -32.3 -24.2 -31.9 -23.3 -32.1 -22.05" fill="#b6e3ff" fill-rule="evenodd" stroke="none"/>
  </g>
</svg>
