<?xml version="1.0" encoding="UTF-8" standalone="no"?>
<svg xmlns:ffdec="https://www.free-decompiler.com/flash" xmlns:xlink="http://www.w3.org/1999/xlink" ffdec:objectType="shape" height="17.1px" width="87.65px" xmlns="http://www.w3.org/2000/svg">
  <g transform="matrix(1.0, 0.0, 0.0, 1.0, 43.9, 29.4)">
    <path d="M43.05 -24.0 Q43.8 -21.9 43.75 -20.4 43.7 -18.9 42.85 -18.9 42.0 -18.9 40.8 -20.4 39.6 -21.9 38.85 -24.0 38.05 -26.1 38.1 -27.6 38.2 -29.1 39.05 -29.1 39.9 -29.1 41.05 -27.6 42.25 -26.1 43.05 -24.0 M18.4 -17.0 Q18.4 -16.15 18.0 -15.55 17.65 -14.95 17.15 -14.95 16.65 -14.95 16.25 -15.55 15.9 -16.15 15.9 -17.0 15.9 -17.85 16.25 -18.45 16.65 -19.05 17.15 -19.05 17.65 -19.05 18.0 -18.45 18.4 -17.85 18.4 -17.0 M9.4 -17.7 Q9.4 -15.85 8.7 -14.55 8.05 -13.2 7.1 -13.2 6.15 -13.2 5.45 -14.55 4.8 -15.85 4.8 -17.7 4.8 -19.55 5.45 -20.9 6.15 -22.2 7.1 -22.2 8.05 -22.2 8.7 -20.9 9.4 -19.55 9.4 -17.7 M36.05 -21.05 Q36.2 -19.7 35.75 -18.65 35.4 -17.7 34.65 -17.6 33.9 -17.5 33.2 -18.35 32.6 -19.25 32.45 -20.6 32.25 -21.95 32.65 -22.95 33.1 -23.95 33.85 -24.05 34.6 -24.15 35.2 -23.25 35.85 -22.4 36.05 -21.05 M24.5 -17.75 Q24.5 -15.7 23.85 -14.3 23.25 -12.85 22.4 -12.85 21.55 -12.85 20.9 -14.3 20.3 -15.7 20.3 -17.75 20.3 -19.8 20.9 -21.25 21.55 -22.65 22.4 -22.65 23.25 -22.65 23.85 -21.25 24.5 -19.8 24.5 -17.75 M-37.2 -23.25 Q-37.75 -20.7 -39.1 -18.9 -40.4 -17.1 -41.75 -17.1 -43.1 -17.1 -43.65 -18.9 -44.15 -20.7 -43.6 -23.25 -43.05 -25.8 -41.75 -27.6 -40.4 -29.4 -39.05 -29.4 -37.7 -29.4 -37.2 -27.6 -36.65 -25.8 -37.2 -23.25 M-17.3 -18.55 Q-17.3 -16.5 -18.1 -15.05 -18.9 -13.55 -20.05 -13.55 -21.2 -13.55 -22.0 -15.05 -22.8 -16.5 -22.8 -18.55 -22.8 -20.6 -22.0 -22.1 -21.2 -23.55 -20.05 -23.55 -18.9 -23.55 -18.1 -22.1 -17.3 -20.6 -17.3 -18.55 M-31.5 -21.45 Q-31.7 -20.05 -32.35 -19.1 -33.0 -18.1 -33.75 -18.1 -34.5 -18.1 -34.95 -19.1 -35.4 -20.05 -35.2 -21.45 -35.05 -22.85 -34.4 -23.85 -33.7 -24.8 -32.95 -24.8 -32.2 -24.8 -31.8 -23.85 -31.35 -22.85 -31.5 -21.45 M-1.85 -16.45 Q-1.85 -14.75 -2.5 -13.55 -3.1 -12.3 -3.95 -12.3 -4.8 -12.3 -5.45 -13.55 -6.05 -14.75 -6.05 -16.45 -6.05 -18.15 -5.45 -19.4 -4.8 -20.6 -3.95 -20.6 -3.1 -20.6 -2.5 -19.4 -1.85 -18.15 -1.85 -16.45 M-13.65 -17.6 Q-13.65 -16.85 -13.95 -16.35 -14.2 -15.8 -14.6 -15.8 -15.0 -15.8 -15.3 -16.35 L-15.55 -17.6 -15.3 -18.9 Q-15.0 -19.4 -14.6 -19.4 -14.2 -19.4 -13.95 -18.9 -13.65 -18.35 -13.65 -17.6" fill="#b6e3ff" fill-rule="evenodd" stroke="none"/>
  </g>
</svg>
