<?xml version="1.0" encoding="UTF-8" standalone="no"?>
<svg xmlns:ffdec="https://www.free-decompiler.com/flash" xmlns:xlink="http://www.w3.org/1999/xlink" ffdec:objectType="shape" height="126.9px" width="116.4px" xmlns="http://www.w3.org/2000/svg">
  <g transform="matrix(1.0, 0.0, 0.0, 1.0, 58.9, 57.15)">
    <path d="M-6.7 -45.6 Q-4.6 -49.6 -5.6 -54.4 -2.25 -51.75 4.45 -57.15 3.95 -54.8 2.25 -52.25 -0.75 -47.75 -6.7 -45.6 M-35.4 26.6 Q-34.2 31.05 -28.4 35.7 -30.55 39.0 -32.35 40.7 -29.6 43.2 -31.55 45.7 -33.05 47.35 -35.05 48.5 -32.6 50.8 -32.6 52.25 -33.9 54.9 -35.7 55.95 L-35.4 58.1 Q-32.7 60.9 -32.85 64.05 -33.05 67.85 -35.9 69.75 -35.75 66.8 -37.3 64.15 L-37.35 60.25 -37.3 55.55 -37.2 49.55 -36.95 43.4 Q-36.45 34.4 -35.4 26.6 M-47.1 20.05 Q-55.95 13.8 -54.85 7.4 -58.25 13.1 -55.6 18.05 L-57.75 16.7 Q-62.9 4.3 -45.25 -12.7 -51.85 0.1 -48.5 4.25 -47.4 5.95 -36.8 2.1 -17.55 -4.7 -7.3 -28.75 -8.1 -12.65 -0.55 0.15 -1.3 -5.75 1.75 -11.95 13.1 13.4 46.1 0.0 57.3 4.8 57.5 17.45 L57.1 17.65 Q56.9 15.0 51.7 10.85 52.75 19.15 46.1 21.75 49.35 16.45 48.45 10.05 48.2 8.35 47.05 7.55 46.0 5.65 43.5 5.05 41.3 4.9 40.05 5.7 L37.65 7.4 Q29.35 12.95 18.35 9.9 4.35 5.8 3.55 -3.25 0.3 5.05 5.2 10.45 -9.8 3.55 -8.35 -19.8 -15.85 4.3 -38.05 7.3 -40.85 4.3 -44.25 5.25 -47.85 6.6 -48.3 11.7 -48.8 15.9 -47.1 20.05 M35.9 26.55 L36.65 26.5 Q38.2 34.3 38.6 43.35 L38.7 50.1 38.55 55.15 38.25 60.5 37.95 64.5 37.45 63.65 Q35.6 66.55 35.75 69.75 32.9 67.85 32.7 64.05 32.55 60.9 35.25 58.1 L35.55 55.95 Q33.75 54.9 32.45 52.25 32.45 50.8 34.9 48.5 32.9 47.35 31.4 45.7 29.45 43.2 32.2 40.7 30.4 39.0 28.65 34.9 34.05 31.05 35.9 26.55" fill="#a684e0" fill-rule="evenodd" stroke="none"/>
  </g>
</svg>
