<?xml version="1.0" encoding="UTF-8" standalone="no"?>
<svg xmlns:ffdec="https://www.free-decompiler.com/flash" xmlns:xlink="http://www.w3.org/1999/xlink" ffdec:objectType="shape" height="27.5px" width="49.7px" xmlns="http://www.w3.org/2000/svg">
  <g transform="matrix(1.0, 0.0, 0.0, 1.0, 8.9, 36.0)">
    <path d="M38.95 -34.15 Q40.2 -32.9 40.6 -31.55 41.05 -30.15 40.35 -29.5 39.7 -28.85 38.3 -29.25 36.95 -29.65 35.7 -30.9 34.4 -32.2 34.0 -33.55 33.6 -34.95 34.25 -35.6 34.95 -36.25 36.3 -35.85 37.65 -35.45 38.95 -34.15 M34.2 -27.6 Q35.15 -26.65 35.55 -25.7 35.9 -24.75 35.5 -24.35 35.15 -23.95 34.2 -24.35 33.2 -24.75 32.25 -25.7 31.3 -26.65 30.95 -27.6 30.55 -28.55 30.9 -28.95 31.3 -29.35 32.3 -28.95 L34.2 -27.6 M13.95 -12.3 Q14.15 -10.9 13.7 -9.75 13.35 -8.6 12.55 -8.5 11.75 -8.4 11.0 -9.35 10.3 -10.35 10.1 -11.75 9.9 -13.2 10.3 -14.3 10.75 -15.45 11.55 -15.55 12.35 -15.65 13.0 -14.7 13.75 -13.75 13.95 -12.3 M20.4 -15.7 Q21.45 -13.9 21.6 -12.25 21.7 -10.6 20.85 -10.1 20.0 -9.6 18.65 -10.55 17.3 -11.5 16.25 -13.3 15.2 -15.15 15.05 -16.8 14.9 -18.45 15.75 -18.95 16.6 -19.45 18.0 -18.5 19.35 -17.55 20.4 -15.7 M8.1 -11.85 Q8.1 -10.85 7.75 -10.15 7.45 -9.45 6.95 -9.45 6.45 -9.45 6.1 -10.15 5.8 -10.85 5.8 -11.85 5.8 -12.85 6.1 -13.55 6.45 -14.25 6.95 -14.25 7.45 -14.25 7.75 -13.55 8.1 -12.85 8.1 -11.85 M0.75 -11.35 Q0.75 -10.25 0.25 -9.5 -0.2 -8.7 -0.85 -8.7 -1.5 -8.7 -2.0 -9.5 -2.45 -10.25 -2.45 -11.35 -2.45 -12.45 -2.0 -13.25 -1.5 -14.0 -0.85 -14.0 -0.2 -14.0 0.25 -13.25 0.75 -12.45 0.75 -11.35 M29.75 -22.9 L30.4 -21.05 Q30.55 -20.25 30.1 -20.0 29.7 -19.75 29.0 -20.25 28.35 -20.75 27.8 -21.75 27.25 -22.7 27.1 -23.5 27.05 -24.3 27.45 -24.55 27.9 -24.8 28.5 -24.3 L29.75 -22.9 M-4.3 -12.9 Q-4.3 -11.25 -4.95 -10.1 -5.6 -8.9 -6.6 -8.9 -7.55 -8.9 -8.2 -10.1 -8.9 -11.25 -8.9 -12.9 -8.9 -14.6 -8.2 -15.8 -7.55 -16.95 -6.6 -16.95 -5.6 -16.95 -4.95 -15.8 -4.3 -14.6 -4.3 -12.9" fill="#b6e3ff" fill-rule="evenodd" stroke="none"/>
  </g>
</svg>
