<?xml version="1.0" encoding="UTF-8" standalone="no"?>
<svg xmlns:ffdec="https://www.free-decompiler.com/flash" xmlns:xlink="http://www.w3.org/1999/xlink" ffdec:objectType="shape" height="73.15px" width="139.55px" xmlns="http://www.w3.org/2000/svg">
  <g transform="matrix(1.0, 0.0, 0.0, 1.0, 69.9, 25.75)">
    <path d="M13.4 -25.75 L13.95 -23.5 Q16.8 -12.75 24.25 -3.9 28.8 -6.85 24.0 -23.5 28.8 -11.6 29.2 4.7 19.6 1.15 15.55 -7.6 15.25 0.4 12.35 6.95 8.1 5.2 -0.15 5.2 -8.4 5.2 -12.65 6.95 -15.55 0.4 -15.85 -7.6 -19.9 1.15 -29.5 4.7 -29.1 -11.6 -24.3 -23.5 -26.6 -10.8 -24.9 -2.65 -18.05 -8.25 -14.3 -23.25 L-14.15 -23.8 -13.9 -24.95 Q-14.75 -9.2 -9.8 -1.1 -1.85 -3.15 9.3 -1.1 14.2 -8.95 13.4 -25.75 M44.65 33.8 Q42.2 40.55 27.0 45.15 31.95 37.7 34.6 29.7 35.5 28.15 35.9 26.5 L40.4 25.8 Q44.0 24.6 46.2 21.35 57.2 33.3 69.65 22.6 68.9 29.15 63.75 32.35 56.65 36.65 49.0 35.5 46.45 35.1 44.65 33.8 M40.45 5.95 L37.65 8.05 37.8 4.65 Q39.6 -0.15 36.9 -8.65 43.8 -1.6 44.95 5.4 42.9 4.6 40.45 5.95 M25.9 36.75 L23.75 45.2 Q19.3 45.75 16.55 42.25 12.55 46.75 -0.15 47.4 -12.85 46.75 -16.85 42.25 -19.6 45.75 -24.05 45.2 L-26.25 36.35 Q-21.6 38.75 -14.9 40.25 -0.3 43.5 15.05 40.4 21.45 38.85 25.9 36.75 M-37.7 7.0 Q-41.45 4.5 -44.55 5.15 -43.9 -1.7 -37.7 -8.1 L-37.7 7.0 M-64.05 32.35 Q-69.15 29.2 -69.9 22.8 -57.0 34.65 -45.55 22.25 -43.6 24.55 -40.65 25.75 -38.55 26.65 -35.85 26.95 L-35.45 27.8 Q-32.85 36.85 -27.3 45.15 -42.5 40.55 -44.95 33.8 -46.75 35.1 -49.3 35.5 -56.95 36.65 -64.05 32.35" fill="#a684e0" fill-rule="evenodd" stroke="none"/>
  </g>
</svg>
