<?xml version="1.0" encoding="UTF-8" standalone="no"?>
<svg xmlns:ffdec="https://www.free-decompiler.com/flash" xmlns:xlink="http://www.w3.org/1999/xlink" ffdec:objectType="shape" height="91.9px" width="97.5px" xmlns="http://www.w3.org/2000/svg">
  <g transform="matrix(1.0, 0.0, 0.0, 1.0, 49.0, 28.15)">
    <path d="M25.35 -25.5 L26.45 -18.45 Q13.9 -23.55 -0.05 -23.75 -14.0 -23.55 -26.55 -18.45 L-25.45 -25.5 Q-1.7 -30.75 25.35 -25.5 M37.6 26.4 Q45.1 25.55 47.85 18.05 L48.5 15.4 Q47.85 52.25 23.95 62.6 L22.05 62.5 Q28.25 56.65 29.4 50.8 21.2 60.7 -0.05 63.75 -21.3 60.7 -29.5 50.8 -28.35 56.65 -22.15 62.5 L-22.35 62.5 Q-36.35 56.95 -43.9 39.55 -50.1 23.85 -48.75 13.0 L-48.65 15.35 Q-46.75 24.85 -37.65 26.7 -36.45 36.05 -33.75 41.7 -28.4 50.25 -16.85 52.2 -23.2 46.2 -25.95 36.5 -21.35 38.8 -14.9 40.25 -0.3 43.5 15.05 40.4 21.35 38.85 25.8 36.8 23.05 46.3 16.75 52.2 28.3 50.25 33.65 41.7 36.4 35.95 37.6 26.4 M47.35 7.35 Q44.55 3.75 40.45 5.95 L38.4 6.7 Q38.2 -5.25 36.55 -18.0 46.05 -7.5 47.35 7.35 M-38.5 7.15 Q-39.7 5.2 -42.2 4.95 -43.9 4.8 -45.6 5.45 -47.25 6.6 -48.05 8.7 -45.45 -3.85 -36.8 -16.85 -38.3 -4.95 -38.5 6.2 L-38.5 7.15" fill="#a684e0" fill-rule="evenodd" stroke="none"/>
  </g>
</svg>
