<?xml version="1.0" encoding="UTF-8" standalone="no"?>
<svg xmlns:ffdec="https://www.free-decompiler.com/flash" xmlns:xlink="http://www.w3.org/1999/xlink" ffdec:objectType="shape" height="46.4px" width="95.0px" xmlns="http://www.w3.org/2000/svg">
  <g transform="matrix(1.0, 0.0, 0.0, 1.0, 47.65, 31.35)">
    <path d="M47.35 1.5 L41.9 -4.65 41.5 -5.1 Q42.2 0.75 41.4 5.55 38.0 10.95 33.55 14.55 35.8 6.95 34.45 -1.55 L33.0 1.4 30.25 -15.15 30.2 -15.2 24.0 -20.2 Q26.9 -15.6 26.7 -8.95 13.8 -18.65 1.95 -24.95 6.1 -20.9 6.1 -14.0 -4.25 -19.5 -17.85 -22.35 L-17.85 -15.85 -18.8 -16.5 -20.4 -26.35 Q-12.1 -25.4 2.7 -19.3 -1.7 -25.3 -3.2 -31.35 12.05 -23.65 22.4 -15.3 21.4 -19.45 18.35 -25.25 38.5 -19.8 47.35 1.35 L47.35 1.5 M-45.3 5.6 Q-45.25 -2.9 -43.95 -9.85 L-47.65 -4.45 Q-46.7 -14.4 -41.05 -25.9 L-38.65 -30.15 Q-42.9 -19.55 -41.05 -8.4 -39.9 -12.0 -35.9 -15.65 -38.3 -8.4 -34.75 -1.15 -34.1 -13.35 -24.25 -25.0 L-24.55 -18.85 Q-26.8 -14.35 -27.1 -9.45 L-29.05 -9.45 Q-33.4 8.15 -33.7 15.05 -36.95 12.8 -38.85 7.55 -41.5 4.45 -45.3 5.6" fill="#a684e0" fill-rule="evenodd" stroke="none"/>
  </g>
</svg>
