<?xml version="1.0" encoding="UTF-8" standalone="no"?>
<svg xmlns:ffdec="https://www.free-decompiler.com/flash" xmlns:xlink="http://www.w3.org/1999/xlink" ffdec:objectType="shape" height="10.9px" width="90.5px" xmlns="http://www.w3.org/2000/svg">
  <g transform="matrix(1.0, 0.0, 0.0, 1.0, 45.0, 24.45)">
    <path d="M21.6 -16.05 Q21.6 -15.4 21.15 -14.95 20.7 -14.5 20.05 -14.5 19.4 -14.5 18.95 -14.95 18.5 -15.4 18.5 -16.05 18.5 -16.7 18.95 -17.15 19.4 -17.6 20.05 -17.6 20.7 -17.6 21.15 -17.15 21.6 -16.7 21.6 -16.05 M1.25 -17.75 Q1.25 -16.0 0.7 -14.8 0.2 -13.55 -0.55 -13.55 -1.3 -13.55 -1.85 -14.8 -2.35 -16.0 -2.35 -17.75 -2.35 -19.5 -1.85 -20.75 -1.3 -21.95 -0.55 -21.95 0.2 -21.95 0.7 -20.75 1.25 -19.5 1.25 -17.75 M7.05 -16.1 L6.75 -14.7 6.1 -14.1 Q5.7 -14.1 5.4 -14.7 5.15 -15.25 5.15 -16.1 L5.4 -17.55 Q5.7 -18.1 6.1 -18.1 6.5 -18.1 6.75 -17.55 L7.05 -16.1 M39.15 -17.95 Q39.35 -17.0 39.15 -16.35 38.95 -15.7 38.45 -15.7 37.95 -15.7 37.45 -16.35 36.95 -17.0 36.75 -17.95 36.6 -18.9 36.8 -19.55 37.0 -20.2 37.5 -20.2 L38.5 -19.55 Q39.0 -18.9 39.15 -17.95 M45.3 -19.65 Q45.7 -17.7 45.2 -16.35 44.75 -15.0 43.65 -15.0 42.55 -15.0 41.5 -16.35 40.5 -17.7 40.1 -19.65 39.7 -21.6 40.15 -22.95 40.65 -24.3 41.75 -24.3 42.85 -24.3 43.85 -22.95 44.9 -21.6 45.3 -19.65 M33.3 -16.65 L33.0 -15.3 Q32.75 -14.7 32.35 -14.7 31.95 -14.7 31.65 -15.3 31.4 -15.85 31.4 -16.65 31.4 -17.45 31.65 -18.05 31.95 -18.6 32.35 -18.6 32.75 -18.6 33.0 -18.05 L33.3 -16.65 M26.45 -17.6 Q26.45 -15.9 25.9 -14.75 25.4 -13.55 24.65 -13.55 23.9 -13.55 23.35 -14.75 22.85 -15.9 22.85 -17.6 22.85 -19.3 23.35 -20.5 23.9 -21.65 24.65 -21.65 25.4 -21.65 25.9 -20.5 26.45 -19.3 26.45 -17.6 M-40.6 -20.0 Q-40.95 -18.15 -41.85 -16.85 -42.7 -15.55 -43.55 -15.55 -44.4 -15.55 -44.8 -16.85 -45.15 -18.15 -44.8 -20.0 -44.45 -21.85 -43.6 -23.15 -42.7 -24.45 -41.85 -24.45 -41.0 -24.45 -40.65 -23.15 -40.25 -21.85 -40.6 -20.0 M-21.65 -18.7 Q-21.65 -16.85 -22.4 -15.55 -23.1 -14.25 -24.1 -14.25 -25.1 -14.25 -25.85 -15.55 -26.55 -16.85 -26.55 -18.7 -26.55 -20.55 -25.85 -21.85 -25.1 -23.15 -24.1 -23.15 -23.1 -23.15 -22.4 -21.85 -21.65 -20.55 -21.65 -18.7 M-19.55 -16.8 Q-19.55 -16.2 -19.8 -15.75 -20.0 -15.3 -20.3 -15.3 L-20.85 -15.75 -21.05 -16.8 -20.85 -17.85 -20.3 -18.3 Q-20.0 -18.3 -19.8 -17.85 L-19.55 -16.8 M-33.7 -17.95 Q-33.8 -17.25 -34.15 -16.8 L-34.75 -16.3 Q-35.05 -16.3 -35.2 -16.8 L-35.2 -17.95 -34.75 -19.15 Q-34.4 -19.6 -34.1 -19.6 L-33.7 -19.15 Q-33.55 -18.65 -33.7 -17.95 M-37.1 -18.4 Q-37.3 -17.45 -37.8 -16.8 -38.35 -16.15 -38.95 -16.15 -39.55 -16.15 -39.8 -16.8 -40.1 -17.45 -39.9 -18.4 L-39.2 -20.0 Q-38.65 -20.65 -38.05 -20.65 -37.45 -20.65 -37.2 -20.0 -36.9 -19.35 -37.1 -18.4 M-4.25 -16.25 Q-4.25 -15.5 -4.65 -14.95 -5.0 -14.4 -5.55 -14.4 -6.1 -14.4 -6.5 -14.95 -6.85 -15.5 -6.85 -16.25 -6.85 -17.0 -6.5 -17.55 -6.1 -18.1 -5.55 -18.1 -5.0 -18.1 -4.65 -17.55 -4.25 -17.0 -4.25 -16.25" fill="#b6e3ff" fill-rule="evenodd" stroke="none"/>
  </g>
</svg>
