<?xml version="1.0" encoding="UTF-8" standalone="no"?>
<svg xmlns:ffdec="https://www.free-decompiler.com/flash" xmlns:xlink="http://www.w3.org/1999/xlink" ffdec:objectType="shape" height="112.65px" width="117.1px" xmlns="http://www.w3.org/2000/svg">
  <g transform="matrix(1.0, 0.0, 0.0, 1.0, 58.65, 51.5)">
    <path d="M-39.75 6.55 Q-42.35 4.15 -45.15 5.95 -47.95 7.7 -48.6 12.95 L-48.7 14.6 Q-48.7 18.05 -46.5 20.9 -43.65 25.5 -37.5 26.7 L-37.7 25.95 Q-39.7 16.75 -39.75 6.55 M-13.1 -9.8 Q-16.45 4.65 -32.1 8.8 -32.55 20.85 -31.95 32.4 -26.4 37.7 -14.9 40.25 -0.3 43.5 15.05 40.4 26.5 37.65 31.75 33.0 32.35 21.4 31.95 9.35 14.95 7.85 8.65 -11.4 7.9 4.15 14.75 11.65 6.75 11.5 0.65 8.45 L-0.85 7.65 -3.1 6.2 Q-3.2 11.85 -2.4 14.5 -12.65 7.85 -13.25 -7.4 L-13.1 -9.8 M48.5 15.6 L48.4 12.95 Q47.75 7.7 44.95 5.95 43.75 5.2 42.6 5.2 41.45 5.2 40.4 5.9 L39.55 6.55 Q39.5 16.75 37.5 25.95 42.9 24.65 45.4 21.95 L47.2 19.65 Q48.25 17.75 48.5 15.6 M0.65 60.85 L-0.05 60.85 -0.85 60.85 Q-10.6 60.4 -15.35 54.15 -15.65 59.25 -11.8 61.15 -34.85 61.35 -44.95 49.35 L-43.5 57.55 Q-62.05 51.15 -57.9 30.4 -56.2 22.05 -55.25 10.3 -54.55 -12.4 -48.15 -23.85 -39.95 -39.35 -23.8 -48.05 -12.65 -52.7 -0.1 -51.05 12.45 -52.65 23.6 -48.05 39.75 -39.35 47.95 -23.85 54.35 -12.4 55.05 10.3 56.0 22.05 57.7 30.4 61.85 51.15 43.3 57.55 L44.75 49.35 Q34.65 61.35 11.6 61.15 15.45 59.25 15.15 54.15 10.4 60.45 0.65 60.85" fill="url(#gradient0)" fill-rule="evenodd" stroke="none"/>
  </g>
  <defs>
    <linearGradient gradientTransform="matrix(0.0, 0.0511, -0.0715, 0.0, -0.1, 18.35)" gradientUnits="userSpaceOnUse" id="gradient0" spreadMethod="pad" x1="-819.2" x2="819.2">
      <stop offset="0.0" stop-color="#7bffdc" stop-opacity="0.0"/>
      <stop offset="1.0" stop-color="#7bffdc" stop-opacity="0.8"/>
    </linearGradient>
  </defs>
</svg>
