<?xml version="1.0" encoding="UTF-8" standalone="no"?>
<svg xmlns:ffdec="https://www.free-decompiler.com/flash" xmlns:xlink="http://www.w3.org/1999/xlink" ffdec:objectType="shape" height="114.75px" width="138.65px" xmlns="http://www.w3.org/2000/svg">
  <g transform="matrix(1.0, 0.0, 0.0, 1.0, 64.75, 65.55)">
    <path d="M-48.2 19.3 Q-56.2 17.25 -58.9 9.8 -59.8 1.9 -52.25 -4.55 -60.0 -2.9 -64.75 -9.2 -54.55 -8.8 -49.3 -20.35 -41.35 -38.25 -30.65 -44.4 -13.75 -55.6 0.15 -47.2 L3.2 -47.85 Q5.2 -57.25 13.3 -62.25 25.4 -68.8 37.5 -62.25 54.3 -52.0 58.2 -33.9 59.85 -17.3 60.2 5.85 60.55 26.15 73.9 24.9 70.85 26.55 68.05 27.15 61.0 28.55 55.6 23.2 58.15 41.05 41.5 47.55 L41.0 47.7 39.45 48.25 39.35 48.3 38.3 48.6 38.5 48.0 Q40.0 42.85 38.3 33.15 34.05 43.0 26.95 49.2 32.85 37.35 33.65 7.4 10.2 5.25 7.65 -18.6 6.4 1.1 12.55 5.95 -3.1 5.6 -7.75 -2.75 -11.7 -9.0 -11.05 -17.35 -17.15 2.15 -33.75 4.85 -33.15 36.85 -27.0 49.2 -38.35 39.3 -42.35 20.0 -43.8 13.2 -44.3 5.2 -51.15 8.65 -46.95 19.55 L-48.2 19.3 M48.4 9.6 Q47.2 6.9 44.25 5.65 43.5 16.8 40.95 25.6 44.25 24.4 46.05 21.7 50.2 15.5 48.4 9.6" fill="url(#gradient0)" fill-rule="evenodd" stroke="none"/>
  </g>
  <defs>
    <linearGradient gradientTransform="matrix(0.0, 0.0441, -0.0846, 0.0, 4.6, 12.85)" gradientUnits="userSpaceOnUse" id="gradient0" spreadMethod="pad" x1="-819.2" x2="819.2">
      <stop offset="0.0" stop-color="#7bffdc" stop-opacity="0.0"/>
      <stop offset="1.0" stop-color="#7bffdc" stop-opacity="0.8"/>
    </linearGradient>
  </defs>
</svg>
