<?xml version="1.0" encoding="UTF-8" standalone="no"?>
<svg xmlns:ffdec="https://www.free-decompiler.com/flash" xmlns:xlink="http://www.w3.org/1999/xlink" ffdec:objectType="shape" height="87.05px" width="101.65px" xmlns="http://www.w3.org/2000/svg">
  <g transform="matrix(1.0, 0.0, 0.0, 1.0, 51.15, 31.3)">
    <path d="M29.5 -31.3 Q35.35 -13.25 32.25 3.75 27.35 2.25 24.3 -1.25 32.3 -8.15 29.5 -31.3 M0.0 53.7 Q-7.6 58.35 -14.8 52.45 -24.05 57.9 -30.85 52.15 -39.2 56.55 -46.3 50.5 -52.75 31.75 -50.65 11.4 -47.95 -0.55 -39.55 -6.9 -38.8 -1.25 -39.85 5.6 L-45.6 5.45 Q-49.35 8.05 -48.65 15.35 -47.6 20.45 -44.5 23.35 -44.65 28.8 -40.95 31.0 -43.55 34.2 -43.3 35.4 -42.8 37.75 -38.1 38.4 -35.45 39.95 -38.1 42.2 -39.75 43.7 -42.2 43.7 -37.7 48.05 -32.05 44.5 -28.4 41.35 -33.6 38.2 -31.5 37.55 -30.0 36.6 L-28.3 35.2 Q-23.1 38.45 -14.9 40.25 -0.3 43.5 15.05 40.4 23.4 38.35 28.5 35.35 L28.9 35.75 Q30.65 37.3 33.6 38.2 28.4 41.35 32.05 44.5 37.7 48.05 42.2 43.7 39.75 43.7 38.1 42.2 35.45 39.95 38.1 38.4 42.8 37.75 43.3 35.4 43.55 34.2 40.95 31.0 44.3 29.05 44.55 24.35 L44.55 23.35 Q46.65 21.3 47.85 18.05 49.8 11.9 47.35 7.35 44.55 3.8 40.0 6.3 38.8 -0.7 39.5 -6.5 50.4 5.3 50.3 14.25 51.45 38.05 46.0 50.75 39.05 56.45 30.85 52.15 24.05 57.9 14.8 52.45 7.6 58.35 0.0 53.7 M-32.25 3.75 Q-35.35 -13.25 -29.5 -31.3 -31.1 -10.9 -24.5 -1.05 -27.5 2.3 -32.25 3.75" fill="#a684e0" fill-rule="evenodd" stroke="none"/>
  </g>
</svg>
