<?xml version="1.0" encoding="UTF-8" standalone="no"?>
<svg xmlns:ffdec="https://www.free-decompiler.com/flash" xmlns:xlink="http://www.w3.org/1999/xlink" ffdec:objectType="shape" height="117.75px" width="141.65px" xmlns="http://www.w3.org/2000/svg">
  <g transform="matrix(1.0, 0.0, 0.0, 1.0, 66.25, 67.05)">
    <path d="M48.4 9.6 Q50.1 19.7 41.85 25.3 M-44.3 5.2 Q-51.15 8.65 -46.95 19.55" fill="none" stroke="#000000" stroke-linecap="round" stroke-linejoin="round" stroke-opacity="0.49803922" stroke-width="1.0"/>
    <path d="M55.1 21.5 L55.6 23.2 Q61.0 28.55 68.05 27.15 70.85 26.55 73.9 24.9 60.55 26.15 60.2 5.85 59.85 -17.3 58.2 -33.9 54.3 -52.0 37.5 -62.25 25.4 -68.8 13.3 -62.25 5.2 -57.25 3.2 -47.85 L8.5 -48.35 Q9.5 -52.15 12.85 -53.3 L18.15 -53.15 Q22.7 -52.5 27.2 -50.1 33.95 -46.35 35.85 -41.6 36.1 -38.8 33.95 -37.4 40.0 -31.9 45.8 -23.6 50.25 -17.65 52.45 -11.1 53.4 -8.3 53.95 -5.35 55.7 3.5 48.4 9.6 47.2 6.9 44.25 5.65 43.5 16.8 40.95 25.6 39.8 29.6 38.3 33.15 40.0 42.85 38.5 48.0 L38.3 48.6 39.35 48.3 39.45 48.25 41.0 47.7 41.5 47.55 Q58.15 41.05 55.6 23.2 M33.95 -37.4 Q21.75 -48.55 8.5 -48.35 M-7.75 -30.8 L-8.1 -29.9 Q-10.65 -23.1 -11.05 -17.35 -11.7 -9.0 -7.75 -2.75 -3.1 5.6 12.55 5.95 6.4 1.1 7.65 -18.6 L7.95 -21.25 M3.2 -47.85 L0.15 -47.2 Q-13.75 -55.6 -30.65 -44.4 -41.35 -38.25 -49.3 -20.35 -54.55 -8.8 -64.75 -9.2 -60.0 -2.9 -52.25 -4.55 L-51.25 -4.8 M44.45 -9.65 Q44.65 -3.1 44.4 2.8 L44.25 5.65 M33.45 -19.5 Q33.85 -7.25 33.75 3.05 L33.65 7.4 Q32.85 37.35 26.95 49.2 34.05 43.0 38.3 33.15 M7.65 -18.6 Q10.2 5.25 33.65 7.4 M-44.3 5.2 L-44.6 -3.55 -44.5 -9.65 M-33.5 -19.5 Q-33.85 -9.0 -33.8 0.05 L-33.75 4.85 Q-17.15 2.15 -11.05 -17.35 M-33.75 4.85 Q-33.15 36.85 -27.0 49.2 -38.35 39.3 -42.35 20.0 -43.8 13.2 -44.3 5.2 M-46.95 19.55 L-48.2 19.3 Q-56.2 17.25 -58.9 9.8 -59.8 1.9 -52.25 -4.55" fill="none" stroke="#181a36" stroke-linecap="round" stroke-linejoin="round" stroke-width="3.0"/>
  </g>
</svg>
