<?xml version="1.0" encoding="UTF-8" standalone="no"?>
<svg xmlns:ffdec="https://www.free-decompiler.com/flash" xmlns:xlink="http://www.w3.org/1999/xlink" ffdec:objectType="shape" height="108.85px" width="135.4px" xmlns="http://www.w3.org/2000/svg">
  <g transform="matrix(1.0, 0.0, 0.0, 1.0, 68.7, 57.25)">
    <path d="M46.5 -5.3 L47.95 -4.5 Q58.85 -3.45 65.2 -10.55 53.55 -5.6 38.8 -30.95 L31.3 -43.05 Q28.25 -47.85 20.8 -49.95 13.3 -52.1 4.4 -48.3 0.55 -57.2 -4.95 -55.5 -9.25 -52.65 -11.45 -48.4 -13.4 -44.7 -13.8 -39.9 -13.8 -23.75 1.4 -20.3 -6.2 -30.55 -0.7 -43.35 M6.35 -4.55 Q6.55 -1.1 5.8 2.0 6.4 8.8 5.15 13.2 13.5 5.7 15.35 -5.75 16.45 -16.4 9.8 -24.85 M49.1 5.8 Q56.0 14.05 55.25 22.4 62.6 15.6 58.65 6.55 55.7 -0.1 47.95 -4.5 M41.45 5.5 Q38.8 15.75 30.3 21.9 31.65 13.4 30.3 3.75 18.9 4.1 15.35 -5.75 M-1.4 41.95 Q3.7 46.15 4.55 50.1 12.05 46.7 12.8 40.9 15.85 45.95 27.7 45.55 25.25 40.1 27.4 36.4 30.75 38.7 32.2 42.25 35.55 32.55 44.55 27.95 50.6 30.35 55.7 26.75 50.25 24.6 48.3 20.6 L47.6 18.85 47.6 18.75 M-1.4 41.95 L-3.2 41.85 Q-4.8 45.15 -3.45 48.45 -16.1 48.75 -18.05 40.75 -20.95 44.05 -27.65 46.05 -26.5 38.9 -33.85 31.75 L-32.95 39.55 Q-46.8 36.05 -46.75 23.15 -52.2 28.9 -60.3 26.05 -52.9 21.7 -52.05 14.6 -52.05 9.7 -55.9 2.35 -58.45 9.4 -56.4 17.0 -65.5 12.1 -63.35 -0.15 -60.3 -11.1 -51.55 -18.7 -62.4 -19.6 -67.2 -28.85 -58.7 -21.65 -46.75 -28.15 -30.35 -41.8 -20.45 -48.4 -15.7 -51.75 -11.45 -48.4 M30.3 3.75 L32.95 3.55 Q25.8 -3.35 24.4 -15.1 M41.45 5.5 Q44.0 -4.25 41.25 -17.65 M-49.95 -20.05 L-51.4 -18.85 -51.55 -18.7 M-12.45 -26.1 Q-16.9 -17.25 -17.3 -9.9 -17.9 0.6 -10.05 7.95 -11.8 2.25 -11.2 -5.85 L-11.1 -7.1 M-4.95 -10.9 Q-0.4 -0.2 -1.75 8.6 -2.3 11.85 -3.6 14.85 3.95 9.4 5.8 2.0 M-45.6 -5.15 Q-45.8 0.5 -44.55 5.15 -41.7 15.55 -31.45 21.0 -33.7 15.95 -34.5 9.85 -36.15 -1.85 -32.65 -17.35 M-55.9 2.35 Q-55.05 0.0 -53.7 -2.25 M-11.2 -5.85 Q-9.15 5.5 -1.75 8.6 M-34.5 9.85 Q-20.4 4.4 -17.3 -9.9" fill="none" stroke="#000000" stroke-linecap="round" stroke-linejoin="round" stroke-width="3.0"/>
    <path d="M49.0 5.65 L49.1 5.8 M47.6 18.75 L47.55 18.8" fill="none" stroke="#000000" stroke-linecap="round" stroke-linejoin="round" stroke-opacity="0.49803922" stroke-width="0.1"/>
    <path d="M49.0 5.65 L47.95 8.45 47.35 7.35" fill="none" stroke="#000000" stroke-linecap="round" stroke-linejoin="round" stroke-width="2.0"/>
    <path d="M47.35 7.35 Q44.9 4.2 41.45 5.5 M47.55 18.8 Q44.35 26.35 35.9 26.5 33.65 35.9 15.05 40.4 6.7 42.1 -1.4 41.95 M-44.55 5.15 L-45.6 5.45 Q-49.35 8.05 -48.65 15.35 -46.55 25.7 -35.85 26.95 -31.65 36.55 -14.9 40.25 -9.1 41.55 -3.2 41.85" fill="none" stroke="#000000" stroke-linecap="round" stroke-linejoin="round" stroke-opacity="0.49803922" stroke-width="1.0"/>
  </g>
</svg>
