<?xml version="1.0" encoding="UTF-8" standalone="no"?>
<svg xmlns:ffdec="https://www.free-decompiler.com/flash" xmlns:xlink="http://www.w3.org/1999/xlink" ffdec:objectType="shape" height="93.5px" width="143.25px" xmlns="http://www.w3.org/2000/svg">
  <g transform="matrix(1.0, 0.0, 0.0, 1.0, 71.65, 48.55)">
    <path d="M35.85 26.75 L35.9 26.5 Q44.8 26.35 47.85 18.05 49.8 11.9 47.35 7.35 44.75 4.0 41.1 5.65 M-41.65 5.05 Q-43.6 4.7 -45.6 5.45 -49.35 8.05 -48.65 15.35 -46.55 25.65 -36.0 26.95" fill="none" stroke="#000000" stroke-linecap="round" stroke-linejoin="round" stroke-opacity="0.49803922" stroke-width="1.0"/>
    <path d="M-22.55 -41.0 Q-12.3 -46.6 -0.35 -47.05 L0.35 -47.05 Q12.25 -46.65 22.5 -41.0 24.15 -42.55 28.8 -43.55 33.2 -47.05 40.95 -46.9 53.7 -44.4 56.75 -30.05 58.65 -17.0 58.2 -1.35 58.55 22.25 70.1 31.05 66.35 32.35 63.3 32.25 59.05 32.1 56.15 29.3 51.2 34.35 44.3 32.8 38.25 31.4 35.85 26.75 L35.25 25.35 Q33.8 29.25 31.9 32.85 28.9 38.55 24.75 43.45 L26.2 36.6 Q28.45 23.8 28.75 6.8 15.15 0.05 16.8 -19.05 15.35 -8.0 15.05 0.9 L15.0 8.05 3.75 8.7 2.3 -3.5 1.15 8.7 Q-10.25 9.05 -11.3 4.7 L-11.85 0.1 Q-12.5 -7.05 -11.7 -14.4 -15.2 -1.5 -28.75 5.95 -28.55 23.3 -26.25 36.35 L-24.8 43.45 Q-29.3 38.2 -32.4 31.95 -34.05 28.75 -35.3 25.35 L-36.0 26.95 Q-38.45 31.45 -44.35 32.8 -51.25 34.35 -56.2 29.3 -60.0 33.05 -66.25 32.05 L-70.15 31.05 Q-58.6 22.25 -58.25 -1.35 -58.7 -17.0 -56.8 -30.05 -53.75 -44.4 -41.0 -46.9 -33.25 -47.05 -28.85 -43.55 -24.2 -42.55 -22.55 -41.0 -27.6 -38.25 -32.25 -34.25 -35.45 -30.85 -37.9 -27.5 L-41.1 -22.45 Q-45.15 -15.1 -45.4 -7.85 -45.7 0.3 -41.65 5.05 L-39.45 7.15 -39.6 5.75 Q-40.45 -3.0 -39.7 -12.9 M16.8 -19.05 L17.4 -23.6 M28.75 6.8 Q28.9 -3.75 28.3 -15.95 L28.25 -17.1 M39.65 -12.9 Q40.45 -2.2 39.4 7.15 L40.6 6.15 41.1 5.65 Q45.65 0.85 45.35 -7.85 45.1 -15.1 41.05 -22.45 39.3 -25.6 36.9 -28.8 L32.2 -34.25 Q27.55 -38.25 22.5 -41.0 M28.8 -43.55 Q36.4 -39.85 40.65 -32.75 L40.7 -32.7 Q42.3 -30.0 43.45 -26.8 43.75 -23.95 41.05 -22.45 M39.4 7.15 Q38.35 17.0 35.25 25.35 M-28.85 -43.55 Q-37.5 -39.3 -41.8 -30.65 L-42.1 -30.1 -43.5 -26.8 Q-43.8 -23.95 -41.1 -22.45 M-10.4 -22.65 L-10.55 -21.85 -11.7 -14.4 M-28.75 5.95 L-28.8 0.45 Q-28.8 -7.85 -28.3 -17.1 M-39.45 7.15 Q-38.4 17.0 -35.3 25.35" fill="none" stroke="#000000" stroke-linecap="round" stroke-linejoin="round" stroke-width="3.0"/>
  </g>
</svg>
