<?xml version="1.0" encoding="UTF-8" standalone="no"?>
<svg xmlns:ffdec="https://www.free-decompiler.com/flash" xmlns:xlink="http://www.w3.org/1999/xlink" ffdec:objectType="shape" height="74.35px" width="96.15px" xmlns="http://www.w3.org/2000/svg">
  <g transform="matrix(1.0, 0.0, 0.0, 1.0, 52.95, 57.55)">
    <path d="M16.95 -10.65 Q17.0 -16.5 18.25 -23.8 16.35 -3.9 36.15 3.25 32.0 -4.4 33.45 -16.8 42.15 -5.1 39.2 3.1 40.75 5.8 43.2 8.2 L39.8 7.85 37.9 7.6 Q36.45 11.55 34.1 16.05 L33.4 16.5 Q34.55 13.65 35.05 7.05 17.4 3.25 16.95 -10.65 M-3.05 -44.25 Q0.4 -49.95 -0.55 -54.6 4.9 -50.95 11.5 -57.55 11.6 -50.85 0.35 -45.65 L-3.05 -44.25 M-47.0 2.85 L-47.55 2.7 Q-62.2 -9.0 -37.25 -22.9 -43.1 -12.15 -42.75 -1.4 -43.65 -5.05 -47.3 -8.85 L-47.85 -7.5 Q-49.45 -3.2 -47.0 2.85 M-13.8 -13.15 Q-13.65 -0.65 -29.8 6.9 -28.0 4.3 -28.3 -5.15 -29.4 0.45 -33.5 3.75 -34.75 11.95 -33.5 16.8 -39.6 11.9 -39.75 6.95 L-38.6 6.55 Q-30.85 -0.85 -27.9 -15.85 -24.0 -7.0 -25.75 0.65 -16.4 -6.0 -13.7 -20.55 L-13.85 -17.6 Q-12.2 -2.8 -2.85 5.55 -5.8 -4.15 -5.7 -9.75 2.15 3.85 22.8 8.6 L23.6 9.3 Q5.45 13.95 -0.7 -0.1 -0.45 8.85 2.3 13.8 -12.85 5.4 -13.8 -13.15" fill="#a684e0" fill-rule="evenodd" stroke="none"/>
  </g>
</svg>
