<?xml version="1.0" encoding="UTF-8" standalone="no"?>
<svg xmlns:ffdec="https://www.free-decompiler.com/flash" xmlns:xlink="http://www.w3.org/1999/xlink" ffdec:objectType="shape" height="90.3px" width="92.6px" xmlns="http://www.w3.org/2000/svg">
  <g transform="matrix(1.0, 0.0, 0.0, 1.0, 46.55, 74.7)">
    <path d="M-10.25 -67.9 L-9.65 -68.7 Q-13.4 -70.3 -16.7 -68.75 -21.45 -66.2 -21.0 -61.65 -26.3 -61.6 -29.8 -57.4 -33.4 -52.25 -29.7 -47.45 L-29.75 -47.4 Q-35.9 -45.85 -35.45 -39.45 -34.7 -34.95 -30.0 -33.35 -18.1 -42.4 -0.25 -43.2 17.6 -42.4 29.5 -33.35 34.2 -34.95 34.95 -39.45 35.4 -45.85 29.25 -47.4 L29.2 -47.45 Q32.9 -52.25 29.3 -57.4 25.8 -61.6 20.5 -61.65 20.95 -66.2 16.2 -68.75 12.9 -70.3 9.15 -68.7 L9.75 -67.9 M34.9 -8.2 L32.6 -7.65 Q33.2 -5.85 34.45 1.35 35.65 8.3 33.5 13.65 41.5 8.8 44.05 -0.6 46.3 -13.0 37.95 -25.0 34.2 -29.75 29.5 -33.35 M32.6 -7.65 Q25.55 -6.5 15.6 -11.0 4.55 -15.85 -0.25 -25.1 -5.05 -15.85 -16.1 -11.0 -26.05 -6.5 -33.1 -7.65 -33.7 -5.85 -34.95 1.35 -36.15 8.3 -34.0 13.65 L-33.85 14.1 M33.5 13.65 L33.35 14.1 M9.15 -68.7 Q5.75 -72.75 -0.25 -73.2 -6.25 -72.75 -9.65 -68.7 M-34.0 13.65 Q-42.0 8.8 -44.55 -0.6 -46.8 -13.0 -38.45 -25.0 -34.7 -29.75 -30.0 -33.35 M-33.1 -7.65 L-35.4 -8.2" fill="none" stroke="#000000" stroke-linecap="round" stroke-linejoin="round" stroke-width="3.0"/>
  </g>
</svg>
