<?xml version="1.0" encoding="UTF-8" standalone="no"?>
<svg xmlns:ffdec="https://www.free-decompiler.com/flash" xmlns:xlink="http://www.w3.org/1999/xlink" ffdec:objectType="shape" height="19.95px" width="88.3px" xmlns="http://www.w3.org/2000/svg">
  <g transform="matrix(1.0, 0.0, 0.0, 1.0, 42.0, 28.35)">
    <path d="M21.25 -13.65 L21.6 -12.25 Q21.6 -11.55 21.2 -11.3 20.85 -11.1 20.35 -11.5 19.85 -11.85 19.5 -12.6 19.1 -13.35 19.1 -14.05 19.1 -14.7 19.45 -14.9 L20.35 -14.8 21.25 -13.65 M17.65 -13.65 Q18.25 -12.45 18.25 -11.35 18.25 -10.25 17.65 -9.9 17.05 -9.55 16.25 -10.15 15.45 -10.75 14.85 -11.95 14.3 -13.15 14.25 -14.2 14.25 -15.3 14.85 -15.65 15.45 -16.0 16.25 -15.4 17.1 -14.85 17.65 -13.65 M3.35 -10.95 Q3.3 -10.1 2.9 -9.5 2.55 -8.95 2.1 -8.95 1.6 -8.95 1.35 -9.5 1.05 -10.0 1.1 -10.85 1.15 -11.65 1.55 -12.25 1.9 -12.8 2.4 -12.8 2.85 -12.8 3.1 -12.25 3.4 -11.75 3.35 -10.95 M39.65 -17.75 L40.1 -16.55 Q40.15 -15.9 39.75 -15.7 L38.85 -15.75 Q38.3 -16.05 37.9 -16.7 37.45 -17.35 37.4 -17.95 37.4 -18.55 37.75 -18.8 L38.65 -18.7 Q39.25 -18.45 39.65 -17.75 M36.05 -16.05 L36.5 -14.85 Q36.55 -14.2 36.15 -14.0 L35.25 -14.05 Q34.7 -14.35 34.3 -15.0 33.85 -15.65 33.8 -16.25 33.8 -16.85 34.15 -17.1 L35.05 -17.0 36.05 -16.05 M45.15 -21.7 Q46.1 -20.5 46.25 -19.35 46.45 -18.2 45.75 -17.75 45.05 -17.25 44.0 -17.75 42.9 -18.15 41.95 -19.35 41.1 -20.5 40.85 -21.6 40.7 -22.75 41.35 -23.25 42.05 -23.7 43.15 -23.25 44.3 -22.85 45.15 -21.7 M-36.0 -22.95 Q-36.85 -21.5 -38.2 -20.95 -39.55 -20.35 -40.65 -20.95 -41.75 -21.6 -41.95 -23.1 -42.15 -24.55 -41.3 -26.0 -40.45 -27.5 -39.1 -28.05 L-36.6 -28.0 Q-35.5 -27.4 -35.35 -25.9 -35.15 -24.45 -36.0 -22.95 M-27.7 -14.8 Q-28.1 -14.15 -28.7 -13.9 -29.25 -13.6 -29.75 -13.9 -30.25 -14.15 -30.35 -14.9 -30.45 -15.5 -30.05 -16.15 L-29.05 -17.15 -27.95 -17.1 Q-27.45 -16.8 -27.4 -16.15 -27.3 -15.5 -27.7 -14.8 M-19.15 -11.95 Q-19.4 -11.2 -20.0 -10.85 L-21.05 -10.7 Q-21.6 -10.9 -21.8 -11.55 -21.95 -12.15 -21.7 -12.9 L-20.9 -14.0 -19.75 -14.15 Q-19.25 -13.95 -19.1 -13.3 -18.9 -12.65 -19.15 -11.95 M-30.9 -17.35 Q-31.5 -16.3 -32.35 -15.9 L-33.85 -15.8 Q-34.45 -16.15 -34.5 -17.1 -34.55 -18.05 -33.95 -19.1 L-32.5 -20.55 -31.05 -20.7 Q-30.4 -20.35 -30.35 -19.35 -30.3 -18.35 -30.9 -17.35 M-1.0 -11.6 Q-1.1 -10.3 -1.65 -9.35 -2.2 -8.4 -2.9 -8.4 -3.6 -8.4 -4.0 -9.25 -4.4 -10.2 -4.3 -11.5 -4.2 -12.85 -3.7 -13.75 -3.15 -14.75 -2.45 -14.75 -1.75 -14.75 -1.35 -13.85 -0.9 -12.95 -1.0 -11.6" fill="#b6e3ff" fill-rule="evenodd" stroke="none"/>
  </g>
</svg>
