<?xml version="1.0" encoding="UTF-8" standalone="no"?>
<svg xmlns:ffdec="https://www.free-decompiler.com/flash" xmlns:xlink="http://www.w3.org/1999/xlink" ffdec:objectType="shape" height="39.6px" width="93.4px" xmlns="http://www.w3.org/2000/svg">
  <g transform="matrix(1.0, 0.0, 0.0, 1.0, 43.9, 53.7)">
    <path d="M48.2 -51.25 Q49.2 -50.0 49.45 -48.95 49.65 -47.85 49.0 -47.55 48.3 -47.25 47.1 -47.9 45.9 -48.55 44.9 -49.8 43.9 -51.05 43.65 -52.15 43.45 -53.3 44.15 -53.6 44.8 -53.9 46.0 -53.2 47.2 -52.5 48.2 -51.25 M39.65 -44.45 L39.7 -43.65 39.35 -43.1 38.8 -43.15 38.3 -43.7 Q38.1 -44.15 38.2 -44.55 L38.55 -45.1 39.15 -45.05 39.65 -44.45 M43.55 -23.35 Q44.4 -21.7 44.3 -20.55 44.25 -19.35 43.3 -19.35 42.35 -19.35 41.05 -20.55 39.8 -21.7 38.95 -23.35 38.1 -25.0 38.15 -26.2 38.25 -27.35 39.2 -27.35 40.15 -27.35 41.4 -26.2 L43.55 -23.35 M23.0 -18.55 Q23.3 -16.7 22.8 -15.4 22.25 -14.1 21.15 -14.1 20.05 -14.1 19.1 -15.4 18.1 -16.7 17.8 -18.55 17.5 -20.4 18.0 -21.7 18.55 -23.0 19.65 -23.0 20.75 -23.0 21.7 -21.7 22.7 -20.4 23.0 -18.55 M14.3 -17.5 Q14.3 -16.55 13.9 -15.9 13.55 -15.2 13.05 -15.2 12.55 -15.2 12.15 -15.9 11.8 -16.55 11.8 -17.5 11.8 -18.45 12.15 -19.15 12.55 -19.8 13.05 -19.8 L13.9 -19.15 Q14.3 -18.45 14.3 -17.5 M0.65 -19.0 Q0.65 -18.1 0.25 -17.5 -0.1 -16.85 -0.65 -16.85 -1.2 -16.85 -1.6 -17.5 -1.95 -18.1 -1.95 -19.0 -1.95 -19.9 -1.6 -20.55 -1.2 -21.15 -0.65 -21.15 -0.1 -21.15 0.25 -20.55 0.65 -19.9 0.65 -19.0 M38.05 -20.05 Q38.5 -19.2 38.35 -18.6 38.25 -17.95 37.65 -17.95 37.05 -17.95 36.35 -18.6 L35.25 -20.05 Q34.85 -20.9 34.95 -21.55 35.05 -22.15 35.65 -22.15 36.25 -22.15 36.95 -21.55 L38.05 -20.05 M30.3 -18.1 Q30.6 -17.1 30.35 -16.3 30.15 -15.45 29.6 -15.3 29.0 -15.15 28.35 -15.75 27.8 -16.35 27.5 -17.35 27.25 -18.4 27.4 -19.2 27.65 -20.1 28.25 -20.25 28.8 -20.4 29.4 -19.75 30.05 -19.15 30.3 -18.1 M43.5 -47.2 L43.95 -45.7 Q43.9 -44.95 43.4 -44.7 L42.3 -44.75 Q41.65 -45.1 41.2 -45.85 40.75 -46.65 40.75 -47.4 40.8 -48.15 41.25 -48.45 L42.4 -48.35 43.5 -47.2 M-36.85 -28.3 Q-37.7 -26.3 -39.25 -24.9 -40.75 -23.45 -42.1 -23.45 -43.45 -23.45 -43.8 -24.9 -44.1 -26.3 -43.25 -28.3 -42.4 -30.3 -40.9 -31.75 -39.35 -33.15 -38.0 -33.15 -36.65 -33.15 -36.35 -31.75 -36.0 -30.3 -36.85 -28.3 M-26.95 -22.6 Q-27.2 -21.6 -27.85 -21.1 -28.45 -20.45 -29.0 -20.6 -29.6 -20.75 -29.85 -21.6 -30.0 -22.35 -29.75 -23.35 L-28.95 -24.95 Q-28.35 -25.5 -27.75 -25.35 -27.2 -25.2 -26.95 -24.45 -26.7 -23.55 -26.95 -22.6 M-32.45 -25.75 Q-32.9 -24.6 -33.65 -23.8 -34.4 -23.0 -35.05 -23.0 -35.7 -23.0 -35.85 -23.8 -36.0 -24.6 -35.55 -25.75 -35.15 -26.9 -34.4 -27.7 -33.6 -28.5 -32.95 -28.5 -32.3 -28.5 -32.2 -27.7 -32.05 -26.9 -32.45 -25.75 M-19.0 -20.05 Q-19.3 -19.1 -19.9 -18.6 -20.6 -18.0 -21.2 -18.2 -21.85 -18.4 -22.0 -19.25 -22.25 -20.05 -21.95 -21.0 -21.65 -21.95 -20.95 -22.55 L-19.7 -22.85 Q-19.1 -22.65 -18.85 -21.9 -18.7 -21.0 -19.0 -20.05 M-4.25 -19.9 Q-4.25 -18.1 -4.95 -16.8 -5.6 -15.5 -6.55 -15.5 -7.5 -15.5 -8.2 -16.8 L-8.55 -17.8 -8.85 -19.9 -8.7 -21.55 -8.2 -23.0 Q-7.5 -24.3 -6.55 -24.3 -5.6 -24.3 -4.95 -23.0 -4.25 -21.7 -4.25 -19.9" fill="#b6e3ff" fill-rule="evenodd" stroke="none"/>
  </g>
</svg>
