<?xml version="1.0" encoding="UTF-8" standalone="no"?>
<svg xmlns:ffdec="https://www.free-decompiler.com/flash" xmlns:xlink="http://www.w3.org/1999/xlink" ffdec:objectType="shape" height="12.0px" width="81.5px" xmlns="http://www.w3.org/2000/svg">
  <g transform="matrix(1.0, 0.0, 0.0, 1.0, 41.3, 34.15)">
    <path d="M23.25 -28.2 Q23.25 -26.45 22.6 -25.25 22.0 -24.0 21.15 -24.0 20.3 -24.0 19.65 -25.25 19.05 -26.45 19.05 -28.2 19.05 -29.95 19.65 -31.2 20.3 -32.4 21.15 -32.4 22.0 -32.4 22.6 -31.2 23.25 -29.95 23.25 -28.2 M28.15 -25.75 Q28.15 -24.9 27.8 -24.3 27.5 -23.7 27.05 -23.7 26.6 -23.7 26.25 -24.3 25.95 -24.9 25.95 -25.75 25.95 -26.6 26.25 -27.2 26.6 -27.8 27.05 -27.8 27.5 -27.8 27.8 -27.2 28.15 -26.6 28.15 -25.75 M33.6 -27.2 Q33.6 -25.95 33.15 -25.05 32.75 -24.15 32.15 -24.15 31.55 -24.15 31.1 -25.05 30.7 -25.95 30.7 -27.2 30.7 -28.45 31.1 -29.35 31.55 -30.25 32.15 -30.25 32.75 -30.25 33.15 -29.35 33.6 -28.45 33.6 -27.2 M40.2 -27.3 Q40.2 -25.35 39.5 -24.0 38.85 -22.6 37.9 -22.6 36.95 -22.6 36.25 -24.0 35.6 -25.35 35.6 -27.3 35.6 -29.25 36.25 -30.65 36.95 -32.0 37.9 -32.0 38.85 -32.0 39.5 -30.65 40.2 -29.25 40.2 -27.3 M8.8 -29.5 Q8.8 -28.15 8.3 -27.25 7.8 -26.3 7.1 -26.3 6.4 -26.3 5.9 -27.25 5.4 -28.15 5.4 -29.5 5.4 -30.85 5.9 -31.8 6.4 -32.7 7.1 -32.7 7.8 -32.7 8.3 -31.8 8.8 -30.85 8.8 -29.5 M17.2 -28.25 Q17.2 -27.25 16.75 -26.55 16.35 -25.85 15.75 -25.85 15.15 -25.85 14.7 -26.55 14.3 -27.25 14.3 -28.25 14.3 -29.25 14.7 -29.95 15.15 -30.65 15.75 -30.65 16.35 -30.65 16.75 -29.95 17.2 -29.25 17.2 -28.25 M-36.5 -26.55 Q-36.5 -24.75 -37.2 -23.45 -37.9 -22.15 -38.9 -22.15 -39.9 -22.15 -40.6 -23.45 -41.3 -24.75 -41.3 -26.55 -41.3 -28.35 -40.6 -29.65 -39.9 -30.95 -38.9 -30.95 -37.9 -30.95 -37.2 -29.65 -36.5 -28.35 -36.5 -26.55 M-15.55 -28.5 Q-15.55 -27.85 -15.9 -27.4 -16.2 -26.9 -16.7 -26.9 -17.2 -26.9 -17.55 -27.4 L-17.85 -28.5 -17.55 -29.65 Q-17.2 -30.1 -16.7 -30.1 -16.2 -30.1 -15.9 -29.65 -15.55 -29.15 -15.55 -28.5 M-6.0 -30.6 Q-6.0 -29.15 -6.6 -28.1 -7.15 -27.05 -7.95 -27.05 -8.75 -27.05 -9.35 -28.1 -9.9 -29.15 -9.9 -30.6 -9.9 -32.05 -9.35 -33.1 -8.75 -34.15 -7.95 -34.15 -7.15 -34.15 -6.6 -33.1 -6.0 -32.05 -6.0 -30.6 M-31.3 -27.65 Q-31.3 -26.5 -31.8 -25.7 -32.3 -24.9 -33.0 -24.9 -33.7 -24.9 -34.2 -25.7 -34.7 -26.5 -34.7 -27.65 -34.7 -28.8 -34.2 -29.6 -33.7 -30.4 -33.0 -30.4 -32.3 -30.4 -31.8 -29.6 -31.3 -28.8 -31.3 -27.65 M-19.7 -28.15 Q-19.7 -26.35 -20.4 -25.1 -21.05 -23.85 -22.0 -23.85 -22.95 -23.85 -23.65 -25.1 -24.3 -26.35 -24.3 -28.15 -24.3 -29.95 -23.65 -31.2 -22.95 -32.45 -22.0 -32.45 -21.05 -32.45 -20.4 -31.2 -19.7 -29.95 -19.7 -28.15 M-26.45 -26.7 Q-26.45 -26.0 -27.0 -25.5 -27.5 -24.95 -28.2 -24.95 -28.9 -24.95 -29.45 -25.5 -29.95 -26.0 -29.95 -26.7 -29.95 -27.4 -29.45 -27.95 L-28.2 -28.45 Q-27.5 -28.45 -27.0 -27.95 -26.45 -27.4 -26.45 -26.7" fill="#b6e3ff" fill-rule="evenodd" stroke="none"/>
  </g>
</svg>
