<?xml version="1.0" encoding="UTF-8" standalone="no"?>
<svg xmlns:ffdec="https://www.free-decompiler.com/flash" xmlns:xlink="http://www.w3.org/1999/xlink" ffdec:objectType="shape" height="20.15px" width="89.55px" xmlns="http://www.w3.org/2000/svg">
  <g transform="matrix(1.0, 0.0, 0.0, 1.0, 47.85, 32.0)">
    <path d="M41.05 -27.05 Q41.85 -25.0 41.65 -23.55 41.45 -22.1 40.3 -22.1 39.15 -22.1 37.75 -23.55 36.35 -25.0 35.55 -27.05 34.7 -29.1 34.9 -30.55 35.15 -32.0 36.3 -32.0 37.45 -32.0 38.8 -30.55 40.2 -29.1 41.05 -27.05 M34.45 -22.7 Q35.0 -21.1 34.85 -19.95 34.8 -18.8 34.05 -18.8 33.3 -18.8 32.3 -19.95 31.4 -21.1 30.85 -22.7 30.25 -24.3 30.35 -25.45 30.5 -26.6 31.25 -26.6 32.0 -26.6 32.9 -25.45 33.85 -24.3 34.45 -22.7 M21.0 -17.35 Q21.25 -15.55 20.85 -14.3 20.4 -13.0 19.55 -13.0 18.7 -13.0 17.95 -14.3 17.15 -15.55 16.9 -17.35 16.65 -19.15 17.1 -20.45 17.5 -21.7 18.35 -21.7 19.2 -21.7 20.0 -20.45 20.75 -19.15 21.0 -17.35 M13.85 -15.4 Q13.85 -13.95 13.3 -12.9 12.8 -11.85 12.05 -11.85 11.3 -11.85 10.75 -12.9 10.25 -13.95 10.25 -15.4 10.25 -16.85 10.75 -17.9 11.3 -18.95 12.05 -18.95 12.8 -18.95 13.3 -17.9 13.85 -16.85 13.85 -15.4 M6.65 -14.6 L6.35 -13.6 Q6.1 -13.15 5.7 -13.15 L5.0 -13.6 Q4.75 -14.0 4.75 -14.6 4.75 -15.2 5.0 -15.65 5.3 -16.05 5.7 -16.05 6.1 -16.05 6.35 -15.65 L6.65 -14.6 M28.9 -19.4 L28.95 -17.7 Q28.85 -16.95 28.4 -16.8 28.0 -16.7 27.45 -17.3 27.0 -17.9 26.75 -18.85 26.5 -19.75 26.6 -20.5 26.8 -21.25 27.2 -21.35 27.65 -21.5 28.1 -20.9 L28.9 -19.4 M-42.1 -24.35 Q-42.9 -22.5 -44.15 -21.3 -45.45 -20.1 -46.55 -20.3 -47.6 -20.55 -47.8 -21.95 -48.0 -23.45 -47.2 -25.3 -46.45 -27.1 -45.15 -28.3 -43.85 -29.5 -42.8 -29.25 -41.7 -29.05 -41.5 -27.65 -41.35 -26.15 -42.1 -24.35 M-23.55 -18.9 Q-23.65 -17.3 -24.3 -16.2 -24.9 -15.05 -25.65 -15.05 -26.4 -15.05 -26.85 -16.2 -27.25 -17.3 -27.15 -18.9 -27.0 -20.5 -26.4 -21.65 -25.8 -22.75 -25.05 -22.75 -24.3 -22.75 -23.85 -21.65 -23.4 -20.5 -23.55 -18.9 M-21.3 -17.6 L-21.6 -16.5 Q-21.75 -16.05 -22.0 -16.05 L-22.45 -16.5 -22.5 -17.6 -22.25 -18.7 -21.75 -19.15 -21.4 -18.7 -21.3 -17.6 M-34.7 -20.6 Q-34.8 -19.8 -35.15 -19.25 -35.45 -18.65 -35.8 -18.65 -36.15 -18.65 -36.3 -19.25 L-36.3 -20.6 -35.9 -22.0 -35.2 -22.55 Q-34.85 -22.55 -34.75 -22.0 -34.55 -21.4 -34.7 -20.6 M-37.85 -22.3 Q-38.1 -21.25 -38.6 -20.55 -39.1 -19.8 -39.55 -19.8 -40.0 -19.8 -40.15 -20.55 -40.3 -21.25 -40.05 -22.3 L-39.3 -24.1 -38.35 -24.8 Q-37.9 -24.8 -37.75 -24.1 -37.55 -23.35 -37.85 -22.3" fill="#b6e3ff" fill-rule="evenodd" stroke="none"/>
  </g>
</svg>
