<?xml version="1.0" encoding="UTF-8" standalone="no"?>
<svg xmlns:ffdec="https://www.free-decompiler.com/flash" xmlns:xlink="http://www.w3.org/1999/xlink" ffdec:objectType="shape" height="67.7px" width="103.85px" xmlns="http://www.w3.org/2000/svg">
  <g transform="matrix(1.0, 0.0, 0.0, 1.0, 51.45, 31.15)">
    <path d="M34.0 5.15 Q29.15 2.8 27.0 -2.45 L26.4 -3.95 26.4 -2.35 Q26.4 5.35 28.2 9.45 21.35 6.0 17.8 -1.25 L24.6 -2.05 Q20.75 -10.3 23.35 -14.7 24.25 -9.3 30.8 -3.1 L34.15 -3.8 Q34.35 0.9 34.0 5.15 M2.85 7.6 Q2.25 3.25 2.05 -0.55 L13.4 -0.9 Q13.75 3.7 14.65 7.6 L2.85 7.6 M46.5 35.35 Q49.05 31.15 48.5 27.6 41.9 37.2 26.35 36.5 34.45 32.5 35.9 26.5 44.8 26.35 47.85 18.05 49.8 11.9 47.35 7.35 44.95 4.3 41.65 5.45 42.35 -0.25 41.5 -7.3 58.75 17.95 48.75 34.75 L46.5 35.35 M-34.0 5.15 Q-34.35 0.9 -34.15 -3.8 L-26.85 -2.65 Q-29.1 2.7 -34.0 5.15 M-25.55 5.6 L-25.55 -2.5 -15.45 -1.35 -15.8 5.6 -25.55 5.6 M-12.15 -17.95 Q-10.8 -24.65 -8.3 -31.15 -12.1 -13.35 -10.45 -0.95 L1.2 -0.55 Q0.95 3.6 1.05 7.65 -12.0 8.9 -13.8 2.95 L-13.9 -1.2 Q-13.9 -9.7 -12.15 -17.95 M-41.7 5.05 Q-43.6 4.7 -45.6 5.45 -49.35 8.05 -48.65 15.35 -46.55 25.7 -35.85 26.95 -33.3 32.8 -26.1 36.45 -41.85 37.25 -48.5 27.6 -49.05 31.15 -46.5 35.35 -58.45 18.45 -41.5 -7.3 -42.35 -0.5 -41.7 5.05" fill="#a684e0" fill-rule="evenodd" stroke="none"/>
  </g>
</svg>
