<?xml version="1.0" encoding="UTF-8" standalone="no"?>
<svg xmlns:ffdec="https://www.free-decompiler.com/flash" xmlns:xlink="http://www.w3.org/1999/xlink" ffdec:objectType="shape" height="114.4px" width="113.4px" xmlns="http://www.w3.org/2000/svg">
  <g transform="matrix(1.0, 0.0, 0.0, 1.0, 56.75, 50.65)">
    <path d="M48.5 45.95 Q45.5 63.8 22.05 62.5 28.25 56.65 29.4 50.8 21.2 60.7 -0.05 63.75 -21.3 60.7 -29.5 50.8 -28.35 56.65 -22.15 62.5 -45.6 63.8 -48.6 45.95 -50.25 54.8 -46.6 59.55 -59.95 57.3 -55.7 35.05 -52.4 17.15 -52.55 0.75 -50.85 -20.2 -39.6 -32.9 -30.05 -42.9 -19.5 -47.55 -0.05 -53.7 19.4 -47.55 29.95 -42.9 39.5 -32.9 50.75 -20.2 52.45 0.75 52.3 17.15 55.6 35.05 59.85 57.3 46.5 59.55 50.15 54.8 48.5 45.95 M37.6 26.4 Q45.1 25.55 47.85 18.05 49.8 11.9 47.35 7.35 44.55 3.75 40.45 5.95 L38.4 6.7 Q38.5 12.95 38.2 19.0 L38.2 19.3 37.6 26.4 M26.45 -18.45 Q13.9 -23.55 -0.05 -23.75 -14.0 -23.55 -26.55 -18.45 -29.8 4.5 -27.45 29.1 -26.95 33.05 -25.95 36.5 -21.35 38.8 -14.9 40.25 -0.3 43.5 15.05 40.4 21.35 38.85 25.8 36.8 26.8 33.2 27.35 29.1 29.7 4.5 26.45 -18.45 M-37.65 26.7 L-38.3 19.3 -38.3 19.0 Q-38.6 13.2 -38.5 7.15 -39.7 5.2 -42.2 4.95 -43.9 4.8 -45.6 5.45 -49.35 8.05 -48.65 15.35 -46.75 24.85 -37.65 26.7" fill="#424f86" fill-rule="evenodd" stroke="none"/>
  </g>
</svg>
