<?xml version="1.0" encoding="UTF-8" standalone="no"?>
<svg xmlns:ffdec="https://www.free-decompiler.com/flash" xmlns:xlink="http://www.w3.org/1999/xlink" ffdec:objectType="shape" height="84.3px" width="97.4px" xmlns="http://www.w3.org/2000/svg">
  <g transform="matrix(1.0, 0.0, 0.0, 1.0, 53.65, 36.3)">
    <path d="M40.45 5.95 Q37.75 7.05 36.0 12.5 31.85 5.05 31.2 -5.45 38.65 -0.7 42.05 5.3 41.25 5.5 40.45 5.95 M-49.9 23.25 Q-52.3 29.25 -51.1 33.75 -58.9 14.9 -42.7 -12.65 L-42.45 -14.15 Q-41.8 4.2 -33.4 12.6 -33.95 6.1 -30.9 0.4 -27.3 8.45 -15.8 16.45 -22.7 2.8 -17.3 -14.3 L-16.85 -10.25 Q-16.25 -7.25 -15.25 -4.7 L-15.5 1.35 Q-12.2 14.0 -1.7 19.3 L-3.0 9.75 Q3.4 16.05 17.05 20.65 10.1 9.1 10.15 -3.8 20.2 12.35 40.95 20.1 L36.05 20.25 Q24.05 19.55 15.65 6.75 17.2 16.65 26.1 24.2 9.45 26.65 -0.05 15.4 0.4 21.55 4.0 25.8 -8.2 22.7 -12.85 13.55 -10.8 18.65 -7.1 22.75 -23.55 22.05 -28.55 9.85 -28.75 19.75 -26.85 25.6 -33.45 21.95 -36.5 17.9 -40.85 12.1 -42.45 4.95 -44.0 4.85 -45.6 5.45 -49.35 8.05 -48.65 15.35 -46.55 25.65 -36.05 26.95 L-35.85 26.95 Q-31.65 36.55 -14.9 40.25 -0.65 43.45 14.35 40.55 10.25 44.55 3.05 48.0 -3.85 44.7 -7.8 41.5 -8.0 44.45 -6.2 47.35 -25.15 45.65 -29.75 35.4 -29.0 40.2 -29.75 43.15 L-28.9 43.95 Q-49.35 38.5 -49.9 23.25 M14.8 40.45 L15.05 40.4 Q33.65 35.9 35.9 26.5 L36.9 26.45 Q40.95 26.15 43.75 24.05 41.55 31.7 35.4 40.6 L34.4 40.85 Q35.9 37.15 36.55 33.3 26.75 45.65 12.7 45.95 L14.8 40.45 M-2.65 -9.85 Q-3.4 -16.95 -0.9 -28.15 L0.05 -36.3 Q-1.0 -5.3 7.9 5.15 2.4 3.6 -1.1 -1.9 -2.2 -5.4 -2.65 -9.85" fill="#a684e0" fill-rule="evenodd" stroke="none"/>
  </g>
</svg>
