<?xml version="1.0" encoding="UTF-8" standalone="no"?>
<svg xmlns:ffdec="https://www.free-decompiler.com/flash" xmlns:xlink="http://www.w3.org/1999/xlink" ffdec:objectType="shape" height="56.2px" width="142.2px" xmlns="http://www.w3.org/2000/svg">
  <g transform="matrix(1.0, 0.0, 0.0, 1.0, 71.2, 49.1)">
    <path d="M22.25 -40.7 Q23.25 -47.25 32.5 -49.1 37.3 -49.15 41.6 -47.15 51.1 -43.3 54.75 -30.7 55.6 -26.9 55.95 -22.0 57.9 -0.3 71.0 -1.0 67.2 5.2 55.25 7.0 45.8 7.85 44.2 -0.05 43.6 3.4 42.1 6.35 22.4 6.1 11.4 -4.5 2.35 -13.2 -0.1 -22.65 -2.55 -13.2 -11.6 -4.5 -22.6 6.1 -42.3 6.35 -43.8 3.4 -44.4 -0.05 -46.0 7.85 -55.45 7.0 -67.4 5.2 -71.2 -1.0 -58.1 -0.3 -56.15 -22.0 -55.8 -26.9 -54.95 -30.7 -51.3 -43.3 -41.8 -47.15 -37.5 -49.15 -32.7 -49.1 -23.45 -47.25 -22.45 -40.7 -22.05 -41.0 -21.6 -41.25 -10.3 -47.1 -0.1 -46.75 10.1 -47.1 21.4 -41.25 L22.25 -40.7" fill="#424f86" fill-rule="evenodd" stroke="none"/>
  </g>
</svg>
