<?xml version="1.0" encoding="UTF-8" standalone="no"?>
<svg xmlns:ffdec="https://www.free-decompiler.com/flash" xmlns:xlink="http://www.w3.org/1999/xlink" ffdec:objectType="shape" height="103.2px" width="112.8px" xmlns="http://www.w3.org/2000/svg">
  <g transform="matrix(1.0, 0.0, 0.0, 1.0, 56.55, 52.6)">
    <path d="M48.0 7.9 Q44.05 3.15 39.4 6.2 M46.45 21.5 Q42.6 25.8 35.9 27.25 31.65 38.05 10.4 41.7 -7.05 43.45 -20.25 39.35 -33.45 35.25 -35.95 27.1 -44.4 25.35 -46.8 20.15 M-48.2 8.95 Q-46.15 4.9 -41.85 4.9" fill="none" stroke="#000000" stroke-linecap="round" stroke-linejoin="round" stroke-opacity="0.49803922" stroke-width="1.0"/>
    <path d="M-3.45 -33.85 L-5.5 -28.8 Q-7.3 -23.75 -8.15 -18.6 L-8.6 -15.3 Q-9.85 -4.2 -6.75 7.4 -3.45 20.05 13.95 25.35 7.25 20.15 8.45 1.35 8.7 -2.65 9.3 -7.25 L9.55 -9.25 M-48.2 8.95 Q-51.4 2.25 -51.35 -4.7 -51.3 -9.8 -49.45 -15.05 -45.2 -27.55 -31.3 -39.0 -17.55 -49.7 -0.15 -51.1 17.25 -49.7 31.0 -39.0 44.9 -27.55 49.15 -15.05 51.15 -9.45 51.1 -4.2 51.0 2.1 48.0 7.9 M39.4 6.2 L37.45 8.95 Q40.0 14.05 44.55 17.15 35.3 22.65 21.7 20.65 7.85 16.35 8.45 1.35 M-46.8 20.15 Q-47.95 27.75 -55.05 33.75 -38.8 46.95 -1.65 49.0 L-0.15 49.1 1.35 49.0 Q38.5 46.95 54.75 33.75 47.85 27.9 46.45 21.5 M37.45 8.95 Q35.0 4.0 34.35 -2.85 M-41.85 4.9 Q-22.25 0.95 -8.6 -15.3" fill="none" stroke="#000000" stroke-linecap="round" stroke-linejoin="round" stroke-width="3.0"/>
  </g>
</svg>
