<?xml version="1.0" encoding="UTF-8" standalone="no"?>
<svg xmlns:ffdec="https://www.free-decompiler.com/flash" xmlns:xlink="http://www.w3.org/1999/xlink" ffdec:objectType="shape" height="99.2px" width="120.9px" xmlns="http://www.w3.org/2000/svg">
  <g transform="matrix(1.0, 0.0, 0.0, 1.0, 60.4, 59.1)">
    <path d="M23.8 37.65 Q34.25 33.4 35.9 26.5 44.8 26.35 47.85 18.05 49.8 11.9 47.35 7.35 44.55 3.75 40.45 5.95 L38.9 7.1 Q31.4 3.9 28.1 -5.4 24.85 -14.75 27.55 -23.75 15.9 -29.75 0.05 -30.35 -15.8 -29.75 -27.45 -23.75 -24.75 -14.75 -28.0 -5.4 -31.3 3.9 -38.75 6.2 -42.1 4.1 -45.6 5.45 -49.35 8.05 -48.65 15.35 -46.55 25.7 -35.85 26.95 -32.85 33.75 -23.55 37.6 -29.35 41.2 -34.05 39.6 -40.2 37.35 -40.7 32.45 -45.45 33.7 -48.95 30.65 -53.55 26.6 -52.35 20.1 -58.0 19.75 -59.1 13.65 -59.85 7.2 -54.85 2.75 -61.8 -1.1 -60.05 -8.45 -57.8 -14.6 -52.5 -17.3 -54.5 -22.65 -51.1 -28.05 -47.75 -33.5 -42.1 -33.4 -43.5 -38.95 -38.85 -43.15 -34.25 -47.35 -28.25 -46.45 -27.35 -50.8 -22.05 -53.5 -16.75 -56.25 -11.6 -54.55 -7.05 -58.95 0.05 -59.1 7.15 -58.95 11.7 -54.55 16.85 -56.25 22.15 -53.5 27.45 -50.8 28.35 -46.45 34.35 -47.35 38.95 -43.15 43.6 -38.95 42.2 -33.4 47.85 -33.5 51.2 -28.05 54.6 -22.65 52.6 -17.3 57.9 -14.6 60.15 -8.45 61.9 -1.1 54.95 2.75 59.95 7.2 59.2 13.65 58.1 19.75 52.45 20.1 53.65 26.6 49.05 30.65 45.55 33.7 40.8 32.45 40.3 37.35 34.15 39.6 29.4 41.2 23.8 37.65" fill="url(#gradient0)" fill-rule="evenodd" stroke="none"/>
  </g>
  <defs>
    <linearGradient gradientTransform="matrix(0.0, 0.0446, -0.0738, 0.0, 0.05, 12.7)" gradientUnits="userSpaceOnUse" id="gradient0" spreadMethod="pad" x1="-819.2" x2="819.2">
      <stop offset="0.0" stop-color="#7bffdc" stop-opacity="0.0"/>
      <stop offset="1.0" stop-color="#7bffdc" stop-opacity="0.8"/>
    </linearGradient>
  </defs>
</svg>
