<?xml version="1.0" encoding="UTF-8" standalone="no"?>
<svg xmlns:ffdec="https://www.free-decompiler.com/flash" xmlns:xlink="http://www.w3.org/1999/xlink" ffdec:objectType="shape" height="69.65px" width="95.0px" xmlns="http://www.w3.org/2000/svg">
  <g transform="matrix(1.0, 0.0, 0.0, 1.0, 47.65, 54.6)">
    <path d="M-24.75 -42.95 Q-14.7 -51.35 3.8 -49.6 19.1 -50.4 29.1 -54.6 25.55 -48.75 18.8 -45.3 32.3 -43.75 46.5 -30.8 L34.7 -31.75 Q44.8 -18.1 47.35 1.5 L41.9 -4.65 41.5 -5.1 Q42.2 0.75 41.4 5.55 38.0 10.95 33.55 14.55 35.8 6.95 34.45 -1.55 L33.0 1.4 30.25 -15.15 30.2 -15.2 24.0 -20.2 Q26.9 -15.6 26.7 -8.95 13.8 -18.65 1.95 -24.95 6.1 -20.9 6.1 -14.0 -4.25 -19.5 -17.85 -22.35 L-17.85 -15.85 -23.9 -20.05 Q-26.75 -15.0 -27.1 -9.45 L-29.05 -9.45 Q-33.4 8.15 -33.7 15.05 -36.95 12.8 -38.85 7.55 -41.5 4.45 -45.3 5.6 -45.25 -2.9 -43.95 -9.85 L-47.65 -4.45 Q-46.7 -14.4 -41.05 -25.9 -35.45 -37.4 -24.75 -42.95" fill="url(#gradient0)" fill-rule="evenodd" stroke="none"/>
  </g>
  <defs>
    <linearGradient gradientTransform="matrix(0.0, 0.0453, -0.058, 0.0, -0.15, 10.05)" gradientUnits="userSpaceOnUse" id="gradient0" spreadMethod="pad" x1="-819.2" x2="819.2">
      <stop offset="0.0" stop-color="#7bffdc" stop-opacity="0.0"/>
      <stop offset="1.0" stop-color="#7bffdc" stop-opacity="0.8"/>
    </linearGradient>
  </defs>
</svg>
