<?xml version="1.0" encoding="UTF-8" standalone="no"?>
<svg xmlns:ffdec="https://www.free-decompiler.com/flash" xmlns:xlink="http://www.w3.org/1999/xlink" ffdec:objectType="shape" height="83.3px" width="96.6px" xmlns="http://www.w3.org/2000/svg">
  <g transform="matrix(1.0, 0.0, 0.0, 1.0, 48.3, 41.65)">
    <path d="M37.3 10.05 Q38.85 5.6 42.8 5.3 48.05 5.9 48.3 12.4 48.55 18.5 44.35 22.85 41.2 25.7 35.4 26.6 33.85 31.55 29.4 34.4 17.85 41.8 0.0 41.65 -17.85 41.8 -29.4 34.4 -33.85 31.55 -35.4 26.6 -41.2 25.7 -44.35 22.85 -48.55 18.5 -48.3 12.4 -48.05 5.9 -42.8 5.3 -38.85 5.6 -37.3 10.05 -37.8 7.6 -38.45 5.1 -40.35 -4.0 -38.0 -13.55 -33.6 -27.05 -23.2 -33.9 -12.5 -41.6 0.0 -41.65 12.5 -41.6 23.2 -33.9 33.6 -27.05 38.0 -13.55 40.35 -4.0 38.45 5.1 37.8 7.6 37.3 10.05" fill="#ffe7d9" fill-rule="evenodd" stroke="none"/>
  </g>
</svg>
