<svg width="130" height="62" viewBox="0 0 130 62" fill="none" xmlns="http://www.w3.org/2000/svg">
<path d="M122.9 59.95C126.767 58.5167 128.7 55.1667 128.7 49.9V12C128.7 4.66667 125.067 1 117.8 1H11.8999C4.63328 1 0.999947 4.66667 0.999947 12V49.9C0.999947 55.1667 2.91661 58.5167 6.74995 59.95C8.21661 60.4833 9.93328 60.75 11.8999 60.75H117.8C119.767 60.75 121.467 60.4833 122.9 59.95ZM8.09995 56.2H8.14995C6.04995 55.2 4.99995 53.1 4.99995 49.9V12C4.99995 7.33333 7.29995 5 11.8999 5H117.8C122.4 5 124.7 7.33333 124.7 12V49.9C124.7 53.1 123.633 55.2 121.5 56.2L117.8 56.75H11.8999L8.09995 56.2Z" fill="url(#paint0_linear_0_1)"/>
<path d="M11.8999 56.75H117.8L121.5 56.2C123.633 55.2 124.7 53.1 124.7 49.9V12C124.7 7.33333 122.4 5 117.8 5H11.8999C7.29995 5 4.99995 7.33333 4.99995 12V49.9C4.99995 53.1 6.04995 55.2 8.14995 56.2H8.09995L11.8999 56.75Z" fill="url(#paint1_linear_0_1)"/>
<path d="M117.8 60.75H11.8999C9.93328 60.75 8.21661 60.4833 6.74995 59.95C2.91661 58.5167 0.999947 55.1667 0.999947 49.9V12C0.999947 4.66667 4.63328 1 11.8999 1H117.8C125.067 1 128.7 4.66667 128.7 12V49.9C128.7 55.1667 126.767 58.5167 122.9 59.95C121.467 60.4833 119.767 60.75 117.8 60.75Z" stroke="#3E424E" stroke-width="2" stroke-miterlimit="3" stroke-linecap="round" stroke-linejoin="round"/>
<path d="M104.4 36.7765C104.267 39.4255 102.813 40.75 100.04 40.75H88.32C85.44 40.75 84 39.3051 84 36.4152V24.5348C84 21.6449 85.44 20.2 88.32 20.2H100.04C102.893 20.2 104.347 21.6048 104.4 24.4144M109.6 25.3375L114 30.3947M114 30.3947L109.6 35.7329M114 30.3947H101.6" stroke="#EEF5FF" stroke-width="3" stroke-miterlimit="3" stroke-linecap="round" stroke-linejoin="round"/>
<defs>
<linearGradient id="paint0_linear_0_1" x1="64.85" y1="0.975005" x2="64.85" y2="60.725" gradientUnits="userSpaceOnUse">
<stop stop-color="#5868B1"/>
<stop offset="1" stop-color="#6A60B1"/>
</linearGradient>
<linearGradient id="paint1_linear_0_1" x1="64.8499" y1="4.97499" x2="64.8499" y2="56.725" gradientUnits="userSpaceOnUse">
<stop stop-color="#404C82"/>
<stop offset="1" stop-color="#4A437C"/>
</linearGradient>
</defs>
</svg>
