<?xml version="1.0" encoding="utf-8"?>
<svg version="1.1" id="Layer_1"
xmlns="http://www.w3.org/2000/svg"
xmlns:xlink="http://www.w3.org/1999/xlink"
xmlns:author="http://www.sothink.com"
width="52px" height="79px"
xml:space="preserve">
<g id="23289" transform="matrix(1, 0, 0, 1, 27.65, 37.25)">
<path style="fill:none;stroke-width:3;stroke-linecap:round;stroke-linejoin:round;stroke-miterlimit:3;stroke:#FFFFFF;stroke-opacity:1" d="M-18.2,-18.5L-4.2 -10.3L6.7 -16.7L6.7 -16.75L-26.15 -35.75L-26.15 10.6L-10 19.95L-10 6.6L-18.2 1.8M6.7,-16.7L22.85 -26L22.85 20.35L-10 39.35L-10 19.95M-10,6.6L-10 -0.15L-18.2 -5M-10,-0.15L-10 -6.95L-18.2 -11.7M-10,-6.95L-10 -7L-4.2 -10.3M-1.6,14.4L14.95 4.75M-1.6,21.15L14.95 11.55M-1.6,7.65L14.95 -1.95M-1.6,0.9L14.95 -8.75" />
</g>
</svg>
