<?xml version="1.0" encoding="utf-8"?>
<svg version="1.1" id="Layer_1"
xmlns="http://www.w3.org/2000/svg"
xmlns:xlink="http://www.w3.org/1999/xlink"
xmlns:author="http://www.sothink.com"
width="168px" height="96px"
xml:space="preserve">
<g id="23317" transform="matrix(1, 0, 0, 1, 83.6, 49.7)">
<linearGradient
id="LinearGradID_2590" gradientUnits="userSpaceOnUse" gradientTransform="matrix(0, 0.0569763, -0.101135, 0, 0.25, -2.05)" spreadMethod ="pad" x1="-819.2" y1="0" x2="819.2" y2="0" >
<stop  offset="0" style="stop-color:#5868B1;stop-opacity:1" />
<stop  offset="1" style="stop-color:#6A60B1;stop-opacity:1" />
</linearGradient>
<path style="fill:url(#LinearGradID_2590) " d="M72.45,-43.2L-71.95 -43.2Q-77.1 -43.15 -77.1 -37.9L-77.1 34Q-77.1 39.15 -71.95 39.15L72.45 39.15Q77.6 39.15 77.6 34L77.6 -37.9Q77.6 -43.15 72.45 -43.2M-71.95,-48.7L72.45 -48.7Q83.1 -48.7 83.1 -37.9L83.1 34Q83.1 44.65 72.45 44.65L-71.95 44.65Q-82.6 44.65 -82.6 34L-82.6 -37.9Q-82.6 -48.7 -71.95 -48.7" />
<linearGradient
id="LinearGradID_2591" gradientUnits="userSpaceOnUse" gradientTransform="matrix(0, 0.0569763, -0.101135, 0, 0.25, -2.05)" spreadMethod ="pad" x1="-819.2" y1="0" x2="819.2" y2="0" >
<stop  offset="0" style="stop-color:#384383;stop-opacity:1" />
<stop  offset="1" style="stop-color:#6A60B1;stop-opacity:1" />
</linearGradient>
<path style="fill:url(#LinearGradID_2591) " d="M77.6,-37.9L77.6 34Q77.6 39.15 72.45 39.15L-71.95 39.15Q-77.1 39.15 -77.1 34L-77.1 -37.9Q-77.1 -43.15 -71.95 -43.2L72.45 -43.2Q77.6 -43.15 77.6 -37.9" />
<path style="fill:none;stroke-width:2;stroke-linecap:round;stroke-linejoin:round;stroke-miterlimit:3;stroke:#272A45;stroke-opacity:1" d="M-71.95,-48.7L72.45 -48.7Q83.1 -48.7 83.1 -37.9L83.1 34Q83.1 44.65 72.45 44.65L-71.95 44.65Q-82.6 44.65 -82.6 34L-82.6 -37.9Q-82.6 -48.7 -71.95 -48.7z" />
</g>
</svg>
