<?xml version="1.0" encoding="utf-8"?>
<svg version="1.1" id="Layer_1"
xmlns="http://www.w3.org/2000/svg"
xmlns:xlink="http://www.w3.org/1999/xlink"
xmlns:author="http://www.sothink.com"
width="18px" height="14px"
xml:space="preserve">
<g id="9570" transform="matrix(1, 0, 0, 1, 8.8, 7.65)">
<path style="fill:#D3DFFF;fill-opacity:1" d="M8,-4.5Q8.55 -4 8.55 -3.3L8.55 4.55Q8.55 5.25 8 5.75Q7.5 6.3 6.8 6.3L-7.1 6.3Q-7.8 6.3 -8.3 5.75Q-8.8 5.25 -8.8 4.55L-8.8 -3.3Q-8.8 -4 -8.3 -4.5Q-7.8 -5 -7.1 -5L-5 -5L-4.55 -5.15L-4.35 -5.5L-3.8 -7.1L-3.55 -7.5L-3.1 -7.65L2.8 -7.65L3.2 -7.5L3.5 -7.1L4 -5.5L4.3 -5.15L4.7 -5L6.8 -5Q7.5 -5 8 -4.5M6.15,-3.3L5.75 -3.1L5.6 -2.7Q5.6 -2.4 5.75 -2.2Q5.9 -2.05 6.15 -2.05L6.6 -2.2L6.8 -2.7L6.6 -3.1L6.15 -3.3M1.75,2.05Q0.9 2.8 -0.15 2.8Q-1.25 2.8 -2 2.05Q-2.75 1.3 -2.75 0.2Q-2.75 -0.9 -2 -1.65Q-1.25 -2.4 -0.15 -2.4Q0.9 -2.4 1.75 -1.65Q2.45 -0.9 2.45 0.2Q2.45 1.3 1.75 2.05M-0.15,-4.15Q-1.95 -4.15 -3.2 -2.9Q-4.5 -1.6 -4.5 0.2Q-4.5 2 -3.2 3.25Q-1.95 4.55 -0.15 4.55Q1.6 4.55 2.9 3.25Q4.2 2 4.2 0.2Q4.2 -1.6 2.9 -2.9Q1.6 -4.15 -0.15 -4.15" />
</g>
</svg>
