<?xml version="1.0" encoding="utf-8"?>
<svg version="1.1" id="Layer_1"
xmlns="http://www.w3.org/2000/svg"
xmlns:xlink="http://www.w3.org/1999/xlink"
xmlns:author="http://www.sothink.com"
width="117px" height="97px"
xml:space="preserve">
<g id="23485" transform="matrix(1, 0, 0, 1, 58.6, 50.5)">
<linearGradient
id="LinearGradID_2752" gradientUnits="userSpaceOnUse" gradientTransform="matrix(0, -0.0485077, 0.105225, 0, -29, -9.75)" spreadMethod ="pad" x1="-819.2" y1="0" x2="819.2" y2="0" >
<stop  offset="0" style="stop-color:#5868B1;stop-opacity:1" />
<stop  offset="1" style="stop-color:#6A60B1;stop-opacity:1" />
</linearGradient>
<path style="fill:url(#LinearGradID_2752) " d="M50.65,-36.4Q50.65 -42.95 44.1 -42.95L-5.1 -42.95L-5.1 -49.5L44.1 -49.5Q57.2 -49.5 57.2 -36.4L57.2 -19.25L50.65 -19.25L50.65 -36.4" />
<linearGradient
id="LinearGradID_2753" gradientUnits="userSpaceOnUse" gradientTransform="matrix(0, -0.0485077, 0.105225, 0, -29, -9.75)" spreadMethod ="pad" x1="-819.2" y1="0" x2="819.2" y2="0" >
<stop  offset="0.00392157" style="stop-color:#343D68;stop-opacity:1" />
<stop  offset="1" style="stop-color:#3B3663;stop-opacity:1" />
</linearGradient>
<path style="fill:url(#LinearGradID_2753) " d="M-5.1,-19.25L-5.1 -42.95L44.1 -42.95Q50.65 -42.95 50.65 -36.4L50.65 -19.25L-5.1 -19.25" />
<linearGradient
id="LinearGradID_2754" gradientUnits="userSpaceOnUse" gradientTransform="matrix(0, -0.264771, 0.105225, 0, -29, -9.45)" spreadMethod ="pad" x1="-819.2" y1="0" x2="819.2" y2="0" >
<stop  offset="0" style="stop-color:#5868B1;stop-opacity:1" />
<stop  offset="1" style="stop-color:#6A60B1;stop-opacity:1" />
</linearGradient>
<path style="fill:url(#LinearGradID_2754) " d="M57.2,22L50.65 22L50.65 -19.25L57.2 -19.25L57.2 22" />
<linearGradient
id="LinearGradID_2755" gradientUnits="userSpaceOnUse" gradientTransform="matrix(0, -0.0485077, 0.105225, 0, -29, 5.25)" spreadMethod ="pad" x1="-819.2" y1="0" x2="819.2" y2="0" >
<stop  offset="0" style="stop-color:#5868B1;stop-opacity:1" />
<stop  offset="1" style="stop-color:#6A60B1;stop-opacity:1" />
</linearGradient>
<path style="fill:url(#LinearGradID_2755) " d="M57.2,31.9Q57.2 44.95 44.1 44.95L-5.1 44.95L-5.1 38.45L44.1 38.45Q50.65 38.45 50.65 31.9L50.65 22L57.2 22L57.2 31.9" />
<linearGradient
id="LinearGradID_2756" gradientUnits="userSpaceOnUse" gradientTransform="matrix(0, -0.0485077, 0.105225, 0, -29, 5.25)" spreadMethod ="pad" x1="-819.2" y1="0" x2="819.2" y2="0" >
<stop  offset="0.00392157" style="stop-color:#343D68;stop-opacity:1" />
<stop  offset="1" style="stop-color:#3B3663;stop-opacity:1" />
</linearGradient>
<path style="fill:url(#LinearGradID_2756) " d="M-5.1,22L50.65 22L50.65 31.9Q50.65 38.45 44.1 38.45L-5.1 38.45L-5.1 22" />
<linearGradient
id="LinearGradID_2757" gradientUnits="userSpaceOnUse" gradientTransform="matrix(0, -0.264771, 0.105225, 0, -29, -9.45)" spreadMethod ="pad" x1="-819.2" y1="0" x2="819.2" y2="0" >
<stop  offset="0.00392157" style="stop-color:#343D68;stop-opacity:1" />
<stop  offset="1" style="stop-color:#3B3663;stop-opacity:1" />
</linearGradient>
<path style="fill:url(#LinearGradID_2757) " d="M-5.1,22L-5.1 -19.25L50.65 -19.25L50.65 22L-5.1 22" />
<linearGradient
id="LinearGradID_2758" gradientUnits="userSpaceOnUse" gradientTransform="matrix(0, -0.0485077, 0.105225, 0, 28.6, -9.75)" spreadMethod ="pad" x1="-819.2" y1="0" x2="819.2" y2="0" >
<stop  offset="0" style="stop-color:#5868B1;stop-opacity:1" />
<stop  offset="1" style="stop-color:#6A60B1;stop-opacity:1" />
</linearGradient>
<path style="fill:url(#LinearGradID_2758) " d="M-57.6,-19.25L-57.6 -36.4Q-57.6 -49.5 -44.5 -49.5L-12.7 -49.5L-12.7 -42.95L-44.5 -42.95Q-51.05 -42.95 -51.05 -36.4L-51.05 -19.25L-57.6 -19.25" />
<linearGradient
id="LinearGradID_2759" gradientUnits="userSpaceOnUse" gradientTransform="matrix(0, -0.0485077, 0.105225, 0, 28.6, -9.75)" spreadMethod ="pad" x1="-819.2" y1="0" x2="819.2" y2="0" >
<stop  offset="0.00392157" style="stop-color:#343D68;stop-opacity:1" />
<stop  offset="1" style="stop-color:#3B3663;stop-opacity:1" />
</linearGradient>
<path style="fill:url(#LinearGradID_2759) " d="M-12.7,-19.25L-51.05 -19.25L-51.05 -36.4Q-51.05 -42.95 -44.5 -42.95L-12.7 -42.95L-12.7 -19.25" />
<linearGradient
id="LinearGradID_2760" gradientUnits="userSpaceOnUse" gradientTransform="matrix(0, -0.264771, 0.105225, 0, 28.6, -9.45)" spreadMethod ="pad" x1="-819.2" y1="0" x2="819.2" y2="0" >
<stop  offset="0" style="stop-color:#5868B1;stop-opacity:1" />
<stop  offset="1" style="stop-color:#6A60B1;stop-opacity:1" />
</linearGradient>
<path style="fill:url(#LinearGradID_2760) " d="M-57.6,-19.25L-51.05 -19.25L-51.05 22L-57.6 22L-57.6 -19.25" />
<linearGradient
id="LinearGradID_2761" gradientUnits="userSpaceOnUse" gradientTransform="matrix(0, -0.0485077, 0.105225, 0, -7.4, -9.75)" spreadMethod ="pad" x1="-819.2" y1="0" x2="819.2" y2="0" >
<stop  offset="0.00392157" style="stop-color:#343D68;stop-opacity:1" />
<stop  offset="1" style="stop-color:#3B3663;stop-opacity:1" />
</linearGradient>
<path style="fill:url(#LinearGradID_2761) " d="M-12.7,-19.25L-12.7 -42.95L-5.1 -42.95L-5.1 -19.25L-12.7 -19.25" />
<linearGradient
id="LinearGradID_2762" gradientUnits="userSpaceOnUse" gradientTransform="matrix(0, -0.0485077, 0.105225, 0, -7.4, -9.75)" spreadMethod ="pad" x1="-819.2" y1="0" x2="819.2" y2="0" >
<stop  offset="0" style="stop-color:#5868B1;stop-opacity:1" />
<stop  offset="1" style="stop-color:#6A60B1;stop-opacity:1" />
</linearGradient>
<path style="fill:url(#LinearGradID_2762) " d="M-5.1,-49.5L-5.1 -42.95L-12.7 -42.95L-12.7 -49.5L-5.1 -49.5" />
<linearGradient
id="LinearGradID_2763" gradientUnits="userSpaceOnUse" gradientTransform="matrix(0, -0.264771, 0.105225, 0, -7.4, -9.45)" spreadMethod ="pad" x1="-819.2" y1="0" x2="819.2" y2="0" >
<stop  offset="0.00392157" style="stop-color:#343D68;stop-opacity:1" />
<stop  offset="1" style="stop-color:#3B3663;stop-opacity:1" />
</linearGradient>
<path style="fill:url(#LinearGradID_2763) " d="M-12.7,-19.25L-5.1 -19.25L-5.1 22L-12.7 22L-12.7 -19.25" />
<linearGradient
id="LinearGradID_2764" gradientUnits="userSpaceOnUse" gradientTransform="matrix(0, -0.264771, 0.105225, 0, 28.6, -9.45)" spreadMethod ="pad" x1="-819.2" y1="0" x2="819.2" y2="0" >
<stop  offset="0.00392157" style="stop-color:#343D68;stop-opacity:1" />
<stop  offset="1" style="stop-color:#3B3663;stop-opacity:1" />
</linearGradient>
<path style="fill:url(#LinearGradID_2764) " d="M-12.7,22L-51.05 22L-51.05 -19.25L-12.7 -19.25L-12.7 22" />
<linearGradient
id="LinearGradID_2765" gradientUnits="userSpaceOnUse" gradientTransform="matrix(0, -0.0485077, 0.105225, 0, -7.4, 5.25)" spreadMethod ="pad" x1="-819.2" y1="0" x2="819.2" y2="0" >
<stop  offset="0.00392157" style="stop-color:#343D68;stop-opacity:1" />
<stop  offset="1" style="stop-color:#3B3663;stop-opacity:1" />
</linearGradient>
<path style="fill:url(#LinearGradID_2765) " d="M-12.7,38.45L-12.7 22L-5.1 22L-5.1 38.45L-12.7 38.45" />
<linearGradient
id="LinearGradID_2766" gradientUnits="userSpaceOnUse" gradientTransform="matrix(0, -0.0485077, 0.105225, 0, 28.6, 5.25)" spreadMethod ="pad" x1="-819.2" y1="0" x2="819.2" y2="0" >
<stop  offset="0.00392157" style="stop-color:#343D68;stop-opacity:1" />
<stop  offset="1" style="stop-color:#3B3663;stop-opacity:1" />
</linearGradient>
<path style="fill:url(#LinearGradID_2766) " d="M-12.7,22L-12.7 38.45L-44.5 38.45Q-51.05 38.45 -51.05 31.9L-51.05 22L-12.7 22" />
<linearGradient
id="LinearGradID_2767" gradientUnits="userSpaceOnUse" gradientTransform="matrix(0, -0.0485077, 0.105225, 0, 28.6, 5.25)" spreadMethod ="pad" x1="-819.2" y1="0" x2="819.2" y2="0" >
<stop  offset="0" style="stop-color:#5868B1;stop-opacity:1" />
<stop  offset="1" style="stop-color:#6A60B1;stop-opacity:1" />
</linearGradient>
<path style="fill:url(#LinearGradID_2767) " d="M-44.5,44.95Q-57.6 44.95 -57.6 31.9L-57.6 22L-51.05 22L-51.05 31.9Q-51.05 38.45 -44.5 38.45L-12.7 38.45L-12.7 44.95L-44.5 44.95" />
<linearGradient
id="LinearGradID_2768" gradientUnits="userSpaceOnUse" gradientTransform="matrix(0, -0.0485077, 0.105225, 0, -7.4, 5.25)" spreadMethod ="pad" x1="-819.2" y1="0" x2="819.2" y2="0" >
<stop  offset="0" style="stop-color:#5868B1;stop-opacity:1" />
<stop  offset="1" style="stop-color:#6A60B1;stop-opacity:1" />
</linearGradient>
<path style="fill:url(#LinearGradID_2768) " d="M-12.7,44.95L-12.7 38.45L-5.1 38.45L-5.1 44.95L-12.7 44.95" />
<path style="fill:none;stroke-width:2;stroke-linecap:round;stroke-linejoin:round;stroke-miterlimit:3;stroke:#BCC9E2;stroke-opacity:1" d="M-57.6,22L-57.6 31.9Q-57.6 44.95 -44.5 44.95L-12.7 44.95L-5.1 44.95L44.1 44.95Q57.2 44.95 57.2 31.9L57.2 22L57.2 -19.25L57.2 -36.4Q57.2 -49.5 44.1 -49.5L-5.1 -49.5M-12.7,-49.5L-44.5 -49.5Q-57.6 -49.5 -57.6 -36.4L-57.6 -19.25M-12.7,-49.5L-5.1 -49.5M-57.6,22L-57.6 -19.25" />
</g>
</svg>
