<?xml version="1.0" encoding="utf-8"?>
<svg version="1.1" id="Layer_1"
xmlns="http://www.w3.org/2000/svg"
xmlns:xlink="http://www.w3.org/1999/xlink"
xmlns:author="http://www.sothink.com"
width="20px" height="11px"
xml:space="preserve">
<g id="9572" transform="matrix(1, 0, 0, 1, 9.6, 5.35)">
<path style="fill:#D3DFFF;fill-opacity:1" d="M6.45,-2.2L5.65 -2.5Q5.15 -2.5 4.8 -2.2Q4.5 -1.8 4.5 -1.35Q4.5 -0.85 4.8 -0.55Q5.15 -0.15 5.65 -0.15Q6.1 -0.15 6.45 -0.55L6.8 -1.35L6.45 -2.2M-4.25,-5.35L4.25 -5.35Q6.5 -5.35 8.05 -3.75Q9.6 -2.2 9.6 0L9.6 0.05Q9.6 2.25 8.05 3.8Q6.5 5.4 4.25 5.4L-4.25 5.4Q-6.5 5.4 -8.1 3.8Q-9.6 2.25 -9.6 0.05L-9.6 0Q-9.6 -2.2 -8.1 -3.75Q-6.5 -5.35 -4.25 -5.35M3.7,0.7Q3.35 0.3 2.9 0.3Q2.4 0.3 2.05 0.7Q1.65 1 1.65 1.45Q1.65 1.95 2.05 2.3Q2.4 2.65 2.9 2.65Q3.35 2.65 3.7 2.3L4.05 1.45Q4.05 1 3.7 0.7M-3.6,2.6L-3.5 2.55L-3.35 2.05L-3.35 0.45L-1.7 0.45L-1.25 0.3L-1.2 0.25L-1.2 0.2L-1 -0.25L-1.2 -0.75L-1.65 -0.9L-3.35 -0.9L-3.35 -2.6L-3.5 -3.1L-4 -3.3L-4.5 -3.1L-4.5 -3.05L-4.55 -3L-4.7 -2.5L-4.7 -0.9L-6.35 -0.9L-6.75 -0.75L-6.85 -0.65L-7 -0.15L-6.85 0.3L-6.45 0.45L-4.7 0.45L-4.7 2.1L-4.55 2.6L-4.05 2.8L-3.6 2.6" />
</g>
</svg>
