<?xml version="1.0" encoding="utf-8"?>
<svg version="1.1" id="Layer_1"
xmlns="http://www.w3.org/2000/svg"
xmlns:xlink="http://www.w3.org/1999/xlink"
xmlns:author="http://www.sothink.com"
width="17px" height="17px"
xml:space="preserve">
<g id="9571" transform="matrix(1, 0, 0, 1, 8.4, 8.45)">
<path style="fill:#D3DFFF;fill-opacity:1" d="M-8.35,-0.85L-8.35 -0.9L-8.35 -1.05L-8.2 -1.75L-8.2 -1.85L-7 -1.85L-6.95 -1.85L-6.2 -3.5L-6.2 -3.55L-7 -4.5L-7 -4.55Q-6.1 -6.1 -4.55 -7L-4.5 -7L-3.65 -6.25L-3.6 -6.25L-1.9 -6.9L-1.85 -6.95L-1.8 -8.2L-0.5 -8.4L-0.5 -8.45L0.7 -8.45L0.75 -8.45L1.8 -8.2L1.85 -8.2L1.9 -7L3.55 -6.25L3.6 -6.25L4.5 -7L4.55 -7Q6.1 -6.1 7.05 -4.6L7.05 -4.55L6.3 -3.65L6.25 -3.65L6.95 -1.9L6.95 -1.85L8.2 -1.75L8.25 -1.75L8.25 1.75L8.2 1.8L6.95 1.85L6.95 1.95L6.25 3.6L6.3 3.65L7.05 4.5L7.05 4.55Q6.1 6.15 4.55 7.05L4.5 7L3.6 6.25L3.55 6.25L1.9 7L1.9 7.05L1.85 8.2L1.8 8.2L0.75 8.35L0.75 8.45L0.7 8.45L-0.5 8.45L-0.5 8.4L-1.8 8.15L-1.8 8.1L-1.85 6.9L-1.9 6.9L-3.6 6.25L-3.65 6.3L-4.5 7.05L-4.55 7Q-6.1 6.1 -7 4.5L-6.2 3.55L-6.2 3.5L-6.95 1.85L-7 1.85L-8.2 1.8L-8.2 1.75L-8.35 0.8L-8.4 0.8L-8.4 -0.85L-8.35 -0.85M2.3,-2.3Q1.35 -3.25 0 -3.25Q-1.35 -3.25 -2.3 -2.3Q-3.3 -1.35 -3.3 0Q-3.3 1.35 -2.3 2.3Q-1.35 3.3 0 3.3Q1.35 3.3 2.3 2.3Q3.25 1.35 3.25 0.05Q3.25 -1.35 2.3 -2.3M5.05,0.05Q5.05 2.1 3.55 3.55Q2.1 5.05 0 5.05Q-2.1 5.05 -3.55 3.55Q-5 2.1 -5 0Q-5 -2.1 -3.55 -3.5Q-2.1 -5 0 -5Q2.1 -5 3.55 -3.5Q5.05 -2.1 5.05 0.05M4.2,-4.15Q2.45 -5.9 0 -5.9Q-2.45 -5.9 -4.15 -4.15Q-5.95 -2.45 -5.95 0Q-5.95 2.45 -4.15 4.2Q-2.45 6 0 6Q2.45 6 4.2 4.2Q5.95 2.45 5.95 0.05Q5.95 -2.45 4.2 -4.15" />
</g>
</svg>
