<svg width="61" height="69" viewBox="0 0 61 69" fill="none" xmlns="http://www.w3.org/2000/svg">
<path d="M33.7428 39.1978L33.6515 39.4267C33.6395 39.4344 33.6293 39.4394 33.6206 39.4426L33.3631 39.3399L33.3017 39.2163L33.3724 39.0493L33.5347 38.9836L33.6795 39.0413L33.7428 39.1978ZM33.2418 41.6576L33.3471 41.4092L33.5094 41.3436L33.6541 41.4013L33.7174 41.5578L33.6597 41.7025L33.5032 41.7658L33.2449 41.6628C33.2438 41.6611 33.2428 41.6594 33.2418 41.6576ZM28.2076 41.4753L28.1163 41.7042C28.1044 41.7118 28.0941 41.7168 28.0854 41.72L27.8279 41.6173L27.7665 41.4937L27.8673 41.2558C27.8858 41.2461 27.906 41.2383 27.9285 41.2327L28.1443 41.3188L28.2076 41.4753ZM28.233 39.1153L28.1752 39.26L28.0187 39.3234L27.8533 39.2574L27.7918 39.1338L27.8626 38.9668L28.0249 38.9011L28.1696 38.9588L28.233 39.1153Z" fill="black" stroke="#EEF5FF"/>
<path d="M47.4616 26.0263L60.0513 26.1849L60.0745 29.145C60.3409 41.0323 59.0779 52.6228 56.2856 63.9165C55.7475 66.0153 54.2882 67.1486 51.9078 67.3166L8.8489 66.7988C6.48933 66.6068 5.07532 65.4369 4.60686 63.2891C2.07936 51.91 1.06573 40.2944 1.56598 28.4421L1.82279 25.4427L14.4125 25.6013M47.4616 26.0263L47.6417 17.1467C47.47 7.62632 42.0152 2.43058 31.2771 1.55953C20.4623 2.17498 14.8675 7.24562 14.4925 16.7715L14.4125 25.6013M47.4616 26.0263L47.4148 28.9962M14.4125 25.6013L14.3356 28.6111M47.4148 28.9962L43.765 28.938M47.4148 28.9962L47.3658 32.9661M43.765 28.938L43.746 32.8679M43.765 28.938L43.8418 25.9281M43.746 32.8679L47.3658 32.9661M43.746 32.8679L43.6104 39.7776L47.3002 39.866L47.3658 32.9661M43.8418 25.9281L18.0224 25.6295M43.8418 25.9281L44.0028 16.6585C42.9119 9.74264 38.6272 5.92957 31.1488 5.21925C23.7009 5.74234 19.3892 9.44256 18.2135 16.3199L18.0813 21.7296L18.0506 22.0196L18.0224 25.6295M18.0224 25.6295L17.9658 28.5294M17.9658 28.5294L17.9267 32.5693M17.9658 28.5294L14.3356 28.6111M17.9267 32.5693L17.8309 39.5091L14.181 39.4508L14.2768 32.511M17.9267 32.5693L14.2768 32.511M14.2768 32.511L14.3356 28.6111" stroke="#EEF5FF" stroke-width="1.5" stroke-miterlimit="3" stroke-linecap="round" stroke-linejoin="round"/>
<path d="M47.4148 28.9962L60.0745 29.145M17.9658 28.5294L43.765 28.938M14.3356 28.6111L1.56598 28.4421M25.3907 44.0163L36.0104 44.1304L36.0773 36.7305L25.4974 36.6465L25.3907 44.0163Z" stroke="#EEF5FF" stroke-miterlimit="3" stroke-linecap="round" stroke-linejoin="round"/>
</svg>
