<?xml version="1.0" encoding="utf-8"?>
<svg version="1.1" id="Layer_1"
xmlns="http://www.w3.org/2000/svg"
xmlns:xlink="http://www.w3.org/1999/xlink"
xmlns:author="http://www.sothink.com"
width="19px" height="15px"
xml:space="preserve">
<g id="9573" transform="matrix(1, 0, 0, 1, 9.1, 8.1)">
<path style="fill:#D3DFFF;fill-opacity:1" d="M6.55,-7.95L6.65 -7.7L6.65 -3.05L9.15 -1L9.25 -0.75L9.2 -0.45L8.5 0.35L8.25 0.5L8.2 0.5L7.95 0.4L0.05 -6.15L-7.8 0.4L-8.05 0.5L-8.35 0.35L-9 -0.45L-9.1 -0.75L-8.95 -1L-0.75 -7.8L0.05 -8.1L0.95 -7.8L3.7 -5.5L3.7 -7.7L3.85 -7.95L4.1 -8.05L6.25 -8.05L6.55 -7.95M6.65,5.8L6.4 6.3L5.95 6.5L1.55 6.5L1.55 2.1L-1.4 2.1L-1.4 6.5L-5.75 6.5Q-6.1 6.5 -6.25 6.3L-6.45 5.8L-6.45 0.25L0.05 -5.15L6.65 0.25L6.65 5.8" />
</g>
</svg>
