<?xml version="1.0" encoding="utf-8"?>
<svg version="1.1" id="Layer_1"
xmlns="http://www.w3.org/2000/svg"
xmlns:xlink="http://www.w3.org/1999/xlink"
xmlns:author="http://www.sothink.com"
width="160px" height="29px"
xml:space="preserve">
<g id="30019" transform="matrix(1, 0, 0, 1, 80.65, 15.8)">
<path style="fill:none;stroke-width:5;stroke-linecap:round;stroke-linejoin:round;stroke-miterlimit:3;stroke:#2D3356;stroke-opacity:0.819608" d="M22.7,10.35L22.3 10L19.75 0.8L19.55 0.7L18.4 0.7Q18.25 0.7 18.25 0.85L18.25 9.95L18.1 10.2L17.85 10.35L14 10.35Q13.75 10.35 13.65 10.2L13.5 9.95L13.5 -12.6L13.65 -12.9L14 -13L20.7 -13Q22.55 -13 23.95 -12.15Q25.35 -11.2 26.15 -9.6Q26.95 -8 26.95 -5.95Q26.95 -4.05 26.25 -2.5Q25.5 -1 24.1 -0.2L24.05 -0.05L24.05 0.05L27.15 10Q27.15 10.35 26.75 10.35L22.7 10.35M3.25,10.6Q0.25 10.6 -1.6 8.85Q-3.4 7.05 -3.4 4L-3.4 -6.8Q-3.4 -9.75 -1.6 -11.5Q0.25 -13.3 3.25 -13.3Q6.3 -13.3 8.05 -11.5Q9.9 -9.75 9.9 -6.8L9.9 -6.4L9.8 -6.1L9.5 -6L5.6 -5.8Q5.2 -5.8 5.2 -6.2L5.2 -7.1Q5.2 -8 4.65 -8.65Q4.15 -9.2 3.25 -9.2Q2.35 -9.2 1.85 -8.65Q1.3 -8 1.3 -7.1L1.3 4.4Q1.3 5.4 1.85 5.95Q2.35 6.6 3.25 6.6Q4.15 6.6 4.65 5.95Q5.2 5.4 5.2 4.4L5.2 3.55L5.3 3.25L5.6 3.15L9.5 3.3Q9.65 3.3 9.8 3.45L9.9 3.65L9.9 4Q9.9 7.05 8.05 8.85Q6.2 10.6 3.25 10.6M18.4,-9Q18.25 -9 18.25 -8.8L18.25 -3.1Q18.25 -2.95 18.4 -2.95L19.9 -2.95Q20.95 -2.95 21.65 -3.75Q22.25 -4.55 22.25 -5.95Q22.25 -7.3 21.65 -8.2Q20.95 -9 19.9 -9L18.4 -9M42.6,-9.4L42.5 -9.1L42.2 -9L35.25 -9L35.1 -8.8L35.1 -3.5Q35.1 -3.35 35.25 -3.35L39.3 -3.35L39.55 -3.25L39.7 -2.95L39.7 0.25L39.55 0.55L39.3 0.7L35.25 0.7Q35.1 0.7 35.1 0.85L35.1 6.15L35.25 6.3L42.2 6.3L42.5 6.4L42.6 6.7L42.6 9.95L42.5 10.2L42.2 10.35L30.85 10.35L30.5 10.2L30.35 9.95L30.35 -12.6L30.5 -12.9L30.85 -13L42.2 -13L42.5 -12.9L42.6 -12.6L42.6 -9.4M58.35,-9.4L58.25 -9.1L57.95 -9L51 -9Q50.85 -9 50.85 -8.8L50.85 -3.5Q50.85 -3.35 51 -3.35L55.05 -3.35L55.3 -3.25L55.45 -2.95L55.45 0.25L55.3 0.55L55.05 0.7L51 0.7Q50.85 0.7 50.85 0.85L50.85 6.15L51 6.3L57.95 6.3L58.25 6.4L58.35 6.7L58.35 9.95L58.25 10.2L57.95 10.35L46.6 10.35L46.25 10.2L46.1 9.95L46.1 -12.6L46.25 -12.9L46.6 -13L57.95 -13L58.25 -12.9L58.35 -12.6L58.35 -9.4M71.4,-12.6L71.55 -12.9L71.8 -13L75.75 -13L75.95 -12.9L76.15 -12.6L76.15 9.95L75.95 10.2L75.75 10.35L71.3 10.35Q70.95 10.35 70.9 10L66.75 -2.9L66.65 -3L66.55 -2.9L66.6 9.95L66.45 10.2L66.2 10.35L62.35 10.35L62 10.2L61.85 9.95L61.85 -12.6L62 -12.9L62.35 -13L66.65 -13L67.1 -12.65L71.3 0.2L71.4 0.35L71.45 0.2L71.4 -12.6M-64.55,-13L-64.3 -12.9L-64.2 -12.6L-64.2 -9.4L-64.3 -9.1L-64.55 -9L-68.75 -9L-68.9 -8.8L-68.9 9.95L-69.05 10.2Q-69.15 10.35 -69.3 10.35L-73.25 10.35L-73.5 10.2L-73.65 9.95L-73.65 -8.8Q-73.65 -9 -73.8 -9L-77.75 -9L-78.05 -9.1L-78.15 -9.4L-78.15 -12.6L-78.05 -12.9L-77.75 -13L-64.55 -13M-51,10.35Q-51.4 10.35 -51.4 9.95L-51.95 6.75L-52.15 6.6L-56.4 6.6L-56.55 6.75L-57.15 9.95Q-57.15 10.35 -57.55 10.35L-61.45 10.35Q-61.85 10.35 -61.8 9.85L-56.9 -12.65L-56.45 -13L-51.95 -13L-51.5 -12.65L-46.6 10.05Q-46.6 10.35 -46.95 10.35L-51 10.35M-55.9,2.8L-55.8 2.95L-52.75 2.95L-52.65 2.8L-54.2 -6.3L-54.3 -6.4L-54.45 -6.3L-55.9 2.8M-36.45,-13.05Q-34.6 -13.05 -33.15 -12.15Q-31.7 -11.2 -30.95 -9.6Q-30.15 -8 -30.15 -5.95Q-30.15 -2.85 -31.85 -1Q-33.5 0.9 -36.2 0.9L-38.7 0.9L-38.85 1.1L-38.85 9.95L-38.95 10.2L-39.25 10.35L-43.15 10.35L-43.45 10.2L-43.55 9.95L-43.55 -12.65L-43.45 -12.9L-43.15 -13.05L-36.45 -13.05M-37.25,-2.75Q-36.15 -2.75 -35.5 -3.6Q-34.9 -4.4 -34.9 -5.8Q-34.9 -7.3 -35.5 -8.1Q-36.15 -9 -37.25 -9L-38.7 -9L-38.85 -8.8L-38.85 -2.95L-38.7 -2.75L-37.25 -2.75M-13.05,10.6Q-15 10.6 -16.45 9.8Q-17.9 9.05 -18.75 7.7Q-19.55 6.3 -19.55 4.55L-19.55 3.55L-19.35 3.25L-19.15 3.15L-15.3 3.15L-15 3.25L-14.9 3.55L-14.9 4.25Q-14.9 5.25 -14.35 5.95Q-13.8 6.6 -13 6.6Q-12.25 6.6 -11.65 5.95Q-11.15 5.4 -11.15 4.4Q-11.15 3.4 -11.75 2.7Q-12.45 1.95 -14.4 0.55L-17.1 -1.55L-18.9 -3.85Q-19.6 -5.25 -19.6 -7.05Q-19.6 -9.85 -17.85 -11.55Q-16.1 -13.3 -13.15 -13.3Q-10.2 -13.3 -8.45 -11.5Q-6.65 -9.75 -6.65 -6.85L-6.65 -6.05L-6.75 -5.75L-7.05 -5.65L-10.9 -5.65L-11.2 -5.75L-11.3 -6.05L-11.3 -6.95Q-11.3 -8 -11.85 -8.65Q-12.35 -9.2 -13.15 -9.2Q-13.95 -9.2 -14.5 -8.65Q-15 -8.05 -15 -7.05Q-15 -6.05 -14.35 -5.25Q-13.75 -4.5 -11.85 -3.1L-8.75 -0.65Q-7.7 0.35 -7.1 1.4Q-6.5 2.55 -6.5 4.2Q-6.5 7.1 -8.3 8.9Q-10.1 10.6 -13.05 10.6" />
<path style="fill:none;stroke-width:1.2;stroke-linecap:round;stroke-linejoin:round;stroke-miterlimit:3;stroke:#D7E5FF;stroke-opacity:0.298039" d="M22.7,10.35L22.3 10L19.75 0.8L19.55 0.7L18.4 0.7Q18.25 0.7 18.25 0.85L18.25 9.95L18.1 10.2L17.85 10.35L14 10.35Q13.75 10.35 13.65 10.2L13.5 9.95L13.5 -12.6L13.65 -12.9L14 -13L20.7 -13Q22.55 -13 23.95 -12.15Q25.35 -11.2 26.15 -9.6Q26.95 -8 26.95 -5.95Q26.95 -4.05 26.25 -2.5Q25.5 -1 24.1 -0.2L24.05 -0.05L24.05 0.05L27.15 10Q27.15 10.35 26.75 10.35L22.7 10.35M3.25,10.6Q0.25 10.6 -1.6 8.85Q-3.4 7.05 -3.4 4L-3.4 -6.8Q-3.4 -9.75 -1.6 -11.5Q0.25 -13.3 3.25 -13.3Q6.3 -13.3 8.05 -11.5Q9.9 -9.75 9.9 -6.8L9.9 -6.4L9.8 -6.1L9.5 -6L5.6 -5.8Q5.2 -5.8 5.2 -6.2L5.2 -7.1Q5.2 -8 4.65 -8.65Q4.15 -9.2 3.25 -9.2Q2.35 -9.2 1.85 -8.65Q1.3 -8 1.3 -7.1L1.3 4.4Q1.3 5.4 1.85 5.95Q2.35 6.6 3.25 6.6Q4.15 6.6 4.65 5.95Q5.2 5.4 5.2 4.4L5.2 3.55L5.3 3.25L5.6 3.15L9.5 3.3Q9.65 3.3 9.8 3.45L9.9 3.65L9.9 4Q9.9 7.05 8.05 8.85Q6.2 10.6 3.25 10.6M18.4,-9Q18.25 -9 18.25 -8.8L18.25 -3.1Q18.25 -2.95 18.4 -2.95L19.9 -2.95Q20.95 -2.95 21.65 -3.75Q22.25 -4.55 22.25 -5.95Q22.25 -7.3 21.65 -8.2Q20.95 -9 19.9 -9L18.4 -9M42.6,-9.4L42.5 -9.1L42.2 -9L35.25 -9L35.1 -8.8L35.1 -3.5Q35.1 -3.35 35.25 -3.35L39.3 -3.35L39.55 -3.25L39.7 -2.95L39.7 0.25L39.55 0.55L39.3 0.7L35.25 0.7Q35.1 0.7 35.1 0.85L35.1 6.15L35.25 6.3L42.2 6.3L42.5 6.4L42.6 6.7L42.6 9.95L42.5 10.2L42.2 10.35L30.85 10.35L30.5 10.2L30.35 9.95L30.35 -12.6L30.5 -12.9L30.85 -13L42.2 -13L42.5 -12.9L42.6 -12.6L42.6 -9.4M58.35,-9.4L58.25 -9.1L57.95 -9L51 -9Q50.85 -9 50.85 -8.8L50.85 -3.5Q50.85 -3.35 51 -3.35L55.05 -3.35L55.3 -3.25L55.45 -2.95L55.45 0.25L55.3 0.55L55.05 0.7L51 0.7Q50.85 0.7 50.85 0.85L50.85 6.15L51 6.3L57.95 6.3L58.25 6.4L58.35 6.7L58.35 9.95L58.25 10.2L57.95 10.35L46.6 10.35L46.25 10.2L46.1 9.95L46.1 -12.6L46.25 -12.9L46.6 -13L57.95 -13L58.25 -12.9L58.35 -12.6L58.35 -9.4M71.4,-12.6L71.55 -12.9L71.8 -13L75.75 -13L75.95 -12.9L76.15 -12.6L76.15 9.95L75.95 10.2L75.75 10.35L71.3 10.35Q70.95 10.35 70.9 10L66.75 -2.9L66.65 -3L66.55 -2.9L66.6 9.95L66.45 10.2L66.2 10.35L62.35 10.35L62 10.2L61.85 9.95L61.85 -12.6L62 -12.9L62.35 -13L66.65 -13L67.1 -12.65L71.3 0.2L71.4 0.35L71.45 0.2L71.4 -12.6M-64.55,-13L-64.3 -12.9L-64.2 -12.6L-64.2 -9.4L-64.3 -9.1L-64.55 -9L-68.75 -9L-68.9 -8.8L-68.9 9.95L-69.05 10.2Q-69.15 10.35 -69.3 10.35L-73.25 10.35L-73.5 10.2L-73.65 9.95L-73.65 -8.8Q-73.65 -9 -73.8 -9L-77.75 -9L-78.05 -9.1L-78.15 -9.4L-78.15 -12.6L-78.05 -12.9L-77.75 -13L-64.55 -13M-36.45,-13.05Q-34.6 -13.05 -33.15 -12.15Q-31.7 -11.2 -30.95 -9.6Q-30.15 -8 -30.15 -5.95Q-30.15 -2.85 -31.85 -1Q-33.5 0.9 -36.2 0.9L-38.7 0.9L-38.85 1.1L-38.85 9.95L-38.95 10.2L-39.25 10.35L-43.15 10.35L-43.45 10.2L-43.55 9.95L-43.55 -12.65L-43.45 -12.9L-43.15 -13.05L-36.45 -13.05M-55.9,2.8L-55.8 2.95L-52.75 2.95L-52.65 2.8L-54.2 -6.3L-54.3 -6.4L-54.45 -6.3L-55.9 2.8M-51,10.35Q-51.4 10.35 -51.4 9.95L-51.95 6.75L-52.15 6.6L-56.4 6.6L-56.55 6.75L-57.15 9.95Q-57.15 10.35 -57.55 10.35L-61.45 10.35Q-61.85 10.35 -61.8 9.85L-56.9 -12.65L-56.45 -13L-51.95 -13L-51.5 -12.65L-46.6 10.05Q-46.6 10.35 -46.95 10.35L-51 10.35M-37.25,-2.75Q-36.15 -2.75 -35.5 -3.6Q-34.9 -4.4 -34.9 -5.8Q-34.9 -7.3 -35.5 -8.1Q-36.15 -9 -37.25 -9L-38.7 -9L-38.85 -8.8L-38.85 -2.95L-38.7 -2.75L-37.25 -2.75M-13.05,10.6Q-15 10.6 -16.45 9.8Q-17.9 9.05 -18.75 7.7Q-19.55 6.3 -19.55 4.55L-19.55 3.55L-19.35 3.25L-19.15 3.15L-15.3 3.15L-15 3.25L-14.9 3.55L-14.9 4.25Q-14.9 5.25 -14.35 5.95Q-13.8 6.6 -13 6.6Q-12.25 6.6 -11.65 5.95Q-11.15 5.4 -11.15 4.4Q-11.15 3.4 -11.75 2.7Q-12.45 1.95 -14.4 0.55L-17.1 -1.55L-18.9 -3.85Q-19.6 -5.25 -19.6 -7.05Q-19.6 -9.85 -17.85 -11.55Q-16.1 -13.3 -13.15 -13.3Q-10.2 -13.3 -8.45 -11.5Q-6.65 -9.75 -6.65 -6.85L-6.65 -6.05L-6.75 -5.75L-7.05 -5.65L-10.9 -5.65L-11.2 -5.75L-11.3 -6.05L-11.3 -6.95Q-11.3 -8 -11.85 -8.65Q-12.35 -9.2 -13.15 -9.2Q-13.95 -9.2 -14.5 -8.65Q-15 -8.05 -15 -7.05Q-15 -6.05 -14.35 -5.25Q-13.75 -4.5 -11.85 -3.1L-8.75 -0.65Q-7.7 0.35 -7.1 1.4Q-6.5 2.55 -6.5 4.2Q-6.5 7.1 -8.3 8.9Q-10.1 10.6 -13.05 10.6" />
<linearGradient
id="LinearGradID_6787" gradientUnits="userSpaceOnUse" gradientTransform="matrix(0, -0.0129395, 0.0941772, 0, -1, -1.35)" spreadMethod ="pad" x1="-819.2" y1="0" x2="819.2" y2="0" >
<stop  offset="0.00784314" style="stop-color:#C9E8FF;stop-opacity:0.898039" />
<stop  offset="1" style="stop-color:#EFDBFF;stop-opacity:0.898039" />
</linearGradient>
<path style="fill:url(#LinearGradID_6787) " d="M22.7,10.35L22.3 10L19.75 0.8L19.55 0.7L18.4 0.7Q18.25 0.7 18.25 0.85L18.25 9.95L18.1 10.2L17.85 10.35L14 10.35Q13.75 10.35 13.65 10.2L13.5 9.95L13.5 -12.6L13.65 -12.9L14 -13L20.7 -13Q22.55 -13 23.95 -12.15Q25.35 -11.2 26.15 -9.6Q26.95 -8 26.95 -5.95Q26.95 -4.05 26.25 -2.5Q25.5 -1 24.1 -0.2L24.05 -0.05L24.05 0.05L27.15 10Q27.15 10.35 26.75 10.35L22.7 10.35M3.25,10.6Q0.25 10.6 -1.6 8.85Q-3.4 7.05 -3.4 4L-3.4 -6.8Q-3.4 -9.75 -1.6 -11.5Q0.25 -13.3 3.25 -13.3Q6.3 -13.3 8.05 -11.5Q9.9 -9.75 9.9 -6.8L9.9 -6.4L9.8 -6.1L9.5 -6L5.6 -5.8Q5.2 -5.8 5.2 -6.2L5.2 -7.1Q5.2 -8 4.65 -8.65Q4.15 -9.2 3.25 -9.2Q2.35 -9.2 1.85 -8.65Q1.3 -8 1.3 -7.1L1.3 4.4Q1.3 5.4 1.85 5.95Q2.35 6.6 3.25 6.6Q4.15 6.6 4.65 5.95Q5.2 5.4 5.2 4.4L5.2 3.55L5.3 3.25L5.6 3.15L9.5 3.3Q9.65 3.3 9.8 3.45L9.9 3.65L9.9 4Q9.9 7.05 8.05 8.85Q6.2 10.6 3.25 10.6M18.4,-9Q18.25 -9 18.25 -8.8L18.25 -3.1Q18.25 -2.95 18.4 -2.95L19.9 -2.95Q20.95 -2.95 21.65 -3.75Q22.25 -4.55 22.25 -5.95Q22.25 -7.3 21.65 -8.2Q20.95 -9 19.9 -9L18.4 -9M42.6,-9.4L42.5 -9.1L42.2 -9L35.25 -9L35.1 -8.8L35.1 -3.5Q35.1 -3.35 35.25 -3.35L39.3 -3.35L39.55 -3.25L39.7 -2.95L39.7 0.25L39.55 0.55L39.3 0.7L35.25 0.7Q35.1 0.7 35.1 0.85L35.1 6.15L35.25 6.3L42.2 6.3L42.5 6.4L42.6 6.7L42.6 9.95L42.5 10.2L42.2 10.35L30.85 10.35L30.5 10.2L30.35 9.95L30.35 -12.6L30.5 -12.9L30.85 -13L42.2 -13L42.5 -12.9L42.6 -12.6L42.6 -9.4M58.35,-9.4L58.25 -9.1L57.95 -9L51 -9Q50.85 -9 50.85 -8.8L50.85 -3.5Q50.85 -3.35 51 -3.35L55.05 -3.35L55.3 -3.25L55.45 -2.95L55.45 0.25L55.3 0.55L55.05 0.7L51 0.7Q50.85 0.7 50.85 0.85L50.85 6.15L51 6.3L57.95 6.3L58.25 6.4L58.35 6.7L58.35 9.95L58.25 10.2L57.95 10.35L46.6 10.35L46.25 10.2L46.1 9.95L46.1 -12.6L46.25 -12.9L46.6 -13L57.95 -13L58.25 -12.9L58.35 -12.6L58.35 -9.4M71.4,-12.6L71.55 -12.9L71.8 -13L75.75 -13L75.95 -12.9L76.15 -12.6L76.15 9.95L75.95 10.2L75.75 10.35L71.3 10.35Q70.95 10.35 70.9 10L66.75 -2.9L66.65 -3L66.55 -2.9L66.6 9.95L66.45 10.2L66.2 10.35L62.35 10.35L62 10.2L61.85 9.95L61.85 -12.6L62 -12.9L62.35 -13L66.65 -13L67.1 -12.65L71.3 0.2L71.4 0.35L71.45 0.2L71.4 -12.6M-64.55,-13L-64.3 -12.9L-64.2 -12.6L-64.2 -9.4L-64.3 -9.1L-64.55 -9L-68.75 -9L-68.9 -8.8L-68.9 9.95L-69.05 10.2Q-69.15 10.35 -69.3 10.35L-73.25 10.35L-73.5 10.2L-73.65 9.95L-73.65 -8.8Q-73.65 -9 -73.8 -9L-77.75 -9L-78.05 -9.1L-78.15 -9.4L-78.15 -12.6L-78.05 -12.9L-77.75 -13L-64.55 -13M-55.9,2.8L-55.8 2.95L-52.75 2.95L-52.65 2.8L-54.2 -6.3L-54.3 -6.4L-54.45 -6.3L-55.9 2.8M-51,10.35Q-51.4 10.35 -51.4 9.95L-51.95 6.75L-52.15 6.6L-56.4 6.6L-56.55 6.75L-57.15 9.95Q-57.15 10.35 -57.55 10.35L-61.45 10.35Q-61.85 10.35 -61.8 9.85L-56.9 -12.65L-56.45 -13L-51.95 -13L-51.5 -12.65L-46.6 10.05Q-46.6 10.35 -46.95 10.35L-51 10.35M-36.45,-13.05Q-34.6 -13.05 -33.15 -12.15Q-31.7 -11.2 -30.95 -9.6Q-30.15 -8 -30.15 -5.95Q-30.15 -2.85 -31.85 -1Q-33.5 0.9 -36.2 0.9L-38.7 0.9L-38.85 1.1L-38.85 9.95L-38.95 10.2L-39.25 10.35L-43.15 10.35L-43.45 10.2L-43.55 9.95L-43.55 -12.65L-43.45 -12.9L-43.15 -13.05L-36.45 -13.05M-37.25,-2.75Q-36.15 -2.75 -35.5 -3.6Q-34.9 -4.4 -34.9 -5.8Q-34.9 -7.3 -35.5 -8.1Q-36.15 -9 -37.25 -9L-38.7 -9L-38.85 -8.8L-38.85 -2.95L-38.7 -2.75L-37.25 -2.75M-13.05,10.6Q-15 10.6 -16.45 9.8Q-17.9 9.05 -18.75 7.7Q-19.55 6.3 -19.55 4.55L-19.55 3.55L-19.35 3.25L-19.15 3.15L-15.3 3.15L-15 3.25L-14.9 3.55L-14.9 4.25Q-14.9 5.25 -14.35 5.95Q-13.8 6.6 -13 6.6Q-12.25 6.6 -11.65 5.95Q-11.15 5.4 -11.15 4.4Q-11.15 3.4 -11.75 2.7Q-12.45 1.95 -14.4 0.55L-17.1 -1.55L-18.9 -3.85Q-19.6 -5.25 -19.6 -7.05Q-19.6 -9.85 -17.85 -11.55Q-16.1 -13.3 -13.15 -13.3Q-10.2 -13.3 -8.45 -11.5Q-6.65 -9.75 -6.65 -6.85L-6.65 -6.05L-6.75 -5.75L-7.05 -5.65L-10.9 -5.65L-11.2 -5.75L-11.3 -6.05L-11.3 -6.95Q-11.3 -8 -11.85 -8.65Q-12.35 -9.2 -13.15 -9.2Q-13.95 -9.2 -14.5 -8.65Q-15 -8.05 -15 -7.05Q-15 -6.05 -14.35 -5.25Q-13.75 -4.5 -11.85 -3.1L-8.75 -0.65Q-7.7 0.35 -7.1 1.4Q-6.5 2.55 -6.5 4.2Q-6.5 7.1 -8.3 8.9Q-10.1 10.6 -13.05 10.6" />
</g>
</svg>
