<?xml version="1.0" encoding="utf-8"?>
<svg version="1.1" id="Layer_1"
xmlns="http://www.w3.org/2000/svg"
xmlns:xlink="http://www.w3.org/1999/xlink"
xmlns:author="http://www.sothink.com"
width="20px" height="25px"
xml:space="preserve">
<g id="16830" transform="matrix(1, 0, 0, 1, -56.7, 18.4)">
<path style="fill:#ABABD9;fill-opacity:0.886275" d="M61.9,-1.65Q63.9 0.35 66.6 0.35L66.75 0.35L66.75 -1.95L71.05 1.55L66.75 5.7L66.75 3.55Q62.55 3.55 59.6 0.65Q56.7 -2.3 56.7 -6.4Q56.7 -10.55 59.6 -13.5L61.9 -11.1Q59.95 -9.2 59.95 -6.4Q59.95 -3.6 61.9 -1.65M71.5,-11.05Q69.45 -13.05 66.75 -13.05L66.75 -10.6L62.25 -14.2L66.75 -18.4L66.75 -16.2Q70.8 -16.2 73.75 -13.3Q76.65 -10.4 76.65 -6.2Q76.65 -2.1 73.75 0.85L71.5 -1.45L71.5 -1.5Q73.45 -3.5 73.45 -6.3Q73.45 -9.05 71.5 -11.05" />
</g>
</svg>
