<svg width="44" height="44" viewBox="0 0 44 44" fill="none" xmlns="http://www.w3.org/2000/svg">
<path d="M37.1261 37.1775L37.1263 37.1777L37.1343 37.1689L38.2343 35.9689L37.9147 35.5898C35.5255 37.128 32.7734 37.9 29.65 37.9C25.2499 37.9 21.5139 36.3432 18.4277 33.2242L18.4268 33.2232C15.3746 30.1711 13.85 26.4518 13.85 22.05C13.85 17.6823 15.3742 13.9625 18.4272 10.8764C21.5131 7.79061 25.2492 6.25 29.65 6.25C32.7723 6.25 35.5409 7.03805 37.964 8.60974L38.284 8.23074L37.134 6.98074L37.1341 6.98059L37.1268 6.97322C32.9796 2.82602 27.9492 0.75 22.05 0.75C16.1838 0.75 11.1539 2.82626 6.97394 6.97251L6.97322 6.97322C2.82602 11.1204 0.75 16.1508 0.75 22.05C0.75 27.9821 2.82572 33.0293 6.97322 37.1768L6.97467 37.1782C11.1548 41.2909 16.1844 43.35 22.05 43.35C27.9485 43.35 32.9787 41.2911 37.1261 37.1775ZM16 22.1V22.1113L16.001 22.1226L16.151 23.7726L16.1512 23.7749L16.2512 24.7749L16.2537 24.7994L16.2609 24.8231C16.6538 26.109 17.5966 27.0463 19.042 27.6436C20.4791 28.2373 22.4225 28.5003 24.8552 28.45L24.8568 28.4499C29.8345 28.3154 34.1184 26.8519 37.6966 24.0527L38.2887 23.658L38.3023 23.6489L38.3146 23.6381C41.0176 21.2731 42.4 18.693 42.4 15.9V15.8381L42.3711 15.7833C41.7252 14.5595 40.8761 13.4555 39.8254 12.4718C37.8636 10.4438 35.6403 9.13488 33.1567 8.55651L33.1406 8.55276L33.1241 8.55116L30.0241 8.25116L30.0015 8.24898L29.9789 8.25089L27.0289 8.50089L27.0142 8.50214L26.9998 8.5051C24.3506 9.04851 22.0244 10.306 20.0247 12.2717L20.0244 12.2721C17.3416 14.9209 16 18.2025 16 22.1ZM18.7 23.7H18.7001L18.6999 23.6922L18.65 22.0961C18.6509 18.9535 19.6929 16.3202 21.7747 14.18L21.949 14.1451L22.0233 14.1303L22.0768 14.0768C24.2624 11.8911 26.8977 10.8174 29.9974 10.85L29.9974 10.85C33.1605 10.8826 35.8615 12.0195 38.1137 14.2673L39.884 16.4681C39.5393 18.32 38.436 20.0511 36.5384 21.6593L36.5373 21.6602C35.8503 22.2491 35.0973 22.773 34.2778 23.2319L34.2748 23.2336C31.5499 24.8095 28.4098 25.6337 24.8476 25.7H24.75V25.6998L24.7402 25.7002C23.0551 25.7663 21.7123 25.6329 20.7006 25.3117C19.7197 25.0003 19.0666 24.5183 18.7 23.8846V23.75V23.7ZM19.8109 31.9635L19.8178 31.9715L19.8254 31.9789C22.6047 34.6905 25.9171 36.05 29.75 36.05C33.6146 36.05 36.8788 34.6914 39.5264 31.9772C41.5611 30.0093 42.8361 27.6638 43.3457 24.9461L43.3461 24.9461L43.3479 24.9326C43.6821 22.3921 43.672 20.4649 43.2896 19.1788L43.0869 18.4968L42.8185 19.1557L42.2685 20.5057L42.2675 20.5082C41.787 21.7254 40.8508 22.9439 39.4369 24.1605L39.4298 24.1666L39.4232 24.1732L38.5833 25.0131C34.9008 27.9353 30.3764 29.4843 24.9962 29.65H23.4156C20.775 29.3184 18.8284 28.6768 17.5467 27.7476L17.4811 27.7H17.4H17.15H16.6989L16.938 28.0825C17.7784 29.4271 18.7361 30.7208 19.8109 31.9635Z" fill="url(#paint0_linear_1_5)" stroke="black" stroke-width="0.5" stroke-miterlimit="3.8637"/>
<defs>
<linearGradient id="paint0_linear_1_5" x1="22.15" y1="43.025" x2="22.15" y2="-2.12502" gradientUnits="userSpaceOnUse">
<stop stop-color="#00ADFA"/>
<stop offset="1" stop-color="#2680FA"/>
</linearGradient>
</defs>
</svg>
